<?xml version="1.0" encoding="UTF-8" standalone="no"?>
<!DOCTYPE svg PUBLIC "-//W3C//DTD SVG 1.1//EN" "http://www.w3.org/Graphics/SVG/1.1/DTD/svg11.dtd">
<svg xmlns="http://www.w3.org/2000/svg" version="1.1" viewBox="0 0 140 100">
<g stroke-width="2.00" fill="none" stroke-linecap="butt">
<path stroke="#7d837f" stroke-opacity="0.996" vector-effect="non-scaling-stroke" d="
  M 79.25 5.29
  Q 79.26 5.67 79.00 5.96"
/>
<path stroke="#545a59" vector-effect="non-scaling-stroke" d="
  M 79.00 5.96
  L 54.79 6.00"
/>
<path stroke="#7d837f" stroke-opacity="0.996" vector-effect="non-scaling-stroke" d="
  M 54.79 6.00
  L 54.71 5.50"
/>
<path stroke="#545a59" vector-effect="non-scaling-stroke" d="
  M 82.25 5.29
  Q 80.95 6.57 79.00 5.96"
/>
<path stroke="#636869" stroke-opacity="0.996" vector-effect="non-scaling-stroke" d="
  M 86.14 27.29
  Q 69.90 26.39 53.93 27.44"
/>
<path stroke="#545a59" vector-effect="non-scaling-stroke" d="
  M 53.79 7.00
  Q 54.56 6.83 54.79 6.00"
/>
<path stroke="#c33235" stroke-opacity="0.996" vector-effect="non-scaling-stroke" d="
  M 73.50 31.79
  Q 72.51 32.52 72.06 31.69
  Q 70.15 28.11 67.94 31.43
  Q 67.24 32.47 66.21 32.00"
/>
<path stroke="#c33235" stroke-opacity="0.996" vector-effect="non-scaling-stroke" d="
  M 73.02 34.34
  Q 71.21 30.43 71.29 34.00"
/>
<path stroke="#545a59" vector-effect="non-scaling-stroke" d="
  M 8.50 38.79
  L 8.00 40.29"
/>
<path stroke="#8c918f" stroke-opacity="0.996" vector-effect="non-scaling-stroke" d="
  M 8.00 40.29
  L 7.04 40.25"
/>
<path stroke="#545a59" vector-effect="non-scaling-stroke" d="
  M 39.50 49.48
  Q 38.83 54.50 39.53 59.52"
/>
<path stroke="#636869" stroke-opacity="0.996" vector-effect="non-scaling-stroke" d="
  M 8.25 61.21
  L 8.00 40.29"
/>
<path stroke="#c33235" stroke-opacity="0.996" vector-effect="non-scaling-stroke" d="
  M 46.00 46.79
  Q 45.01 47.01 44.42 47.81
  Q 44.14 48.20 44.22 48.65
  Q 44.39 49.56 45.50 48.54"
/>
<path stroke="#c33235" stroke-opacity="0.996" vector-effect="non-scaling-stroke" d="
  M 48.04 46.25
  Q 49.22 46.46 49.92 47.39
  Q 50.24 47.82 50.60 48.09
  Q 52.25 49.31 52.00 51.29"
/>
<path stroke="#c33235" stroke-opacity="0.996" vector-effect="non-scaling-stroke" d="
  M 47.04 53.75
  Q 48.55 53.42 48.39 51.98
  A 0.50 0.44 80.5 0 1 48.72 51.45
  Q 49.58 51.24 47.75 52.21"
/>
<path stroke="#c33235" stroke-opacity="0.996" vector-effect="non-scaling-stroke" d="
  M 45.75 51.29
  Q 43.77 50.53 44.53 52.20
  Q 45.00 53.25 45.96 52.75"
/>
<path stroke="#9e4c4c" vector-effect="non-scaling-stroke" d="
  M 40.46 50.50
  L 40.46 49.50"
/>
<path stroke="#b37779" stroke-opacity="0.992" vector-effect="non-scaling-stroke" d="
  M 49.00 45.71
  Q 48.23 45.60 48.04 46.25"
/>
<path stroke="#ad5a5c" stroke-opacity="0.996" vector-effect="non-scaling-stroke" d="
  M 48.04 46.25
  Q 47.83 47.33 48.54 48.01
  A 0.78 0.54 38.3 0 1 48.78 48.79
  Q 48.46 49.42 47.79 48.50"
/>
<path stroke="#c33235" stroke-opacity="0.996" vector-effect="non-scaling-stroke" d="
  M 45.79 45.60
  L 42.03 48.16"
/>
<path stroke="#636869" stroke-opacity="0.996" vector-effect="non-scaling-stroke" d="
  M 131.75 38.79
  L 132.10 61.27"
/>
<path stroke="#545a59" vector-effect="non-scaling-stroke" d="
  M 100.56 51.81
  Q 101.42 48.64 100.54 45.50"
/>
<path stroke="#c33235" stroke-opacity="0.996" vector-effect="non-scaling-stroke" d="
  M 92.25 48.71
  Q 90.42 49.33 91.56 47.56
  Q 92.55 46.02 90.75 45.96"
/>
<path stroke="#c33235" stroke-opacity="0.996" vector-effect="non-scaling-stroke" d="
  M 92.00 51.21
  Q 90.08 50.93 92.00 52.29"
/>
<path stroke="#c33235" stroke-opacity="0.996" vector-effect="non-scaling-stroke" d="
  M 92.00 52.29
  Q 91.84 53.53 92.96 53.75"
/>
<path stroke="#c33235" stroke-opacity="0.996" vector-effect="non-scaling-stroke" d="
  M 87.50 50.79
  Q 88.17 49.88 87.96 48.75"
/>
<path stroke="#c33235" stroke-opacity="0.996" vector-effect="non-scaling-stroke" d="
  M 94.50 48.93
  Q 97.78 48.80 94.25 47.79"
/>
<path stroke="#c94e52" stroke-opacity="0.992" vector-effect="non-scaling-stroke" d="
  M 92.50 52.21
  L 92.00 52.29"
/>
<path stroke="#c33235" stroke-opacity="0.996" vector-effect="non-scaling-stroke" d="
  M 71.29 66.00
  Q 70.14 67.31 71.45 67.61
  A 0.96 0.92 29.2 0 0 72.34 67.38
  Q 73.05 66.72 72.71 65.75"
/>
<path stroke="#c33235" stroke-opacity="0.996" vector-effect="non-scaling-stroke" d="
  M 66.94 65.73
  Q 68.72 69.97 68.96 65.75"
/>
<path stroke="#545a59" vector-effect="non-scaling-stroke" d="
  M 86.27 72.73
  Q 78.46 72.81 70.75 72.79
  Q 62.26 72.78 53.80 72.68"
/>
<path stroke="#545a59" vector-effect="non-scaling-stroke" d="
  M 78.25 94.54
  Q 81.38 94.50 79.24 94.32
  Q 66.99 93.34 54.36 94.65"
/>
<path stroke="#959899" vector-effect="non-scaling-stroke" d="
  M 83.96 22.00
  L 84.00 8.00
  A 0.50 0.50 0.0 0 0 83.50 7.50
  L 60.00 7.54"
/>
<path stroke="#808485" vector-effect="non-scaling-stroke" d="
  M 60.00 7.54
  L 56.55 7.53
  A 0.53 0.50 90.0 0 0 56.05 8.06
  L 56.06 25.19
  A 0.50 0.50 0.0 0 0 56.56 25.69
  L 83.40 25.75
  A 0.87 0.77 87.6 0 0 84.16 24.82
  L 83.96 22.00"
/>
<path stroke="#eaebeb" vector-effect="non-scaling-stroke" d="
  M 60.00 7.54
  L 60.01 20.99
  A 0.80 0.78 0.4 0 0 60.80 21.77
  L 83.96 22.00"
/>
<path stroke="#959899" vector-effect="non-scaling-stroke" d="
  M 37.46 55.50
  L 37.50 41.50
  A 0.50 0.50 0.0 0 0 37.00 41.00
  L 12.75 41.04"
/>
<path stroke="#808485" vector-effect="non-scaling-stroke" d="
  M 12.75 41.04
  L 9.81 41.03
  A 0.54 0.50 90.0 0 0 9.31 41.57
  L 9.19 58.31
  A 0.51 0.49 90.0 0 0 9.68 58.82
  L 36.94 58.95
  A 0.53 0.50 -0.5 0 0 37.47 58.44
  L 37.46 55.50"
/>
<path stroke="#eaebeb" vector-effect="non-scaling-stroke" d="
  M 12.75 41.04
  Q 14.00 49.10 13.25 52.25
  Q 12.49 55.46 16.00 55.00
  Q 21.47 54.28 37.46 55.50"
/>
<path stroke="#df8b8c" vector-effect="non-scaling-stroke" d="
  M 83.96 55.75
  L 84.00 41.56
  A 0.56 0.56 0.0 0 0 83.44 41.00
  L 59.25 41.04"
/>
<path stroke="#da7477" vector-effect="non-scaling-stroke" d="
  M 59.25 41.04
  Q 57.86 40.78 56.54 41.15
  A 0.69 0.67 82.2 0 0 56.06 41.81
  L 56.00 58.34
  A 0.66 0.66 0.0 0 0 56.66 59.00
  L 83.19 58.94
  A 0.69 0.68 7.8 0 0 83.85 58.45
  Q 84.22 57.14 83.96 55.75"
/>
<path stroke="#fae9ea" vector-effect="non-scaling-stroke" d="
  M 59.25 41.04
  Q 60.54 46.97 59.65 53.74
  A 1.36 1.35 -87.1 0 0 61.02 55.27
  Q 67.34 55.11 72.93 54.89
  Q 78.50 54.66 83.96 55.75"
/>
<path stroke="#959899" vector-effect="non-scaling-stroke" d="
  M 130.71 55.25
  L 130.70 41.56
  A 0.51 0.50 0.0 0 0 130.19 41.06
  L 105.75 41.04"
/>
<path stroke="#808485" vector-effect="non-scaling-stroke" d="
  M 105.75 41.04
  L 103.01 41.02
  A 0.53 0.51 90.0 0 0 102.50 41.55
  L 102.50 58.45
  A 0.55 0.55 0.0 0 0 103.05 59.00
  L 130.18 58.94
  A 0.54 0.49 0.0 0 0 130.72 58.45
  L 130.71 55.25"
/>
<path stroke="#eaebeb" vector-effect="non-scaling-stroke" d="
  M 105.75 41.04
  Q 107.18 47.17 106.70 54.21
  A 0.74 0.74 -87.8 0 0 107.43 55.00
  L 130.71 55.25"
/>
<path stroke="#2b3133" vector-effect="non-scaling-stroke" d="
  M 118.70 59.47
  Q 126.72 59.73 118.74 59.48
  Q 117.22 59.43 118.70 59.47"
/>
<path stroke="#959899" vector-effect="non-scaling-stroke" d="
  M 83.96 88.75
  L 84.00 74.75
  A 0.50 0.50 0.0 0 0 83.50 74.25
  L 60.00 74.29"
/>
<path stroke="#808485" vector-effect="non-scaling-stroke" d="
  M 60.00 74.29
  L 56.97 74.28
  A 0.96 0.95 89.7 0 0 56.02 75.25
  L 56.17 91.81
  A 0.52 0.51 0.0 0 0 56.69 92.32
  L 83.43 92.45
  A 0.54 0.50 0.0 0 0 83.97 91.95
  L 83.96 88.75"
/>
<path stroke="#eaebeb" vector-effect="non-scaling-stroke" d="
  M 60.00 74.29
  L 60.01 87.35
  A 0.94 0.93 -0.9 0 0 60.98 88.28
  Q 73.00 87.91 83.96 88.75"
/>
</g>
<path fill="#7d837f" fill-opacity="0.996" d="
  M 79.25 5.29
  Q 79.26 5.67 79.00 5.96
  L 54.79 6.00
  L 54.71 5.50
  L 79.25 5.29
  Z"
/>
<path fill="#7d837f" fill-opacity="0.996" d="
  M 79.25 5.29
  L 82.25 5.29
  Q 80.95 6.57 79.00 5.96
  Q 79.26 5.67 79.25 5.29
  Z"
/>
<path fill="#2b3133" d="
  M 82.25 5.29
  Q 84.06 4.95 85.62 5.70
  A 0.83 0.81 -77.5 0 1 86.08 6.44
  L 86.14 27.29
  Q 69.90 26.39 53.93 27.44
  L 53.79 7.00
  Q 54.56 6.83 54.79 6.00
  L 79.00 5.96
  Q 80.95 6.57 82.25 5.29
  Z
  M 83.96 22.00
  L 84.00 8.00
  A 0.50 0.50 0.0 0 0 83.50 7.50
  L 60.00 7.54
  L 56.55 7.53
  A 0.53 0.50 90.0 0 0 56.05 8.06
  L 56.06 25.19
  A 0.50 0.50 0.0 0 0 56.56 25.69
  L 83.40 25.75
  A 0.87 0.77 87.6 0 0 84.16 24.82
  L 83.96 22.00
  Z"
/>
<path fill="#7d837f" fill-opacity="0.996" d="
  M 54.71 5.50
  L 54.79 6.00
  Q 54.56 6.83 53.79 7.00
  Q 53.50 5.73 54.71 5.50
  Z"
/>
<path fill="#d5d6d7" d="
  M 60.00 7.54
  L 60.01 20.99
  A 0.80 0.78 0.4 0 0 60.80 21.77
  L 83.96 22.00
  L 84.16 24.82
  A 0.87 0.77 87.6 0 1 83.40 25.75
  L 56.56 25.69
  A 0.50 0.50 0.0 0 1 56.06 25.19
  L 56.05 8.06
  A 0.53 0.50 -90.0 0 1 56.55 7.53
  L 60.00 7.54
  Z"
/>
<path fill="#ffffff" d="
  M 60.00 7.54
  L 83.50 7.50
  A 0.50 0.50 0.0 0 1 84.00 8.00
  L 83.96 22.00
  L 60.80 21.77
  A 0.80 0.78 0.4 0 1 60.01 20.99
  L 60.00 7.54
  Z"
/>
<path fill="#9c9fa0" fill-opacity="0.992" d="
  M 86.14 27.29
  Q 70.01 28.92 53.93 27.44
  Q 69.90 26.39 86.14 27.29
  Z"
/>
<path fill="#c94e52" fill-opacity="0.992" d="
  M 73.50 31.79
  Q 72.51 32.52 72.06 31.69
  Q 70.15 28.11 67.94 31.43
  Q 67.24 32.47 66.21 32.00
  L 67.94 30.19
  Q 70.02 28.01 71.56 29.69
  L 73.50 31.79
  Z"
/>
<path fill="#be1619" d="
  M 73.50 31.79
  Q 75.86 34.34 73.02 34.34
  Q 71.21 30.43 71.29 34.00
  L 71.06 37.21
  A 0.83 0.71 -7.4 0 1 70.47 37.86
  Q 68.43 38.44 68.81 35.22
  A 0.94 0.93 86.2 0 0 67.65 34.20
  Q 64.24 35.06 66.21 32.00
  Q 67.24 32.47 67.94 31.43
  Q 70.15 28.11 72.06 31.69
  Q 72.51 32.52 73.50 31.79
  Z"
/>
<path fill="#c94e52" fill-opacity="0.992" d="
  M 73.02 34.34
  L 71.29 34.00
  Q 71.21 30.43 73.02 34.34
  Z"
/>
<path fill="#7d837f" fill-opacity="0.996" d="
  M 8.50 38.79
  L 8.00 40.29
  L 7.04 40.25
  Q 6.97 38.67 8.50 38.79
  Z"
/>
<path fill="#2b3133" d="
  M 8.50 38.79
  L 38.14 38.80
  A 1.56 1.48 0.5 0 1 39.70 40.31
  L 39.50 49.48
  Q 38.83 54.50 39.53 59.52
  Q 39.86 61.32 38.00 61.31
  Q 23.13 61.28 8.25 61.21
  L 8.00 40.29
  L 8.50 38.79
  Z
  M 37.46 55.50
  L 37.50 41.50
  A 0.50 0.50 0.0 0 0 37.00 41.00
  L 12.75 41.04
  L 9.81 41.03
  A 0.54 0.50 90.0 0 0 9.31 41.57
  L 9.19 58.31
  A 0.51 0.49 90.0 0 0 9.68 58.82
  L 36.94 58.95
  A 0.53 0.50 -0.5 0 0 37.47 58.44
  L 37.46 55.50
  Z"
/>
<path fill="#be1619" d="
  M 86.25 60.35
  A 0.90 0.90 0.0 0 1 85.35 61.25
  L 54.65 61.25
  A 0.90 0.90 0.0 0 1 53.75 60.35
  L 53.75 39.65
  A 0.90 0.90 0.0 0 1 54.65 38.75
  L 85.35 38.75
  A 0.90 0.90 0.0 0 1 86.25 39.65
  L 86.25 60.35
  Z
  M 83.96 55.75
  L 84.00 41.56
  A 0.56 0.56 0.0 0 0 83.44 41.00
  L 59.25 41.04
  Q 57.86 40.78 56.54 41.15
  A 0.69 0.67 82.2 0 0 56.06 41.81
  L 56.00 58.34
  A 0.66 0.66 0.0 0 0 56.66 59.00
  L 83.19 58.94
  A 0.69 0.68 7.8 0 0 83.85 58.45
  Q 84.22 57.14 83.96 55.75
  Z"
/>
<path fill="#2b3133" d="
  M 131.75 38.79
  L 132.10 61.27
  L 101.76 61.19
  A 1.17 1.13 -0.2 0 1 100.59 60.07
  L 100.56 51.81
  Q 101.42 48.64 100.54 45.50
  L 100.47 39.73
  A 1.13 0.96 -0.5 0 1 101.60 38.75
  L 131.75 38.79
  Z
  M 130.71 55.25
  L 130.70 41.56
  A 0.51 0.50 0.0 0 0 130.19 41.06
  L 105.75 41.04
  L 103.01 41.02
  A 0.53 0.51 90.0 0 0 102.50 41.55
  L 102.50 58.45
  A 0.55 0.55 0.0 0 0 103.05 59.00
  L 130.18 58.94
  A 0.54 0.49 0.0 0 0 130.72 58.45
  L 130.71 55.25
  Z
  M 118.70 59.47
  Q 126.72 59.73 118.74 59.48
  Q 117.22 59.43 118.70 59.47
  Z"
/>
<path fill="#9c9fa0" fill-opacity="0.992" d="
  M 131.75 38.79
  Q 132.94 38.91 133.00 40.50
  Q 133.45 52.46 132.10 61.27
  L 131.75 38.79
  Z"
/>
<path fill="#9c9fa0" fill-opacity="0.992" d="
  M 7.04 40.25
  L 8.00 40.29
  L 8.25 61.21
  Q 7.00 61.23 7.00 60.25
  Q 6.97 50.25 7.04 40.25
  Z"
/>
<path fill="#d5d6d7" d="
  M 12.75 41.04
  Q 14.00 49.10 13.25 52.25
  Q 12.49 55.46 16.00 55.00
  Q 21.47 54.28 37.46 55.50
  L 37.47 58.44
  A 0.53 0.50 -0.5 0 1 36.94 58.95
  L 9.68 58.82
  A 0.51 0.49 -90.0 0 1 9.19 58.31
  L 9.31 41.57
  A 0.54 0.50 90.0 0 1 9.81 41.03
  L 12.75 41.04
  Z"
/>
<path fill="#ffffff" d="
  M 12.75 41.04
  L 37.00 41.00
  A 0.50 0.50 0.0 0 1 37.50 41.50
  L 37.46 55.50
  Q 21.47 54.28 16.00 55.00
  Q 12.49 55.46 13.25 52.25
  Q 14.00 49.10 12.75 41.04
  Z"
/>
<path fill="#f5d2d5" d="
  M 59.25 41.04
  Q 60.54 46.97 59.65 53.74
  A 1.36 1.35 -87.1 0 0 61.02 55.27
  Q 67.34 55.11 72.93 54.89
  Q 78.50 54.66 83.96 55.75
  Q 84.22 57.14 83.85 58.45
  A 0.69 0.68 7.8 0 1 83.19 58.94
  L 56.66 59.00
  A 0.66 0.66 0.0 0 1 56.00 58.34
  L 56.06 41.81
  A 0.69 0.67 82.2 0 1 56.54 41.15
  Q 57.86 40.78 59.25 41.04
  Z"
/>
<path fill="#ffffff" d="
  M 59.25 41.04
  L 83.44 41.00
  A 0.56 0.56 0.0 0 1 84.00 41.56
  L 83.96 55.75
  Q 78.50 54.66 72.93 54.89
  Q 67.34 55.11 61.02 55.27
  A 1.36 1.35 -87.1 0 1 59.65 53.74
  Q 60.54 46.97 59.25 41.04
  Z"
/>
<path fill="#d5d6d7" d="
  M 105.75 41.04
  Q 107.18 47.17 106.70 54.21
  A 0.74 0.74 -87.8 0 0 107.43 55.00
  L 130.71 55.25
  L 130.72 58.45
  A 0.54 0.49 -0.0 0 1 130.18 58.94
  L 103.05 59.00
  A 0.55 0.55 0.0 0 1 102.50 58.45
  L 102.50 41.55
  A 0.53 0.51 -90.0 0 1 103.01 41.02
  L 105.75 41.04
  Z"
/>
<path fill="#ffffff" d="
  M 105.75 41.04
  L 130.19 41.06
  A 0.51 0.50 0.0 0 1 130.70 41.56
  L 130.71 55.25
  L 107.43 55.00
  A 0.74 0.74 -87.8 0 1 106.70 54.21
  Q 107.18 47.17 105.75 41.04
  Z"
/>
<path fill="#c94e52" fill-opacity="0.992" d="
  M 45.79 45.60
  L 42.03 48.16
  Q 43.23 45.36 45.79 45.60
  Z"
/>
<path fill="#9c9fa0" fill-opacity="0.992" d="
  M 49.00 45.71
  Q 48.23 45.60 48.04 46.25
  Q 47.83 47.33 48.54 48.01
  A 0.78 0.54 38.3 0 1 48.78 48.79
  Q 48.46 49.42 47.79 48.50
  Q 45.64 45.44 49.00 45.71
  Z"
/>
<path fill="#c94e52" fill-opacity="0.992" d="
  M 92.25 48.71
  Q 90.42 49.33 91.56 47.56
  Q 92.55 46.02 90.75 45.96
  Q 94.30 45.05 92.25 48.71
  Z"
/>
<path fill="#be1619" d="
  M 92.00 51.21
  Q 90.08 50.93 92.00 52.29
  Q 91.84 53.53 92.96 53.75
  Q 92.58 54.60 91.72 54.57
  Q 91.17 54.55 90.56 53.98
  Q 88.94 52.48 87.50 50.79
  Q 88.17 49.88 87.96 48.75
  Q 88.94 46.94 90.75 45.96
  Q 92.55 46.02 91.56 47.56
  Q 90.42 49.33 92.25 48.71
  L 94.50 48.93
  Q 97.78 48.80 94.25 47.79
  Q 93.27 45.46 94.95 45.54
  Q 95.71 45.57 96.47 46.28
  Q 98.10 47.81 99.45 49.60
  A 0.67 0.67 -0.0 0 1 99.45 50.40
  Q 97.41 53.06 95.94 54.19
  Q 94.66 55.17 94.02 54.03
  A 1.03 0.81 -49.8 0 1 94.05 53.13
  Q 95.43 50.40 92.00 51.21
  Z"
/>
<path fill="#7d837f" fill-opacity="0.996" d="
  M 100.54 45.50
  Q 101.42 48.64 100.56 51.81
  L 100.54 45.50
  Z"
/>
<path fill="#be1619" d="
  M 45.79 45.60
  Q 46.45 46.35 46.00 46.79
  Q 45.01 47.01 44.42 47.81
  Q 44.14 48.20 44.22 48.65
  Q 44.39 49.56 45.50 48.54
  Q 46.56 49.30 47.79 48.50
  Q 48.46 49.42 48.78 48.79
  A 0.78 0.54 38.3 0 0 48.54 48.01
  Q 47.83 47.33 48.04 46.25
  Q 49.22 46.46 49.92 47.39
  Q 50.24 47.82 50.60 48.09
  Q 52.25 49.31 52.00 51.29
  Q 50.83 52.60 49.62 53.87
  Q 48.25 55.32 47.04 53.75
  Q 48.55 53.42 48.39 51.98
  A 0.50 0.44 80.5 0 1 48.72 51.45
  Q 49.58 51.24 47.75 52.21
  Q 47.61 50.42 45.75 51.29
  Q 43.77 50.53 44.53 52.20
  Q 45.00 53.25 45.96 52.75
  Q 46.26 54.61 45.09 54.60
  Q 44.46 54.59 43.76 53.88
  Q 42.09 52.21 40.46 50.50
  L 40.46 49.50
  Q 40.97 48.40 42.03 48.16
  L 45.79 45.60
  Z"
/>
<path fill="#c94e52" fill-opacity="0.992" d="
  M 49.00 45.71
  Q 50.58 46.75 51.76 48.23
  Q 51.88 48.38 52.75 49.25
  Q 53.82 50.31 52.00 51.29
  Q 52.25 49.31 50.60 48.09
  Q 50.24 47.82 49.92 47.39
  Q 49.22 46.46 48.04 46.25
  Q 48.23 45.60 49.00 45.71
  Z"
/>
<path fill="#c94e52" fill-opacity="0.992" d="
  M 46.00 46.79
  Q 46.20 47.81 45.50 48.54
  Q 44.39 49.56 44.22 48.65
  Q 44.14 48.20 44.42 47.81
  Q 45.01 47.01 46.00 46.79
  Z"
/>
<path fill="#c94e52" fill-opacity="0.992" d="
  M 94.25 47.79
  Q 97.78 48.80 94.50 48.93
  Q 94.58 48.06 94.25 47.79
  Z"
/>
<path fill="#c94e52" fill-opacity="0.992" d="
  M 87.96 48.75
  Q 88.17 49.88 87.50 50.79
  Q 86.35 49.53 87.96 48.75
  Z"
/>
<path fill="#7d837f" fill-opacity="0.996" d="
  M 39.50 49.48
  Q 40.10 50.00 40.46 49.50
  L 40.46 50.50
  Q 39.69 50.53 39.75 51.50
  Q 39.97 54.90 39.53 59.52
  Q 38.83 54.50 39.50 49.48
  Z"
/>
<path fill="#c94e52" fill-opacity="0.992" d="
  M 45.75 51.29
  Q 45.65 52.05 45.96 52.75
  Q 45.00 53.25 44.53 52.20
  Q 43.77 50.53 45.75 51.29
  Z"
/>
<path fill="#c94e52" fill-opacity="0.992" d="
  M 92.00 51.21
  L 92.50 52.21
  L 92.00 52.29
  Q 90.08 50.93 92.00 51.21
  Z"
/>
<path fill="#c94e52" fill-opacity="0.992" d="
  M 47.04 53.75
  Q 46.77 52.70 47.75 52.21
  Q 49.58 51.24 48.72 51.45
  A 0.50 0.44 80.5 0 0 48.39 51.98
  Q 48.55 53.42 47.04 53.75
  Z"
/>
<path fill="#c94e52" fill-opacity="0.992" d="
  M 92.00 52.29
  L 92.50 52.21
  Q 93.18 52.83 92.96 53.75
  Q 91.84 53.53 92.00 52.29
  Z"
/>
<path fill="#2b3133" d="
  M 118.70 59.47
  Q 117.22 59.43 118.74 59.48
  Q 126.72 59.73 118.70 59.47
  Z"
/>
<path fill="#be1619" d="
  M 71.29 66.00
  Q 70.14 67.31 71.45 67.61
  A 0.96 0.92 29.2 0 0 72.34 67.38
  Q 73.05 66.72 72.71 65.75
  Q 74.48 65.01 74.47 66.70
  A 1.24 1.18 68.9 0 1 74.11 67.57
  L 70.93 70.71
  A 1.46 1.39 45.6 0 1 68.90 70.64
  L 65.90 67.56
  A 1.21 1.16 24.9 0 1 65.56 66.69
  Q 65.63 65.08 66.94 65.73
  Q 68.72 69.97 68.96 65.75
  Q 68.35 64.04 69.08 62.50
  A 0.85 0.82 -78.1 0 1 69.80 62.01
  Q 71.52 61.96 71.25 64.00
  Q 71.18 64.51 71.29 66.00
  Z"
/>
<path fill="#c94e52" fill-opacity="0.992" d="
  M 66.94 65.73
  Q 68.37 66.22 68.96 65.75
  Q 68.72 69.97 66.94 65.73
  Z"
/>
<path fill="#c94e52" fill-opacity="0.992" d="
  M 72.71 65.75
  Q 73.05 66.72 72.34 67.38
  A 0.96 0.92 29.2 0 1 71.45 67.61
  Q 70.14 67.31 71.29 66.00
  Q 72.01 66.03 72.71 65.75
  Z"
/>
<path fill="#7d837f" fill-opacity="0.996" d="
  M 86.27 72.73
  Q 78.46 72.81 70.75 72.79
  Q 62.26 72.78 53.80 72.68
  Q 70.00 70.94 86.27 72.73
  Z"
/>
<path fill="#2b3133" d="
  M 86.27 72.73
  L 86.19 93.43
  A 0.73 0.71 80.3 0 1 85.72 94.11
  Q 82.11 95.43 78.25 94.54
  Q 81.38 94.50 79.24 94.32
  Q 66.99 93.34 54.36 94.65
  Q 53.26 84.31 53.80 72.68
  Q 62.26 72.78 70.75 72.79
  Q 78.46 72.81 86.27 72.73
  Z
  M 83.96 88.75
  L 84.00 74.75
  A 0.50 0.50 0.0 0 0 83.50 74.25
  L 60.00 74.29
  L 56.97 74.28
  A 0.96 0.95 89.7 0 0 56.02 75.25
  L 56.17 91.81
  A 0.52 0.51 0.0 0 0 56.69 92.32
  L 83.43 92.45
  A 0.54 0.50 0.0 0 0 83.97 91.95
  L 83.96 88.75
  Z"
/>
<path fill="#d5d6d7" d="
  M 60.00 74.29
  L 60.01 87.35
  A 0.94 0.93 -0.9 0 0 60.98 88.28
  Q 73.00 87.91 83.96 88.75
  L 83.97 91.95
  A 0.54 0.50 -0.0 0 1 83.43 92.45
  L 56.69 92.32
  A 0.52 0.51 -0.0 0 1 56.17 91.81
  L 56.02 75.25
  A 0.96 0.95 89.7 0 1 56.97 74.28
  L 60.00 74.29
  Z"
/>
<path fill="#ffffff" d="
  M 60.00 74.29
  L 83.50 74.25
  A 0.50 0.50 0.0 0 1 84.00 74.75
  L 83.96 88.75
  Q 73.00 87.91 60.98 88.28
  A 0.94 0.93 -0.9 0 1 60.01 87.35
  L 60.00 74.29
  Z"
/>
<path fill="#7d837f" fill-opacity="0.996" d="
  M 78.25 94.54
  L 54.36 94.65
  Q 66.99 93.34 79.24 94.32
  Q 81.38 94.50 78.25 94.54
  Z"
/>
</svg>
