<?xml version="1.0" encoding="UTF-8" standalone="no"?>
<!DOCTYPE svg PUBLIC "-//W3C//DTD SVG 1.1//EN" "http://www.w3.org/Graphics/SVG/1.1/DTD/svg11.dtd">
<svg xmlns="http://www.w3.org/2000/svg" version="1.1" viewBox="0 0 140 100">
<g stroke-width="2.00" fill="none" stroke-linecap="butt">
<path stroke="#b5a492" stroke-opacity="0.992" vector-effect="non-scaling-stroke" d="
  M 129.00 5.71
  L 128.50 6.04"
/>
<path stroke="#c0584a" stroke-opacity="0.996" vector-effect="non-scaling-stroke" d="
  M 128.50 6.04
  L 104.49 5.66"
/>
<path stroke="#9aa398" stroke-opacity="0.992" vector-effect="non-scaling-stroke" d="
  M 101.25 38.46
  Q 100.99 38.13 100.50 38.21"
/>
<path stroke="#666d6a" stroke-opacity="0.996" vector-effect="non-scaling-stroke" d="
  M 100.50 38.21
  L 113.84 33.47
  A 1.56 1.23 39.4 0 1 114.77 33.49
  Q 116.02 33.92 117.28 33.77
  Q 117.58 33.74 119.90 32.64
  Q 121.54 31.87 124.00 32.00
  Q 127.14 32.16 131.17 31.63
  A 0.75 0.73 -87.7 0 0 131.79 31.05
  Q 132.12 29.40 131.88 28.52
  A 0.79 0.61 -4.0 0 0 131.19 28.06
  Q 129.97 27.98 128.96 27.25"
/>
<path stroke="#b26461" stroke-opacity="0.996" vector-effect="non-scaling-stroke" d="
  M 128.50 6.04
  Q 128.96 6.60 129.00 8.50
  Q 129.30 22.20 128.96 27.25"
/>
<path stroke="#722224" vector-effect="non-scaling-stroke" d="
  M 128.96 27.25
  Q 128.32 27.17 127.75 27.46"
/>
<path stroke="#d25858" vector-effect="non-scaling-stroke" d="
  M 127.75 27.46
  Q 127.17 17.82 127.69 8.10
  A 0.57 0.56 1.9 0 0 127.12 7.50
  L 106.55 7.50
  A 0.58 0.56 -90.0 0 0 105.99 8.08
  L 105.75 27.46"
/>
<path stroke="#722224" vector-effect="non-scaling-stroke" d="
  M 105.75 27.46
  L 104.04 27.50"
/>
<path stroke="#a65750" stroke-opacity="0.996" vector-effect="non-scaling-stroke" d="
  M 104.04 27.50
  Q 104.00 27.07 103.71 26.75"
/>
<path stroke="#5a605a" stroke-opacity="0.996" vector-effect="non-scaling-stroke" d="
  M 100.50 38.21
  L 76.07 46.80
  A 1.81 1.80 71.4 0 0 74.95 49.07
  Q 78.93 61.34 84.09 72.13"
/>
<path stroke="#4b504e" stroke-opacity="0.992" vector-effect="non-scaling-stroke" d="
  M 84.71 90.00
  Q 83.42 90.07 83.89 90.66
  A 1.32 0.86 -9.8 0 0 84.74 91.03
  L 88.44 91.28
  A 0.57 0.47 -89.7 0 1 88.88 91.82
  L 89.00 96.46"
/>
<path stroke="#6d7172" vector-effect="non-scaling-stroke" d="
  M 89.00 96.46
  Q 88.29 97.22 87.46 96.96
  Q 86.76 96.75 86.49 96.75
  L 51.81 96.93
  A 0.68 0.66 -8.0 0 1 51.16 96.46
  Q 50.39 93.73 51.50 91.04"
/>
<path stroke="#4b504e" stroke-opacity="0.992" vector-effect="non-scaling-stroke" d="
  M 51.50 91.04
  L 54.65 90.96
  A 1.74 1.64 -2.1 0 0 56.35 89.23
  Q 55.93 81.78 56.01 75.49
  Q 56.04 72.93 57.11 70.35
  Q 60.67 61.87 63.25 53.04"
/>
<path stroke="#5a605a" stroke-opacity="0.996" vector-effect="non-scaling-stroke" d="
  M 63.25 53.04
  Q 64.51 50.79 62.90 51.94
  A 1.19 0.73 24.1 0 1 62.04 52.05
  Q 61.56 51.95 60.94 52.19
  Q 56.68 53.81 39.04 60.14
  A 0.53 0.51 72.2 0 0 38.73 60.78
  Q 39.30 62.61 38.56 65.20
  A 0.82 0.82 -80.4 0 1 37.72 65.80
  Q 32.85 65.55 28.68 65.97
  Q 28.64 65.98 25.26 66.66
  Q 22.41 67.24 19.50 66.29"
/>
<path stroke="#5f6262" vector-effect="non-scaling-stroke" d="
  M 7.84 66.16
  L 8.00 62.00
  A 1.28 0.80 80.5 0 1 8.35 61.15
  Q 8.99 60.62 9.79 60.83
  A 0.93 0.50 19.5 0 0 10.64 60.70
  Q 10.92 60.33 10.71 59.75"
/>
<path stroke="#4b504e" stroke-opacity="0.992" vector-effect="non-scaling-stroke" d="
  M 10.71 59.75
  Q 11.74 51.86 10.54 44.00"
/>
<path stroke="#5a605a" stroke-opacity="0.996" vector-effect="non-scaling-stroke" d="
  M 36.31 55.42
  Q 35.69 55.59 35.65 56.02
  A 0.45 0.35 -8.7 0 0 36.23 56.35
  Q 42.58 54.39 48.77 52.01
  Q 50.72 51.27 57.46 48.95
  Q 61.82 47.44 65.99 45.41
  Q 66.40 45.21 66.72 44.77
  Q 68.10 42.85 70.31 42.91
  Q 72.88 42.98 73.55 42.80
  Q 76.15 42.11 80.56 40.56
  Q 90.79 36.99 100.94 33.19
  A 0.71 0.56 79.4 0 0 101.30 32.51
  L 100.99 28.56
  A 0.55 0.44 -1.2 0 1 101.56 28.09
  Q 102.88 28.10 104.04 27.50"
/>
<path stroke="#876162" vector-effect="non-scaling-stroke" d="
  M 127.75 27.46
  L 120.81 27.46
  A 1.52 1.12 58.4 0 1 119.94 27.11
  Q 116.60 24.38 113.37 27.16
  A 1.39 1.19 -61.8 0 1 112.49 27.50
  L 105.75 27.46"
/>
<path stroke="#858883" stroke-opacity="0.992" vector-effect="non-scaling-stroke" d="
  M 10.71 59.75
  L 10.29 59.75"
/>
<path stroke="#939793" stroke-opacity="0.992" vector-effect="non-scaling-stroke" d="
  M 51.50 91.04
  L 50.75 90.96"
/>
<path stroke="#939793" stroke-opacity="0.992" vector-effect="non-scaling-stroke" d="
  M 89.39 96.26
  Q 89.32 96.39 89.00 96.46"
/>
<path stroke="#7d817e" vector-effect="non-scaling-stroke" d="
  M 119.05 30.06
  A 2.41 2.41 0.0 0 0 116.64 27.65
  A 2.41 2.41 0.0 0 0 114.23 30.06
  A 2.41 2.41 0.0 0 0 116.64 32.47
  A 2.41 2.41 0.0 0 0 119.05 30.06"
/>
<path stroke="#6d7172" vector-effect="non-scaling-stroke" d="
  M 103.44 30.77
  Q 106.96 31.34 110.06 29.74
  Q 110.52 29.50 110.02 29.40
  Q 106.75 28.73 103.44 29.12
  A 1.21 0.93 8.2 0 0 102.63 29.58
  Q 102.01 30.54 103.44 30.77"
/>
<path stroke="#6d7172" vector-effect="non-scaling-stroke" d="
  M 130.9315 29.9606
  A 0.90 0.90 0.0 0 0 130.0425 29.0497
  L 121.9231 28.9505
  A 0.90 0.90 0.0 0 0 121.0122 29.8394
  L 121.0085 30.1394
  A 0.90 0.90 0.0 0 0 121.8975 31.0503
  L 130.0169 31.1495
  A 0.90 0.90 0.0 0 0 130.9278 30.2606
  L 130.9315 29.9606"
/>
<path stroke="#7d817e" vector-effect="non-scaling-stroke" d="
  M 112.6220 31.3885
  A 0.62 0.62 0.0 0 0 111.8299 31.0124
  L 74.3737 44.3499
  A 0.62 0.62 0.0 0 0 73.9976 45.1420
  L 74.0580 45.3115
  A 0.62 0.62 0.0 0 0 74.8501 45.6876
  L 112.3063 32.3501
  A 0.62 0.62 0.0 0 0 112.6824 31.5580
  L 112.6220 31.3885"
/>
<path stroke="#6d7172" vector-effect="non-scaling-stroke" d="
  M 25.82 59.51
  Q 26.41 59.59 26.92 59.42
  L 33.51 57.25
  A 1.14 1.09 81.1 0 0 34.25 56.18
  L 34.25 41.31
  A 0.56 0.56 0.0 0 0 33.69 40.75
  L 13.16 40.75
  A 0.66 0.66 2.3 0 0 12.50 41.41
  L 12.50 59.70
  A 0.98 0.89 89.4 0 0 13.41 60.68
  L 19.75 60.57
  A 1.69 0.53 -39.4 0 0 20.66 60.20
  Q 22.47 59.03 25.82 59.51"
/>
<path stroke="#7d817e" vector-effect="non-scaling-stroke" d="
  M 72.42 46.62
  A 2.45 2.45 0.0 0 0 69.97 44.17
  A 2.45 2.45 0.0 0 0 67.52 46.62
  A 2.45 2.45 0.0 0 0 69.97 49.07
  A 2.45 2.45 0.0 0 0 72.42 46.62"
/>
<path stroke="#7d817e" vector-effect="non-scaling-stroke" d="
  M 66.1135 47.9934
  A 0.69 0.69 0.0 0 0 65.2312 47.5764
  L 27.6101 61.0467
  A 0.69 0.69 0.0 0 0 27.1931 61.9289
  L 27.2065 61.9666
  A 0.69 0.69 0.0 0 0 28.0888 62.3836
  L 65.7099 48.9133
  A 0.69 0.69 0.0 0 0 66.1269 48.0311
  L 66.1135 47.9934"
/>
<path stroke="#7d817e" vector-effect="non-scaling-stroke" d="
  M 73.5865 49.8649
  A 0.38 0.38 0.0 0 0 73.0971 49.6429
  L 72.5542 49.8470
  A 0.38 0.38 0.0 0 0 72.3322 50.3364
  L 80.5935 72.3151
  A 0.38 0.38 0.0 0 0 81.0829 72.5371
  L 81.6258 72.3330
  A 0.38 0.38 0.0 0 0 81.8478 71.8436
  L 73.5865 49.8649"
/>
<path stroke="#7d817e" vector-effect="non-scaling-stroke" d="
  M 67.4083 51.1092
  A 0.66 0.66 0.0 0 0 67.0227 50.2592
  L 66.9852 50.2451
  A 0.66 0.66 0.0 0 0 66.1352 50.6307
  L 58.2117 71.7108
  A 0.66 0.66 0.0 0 0 58.5973 72.5608
  L 58.6348 72.5749
  A 0.66 0.66 0.0 0 0 59.4848 72.1893
  L 67.4083 51.1092"
/>
<path stroke="#5a605a" stroke-opacity="0.996" vector-effect="non-scaling-stroke" d="
  M 72.18 56.75
  Q 73.17 54.19 71.11 51.72
  A 1.37 1.37 -46.3 0 0 68.97 51.77
  Q 67.01 54.37 67.67 56.74"
/>
<path stroke="#8c8e90" vector-effect="non-scaling-stroke" d="
  M 73.90 59.49
  A 0.47 0.47 0.0 0 0 73.43 59.02
  L 66.57 59.02
  A 0.47 0.47 0.0 0 0 66.10 59.49
  L 66.10 59.53
  A 0.47 0.47 0.0 0 0 66.57 60.00
  L 73.43 60.00
  A 0.47 0.47 0.0 0 0 73.90 59.53
  L 73.90 59.49"
/>
<path stroke="#7d817e" vector-effect="non-scaling-stroke" d="
  M 25.79 63.39
  A 2.43 2.43 0.0 0 0 23.36 60.96
  A 2.43 2.43 0.0 0 0 20.93 63.39
  A 2.43 2.43 0.0 0 0 23.36 65.82
  A 2.43 2.43 0.0 0 0 25.79 63.39"
/>
<path stroke="#4b504e" stroke-opacity="0.992" vector-effect="non-scaling-stroke" d="
  M 65.75 62.46
  Q 63.94 62.58 63.91 64.32
  A 0.63 0.57 5.8 0 0 64.44 64.90
  Q 69.54 65.73 75.66 64.61
  A 0.53 0.52 70.0 0 0 76.02 63.83
  Q 74.69 61.51 74.00 62.46"
/>
<path stroke="#7d817e" vector-effect="non-scaling-stroke" d="
  M 19.0000 63.2113
  A 0.72 0.72 0.0 0 0 18.2787 62.4926
  L 9.7787 62.5074
  A 0.72 0.72 0.0 0 0 9.0600 63.2287
  L 9.0600 63.2687
  A 0.72 0.72 0.0 0 0 9.7813 63.9874
  L 18.2813 63.9726
  A 0.72 0.72 0.0 0 0 19.0000 63.2513
  L 19.0000 63.2113"
/>
<path stroke="#8c8e90" vector-effect="non-scaling-stroke" d="
  M 37.8434 63.0592
  A 4.01 0.70 -3.3 0 0 33.7997 62.5912
  A 4.01 0.70 -3.3 0 0 29.8366 63.5208
  A 4.01 0.70 -3.3 0 0 33.8803 63.9888
  A 4.01 0.70 -3.3 0 0 37.8434 63.0592"
/>
<path stroke="#6d7172" vector-effect="non-scaling-stroke" d="
  M 76.9600 67.2321
  A 0.71 0.71 0.0 0 0 76.2513 66.5208
  L 63.8313 66.4992
  A 0.71 0.71 0.0 0 0 63.1200 67.2079
  L 63.1200 67.2479
  A 0.71 0.71 0.0 0 0 63.8287 67.9592
  L 76.2487 67.9808
  A 0.71 0.71 0.0 0 0 76.9600 67.2721
  L 76.9600 67.2321"
/>
<path stroke="#5f6262" vector-effect="non-scaling-stroke" d="
  M 62.00 70.75
  Q 60.55 71.63 61.48 72.51
  Q 61.92 72.93 62.80 73.00
  Q 70.26 73.55 77.58 73.01
  A 0.93 0.93 83.5 0 0 78.43 71.94
  Q 78.07 69.60 76.86 69.08
  Q 76.70 69.01 74.12 68.97
  Q 68.70 68.87 63.30 69.21
  Q 62.60 69.26 62.27 69.55
  Q 61.75 70.01 62.00 70.75"
/>
<path stroke="#7d817e" vector-effect="non-scaling-stroke" d="
  M 82.50 74.51
  A 0.27 0.27 0.0 0 0 82.23 74.24
  L 57.77 74.24
  A 0.27 0.27 0.0 0 0 57.50 74.51
  L 57.50 90.73
  A 0.27 0.27 0.0 0 0 57.77 91.00
  L 82.23 91.00
  A 0.27 0.27 0.0 0 0 82.50 90.73
  L 82.50 74.51"
/>
<path stroke="#7d817e" vector-effect="non-scaling-stroke" d="
  M 87.56 92.88
  A 0.38 0.38 0.0 0 0 87.18 92.50
  L 52.88 92.50
  A 0.38 0.38 0.0 0 0 52.50 92.88
  L 52.50 95.36
  A 0.38 0.38 0.0 0 0 52.88 95.74
  L 87.18 95.74
  A 0.38 0.38 0.0 0 0 87.56 95.36
  L 87.56 92.88"
/>
</g>
<path fill="#c3977b" fill-opacity="0.992" d="
  M 129.00 5.71
  L 128.50 6.04
  L 104.49 5.66
  Q 110.47 5.27 126.75 5.25
  Q 128.43 5.25 129.00 5.71
  Z"
/>
<path fill="#bd191a" d="
  M 104.49 5.66
  L 128.50 6.04
  Q 128.96 6.60 129.00 8.50
  Q 129.30 22.20 128.96 27.25
  Q 128.32 27.17 127.75 27.46
  Q 127.17 17.82 127.69 8.10
  A 0.57 0.56 1.9 0 0 127.12 7.50
  L 106.55 7.50
  A 0.58 0.56 -90.0 0 0 105.99 8.08
  L 105.75 27.46
  L 104.04 27.50
  Q 104.00 27.07 103.71 26.75
  Q 103.82 12.09 103.75 6.75
  Q 103.74 5.72 104.49 5.66
  Z"
/>
<path fill="#a6b0a8" fill-opacity="0.992" d="
  M 129.00 5.71
  Q 129.75 5.86 129.75 6.50
  Q 129.75 16.50 129.75 25.85
  A 1.11 1.10 2.9 0 0 130.75 26.95
  Q 132.85 27.16 133.08 28.57
  Q 133.15 29.02 133.12 30.93
  Q 133.09 33.18 130.53 33.05
  Q 129.57 33.00 129.47 33.00
  Q 125.24 33.00 121.00 33.00
  A 1.62 1.35 -59.2 0 0 120.11 33.31
  Q 117.59 35.19 114.48 34.39
  A 1.80 1.38 37.0 0 0 113.52 34.40
  L 101.25 38.46
  Q 100.99 38.13 100.50 38.21
  L 113.84 33.47
  A 1.56 1.23 39.4 0 1 114.77 33.49
  Q 116.02 33.92 117.28 33.77
  Q 117.58 33.74 119.90 32.64
  Q 121.54 31.87 124.00 32.00
  Q 127.14 32.16 131.17 31.63
  A 0.75 0.73 -87.7 0 0 131.79 31.05
  Q 132.12 29.40 131.88 28.52
  A 0.79 0.61 -4.0 0 0 131.19 28.06
  Q 129.97 27.98 128.96 27.25
  Q 129.30 22.20 129.00 8.50
  Q 128.96 6.60 128.50 6.04
  L 129.00 5.71
  Z"
/>
<path fill="#e79696" d="
  M 127.75 27.46
  L 120.81 27.46
  A 1.52 1.12 58.4 0 1 119.94 27.11
  Q 116.60 24.38 113.37 27.16
  A 1.39 1.19 -61.8 0 1 112.49 27.50
  L 105.75 27.46
  L 105.99 8.08
  A 0.58 0.56 -90.0 0 1 106.55 7.50
  L 127.12 7.50
  A 0.57 0.56 1.9 0 1 127.69 8.10
  Q 127.17 17.82 127.75 27.46
  Z"
/>
<path fill="#262b2d" d="
  M 127.75 27.46
  Q 128.32 27.17 128.96 27.25
  Q 129.97 27.98 131.19 28.06
  A 0.79 0.61 -4.0 0 1 131.88 28.52
  Q 132.12 29.40 131.79 31.05
  A 0.75 0.73 -87.7 0 1 131.17 31.63
  Q 127.14 32.16 124.00 32.00
  Q 121.54 31.87 119.90 32.64
  Q 117.58 33.74 117.28 33.77
  Q 116.02 33.92 114.77 33.49
  A 1.56 1.23 39.4 0 0 113.84 33.47
  L 100.50 38.21
  L 76.07 46.80
  A 1.81 1.80 71.4 0 0 74.95 49.07
  Q 78.93 61.34 84.09 72.13
  Q 84.92 80.88 84.71 90.00
  Q 83.42 90.07 83.89 90.66
  A 1.32 0.86 -9.8 0 0 84.74 91.03
  L 88.44 91.28
  A 0.57 0.47 -89.7 0 1 88.88 91.82
  L 89.00 96.46
  Q 88.29 97.22 87.46 96.96
  Q 86.76 96.75 86.49 96.75
  L 51.81 96.93
  A 0.68 0.66 -8.0 0 1 51.16 96.46
  Q 50.39 93.73 51.50 91.04
  L 54.65 90.96
  A 1.74 1.64 -2.1 0 0 56.35 89.23
  Q 55.93 81.78 56.01 75.49
  Q 56.04 72.93 57.11 70.35
  Q 60.67 61.87 63.25 53.04
  Q 64.51 50.79 62.90 51.94
  A 1.19 0.73 24.1 0 1 62.04 52.05
  Q 61.56 51.95 60.94 52.19
  Q 56.68 53.81 39.04 60.14
  A 0.53 0.51 72.2 0 0 38.73 60.78
  Q 39.30 62.61 38.56 65.20
  A 0.82 0.82 -80.4 0 1 37.72 65.80
  Q 32.85 65.55 28.68 65.97
  Q 28.64 65.98 25.26 66.66
  Q 22.41 67.24 19.50 66.29
  L 7.84 66.16
  L 8.00 62.00
  A 1.28 0.80 80.5 0 1 8.35 61.15
  Q 8.99 60.62 9.79 60.83
  A 0.93 0.50 19.5 0 0 10.64 60.70
  Q 10.92 60.33 10.71 59.75
  Q 11.74 51.86 10.54 44.00
  Q 9.86 42.26 10.91 39.39
  A 0.97 0.97 -80.1 0 1 11.82 38.75
  L 35.11 38.75
  A 1.08 1.08 89.7 0 1 36.19 39.82
  L 36.31 55.42
  Q 35.69 55.59 35.65 56.02
  A 0.45 0.35 -8.7 0 0 36.23 56.35
  Q 42.58 54.39 48.77 52.01
  Q 50.72 51.27 57.46 48.95
  Q 61.82 47.44 65.99 45.41
  Q 66.40 45.21 66.72 44.77
  Q 68.10 42.85 70.31 42.91
  Q 72.88 42.98 73.55 42.80
  Q 76.15 42.11 80.56 40.56
  Q 90.79 36.99 100.94 33.19
  A 0.71 0.56 79.4 0 0 101.30 32.51
  L 100.99 28.56
  A 0.55 0.44 -1.2 0 1 101.56 28.09
  Q 102.88 28.10 104.04 27.50
  L 105.75 27.46
  L 112.49 27.50
  A 1.39 1.19 -61.8 0 0 113.37 27.16
  Q 116.60 24.38 119.94 27.11
  A 1.52 1.12 58.4 0 0 120.81 27.46
  L 127.75 27.46
  Z
  M 119.05 30.06
  A 2.41 2.41 0.0 0 0 116.64 27.65
  A 2.41 2.41 0.0 0 0 114.23 30.06
  A 2.41 2.41 0.0 0 0 116.64 32.47
  A 2.41 2.41 0.0 0 0 119.05 30.06
  Z
  M 103.44 30.77
  Q 106.96 31.34 110.06 29.74
  Q 110.52 29.50 110.02 29.40
  Q 106.75 28.73 103.44 29.12
  A 1.21 0.93 8.2 0 0 102.63 29.58
  Q 102.01 30.54 103.44 30.77
  Z
  M 130.9315 29.9606
  A 0.90 0.90 0.0 0 0 130.0425 29.0497
  L 121.9231 28.9505
  A 0.90 0.90 0.0 0 0 121.0122 29.8394
  L 121.0085 30.1394
  A 0.90 0.90 0.0 0 0 121.8975 31.0503
  L 130.0169 31.1495
  A 0.90 0.90 0.0 0 0 130.9278 30.2606
  L 130.9315 29.9606
  Z
  M 112.6220 31.3885
  A 0.62 0.62 0.0 0 0 111.8299 31.0124
  L 74.3737 44.3499
  A 0.62 0.62 0.0 0 0 73.9976 45.1420
  L 74.0580 45.3115
  A 0.62 0.62 0.0 0 0 74.8501 45.6876
  L 112.3063 32.3501
  A 0.62 0.62 0.0 0 0 112.6824 31.5580
  L 112.6220 31.3885
  Z
  M 25.82 59.51
  Q 26.41 59.59 26.92 59.42
  L 33.51 57.25
  A 1.14 1.09 81.1 0 0 34.25 56.18
  L 34.25 41.31
  A 0.56 0.56 0.0 0 0 33.69 40.75
  L 13.16 40.75
  A 0.66 0.66 2.3 0 0 12.50 41.41
  L 12.50 59.70
  A 0.98 0.89 89.4 0 0 13.41 60.68
  L 19.75 60.57
  A 1.69 0.53 -39.4 0 0 20.66 60.20
  Q 22.47 59.03 25.82 59.51
  Z
  M 72.42 46.62
  A 2.45 2.45 0.0 0 0 69.97 44.17
  A 2.45 2.45 0.0 0 0 67.52 46.62
  A 2.45 2.45 0.0 0 0 69.97 49.07
  A 2.45 2.45 0.0 0 0 72.42 46.62
  Z
  M 66.1135 47.9934
  A 0.69 0.69 0.0 0 0 65.2312 47.5764
  L 27.6101 61.0467
  A 0.69 0.69 0.0 0 0 27.1931 61.9289
  L 27.2065 61.9666
  A 0.69 0.69 0.0 0 0 28.0888 62.3836
  L 65.7099 48.9133
  A 0.69 0.69 0.0 0 0 66.1269 48.0311
  L 66.1135 47.9934
  Z
  M 73.5865 49.8649
  A 0.38 0.38 0.0 0 0 73.0971 49.6429
  L 72.5542 49.8470
  A 0.38 0.38 0.0 0 0 72.3322 50.3364
  L 80.5935 72.3151
  A 0.38 0.38 0.0 0 0 81.0829 72.5371
  L 81.6258 72.3330
  A 0.38 0.38 0.0 0 0 81.8478 71.8436
  L 73.5865 49.8649
  Z
  M 67.4083 51.1092
  A 0.66 0.66 0.0 0 0 67.0227 50.2592
  L 66.9852 50.2451
  A 0.66 0.66 0.0 0 0 66.1352 50.6307
  L 58.2117 71.7108
  A 0.66 0.66 0.0 0 0 58.5973 72.5608
  L 58.6348 72.5749
  A 0.66 0.66 0.0 0 0 59.4848 72.1893
  L 67.4083 51.1092
  Z
  M 67.67 56.74
  L 72.18 56.75
  Q 73.17 54.19 71.11 51.72
  A 1.37 1.37 -46.3 0 0 68.97 51.77
  Q 67.01 54.37 67.67 56.74
  Z
  M 73.90 59.49
  A 0.47 0.47 0.0 0 0 73.43 59.02
  L 66.57 59.02
  A 0.47 0.47 0.0 0 0 66.10 59.49
  L 66.10 59.53
  A 0.47 0.47 0.0 0 0 66.57 60.00
  L 73.43 60.00
  A 0.47 0.47 0.0 0 0 73.90 59.53
  L 73.90 59.49
  Z
  M 25.79 63.39
  A 2.43 2.43 0.0 0 0 23.36 60.96
  A 2.43 2.43 0.0 0 0 20.93 63.39
  A 2.43 2.43 0.0 0 0 23.36 65.82
  A 2.43 2.43 0.0 0 0 25.79 63.39
  Z
  M 74.00 62.46
  Q 69.88 61.94 65.75 62.46
  Q 63.94 62.58 63.91 64.32
  A 0.63 0.57 5.8 0 0 64.44 64.90
  Q 69.54 65.73 75.66 64.61
  A 0.53 0.52 70.0 0 0 76.02 63.83
  Q 74.69 61.51 74.00 62.46
  Z
  M 19.0000 63.2113
  A 0.72 0.72 0.0 0 0 18.2787 62.4926
  L 9.7787 62.5074
  A 0.72 0.72 0.0 0 0 9.0600 63.2287
  L 9.0600 63.2687
  A 0.72 0.72 0.0 0 0 9.7813 63.9874
  L 18.2813 63.9726
  A 0.72 0.72 0.0 0 0 19.0000 63.2513
  L 19.0000 63.2113
  Z
  M 37.8434 63.0592
  A 4.01 0.70 -3.3 0 0 33.7997 62.5912
  A 4.01 0.70 -3.3 0 0 29.8366 63.5208
  A 4.01 0.70 -3.3 0 0 33.8803 63.9888
  A 4.01 0.70 -3.3 0 0 37.8434 63.0592
  Z
  M 76.9600 67.2321
  A 0.71 0.71 0.0 0 0 76.2513 66.5208
  L 63.8313 66.4992
  A 0.71 0.71 0.0 0 0 63.1200 67.2079
  L 63.1200 67.2479
  A 0.71 0.71 0.0 0 0 63.8287 67.9592
  L 76.2487 67.9808
  A 0.71 0.71 0.0 0 0 76.9600 67.2721
  L 76.9600 67.2321
  Z
  M 62.00 70.75
  Q 60.55 71.63 61.48 72.51
  Q 61.92 72.93 62.80 73.00
  Q 70.26 73.55 77.58 73.01
  A 0.93 0.93 83.5 0 0 78.43 71.94
  Q 78.07 69.60 76.86 69.08
  Q 76.70 69.01 74.12 68.97
  Q 68.70 68.87 63.30 69.21
  Q 62.60 69.26 62.27 69.55
  Q 61.75 70.01 62.00 70.75
  Z
  M 82.50 74.51
  A 0.27 0.27 0.0 0 0 82.23 74.24
  L 57.77 74.24
  A 0.27 0.27 0.0 0 0 57.50 74.51
  L 57.50 90.73
  A 0.27 0.27 0.0 0 0 57.77 91.00
  L 82.23 91.00
  A 0.27 0.27 0.0 0 0 82.50 90.73
  L 82.50 74.51
  Z
  M 87.56 92.88
  A 0.38 0.38 0.0 0 0 87.18 92.50
  L 52.88 92.50
  A 0.38 0.38 0.0 0 0 52.50 92.88
  L 52.50 95.36
  A 0.38 0.38 0.0 0 0 52.88 95.74
  L 87.18 95.74
  A 0.38 0.38 0.0 0 0 87.56 95.36
  L 87.56 92.88
  Z"
/>
<path fill="#8e9587" fill-opacity="0.988" d="
  M 103.71 26.75
  Q 104.00 27.07 104.04 27.50
  Q 102.88 28.10 101.56 28.09
  A 0.55 0.44 -1.2 0 0 100.99 28.56
  L 101.30 32.51
  A 0.71 0.56 79.4 0 1 100.94 33.19
  Q 90.79 36.99 80.56 40.56
  Q 76.15 42.11 73.55 42.80
  Q 72.88 42.98 70.31 42.91
  Q 68.10 42.85 66.72 44.77
  Q 66.40 45.21 65.99 45.41
  Q 61.82 47.44 57.46 48.95
  Q 50.72 51.27 48.77 52.01
  Q 42.58 54.39 36.23 56.35
  A 0.45 0.35 -8.7 0 1 35.65 56.02
  Q 35.69 55.59 36.31 55.42
  Q 50.69 50.88 64.72 45.37
  A 1.66 1.50 -80.6 0 0 65.46 44.78
  Q 67.94 41.30 72.26 42.37
  A 1.94 1.55 36.8 0 0 73.23 42.34
  L 99.25 33.25
  A 1.69 1.67 74.2 0 0 100.32 31.30
  Q 99.25 26.56 103.71 26.75
  Z"
/>
<circle fill="#d3d7cf" cx="116.64" cy="30.06" r="2.41"/>
<path fill="#b4b7b6" d="
  M 103.44 30.77
  Q 102.01 30.54 102.63 29.58
  A 1.21 0.93 8.2 0 1 103.44 29.12
  Q 106.75 28.73 110.02 29.40
  Q 110.52 29.50 110.06 29.74
  Q 106.96 31.34 103.44 30.77
  Z"
/>
<rect fill="#b4b7b6" x="-4.96" y="-1.05" transform="translate(125.97,30.05) rotate(0.7)" width="9.92" height="2.10" rx="0.90"/>
<rect fill="#d3d7cf" x="-20.50" y="-0.71" transform="translate(93.34,38.35) rotate(-19.6)" width="41.00" height="1.42" rx="0.62"/>
<path fill="#8e9587" fill-opacity="0.988" d="
  M 100.50 38.21
  Q 100.99 38.13 101.25 38.46
  L 76.09 47.47
  A 0.98 0.98 70.1 0 0 75.50 48.74
  L 84.09 72.13
  Q 78.93 61.34 74.95 49.07
  A 1.81 1.80 71.4 0 1 76.07 46.80
  L 100.50 38.21
  Z"
/>
<path fill="#b4b7b6" d="
  M 25.82 59.51
  Q 22.47 59.03 20.66 60.20
  A 1.69 0.53 -39.4 0 1 19.75 60.57
  L 13.41 60.68
  A 0.98 0.89 89.4 0 1 12.50 59.70
  L 12.50 41.41
  A 0.66 0.66 3.8 0 1 13.16 40.75
  L 33.69 40.75
  A 0.56 0.56 0.0 0 1 34.25 41.31
  L 34.25 56.18
  A 1.14 1.09 81.1 0 1 33.51 57.25
  L 26.92 59.42
  Q 26.41 59.59 25.82 59.51
  Z"
/>
<path fill="#717670" fill-opacity="0.984" d="
  M 10.54 44.00
  Q 11.74 51.86 10.71 59.75
  L 10.29 59.75
  L 10.54 44.00
  Z"
/>
<circle fill="#d3d7cf" cx="69.97" cy="46.62" r="2.45"/>
<rect fill="#d3d7cf" x="-20.67" y="-0.71" transform="translate(46.66,54.98) rotate(-19.7)" width="41.34" height="1.42" rx="0.69"/>
<rect fill="#d3d7cf" x="-0.67" y="-12.12" transform="translate(77.09,61.09) rotate(-20.6)" width="1.34" height="24.24" rx="0.38"/>
<rect fill="#d3d7cf" x="-0.68" y="-11.92" transform="translate(62.81,61.41) rotate(20.6)" width="1.36" height="23.84" rx="0.66"/>
<path fill="#8e9587" fill-opacity="0.988" d="
  M 72.18 56.75
  L 70.81 52.43
  Q 70.10 50.20 69.29 52.39
  L 67.67 56.74
  Q 67.01 54.37 68.97 51.77
  A 1.37 1.37 -46.3 0 1 71.11 51.72
  Q 73.17 54.19 72.18 56.75
  Z"
/>
<path fill="#8e9587" fill-opacity="0.988" d="
  M 63.25 53.04
  L 62.79 53.00
  Q 62.83 52.39 62.28 52.58
  Q 51.72 56.17 40.71 60.20
  A 1.69 1.67 75.7 0 0 39.63 62.04
  Q 40.00 64.32 39.21 65.76
  A 0.91 0.82 12.2 0 1 38.45 66.20
  Q 33.22 66.30 28.00 66.25
  Q 27.12 66.24 26.18 66.86
  Q 25.07 67.59 24.55 67.72
  Q 21.77 68.38 19.50 66.29
  Q 22.41 67.24 25.26 66.66
  Q 28.64 65.98 28.68 65.97
  Q 32.85 65.55 37.72 65.80
  A 0.82 0.82 -80.4 0 0 38.56 65.20
  Q 39.30 62.61 38.73 60.78
  A 0.53 0.51 72.2 0 1 39.04 60.14
  Q 56.68 53.81 60.94 52.19
  Q 61.56 51.95 62.04 52.05
  A 1.19 0.73 24.1 0 0 62.90 51.94
  Q 64.51 50.79 63.25 53.04
  Z"
/>
<path fill="#717670" fill-opacity="0.984" d="
  M 62.79 53.00
  L 63.25 53.04
  Q 60.67 61.87 57.11 70.35
  Q 56.04 72.93 56.01 75.49
  Q 55.93 81.78 56.35 89.23
  A 1.74 1.64 -2.1 0 1 54.65 90.96
  L 51.50 91.04
  L 50.75 90.96
  Q 51.95 89.85 53.83 90.27
  A 1.29 1.29 -85.2 0 0 55.40 88.94
  Q 55.12 83.35 55.25 77.00
  Q 55.33 72.74 56.32 70.32
  Q 59.82 61.76 62.79 53.00
  Z"
/>
<rect fill="#f2f0f3" x="66.10" y="59.02" width="7.80" height="0.98" rx="0.47"/>
<path fill="#989996" d="
  M 10.29 59.75
  L 10.71 59.75
  Q 10.92 60.33 10.64 60.70
  A 0.93 0.50 19.5 0 1 9.79 60.83
  Q 8.99 60.62 8.35 61.15
  A 1.28 0.80 80.5 0 0 8.00 62.00
  L 7.84 66.16
  Q 6.84 65.41 6.86 64.30
  Q 6.90 62.91 6.88 62.69
  Q 6.72 60.31 9.25 60.25
  Q 10.07 60.23 10.29 59.75
  Z"
/>
<circle fill="#d3d7cf" cx="23.36" cy="63.39" r="2.43"/>
<path fill="#717670" fill-opacity="0.984" d="
  M 65.75 62.46
  Q 63.80 64.25 66.50 64.27
  Q 70.35 64.30 74.19 64.20
  A 0.82 0.68 7.4 0 0 74.92 63.74
  Q 75.28 62.79 74.00 62.46
  Q 74.69 61.51 76.02 63.83
  A 0.53 0.52 70.0 0 1 75.66 64.61
  Q 69.54 65.73 64.44 64.90
  A 0.63 0.57 5.8 0 1 63.91 64.32
  Q 63.94 62.58 65.75 62.46
  Z"
/>
<rect fill="#d3d7cf" x="-4.97" y="-0.74" transform="translate(14.03,63.24) rotate(-0.1)" width="9.94" height="1.48" rx="0.72"/>
<ellipse fill="#f2f0f3" cx="0.00" cy="0.00" transform="translate(33.84,63.29) rotate(-3.3)" rx="4.01" ry="0.70"/>
<rect fill="#b4b7b6" x="-6.92" y="-0.73" transform="translate(70.04,67.24) rotate(0.1)" width="13.84" height="1.46" rx="0.71"/>
<path fill="#989996" d="
  M 62.00 70.75
  Q 61.71 71.89 62.75 71.91
  Q 69.75 72.00 77.29 72.00
  A 0.67 0.67 76.8 0 0 77.89 71.03
  Q 77.28 69.81 75.78 69.92
  Q 74.78 70.00 74.71 70.00
  Q 69.23 70.00 63.74 70.00
  Q 63.55 70.00 62.88 70.32
  L 62.00 70.75
  Q 61.75 70.01 62.27 69.55
  Q 62.60 69.26 63.30 69.21
  Q 68.70 68.87 74.12 68.97
  Q 76.70 69.01 76.86 69.08
  Q 78.07 69.60 78.43 71.94
  A 0.93 0.93 83.5 0 1 77.58 73.01
  Q 70.26 73.55 62.80 73.00
  Q 61.92 72.93 61.48 72.51
  Q 60.55 71.63 62.00 70.75
  Z"
/>
<rect fill="#d3d7cf" x="57.50" y="74.24" width="25.00" height="16.76" rx="0.27"/>
<path fill="#717670" fill-opacity="0.984" d="
  M 84.71 90.00
  Q 85.27 90.41 85.92 90.37
  Q 87.06 90.30 87.11 90.31
  Q 91.61 90.91 89.39 96.26
  Q 89.32 96.39 89.00 96.46
  L 88.88 91.82
  A 0.57 0.47 -89.7 0 0 88.44 91.28
  L 84.74 91.03
  A 1.32 0.86 -9.8 0 1 83.89 90.66
  Q 83.42 90.07 84.71 90.00
  Z"
/>
<path fill="#b4b7b6" d="
  M 50.75 90.96
  L 51.50 91.04
  Q 50.39 93.73 51.16 96.46
  A 0.68 0.66 -8.0 0 0 51.81 96.93
  L 86.49 96.75
  Q 86.76 96.75 87.46 96.96
  Q 88.29 97.22 89.00 96.46
  Q 89.32 96.39 89.39 96.26
  Q 89.87 97.94 87.69 97.89
  Q 69.59 97.46 52.44 97.97
  A 1.93 1.92 -5.4 0 1 50.48 96.36
  Q 49.90 92.87 50.75 90.96
  Z"
/>
<rect fill="#d3d7cf" x="52.50" y="92.50" width="35.06" height="3.24" rx="0.38"/>
</svg>
