<?xml version="1.0" encoding="UTF-8" standalone="no"?>
<!DOCTYPE svg PUBLIC "-//W3C//DTD SVG 1.1//EN" "http://www.w3.org/Graphics/SVG/1.1/DTD/svg11.dtd">
<svg xmlns="http://www.w3.org/2000/svg" version="1.1" viewBox="0 0 140 100">
<g stroke-width="2.00" fill="none" stroke-linecap="butt">
<path stroke="#a24f4e" vector-effect="non-scaling-stroke" d="
  M 131.27 16.52
  Q 107.40 15.40 83.53 15.91"
/>
<path stroke="#af9798" stroke-opacity="0.992" vector-effect="non-scaling-stroke" d="
  M 83.53 15.91
  L 83.49 15.30"
/>
<path stroke="#cb5c5e" stroke-opacity="0.996" vector-effect="non-scaling-stroke" d="
  M 131.22 26.72
  L 95.00 27.24
  A 1.04 0.66 7.7 0 0 94.17 27.62
  Q 93.91 28.09 94.50 28.54"
/>
<path stroke="#cb5c5e" stroke-opacity="0.996" vector-effect="non-scaling-stroke" d="
  M 94.54 29.50
  L 94.00 72.11
  A 0.88 0.87 -89.7 0 0 94.87 73.00
  L 131.22 73.29"
/>
<path stroke="#cb5c5e" stroke-opacity="0.996" vector-effect="non-scaling-stroke" d="
  M 83.53 15.91
  Q 82.96 16.94 83.00 19.75
  Q 83.48 51.63 83.00 83.30
  A 0.69 0.69 -89.6 0 0 83.69 84.00
  L 131.04 83.95"
/>
<path stroke="#787e7a" stroke-opacity="0.996" vector-effect="non-scaling-stroke" d="
  M 8.87 64.29
  Q 9.14 62.95 9.57 63.92"
/>
<path stroke="#616765" stroke-opacity="0.996" vector-effect="non-scaling-stroke" d="
  M 9.57 63.92
  L 35.99 63.92
  A 1.01 0.98 0.0 0 0 37.00 62.94
  L 37.00 37.27
  A 1.27 1.26 90.0 0 0 35.74 36.00
  L 10.00 36.04"
/>
<path stroke="#787e7a" stroke-opacity="0.996" vector-effect="non-scaling-stroke" d="
  M 10.00 36.04
  Q 9.66 36.13 8.93 35.73"
/>
<path stroke="#383c3c" vector-effect="non-scaling-stroke" d="
  M 10.00 36.04
  Q 10.02 36.61 9.69 37.00
  A 1.41 0.68 -38.6 0 0 9.30 37.81
  L 9.57 63.92"
/>
<path stroke="#6b6f6d" stroke-opacity="0.996" vector-effect="non-scaling-stroke" d="
  M 129.25 35.29
  Q 130.73 35.70 129.00 35.96"
/>
<path stroke="#535857" vector-effect="non-scaling-stroke" d="
  M 129.00 35.96
  L 103.75 36.21"
/>
<path stroke="#949995" stroke-opacity="0.996" vector-effect="non-scaling-stroke" d="
  M 103.75 36.21
  Q 104.01 35.92 104.00 35.54"
/>
<path stroke="#787e7a" stroke-opacity="0.996" vector-effect="non-scaling-stroke" d="
  M 131.04 64.00
  Q 130.87 63.66 130.50 63.71"
/>
<path stroke="#383c3c" vector-effect="non-scaling-stroke" d="
  M 130.50 63.71
  L 130.70 37.07
  A 0.92 0.80 -77.8 0 0 130.27 36.29
  Q 129.68 35.97 129.00 35.96"
/>
<path stroke="#616765" stroke-opacity="0.996" vector-effect="non-scaling-stroke" d="
  M 103.75 36.21
  L 103.41 36.07
  A 0.33 0.25 -82.4 0 0 103.07 36.42
  L 103.43 63.30
  A 0.52 0.51 89.4 0 0 103.94 63.81
  L 130.50 63.71"
/>
<path stroke="#383c3c" vector-effect="non-scaling-stroke" d="
  M 61.26 62.53
  Q 63.28 61.08 62.50 59.79"
/>
<path stroke="#919591" vector-effect="non-scaling-stroke" d="
  M 62.50 59.79
  L 73.54 50.33
  A 0.56 0.53 44.6 0 0 73.51 49.51
  L 62.88 40.32
  A 0.31 0.31 -63.7 0 0 62.38 40.49
  Q 62.02 42.06 62.25 43.25
  Q 62.62 45.12 61.25 45.46"
/>
<path stroke="#6b6f6d" stroke-opacity="0.996" vector-effect="non-scaling-stroke" d="
  M 61.25 45.46
  Q 61.25 44.45 60.50 43.96"
/>
<path stroke="#7a7f7b" vector-effect="non-scaling-stroke" d="
  M 62.50 59.79
  Q 61.93 57.70 62.25 56.50
  Q 62.86 54.21 60.75 54.54"
/>
<path stroke="#adb1ac" vector-effect="non-scaling-stroke" d="
  M 60.75 54.54
  L 49.25 54.29"
/>
<path stroke="#7a7f7b" vector-effect="non-scaling-stroke" d="
  M 49.25 54.29
  Q 48.59 50.02 49.29 45.75"
/>
<path stroke="#adb1ac" vector-effect="non-scaling-stroke" d="
  M 49.29 45.75
  Q 55.28 46.16 61.25 45.46"
/>
<path stroke="#535857" vector-effect="non-scaling-stroke" d="
  M 49.29 45.75
  Q 49.05 44.77 48.42 45.00
  A 0.82 0.65 81.7 0 0 47.98 45.75
  L 48.15 54.32
  A 0.61 0.49 88.1 0 0 48.67 54.93
  Q 49.10 54.91 49.25 54.29"
/>
<path stroke="#535857" vector-effect="non-scaling-stroke" d="
  M 60.75 54.54
  Q 61.26 55.47 60.75 56.29"
/>
<path stroke="#d25655" vector-effect="non-scaling-stroke" d="
  M 93.26 74.19
  A 0.76 0.76 0.3 0 1 92.50 73.43
  L 92.50 26.44
  A 0.69 0.69 -88.0 0 1 93.19 25.75
  L 128.59 25.75
  A 0.59 0.58 -1.4 0 0 129.18 25.14
  L 128.84 17.94
  A 0.53 0.52 -1.1 0 0 128.31 17.44
  L 85.02 17.50
  A 0.77 0.76 0.0 0 0 84.25 18.26
  L 84.25 81.82
  A 0.68 0.68 0.0 0 0 84.93 82.50
  L 128.45 82.44
  A 0.51 0.50 -90.0 0 0 128.95 81.93
  L 128.99 74.77
  A 0.52 0.51 0.5 0 0 128.47 74.25
  L 93.26 74.19"
/>
<path stroke="#7a7f7b" vector-effect="non-scaling-stroke" d="
  M 35.71 58.50
  L 35.75 38.02
  A 0.52 0.52 0.0 0 0 35.23 37.50
  L 14.75 37.54"
/>
<path stroke="#6a6e6c" vector-effect="non-scaling-stroke" d="
  M 14.75 37.54
  L 11.48 37.51
  A 0.53 0.52 -88.9 0 0 10.95 38.03
  L 10.76 61.99
  A 0.52 0.50 0.5 0 0 11.28 62.50
  L 34.74 62.50
  A 0.98 0.95 0.0 0 0 35.72 61.55
  L 35.71 58.50"
/>
<path stroke="#c3c7c0" vector-effect="non-scaling-stroke" d="
  M 14.75 37.54
  L 14.99 57.04
  A 1.48 1.43 89.6 0 0 16.42 58.50
  L 35.71 58.50"
/>
<path stroke="#7a7f7b" vector-effect="non-scaling-stroke" d="
  M 129.00 58.21
  L 129.00 38.05
  A 0.55 0.55 0.2 0 0 128.45 37.50
  L 108.25 37.54"
/>
<path stroke="#6a6e6c" vector-effect="non-scaling-stroke" d="
  M 108.25 37.54
  L 104.94 37.45
  A 0.51 0.50 1.1 0 0 104.42 37.94
  L 104.26 61.94
  A 0.65 0.62 0.4 0 0 104.91 62.57
  L 128.43 62.67
  A 0.68 0.62 6.5 0 0 129.08 62.20
  Q 129.60 60.22 129.00 58.21"
/>
<path stroke="#c3c7c0" vector-effect="non-scaling-stroke" d="
  M 108.25 37.54
  L 108.25 57.21
  A 1.24 1.19 89.5 0 0 109.46 58.45
  L 129.00 58.21"
/>
</g>
<path fill="#868a88" fill-opacity="0.996" d="
  M 131.27 16.52
  Q 107.40 15.40 83.53 15.91
  L 83.49 15.30
  Q 106.38 15.21 129.25 15.25
  Q 131.39 15.25 131.27 16.52
  Z"
/>
<path fill="#d9a4a8" fill-opacity="0.988" d="
  M 83.49 15.30
  L 83.53 15.91
  Q 82.96 16.94 83.00 19.75
  Q 83.48 51.63 83.00 83.30
  A 0.69 0.69 -89.6 0 0 83.69 84.00
  L 131.04 83.95
  Q 130.61 84.83 129.25 84.83
  Q 106.25 84.75 83.91 84.75
  Q 82.00 84.75 82.00 82.84
  Q 82.00 49.62 82.00 17.25
  Q 82.00 15.54 83.49 15.30
  Z"
/>
<path fill="#bd1514" d="
  M 83.53 15.91
  Q 107.40 15.40 131.27 16.52
  L 131.22 26.72
  L 95.00 27.24
  A 1.04 0.66 7.7 0 0 94.17 27.62
  Q 93.91 28.09 94.50 28.54
  L 94.54 29.50
  L 94.00 72.11
  A 0.88 0.87 -89.7 0 0 94.87 73.00
  L 131.22 73.29
  L 131.04 83.95
  L 83.69 84.00
  A 0.69 0.69 -89.6 0 1 83.00 83.30
  Q 83.48 51.63 83.00 19.75
  Q 82.96 16.94 83.53 15.91
  Z
  M 93.26 74.19
  A 0.76 0.76 0.3 0 1 92.50 73.43
  L 92.50 26.44
  A 0.69 0.69 -88.0 0 1 93.19 25.75
  L 128.59 25.75
  A 0.59 0.58 -1.4 0 0 129.18 25.14
  L 128.84 17.94
  A 0.53 0.52 -1.1 0 0 128.31 17.44
  L 85.02 17.50
  A 0.77 0.76 0.0 0 0 84.25 18.26
  L 84.25 81.82
  A 0.68 0.68 0.0 0 0 84.93 82.50
  L 128.45 82.44
  A 0.51 0.50 -90.0 0 0 128.95 81.93
  L 128.99 74.77
  A 0.52 0.51 0.5 0 0 128.47 74.25
  L 93.26 74.19
  Z"
/>
<path fill="#e79696" d="
  M 93.26 74.19
  L 128.47 74.25
  A 0.52 0.51 0.5 0 1 128.99 74.77
  L 128.95 81.93
  A 0.51 0.50 -90.0 0 1 128.45 82.44
  L 84.93 82.50
  A 0.68 0.68 0.0 0 1 84.25 81.82
  L 84.25 18.26
  A 0.77 0.76 -0.0 0 1 85.02 17.50
  L 128.31 17.44
  A 0.53 0.52 -1.1 0 1 128.84 17.94
  L 129.18 25.14
  A 0.59 0.58 -1.4 0 1 128.59 25.75
  L 93.19 25.75
  A 0.69 0.69 88.6 0 0 92.50 26.44
  L 92.50 73.43
  A 0.76 0.76 -0.3 0 0 93.26 74.19
  Z"
/>
<path fill="#d9a4a8" fill-opacity="0.988" d="
  M 131.22 26.72
  Q 131.35 27.92 129.69 27.94
  Q 103.67 28.12 98.00 28.00
  Q 95.61 27.95 94.50 28.54
  Q 93.91 28.09 94.17 27.62
  A 1.04 0.66 7.7 0 1 95.00 27.24
  L 131.22 26.72
  Z"
/>
<path fill="#d9a4a8" fill-opacity="0.988" d="
  M 94.54 29.50
  L 94.74 71.08
  A 0.86 0.84 90.0 0 0 95.58 71.94
  Q 112.03 72.05 129.00 71.94
  Q 131.35 71.93 131.22 73.29
  L 94.87 73.00
  A 0.88 0.87 -89.7 0 1 94.00 72.11
  L 94.54 29.50
  Z"
/>
<path fill="#a2a9a3" fill-opacity="0.992" d="
  M 8.87 64.29
  Q 9.14 62.95 9.57 63.92
  L 35.99 63.92
  A 1.01 0.98 0.0 0 0 37.00 62.94
  L 37.00 37.27
  A 1.27 1.26 90.0 0 0 35.74 36.00
  L 10.00 36.04
  Q 9.66 36.13 8.93 35.73
  Q 9.85 35.25 11.25 35.25
  Q 23.38 35.25 36.05 35.25
  Q 37.94 35.25 37.94 37.13
  L 38.00 62.58
  Q 38.00 64.66 35.91 64.72
  Q 21.88 65.10 8.87 64.29
  Z"
/>
<path fill="#868a88" fill-opacity="0.996" d="
  M 129.25 35.29
  Q 130.73 35.70 129.00 35.96
  L 103.75 36.21
  Q 104.01 35.92 104.00 35.54
  L 129.25 35.29
  Z"
/>
<path fill="#4f5352" fill-opacity="0.996" d="
  M 129.25 35.29
  Q 131.53 35.38 131.37 37.50
  Q 131.26 38.94 131.26 39.00
  Q 131.40 51.51 131.04 64.00
  Q 130.87 63.66 130.50 63.71
  L 130.70 37.07
  A 0.92 0.80 -77.8 0 0 130.27 36.29
  Q 129.68 35.97 129.00 35.96
  Q 130.73 35.70 129.25 35.29
  Z"
/>
<path fill="#a2a9a3" fill-opacity="0.992" d="
  M 104.00 35.54
  Q 104.01 35.92 103.75 36.21
  L 103.41 36.07
  A 0.33 0.25 -82.4 0 0 103.07 36.42
  L 103.43 63.30
  A 0.52 0.51 89.4 0 0 103.94 63.81
  L 130.50 63.71
  Q 130.87 63.66 131.04 64.00
  Q 130.31 64.75 128.25 64.75
  Q 116.50 64.75 104.15 64.75
  Q 102.03 64.75 102.01 62.64
  Q 101.87 49.40 102.19 37.06
  Q 102.23 35.27 104.00 35.54
  Z"
/>
<path fill="#4f5352" fill-opacity="0.996" d="
  M 8.93 35.73
  Q 9.66 36.13 10.00 36.04
  Q 10.02 36.61 9.69 37.00
  A 1.41 0.68 -38.6 0 0 9.30 37.81
  L 9.57 63.92
  Q 9.14 62.95 8.87 64.29
  L 8.93 35.73
  Z"
/>
<path fill="#212627" d="
  M 10.00 36.04
  L 35.74 36.00
  A 1.27 1.26 -90.0 0 1 37.00 37.27
  L 37.00 62.94
  A 1.01 0.98 -0.0 0 1 35.99 63.92
  L 9.57 63.92
  L 9.30 37.81
  A 1.41 0.68 -38.6 0 1 9.69 37.00
  Q 10.02 36.61 10.00 36.04
  Z
  M 35.71 58.50
  L 35.75 38.02
  A 0.52 0.52 0.0 0 0 35.23 37.50
  L 14.75 37.54
  L 11.48 37.51
  A 0.53 0.52 -88.9 0 0 10.95 38.03
  L 10.76 61.99
  A 0.52 0.50 0.5 0 0 11.28 62.50
  L 34.74 62.50
  A 0.98 0.95 0.0 0 0 35.72 61.55
  L 35.71 58.50
  Z"
/>
<path fill="#212627" d="
  M 103.75 36.21
  L 129.00 35.96
  Q 129.68 35.97 130.27 36.29
  A 0.92 0.80 -77.8 0 1 130.70 37.07
  L 130.50 63.71
  L 103.94 63.81
  A 0.52 0.51 89.4 0 1 103.43 63.30
  L 103.07 36.42
  A 0.33 0.25 -82.4 0 1 103.41 36.07
  L 103.75 36.21
  Z
  M 129.00 58.21
  L 129.00 38.05
  A 0.55 0.55 0.2 0 0 128.45 37.50
  L 108.25 37.54
  L 104.94 37.45
  A 0.51 0.50 1.1 0 0 104.42 37.94
  L 104.26 61.94
  A 0.65 0.62 0.4 0 0 104.91 62.57
  L 128.43 62.67
  A 0.68 0.62 6.5 0 0 129.08 62.20
  Q 129.60 60.22 129.00 58.21
  Z"
/>
<path fill="#4f5352" fill-opacity="0.996" d="
  M 61.26 62.53
  Q 63.28 61.08 62.50 59.79
  L 73.54 50.33
  A 0.56 0.53 44.6 0 0 73.51 49.51
  L 62.88 40.32
  A 0.31 0.31 -63.7 0 0 62.38 40.49
  Q 62.02 42.06 62.25 43.25
  Q 62.62 45.12 61.25 45.46
  Q 61.25 44.45 60.50 43.96
  Q 60.94 41.63 60.75 39.25
  Q 60.49 35.89 62.69 37.81
  L 75.12 48.69
  A 1.70 1.66 43.6 0 1 75.21 51.16
  Q 68.84 57.27 61.26 62.53
  Z"
/>
<path fill="#b2b6b1" d="
  M 108.25 37.54
  L 108.25 57.21
  A 1.24 1.19 89.5 0 0 109.46 58.45
  L 129.00 58.21
  Q 129.60 60.22 129.08 62.20
  A 0.68 0.62 6.5 0 1 128.43 62.67
  L 104.91 62.57
  A 0.65 0.62 0.4 0 1 104.26 61.94
  L 104.42 37.94
  A 0.51 0.50 1.1 0 1 104.94 37.45
  L 108.25 37.54
  Z"
/>
<path fill="#b2b6b1" d="
  M 14.75 37.54
  L 14.99 57.04
  A 1.48 1.43 89.6 0 0 16.42 58.50
  L 35.71 58.50
  L 35.72 61.55
  A 0.98 0.95 0.0 0 1 34.74 62.50
  L 11.28 62.50
  A 0.52 0.50 0.5 0 1 10.76 61.99
  L 10.95 38.03
  A 0.53 0.52 -88.9 0 1 11.48 37.51
  L 14.75 37.54
  Z"
/>
<path fill="#d3d7cf" d="
  M 14.75 37.54
  L 35.23 37.50
  A 0.52 0.52 0.0 0 1 35.75 38.02
  L 35.71 58.50
  L 16.42 58.50
  A 1.48 1.43 89.6 0 1 14.99 57.04
  L 14.75 37.54
  Z"
/>
<path fill="#d3d7cf" d="
  M 108.25 37.54
  L 128.45 37.50
  A 0.55 0.55 -0.8 0 1 129.00 38.05
  L 129.00 58.21
  L 109.46 58.45
  A 1.24 1.19 89.5 0 1 108.25 57.21
  L 108.25 37.54
  Z"
/>
<path fill="#d3d7cf" d="
  M 62.50 59.79
  Q 61.93 57.70 62.25 56.50
  Q 62.86 54.21 60.75 54.54
  L 49.25 54.29
  Q 48.59 50.02 49.29 45.75
  Q 55.28 46.16 61.25 45.46
  Q 62.62 45.12 62.25 43.25
  Q 62.02 42.06 62.38 40.49
  A 0.31 0.31 -63.7 0 1 62.88 40.32
  L 73.51 49.51
  A 0.56 0.53 44.6 0 1 73.54 50.33
  L 62.50 59.79
  Z"
/>
<path fill="#868a88" fill-opacity="0.996" d="
  M 60.50 43.96
  Q 61.25 44.45 61.25 45.46
  Q 55.28 46.16 49.29 45.75
  Q 49.05 44.77 48.42 45.00
  A 0.82 0.65 81.7 0 0 47.98 45.75
  L 48.15 54.32
  A 0.61 0.49 88.1 0 0 48.67 54.93
  Q 49.10 54.91 49.25 54.29
  L 60.75 54.54
  Q 61.26 55.47 60.75 56.29
  L 49.23 56.03
  Q 47.25 55.99 47.25 54.13
  L 47.25 45.74
  A 1.75 1.74 -0.2 0 1 48.99 44.00
  L 60.50 43.96
  Z"
/>
<path fill="#212627" d="
  M 49.29 45.75
  Q 48.59 50.02 49.25 54.29
  Q 49.10 54.91 48.67 54.93
  A 0.61 0.49 88.1 0 1 48.15 54.32
  L 47.98 45.75
  A 0.82 0.65 81.7 0 1 48.42 45.00
  Q 49.05 44.77 49.29 45.75
  Z"
/>
<path fill="#212627" d="
  M 60.75 54.54
  Q 62.86 54.21 62.25 56.50
  Q 61.93 57.70 62.50 59.79
  Q 63.28 61.08 61.26 62.53
  Q 60.37 58.76 60.75 56.29
  Q 61.26 55.47 60.75 54.54
  Z"
/>
</svg>
