<?xml version="1.0" encoding="UTF-8" standalone="no"?>
<!DOCTYPE svg PUBLIC "-//W3C//DTD SVG 1.1//EN" "http://www.w3.org/Graphics/SVG/1.1/DTD/svg11.dtd">
<svg xmlns="http://www.w3.org/2000/svg" version="1.1" viewBox="0 0 140 100">
<g stroke-width="2.00" fill="none" stroke-linecap="butt">
<path stroke="#9eaaa0" stroke-opacity="0.988" vector-effect="non-scaling-stroke" d="
  M 32.75 25.54
  L 32.75 26.21"
/>
<path stroke="#56615b" stroke-opacity="0.992" vector-effect="non-scaling-stroke" d="
  M 32.75 26.21
  Q 24.00 25.67 15.25 26.17
  Q 11.99 26.35 8.56 25.98
  A 1.41 1.41 -86.9 0 0 7.00 27.38
  Q 7.00 49.75 7.00 72.00
  Q 7.00 73.97 8.50 74.04"
/>
<path stroke="#9eaaa0" stroke-opacity="0.988" vector-effect="non-scaling-stroke" d="
  M 8.50 74.04
  Q 7.67 74.11 7.50 74.71"
/>
<path stroke="#676e6b" stroke-opacity="0.996" vector-effect="non-scaling-stroke" d="
  M 8.50 74.04
  L 32.05 74.00
  A 0.95 0.92 0.6 0 0 33.00 73.10
  Q 33.45 51.38 33.00 29.50
  Q 32.94 26.73 32.75 26.21"
/>
<path stroke="#728374" stroke-opacity="0.988" vector-effect="non-scaling-stroke" d="
  M 67.19 25.74
  Q 66.24 26.13 66.00 26.04"
/>
<path stroke="#56615b" stroke-opacity="0.992" vector-effect="non-scaling-stroke" d="
  M 66.00 26.04
  Q 52.86 25.43 39.74 26.72"
/>
<path stroke="#839083" stroke-opacity="0.996" vector-effect="non-scaling-stroke" d="
  M 66.25 74.46
  Q 66.73 73.92 66.00 73.96"
/>
<path stroke="#3c483f" vector-effect="non-scaling-stroke" d="
  M 66.00 26.04
  Q 66.33 26.21 66.56 26.47
  Q 66.75 26.70 66.75 27.09
  Q 66.89 50.01 66.56 72.94
  Q 66.55 73.71 66.00 73.96"
/>
<path stroke="#676e6b" stroke-opacity="0.996" vector-effect="non-scaling-stroke" d="
  M 66.00 73.96
  L 39.76 73.49"
/>
<path stroke="#9eaaa0" stroke-opacity="0.988" vector-effect="non-scaling-stroke" d="
  M 100.70 25.99
  L 98.75 26.04"
/>
<path stroke="#525d57" stroke-opacity="0.992" vector-effect="non-scaling-stroke" d="
  M 98.75 26.04
  L 75.50 25.96"
/>
<path stroke="#9eaaa0" stroke-opacity="0.988" vector-effect="non-scaling-stroke" d="
  M 75.50 25.96
  L 74.50 25.54"
/>
<path stroke="#636a67" stroke-opacity="0.996" vector-effect="non-scaling-stroke" d="
  M 75.50 25.96
  Q 73.71 25.81 73.88 27.39
  Q 74.01 28.57 74.01 28.62
  Q 74.26 50.90 74.07 73.18
  A 0.52 0.50 -88.9 0 0 74.56 73.71
  L 99.16 73.82
  A 0.58 0.55 -87.9 0 0 99.72 73.27
  Q 100.75 49.91 99.76 27.32
  Q 99.76 27.21 99.85 26.70
  Q 99.98 26.00 98.75 26.04"
/>
<path stroke="#9eaaa0" stroke-opacity="0.988" vector-effect="non-scaling-stroke" d="
  M 106.77 74.58
  L 108.50 74.04"
/>
<path stroke="#676e6b" stroke-opacity="0.996" vector-effect="non-scaling-stroke" d="
  M 108.50 74.04
  L 132.10 74.01
  A 1.09 1.08 0.0 0 0 133.19 72.93
  L 133.00 27.12
  A 1.11 1.10 88.5 0 0 131.85 26.02
  Q 119.77 26.53 107.29 26.00"
/>
<path stroke="#9eaaa0" stroke-opacity="0.988" vector-effect="non-scaling-stroke" d="
  M 107.29 26.00
  L 107.25 25.54"
/>
<path stroke="#56615b" stroke-opacity="0.992" vector-effect="non-scaling-stroke" d="
  M 107.29 26.00
  Q 106.67 54.34 107.06 73.19
  Q 107.09 74.38 108.50 74.04"
/>
<path stroke="#909393" vector-effect="non-scaling-stroke" d="
  M 64.9972 27.8302
  A 0.27 0.27 0.0 0 0 64.7286 27.5588
  L 42.2889 27.4413
  A 0.27 0.27 0.0 0 0 42.0175 27.7099
  L 42.0028 30.5098
  A 0.27 0.27 0.0 0 0 42.2714 30.7812
  L 64.7111 30.8987
  A 0.27 0.27 0.0 0 0 64.9825 30.6301
  L 64.9972 27.8302"
/>
<path stroke="#909393" vector-effect="non-scaling-stroke" d="
  M 65.1729 32.9804
  A 0.44 0.44 0.0 0 0 64.7345 32.5389
  L 42.4546 32.4611
  A 0.44 0.44 0.0 0 0 42.0131 32.8996
  L 41.9871 40.3596
  A 0.44 0.44 0.0 0 0 42.4255 40.8011
  L 64.7054 40.8789
  A 0.44 0.44 0.0 0 0 65.1469 40.4404
  L 65.1729 32.9804"
/>
<path stroke="#909393" vector-effect="non-scaling-stroke" d="
  M 65.0285 42.7198
  A 0.26 0.26 0.0 0 0 64.7676 42.4607
  L 42.2077 42.5395
  A 0.26 0.26 0.0 0 0 41.9486 42.8004
  L 42.0515 72.2802
  A 0.26 0.26 0.0 0 0 42.3124 72.5393
  L 64.8723 72.4605
  A 0.26 0.26 0.0 0 0 65.1314 72.1996
  L 65.0285 42.7198"
/>
<path stroke="#909393" vector-effect="non-scaling-stroke" d="
  M 31.73 27.77
  A 0.27 0.27 0.0 0 0 31.46 27.50
  L 8.80 27.50
  A 0.27 0.27 0.0 0 0 8.53 27.77
  L 8.53 30.49
  A 0.27 0.27 0.0 0 0 8.80 30.76
  L 31.46 30.76
  A 0.27 0.27 0.0 0 0 31.73 30.49
  L 31.73 27.77"
/>
<path stroke="#909393" vector-effect="non-scaling-stroke" d="
  M 31.7332 32.7397
  A 0.27 0.27 0.0 0 0 31.4628 32.4702
  L 8.7628 32.5098
  A 0.27 0.27 0.0 0 0 8.4933 32.7803
  L 8.5068 40.5203
  A 0.27 0.27 0.0 0 0 8.7772 40.7898
  L 31.4772 40.7502
  A 0.27 0.27 0.0 0 0 31.7467 40.4797
  L 31.7332 32.7397"
/>
<path stroke="#909393" vector-effect="non-scaling-stroke" d="
  M 31.74 42.77
  A 0.27 0.27 0.0 0 0 31.47 42.50
  L 8.77 42.50
  A 0.27 0.27 0.0 0 0 8.50 42.77
  L 8.50 72.25
  A 0.27 0.27 0.0 0 0 8.77 72.52
  L 31.47 72.52
  A 0.27 0.27 0.0 0 0 31.74 72.25
  L 31.74 42.77"
/>
<path stroke="#8c8f8f" vector-effect="non-scaling-stroke" d="
  M 98.5048 27.7905
  A 0.26 0.26 0.0 0 0 98.2457 27.5296
  L 75.5459 27.4504
  A 0.26 0.26 0.0 0 0 75.2850 27.7095
  L 75.2752 30.5095
  A 0.26 0.26 0.0 0 0 75.5343 30.7704
  L 98.2341 30.8496
  A 0.26 0.26 0.0 0 0 98.4950 30.5905
  L 98.5048 27.7905"
/>
<path stroke="#8c8f8f" vector-effect="non-scaling-stroke" d="
  M 98.49 32.77
  A 0.27 0.27 0.0 0 0 98.22 32.50
  L 75.50 32.50
  A 0.27 0.27 0.0 0 0 75.23 32.77
  L 75.23 40.55
  A 0.27 0.27 0.0 0 0 75.50 40.82
  L 98.22 40.82
  A 0.27 0.27 0.0 0 0 98.49 40.55
  L 98.49 32.77"
/>
<path stroke="#8c8f8f" vector-effect="non-scaling-stroke" d="
  M 98.51 42.76
  A 0.27 0.27 0.0 0 0 98.24 42.49
  L 75.52 42.49
  A 0.27 0.27 0.0 0 0 75.25 42.76
  L 75.25 72.24
  A 0.27 0.27 0.0 0 0 75.52 72.51
  L 98.24 72.51
  A 0.27 0.27 0.0 0 0 98.51 72.24
  L 98.51 42.76"
/>
<path stroke="#909393" vector-effect="non-scaling-stroke" d="
  M 131.7499 27.8012
  A 0.27 0.27 0.0 0 0 131.4818 27.5293
  L 108.7824 27.3708
  A 0.27 0.27 0.0 0 0 108.5105 27.6389
  L 108.4901 30.5588
  A 0.27 0.27 0.0 0 0 108.7582 30.8307
  L 131.4576 30.9892
  A 0.27 0.27 0.0 0 0 131.7295 30.7211
  L 131.7499 27.8012"
/>
<path stroke="#909393" vector-effect="non-scaling-stroke" d="
  M 131.7332 32.7097
  A 0.26 0.26 0.0 0 0 131.4727 32.4502
  L 108.7528 32.4898
  A 0.26 0.26 0.0 0 0 108.4932 32.7503
  L 108.5068 40.5303
  A 0.26 0.26 0.0 0 0 108.7673 40.7898
  L 131.4872 40.7502
  A 0.26 0.26 0.0 0 0 131.7468 40.4897
  L 131.7332 32.7097"
/>
<path stroke="#909393" vector-effect="non-scaling-stroke" d="
  M 131.74 42.79
  A 0.30 0.30 0.0 0 0 131.44 42.49
  L 108.80 42.49
  A 0.30 0.30 0.0 0 0 108.50 42.79
  L 108.50 72.19
  A 0.30 0.30 0.0 0 0 108.80 72.49
  L 131.44 72.49
  A 0.30 0.30 0.0 0 0 131.74 72.19
  L 131.74 42.79"
/>
<path stroke="#909393" vector-effect="non-scaling-stroke" d="
  M 20.25 35.28
  Q 19.77 34.09 18.34 35.36
  A 0.95 0.95 -35.7 0 1 16.88 35.12
  Q 16.18 33.84 15.23 35.03
  A 1.36 0.70 -61.4 0 1 14.46 35.55
  Q 13.72 35.63 13.21 34.99
  A 0.65 0.53 55.6 0 0 12.48 34.77
  Q 11.37 35.36 10.78 36.48
  A 0.54 0.41 -67.1 0 0 10.97 37.21
  Q 11.32 37.30 11.63 36.86
  Q 12.83 35.08 13.77 36.86
  A 0.55 0.55 50.5 0 0 14.68 36.95
  Q 16.07 35.21 17.28 36.77
  A 0.42 0.41 49.0 0 0 17.90 36.82
  Q 19.31 35.48 20.72 36.82
  A 0.43 0.43 41.1 0 0 21.35 36.78
  Q 22.50 35.36 23.90 36.65
  A 0.58 0.56 -43.2 0 0 24.63 36.66
  Q 26.15 35.45 27.38 36.80
  A 0.62 0.52 50.9 0 0 28.11 36.94
  Q 29.18 36.23 29.39 35.06
  Q 29.48 34.56 29.09 34.93
  Q 27.69 36.28 26.50 34.96
  A 0.62 0.56 53.1 0 0 25.76 34.82
  L 24.67 35.49
  A 0.61 0.55 52.4 0 1 23.94 35.36
  Q 22.83 34.19 21.61 35.52
  A 0.82 0.81 -34.8 0 1 20.25 35.28"
/>
<path stroke="#8c8f8f" vector-effect="non-scaling-stroke" d="
  M 95.52 36.13
  Q 96.35 35.71 96.06 34.99
  Q 95.88 34.53 95.54 34.99
  Q 94.59 36.29 93.48 35.11
  A 1.01 1.01 42.8 0 0 91.95 35.17
  Q 91.00 36.37 89.98 35.09
  A 0.89 0.89 43.8 0 0 88.56 35.12
  Q 87.65 36.36 86.72 35.22
  A 1.13 0.61 59.5 0 0 85.94 34.75
  Q 85.40 34.78 85.05 35.33
  A 0.79 0.78 -49.5 0 1 83.80 35.43
  Q 82.68 34.15 81.73 35.28
  A 1.03 0.66 -59.4 0 1 80.95 35.67
  Q 80.40 35.57 80.03 35.17
  A 0.96 0.68 59.3 0 0 79.25 34.82
  Q 77.70 35.09 77.44 36.19
  Q 77.03 37.86 79.14 36.10
  A 0.57 0.57 -33.9 0 1 80.01 36.27
  Q 81.05 38.21 81.81 36.49
  A 0.94 0.94 35.7 0 1 83.37 36.24
  Q 84.70 37.71 85.49 36.28
  Q 86.10 35.20 86.72 36.28
  Q 87.60 37.79 88.49 36.72
  Q 89.65 35.33 90.45 36.74
  A 0.42 0.41 57.6 0 0 91.05 36.88
  Q 93.00 35.53 93.98 36.75
  A 0.67 0.40 57.1 0 0 94.56 37.04
  Q 94.77 36.97 94.89 36.78
  Q 95.23 36.28 95.52 36.13"
/>
<path stroke="#8c8f8f" vector-effect="non-scaling-stroke" d="
  M 124.56 36.68
  L 125.71 35.97
  A 0.66 0.49 56.3 0 1 126.45 36.23
  Q 127.62 37.89 128.92 35.97
  Q 130.40 33.80 128.45 35.20
  Q 127.39 35.97 126.36 35.10
  A 0.56 0.56 0.0 0 0 125.64 35.10
  Q 124.43 36.14 123.33 35.11
  A 0.72 0.69 54.0 0 0 122.56 34.97
  L 121.21 35.57
  A 0.76 0.63 54.5 0 1 120.43 35.36
  Q 119.29 34.14 118.07 35.38
  A 0.66 0.59 34.1 0 1 117.34 35.48
  L 116.23 34.92
  A 0.77 0.60 -53.0 0 0 115.42 35.14
  Q 114.20 36.43 113.35 35.24
  A 0.69 0.68 -35.1 0 0 112.40 35.08
  Q 110.44 36.46 110.76 36.96
  A 0.55 0.34 -44.8 0 0 111.47 36.79
  Q 111.97 36.21 112.69 36.09
  A 1.04 0.72 59.0 0 1 113.50 36.46
  Q 114.61 37.71 115.47 36.30
  A 0.71 0.71 44.9 0 1 116.68 36.30
  Q 117.51 37.62 118.23 36.80
  Q 118.87 36.08 119.08 36.03
  Q 119.73 35.88 120.31 36.75
  Q 121.00 37.79 121.49 36.64
  Q 122.14 35.14 123.76 36.63
  A 0.70 0.63 -38.4 0 0 124.56 36.68"
/>
<path stroke="#8c8f8f" vector-effect="non-scaling-stroke" d="
  M 48.59 36.49
  A 0.85 0.84 -49.7 0 1 50.01 36.37
  Q 51.13 37.85 51.86 36.52
  A 1.03 0.68 -71.8 0 1 52.56 35.97
  Q 53.26 35.94 53.69 36.57
  A 0.80 0.80 -46.2 0 0 55.03 36.54
  Q 55.95 35.08 57.17 36.84
  A 0.57 0.57 0.0 0 0 58.11 36.84
  Q 59.52 34.84 60.73 37.04
  A 0.51 0.51 49.3 0 0 61.60 37.07
  Q 62.80 35.19 62.78 34.79
  Q 62.78 34.61 61.74 35.52
  Q 60.91 36.25 59.79 34.85
  A 0.57 0.57 -48.5 0 0 58.85 34.91
  Q 57.90 36.49 56.58 35.13
  A 0.76 0.59 52.4 0 0 55.78 34.92
  L 54.67 35.47
  A 0.63 0.58 -34.1 0 1 53.94 35.36
  Q 52.84 34.18 51.68 35.44
  A 0.83 0.83 -43.5 0 1 50.42 35.41
  Q 49.31 34.02 48.07 35.36
  A 0.54 0.51 -50.0 0 1 47.37 35.44
  Q 45.19 33.84 44.00 36.47
  Q 43.68 37.20 44.28 37.05
  Q 44.74 36.93 45.30 35.98
  A 0.67 0.66 41.1 0 1 46.40 35.91
  Q 47.89 37.83 48.59 36.49"
/>
<path stroke="#db8e8f" vector-effect="non-scaling-stroke" d="
  M 61.11 55.45
  Q 61.13 54.63 60.73 53.97
  A 0.97 0.85 -13.4 0 0 59.93 53.55
  L 51.99 53.50
  A 1.00 0.92 71.6 0 1 51.23 53.08
  Q 49.39 50.44 45.66 51.79
  A 1.33 1.26 -10.7 0 0 44.78 53.01
  L 44.91 63.81
  A 0.53 0.52 0.0 0 0 45.44 64.33
  L 59.85 64.48
  A 1.39 1.25 -81.4 0 0 61.10 63.45
  L 62.78 57.04
  A 0.55 0.51 -73.4 0 0 62.46 56.38
  L 61.54 56.07
  A 0.64 0.64 -80.1 0 1 61.11 55.45"
/>
<path stroke="#db8e8f" vector-effect="non-scaling-stroke" d="
  M 83.52 50.80
  Q 82.79 49.76 81.76 48.24
  A 0.51 0.51 -45.6 0 0 80.91 48.25
  Q 80.02 49.63 79.80 51.00
  A 1.48 1.35 -59.1 0 0 79.99 51.94
  L 84.76 59.58
  A 0.57 0.55 72.8 0 1 84.32 60.45
  Q 80.45 60.59 79.69 62.98
  Q 79.17 64.61 80.14 65.90
  Q 81.18 67.27 83.44 66.94
  Q 85.37 66.65 85.25 63.00
  Q 85.14 59.63 87.52 61.04
  A 1.28 1.18 10.1 0 1 88.09 61.79
  L 88.95 65.23
  Q 89.47 67.31 91.42 66.94
  Q 94.90 66.28 94.01 63.48
  Q 93.51 61.91 93.19 61.37
  Q 92.48 60.20 90.75 60.50
  Q 87.92 60.99 89.19 58.94
  L 93.52 51.94
  A 1.27 0.99 -41.8 0 0 93.69 51.01
  L 92.86 48.17
  Q 92.63 47.39 92.18 48.08
  L 87.43 55.20
  Q 86.40 56.75 85.77 55.06
  Q 84.94 52.84 83.52 50.80"
/>
<path stroke="#db8e8f" vector-effect="non-scaling-stroke" d="
  M 111.54 62.50
  Q 111.42 64.46 113.61 63.98
  A 0.82 0.82 0.9 0 1 114.58 64.98
  Q 114.24 66.34 115.50 66.46"
/>
<path stroke="#efd6d6" vector-effect="non-scaling-stroke" d="
  M 115.50 66.46
  Q 119.75 67.15 124.00 66.46"
/>
<path stroke="#db8e8f" vector-effect="non-scaling-stroke" d="
  M 124.00 66.46
  Q 125.87 66.91 125.83 65.38
  Q 125.81 64.44 126.04 64.19
  Q 126.51 63.70 127.51 64.00
  A 0.99 0.98 -78.5 0 0 128.78 63.15
  Q 129.15 59.51 129.00 55.50
  Q 128.95 54.23 127.50 54.54"
/>
<path stroke="#e5bdbe" vector-effect="non-scaling-stroke" d="
  M 127.50 54.54
  Q 125.40 54.72 126.24 51.59
  A 1.61 1.61 -77.1 0 0 124.98 49.58
  Q 120.34 48.71 115.18 49.60
  A 0.69 0.67 89.5 0 0 114.62 50.18
  Q 114.53 50.80 114.44 51.43
  Q 114.42 51.53 114.46 53.19
  Q 114.49 54.75 112.31 54.41
  A 0.56 0.52 10.9 0 0 111.69 54.80
  Q 110.82 58.60 111.54 62.50"
/>
<path stroke="#c14b4d" vector-effect="non-scaling-stroke" d="
  M 127.50 54.54
  L 127.71 55.75"
/>
<path stroke="#e5bdbe" vector-effect="non-scaling-stroke" d="
  M 127.71 55.75
  Q 126.77 55.78 126.83 56.42
  Q 126.90 57.14 126.89 57.21
  Q 126.66 58.69 125.97 57.45
  A 1.18 0.78 -55.9 0 1 125.98 56.56
  Q 126.32 55.71 125.25 55.72
  Q 119.25 55.75 113.19 55.75
  A 0.53 0.47 -88.7 0 0 112.72 56.26
  L 112.46 62.25"
/>
<path stroke="#c14b4d" vector-effect="non-scaling-stroke" d="
  M 112.46 62.25
  Q 112.05 62.58 111.54 62.50"
/>
<path stroke="#ca6566" vector-effect="non-scaling-stroke" d="
  M 124.00 66.46
  Q 124.62 66.12 124.83 65.21"
/>
<path stroke="#d07374" vector-effect="non-scaling-stroke" d="
  M 124.83 65.21
  Q 125.27 64.10 125.04 62.50"
/>
<path stroke="#c14b4d" vector-effect="non-scaling-stroke" d="
  M 125.04 62.50
  L 125.96 62.50"
/>
<path stroke="#db8e8f" vector-effect="non-scaling-stroke" d="
  M 125.96 62.50
  Q 127.91 63.78 127.88 61.25
  Q 127.85 58.50 127.71 55.75"
/>
<path stroke="#e5bdbe" vector-effect="non-scaling-stroke" d="
  M 125.96 62.50
  Q 125.99 60.96 125.25 59.71"
/>
<path stroke="#efd6d6" vector-effect="non-scaling-stroke" d="
  M 125.25 59.71
  Q 120.34 58.19 115.42 59.55
  A 1.05 0.93 0.7 0 0 114.74 60.14
  Q 114.27 61.35 114.50 62.71"
/>
<path stroke="#db8e8f" vector-effect="non-scaling-stroke" d="
  M 114.50 62.71
  Q 113.26 63.11 112.46 62.25"
/>
<path stroke="#ca6566" vector-effect="non-scaling-stroke" d="
  M 115.50 64.79
  Q 115.79 65.66 115.50 66.46"
/>
<path stroke="#e4bcbc" vector-effect="non-scaling-stroke" d="
  M 124.83 65.21
  Q 120.29 62.32 115.50 64.79"
/>
<path stroke="#d07374" vector-effect="non-scaling-stroke" d="
  M 115.50 64.79
  Q 115.09 63.96 115.21 63.00"
/>
<path stroke="#dba2a3" vector-effect="non-scaling-stroke" d="
  M 125.04 62.50
  Q 125.16 61.64 124.75 60.96"
/>
<path stroke="#d59495" vector-effect="non-scaling-stroke" d="
  M 125.25 59.71
  Q 124.42 60.03 124.75 60.96"
/>
<path stroke="#e4bcbc" vector-effect="non-scaling-stroke" d="
  M 124.75 60.96
  Q 121.50 63.04 117.67 62.18
  A 1.26 1.10 77.0 0 1 116.93 61.64
  Q 115.39 59.24 115.21 63.00"
/>
<path stroke="#ca6566" vector-effect="non-scaling-stroke" d="
  M 115.21 63.00
  Q 114.90 62.75 114.50 62.71"
/>
<path stroke="#db8e8f" vector-effect="non-scaling-stroke" d="
  M 28.06 65.08
  Q 28.36 60.40 28.27 55.72
  Q 28.27 55.63 28.37 53.79
  Q 28.47 51.85 27.33 50.62
  Q 26.29 49.50 23.81 49.44
  Q 18.17 49.29 12.78 49.66
  A 0.84 0.83 -2.2 0 0 12.00 50.49
  L 12.06 64.54
  A 0.86 0.82 90.0 0 0 12.88 65.40
  L 27.63 65.51
  A 0.46 0.43 -87.9 0 0 28.06 65.08"
/>
<path stroke="#db8e8f" vector-effect="non-scaling-stroke" d="
  M 84.72 57.72
  Q 85.51 58.99 86.96 59.53
  Q 87.52 59.74 87.22 59.24
  L 81.98 50.71
  A 0.75 0.58 62.4 0 0 81.19 50.35
  Q 80.71 50.53 81.06 51.44
  Q 81.93 53.68 83.37 55.57
  Q 83.46 55.69 84.72 57.72"
/>
<path stroke="#db8e8f" vector-effect="non-scaling-stroke" d="
  M 92.8106 51.3113
  A 0.68 0.68 0.0 0 0 92.5894 50.3754
  L 92.4873 50.3124
  A 0.68 0.68 0.0 0 0 91.5514 50.5336
  L 87.5894 56.9487
  A 0.68 0.68 0.0 0 0 87.8106 57.8846
  L 87.9127 57.9476
  A 0.68 0.68 0.0 0 0 88.8486 57.7264
  L 92.8106 51.3113"
/>
<path stroke="#db8e8f" vector-effect="non-scaling-stroke" d="
  M 84.0985 63.0974
  A 1.06 1.06 0.0 0 0 83.3947 61.7738
  L 82.4766 61.4932
  A 1.06 1.06 0.0 0 0 81.1531 62.1969
  L 80.5215 64.2626
  A 1.06 1.06 0.0 0 0 81.2253 65.5862
  L 82.1434 65.8668
  A 1.06 1.06 0.0 0 0 83.4669 65.1631
  L 84.0985 63.0974"
/>
<path stroke="#db8e8f" vector-effect="non-scaling-stroke" d="
  M 92.5787 62.4811
  A 1.33 1.33 0.0 0 0 90.9802 61.4900
  L 90.4934 61.6042
  A 1.33 1.33 0.0 0 0 89.5022 63.2027
  L 89.8813 64.8189
  A 1.33 1.33 0.0 0 0 91.4798 65.8100
  L 91.9666 65.6958
  A 1.33 1.33 0.0 0 0 92.9578 64.0973
  L 92.5787 62.4811"
/>
<path stroke="#d07374" vector-effect="non-scaling-stroke" d="
  M 14.90 64.43
  L 26.21 64.19"
/>
<path stroke="#db8e8f" vector-effect="non-scaling-stroke" d="
  M 26.21 64.19
  Q 27.88 57.00 26.94 51.81
  Q 26.59 49.90 24.50 50.79"
/>
<path stroke="#ca6566" vector-effect="non-scaling-stroke" d="
  M 24.50 50.79
  L 21.50 50.79"
/>
<path stroke="#db8e8f" vector-effect="non-scaling-stroke" d="
  M 21.50 50.79
  L 16.50 50.79"
/>
<path stroke="#ca6566" vector-effect="non-scaling-stroke" d="
  M 16.50 50.79
  L 16.25 50.79"
/>
<path stroke="#db8e8f" vector-effect="non-scaling-stroke" d="
  M 16.25 50.79
  Q 14.99 50.21 13.76 50.62
  A 0.77 0.69 81.9 0 0 13.30 51.31
  Q 13.21 57.28 13.25 63.25
  Q 13.26 64.87 14.90 64.43"
/>
<path stroke="#efd6d6" vector-effect="non-scaling-stroke" d="
  M 16.25 50.79
  L 16.45 54.70
  A 0.63 0.60 -0.4 0 0 17.06 55.27
  L 23.34 55.43
  A 1.24 1.13 -89.3 0 0 24.50 54.19
  L 24.50 50.79"
/>
<path stroke="#f5e5e5" vector-effect="non-scaling-stroke" d="
  M 26.21 64.19
  L 25.29 58.05
  A 0.79 0.76 3.2 0 0 24.71 57.43
  Q 20.55 56.32 16.42 57.54
  A 0.88 0.69 -7.0 0 0 15.80 58.16
  L 14.90 64.43"
/>
<path stroke="#efd6d6" vector-effect="non-scaling-stroke" d="
  M 21.50 50.79
  Q 20.98 52.10 21.12 53.44
  A 0.82 0.62 77.5 0 1 20.77 54.20
  Q 19.59 54.76 17.34 54.22
  A 0.83 0.83 11.2 0 1 16.71 53.28
  Q 16.92 51.84 16.50 50.79"
/>
<path stroke="#e5bdbe" vector-effect="non-scaling-stroke" d="
  M 124.7523 51.1680
  A 0.41 0.41 0.0 0 0 124.3430 50.7572
  L 116.0431 50.7428
  A 0.41 0.41 0.0 0 0 115.6323 51.1520
  L 115.6277 53.8320
  A 0.41 0.41 0.0 0 0 116.0370 54.2428
  L 124.3369 54.2572
  A 0.41 0.41 0.0 0 0 124.7477 53.8480
  L 124.7523 51.1680"
/>
<path stroke="#c14b4d" vector-effect="non-scaling-stroke" d="
  M 46.29 58.00
  Q 46.59 58.65 47.21 59.00"
/>
<path stroke="#db8e8f" vector-effect="non-scaling-stroke" d="
  M 47.21 59.00
  L 46.28 62.82
  A 0.43 0.42 7.1 0 0 46.69 63.34
  L 59.25 63.51
  A 0.70 0.68 8.8 0 0 59.93 63.03
  L 61.45 57.92
  A 0.43 0.40 10.3 0 0 61.06 57.40
  Q 54.40 56.91 47.75 57.54"
/>
<path stroke="#c14b4d" vector-effect="non-scaling-stroke" d="
  M 47.75 57.54
  Q 47.37 57.45 47.00 57.54"
/>
<path stroke="#db8e8f" vector-effect="non-scaling-stroke" d="
  M 47.00 57.54
  Q 46.58 56.78 47.11 56.33
  Q 47.42 56.07 48.10 56.05
  Q 53.55 55.95 59.00 56.00
  Q 60.04 56.01 59.84 55.04
  A 0.69 0.59 -4.6 0 0 59.19 54.57
  L 50.72 54.44
  A 0.84 0.83 -84.2 0 1 49.91 53.44
  Q 50.13 52.26 48.87 52.38
  Q 48.20 52.45 47.61 52.40
  Q 45.39 52.19 45.76 54.78
  Q 45.99 56.38 46.29 58.00"
/>
<path stroke="#e5bdbe" vector-effect="non-scaling-stroke" d="
  M 47.00 57.54
  Q 46.97 58.22 46.29 58.00"
/>
<path stroke="#e5bdbe" vector-effect="non-scaling-stroke" d="
  M 47.21 59.00
  L 47.75 57.54"
/>
</g>
<path fill="#8d9d90" fill-opacity="0.980" d="
  M 32.75 25.54
  L 32.75 26.21
  Q 24.00 25.67 15.25 26.17
  Q 11.99 26.35 8.56 25.98
  A 1.41 1.41 -86.9 0 0 7.00 27.38
  Q 7.00 49.75 7.00 72.00
  Q 7.00 73.97 8.50 74.04
  Q 7.67 74.11 7.50 74.71
  Q 6.94 74.43 6.59 73.94
  Q 6.31 73.55 6.32 72.87
  Q 6.54 36.75 6.25 28.25
  Q 6.14 24.95 9.11 25.13
  Q 10.83 25.24 10.91 25.23
  Q 21.84 25.05 32.75 25.54
  Z"
/>
<path fill="#8d9d90" fill-opacity="0.980" d="
  M 67.19 25.74
  Q 66.24 26.13 66.00 26.04
  Q 52.86 25.43 39.74 26.72
  Q 39.57 25.25 41.25 25.25
  Q 53.25 25.25 65.25 25.25
  Q 66.38 25.25 67.19 25.74
  Z"
/>
<path fill="#8d9d90" fill-opacity="0.980" d="
  M 100.70 25.99
  L 98.75 26.04
  L 75.50 25.96
  L 74.50 25.54
  Q 87.03 24.89 99.56 25.54
  Q 99.95 25.56 100.70 25.99
  Z"
/>
<path fill="#aeb6af" fill-opacity="0.992" d="
  M 106.77 74.58
  L 108.50 74.04
  L 132.10 74.01
  A 1.09 1.08 0.0 0 0 133.19 72.93
  L 133.00 27.12
  A 1.11 1.10 88.5 0 0 131.85 26.02
  Q 119.77 26.53 107.29 26.00
  L 107.25 25.54
  L 131.97 25.29
  Q 133.93 25.27 133.94 27.29
  Q 134.05 48.27 134.00 70.19
  Q 134.00 70.28 134.10 71.80
  Q 134.32 75.01 130.75 74.75
  Q 126.87 74.47 106.77 74.58
  Z"
/>
<path fill="#aeb6af" fill-opacity="0.992" d="
  M 32.75 25.54
  Q 34.00 25.61 34.00 27.25
  Q 34.00 50.00 34.00 73.01
  A 1.51 1.48 -0.2 0 1 32.50 74.49
  L 7.50 74.71
  Q 7.67 74.11 8.50 74.04
  L 32.05 74.00
  A 0.95 0.92 0.6 0 0 33.00 73.10
  Q 33.45 51.38 33.00 29.50
  Q 32.94 26.73 32.75 26.21
  L 32.75 25.54
  Z"
/>
<path fill="#aeb6af" fill-opacity="0.992" d="
  M 74.50 25.54
  L 75.50 25.96
  Q 73.71 25.81 73.88 27.39
  Q 74.01 28.57 74.01 28.62
  Q 74.26 50.90 74.07 73.18
  A 0.52 0.50 -88.9 0 0 74.56 73.71
  L 99.16 73.82
  A 0.58 0.55 -87.9 0 0 99.72 73.27
  Q 100.75 49.91 99.76 27.32
  Q 99.76 27.21 99.85 26.70
  Q 99.98 26.00 98.75 26.04
  L 100.70 25.99
  L 100.75 72.77
  Q 100.75 74.70 98.78 74.68
  L 74.58 74.51
  A 1.59 1.56 0.2 0 1 73.00 72.95
  Q 73.00 49.63 73.00 26.75
  Q 73.00 25.40 74.50 25.54
  Z"
/>
<path fill="#8d9d90" fill-opacity="0.980" d="
  M 107.25 25.54
  L 107.29 26.00
  Q 106.67 54.34 107.06 73.19
  Q 107.09 74.38 108.50 74.04
  L 106.77 74.58
  Q 106.02 51.98 106.42 29.41
  Q 106.42 29.37 106.21 27.74
  Q 106.04 26.43 107.25 25.54
  Z"
/>
<path fill="#212727" d="
  M 66.00 26.04
  Q 66.33 26.21 66.56 26.47
  Q 66.75 26.70 66.75 27.09
  Q 66.89 50.01 66.56 72.94
  Q 66.55 73.71 66.00 73.96
  L 39.76 73.49
  L 39.74 26.72
  Q 52.86 25.43 66.00 26.04
  Z
  M 64.9972 27.8302
  A 0.27 0.27 0.0 0 0 64.7286 27.5588
  L 42.2889 27.4413
  A 0.27 0.27 0.0 0 0 42.0175 27.7099
  L 42.0028 30.5098
  A 0.27 0.27 0.0 0 0 42.2714 30.7812
  L 64.7111 30.8987
  A 0.27 0.27 0.0 0 0 64.9825 30.6301
  L 64.9972 27.8302
  Z
  M 65.1729 32.9804
  A 0.44 0.44 0.0 0 0 64.7345 32.5389
  L 42.4546 32.4611
  A 0.44 0.44 0.0 0 0 42.0131 32.8996
  L 41.9871 40.3596
  A 0.44 0.44 0.0 0 0 42.4255 40.8011
  L 64.7054 40.8789
  A 0.44 0.44 0.0 0 0 65.1469 40.4404
  L 65.1729 32.9804
  Z
  M 65.0285 42.7198
  A 0.26 0.26 0.0 0 0 64.7676 42.4607
  L 42.2077 42.5395
  A 0.26 0.26 0.0 0 0 41.9486 42.8004
  L 42.0515 72.2802
  A 0.26 0.26 0.0 0 0 42.3124 72.5393
  L 64.8723 72.4605
  A 0.26 0.26 0.0 0 0 65.1314 72.1996
  L 65.0285 42.7198
  Z"
/>
<path fill="#586a58" fill-opacity="0.996" d="
  M 67.19 25.74
  Q 67.30 49.63 67.19 73.50
  Q 67.19 74.45 66.25 74.46
  Q 66.73 73.92 66.00 73.96
  Q 66.55 73.71 66.56 72.94
  Q 66.89 50.01 66.75 27.09
  Q 66.75 26.70 66.56 26.47
  Q 66.33 26.21 66.00 26.04
  Q 66.24 26.13 67.19 25.74
  Z"
/>
<path fill="#212727" d="
  M 32.75 26.21
  Q 32.94 26.73 33.00 29.50
  Q 33.45 51.38 33.00 73.10
  A 0.95 0.92 0.6 0 1 32.05 74.00
  L 8.50 74.04
  Q 7.00 73.97 7.00 72.00
  Q 7.00 49.75 7.00 27.38
  A 1.41 1.41 -86.9 0 1 8.56 25.98
  Q 11.99 26.35 15.25 26.17
  Q 24.00 25.67 32.75 26.21
  Z
  M 31.73 27.77
  A 0.27 0.27 0.0 0 0 31.46 27.50
  L 8.80 27.50
  A 0.27 0.27 0.0 0 0 8.53 27.77
  L 8.53 30.49
  A 0.27 0.27 0.0 0 0 8.80 30.76
  L 31.46 30.76
  A 0.27 0.27 0.0 0 0 31.73 30.49
  L 31.73 27.77
  Z
  M 31.7332 32.7397
  A 0.27 0.27 0.0 0 0 31.4628 32.4702
  L 8.7628 32.5098
  A 0.27 0.27 0.0 0 0 8.4933 32.7803
  L 8.5068 40.5203
  A 0.27 0.27 0.0 0 0 8.7772 40.7898
  L 31.4772 40.7502
  A 0.27 0.27 0.0 0 0 31.7467 40.4797
  L 31.7332 32.7397
  Z
  M 31.74 42.77
  A 0.27 0.27 0.0 0 0 31.47 42.50
  L 8.77 42.50
  A 0.27 0.27 0.0 0 0 8.50 42.77
  L 8.50 72.25
  A 0.27 0.27 0.0 0 0 8.77 72.52
  L 31.47 72.52
  A 0.27 0.27 0.0 0 0 31.74 72.25
  L 31.74 42.77
  Z"
/>
<path fill="#181f1f" d="
  M 75.50 25.96
  L 98.75 26.04
  Q 99.98 26.00 99.85 26.70
  Q 99.76 27.21 99.76 27.32
  Q 100.75 49.91 99.72 73.27
  A 0.58 0.55 -87.9 0 1 99.16 73.82
  L 74.56 73.71
  A 0.52 0.50 -88.9 0 1 74.07 73.18
  Q 74.26 50.90 74.01 28.62
  Q 74.01 28.57 73.88 27.39
  Q 73.71 25.81 75.50 25.96
  Z
  M 98.5048 27.7905
  A 0.26 0.26 0.0 0 0 98.2457 27.5296
  L 75.5459 27.4504
  A 0.26 0.26 0.0 0 0 75.2850 27.7095
  L 75.2752 30.5095
  A 0.26 0.26 0.0 0 0 75.5343 30.7704
  L 98.2341 30.8496
  A 0.26 0.26 0.0 0 0 98.4950 30.5905
  L 98.5048 27.7905
  Z
  M 98.49 32.77
  A 0.27 0.27 0.0 0 0 98.22 32.50
  L 75.50 32.50
  A 0.27 0.27 0.0 0 0 75.23 32.77
  L 75.23 40.55
  A 0.27 0.27 0.0 0 0 75.50 40.82
  L 98.22 40.82
  A 0.27 0.27 0.0 0 0 98.49 40.55
  L 98.49 32.77
  Z
  M 98.51 42.76
  A 0.27 0.27 0.0 0 0 98.24 42.49
  L 75.52 42.49
  A 0.27 0.27 0.0 0 0 75.25 42.76
  L 75.25 72.24
  A 0.27 0.27 0.0 0 0 75.52 72.51
  L 98.24 72.51
  A 0.27 0.27 0.0 0 0 98.51 72.24
  L 98.51 42.76
  Z"
/>
<path fill="#212727" d="
  M 107.29 26.00
  Q 119.77 26.53 131.85 26.02
  A 1.11 1.10 88.5 0 1 133.00 27.12
  L 133.19 72.93
  A 1.09 1.08 0.0 0 1 132.10 74.01
  L 108.50 74.04
  Q 107.09 74.38 107.06 73.19
  Q 106.67 54.34 107.29 26.00
  Z
  M 131.7499 27.8012
  A 0.27 0.27 0.0 0 0 131.4818 27.5293
  L 108.7824 27.3708
  A 0.27 0.27 0.0 0 0 108.5105 27.6389
  L 108.4901 30.5588
  A 0.27 0.27 0.0 0 0 108.7582 30.8307
  L 131.4576 30.9892
  A 0.27 0.27 0.0 0 0 131.7295 30.7211
  L 131.7499 27.8012
  Z
  M 131.7332 32.7097
  A 0.26 0.26 0.0 0 0 131.4727 32.4502
  L 108.7528 32.4898
  A 0.26 0.26 0.0 0 0 108.4932 32.7503
  L 108.5068 40.5303
  A 0.26 0.26 0.0 0 0 108.7673 40.7898
  L 131.4872 40.7502
  A 0.26 0.26 0.0 0 0 131.7468 40.4897
  L 131.7332 32.7097
  Z
  M 131.74 42.79
  A 0.30 0.30 0.0 0 0 131.44 42.49
  L 108.80 42.49
  A 0.30 0.30 0.0 0 0 108.50 42.79
  L 108.50 72.19
  A 0.30 0.30 0.0 0 0 108.80 72.49
  L 131.44 72.49
  A 0.30 0.30 0.0 0 0 131.74 72.19
  L 131.74 42.79
  Z"
/>
<rect fill="#ffffff" x="8.53" y="27.50" width="23.20" height="3.26" rx="0.27"/>
<rect fill="#ffffff" x="-11.61" y="-1.66" transform="translate(86.89,29.15) rotate(0.2)" width="23.22" height="3.32" rx="0.26"/>
<rect fill="#ffffff" x="-11.62" y="-1.73" transform="translate(120.12,29.18) rotate(0.4)" width="23.24" height="3.46" rx="0.27"/>
<rect fill="#ffffff" x="-11.49" y="-1.67" transform="translate(53.50,29.17) rotate(0.3)" width="22.98" height="3.34" rx="0.27"/>
<path fill="#ffffff" d="
  M 31.7467 40.4797
  A 0.27 0.27 0.0 0 1 31.4772 40.7502
  L 8.7772 40.7898
  A 0.27 0.27 0.0 0 1 8.5068 40.5203
  L 8.4933 32.7803
  A 0.27 0.27 0.0 0 1 8.7628 32.5098
  L 31.4628 32.4702
  A 0.27 0.27 0.0 0 1 31.7332 32.7397
  L 31.7467 40.4797
  Z
  M 20.25 35.28
  Q 19.77 34.09 18.34 35.36
  A 0.95 0.95 -35.7 0 1 16.88 35.12
  Q 16.18 33.84 15.23 35.03
  A 1.36 0.70 -61.4 0 1 14.46 35.55
  Q 13.72 35.63 13.21 34.99
  A 0.65 0.53 55.6 0 0 12.48 34.77
  Q 11.37 35.36 10.78 36.48
  A 0.54 0.41 -67.1 0 0 10.97 37.21
  Q 11.32 37.30 11.63 36.86
  Q 12.83 35.08 13.77 36.86
  A 0.55 0.55 50.5 0 0 14.68 36.95
  Q 16.07 35.21 17.28 36.77
  A 0.42 0.41 49.0 0 0 17.90 36.82
  Q 19.31 35.48 20.72 36.82
  A 0.43 0.43 41.1 0 0 21.35 36.78
  Q 22.50 35.36 23.90 36.65
  A 0.58 0.56 -43.2 0 0 24.63 36.66
  Q 26.15 35.45 27.38 36.80
  A 0.62 0.52 50.9 0 0 28.11 36.94
  Q 29.18 36.23 29.39 35.06
  Q 29.48 34.56 29.09 34.93
  Q 27.69 36.28 26.50 34.96
  A 0.62 0.56 53.1 0 0 25.76 34.82
  L 24.67 35.49
  A 0.61 0.55 52.4 0 1 23.94 35.36
  Q 22.83 34.19 21.61 35.52
  A 0.82 0.81 -34.8 0 1 20.25 35.28
  Z"
/>
<path fill="#ffffff" d="
  M 98.49 40.55
  A 0.27 0.27 0.0 0 1 98.22 40.82
  L 75.50 40.82
  A 0.27 0.27 0.0 0 1 75.23 40.55
  L 75.23 32.77
  A 0.27 0.27 0.0 0 1 75.50 32.50
  L 98.22 32.50
  A 0.27 0.27 0.0 0 1 98.49 32.77
  L 98.49 40.55
  Z
  M 95.52 36.13
  Q 96.35 35.71 96.06 34.99
  Q 95.88 34.53 95.54 34.99
  Q 94.59 36.29 93.48 35.11
  A 1.01 1.01 42.8 0 0 91.95 35.17
  Q 91.00 36.37 89.98 35.09
  A 0.89 0.89 43.8 0 0 88.56 35.12
  Q 87.65 36.36 86.72 35.22
  A 1.13 0.61 59.5 0 0 85.94 34.75
  Q 85.40 34.78 85.05 35.33
  A 0.79 0.78 -49.5 0 1 83.80 35.43
  Q 82.68 34.15 81.73 35.28
  A 1.03 0.66 -59.4 0 1 80.95 35.67
  Q 80.40 35.57 80.03 35.17
  A 0.96 0.68 59.3 0 0 79.25 34.82
  Q 77.70 35.09 77.44 36.19
  Q 77.03 37.86 79.14 36.10
  A 0.57 0.57 -33.9 0 1 80.01 36.27
  Q 81.05 38.21 81.81 36.49
  A 0.94 0.94 35.7 0 1 83.37 36.24
  Q 84.70 37.71 85.49 36.28
  Q 86.10 35.20 86.72 36.28
  Q 87.60 37.79 88.49 36.72
  Q 89.65 35.33 90.45 36.74
  A 0.42 0.41 57.6 0 0 91.05 36.88
  Q 93.00 35.53 93.98 36.75
  A 0.67 0.40 57.1 0 0 94.56 37.04
  Q 94.77 36.97 94.89 36.78
  Q 95.23 36.28 95.52 36.13
  Z"
/>
<path fill="#ffffff" d="
  M 131.7468 40.4897
  A 0.26 0.26 0.0 0 1 131.4872 40.7502
  L 108.7673 40.7898
  A 0.26 0.26 0.0 0 1 108.5068 40.5303
  L 108.4932 32.7503
  A 0.26 0.26 0.0 0 1 108.7528 32.4898
  L 131.4727 32.4502
  A 0.26 0.26 0.0 0 1 131.7332 32.7097
  L 131.7468 40.4897
  Z
  M 124.56 36.68
  L 125.71 35.97
  A 0.66 0.49 56.3 0 1 126.45 36.23
  Q 127.62 37.89 128.92 35.97
  Q 130.40 33.80 128.45 35.20
  Q 127.39 35.97 126.36 35.10
  A 0.56 0.56 0.0 0 0 125.64 35.10
  Q 124.43 36.14 123.33 35.11
  A 0.72 0.69 54.0 0 0 122.56 34.97
  L 121.21 35.57
  A 0.76 0.63 54.5 0 1 120.43 35.36
  Q 119.29 34.14 118.07 35.38
  A 0.66 0.59 34.1 0 1 117.34 35.48
  L 116.23 34.92
  A 0.77 0.60 -53.0 0 0 115.42 35.14
  Q 114.20 36.43 113.35 35.24
  A 0.69 0.68 -35.1 0 0 112.40 35.08
  Q 110.44 36.46 110.76 36.96
  A 0.55 0.34 -44.8 0 0 111.47 36.79
  Q 111.97 36.21 112.69 36.09
  A 1.04 0.72 59.0 0 1 113.50 36.46
  Q 114.61 37.71 115.47 36.30
  A 0.71 0.71 44.9 0 1 116.68 36.30
  Q 117.51 37.62 118.23 36.80
  Q 118.87 36.08 119.08 36.03
  Q 119.73 35.88 120.31 36.75
  Q 121.00 37.79 121.49 36.64
  Q 122.14 35.14 123.76 36.63
  A 0.70 0.63 -38.4 0 0 124.56 36.68
  Z"
/>
<path fill="#ffffff" d="
  M 65.1469 40.4404
  A 0.44 0.44 0.0 0 1 64.7054 40.8789
  L 42.4255 40.8011
  A 0.44 0.44 0.0 0 1 41.9871 40.3596
  L 42.0131 32.8996
  A 0.44 0.44 0.0 0 1 42.4546 32.4611
  L 64.7345 32.5389
  A 0.44 0.44 0.0 0 1 65.1729 32.9804
  L 65.1469 40.4404
  Z
  M 48.59 36.49
  A 0.85 0.84 -49.7 0 1 50.01 36.37
  Q 51.13 37.85 51.86 36.52
  A 1.03 0.68 -71.8 0 1 52.56 35.97
  Q 53.26 35.94 53.69 36.57
  A 0.80 0.80 -46.2 0 0 55.03 36.54
  Q 55.95 35.08 57.17 36.84
  A 0.57 0.57 0.0 0 0 58.11 36.84
  Q 59.52 34.84 60.73 37.04
  A 0.51 0.51 49.3 0 0 61.60 37.07
  Q 62.80 35.19 62.78 34.79
  Q 62.78 34.61 61.74 35.52
  Q 60.91 36.25 59.79 34.85
  A 0.57 0.57 -48.5 0 0 58.85 34.91
  Q 57.90 36.49 56.58 35.13
  A 0.76 0.59 52.4 0 0 55.78 34.92
  L 54.67 35.47
  A 0.63 0.58 -34.1 0 1 53.94 35.36
  Q 52.84 34.18 51.68 35.44
  A 0.83 0.83 -43.5 0 1 50.42 35.41
  Q 49.31 34.02 48.07 35.36
  A 0.54 0.51 -50.0 0 1 47.37 35.44
  Q 45.19 33.84 44.00 36.47
  Q 43.68 37.20 44.28 37.05
  Q 44.74 36.93 45.30 35.98
  A 0.67 0.66 41.1 0 1 46.40 35.91
  Q 47.89 37.83 48.59 36.49
  Z"
/>
<path fill="#212727" d="
  M 20.25 35.28
  A 0.82 0.81 -34.8 0 0 21.61 35.52
  Q 22.83 34.19 23.94 35.36
  A 0.61 0.55 52.4 0 0 24.67 35.49
  L 25.76 34.82
  A 0.62 0.56 53.1 0 1 26.50 34.96
  Q 27.69 36.28 29.09 34.93
  Q 29.48 34.56 29.39 35.06
  Q 29.18 36.23 28.11 36.94
  A 0.62 0.52 50.9 0 1 27.38 36.80
  Q 26.15 35.45 24.63 36.66
  A 0.58 0.56 -43.2 0 1 23.90 36.65
  Q 22.50 35.36 21.35 36.78
  A 0.43 0.43 41.1 0 1 20.72 36.82
  Q 19.31 35.48 17.90 36.82
  A 0.42 0.41 49.0 0 1 17.28 36.77
  Q 16.07 35.21 14.68 36.95
  A 0.55 0.55 50.5 0 1 13.77 36.86
  Q 12.83 35.08 11.63 36.86
  Q 11.32 37.30 10.97 37.21
  A 0.54 0.41 -67.1 0 1 10.78 36.48
  Q 11.37 35.36 12.48 34.77
  A 0.65 0.53 55.6 0 1 13.21 34.99
  Q 13.72 35.63 14.46 35.55
  A 1.36 0.70 -61.4 0 0 15.23 35.03
  Q 16.18 33.84 16.88 35.12
  A 0.95 0.95 -35.7 0 0 18.34 35.36
  Q 19.77 34.09 20.25 35.28
  Z"
/>
<path fill="#181f1f" d="
  M 48.59 36.49
  Q 47.89 37.83 46.40 35.91
  A 0.67 0.66 41.1 0 0 45.30 35.98
  Q 44.74 36.93 44.28 37.05
  Q 43.68 37.20 44.00 36.47
  Q 45.19 33.84 47.37 35.44
  A 0.54 0.51 -50.0 0 0 48.07 35.36
  Q 49.31 34.02 50.42 35.41
  A 0.83 0.83 -43.5 0 0 51.68 35.44
  Q 52.84 34.18 53.94 35.36
  A 0.63 0.58 -34.1 0 0 54.67 35.47
  L 55.78 34.92
  A 0.76 0.59 52.4 0 1 56.58 35.13
  Q 57.90 36.49 58.85 34.91
  A 0.57 0.57 -48.5 0 1 59.79 34.85
  Q 60.91 36.25 61.74 35.52
  Q 62.78 34.61 62.78 34.79
  Q 62.80 35.19 61.60 37.07
  A 0.51 0.51 40.3 0 1 60.73 37.04
  Q 59.52 34.84 58.11 36.84
  A 0.57 0.57 -0.0 0 1 57.17 36.84
  Q 55.95 35.08 55.03 36.54
  A 0.80 0.80 -46.2 0 1 53.69 36.57
  Q 53.26 35.94 52.56 35.97
  A 1.03 0.68 -71.8 0 0 51.86 36.52
  Q 51.13 37.85 50.01 36.37
  A 0.85 0.84 -49.7 0 0 48.59 36.49
  Z"
/>
<path fill="#181f1f" d="
  M 94.89 36.78
  Q 94.77 36.97 94.56 37.04
  A 0.67 0.40 57.1 0 1 93.98 36.75
  Q 93.00 35.53 91.05 36.88
  A 0.42 0.41 57.6 0 1 90.45 36.74
  Q 89.65 35.33 88.49 36.72
  Q 87.60 37.79 86.72 36.28
  Q 86.10 35.20 85.49 36.28
  Q 84.70 37.71 83.37 36.24
  A 0.94 0.94 35.7 0 0 81.81 36.49
  Q 81.05 38.21 80.01 36.27
  A 0.57 0.57 -33.9 0 0 79.14 36.10
  Q 77.03 37.86 77.44 36.19
  Q 77.70 35.09 79.25 34.82
  A 0.96 0.68 59.3 0 1 80.03 35.17
  Q 80.40 35.57 80.95 35.67
  A 1.03 0.66 -59.4 0 0 81.73 35.28
  Q 82.68 34.15 83.80 35.43
  A 0.79 0.78 -49.5 0 0 85.05 35.33
  Q 85.40 34.78 85.94 34.75
  A 1.13 0.61 59.5 0 1 86.72 35.22
  Q 87.65 36.36 88.56 35.12
  A 0.89 0.89 43.8 0 1 89.98 35.09
  Q 91.00 36.37 91.95 35.17
  A 1.01 1.01 42.8 0 1 93.48 35.11
  Q 94.59 36.29 95.54 34.99
  Q 95.88 34.53 96.06 34.99
  Q 96.35 35.71 95.52 36.13
  Q 95.23 36.28 94.89 36.78
  Z"
/>
<path fill="#181f1f" d="
  M 124.56 36.68
  A 0.70 0.63 -38.4 0 1 123.76 36.63
  Q 122.14 35.14 121.49 36.64
  Q 121.00 37.79 120.31 36.75
  Q 119.73 35.88 119.08 36.03
  Q 118.87 36.08 118.23 36.80
  Q 117.51 37.62 116.68 36.30
  A 0.71 0.71 44.9 0 0 115.47 36.30
  Q 114.61 37.71 113.50 36.46
  A 1.04 0.72 59.0 0 0 112.69 36.09
  Q 111.97 36.21 111.47 36.79
  A 0.55 0.34 -44.8 0 1 110.76 36.96
  Q 110.44 36.46 112.40 35.08
  A 0.69 0.68 -35.1 0 1 113.35 35.24
  Q 114.20 36.43 115.42 35.14
  A 0.77 0.60 -53.0 0 1 116.23 34.92
  L 117.34 35.48
  A 0.66 0.59 34.1 0 0 118.07 35.38
  Q 119.29 34.14 120.43 35.36
  A 0.76 0.63 54.5 0 0 121.21 35.57
  L 122.56 34.97
  A 0.72 0.69 54.0 0 1 123.33 35.11
  Q 124.43 36.14 125.64 35.10
  A 0.56 0.56 -0.0 0 1 126.36 35.10
  Q 127.39 35.97 128.45 35.20
  Q 130.40 33.80 128.92 35.97
  Q 127.62 37.89 126.45 36.23
  A 0.66 0.49 56.3 0 0 125.71 35.97
  L 124.56 36.68
  Z"
/>
<path fill="#ffffff" d="
  M 65.1314 72.1996
  A 0.26 0.26 0.0 0 1 64.8723 72.4605
  L 42.3124 72.5393
  A 0.26 0.26 0.0 0 1 42.0515 72.2802
  L 41.9486 42.8004
  A 0.26 0.26 0.0 0 1 42.2077 42.5395
  L 64.7676 42.4607
  A 0.26 0.26 0.0 0 1 65.0285 42.7198
  L 65.1314 72.1996
  Z
  M 61.11 55.45
  Q 61.13 54.63 60.73 53.97
  A 0.97 0.85 -13.4 0 0 59.93 53.55
  L 51.99 53.50
  A 1.00 0.92 71.6 0 1 51.23 53.08
  Q 49.39 50.44 45.66 51.79
  A 1.33 1.26 -10.7 0 0 44.78 53.01
  L 44.91 63.81
  A 0.53 0.52 0.0 0 0 45.44 64.33
  L 59.85 64.48
  A 1.39 1.25 -81.4 0 0 61.10 63.45
  L 62.78 57.04
  A 0.55 0.51 -73.4 0 0 62.46 56.38
  L 61.54 56.07
  A 0.64 0.64 -80.1 0 1 61.11 55.45
  Z"
/>
<path fill="#ffffff" d="
  M 98.51 72.24
  A 0.27 0.27 0.0 0 1 98.24 72.51
  L 75.52 72.51
  A 0.27 0.27 0.0 0 1 75.25 72.24
  L 75.25 42.76
  A 0.27 0.27 0.0 0 1 75.52 42.49
  L 98.24 42.49
  A 0.27 0.27 0.0 0 1 98.51 42.76
  L 98.51 72.24
  Z
  M 83.52 50.80
  Q 82.79 49.76 81.76 48.24
  A 0.51 0.51 -45.6 0 0 80.91 48.25
  Q 80.02 49.63 79.80 51.00
  A 1.48 1.35 -59.1 0 0 79.99 51.94
  L 84.76 59.58
  A 0.57 0.55 72.8 0 1 84.32 60.45
  Q 80.45 60.59 79.69 62.98
  Q 79.17 64.61 80.14 65.90
  Q 81.18 67.27 83.44 66.94
  Q 85.37 66.65 85.25 63.00
  Q 85.14 59.63 87.52 61.04
  A 1.28 1.18 10.1 0 1 88.09 61.79
  L 88.95 65.23
  Q 89.47 67.31 91.42 66.94
  Q 94.90 66.28 94.01 63.48
  Q 93.51 61.91 93.19 61.37
  Q 92.48 60.20 90.75 60.50
  Q 87.92 60.99 89.19 58.94
  L 93.52 51.94
  A 1.27 0.99 -41.8 0 0 93.69 51.01
  L 92.86 48.17
  Q 92.63 47.39 92.18 48.08
  L 87.43 55.20
  Q 86.40 56.75 85.77 55.06
  Q 84.94 52.84 83.52 50.80
  Z"
/>
<path fill="#ffffff" d="
  M 131.74 72.19
  A 0.30 0.30 0.0 0 1 131.44 72.49
  L 108.80 72.49
  A 0.30 0.30 0.0 0 1 108.50 72.19
  L 108.50 42.79
  A 0.30 0.30 0.0 0 1 108.80 42.49
  L 131.44 42.49
  A 0.30 0.30 0.0 0 1 131.74 42.79
  L 131.74 72.19
  Z
  M 111.54 62.50
  Q 111.42 64.46 113.61 63.98
  A 0.82 0.82 0.9 0 1 114.58 64.98
  Q 114.24 66.34 115.50 66.46
  Q 119.75 67.15 124.00 66.46
  Q 125.87 66.91 125.83 65.38
  Q 125.81 64.44 126.04 64.19
  Q 126.51 63.70 127.51 64.00
  A 0.99 0.98 -78.5 0 0 128.78 63.15
  Q 129.15 59.51 129.00 55.50
  Q 128.95 54.23 127.50 54.54
  Q 125.40 54.72 126.24 51.59
  A 1.61 1.61 -77.1 0 0 124.98 49.58
  Q 120.34 48.71 115.18 49.60
  A 0.69 0.67 89.5 0 0 114.62 50.18
  Q 114.53 50.80 114.44 51.43
  Q 114.42 51.53 114.46 53.19
  Q 114.49 54.75 112.31 54.41
  A 0.56 0.52 10.9 0 0 111.69 54.80
  Q 110.82 58.60 111.54 62.50
  Z"
/>
<path fill="#ffffff" d="
  M 31.74 72.25
  A 0.27 0.27 0.0 0 1 31.47 72.52
  L 8.77 72.52
  A 0.27 0.27 0.0 0 1 8.50 72.25
  L 8.50 42.77
  A 0.27 0.27 0.0 0 1 8.77 42.50
  L 31.47 42.50
  A 0.27 0.27 0.0 0 1 31.74 42.77
  L 31.74 72.25
  Z
  M 28.06 65.08
  Q 28.36 60.40 28.27 55.72
  Q 28.27 55.63 28.37 53.79
  Q 28.47 51.85 27.33 50.62
  Q 26.29 49.50 23.81 49.44
  Q 18.17 49.29 12.78 49.66
  A 0.84 0.83 -2.2 0 0 12.00 50.49
  L 12.06 64.54
  A 0.86 0.82 90.0 0 0 12.88 65.40
  L 27.63 65.51
  A 0.46 0.43 -87.9 0 0 28.06 65.08
  Z"
/>
<path fill="#b61c1e" d="
  M 83.52 50.80
  Q 84.94 52.84 85.77 55.06
  Q 86.40 56.75 87.43 55.20
  L 92.18 48.08
  Q 92.63 47.39 92.86 48.17
  L 93.69 51.01
  A 1.27 0.99 -41.8 0 1 93.52 51.94
  L 89.19 58.94
  Q 87.92 60.99 90.75 60.50
  Q 92.48 60.20 93.19 61.37
  Q 93.51 61.91 94.01 63.48
  Q 94.90 66.28 91.42 66.94
  Q 89.47 67.31 88.95 65.23
  L 88.09 61.79
  A 1.28 1.18 10.1 0 0 87.52 61.04
  Q 85.14 59.63 85.25 63.00
  Q 85.37 66.65 83.44 66.94
  Q 81.18 67.27 80.14 65.90
  Q 79.17 64.61 79.69 62.98
  Q 80.45 60.59 84.32 60.45
  A 0.57 0.55 72.8 0 0 84.76 59.58
  L 79.99 51.94
  A 1.48 1.35 -59.1 0 1 79.80 51.00
  Q 80.02 49.63 80.91 48.25
  A 0.51 0.51 -45.6 0 1 81.76 48.24
  Q 82.79 49.76 83.52 50.80
  Z
  M 84.72 57.72
  Q 85.51 58.99 86.96 59.53
  Q 87.52 59.74 87.22 59.24
  L 81.98 50.71
  A 0.75 0.58 62.4 0 0 81.19 50.35
  Q 80.71 50.53 81.06 51.44
  Q 81.93 53.68 83.37 55.57
  Q 83.46 55.69 84.72 57.72
  Z
  M 92.8106 51.3113
  A 0.68 0.68 0.0 0 0 92.5894 50.3754
  L 92.4873 50.3124
  A 0.68 0.68 0.0 0 0 91.5514 50.5336
  L 87.5894 56.9487
  A 0.68 0.68 0.0 0 0 87.8106 57.8846
  L 87.9127 57.9476
  A 0.68 0.68 0.0 0 0 88.8486 57.7264
  L 92.8106 51.3113
  Z
  M 84.0985 63.0974
  A 1.06 1.06 0.0 0 0 83.3947 61.7738
  L 82.4766 61.4932
  A 1.06 1.06 0.0 0 0 81.1531 62.1969
  L 80.5215 64.2626
  A 1.06 1.06 0.0 0 0 81.2253 65.5862
  L 82.1434 65.8668
  A 1.06 1.06 0.0 0 0 83.4669 65.1631
  L 84.0985 63.0974
  Z
  M 92.5787 62.4811
  A 1.33 1.33 0.0 0 0 90.9802 61.4900
  L 90.4934 61.6042
  A 1.33 1.33 0.0 0 0 89.5022 63.2027
  L 89.8813 64.8189
  A 1.33 1.33 0.0 0 0 91.4798 65.8100
  L 91.9666 65.6958
  A 1.33 1.33 0.0 0 0 92.9578 64.0973
  L 92.5787 62.4811
  Z"
/>
<path fill="#b61c1e" d="
  M 28.06 65.08
  A 0.46 0.43 -87.9 0 1 27.63 65.51
  L 12.88 65.40
  A 0.86 0.82 90.0 0 1 12.06 64.54
  L 12.00 50.49
  A 0.84 0.83 -2.2 0 1 12.78 49.66
  Q 18.17 49.29 23.81 49.44
  Q 26.29 49.50 27.33 50.62
  Q 28.47 51.85 28.37 53.79
  Q 28.27 55.63 28.27 55.72
  Q 28.36 60.40 28.06 65.08
  Z
  M 14.90 64.43
  L 26.21 64.19
  Q 27.88 57.00 26.94 51.81
  Q 26.59 49.90 24.50 50.79
  L 21.50 50.79
  L 16.50 50.79
  L 16.25 50.79
  Q 14.99 50.21 13.76 50.62
  A 0.77 0.69 81.9 0 0 13.30 51.31
  Q 13.21 57.28 13.25 63.25
  Q 13.26 64.87 14.90 64.43
  Z"
/>
<path fill="#cb7a7c" d="
  M 127.50 54.54
  L 127.71 55.75
  Q 126.77 55.78 126.83 56.42
  Q 126.90 57.14 126.89 57.21
  Q 126.66 58.69 125.97 57.45
  A 1.18 0.78 -55.9 0 1 125.98 56.56
  Q 126.32 55.71 125.25 55.72
  Q 119.25 55.75 113.19 55.75
  A 0.53 0.47 -88.7 0 0 112.72 56.26
  L 112.46 62.25
  Q 112.05 62.58 111.54 62.50
  Q 110.82 58.60 111.69 54.80
  A 0.56 0.52 10.9 0 1 112.31 54.41
  Q 114.49 54.75 114.46 53.19
  Q 114.42 51.53 114.44 51.43
  Q 114.53 50.80 114.62 50.18
  A 0.69 0.67 89.5 0 1 115.18 49.60
  Q 120.34 48.71 124.98 49.58
  A 1.61 1.61 -77.1 0 1 126.24 51.59
  Q 125.40 54.72 127.50 54.54
  Z
  M 124.7523 51.1680
  A 0.41 0.41 0.0 0 0 124.3430 50.7572
  L 116.0431 50.7428
  A 0.41 0.41 0.0 0 0 115.6323 51.1520
  L 115.6277 53.8320
  A 0.41 0.41 0.0 0 0 116.0370 54.2428
  L 124.3369 54.2572
  A 0.41 0.41 0.0 0 0 124.7477 53.8480
  L 124.7523 51.1680
  Z"
/>
<path fill="#ffffff" d="
  M 83.37 55.57
  Q 81.93 53.68 81.06 51.44
  Q 80.71 50.53 81.19 50.35
  A 0.75 0.58 62.4 0 1 81.98 50.71
  L 87.22 59.24
  Q 87.52 59.74 86.96 59.53
  Q 85.51 58.99 84.72 57.72
  Q 83.46 55.69 83.37 55.57
  Z"
/>
<rect fill="#ffffff" x="-0.74" y="-4.45" transform="translate(90.20,54.13) rotate(31.7)" width="1.48" height="8.90" rx="0.68"/>
<path fill="#ffffff" d="
  M 16.25 50.79
  L 16.45 54.70
  A 0.63 0.60 -0.4 0 0 17.06 55.27
  L 23.34 55.43
  A 1.24 1.13 -89.3 0 0 24.50 54.19
  L 24.50 50.79
  Q 26.59 49.90 26.94 51.81
  Q 27.88 57.00 26.21 64.19
  L 25.29 58.05
  A 0.79 0.76 3.2 0 0 24.71 57.43
  Q 20.55 56.32 16.42 57.54
  A 0.88 0.69 -7.0 0 0 15.80 58.16
  L 14.90 64.43
  Q 13.26 64.87 13.25 63.25
  Q 13.21 57.28 13.30 51.31
  A 0.77 0.69 81.9 0 1 13.76 50.62
  Q 14.99 50.21 16.25 50.79
  Z"
/>
<path fill="#ffffff" d="
  M 21.50 50.79
  Q 20.98 52.10 21.12 53.44
  A 0.82 0.62 77.5 0 1 20.77 54.20
  Q 19.59 54.76 17.34 54.22
  A 0.83 0.83 11.2 0 1 16.71 53.28
  Q 16.92 51.84 16.50 50.79
  L 21.50 50.79
  Z"
/>
<path fill="#deadad" d="
  M 16.25 50.79
  L 16.50 50.79
  Q 16.92 51.84 16.71 53.28
  A 0.83 0.83 11.2 0 0 17.34 54.22
  Q 19.59 54.76 20.77 54.20
  A 0.82 0.62 77.5 0 0 21.12 53.44
  Q 20.98 52.10 21.50 50.79
  L 24.50 50.79
  L 24.50 54.19
  A 1.24 1.13 -89.3 0 1 23.34 55.43
  L 17.06 55.27
  A 0.63 0.60 -0.4 0 1 16.45 54.70
  L 16.25 50.79
  Z"
/>
<rect fill="#ffffff" x="-4.56" y="-1.75" transform="translate(120.19,52.50) rotate(0.1)" width="9.12" height="3.50" rx="0.41"/>
<path fill="#b61c1e" d="
  M 61.54 56.07
  L 62.46 56.38
  A 0.55 0.51 -73.4 0 1 62.78 57.04
  L 61.10 63.45
  A 1.39 1.25 -81.4 0 1 59.85 64.48
  L 45.44 64.33
  A 0.53 0.52 -0.0 0 1 44.91 63.81
  L 44.78 53.01
  A 1.33 1.26 -10.7 0 1 45.66 51.79
  Q 49.39 50.44 51.23 53.08
  A 1.00 0.92 71.6 0 0 51.99 53.50
  L 59.93 53.55
  A 0.97 0.85 -13.4 0 1 60.73 53.97
  Q 61.13 54.63 61.11 55.45
  A 0.64 0.64 -80.1 0 0 61.54 56.07
  Z
  M 46.29 58.00
  Q 46.59 58.65 47.21 59.00
  L 46.28 62.82
  A 0.43 0.42 7.1 0 0 46.69 63.34
  L 59.25 63.51
  A 0.70 0.68 8.8 0 0 59.93 63.03
  L 61.45 57.92
  A 0.43 0.40 10.3 0 0 61.06 57.40
  Q 54.40 56.91 47.75 57.54
  Q 47.37 57.45 47.00 57.54
  Q 46.58 56.78 47.11 56.33
  Q 47.42 56.07 48.10 56.05
  Q 53.55 55.95 59.00 56.00
  Q 60.04 56.01 59.84 55.04
  A 0.69 0.59 -4.6 0 0 59.19 54.57
  L 50.72 54.44
  A 0.84 0.83 -84.2 0 1 49.91 53.44
  Q 50.13 52.26 48.87 52.38
  Q 48.20 52.45 47.61 52.40
  Q 45.39 52.19 45.76 54.78
  Q 45.99 56.38 46.29 58.00
  Z"
/>
<path fill="#ffffff" d="
  M 47.00 57.54
  Q 46.97 58.22 46.29 58.00
  Q 45.99 56.38 45.76 54.78
  Q 45.39 52.19 47.61 52.40
  Q 48.20 52.45 48.87 52.38
  Q 50.13 52.26 49.91 53.44
  A 0.84 0.83 -84.2 0 0 50.72 54.44
  L 59.19 54.57
  A 0.69 0.59 -4.6 0 1 59.84 55.04
  Q 60.04 56.01 59.00 56.00
  Q 53.55 55.95 48.10 56.05
  Q 47.42 56.07 47.11 56.33
  Q 46.58 56.78 47.00 57.54
  Z"
/>
<path fill="#b61c1e" d="
  M 127.50 54.54
  Q 128.95 54.23 129.00 55.50
  Q 129.15 59.51 128.78 63.15
  A 0.99 0.98 -78.5 0 1 127.51 64.00
  Q 126.51 63.70 126.04 64.19
  Q 125.81 64.44 125.83 65.38
  Q 125.87 66.91 124.00 66.46
  Q 124.62 66.12 124.83 65.21
  Q 125.27 64.10 125.04 62.50
  L 125.96 62.50
  Q 127.91 63.78 127.88 61.25
  Q 127.85 58.50 127.71 55.75
  L 127.50 54.54
  Z"
/>
<path fill="#ffffff" d="
  M 127.71 55.75
  Q 127.85 58.50 127.88 61.25
  Q 127.91 63.78 125.96 62.50
  Q 125.99 60.96 125.25 59.71
  Q 120.34 58.19 115.42 59.55
  A 1.05 0.93 0.7 0 0 114.74 60.14
  Q 114.27 61.35 114.50 62.71
  Q 113.26 63.11 112.46 62.25
  L 112.72 56.26
  A 0.53 0.47 -88.7 0 1 113.19 55.75
  Q 119.25 55.75 125.25 55.72
  Q 126.32 55.71 125.98 56.56
  A 1.18 0.78 -55.9 0 0 125.97 57.45
  Q 126.66 58.69 126.89 57.21
  Q 126.90 57.14 126.83 56.42
  Q 126.77 55.78 127.71 55.75
  Z"
/>
<path fill="#eacaca" d="
  M 26.21 64.19
  L 14.90 64.43
  L 15.80 58.16
  A 0.88 0.69 -7.0 0 1 16.42 57.54
  Q 20.55 56.32 24.71 57.43
  A 0.79 0.76 3.2 0 1 25.29 58.05
  L 26.21 64.19
  Z"
/>
<path fill="#ffffff" d="
  M 47.21 59.00
  L 47.75 57.54
  Q 54.40 56.91 61.06 57.40
  A 0.43 0.40 10.3 0 1 61.45 57.92
  L 59.93 63.03
  A 0.70 0.68 8.8 0 1 59.25 63.51
  L 46.69 63.34
  A 0.43 0.42 7.1 0 1 46.28 62.82
  L 47.21 59.00
  Z"
/>
<path fill="#cb7a7c" d="
  M 47.00 57.54
  Q 47.37 57.45 47.75 57.54
  L 47.21 59.00
  Q 46.59 58.65 46.29 58.00
  Q 46.97 58.22 47.00 57.54
  Z"
/>
<path fill="#deadad" d="
  M 125.25 59.71
  Q 124.42 60.03 124.75 60.96
  Q 121.50 63.04 117.67 62.18
  A 1.26 1.10 77.0 0 1 116.93 61.64
  Q 115.39 59.24 115.21 63.00
  Q 114.90 62.75 114.50 62.71
  Q 114.27 61.35 114.74 60.14
  A 1.05 0.93 0.7 0 1 115.42 59.55
  Q 120.34 58.19 125.25 59.71
  Z"
/>
<path fill="#cb7a7c" d="
  M 125.25 59.71
  Q 125.99 60.96 125.96 62.50
  L 125.04 62.50
  Q 125.16 61.64 124.75 60.96
  Q 124.42 60.03 125.25 59.71
  Z"
/>
<path fill="#eacaca" d="
  M 124.75 60.96
  Q 125.16 61.64 125.04 62.50
  Q 125.27 64.10 124.83 65.21
  Q 120.29 62.32 115.50 64.79
  Q 115.09 63.96 115.21 63.00
  Q 115.39 59.24 116.93 61.64
  A 1.26 1.10 77.0 0 0 117.67 62.18
  Q 121.50 63.04 124.75 60.96
  Z"
/>
<rect fill="#ffffff" x="-1.54" y="-2.14" transform="translate(82.31,63.68) rotate(17.0)" width="3.08" height="4.28" rx="1.06"/>
<rect fill="#ffffff" x="-1.58" y="-2.16" transform="translate(91.23,63.65) rotate(-13.2)" width="3.16" height="4.32" rx="1.33"/>
<path fill="#b61c1e" d="
  M 112.46 62.25
  Q 113.26 63.11 114.50 62.71
  Q 114.90 62.75 115.21 63.00
  Q 115.09 63.96 115.50 64.79
  Q 115.79 65.66 115.50 66.46
  Q 114.24 66.34 114.58 64.98
  A 0.82 0.82 0.9 0 0 113.61 63.98
  Q 111.42 64.46 111.54 62.50
  Q 112.05 62.58 112.46 62.25
  Z"
/>
<path fill="#deadad" d="
  M 124.83 65.21
  Q 124.62 66.12 124.00 66.46
  Q 119.75 67.15 115.50 66.46
  Q 115.79 65.66 115.50 64.79
  Q 120.29 62.32 124.83 65.21
  Z"
/>
<path fill="#aeb6af" fill-opacity="0.992" d="
  M 39.76 73.49
  L 66.00 73.96
  Q 66.73 73.92 66.25 74.46
  Q 53.80 74.40 41.35 74.68
  Q 40.74 74.69 40.35 74.43
  Q 39.73 74.00 39.76 73.49
  Z"
/>
</svg>
