<?xml version="1.0" encoding="UTF-8" standalone="no"?>
<!DOCTYPE svg PUBLIC "-//W3C//DTD SVG 1.1//EN" "http://www.w3.org/Graphics/SVG/1.1/DTD/svg11.dtd">
<svg xmlns="http://www.w3.org/2000/svg" version="1.1" viewBox="0 0 140 100">
<g stroke-width="2.00" fill="none" stroke-linecap="butt">
<path stroke="#a1a69e" stroke-opacity="0.996" vector-effect="non-scaling-stroke" d="
  M 54.54 13.00
  Q 54.57 13.42 54.25 13.54"
/>
<path stroke="#6c6d6b" vector-effect="non-scaling-stroke" d="
  M 54.25 13.54
  L 6.00 13.04"
/>
<path stroke="#a1a69e" stroke-opacity="0.996" vector-effect="non-scaling-stroke" d="
  M 6.00 13.04
  Q 5.66 12.87 5.71 12.50"
/>
<path stroke="#525e5a" stroke-opacity="0.996" vector-effect="non-scaling-stroke" d="
  M 6.00 13.04
  L 6.29 26.25"
/>
<path stroke="#8d5b54" stroke-opacity="0.996" vector-effect="non-scaling-stroke" d="
  M 6.29 26.25
  L 6.29 38.00"
/>
<path stroke="#525e5a" stroke-opacity="0.996" vector-effect="non-scaling-stroke" d="
  M 6.29 38.00
  Q 5.79 39.60 6.29 41.25"
/>
<path stroke="#8d5b54" stroke-opacity="0.996" vector-effect="non-scaling-stroke" d="
  M 6.29 41.25
  L 6.29 46.00"
/>
<path stroke="#525e5a" stroke-opacity="0.996" vector-effect="non-scaling-stroke" d="
  M 6.29 46.00
  L 6.29 49.50"
/>
<path stroke="#8d5b54" stroke-opacity="0.996" vector-effect="non-scaling-stroke" d="
  M 6.29 49.50
  Q 5.75 51.64 6.29 53.75"
/>
<path stroke="#4a534d" stroke-opacity="0.996" vector-effect="non-scaling-stroke" d="
  M 6.29 53.75
  Q 5.87 70.36 6.50 86.96"
/>
<path stroke="#8d5b54" stroke-opacity="0.996" vector-effect="non-scaling-stroke" d="
  M 54.29 45.00
  L 53.98 27.24"
/>
<path stroke="#525e5a" stroke-opacity="0.996" vector-effect="non-scaling-stroke" d="
  M 54.25 13.54
  Q 53.21 20.36 53.98 27.24"
/>
<path stroke="#592322" vector-effect="non-scaling-stroke" d="
  M 53.98 27.24
  L 52.50 27.54"
/>
<path stroke="#8f9393" vector-effect="non-scaling-stroke" d="
  M 52.50 27.54
  L 52.04 27.25"
/>
<path stroke="#592322" vector-effect="non-scaling-stroke" d="
  M 52.04 27.25
  Q 52.00 26.63 52.25 26.04"
/>
<path stroke="#8f9393" vector-effect="non-scaling-stroke" d="
  M 52.25 26.04
  L 52.57 14.94
  A 0.50 0.49 1.1 0 0 52.07 14.43
  L 8.06 14.25
  A 0.57 0.56 90.0 0 0 7.50 14.82
  L 7.50 25.71"
/>
<path stroke="#592322" vector-effect="non-scaling-stroke" d="
  M 7.50 25.71
  L 6.29 26.25"
/>
<path stroke="#592322" vector-effect="non-scaling-stroke" d="
  M 7.46 40.25
  Q 7.02 41.11 6.29 41.25"
/>
<path stroke="#592322" vector-effect="non-scaling-stroke" d="
  M 7.46 48.25
  L 6.29 49.50"
/>
<path stroke="#c98f8e" vector-effect="non-scaling-stroke" d="
  M 52.04 27.25
  L 8.01 27.50
  A 0.51 0.50 0.0 0 0 7.50 28.00
  L 7.46 37.50"
/>
<path stroke="#592322" vector-effect="non-scaling-stroke" d="
  M 7.46 37.50
  Q 6.90 37.95 6.29 38.00"
/>
<path stroke="#501815" vector-effect="non-scaling-stroke" d="
  M 7.21 53.25
  Q 6.96 53.87 6.29 53.75"
/>
<path stroke="#868887" vector-effect="non-scaling-stroke" d="
  M 7.54 54.25
  L 7.44 85.06
  A 0.51 0.50 90.0 0 0 7.94 85.57
  L 51.94 85.74
  A 0.56 0.56 0.3 0 0 52.50 85.18
  L 52.46 54.25"
/>
<path stroke="#6e7270" stroke-opacity="0.996" vector-effect="non-scaling-stroke" d="
  M 54.00 86.46
  Q 30.26 87.37 6.50 86.96"
/>
<path stroke="#592322" vector-effect="non-scaling-stroke" d="
  M 7.46 45.50
  Q 6.90 45.95 6.29 46.00"
/>
<path stroke="#8d5b54" stroke-opacity="0.996" vector-effect="non-scaling-stroke" d="
  M 54.29 45.00
  L 53.96 53.75"
/>
<path stroke="#501815" vector-effect="non-scaling-stroke" d="
  M 53.96 53.75
  L 52.46 54.25"
/>
<path stroke="#c98f8e" vector-effect="non-scaling-stroke" d="
  M 52.46 54.25
  L 7.54 54.25"
/>
<path stroke="#501815" vector-effect="non-scaling-stroke" d="
  M 7.54 54.25
  L 7.21 53.25"
/>
<path stroke="#931f1c" vector-effect="non-scaling-stroke" d="
  M 7.21 53.25
  Q 7.50 52.93 7.54 52.50"
/>
<path stroke="#4a534d" stroke-opacity="0.996" vector-effect="non-scaling-stroke" d="
  M 54.00 86.46
  Q 53.87 78.15 54.00 74.50
  Q 54.37 64.12 53.96 53.75"
/>
<path stroke="#c98f8e" vector-effect="non-scaling-stroke" d="
  M 52.50 27.54
  L 52.50 51.93
  A 0.57 0.57 0.0 0 1 51.93 52.50
  L 7.54 52.50"
/>
<path stroke="#c98f8e" vector-effect="non-scaling-stroke" d="
  M 7.54 52.50
  L 7.46 48.25"
/>
<path stroke="#8f9393" vector-effect="non-scaling-stroke" d="
  M 7.46 48.25
  L 7.46 45.50"
/>
<path stroke="#c98f8e" vector-effect="non-scaling-stroke" d="
  M 7.46 45.50
  L 7.46 40.25"
/>
<path stroke="#8f9393" vector-effect="non-scaling-stroke" d="
  M 7.46 40.25
  L 7.46 37.50"
/>
<path stroke="#c98f8e" vector-effect="non-scaling-stroke" d="
  M 52.25 26.04
  L 7.50 25.71"
/>
<path stroke="#cf8c8b" stroke-opacity="0.996" vector-effect="non-scaling-stroke" d="
  M 128.25 24.21
  L 127.75 24.54"
/>
<path stroke="#cb5c5c" stroke-opacity="0.996" vector-effect="non-scaling-stroke" d="
  M 127.75 24.54
  Q 104.38 23.65 79.68 24.28
  A 0.65 0.64 89.1 0 0 79.06 24.93
  L 78.99 78.12
  A 0.88 0.88 0.3 0 0 79.86 79.00
  L 134.53 79.10"
/>
<path stroke="#c14849" vector-effect="non-scaling-stroke" d="
  M 127.75 24.54
  Q 129.95 27.19 132.49 29.50
  Q 133.63 30.55 133.04 29.00"
/>
<path stroke="#cb5c5c" stroke-opacity="0.996" vector-effect="non-scaling-stroke" d="
  M 68.59 41.61
  L 74.79 44.10
  Q 75.64 44.45 75.43 43.59
  L 74.21 38.71
  A 0.87 0.82 -1.2 0 0 73.53 38.10
  Q 72.55 37.93 72.45 39.19
  Q 72.41 39.65 72.08 39.35
  Q 66.83 34.46 59.73 33.09
  Q 57.49 32.66 58.17 33.62
  A 1.37 0.95 -6.3 0 0 59.00 34.07
  Q 65.50 35.05 69.96 39.79
  Q 71.57 41.50 69.68 40.50"
/>
<path stroke="#8f9393" vector-effect="non-scaling-stroke" d="
  M 15.03 19.50
  Q 16.58 20.18 17.18 21.07
  Q 18.50 23.01 19.70 20.99
  Q 21.52 17.97 23.54 21.03
  A 1.75 1.47 -34.6 0 0 25.86 21.25
  L 28.25 19.55
  A 0.53 0.47 56.4 0 1 28.95 19.74
  Q 31.69 23.94 34.39 19.43
  A 0.66 0.65 -51.8 0 1 35.42 19.30
  L 37.96 21.83
  A 0.52 0.52 -43.4 0 0 38.68 21.85
  L 41.39 19.33
  A 0.54 0.49 -41.9 0 1 42.12 19.34
  L 44.14 21.57
  A 1.05 0.88 46.0 0 0 45.55 21.72
  L 48.58 18.51
  A 0.61 0.57 59.7 0 0 48.71 17.93
  Q 48.59 17.53 48.19 17.94
  Q 47.19 18.94 45.54 20.58
  A 0.85 0.84 51.3 0 1 44.22 20.43
  Q 41.55 16.19 39.28 20.03
  A 1.26 1.26 44.7 0 1 37.12 20.04
  Q 35.03 16.54 33.38 19.15
  Q 31.56 22.05 29.58 18.89
  A 1.42 1.21 51.3 0 0 27.52 18.49
  L 25.81 20.36
  A 1.02 0.94 -38.3 0 1 24.21 20.24
  Q 21.97 15.98 19.32 20.12
  A 1.00 0.85 -52.5 0 1 17.91 20.42
  L 15.60 18.15
  A 0.78 0.69 44.7 0 0 14.57 18.09
  L 11.31 21.39
  A 0.53 0.41 -51.1 0 0 11.29 22.13
  Q 11.56 22.30 11.94 21.94
  Q 13.58 20.37 14.23 19.68
  A 0.74 0.70 -56.4 0 1 15.03 19.50"
/>
<path stroke="#de8c8c" vector-effect="non-scaling-stroke" d="
  M 119.50 25.52
  A 0.27 0.27 0.0 0 0 119.23 25.25
  L 93.27 25.25
  A 0.27 0.27 0.0 0 0 93.00 25.52
  L 93.00 42.48
  A 0.27 0.27 0.0 0 0 93.27 42.75
  L 119.23 42.75
  A 0.27 0.27 0.0 0 0 119.50 42.48
  L 119.50 25.52"
/>
<path stroke="#d86667" vector-effect="non-scaling-stroke" d="
  M 88.56 54.05
  L 122.99 53.76
  A 1.52 1.50 -90.0 0 1 124.50 55.29
  L 124.43 77.07
  A 0.52 0.50 0.0 0 0 124.95 77.57
  L 132.00 77.50
  A 0.50 0.50 0.0 0 0 132.50 77.00
  L 132.50 32.01
  A 1.77 1.58 25.1 0 0 132.00 30.84
  L 127.43 26.17
  A 3.09 2.64 64.7 0 0 125.38 25.25
  L 121.06 25.25
  A 0.56 0.56 0.0 0 0 120.50 25.81
  L 120.50 42.98
  A 0.96 0.93 -89.7 0 1 119.56 43.94
  L 92.43 43.82
  A 0.51 0.51 0.4 0 1 91.92 43.31
  L 91.76 25.93
  A 0.68 0.67 90.0 0 0 91.09 25.25
  L 80.75 25.25
  A 0.50 0.50 0.0 0 0 80.25 25.75
  L 80.25 76.65
  A 0.85 0.85 0.0 0 0 81.10 77.50
  L 87.08 77.50
  A 0.92 0.92 0.0 0 0 88.00 76.58
  L 88.06 54.57
  A 0.52 0.50 90.0 0 1 88.56 54.05"
/>
<path stroke="#de8c8c" vector-effect="non-scaling-stroke" d="
  M 123.2791 55.3097
  A 0.27 0.27 0.0 0 0 123.0096 55.0392
  L 89.5297 54.9808
  A 0.27 0.27 0.0 0 0 89.2592 55.2503
  L 89.2209 77.2103
  A 0.27 0.27 0.0 0 0 89.4904 77.4808
  L 122.9703 77.5392
  A 0.27 0.27 0.0 0 0 123.2408 77.2697
  L 123.2791 55.3097"
/>
<path stroke="#de8c8c" vector-effect="non-scaling-stroke" d="
  M 116.0082 29.3355
  A 0.57 0.57 0.0 0 0 115.4392 28.7645
  L 110.3192 28.7555
  A 0.57 0.57 0.0 0 0 109.7482 29.3245
  L 109.7318 38.6845
  A 0.57 0.57 0.0 0 0 110.3008 39.2555
  L 115.4208 39.2645
  A 0.57 0.57 0.0 0 0 115.9918 38.6955
  L 116.0082 29.3355"
/>
<path stroke="#de8c8c" vector-effect="non-scaling-stroke" d="
  M 30.03 33.69
  Q 31.86 36.51 33.19 34.19
  Q 34.77 31.43 36.50 34.00
  Q 37.28 35.17 38.44 35.21
  A 0.96 0.75 -69.0 0 0 39.19 34.76
  Q 41.57 30.98 44.28 34.95
  A 0.84 0.83 50.3 0 0 45.56 35.07
  L 48.36 32.27
  A 1.04 0.70 -34.1 0 0 48.68 31.47
  Q 48.58 30.89 47.84 31.54
  Q 47.12 32.18 46.46 32.88
  Q 44.78 34.70 43.82 33.19
  Q 41.56 29.64 39.39 33.26
  A 1.24 1.24 -47.4 0 1 37.32 33.35
  Q 36.24 31.84 35.04 31.43
  A 0.68 0.59 -64.3 0 0 34.31 31.74
  Q 31.73 35.89 29.19 31.74
  A 0.64 0.59 64.0 0 0 28.47 31.46
  Q 26.75 32.06 25.78 33.54
  A 1.10 0.94 39.4 0 1 24.20 33.57
  L 21.95 31.39
  A 0.60 0.51 -45.3 0 0 21.17 31.46
  L 18.95 33.67
  A 0.89 0.82 43.4 0 1 17.77 33.65
  L 15.36 31.47
  A 0.54 0.51 -46.6 0 0 14.64 31.51
  L 11.66 34.45
  A 0.65 0.55 -42.3 0 0 11.55 35.26
  Q 12.01 35.83 12.73 34.72
  Q 13.52 33.50 14.78 32.93
  A 0.84 0.73 52.0 0 1 15.61 33.09
  L 17.92 35.12
  A 0.63 0.61 -43.3 0 0 18.71 35.13
  Q 19.80 34.27 20.83 33.34
  Q 22.17 32.13 23.67 34.74
  A 1.30 1.22 -36.7 0 0 25.63 34.96
  L 27.51 33.21
  Q 28.90 31.93 30.03 33.69"
/>
<path stroke="#de8c8c" vector-effect="non-scaling-stroke" d="
  M 31.15 42.00
  Q 31.41 42.35 31.75 42.08
  Q 32.56 41.45 33.25 40.70
  Q 35.05 38.72 35.96 39.93
  Q 36.41 40.54 36.51 40.63
  Q 37.18 41.28 37.87 41.91
  A 0.56 0.55 45.0 0 0 38.62 41.92
  L 41.14 39.59
  A 0.70 0.67 -50.9 0 1 41.95 39.49
  Q 43.27 40.27 43.95 41.49
  A 1.08 1.07 52.6 0 0 45.65 41.72
  Q 47.31 40.06 48.53 38.78
  Q 49.15 38.13 48.79 37.92
  A 0.84 0.55 -48.4 0 0 47.95 38.15
  L 46.02 39.98
  Q 44.48 41.45 43.43 39.64
  Q 41.81 36.84 39.45 39.98
  Q 38.13 41.75 37.04 39.83
  Q 35.08 36.40 33.10 39.67
  A 1.67 1.40 36.5 0 1 30.76 39.81
  L 28.67 38.03
  A 0.64 0.48 -44.9 0 0 27.93 38.14
  L 25.41 40.47
  A 0.62 0.57 44.1 0 1 24.61 40.45
  L 22.04 38.17
  A 0.62 0.51 44.3 0 0 21.29 38.11
  L 19.15 40.01
  A 1.56 1.39 -36.7 0 1 16.89 39.81
  Q 15.21 37.04 13.89 38.59
  Q 13.20 39.42 13.15 39.46
  Q 12.27 40.32 11.41 41.21
  A 0.49 0.32 -54.3 0 0 11.38 41.92
  Q 12.08 42.11 14.01 39.82
  A 1.10 0.99 -48.0 0 1 15.53 39.66
  L 17.73 41.75
  A 0.94 0.90 36.3 0 0 19.17 41.56
  Q 21.15 37.98 23.11 40.83
  Q 25.00 43.56 26.69 40.69
  Q 28.09 38.30 29.94 40.81
  Q 30.18 41.14 30.49 41.34
  Q 30.82 41.56 31.15 42.00"
/>
<path stroke="#de8c8c" vector-effect="non-scaling-stroke" d="
  M 37.19 47.96
  Q 38.37 49.82 39.58 47.98
  Q 41.70 44.76 43.37 47.54
  Q 44.49 49.40 46.02 47.91
  L 48.14 45.86
  A 0.96 0.48 -40.5 0 0 48.51 45.00
  Q 48.22 44.43 45.53 47.00
  A 0.81 0.73 43.1 0 1 44.49 46.98
  L 41.91 44.78
  A 0.63 0.47 -45.7 0 0 41.19 44.89
  L 38.91 46.97
  A 0.66 0.58 42.1 0 1 38.09 46.96
  L 35.37 44.83
  A 0.61 0.56 42.7 0 0 34.62 44.83
  L 32.61 46.59
  A 1.52 1.48 -41.6 0 1 30.50 46.49
  Q 28.03 43.75 26.91 45.67
  Q 25.05 48.86 22.96 45.53
  A 1.35 1.35 46.4 0 0 20.70 45.47
  Q 18.24 49.02 15.80 44.83
  A 0.90 0.90 50.4 0 0 14.35 44.69
  Q 8.66 51.25 14.38 46.55
  A 1.27 1.27 -35.9 0 1 16.26 46.85
  Q 18.38 50.22 20.54 46.77
  A 1.32 1.19 37.0 0 1 22.44 46.60
  L 24.29 48.23
  A 1.26 1.22 -55.0 0 0 26.18 47.86
  Q 28.13 44.35 30.31 47.63
  Q 31.62 49.59 33.01 47.69
  Q 35.15 44.75 37.19 47.96"
/>
<path stroke="#d86667" vector-effect="non-scaling-stroke" d="
  M 114.9370 30.3560
  A 0.58 0.58 0.0 0 0 114.3499 29.7831
  L 111.5301 29.8175
  A 0.58 0.58 0.0 0 0 110.9573 30.4046
  L 111.0430 37.4240
  A 0.58 0.58 0.0 0 0 111.6301 37.9969
  L 114.4499 37.9625
  A 0.58 0.58 0.0 0 0 115.0227 37.3754
  L 114.9370 30.3560"
/>
<path stroke="#8f9393" vector-effect="non-scaling-stroke" d="
  M 35.85 59.83
  Q 36.59 61.08 38.00 61.94
  A 0.69 0.67 -50.5 0 0 38.81 61.85
  L 40.93 59.82
  A 1.41 1.38 -37.7 0 1 43.08 60.07
  Q 44.44 62.28 45.42 61.93
  Q 45.51 61.90 46.99 60.43
  Q 47.95 59.48 48.77 58.41
  A 0.46 0.34 -46.2 0 0 48.83 57.93
  Q 48.72 57.78 48.55 57.77
  Q 48.37 57.76 48.12 57.98
  Q 46.70 59.26 45.35 60.63
  A 0.49 0.45 43.3 0 1 44.68 60.62
  L 42.04 58.13
  A 0.60 0.56 -44.6 0 0 41.25 58.15
  L 39.12 60.12
  A 1.35 1.33 -37.0 0 1 37.06 59.85
  Q 35.03 56.45 33.30 59.31
  Q 31.75 61.89 29.59 58.75
  A 1.35 1.26 51.1 0 0 27.62 58.47
  L 25.34 60.64
  A 0.48 0.47 45.4 0 1 24.68 60.63
  L 22.03 58.07
  A 0.56 0.52 -45.4 0 0 21.27 58.10
  L 18.83 60.54
  A 0.69 0.66 44.4 0 1 17.88 60.53
  L 15.38 58.08
  A 0.58 0.54 -43.4 0 0 14.62 58.08
  Q 13.10 59.45 11.69 60.94
  Q 11.25 61.40 11.29 61.81
  Q 11.37 62.50 11.91 61.95
  L 13.98 59.85
  A 1.54 1.22 40.6 0 1 15.84 59.92
  L 18.27 61.85
  A 0.65 0.49 -46.9 0 0 19.02 61.72
  L 21.33 59.50
  A 0.65 0.49 43.3 0 1 22.12 59.59
  L 24.64 61.92
  A 0.55 0.53 -45.0 0 0 25.37 61.91
  L 27.89 59.58
  A 0.69 0.66 -50.1 0 1 28.69 59.49
  Q 30.03 60.29 30.82 61.71
  A 0.89 0.89 -37.3 0 0 32.23 61.90
  L 34.47 59.66
  A 0.88 0.88 -37.9 0 1 35.85 59.83"
/>
<path stroke="#8f9393" vector-effect="non-scaling-stroke" d="
  M 22.43 66.50
  Q 24.82 70.57 27.30 66.81
  A 1.31 1.30 45.2 0 1 29.49 66.82
  Q 31.74 70.32 33.72 66.96
  Q 34.86 65.04 36.05 66.92
  Q 38.20 70.29 40.65 66.79
  A 1.30 1.29 -45.4 0 1 42.76 66.77
  Q 43.70 68.08 44.78 68.58
  A 0.76 0.68 -55.7 0 0 45.60 68.38
  Q 46.81 67.07 47.92 65.70
  Q 49.40 63.87 47.64 65.05
  Q 47.45 65.18 47.31 65.38
  Q 44.84 69.06 42.69 65.06
  Q 41.73 63.28 40.06 65.81
  Q 38.30 68.49 36.59 65.64
  Q 35.64 64.06 34.06 65.40
  L 31.91 67.21
  A 0.61 0.49 45.8 0 1 31.19 67.12
  L 28.66 64.78
  A 0.61 0.53 -44.8 0 0 27.89 64.83
  L 25.90 66.65
  A 1.51 1.50 -36.8 0 1 23.59 66.32
  Q 21.72 63.22 19.99 66.02
  Q 18.30 68.74 16.45 65.67
  A 1.57 1.46 52.2 0 0 14.08 65.28
  L 11.58 67.86
  A 0.69 0.53 -44.9 0 0 11.47 68.70
  Q 11.75 69.01 12.23 68.47
  Q 12.94 67.69 13.58 66.85
  Q 15.12 64.86 17.04 67.97
  A 1.26 1.26 46.3 0 0 19.15 68.02
  Q 19.92 66.89 21.71 66.22
  A 0.62 0.58 64.6 0 1 22.43 66.50"
/>
<path stroke="#868887" vector-effect="non-scaling-stroke" d="
  M 18.85 73.77
  A 1.36 1.23 54.3 0 1 16.80 73.33
  Q 15.30 70.40 13.98 71.97
  Q 12.83 73.34 11.59 74.64
  A 0.54 0.45 -49.4 0 0 11.58 75.38
  Q 12.05 75.71 12.57 75.04
  Q 13.44 73.94 14.64 72.74
  A 0.50 0.50 -0.0 0 1 15.36 72.74
  L 17.71 75.09
  A 0.61 0.52 45.7 0 0 18.50 75.16
  L 20.69 73.12
  A 1.44 1.19 -38.4 0 1 22.73 73.16
  Q 25.01 76.81 27.08 73.36
  Q 28.36 71.22 29.59 73.39
  Q 31.67 77.06 33.70 73.69
  Q 34.97 71.58 36.74 74.47
  A 1.58 1.43 53.0 0 0 39.04 74.91
  L 41.16 72.88
  A 0.66 0.46 -44.7 0 1 41.93 72.75
  L 44.25 75.00
  A 0.98 0.85 44.3 0 0 45.54 75.08
  Q 47.19 73.44 48.28 72.28
  Q 49.24 71.26 48.38 71.35
  A 1.10 0.78 -70.1 0 0 47.69 71.83
  Q 44.89 76.00 42.47 72.09
  A 1.23 1.23 -42.6 0 0 40.44 72.01
  Q 37.92 75.41 36.44 72.31
  Q 35.13 69.59 33.81 72.06
  Q 31.89 75.67 29.53 72.08
  A 1.32 1.31 -39.0 0 0 27.50 71.87
  L 25.36 74.01
  A 0.50 0.50 -0.0 0 1 24.64 74.01
  L 22.25 71.63
  A 0.95 0.92 -45.2 0 0 20.91 71.66
  L 18.85 73.77"
/>
<path stroke="#868887" vector-effect="non-scaling-stroke" d="
  M 36.69 80.56
  Q 38.30 83.42 40.00 80.72
  Q 41.70 78.01 43.51 81.02
  Q 44.57 82.78 46.05 81.36
  Q 47.00 80.45 48.56 78.59
  Q 48.70 78.42 48.74 78.24
  Q 48.89 77.50 48.27 78.03
  Q 47.19 78.94 45.53 80.59
  A 0.84 0.81 46.9 0 1 44.33 80.53
  L 42.81 78.78
  Q 41.56 77.35 40.16 79.07
  Q 38.06 81.66 36.81 79.44
  Q 35.16 76.50 33.31 79.31
  Q 31.55 81.99 29.74 78.98
  A 1.48 1.39 52.3 0 0 27.50 78.62
  L 25.37 80.76
  A 0.52 0.50 -44.6 0 1 24.65 80.77
  L 22.05 78.18
  A 0.60 0.59 -44.7 0 0 21.20 78.18
  L 18.87 80.51
  A 0.76 0.70 44.1 0 1 17.85 80.48
  L 15.34 78.12
  A 0.58 0.55 -45.3 0 0 14.57 78.14
  L 11.66 80.95
  A 1.07 0.93 -28.7 0 0 11.34 81.81
  Q 11.48 82.76 12.37 81.39
  Q 14.96 77.41 17.61 81.59
  A 0.87 0.84 -38.8 0 0 18.94 81.71
  L 21.31 79.38
  A 0.56 0.52 44.1 0 1 22.05 79.40
  Q 23.02 80.33 24.00 81.24
  Q 25.72 82.84 27.25 79.82
  A 1.19 1.19 41.9 0 1 29.30 79.71
  Q 31.75 83.47 33.56 80.31
  Q 35.07 77.69 36.69 80.56"
/>
<path stroke="#e2bbbc" vector-effect="non-scaling-stroke" d="
  M 120.5700 58.5251
  A 0.26 0.26 0.0 0 0 120.3104 58.2646
  L 92.0905 58.2154
  A 0.26 0.26 0.0 0 0 91.8300 58.4749
  L 91.8300 58.4949
  A 0.26 0.26 0.0 0 0 92.0896 58.7554
  L 120.3095 58.8046
  A 0.26 0.26 0.0 0 0 120.5700 58.5451
  L 120.5700 58.5251"
/>
<path stroke="#e2bbbc" vector-effect="non-scaling-stroke" d="
  M 120.6396 62.4941
  A 0.37 0.37 0.0 0 0 120.2677 62.1260
  L 92.0081 62.2740
  A 0.37 0.37 0.0 0 0 91.6400 62.6459
  L 91.6404 62.7059
  A 0.37 0.37 0.0 0 0 92.0123 63.0740
  L 120.2719 62.9260
  A 0.37 0.37 0.0 0 0 120.6400 62.5541
  L 120.6396 62.4941"
/>
<path stroke="#e2bbbc" vector-effect="non-scaling-stroke" d="
  M 120.6102 66.5253
  A 0.27 0.27 0.0 0 0 120.3406 66.2548
  L 91.9407 66.2052
  A 0.27 0.27 0.0 0 0 91.6702 66.4747
  L 91.6698 66.6947
  A 0.27 0.27 0.0 0 0 91.9394 66.9652
  L 120.3393 67.0148
  A 0.27 0.27 0.0 0 0 120.6098 66.7453
  L 120.6102 66.5253"
/>
<path stroke="#e2bbbc" vector-effect="non-scaling-stroke" d="
  M 120.7197 69.9948
  A 0.26 0.26 0.0 0 0 120.4592 69.7353
  L 92.0993 69.7847
  A 0.26 0.26 0.0 0 0 91.8397 70.0452
  L 91.8403 70.3652
  A 0.26 0.26 0.0 0 0 92.1008 70.6247
  L 120.4607 70.5753
  A 0.26 0.26 0.0 0 0 120.7203 70.3148
  L 120.7197 69.9948"
/>
<path stroke="#f9dada" vector-effect="non-scaling-stroke" d="
  M 120.71 73.98
  A 0.48 0.48 0.0 0 0 120.23 73.50
  L 92.05 73.50
  A 0.48 0.48 0.0 0 0 91.57 73.98
  L 91.57 74.08
  A 0.48 0.48 0.0 0 0 92.05 74.56
  L 120.23 74.56
  A 0.48 0.48 0.0 0 0 120.71 74.08
  L 120.71 73.98"
/>
</g>
<path fill="#bab4af" d="
  M 54.54 13.00
  Q 54.57 13.42 54.25 13.54
  L 6.00 13.04
  Q 5.66 12.87 5.71 12.50
  Q 6.55 12.00 8.75 12.00
  Q 29.19 12.02 49.62 12.24
  Q 49.72 12.24 51.84 11.92
  Q 53.40 11.69 54.54 13.00
  Z"
/>
<path fill="#87978d" fill-opacity="0.988" d="
  M 5.71 12.50
  Q 5.66 12.87 6.00 13.04
  L 6.29 26.25
  L 6.29 38.00
  Q 5.79 39.60 6.29 41.25
  L 6.29 46.00
  L 6.29 49.50
  Q 5.75 51.64 6.29 53.75
  Q 5.87 70.36 6.50 86.96
  Q 5.86 86.71 5.48 87.78
  Q 5.17 50.50 5.25 13.25
  Q 5.25 12.97 5.71 12.50
  Z"
/>
<path fill="#1e2627" d="
  M 6.00 13.04
  L 54.25 13.54
  Q 53.21 20.36 53.98 27.24
  L 52.50 27.54
  L 52.04 27.25
  Q 52.00 26.63 52.25 26.04
  L 52.57 14.94
  A 0.50 0.49 1.1 0 0 52.07 14.43
  L 8.06 14.25
  A 0.57 0.56 90.0 0 0 7.50 14.82
  L 7.50 25.71
  L 6.29 26.25
  L 6.00 13.04
  Z"
/>
<path fill="#87978d" fill-opacity="0.988" d="
  M 54.54 13.00
  L 54.71 48.75
  L 54.29 45.00
  L 53.98 27.24
  Q 53.21 20.36 54.25 13.54
  Q 54.57 13.42 54.54 13.00
  Z"
/>
<path fill="#ffffff" d="
  M 52.25 26.04
  L 7.50 25.71
  L 7.50 14.82
  A 0.57 0.56 90.0 0 1 8.06 14.25
  L 52.07 14.43
  A 0.50 0.49 1.1 0 1 52.57 14.94
  L 52.25 26.04
  Z
  M 15.03 19.50
  Q 16.58 20.18 17.18 21.07
  Q 18.50 23.01 19.70 20.99
  Q 21.52 17.97 23.54 21.03
  A 1.75 1.47 -34.6 0 0 25.86 21.25
  L 28.25 19.55
  A 0.53 0.47 56.4 0 1 28.95 19.74
  Q 31.69 23.94 34.39 19.43
  A 0.66 0.65 -51.8 0 1 35.42 19.30
  L 37.96 21.83
  A 0.52 0.52 -43.4 0 0 38.68 21.85
  L 41.39 19.33
  A 0.54 0.49 -41.9 0 1 42.12 19.34
  L 44.14 21.57
  A 1.05 0.88 46.0 0 0 45.55 21.72
  L 48.58 18.51
  A 0.61 0.57 59.7 0 0 48.71 17.93
  Q 48.59 17.53 48.19 17.94
  Q 47.19 18.94 45.54 20.58
  A 0.85 0.84 51.3 0 1 44.22 20.43
  Q 41.55 16.19 39.28 20.03
  A 1.26 1.26 44.7 0 1 37.12 20.04
  Q 35.03 16.54 33.38 19.15
  Q 31.56 22.05 29.58 18.89
  A 1.42 1.21 51.3 0 0 27.52 18.49
  L 25.81 20.36
  A 1.02 0.94 -38.3 0 1 24.21 20.24
  Q 21.97 15.98 19.32 20.12
  A 1.00 0.85 -52.5 0 1 17.91 20.42
  L 15.60 18.15
  A 0.78 0.69 44.7 0 0 14.57 18.09
  L 11.31 21.39
  A 0.53 0.41 -51.1 0 0 11.29 22.13
  Q 11.56 22.30 11.94 21.94
  Q 13.58 20.37 14.23 19.68
  A 0.74 0.70 -56.4 0 1 15.03 19.50
  Z"
/>
<path fill="#1e2627" d="
  M 14.23 19.68
  Q 13.58 20.37 11.94 21.94
  Q 11.56 22.30 11.29 22.13
  A 0.53 0.41 -51.1 0 1 11.31 21.39
  L 14.57 18.09
  A 0.78 0.69 44.7 0 1 15.60 18.15
  L 17.91 20.42
  A 1.00 0.85 -52.5 0 0 19.32 20.12
  Q 21.97 15.98 24.21 20.24
  A 1.02 0.94 -38.3 0 0 25.81 20.36
  L 27.52 18.49
  A 1.42 1.21 51.3 0 1 29.58 18.89
  Q 31.56 22.05 33.38 19.15
  Q 35.03 16.54 37.12 20.04
  A 1.26 1.26 44.7 0 0 39.28 20.03
  Q 41.55 16.19 44.22 20.43
  A 0.85 0.84 51.3 0 0 45.54 20.58
  Q 47.19 18.94 48.19 17.94
  Q 48.59 17.53 48.71 17.93
  A 0.61 0.57 59.7 0 1 48.58 18.51
  L 45.55 21.72
  A 1.05 0.88 46.0 0 1 44.14 21.57
  L 42.12 19.34
  A 0.54 0.49 -41.9 0 0 41.39 19.33
  L 38.68 21.85
  A 0.52 0.52 -43.4 0 1 37.96 21.83
  L 35.42 19.30
  A 0.66 0.65 -51.8 0 0 34.39 19.43
  Q 31.69 23.94 28.95 19.74
  A 0.53 0.47 56.4 0 0 28.25 19.55
  L 25.86 21.25
  A 1.75 1.47 -34.6 0 1 23.54 21.03
  Q 21.52 17.97 19.70 20.99
  Q 18.50 23.01 17.18 21.07
  Q 16.58 20.18 15.03 19.50
  A 0.74 0.70 -56.4 0 0 14.23 19.68
  Z"
/>
<path fill="#daa19f" fill-opacity="0.992" d="
  M 128.25 24.21
  L 127.75 24.54
  Q 104.38 23.65 79.68 24.28
  A 0.65 0.64 89.1 0 0 79.06 24.93
  L 78.99 78.12
  A 0.88 0.88 0.3 0 0 79.86 79.00
  L 134.53 79.10
  Q 107.71 80.23 79.88 79.73
  Q 78.00 79.70 78.00 77.82
  L 78.00 24.24
  A 1.24 1.24 -88.1 0 1 79.24 23.00
  Q 102.38 23.00 125.50 23.00
  Q 127.48 23.00 128.25 24.21
  Z"
/>
<path fill="#bd1819" d="
  M 127.75 24.54
  Q 129.95 27.19 132.49 29.50
  Q 133.63 30.55 133.04 29.00
  Q 134.53 29.89 134.56 30.94
  Q 135.18 48.68 134.53 79.10
  L 79.86 79.00
  A 0.88 0.88 0.3 0 1 78.99 78.12
  L 79.06 24.93
  A 0.65 0.64 89.1 0 1 79.68 24.28
  Q 104.38 23.65 127.75 24.54
  Z
  M 119.50 25.52
  A 0.27 0.27 0.0 0 0 119.23 25.25
  L 93.27 25.25
  A 0.27 0.27 0.0 0 0 93.00 25.52
  L 93.00 42.48
  A 0.27 0.27 0.0 0 0 93.27 42.75
  L 119.23 42.75
  A 0.27 0.27 0.0 0 0 119.50 42.48
  L 119.50 25.52
  Z
  M 88.56 54.05
  L 122.99 53.76
  A 1.52 1.50 -90.0 0 1 124.50 55.29
  L 124.43 77.07
  A 0.52 0.50 0.0 0 0 124.95 77.57
  L 132.00 77.50
  A 0.50 0.50 0.0 0 0 132.50 77.00
  L 132.50 32.01
  A 1.77 1.58 25.1 0 0 132.00 30.84
  L 127.43 26.17
  A 3.09 2.64 64.7 0 0 125.38 25.25
  L 121.06 25.25
  A 0.56 0.56 0.0 0 0 120.50 25.81
  L 120.50 42.98
  A 0.96 0.93 -89.7 0 1 119.56 43.94
  L 92.43 43.82
  A 0.51 0.51 0.4 0 1 91.92 43.31
  L 91.76 25.93
  A 0.68 0.67 90.0 0 0 91.09 25.25
  L 80.75 25.25
  A 0.50 0.50 0.0 0 0 80.25 25.75
  L 80.25 76.65
  A 0.85 0.85 0.0 0 0 81.10 77.50
  L 87.08 77.50
  A 0.92 0.92 0.0 0 0 88.00 76.58
  L 88.06 54.57
  A 0.52 0.50 90.0 0 1 88.56 54.05
  Z
  M 123.2791 55.3097
  A 0.27 0.27 0.0 0 0 123.0096 55.0392
  L 89.5297 54.9808
  A 0.27 0.27 0.0 0 0 89.2592 55.2503
  L 89.2209 77.2103
  A 0.27 0.27 0.0 0 0 89.4904 77.4808
  L 122.9703 77.5392
  A 0.27 0.27 0.0 0 0 123.2408 77.2697
  L 123.2791 55.3097
  Z"
/>
<path fill="#c57778" d="
  M 128.25 24.21
  L 133.04 29.00
  Q 133.63 30.55 132.49 29.50
  Q 129.95 27.19 127.75 24.54
  L 128.25 24.21
  Z"
/>
<path fill="#ffffff" d="
  M 119.50 42.48
  A 0.27 0.27 0.0 0 1 119.23 42.75
  L 93.27 42.75
  A 0.27 0.27 0.0 0 1 93.00 42.48
  L 93.00 25.52
  A 0.27 0.27 0.0 0 1 93.27 25.25
  L 119.23 25.25
  A 0.27 0.27 0.0 0 1 119.50 25.52
  L 119.50 42.48
  Z
  M 116.0082 29.3355
  A 0.57 0.57 0.0 0 0 115.4392 28.7645
  L 110.3192 28.7555
  A 0.57 0.57 0.0 0 0 109.7482 29.3245
  L 109.7318 38.6845
  A 0.57 0.57 0.0 0 0 110.3008 39.2555
  L 115.4208 39.2645
  A 0.57 0.57 0.0 0 0 115.9918 38.6955
  L 116.0082 29.3355
  Z"
/>
<path fill="#f2b4b4" d="
  M 88.06 54.57
  L 88.00 76.58
  A 0.92 0.92 0.0 0 1 87.08 77.50
  L 81.10 77.50
  A 0.85 0.85 0.0 0 1 80.25 76.65
  L 80.25 25.75
  A 0.50 0.50 0.0 0 1 80.75 25.25
  L 91.09 25.25
  A 0.68 0.67 -90.0 0 1 91.76 25.93
  L 91.92 43.31
  A 0.51 0.51 0.4 0 0 92.43 43.82
  L 119.56 43.94
  A 0.96 0.93 -89.7 0 0 120.50 42.98
  L 120.50 25.81
  A 0.56 0.56 1.9 0 1 121.06 25.25
  L 125.38 25.25
  A 3.09 2.64 64.7 0 1 127.43 26.17
  L 132.00 30.84
  A 1.77 1.58 25.1 0 1 132.50 32.01
  L 132.50 77.00
  A 0.50 0.50 0.0 0 1 132.00 77.50
  L 124.95 77.57
  A 0.52 0.50 0.0 0 1 124.43 77.07
  L 124.50 55.29
  A 1.52 1.50 -90.0 0 0 122.99 53.76
  L 88.56 54.05
  A 0.52 0.50 -90.0 0 0 88.06 54.57
  Z"
/>
<path fill="#931f1c" d="
  M 7.50 25.71
  L 52.25 26.04
  Q 52.00 26.63 52.04 27.25
  L 8.01 27.50
  A 0.51 0.50 0.0 0 0 7.50 28.00
  L 7.46 37.50
  Q 6.90 37.95 6.29 38.00
  L 6.29 26.25
  L 7.50 25.71
  Z"
/>
<path fill="#ffffff" d="
  M 52.04 27.25
  L 52.50 27.54
  L 52.50 51.93
  A 0.57 0.57 0.0 0 1 51.93 52.50
  L 7.54 52.50
  L 7.46 48.25
  L 7.46 45.50
  L 7.46 40.25
  L 7.46 37.50
  L 7.50 28.00
  A 0.51 0.50 -0.0 0 1 8.01 27.50
  L 52.04 27.25
  Z
  M 30.03 33.69
  Q 31.86 36.51 33.19 34.19
  Q 34.77 31.43 36.50 34.00
  Q 37.28 35.17 38.44 35.21
  A 0.96 0.75 -69.0 0 0 39.19 34.76
  Q 41.57 30.98 44.28 34.95
  A 0.84 0.83 50.3 0 0 45.56 35.07
  L 48.36 32.27
  A 1.04 0.70 -34.1 0 0 48.68 31.47
  Q 48.58 30.89 47.84 31.54
  Q 47.12 32.18 46.46 32.88
  Q 44.78 34.70 43.82 33.19
  Q 41.56 29.64 39.39 33.26
  A 1.24 1.24 -47.4 0 1 37.32 33.35
  Q 36.24 31.84 35.04 31.43
  A 0.68 0.59 -64.3 0 0 34.31 31.74
  Q 31.73 35.89 29.19 31.74
  A 0.64 0.59 64.0 0 0 28.47 31.46
  Q 26.75 32.06 25.78 33.54
  A 1.10 0.94 39.4 0 1 24.20 33.57
  L 21.95 31.39
  A 0.60 0.51 -45.3 0 0 21.17 31.46
  L 18.95 33.67
  A 0.89 0.82 43.4 0 1 17.77 33.65
  L 15.36 31.47
  A 0.54 0.51 -46.6 0 0 14.64 31.51
  L 11.66 34.45
  A 0.65 0.55 -42.3 0 0 11.55 35.26
  Q 12.01 35.83 12.73 34.72
  Q 13.52 33.50 14.78 32.93
  A 0.84 0.73 52.0 0 1 15.61 33.09
  L 17.92 35.12
  A 0.63 0.61 -43.3 0 0 18.71 35.13
  Q 19.80 34.27 20.83 33.34
  Q 22.17 32.13 23.67 34.74
  A 1.30 1.22 -36.7 0 0 25.63 34.96
  L 27.51 33.21
  Q 28.90 31.93 30.03 33.69
  Z
  M 31.15 42.00
  Q 31.41 42.35 31.75 42.08
  Q 32.56 41.45 33.25 40.70
  Q 35.05 38.72 35.96 39.93
  Q 36.41 40.54 36.51 40.63
  Q 37.18 41.28 37.87 41.91
  A 0.56 0.55 45.0 0 0 38.62 41.92
  L 41.14 39.59
  A 0.70 0.67 -50.9 0 1 41.95 39.49
  Q 43.27 40.27 43.95 41.49
  A 1.08 1.07 52.6 0 0 45.65 41.72
  Q 47.31 40.06 48.53 38.78
  Q 49.15 38.13 48.79 37.92
  A 0.84 0.55 -48.4 0 0 47.95 38.15
  L 46.02 39.98
  Q 44.48 41.45 43.43 39.64
  Q 41.81 36.84 39.45 39.98
  Q 38.13 41.75 37.04 39.83
  Q 35.08 36.40 33.10 39.67
  A 1.67 1.40 36.5 0 1 30.76 39.81
  L 28.67 38.03
  A 0.64 0.48 -44.9 0 0 27.93 38.14
  L 25.41 40.47
  A 0.62 0.57 44.1 0 1 24.61 40.45
  L 22.04 38.17
  A 0.62 0.51 44.3 0 0 21.29 38.11
  L 19.15 40.01
  A 1.56 1.39 -36.7 0 1 16.89 39.81
  Q 15.21 37.04 13.89 38.59
  Q 13.20 39.42 13.15 39.46
  Q 12.27 40.32 11.41 41.21
  A 0.49 0.32 -54.3 0 0 11.38 41.92
  Q 12.08 42.11 14.01 39.82
  A 1.10 0.99 -48.0 0 1 15.53 39.66
  L 17.73 41.75
  A 0.94 0.90 36.3 0 0 19.17 41.56
  Q 21.15 37.98 23.11 40.83
  Q 25.00 43.56 26.69 40.69
  Q 28.09 38.30 29.94 40.81
  Q 30.18 41.14 30.49 41.34
  Q 30.82 41.56 31.15 42.00
  Z
  M 37.19 47.96
  Q 38.37 49.82 39.58 47.98
  Q 41.70 44.76 43.37 47.54
  Q 44.49 49.40 46.02 47.91
  L 48.14 45.86
  A 0.96 0.48 -40.5 0 0 48.51 45.00
  Q 48.22 44.43 45.53 47.00
  A 0.81 0.73 43.1 0 1 44.49 46.98
  L 41.91 44.78
  A 0.63 0.47 -45.7 0 0 41.19 44.89
  L 38.91 46.97
  A 0.66 0.58 42.1 0 1 38.09 46.96
  L 35.37 44.83
  A 0.61 0.56 42.7 0 0 34.62 44.83
  L 32.61 46.59
  A 1.52 1.48 -41.6 0 1 30.50 46.49
  Q 28.03 43.75 26.91 45.67
  Q 25.05 48.86 22.96 45.53
  A 1.35 1.35 46.4 0 0 20.70 45.47
  Q 18.24 49.02 15.80 44.83
  A 0.90 0.90 50.4 0 0 14.35 44.69
  Q 8.66 51.25 14.38 46.55
  A 1.27 1.27 -35.9 0 1 16.26 46.85
  Q 18.38 50.22 20.54 46.77
  A 1.32 1.19 37.0 0 1 22.44 46.60
  L 24.29 48.23
  A 1.26 1.22 -55.0 0 0 26.18 47.86
  Q 28.13 44.35 30.31 47.63
  Q 31.62 49.59 33.01 47.69
  Q 35.15 44.75 37.19 47.96
  Z"
/>
<path fill="#931f1c" d="
  M 53.98 27.24
  L 54.29 45.00
  L 53.96 53.75
  L 52.46 54.25
  L 7.54 54.25
  L 7.21 53.25
  Q 7.50 52.93 7.54 52.50
  L 51.93 52.50
  A 0.57 0.57 0.0 0 0 52.50 51.93
  L 52.50 27.54
  L 53.98 27.24
  Z"
/>
<path fill="#bd1819" d="
  M 115.9918 38.6955
  A 0.57 0.57 0.0 0 1 115.4208 39.2645
  L 110.3008 39.2555
  A 0.57 0.57 0.0 0 1 109.7318 38.6845
  L 109.7482 29.3245
  A 0.57 0.57 0.0 0 1 110.3192 28.7555
  L 115.4392 28.7645
  A 0.57 0.57 0.0 0 1 116.0082 29.3355
  L 115.9918 38.6955
  Z
  M 114.9370 30.3560
  A 0.58 0.58 0.0 0 0 114.3499 29.7831
  L 111.5301 29.8175
  A 0.58 0.58 0.0 0 0 110.9573 30.4046
  L 111.0430 37.4240
  A 0.58 0.58 0.0 0 0 111.6301 37.9969
  L 114.4499 37.9625
  A 0.58 0.58 0.0 0 0 115.0227 37.3754
  L 114.9370 30.3560
  Z"
/>
<rect fill="#f2b4b4" x="-1.99" y="-4.09" transform="translate(112.99,33.89) rotate(-0.7)" width="3.98" height="8.18" rx="0.58"/>
<path fill="#bd1819" d="
  M 30.03 33.69
  Q 28.90 31.93 27.51 33.21
  L 25.63 34.96
  A 1.30 1.22 -36.7 0 1 23.67 34.74
  Q 22.17 32.13 20.83 33.34
  Q 19.80 34.27 18.71 35.13
  A 0.63 0.61 -43.3 0 1 17.92 35.12
  L 15.61 33.09
  A 0.84 0.73 52.0 0 0 14.78 32.93
  Q 13.52 33.50 12.73 34.72
  Q 12.01 35.83 11.55 35.26
  A 0.65 0.55 -42.3 0 1 11.66 34.45
  L 14.64 31.51
  A 0.54 0.51 -46.6 0 1 15.36 31.47
  L 17.77 33.65
  A 0.89 0.82 43.4 0 0 18.95 33.67
  L 21.17 31.46
  A 0.60 0.51 -45.3 0 1 21.95 31.39
  L 24.20 33.57
  A 1.10 0.94 39.4 0 0 25.78 33.54
  Q 26.75 32.06 28.47 31.46
  A 0.64 0.59 64.0 0 1 29.19 31.74
  Q 31.73 35.89 34.31 31.74
  A 0.68 0.59 -64.3 0 1 35.04 31.43
  Q 36.24 31.84 37.32 33.35
  A 1.24 1.24 -47.4 0 0 39.39 33.26
  Q 41.56 29.64 43.82 33.19
  Q 44.78 34.70 46.46 32.88
  Q 47.12 32.18 47.84 31.54
  Q 48.58 30.89 48.68 31.47
  A 1.04 0.70 -34.1 0 1 48.36 32.27
  L 45.56 35.07
  A 0.84 0.83 50.3 0 1 44.28 34.95
  Q 41.57 30.98 39.19 34.76
  A 0.96 0.75 -69.0 0 1 38.44 35.21
  Q 37.28 35.17 36.50 34.00
  Q 34.77 31.43 33.19 34.19
  Q 31.86 36.51 30.03 33.69
  Z"
/>
<path fill="#daa19f" fill-opacity="0.992" d="
  M 68.59 41.61
  L 74.79 44.10
  Q 75.64 44.45 75.43 43.59
  L 74.21 38.71
  A 0.87 0.82 -1.2 0 0 73.53 38.10
  Q 72.55 37.93 72.45 39.19
  Q 72.41 39.65 72.08 39.35
  Q 66.83 34.46 59.73 33.09
  Q 57.49 32.66 58.17 33.62
  A 1.37 0.95 -6.3 0 0 59.00 34.07
  Q 65.50 35.05 69.96 39.79
  Q 71.57 41.50 69.68 40.50
  Q 65.08 35.52 58.25 34.56
  A 1.23 1.08 -11.4 0 1 57.44 34.09
  Q 56.02 32.05 59.23 32.44
  Q 65.86 33.26 71.29 37.86
  A 0.53 0.53 37.6 0 0 72.06 37.76
  Q 72.68 36.89 73.71 37.14
  A 1.06 0.97 85.8 0 1 74.39 37.78
  L 76.30 42.97
  A 1.15 1.10 -6.1 0 1 75.06 44.44
  Q 70.70 43.93 68.59 41.61
  Z"
/>
<path fill="#bd1819" d="
  M 68.59 41.61
  L 69.68 40.50
  Q 71.57 41.50 69.96 39.79
  Q 65.50 35.05 59.00 34.07
  A 1.37 0.95 -6.3 0 1 58.17 33.62
  Q 57.49 32.66 59.73 33.09
  Q 66.83 34.46 72.08 39.35
  Q 72.41 39.65 72.45 39.19
  Q 72.55 37.93 73.53 38.10
  A 0.87 0.82 -1.2 0 1 74.21 38.71
  L 75.43 43.59
  Q 75.64 44.45 74.79 44.10
  L 68.59 41.61
  Z"
/>
<path fill="#1e2627" d="
  M 7.46 37.50
  L 7.46 40.25
  Q 7.02 41.11 6.29 41.25
  Q 5.79 39.60 6.29 38.00
  Q 6.90 37.95 7.46 37.50
  Z"
/>
<path fill="#bd1819" d="
  M 30.49 41.34
  Q 30.18 41.14 29.94 40.81
  Q 28.09 38.30 26.69 40.69
  Q 25.00 43.56 23.11 40.83
  Q 21.15 37.98 19.17 41.56
  A 0.94 0.90 36.3 0 1 17.73 41.75
  L 15.53 39.66
  A 1.10 0.99 -48.0 0 0 14.01 39.82
  Q 12.08 42.11 11.38 41.92
  A 0.49 0.32 -54.3 0 1 11.41 41.21
  Q 12.27 40.32 13.15 39.46
  Q 13.20 39.42 13.89 38.59
  Q 15.21 37.04 16.89 39.81
  A 1.56 1.39 -36.7 0 0 19.15 40.01
  L 21.29 38.11
  A 0.62 0.51 44.3 0 1 22.04 38.17
  L 24.61 40.45
  A 0.62 0.57 44.1 0 0 25.41 40.47
  L 27.93 38.14
  A 0.64 0.48 -44.9 0 1 28.67 38.03
  L 30.76 39.81
  A 1.67 1.40 36.5 0 0 33.10 39.67
  Q 35.08 36.40 37.04 39.83
  Q 38.13 41.75 39.45 39.98
  Q 41.81 36.84 43.43 39.64
  Q 44.48 41.45 46.02 39.98
  L 47.95 38.15
  A 0.84 0.55 -48.4 0 1 48.79 37.92
  Q 49.15 38.13 48.53 38.78
  Q 47.31 40.06 45.65 41.72
  A 1.08 1.07 52.6 0 1 43.95 41.49
  Q 43.27 40.27 41.95 39.49
  A 0.70 0.67 -50.9 0 0 41.14 39.59
  L 38.62 41.92
  A 0.56 0.55 45.0 0 1 37.87 41.91
  Q 37.18 41.28 36.51 40.63
  Q 36.41 40.54 35.96 39.93
  Q 35.05 38.72 33.25 40.70
  Q 32.56 41.45 31.75 42.08
  Q 31.41 42.35 31.15 42.00
  Q 30.82 41.56 30.49 41.34
  Z"
/>
<path fill="#931f1c" d="
  M 7.46 40.25
  L 7.46 45.50
  Q 6.90 45.95 6.29 46.00
  L 6.29 41.25
  Q 7.02 41.11 7.46 40.25
  Z"
/>
<path fill="#bd1819" d="
  M 37.19 47.96
  Q 35.15 44.75 33.01 47.69
  Q 31.62 49.59 30.31 47.63
  Q 28.13 44.35 26.18 47.86
  A 1.26 1.22 -55.0 0 1 24.29 48.23
  L 22.44 46.60
  A 1.32 1.19 37.0 0 0 20.54 46.77
  Q 18.38 50.22 16.26 46.85
  A 1.27 1.27 -35.9 0 0 14.38 46.55
  Q 8.66 51.25 14.35 44.69
  A 0.90 0.90 50.4 0 1 15.80 44.83
  Q 18.24 49.02 20.70 45.47
  A 1.35 1.35 46.4 0 1 22.96 45.53
  Q 25.05 48.86 26.91 45.67
  Q 28.03 43.75 30.50 46.49
  A 1.52 1.48 -41.6 0 0 32.61 46.59
  L 34.62 44.83
  A 0.61 0.56 42.7 0 1 35.37 44.83
  L 38.09 46.96
  A 0.66 0.58 42.1 0 0 38.91 46.97
  L 41.19 44.89
  A 0.63 0.47 -45.7 0 1 41.91 44.78
  L 44.49 46.98
  A 0.81 0.73 43.1 0 0 45.53 47.00
  Q 48.22 44.43 48.51 45.00
  A 0.96 0.48 -40.5 0 1 48.14 45.86
  L 46.02 47.91
  Q 44.49 49.40 43.37 47.54
  Q 41.70 44.76 39.58 47.98
  Q 38.37 49.82 37.19 47.96
  Z"
/>
<path fill="#87978d" fill-opacity="0.988" d="
  M 54.29 45.00
  L 54.71 48.75
  L 54.63 87.40
  Q 54.51 86.16 54.00 86.46
  Q 53.87 78.15 54.00 74.50
  Q 54.37 64.12 53.96 53.75
  L 54.29 45.00
  Z"
/>
<path fill="#1e2627" d="
  M 7.46 45.50
  L 7.46 48.25
  L 6.29 49.50
  L 6.29 46.00
  Q 6.90 45.95 7.46 45.50
  Z"
/>
<path fill="#931f1c" d="
  M 7.46 48.25
  L 7.54 52.50
  Q 7.50 52.93 7.21 53.25
  Q 6.96 53.87 6.29 53.75
  Q 5.75 51.64 6.29 49.50
  L 7.46 48.25
  Z"
/>
<path fill="#0d100e" d="
  M 7.21 53.25
  L 7.54 54.25
  L 7.44 85.06
  A 0.51 0.50 90.0 0 0 7.94 85.57
  L 51.94 85.74
  A 0.56 0.56 0.3 0 0 52.50 85.18
  L 52.46 54.25
  L 53.96 53.75
  Q 54.37 64.12 54.00 74.50
  Q 53.87 78.15 54.00 86.46
  Q 30.26 87.37 6.50 86.96
  Q 5.87 70.36 6.29 53.75
  Q 6.96 53.87 7.21 53.25
  Z"
/>
<path fill="#ffffff" d="
  M 52.46 54.25
  L 52.50 85.18
  A 0.56 0.56 -0.2 0 1 51.94 85.74
  L 7.94 85.57
  A 0.51 0.50 90.0 0 1 7.44 85.06
  L 7.54 54.25
  L 52.46 54.25
  Z
  M 35.85 59.83
  Q 36.59 61.08 38.00 61.94
  A 0.69 0.67 -50.5 0 0 38.81 61.85
  L 40.93 59.82
  A 1.41 1.38 -37.7 0 1 43.08 60.07
  Q 44.44 62.28 45.42 61.93
  Q 45.51 61.90 46.99 60.43
  Q 47.95 59.48 48.77 58.41
  A 0.46 0.34 -46.2 0 0 48.83 57.93
  Q 48.72 57.78 48.55 57.77
  Q 48.37 57.76 48.12 57.98
  Q 46.70 59.26 45.35 60.63
  A 0.49 0.45 43.3 0 1 44.68 60.62
  L 42.04 58.13
  A 0.60 0.56 -44.6 0 0 41.25 58.15
  L 39.12 60.12
  A 1.35 1.33 -37.0 0 1 37.06 59.85
  Q 35.03 56.45 33.30 59.31
  Q 31.75 61.89 29.59 58.75
  A 1.35 1.26 51.1 0 0 27.62 58.47
  L 25.34 60.64
  A 0.48 0.47 45.4 0 1 24.68 60.63
  L 22.03 58.07
  A 0.56 0.52 -45.4 0 0 21.27 58.10
  L 18.83 60.54
  A 0.69 0.66 44.4 0 1 17.88 60.53
  L 15.38 58.08
  A 0.58 0.54 -43.4 0 0 14.62 58.08
  Q 13.10 59.45 11.69 60.94
  Q 11.25 61.40 11.29 61.81
  Q 11.37 62.50 11.91 61.95
  L 13.98 59.85
  A 1.54 1.22 40.6 0 1 15.84 59.92
  L 18.27 61.85
  A 0.65 0.49 -46.9 0 0 19.02 61.72
  L 21.33 59.50
  A 0.65 0.49 43.3 0 1 22.12 59.59
  L 24.64 61.92
  A 0.55 0.53 -45.0 0 0 25.37 61.91
  L 27.89 59.58
  A 0.69 0.66 -50.1 0 1 28.69 59.49
  Q 30.03 60.29 30.82 61.71
  A 0.89 0.89 -37.3 0 0 32.23 61.90
  L 34.47 59.66
  A 0.88 0.88 -37.9 0 1 35.85 59.83
  Z
  M 22.43 66.50
  Q 24.82 70.57 27.30 66.81
  A 1.31 1.30 45.2 0 1 29.49 66.82
  Q 31.74 70.32 33.72 66.96
  Q 34.86 65.04 36.05 66.92
  Q 38.20 70.29 40.65 66.79
  A 1.30 1.29 -45.4 0 1 42.76 66.77
  Q 43.70 68.08 44.78 68.58
  A 0.76 0.68 -55.7 0 0 45.60 68.38
  Q 46.81 67.07 47.92 65.70
  Q 49.40 63.87 47.64 65.05
  Q 47.45 65.18 47.31 65.38
  Q 44.84 69.06 42.69 65.06
  Q 41.73 63.28 40.06 65.81
  Q 38.30 68.49 36.59 65.64
  Q 35.64 64.06 34.06 65.40
  L 31.91 67.21
  A 0.61 0.49 45.8 0 1 31.19 67.12
  L 28.66 64.78
  A 0.61 0.53 -44.8 0 0 27.89 64.83
  L 25.90 66.65
  A 1.51 1.50 -36.8 0 1 23.59 66.32
  Q 21.72 63.22 19.99 66.02
  Q 18.30 68.74 16.45 65.67
  A 1.57 1.46 52.2 0 0 14.08 65.28
  L 11.58 67.86
  A 0.69 0.53 -44.9 0 0 11.47 68.70
  Q 11.75 69.01 12.23 68.47
  Q 12.94 67.69 13.58 66.85
  Q 15.12 64.86 17.04 67.97
  A 1.26 1.26 46.3 0 0 19.15 68.02
  Q 19.92 66.89 21.71 66.22
  A 0.62 0.58 64.6 0 1 22.43 66.50
  Z
  M 18.85 73.77
  A 1.36 1.23 54.3 0 1 16.80 73.33
  Q 15.30 70.40 13.98 71.97
  Q 12.83 73.34 11.59 74.64
  A 0.54 0.45 -49.4 0 0 11.58 75.38
  Q 12.05 75.71 12.57 75.04
  Q 13.44 73.94 14.64 72.74
  A 0.50 0.50 -0.0 0 1 15.36 72.74
  L 17.71 75.09
  A 0.61 0.52 45.7 0 0 18.50 75.16
  L 20.69 73.12
  A 1.44 1.19 -38.4 0 1 22.73 73.16
  Q 25.01 76.81 27.08 73.36
  Q 28.36 71.22 29.59 73.39
  Q 31.67 77.06 33.70 73.69
  Q 34.97 71.58 36.74 74.47
  A 1.58 1.43 53.0 0 0 39.04 74.91
  L 41.16 72.88
  A 0.66 0.46 -44.7 0 1 41.93 72.75
  L 44.25 75.00
  A 0.98 0.85 44.3 0 0 45.54 75.08
  Q 47.19 73.44 48.28 72.28
  Q 49.24 71.26 48.38 71.35
  A 1.10 0.78 -70.1 0 0 47.69 71.83
  Q 44.89 76.00 42.47 72.09
  A 1.23 1.23 -42.6 0 0 40.44 72.01
  Q 37.92 75.41 36.44 72.31
  Q 35.13 69.59 33.81 72.06
  Q 31.89 75.67 29.53 72.08
  A 1.32 1.31 -39.0 0 0 27.50 71.87
  L 25.36 74.01
  A 0.50 0.50 -0.0 0 1 24.64 74.01
  L 22.25 71.63
  A 0.95 0.92 -45.2 0 0 20.91 71.66
  L 18.85 73.77
  Z
  M 36.69 80.56
  Q 38.30 83.42 40.00 80.72
  Q 41.70 78.01 43.51 81.02
  Q 44.57 82.78 46.05 81.36
  Q 47.00 80.45 48.56 78.59
  Q 48.70 78.42 48.74 78.24
  Q 48.89 77.50 48.27 78.03
  Q 47.19 78.94 45.53 80.59
  A 0.84 0.81 46.9 0 1 44.33 80.53
  L 42.81 78.78
  Q 41.56 77.35 40.16 79.07
  Q 38.06 81.66 36.81 79.44
  Q 35.16 76.50 33.31 79.31
  Q 31.55 81.99 29.74 78.98
  A 1.48 1.39 52.3 0 0 27.50 78.62
  L 25.37 80.76
  A 0.52 0.50 -44.6 0 1 24.65 80.77
  L 22.05 78.18
  A 0.60 0.59 -44.7 0 0 21.20 78.18
  L 18.87 80.51
  A 0.76 0.70 44.1 0 1 17.85 80.48
  L 15.34 78.12
  A 0.58 0.55 -45.3 0 0 14.57 78.14
  L 11.66 80.95
  A 1.07 0.93 -28.7 0 0 11.34 81.81
  Q 11.48 82.76 12.37 81.39
  Q 14.96 77.41 17.61 81.59
  A 0.87 0.84 -38.8 0 0 18.94 81.71
  L 21.31 79.38
  A 0.56 0.52 44.1 0 1 22.05 79.40
  Q 23.02 80.33 24.00 81.24
  Q 25.72 82.84 27.25 79.82
  A 1.19 1.19 41.9 0 1 29.30 79.71
  Q 31.75 83.47 33.56 80.31
  Q 35.07 77.69 36.69 80.56
  Z"
/>
<path fill="#ffffff" d="
  M 123.2408 77.2697
  A 0.27 0.27 0.0 0 1 122.9703 77.5392
  L 89.4904 77.4808
  A 0.27 0.27 0.0 0 1 89.2209 77.2103
  L 89.2592 55.2503
  A 0.27 0.27 0.0 0 1 89.5297 54.9808
  L 123.0096 55.0392
  A 0.27 0.27 0.0 0 1 123.2791 55.3097
  L 123.2408 77.2697
  Z
  M 120.5700 58.5251
  A 0.26 0.26 0.0 0 0 120.3104 58.2646
  L 92.0905 58.2154
  A 0.26 0.26 0.0 0 0 91.8300 58.4749
  L 91.8300 58.4949
  A 0.26 0.26 0.0 0 0 92.0896 58.7554
  L 120.3095 58.8046
  A 0.26 0.26 0.0 0 0 120.5700 58.5451
  L 120.5700 58.5251
  Z
  M 120.6396 62.4941
  A 0.37 0.37 0.0 0 0 120.2677 62.1260
  L 92.0081 62.2740
  A 0.37 0.37 0.0 0 0 91.6400 62.6459
  L 91.6404 62.7059
  A 0.37 0.37 0.0 0 0 92.0123 63.0740
  L 120.2719 62.9260
  A 0.37 0.37 0.0 0 0 120.6400 62.5541
  L 120.6396 62.4941
  Z
  M 120.6102 66.5253
  A 0.27 0.27 0.0 0 0 120.3406 66.2548
  L 91.9407 66.2052
  A 0.27 0.27 0.0 0 0 91.6702 66.4747
  L 91.6698 66.6947
  A 0.27 0.27 0.0 0 0 91.9394 66.9652
  L 120.3393 67.0148
  A 0.27 0.27 0.0 0 0 120.6098 66.7453
  L 120.6102 66.5253
  Z
  M 120.7197 69.9948
  A 0.26 0.26 0.0 0 0 120.4592 69.7353
  L 92.0993 69.7847
  A 0.26 0.26 0.0 0 0 91.8397 70.0452
  L 91.8403 70.3652
  A 0.26 0.26 0.0 0 0 92.1008 70.6247
  L 120.4607 70.5753
  A 0.26 0.26 0.0 0 0 120.7203 70.3148
  L 120.7197 69.9948
  Z
  M 120.71 73.98
  A 0.48 0.48 0.0 0 0 120.23 73.50
  L 92.05 73.50
  A 0.48 0.48 0.0 0 0 91.57 73.98
  L 91.57 74.08
  A 0.48 0.48 0.0 0 0 92.05 74.56
  L 120.23 74.56
  A 0.48 0.48 0.0 0 0 120.71 74.08
  L 120.71 73.98
  Z"
/>
<path fill="#1e2627" d="
  M 35.85 59.83
  A 0.88 0.88 -37.9 0 0 34.47 59.66
  L 32.23 61.90
  A 0.89 0.89 -37.3 0 1 30.82 61.71
  Q 30.03 60.29 28.69 59.49
  A 0.69 0.66 -50.1 0 0 27.89 59.58
  L 25.37 61.91
  A 0.55 0.53 -45.0 0 1 24.64 61.92
  L 22.12 59.59
  A 0.65 0.49 43.3 0 0 21.33 59.50
  L 19.02 61.72
  A 0.65 0.49 -46.9 0 1 18.27 61.85
  L 15.84 59.92
  A 1.54 1.22 40.6 0 0 13.98 59.85
  L 11.91 61.95
  Q 11.37 62.50 11.29 61.81
  Q 11.25 61.40 11.69 60.94
  Q 13.10 59.45 14.62 58.08
  A 0.58 0.54 -43.4 0 1 15.38 58.08
  L 17.88 60.53
  A 0.69 0.66 44.4 0 0 18.83 60.54
  L 21.27 58.10
  A 0.56 0.52 -45.4 0 1 22.03 58.07
  L 24.68 60.63
  A 0.48 0.47 45.4 0 0 25.34 60.64
  L 27.62 58.47
  A 1.35 1.26 51.1 0 1 29.59 58.75
  Q 31.75 61.89 33.30 59.31
  Q 35.03 56.45 37.06 59.85
  A 1.35 1.33 -37.0 0 0 39.12 60.12
  L 41.25 58.15
  A 0.60 0.56 -44.6 0 1 42.04 58.13
  L 44.68 60.62
  A 0.49 0.45 43.3 0 0 45.35 60.63
  Q 46.70 59.26 48.12 57.98
  Q 48.37 57.76 48.55 57.77
  Q 48.72 57.78 48.83 57.93
  A 0.46 0.34 -46.2 0 1 48.77 58.41
  Q 47.95 59.48 46.99 60.43
  Q 45.51 61.90 45.42 61.93
  Q 44.44 62.28 43.08 60.07
  A 1.41 1.38 -37.7 0 0 40.93 59.82
  L 38.81 61.85
  A 0.69 0.67 -50.5 0 1 38.00 61.94
  Q 36.59 61.08 35.85 59.83
  Z"
/>
<rect fill="#c57778" x="-14.37" y="-0.27" transform="translate(106.20,58.51) rotate(0.1)" width="28.74" height="0.54" rx="0.26"/>
<rect fill="#c57778" x="-14.50" y="-0.40" transform="translate(106.14,62.60) rotate(-0.3)" width="29.00" height="0.80" rx="0.37"/>
<path fill="#1e2627" d="
  M 21.71 66.22
  Q 19.92 66.89 19.15 68.02
  A 1.26 1.26 46.3 0 1 17.04 67.97
  Q 15.12 64.86 13.58 66.85
  Q 12.94 67.69 12.23 68.47
  Q 11.75 69.01 11.47 68.70
  A 0.69 0.53 -44.9 0 1 11.58 67.86
  L 14.08 65.28
  A 1.57 1.46 52.2 0 1 16.45 65.67
  Q 18.30 68.74 19.99 66.02
  Q 21.72 63.22 23.59 66.32
  A 1.51 1.50 -36.8 0 0 25.90 66.65
  L 27.89 64.83
  A 0.61 0.53 -44.8 0 1 28.66 64.78
  L 31.19 67.12
  A 0.61 0.49 45.8 0 0 31.91 67.21
  L 34.06 65.40
  Q 35.64 64.06 36.59 65.64
  Q 38.30 68.49 40.06 65.81
  Q 41.73 63.28 42.69 65.06
  Q 44.84 69.06 47.31 65.38
  Q 47.45 65.18 47.64 65.05
  Q 49.40 63.87 47.92 65.70
  Q 46.81 67.07 45.60 68.38
  A 0.76 0.68 -55.7 0 1 44.78 68.58
  Q 43.70 68.08 42.76 66.77
  A 1.30 1.29 -45.4 0 0 40.65 66.79
  Q 38.20 70.29 36.05 66.92
  Q 34.86 65.04 33.72 66.96
  Q 31.74 70.32 29.49 66.82
  A 1.31 1.30 45.2 0 0 27.30 66.81
  Q 24.82 70.57 22.43 66.50
  A 0.62 0.58 64.6 0 0 21.71 66.22
  Z"
/>
<rect fill="#c57778" x="-14.47" y="-0.38" transform="translate(106.14,66.61) rotate(0.1)" width="28.94" height="0.76" rx="0.27"/>
<rect fill="#c57778" x="-14.44" y="-0.42" transform="translate(106.28,70.18) rotate(-0.1)" width="28.88" height="0.84" rx="0.26"/>
<path fill="#0d100e" d="
  M 18.85 73.77
  L 20.91 71.66
  A 0.95 0.92 -45.2 0 1 22.25 71.63
  L 24.64 74.01
  A 0.50 0.50 90.0 0 0 25.36 74.01
  L 27.50 71.87
  A 1.32 1.31 -39.0 0 1 29.53 72.08
  Q 31.89 75.67 33.81 72.06
  Q 35.13 69.59 36.44 72.31
  Q 37.92 75.41 40.44 72.01
  A 1.23 1.23 -42.6 0 1 42.47 72.09
  Q 44.89 76.00 47.69 71.83
  A 1.10 0.78 -70.1 0 1 48.38 71.35
  Q 49.24 71.26 48.28 72.28
  Q 47.19 73.44 45.54 75.08
  A 0.98 0.85 44.3 0 1 44.25 75.00
  L 41.93 72.75
  A 0.66 0.46 -44.7 0 0 41.16 72.88
  L 39.04 74.91
  A 1.58 1.43 53.0 0 1 36.74 74.47
  Q 34.97 71.58 33.70 73.69
  Q 31.67 77.06 29.59 73.39
  Q 28.36 71.22 27.08 73.36
  Q 25.01 76.81 22.73 73.16
  A 1.44 1.19 -38.4 0 0 20.69 73.12
  L 18.50 75.16
  A 0.61 0.52 45.7 0 1 17.71 75.09
  L 15.36 72.74
  A 0.50 0.50 90.0 0 0 14.64 72.74
  Q 13.44 73.94 12.57 75.04
  Q 12.05 75.71 11.58 75.38
  A 0.54 0.45 -49.4 0 1 11.59 74.64
  Q 12.83 73.34 13.98 71.97
  Q 15.30 70.40 16.80 73.33
  A 1.36 1.23 54.3 0 0 18.85 73.77
  Z"
/>
<rect fill="#f2b4b4" x="91.57" y="73.50" width="29.14" height="1.06" rx="0.48"/>
<path fill="#0d100e" d="
  M 36.69 80.56
  Q 35.07 77.69 33.56 80.31
  Q 31.75 83.47 29.30 79.71
  A 1.19 1.19 41.9 0 0 27.25 79.82
  Q 25.72 82.84 24.00 81.24
  Q 23.02 80.33 22.05 79.40
  A 0.56 0.52 44.1 0 0 21.31 79.38
  L 18.94 81.71
  A 0.87 0.84 -38.8 0 1 17.61 81.59
  Q 14.96 77.41 12.37 81.39
  Q 11.48 82.76 11.34 81.81
  A 1.07 0.93 -28.7 0 1 11.66 80.95
  L 14.57 78.14
  A 0.58 0.55 -45.3 0 1 15.34 78.12
  L 17.85 80.48
  A 0.76 0.70 44.1 0 0 18.87 80.51
  L 21.20 78.18
  A 0.60 0.59 -44.7 0 1 22.05 78.18
  L 24.65 80.77
  A 0.52 0.50 -44.6 0 0 25.37 80.76
  L 27.50 78.62
  A 1.48 1.39 52.3 0 1 29.74 78.98
  Q 31.55 81.99 33.31 79.31
  Q 35.16 76.50 36.81 79.44
  Q 38.06 81.66 40.16 79.07
  Q 41.56 77.35 42.81 78.78
  L 44.33 80.53
  A 0.84 0.81 46.9 0 0 45.53 80.59
  Q 47.19 78.94 48.27 78.03
  Q 48.89 77.50 48.74 78.24
  Q 48.70 78.42 48.56 78.59
  Q 47.00 80.45 46.05 81.36
  Q 44.57 82.78 43.51 81.02
  Q 41.70 78.01 40.00 80.72
  Q 38.30 83.42 36.69 80.56
  Z"
/>
<path fill="#d1d6d3" fill-opacity="0.988" d="
  M 54.00 86.46
  Q 54.51 86.16 54.63 87.40
  L 5.48 87.78
  Q 5.86 86.71 6.50 86.96
  Q 30.26 87.37 54.00 86.46
  Z"
/>
</svg>
