<?xml version="1.0" encoding="UTF-8" standalone="no"?>
<!DOCTYPE svg PUBLIC "-//W3C//DTD SVG 1.1//EN" "http://www.w3.org/Graphics/SVG/1.1/DTD/svg11.dtd">
<svg xmlns="http://www.w3.org/2000/svg" version="1.1" viewBox="0 0 140 100">
<g stroke-width="2.00" fill="none" stroke-linecap="butt">
<path stroke="#cd5754" stroke-opacity="0.996" vector-effect="non-scaling-stroke" d="
  M 123.75 24.96
  Q 123.72 26.45 121.97 25.84
  Q 97.21 17.30 72.71 8.49
  A 0.79 0.78 -81.0 0 1 72.19 7.76
  Q 72.18 5.49 71.04 4.68
  Q 69.69 3.72 68.61 4.99
  Q 67.81 5.92 67.67 7.84
  A 1.06 1.05 82.4 0 1 66.97 8.76
  Q 42.41 17.41 18.00 26.00
  Q 16.02 26.70 15.53 24.56
  A 1.72 1.16 -85.2 0 0 15.06 23.72
  Q 12.44 21.53 11.06 24.98
  Q 10.22 27.08 9.45 25.63"
/>
<path stroke="#d1675e" stroke-opacity="0.988" vector-effect="non-scaling-stroke" d="
  M 124.00 24.21
  Q 126.62 21.66 128.54 24.01
  Q 128.58 24.06 129.13 25.21
  Q 129.56 26.10 130.75 25.96"
/>
<path stroke="#a85c58" stroke-opacity="0.988" vector-effect="non-scaling-stroke" d="
  M 131.21 32.00
  Q 129.02 31.55 127.44 32.74
  A 1.25 0.76 82.9 0 0 127.08 33.55
  L 126.71 37.50"
/>
<path stroke="#752927" vector-effect="non-scaling-stroke" d="
  M 126.71 37.50
  Q 126.30 37.83 125.79 37.75"
/>
<path stroke="#b66966" vector-effect="non-scaling-stroke" d="
  M 125.79 37.75
  Q 125.05 37.21 124.56 37.60
  Q 124.25 37.85 124.25 38.51
  Q 124.10 57.47 124.06 76.43
  Q 124.06 77.04 124.33 77.37
  Q 124.88 78.08 125.54 77.25"
/>
<path stroke="#752927" vector-effect="non-scaling-stroke" d="
  M 125.54 77.25
  L 126.96 77.25"
/>
<path stroke="#a85c58" stroke-opacity="0.988" vector-effect="non-scaling-stroke" d="
  M 126.96 77.25
  L 127.14 79.51
  Q 127.19 80.20 127.13 80.50
  Q 126.64 83.15 129.50 83.00
  Q 130.95 82.92 131.21 83.75"
/>
<path stroke="#d1675e" stroke-opacity="0.988" vector-effect="non-scaling-stroke" d="
  M 131.46 86.75
  Q 130.84 87.57 131.59 87.93
  A 3.48 3.44 51.9 0 0 133.71 88.20
  Q 137.19 87.54 137.14 89.65
  Q 137.10 91.09 137.11 91.36
  Q 137.18 92.62 136.67 93.74
  A 0.82 0.75 11.0 0 1 135.94 94.18
  L 3.92 94.07
  A 0.92 0.91 -0.0 0 1 3.00 93.16
  L 3.00 88.66
  A 0.66 0.66 3.8 0 1 3.66 88.00
  Q 6.25 88.00 8.24 87.85
  Q 9.54 87.75 8.75 86.71"
/>
<path stroke="#a85c58" stroke-opacity="0.988" vector-effect="non-scaling-stroke" d="
  M 8.79 83.00
  L 11.79 83.06
  A 0.93 0.90 2.2 0 0 12.74 82.21
  L 13.04 77.25"
/>
<path stroke="#752927" vector-effect="non-scaling-stroke" d="
  M 13.04 77.25
  L 14.71 77.00"
/>
<path stroke="#c68183" vector-effect="non-scaling-stroke" d="
  M 14.71 77.00
  Q 15.10 77.92 15.57 77.29
  Q 15.75 77.05 15.77 76.66
  Q 16.69 57.33 15.23 37.98"
/>
<path stroke="#752927" vector-effect="non-scaling-stroke" d="
  M 15.23 37.98
  Q 13.49 38.17 13.04 37.75"
/>
<path stroke="#a85c58" stroke-opacity="0.988" vector-effect="non-scaling-stroke" d="
  M 13.04 37.75
  L 12.50 32.46"
/>
<path stroke="#d1675e" stroke-opacity="0.988" vector-effect="non-scaling-stroke" d="
  M 12.50 32.46
  Q 10.78 31.70 8.96 32.25"
/>
<path stroke="#818e8f" vector-effect="non-scaling-stroke" d="
  M 15.23 37.98
  Q 14.39 57.57 14.71 77.00"
/>
<path stroke="#626a64" stroke-opacity="0.988" vector-effect="non-scaling-stroke" d="
  M 13.04 37.75
  L 13.04 77.25"
/>
<path stroke="#626a64" stroke-opacity="0.988" vector-effect="non-scaling-stroke" d="
  M 126.96 77.25
  L 126.71 37.50"
/>
<path stroke="#717672" vector-effect="non-scaling-stroke" d="
  M 125.79 37.75
  L 125.54 77.25"
/>
<path stroke="#d1675e" stroke-opacity="0.988" vector-effect="non-scaling-stroke" d="
  M 69.3963 7.2917
  A 0.81 0.72 134.1 0 0 70.4771 7.2111
  A 0.81 0.72 134.1 0 0 70.5237 6.1283
  A 0.81 0.72 134.1 0 0 69.4429 6.2089
  A 0.81 0.72 134.1 0 0 69.3963 7.2917"
/>
<path stroke="#d66868" vector-effect="non-scaling-stroke" d="
  M 84.92 17.36
  Q 94.70 20.88 104.52 24.25
  Q 104.59 24.27 106.33 24.95
  Q 109.28 26.08 112.50 25.73
  Q 113.73 25.59 114.89 25.90
  A 0.86 0.55 24.8 0 0 115.57 25.81
  Q 115.93 25.50 115.25 25.26
  Q 93.13 17.31 70.49 9.41
  A 1.44 1.44 -45.5 0 0 69.53 9.41
  Q 46.97 17.28 24.56 25.31
  Q 23.92 25.54 24.21 25.81
  A 0.85 0.50 -17.0 0 0 24.84 25.96
  Q 27.06 25.72 29.28 25.71
  Q 31.65 25.69 33.58 24.99
  Q 51.48 18.50 69.52 12.41
  A 1.56 1.50 -44.4 0 1 70.47 12.40
  Q 77.73 14.77 84.92 17.36"
/>
<path stroke="#d66868" vector-effect="non-scaling-stroke" d="
  M 74.81 15.69
  Q 72.52 14.90 70.97 14.54
  Q 69.28 14.15 67.12 14.93
  Q 52.76 20.13 38.30 25.07
  Q 36.48 25.69 38.40 25.69
  L 101.76 25.75
  Q 103.15 25.75 101.85 25.28
  Q 88.41 20.39 74.81 15.69"
/>
<path stroke="#cd5754" stroke-opacity="0.996" vector-effect="non-scaling-stroke" d="
  M 12.78 25.36
  Q 13.15 26.83 13.82 25.21
  A 0.95 0.84 -53.0 0 0 13.75 24.33
  Q 13.18 23.50 12.81 24.51
  Q 12.67 24.92 12.78 25.36"
/>
<path stroke="#d1675e" stroke-opacity="0.988" vector-effect="non-scaling-stroke" d="
  M 126.26 25.09
  Q 126.58 26.66 127.26 25.03
  A 0.80 0.67 -59.6 0 0 127.12 24.18
  Q 126.67 23.79 126.36 24.30
  Q 126.16 24.63 126.26 25.09"
/>
<path stroke="#d66868" vector-effect="non-scaling-stroke" d="
  M 128.99 27.78
  A 0.27 0.27 0.0 0 0 128.72 27.51
  L 11.30 27.51
  A 0.27 0.27 0.0 0 0 11.03 27.78
  L 11.03 30.48
  A 0.27 0.27 0.0 0 0 11.30 30.75
  L 128.72 30.75
  A 0.27 0.27 0.0 0 0 128.99 30.48
  L 128.99 27.78"
/>
<path stroke="#d66868" vector-effect="non-scaling-stroke" d="
  M 31.01 32.94
  A 0.43 0.43 0.0 0 0 30.58 32.51
  L 14.94 32.51
  A 0.43 0.43 0.0 0 0 14.51 32.94
  L 14.51 35.32
  A 0.43 0.43 0.0 0 0 14.94 35.75
  L 30.58 35.75
  A 0.43 0.43 0.0 0 0 31.01 35.32
  L 31.01 32.94"
/>
<path stroke="#b66966" vector-effect="non-scaling-stroke" d="
  M 37.06 77.72
  L 39.20 77.29
  A 0.61 0.61 -5.8 0 0 39.69 76.69
  L 39.75 38.68
  A 1.15 1.15 1.3 0 0 38.65 37.53
  Q 35.83 37.40 36.44 34.99
  Q 37.26 31.74 34.01 32.50
  A 1.43 1.43 77.3 0 0 32.94 34.20
  Q 33.80 38.20 30.18 37.49
  A 0.57 0.57 -84.2 0 0 29.50 38.05
  L 29.50 76.90
  A 0.57 0.57 83.9 0 0 30.19 77.46
  Q 33.80 76.70 32.93 80.48
  Q 32.31 83.19 36.02 82.24
  A 0.68 0.66 82.8 0 0 36.51 81.59
  L 36.53 78.30
  A 0.67 0.59 -6.2 0 1 37.06 77.72"
/>
<path stroke="#d66868" vector-effect="non-scaling-stroke" d="
  M 54.75 33.24
  A 0.74 0.74 0.0 0 0 54.01 32.50
  L 38.99 32.50
  A 0.74 0.74 0.0 0 0 38.25 33.24
  L 38.25 35.02
  A 0.74 0.74 0.0 0 0 38.99 35.76
  L 54.01 35.76
  A 0.74 0.74 0.0 0 0 54.75 35.02
  L 54.75 33.24"
/>
<path stroke="#b66966" vector-effect="non-scaling-stroke" d="
  M 55.20 37.36
  L 53.78 37.65
  A 0.68 0.59 84.8 0 0 53.31 38.30
  L 53.25 76.78
  A 0.71 0.71 -6.5 0 0 54.12 77.47
  Q 57.26 76.74 56.46 79.99
  Q 55.64 83.31 59.45 82.32
  A 0.91 0.91 76.7 0 0 60.11 81.25
  Q 59.15 76.73 62.81 77.46
  A 0.58 0.57 5.8 0 0 63.50 76.90
  L 63.50 38.20
  A 0.80 0.79 82.5 0 0 62.50 37.43
  Q 60.44 37.99 60.23 36.47
  Q 60.00 34.88 60.00 33.36
  A 0.72 0.71 -84.0 0 0 59.44 32.66
  Q 55.84 31.84 56.70 35.63
  A 1.82 1.37 -12.1 0 1 55.20 37.36"
/>
<path stroke="#d66868" vector-effect="non-scaling-stroke" d="
  M 78.50 33.10
  A 0.60 0.60 0.0 0 0 77.90 32.50
  L 62.60 32.50
  A 0.60 0.60 0.0 0 0 62.00 33.10
  L 62.00 35.16
  A 0.60 0.60 0.0 0 0 62.60 35.76
  L 77.90 35.76
  A 0.60 0.60 0.0 0 0 78.50 35.16
  L 78.50 33.10"
/>
<path stroke="#b66966" vector-effect="non-scaling-stroke" d="
  M 84.09 36.98
  Q 83.38 35.33 83.80 33.54
  A 0.63 0.58 -71.2 0 0 83.49 32.84
  Q 79.46 30.96 80.14 35.77
  Q 80.45 37.96 78.18 37.48
  A 0.98 0.98 5.8 0 0 77.00 38.44
  L 77.06 76.93
  A 0.44 0.43 -3.5 0 0 77.55 77.36
  Q 81.08 76.96 80.14 81.25
  A 0.98 0.97 12.8 0 0 80.88 82.41
  Q 84.51 83.26 83.79 79.99
  Q 83.15 77.01 86.28 77.55
  A 0.62 0.61 4.8 0 0 87.00 76.95
  L 86.94 38.32
  A 0.69 0.54 -87.3 0 0 86.47 37.65
  L 84.80 37.41
  A 0.96 0.65 -2.7 0 1 84.09 36.98"
/>
<path stroke="#d66868" vector-effect="non-scaling-stroke" d="
  M 102.00 32.93
  A 0.42 0.42 0.0 0 0 101.58 32.51
  L 85.92 32.51
  A 0.42 0.42 0.0 0 0 85.50 32.93
  L 85.50 35.33
  A 0.42 0.42 0.0 0 0 85.92 35.75
  L 101.58 35.75
  A 0.42 0.42 0.0 0 0 102.00 35.33
  L 102.00 32.93"
/>
<path stroke="#b66966" vector-effect="non-scaling-stroke" d="
  M 108.04 77.68
  L 110.19 77.42
  A 0.57 0.48 -4.0 0 0 110.69 76.93
  L 110.75 38.42
  A 0.87 0.86 -6.6 0 0 109.68 37.58
  Q 106.74 38.26 107.50 35.00
  Q 108.26 31.74 105.02 32.49
  A 1.44 1.44 77.4 0 0 103.94 34.20
  Q 104.80 38.30 100.99 37.50
  A 0.36 0.35 6.0 0 0 100.56 37.84
  Q 100.46 56.36 100.50 74.91
  Q 100.50 75.00 100.41 76.07
  Q 100.25 77.99 102.52 77.50
  A 1.18 1.17 82.7 0 1 103.95 78.61
  L 104.05 81.94
  A 0.54 0.52 89.4 0 0 104.57 82.47
  L 106.84 82.50
  A 0.72 0.67 -90.0 0 0 107.51 81.78
  L 107.53 78.31
  A 0.65 0.58 87.6 0 1 108.04 77.68"
/>
<path stroke="#d66868" vector-effect="non-scaling-stroke" d="
  M 125.74 33.00
  A 0.51 0.51 0.0 0 0 125.23 32.49
  L 109.75 32.49
  A 0.51 0.51 0.0 0 0 109.24 33.00
  L 109.24 35.24
  A 0.51 0.51 0.0 0 0 109.75 35.75
  L 125.23 35.75
  A 0.51 0.51 0.0 0 0 125.74 35.24
  L 125.74 33.00"
/>
<path stroke="#d66868" vector-effect="non-scaling-stroke" d="
  M 27.74 37.93
  A 0.43 0.43 0.0 0 0 27.31 37.50
  L 18.43 37.50
  A 0.43 0.43 0.0 0 0 18.00 37.93
  L 18.00 77.07
  A 0.43 0.43 0.0 0 0 18.43 77.50
  L 27.31 77.50
  A 0.43 0.43 0.0 0 0 27.74 77.07
  L 27.74 37.93"
/>
<path stroke="#d66868" vector-effect="non-scaling-stroke" d="
  M 51.50 38.01
  A 0.51 0.51 0.0 0 0 50.99 37.50
  L 42.01 37.50
  A 0.51 0.51 0.0 0 0 41.50 38.01
  L 41.50 76.99
  A 0.51 0.51 0.0 0 0 42.01 77.50
  L 50.99 77.50
  A 0.51 0.51 0.0 0 0 51.50 76.99
  L 51.50 38.01"
/>
<path stroke="#d66868" vector-effect="non-scaling-stroke" d="
  M 75.01 38.02
  A 0.52 0.52 0.0 0 0 74.49 37.50
  L 65.77 37.50
  A 0.52 0.52 0.0 0 0 65.25 38.02
  L 65.25 76.98
  A 0.52 0.52 0.0 0 0 65.77 77.50
  L 74.49 77.50
  A 0.52 0.52 0.0 0 0 75.01 76.98
  L 75.01 38.02"
/>
<path stroke="#d66868" vector-effect="non-scaling-stroke" d="
  M 98.75 38.02
  A 0.52 0.52 0.0 0 0 98.23 37.50
  L 89.51 37.50
  A 0.52 0.52 0.0 0 0 88.99 38.02
  L 88.99 76.98
  A 0.52 0.52 0.0 0 0 89.51 77.50
  L 98.23 77.50
  A 0.52 0.52 0.0 0 0 98.75 76.98
  L 98.75 38.02"
/>
<path stroke="#d66868" vector-effect="non-scaling-stroke" d="
  M 122.50 38.14
  A 0.64 0.64 0.0 0 0 121.86 37.50
  L 113.14 37.50
  A 0.64 0.64 0.0 0 0 112.50 38.14
  L 112.50 76.86
  A 0.64 0.64 0.0 0 0 113.14 77.50
  L 121.86 77.50
  A 0.64 0.64 0.0 0 0 122.50 76.86
  L 122.50 38.14"
/>
<path stroke="#d66868" vector-effect="non-scaling-stroke" d="
  M 30.9844 79.6187
  A 0.36 0.36 0.0 0 0 30.6256 79.2575
  L 14.8857 79.2025
  A 0.36 0.36 0.0 0 0 14.5245 79.5613
  L 14.5156 82.1013
  A 0.36 0.36 0.0 0 0 14.8744 82.4625
  L 30.6143 82.5175
  A 0.36 0.36 0.0 0 0 30.9755 82.1587
  L 30.9844 79.6187"
/>
<path stroke="#d66868" vector-effect="non-scaling-stroke" d="
  M 54.74 79.76
  A 0.51 0.51 0.0 0 0 54.23 79.25
  L 38.75 79.25
  A 0.51 0.51 0.0 0 0 38.24 79.76
  L 38.24 82.00
  A 0.51 0.51 0.0 0 0 38.75 82.51
  L 54.23 82.51
  A 0.51 0.51 0.0 0 0 54.74 82.00
  L 54.74 79.76"
/>
<path stroke="#d66868" vector-effect="non-scaling-stroke" d="
  M 78.49 79.57
  A 0.31 0.31 0.0 0 0 78.18 79.26
  L 62.30 79.26
  A 0.31 0.31 0.0 0 0 61.99 79.57
  L 61.99 82.19
  A 0.31 0.31 0.0 0 0 62.30 82.50
  L 78.18 82.50
  A 0.31 0.31 0.0 0 0 78.49 82.19
  L 78.49 79.57"
/>
<path stroke="#d66868" vector-effect="non-scaling-stroke" d="
  M 102.01 79.69
  A 0.43 0.43 0.0 0 0 101.58 79.26
  L 85.94 79.26
  A 0.43 0.43 0.0 0 0 85.51 79.69
  L 85.51 82.07
  A 0.43 0.43 0.0 0 0 85.94 82.50
  L 101.58 82.50
  A 0.43 0.43 0.0 0 0 102.01 82.07
  L 102.01 79.69"
/>
<path stroke="#d66868" vector-effect="non-scaling-stroke" d="
  M 125.75 79.68
  A 0.42 0.42 0.0 0 0 125.33 79.26
  L 109.67 79.26
  A 0.42 0.42 0.0 0 0 109.25 79.68
  L 109.25 82.08
  A 0.42 0.42 0.0 0 0 109.67 82.50
  L 125.33 82.50
  A 0.42 0.42 0.0 0 0 125.75 82.08
  L 125.75 79.68"
/>
<path stroke="#d66868" vector-effect="non-scaling-stroke" d="
  M 129.00 84.79
  A 0.55 0.55 0.0 0 0 128.45 84.24
  L 11.43 84.24
  A 0.55 0.55 0.0 0 0 10.88 84.79
  L 10.88 86.95
  A 0.55 0.55 0.0 0 0 11.43 87.50
  L 128.45 87.50
  A 0.55 0.55 0.0 0 0 129.00 86.95
  L 129.00 84.79"
/>
<path stroke="#d66868" vector-effect="non-scaling-stroke" d="
  M 135.72 89.56
  A 0.32 0.32 0.0 0 0 135.40 89.24
  L 4.58 89.24
  A 0.32 0.32 0.0 0 0 4.26 89.56
  L 4.26 92.18
  A 0.32 0.32 0.0 0 0 4.58 92.50
  L 135.40 92.50
  A 0.32 0.32 0.0 0 0 135.72 92.18
  L 135.72 89.56"
/>
<path stroke="#ab0e0e" vector-effect="non-scaling-stroke" d="
  M 63.94 93.31
  Q 68.84 93.46 85.25 93.50
  Q 89.35 93.51 92.19 92.92
  Q 92.74 92.81 92.19 92.81
  L 63.05 92.81
  Q 62.19 92.81 62.94 93.14
  Q 63.29 93.29 63.94 93.31"
/>
<path stroke="#d66868" vector-effect="non-scaling-stroke" d="
  M 74.19 20.03
  A 4.19 4.19 0.0 0 0 70.00 15.84
  A 4.19 4.19 0.0 0 0 65.81 20.03
  A 4.19 4.19 0.0 0 0 70.00 24.22
  A 4.19 4.19 0.0 0 0 74.19 20.03"
/>
<path stroke="#d66868" vector-effect="non-scaling-stroke" d="
  M 72.43 19.99
  A 2.43 2.43 0.0 0 0 70.00 17.56
  A 2.43 2.43 0.0 0 0 67.57 19.99
  A 2.43 2.43 0.0 0 0 70.00 22.42
  A 2.43 2.43 0.0 0 0 72.43 19.99"
/>
</g>
<path fill="#e1948d" fill-opacity="0.992" d="
  M 123.75 24.96
  Q 123.72 26.45 121.97 25.84
  Q 97.21 17.30 72.71 8.49
  A 0.79 0.78 -81.0 0 1 72.19 7.76
  Q 72.18 5.49 71.04 4.68
  Q 69.69 3.72 68.61 4.99
  Q 67.81 5.92 67.67 7.84
  A 1.06 1.05 82.4 0 1 66.97 8.76
  Q 42.41 17.41 18.00 26.00
  Q 16.02 26.70 15.53 24.56
  A 1.72 1.16 -85.2 0 0 15.06 23.72
  Q 12.44 21.53 11.06 24.98
  Q 10.22 27.08 9.45 25.63
  Q 12.83 18.77 16.51 24.94
  A 0.97 0.97 64.7 0 0 17.67 25.36
  L 66.59 7.99
  A 0.68 0.62 78.7 0 0 67.00 7.31
  Q 66.91 5.93 67.70 4.90
  Q 68.43 3.94 69.73 3.78
  Q 72.09 3.50 72.82 5.96
  A 1.46 0.35 -71.7 0 1 72.74 6.89
  Q 72.63 7.35 72.91 7.76
  Q 73.10 8.03 73.58 8.20
  Q 97.03 16.50 120.50 24.75
  Q 122.52 25.46 123.75 24.96
  Z"
/>
<path fill="#ba1b1b" d="
  M 123.75 24.96
  Q 123.60 24.46 124.00 24.21
  Q 126.62 21.66 128.54 24.01
  Q 128.58 24.06 129.13 25.21
  Q 129.56 26.10 130.75 25.96
  Q 131.66 28.90 131.21 32.00
  Q 129.02 31.55 127.44 32.74
  A 1.25 0.76 82.9 0 0 127.08 33.55
  L 126.71 37.50
  Q 126.30 37.83 125.79 37.75
  Q 125.05 37.21 124.56 37.60
  Q 124.25 37.85 124.25 38.51
  Q 124.10 57.47 124.06 76.43
  Q 124.06 77.04 124.33 77.37
  Q 124.88 78.08 125.54 77.25
  L 126.96 77.25
  L 127.14 79.51
  Q 127.19 80.20 127.13 80.50
  Q 126.64 83.15 129.50 83.00
  Q 130.95 82.92 131.21 83.75
  L 131.46 86.75
  Q 130.84 87.57 131.59 87.93
  A 3.48 3.44 51.9 0 0 133.71 88.20
  Q 137.19 87.54 137.14 89.65
  Q 137.10 91.09 137.11 91.36
  Q 137.18 92.62 136.67 93.74
  A 0.82 0.75 11.0 0 1 135.94 94.18
  L 3.92 94.07
  A 0.92 0.91 -0.0 0 1 3.00 93.16
  L 3.00 88.66
  A 0.66 0.66 3.8 0 1 3.66 88.00
  Q 6.25 88.00 8.24 87.85
  Q 9.54 87.75 8.75 86.71
  L 8.79 83.00
  L 11.79 83.06
  A 0.93 0.90 2.2 0 0 12.74 82.21
  L 13.04 77.25
  L 14.71 77.00
  Q 15.10 77.92 15.57 77.29
  Q 15.75 77.05 15.77 76.66
  Q 16.69 57.33 15.23 37.98
  Q 13.49 38.17 13.04 37.75
  L 12.50 32.46
  Q 10.78 31.70 8.96 32.25
  Q 8.08 28.61 9.45 25.63
  Q 10.22 27.08 11.06 24.98
  Q 12.44 21.53 15.06 23.72
  A 1.72 1.16 -85.2 0 1 15.53 24.56
  Q 16.02 26.70 18.00 26.00
  Q 42.41 17.41 66.97 8.76
  A 1.06 1.05 82.4 0 0 67.67 7.84
  Q 67.81 5.92 68.61 4.99
  Q 69.69 3.72 71.04 4.68
  Q 72.18 5.49 72.19 7.76
  A 0.79 0.78 -81.0 0 0 72.71 8.49
  Q 97.21 17.30 121.97 25.84
  Q 123.72 26.45 123.75 24.96
  Z
  M 69.3963 7.2917
  A 0.81 0.72 134.1 0 0 70.4771 7.2111
  A 0.81 0.72 134.1 0 0 70.5237 6.1283
  A 0.81 0.72 134.1 0 0 69.4429 6.2089
  A 0.81 0.72 134.1 0 0 69.3963 7.2917
  Z
  M 84.92 17.36
  Q 94.70 20.88 104.52 24.25
  Q 104.59 24.27 106.33 24.95
  Q 109.28 26.08 112.50 25.73
  Q 113.73 25.59 114.89 25.90
  A 0.86 0.55 24.8 0 0 115.57 25.81
  Q 115.93 25.50 115.25 25.26
  Q 93.13 17.31 70.49 9.41
  A 1.44 1.44 -45.5 0 0 69.53 9.41
  Q 46.97 17.28 24.56 25.31
  Q 23.92 25.54 24.21 25.81
  A 0.85 0.50 -17.0 0 0 24.84 25.96
  Q 27.06 25.72 29.28 25.71
  Q 31.65 25.69 33.58 24.99
  Q 51.48 18.50 69.52 12.41
  A 1.56 1.50 -44.4 0 1 70.47 12.40
  Q 77.73 14.77 84.92 17.36
  Z
  M 74.81 15.69
  Q 72.52 14.90 70.97 14.54
  Q 69.28 14.15 67.12 14.93
  Q 52.76 20.13 38.30 25.07
  Q 36.48 25.69 38.40 25.69
  L 101.76 25.75
  Q 103.15 25.75 101.85 25.28
  Q 88.41 20.39 74.81 15.69
  Z
  M 12.78 25.36
  Q 13.15 26.83 13.82 25.21
  A 0.95 0.84 -53.0 0 0 13.75 24.33
  Q 13.18 23.50 12.81 24.51
  Q 12.67 24.92 12.78 25.36
  Z
  M 126.26 25.09
  Q 126.58 26.66 127.26 25.03
  A 0.80 0.67 -59.6 0 0 127.12 24.18
  Q 126.67 23.79 126.36 24.30
  Q 126.16 24.63 126.26 25.09
  Z
  M 128.99 27.78
  A 0.27 0.27 0.0 0 0 128.72 27.51
  L 11.30 27.51
  A 0.27 0.27 0.0 0 0 11.03 27.78
  L 11.03 30.48
  A 0.27 0.27 0.0 0 0 11.30 30.75
  L 128.72 30.75
  A 0.27 0.27 0.0 0 0 128.99 30.48
  L 128.99 27.78
  Z
  M 31.01 32.94
  A 0.43 0.43 0.0 0 0 30.58 32.51
  L 14.94 32.51
  A 0.43 0.43 0.0 0 0 14.51 32.94
  L 14.51 35.32
  A 0.43 0.43 0.0 0 0 14.94 35.75
  L 30.58 35.75
  A 0.43 0.43 0.0 0 0 31.01 35.32
  L 31.01 32.94
  Z
  M 37.06 77.72
  L 39.20 77.29
  A 0.61 0.61 -5.8 0 0 39.69 76.69
  L 39.75 38.68
  A 1.15 1.15 1.3 0 0 38.65 37.53
  Q 35.83 37.40 36.44 34.99
  Q 37.26 31.74 34.01 32.50
  A 1.43 1.43 77.3 0 0 32.94 34.20
  Q 33.80 38.20 30.18 37.49
  A 0.57 0.57 -84.2 0 0 29.50 38.05
  L 29.50 76.90
  A 0.57 0.57 83.9 0 0 30.19 77.46
  Q 33.80 76.70 32.93 80.48
  Q 32.31 83.19 36.02 82.24
  A 0.68 0.66 82.8 0 0 36.51 81.59
  L 36.53 78.30
  A 0.67 0.59 -6.2 0 1 37.06 77.72
  Z
  M 54.75 33.24
  A 0.74 0.74 0.0 0 0 54.01 32.50
  L 38.99 32.50
  A 0.74 0.74 0.0 0 0 38.25 33.24
  L 38.25 35.02
  A 0.74 0.74 0.0 0 0 38.99 35.76
  L 54.01 35.76
  A 0.74 0.74 0.0 0 0 54.75 35.02
  L 54.75 33.24
  Z
  M 55.20 37.36
  L 53.78 37.65
  A 0.68 0.59 84.8 0 0 53.31 38.30
  L 53.25 76.78
  A 0.71 0.71 -6.5 0 0 54.12 77.47
  Q 57.26 76.74 56.46 79.99
  Q 55.64 83.31 59.45 82.32
  A 0.91 0.91 76.7 0 0 60.11 81.25
  Q 59.15 76.73 62.81 77.46
  A 0.58 0.57 5.8 0 0 63.50 76.90
  L 63.50 38.20
  A 0.80 0.79 82.5 0 0 62.50 37.43
  Q 60.44 37.99 60.23 36.47
  Q 60.00 34.88 60.00 33.36
  A 0.72 0.71 -84.0 0 0 59.44 32.66
  Q 55.84 31.84 56.70 35.63
  A 1.82 1.37 -12.1 0 1 55.20 37.36
  Z
  M 78.50 33.10
  A 0.60 0.60 0.0 0 0 77.90 32.50
  L 62.60 32.50
  A 0.60 0.60 0.0 0 0 62.00 33.10
  L 62.00 35.16
  A 0.60 0.60 0.0 0 0 62.60 35.76
  L 77.90 35.76
  A 0.60 0.60 0.0 0 0 78.50 35.16
  L 78.50 33.10
  Z
  M 84.09 36.98
  Q 83.38 35.33 83.80 33.54
  A 0.63 0.58 -71.2 0 0 83.49 32.84
  Q 79.46 30.96 80.14 35.77
  Q 80.45 37.96 78.18 37.48
  A 0.98 0.98 5.8 0 0 77.00 38.44
  L 77.06 76.93
  A 0.44 0.43 -3.5 0 0 77.55 77.36
  Q 81.08 76.96 80.14 81.25
  A 0.98 0.97 12.8 0 0 80.88 82.41
  Q 84.51 83.26 83.79 79.99
  Q 83.15 77.01 86.28 77.55
  A 0.62 0.61 4.8 0 0 87.00 76.95
  L 86.94 38.32
  A 0.69 0.54 -87.3 0 0 86.47 37.65
  L 84.80 37.41
  A 0.96 0.65 -2.7 0 1 84.09 36.98
  Z
  M 102.00 32.93
  A 0.42 0.42 0.0 0 0 101.58 32.51
  L 85.92 32.51
  A 0.42 0.42 0.0 0 0 85.50 32.93
  L 85.50 35.33
  A 0.42 0.42 0.0 0 0 85.92 35.75
  L 101.58 35.75
  A 0.42 0.42 0.0 0 0 102.00 35.33
  L 102.00 32.93
  Z
  M 108.04 77.68
  L 110.19 77.42
  A 0.57 0.48 -4.0 0 0 110.69 76.93
  L 110.75 38.42
  A 0.87 0.86 -6.6 0 0 109.68 37.58
  Q 106.74 38.26 107.50 35.00
  Q 108.26 31.74 105.02 32.49
  A 1.44 1.44 77.4 0 0 103.94 34.20
  Q 104.80 38.30 100.99 37.50
  A 0.36 0.35 6.0 0 0 100.56 37.84
  Q 100.46 56.36 100.50 74.91
  Q 100.50 75.00 100.41 76.07
  Q 100.25 77.99 102.52 77.50
  A 1.18 1.17 82.7 0 1 103.95 78.61
  L 104.05 81.94
  A 0.54 0.52 89.4 0 0 104.57 82.47
  L 106.84 82.50
  A 0.72 0.67 -90.0 0 0 107.51 81.78
  L 107.53 78.31
  A 0.65 0.58 87.6 0 1 108.04 77.68
  Z
  M 125.74 33.00
  A 0.51 0.51 0.0 0 0 125.23 32.49
  L 109.75 32.49
  A 0.51 0.51 0.0 0 0 109.24 33.00
  L 109.24 35.24
  A 0.51 0.51 0.0 0 0 109.75 35.75
  L 125.23 35.75
  A 0.51 0.51 0.0 0 0 125.74 35.24
  L 125.74 33.00
  Z
  M 27.74 37.93
  A 0.43 0.43 0.0 0 0 27.31 37.50
  L 18.43 37.50
  A 0.43 0.43 0.0 0 0 18.00 37.93
  L 18.00 77.07
  A 0.43 0.43 0.0 0 0 18.43 77.50
  L 27.31 77.50
  A 0.43 0.43 0.0 0 0 27.74 77.07
  L 27.74 37.93
  Z
  M 51.50 38.01
  A 0.51 0.51 0.0 0 0 50.99 37.50
  L 42.01 37.50
  A 0.51 0.51 0.0 0 0 41.50 38.01
  L 41.50 76.99
  A 0.51 0.51 0.0 0 0 42.01 77.50
  L 50.99 77.50
  A 0.51 0.51 0.0 0 0 51.50 76.99
  L 51.50 38.01
  Z
  M 75.01 38.02
  A 0.52 0.52 0.0 0 0 74.49 37.50
  L 65.77 37.50
  A 0.52 0.52 0.0 0 0 65.25 38.02
  L 65.25 76.98
  A 0.52 0.52 0.0 0 0 65.77 77.50
  L 74.49 77.50
  A 0.52 0.52 0.0 0 0 75.01 76.98
  L 75.01 38.02
  Z
  M 98.75 38.02
  A 0.52 0.52 0.0 0 0 98.23 37.50
  L 89.51 37.50
  A 0.52 0.52 0.0 0 0 88.99 38.02
  L 88.99 76.98
  A 0.52 0.52 0.0 0 0 89.51 77.50
  L 98.23 77.50
  A 0.52 0.52 0.0 0 0 98.75 76.98
  L 98.75 38.02
  Z
  M 122.50 38.14
  A 0.64 0.64 0.0 0 0 121.86 37.50
  L 113.14 37.50
  A 0.64 0.64 0.0 0 0 112.50 38.14
  L 112.50 76.86
  A 0.64 0.64 0.0 0 0 113.14 77.50
  L 121.86 77.50
  A 0.64 0.64 0.0 0 0 122.50 76.86
  L 122.50 38.14
  Z
  M 30.9844 79.6187
  A 0.36 0.36 0.0 0 0 30.6256 79.2575
  L 14.8857 79.2025
  A 0.36 0.36 0.0 0 0 14.5245 79.5613
  L 14.5156 82.1013
  A 0.36 0.36 0.0 0 0 14.8744 82.4625
  L 30.6143 82.5175
  A 0.36 0.36 0.0 0 0 30.9755 82.1587
  L 30.9844 79.6187
  Z
  M 54.74 79.76
  A 0.51 0.51 0.0 0 0 54.23 79.25
  L 38.75 79.25
  A 0.51 0.51 0.0 0 0 38.24 79.76
  L 38.24 82.00
  A 0.51 0.51 0.0 0 0 38.75 82.51
  L 54.23 82.51
  A 0.51 0.51 0.0 0 0 54.74 82.00
  L 54.74 79.76
  Z
  M 78.49 79.57
  A 0.31 0.31 0.0 0 0 78.18 79.26
  L 62.30 79.26
  A 0.31 0.31 0.0 0 0 61.99 79.57
  L 61.99 82.19
  A 0.31 0.31 0.0 0 0 62.30 82.50
  L 78.18 82.50
  A 0.31 0.31 0.0 0 0 78.49 82.19
  L 78.49 79.57
  Z
  M 102.01 79.69
  A 0.43 0.43 0.0 0 0 101.58 79.26
  L 85.94 79.26
  A 0.43 0.43 0.0 0 0 85.51 79.69
  L 85.51 82.07
  A 0.43 0.43 0.0 0 0 85.94 82.50
  L 101.58 82.50
  A 0.43 0.43 0.0 0 0 102.01 82.07
  L 102.01 79.69
  Z
  M 125.75 79.68
  A 0.42 0.42 0.0 0 0 125.33 79.26
  L 109.67 79.26
  A 0.42 0.42 0.0 0 0 109.25 79.68
  L 109.25 82.08
  A 0.42 0.42 0.0 0 0 109.67 82.50
  L 125.33 82.50
  A 0.42 0.42 0.0 0 0 125.75 82.08
  L 125.75 79.68
  Z
  M 129.00 84.79
  A 0.55 0.55 0.0 0 0 128.45 84.24
  L 11.43 84.24
  A 0.55 0.55 0.0 0 0 10.88 84.79
  L 10.88 86.95
  A 0.55 0.55 0.0 0 0 11.43 87.50
  L 128.45 87.50
  A 0.55 0.55 0.0 0 0 129.00 86.95
  L 129.00 84.79
  Z
  M 135.72 89.56
  A 0.32 0.32 0.0 0 0 135.40 89.24
  L 4.58 89.24
  A 0.32 0.32 0.0 0 0 4.26 89.56
  L 4.26 92.18
  A 0.32 0.32 0.0 0 0 4.58 92.50
  L 135.40 92.50
  A 0.32 0.32 0.0 0 0 135.72 92.18
  L 135.72 89.56
  Z
  M 63.94 93.31
  Q 68.84 93.46 85.25 93.50
  Q 89.35 93.51 92.19 92.92
  Q 92.74 92.81 92.19 92.81
  L 63.05 92.81
  Q 62.19 92.81 62.94 93.14
  Q 63.29 93.29 63.94 93.31
  Z"
/>
<ellipse fill="#e9b5a3" fill-opacity="0.973" cx="0.00" cy="0.00" transform="translate(69.96,6.71) rotate(134.1)" rx="0.81" ry="0.72"/>
<path fill="#f2b4b4" d="
  M 84.92 17.36
  Q 77.73 14.77 70.47 12.40
  A 1.56 1.50 -44.4 0 0 69.52 12.41
  Q 51.48 18.50 33.58 24.99
  Q 31.65 25.69 29.28 25.71
  Q 27.06 25.72 24.84 25.96
  A 0.85 0.50 -17.0 0 1 24.21 25.81
  Q 23.92 25.54 24.56 25.31
  Q 46.97 17.28 69.53 9.41
  A 1.44 1.44 -45.5 0 1 70.49 9.41
  Q 93.13 17.31 115.25 25.26
  Q 115.93 25.50 115.57 25.81
  A 0.86 0.55 24.8 0 1 114.89 25.90
  Q 113.73 25.59 112.50 25.73
  Q 109.28 26.08 106.33 24.95
  Q 104.59 24.27 104.52 24.25
  Q 94.70 20.88 84.92 17.36
  Z"
/>
<path fill="#f2b4b4" d="
  M 74.81 15.69
  Q 88.41 20.39 101.85 25.28
  Q 103.15 25.75 101.76 25.75
  L 38.40 25.69
  Q 36.48 25.69 38.30 25.07
  Q 52.76 20.13 67.12 14.93
  Q 69.28 14.15 70.97 14.54
  Q 72.52 14.90 74.81 15.69
  Z
  M 74.19 20.03
  A 4.19 4.19 0.0 0 0 70.00 15.84
  A 4.19 4.19 0.0 0 0 65.81 20.03
  A 4.19 4.19 0.0 0 0 70.00 24.22
  A 4.19 4.19 0.0 0 0 74.19 20.03
  Z"
/>
<path fill="#ba1b1b" d="
  M 74.19 20.03
  A 4.19 4.19 0.0 0 1 70.00 24.22
  A 4.19 4.19 0.0 0 1 65.81 20.03
  A 4.19 4.19 0.0 0 1 70.00 15.84
  A 4.19 4.19 0.0 0 1 74.19 20.03
  Z
  M 72.43 19.99
  A 2.43 2.43 0.0 0 0 70.00 17.56
  A 2.43 2.43 0.0 0 0 67.57 19.99
  A 2.43 2.43 0.0 0 0 70.00 22.42
  A 2.43 2.43 0.0 0 0 72.43 19.99
  Z"
/>
<circle fill="#f2b4b4" cx="70.00" cy="19.99" r="2.43"/>
<path fill="#e9b5a3" fill-opacity="0.973" d="
  M 130.75 25.96
  Q 129.56 26.10 129.13 25.21
  Q 128.58 24.06 128.54 24.01
  Q 126.62 21.66 124.00 24.21
  Q 125.54 20.84 128.16 22.58
  Q 128.84 23.04 129.54 24.18
  Q 130.10 25.10 130.75 25.96
  Z"
/>
<path fill="#e1948d" fill-opacity="0.992" d="
  M 12.81 24.51
  Q 13.18 23.50 13.75 24.33
  A 0.95 0.84 -53.0 0 1 13.82 25.21
  Q 13.15 26.83 12.78 25.36
  Q 12.67 24.92 12.81 24.51
  Z"
/>
<path fill="#e9b5a3" fill-opacity="0.973" d="
  M 126.36 24.30
  Q 126.67 23.79 127.12 24.18
  A 0.80 0.67 -59.6 0 1 127.26 25.03
  Q 126.58 26.66 126.26 25.09
  Q 126.16 24.63 126.36 24.30
  Z"
/>
<rect fill="#f2b4b4" x="11.03" y="27.51" width="117.96" height="3.24" rx="0.27"/>
<path fill="#e9b5a3" fill-opacity="0.973" d="
  M 12.50 32.46
  L 11.00 32.96
  Q 9.61 33.42 8.96 32.25
  Q 10.78 31.70 12.50 32.46
  Z"
/>
<path fill="#969f96" fill-opacity="0.976" d="
  M 131.21 32.00
  Q 130.34 33.37 128.55 33.15
  A 0.44 0.42 3.7 0 0 128.06 33.56
  L 128.00 81.20
  A 0.82 0.82 -5.8 0 0 128.98 82.00
  Q 131.32 81.54 131.21 83.75
  Q 130.95 82.92 129.50 83.00
  Q 126.64 83.15 127.13 80.50
  Q 127.19 80.20 127.14 79.51
  L 126.96 77.25
  L 126.71 37.50
  L 127.08 33.55
  A 1.25 0.76 82.9 0 1 127.44 32.74
  Q 129.02 31.55 131.21 32.00
  Z"
/>
<path fill="#969f96" fill-opacity="0.976" d="
  M 12.50 32.46
  L 13.04 37.75
  L 13.04 77.25
  L 12.74 82.21
  A 0.93 0.90 2.2 0 1 11.79 83.06
  L 8.79 83.00
  Q 9.82 81.73 11.57 81.78
  A 0.49 0.48 1.2 0 0 12.07 81.31
  Q 12.39 58.30 12.25 35.28
  Q 12.25 35.16 12.35 34.24
  Q 12.49 32.90 11.00 32.96
  L 12.50 32.46
  Z"
/>
<rect fill="#f2b4b4" x="14.51" y="32.51" width="16.50" height="3.24" rx="0.43"/>
<path fill="#b2b6b1" d="
  M 36.53 78.30
  L 36.51 81.59
  A 0.68 0.66 82.8 0 1 36.02 82.24
  Q 32.31 83.19 32.93 80.48
  Q 33.80 76.70 30.19 77.46
  A 0.57 0.57 83.9 0 1 29.50 76.90
  L 29.50 38.05
  A 0.57 0.57 -84.2 0 1 30.18 37.49
  Q 33.80 38.20 32.94 34.20
  A 1.43 1.43 77.3 0 1 34.01 32.50
  Q 37.26 31.74 36.44 34.99
  Q 35.83 37.40 38.65 37.53
  A 1.15 1.15 1.3 0 1 39.75 38.68
  L 39.69 76.69
  A 0.61 0.61 -5.8 0 1 39.20 77.29
  L 37.06 77.72
  A 0.67 0.59 -6.2 0 0 36.53 78.30
  Z"
/>
<rect fill="#f2b4b4" x="38.25" y="32.50" width="16.50" height="3.26" rx="0.74"/>
<path fill="#b2b6b1" d="
  M 55.20 37.36
  A 1.82 1.37 -12.1 0 0 56.70 35.63
  Q 55.84 31.84 59.44 32.66
  A 0.72 0.71 -84.0 0 1 60.00 33.36
  Q 60.00 34.88 60.23 36.47
  Q 60.44 37.99 62.50 37.43
  A 0.80 0.79 82.5 0 1 63.50 38.20
  L 63.50 76.90
  A 0.58 0.57 5.8 0 1 62.81 77.46
  Q 59.15 76.73 60.11 81.25
  A 0.91 0.91 76.7 0 1 59.45 82.32
  Q 55.64 83.31 56.46 79.99
  Q 57.26 76.74 54.12 77.47
  A 0.71 0.71 -6.5 0 1 53.25 76.78
  L 53.31 38.30
  A 0.68 0.59 84.8 0 1 53.78 37.65
  L 55.20 37.36
  Z"
/>
<rect fill="#f2b4b4" x="62.00" y="32.50" width="16.50" height="3.26" rx="0.60"/>
<path fill="#b2b6b1" d="
  M 84.80 37.41
  L 86.47 37.65
  A 0.69 0.54 -87.3 0 1 86.94 38.32
  L 87.00 76.95
  A 0.62 0.61 4.8 0 1 86.28 77.55
  Q 83.15 77.01 83.79 79.99
  Q 84.51 83.26 80.88 82.41
  A 0.98 0.97 12.8 0 1 80.14 81.25
  Q 81.08 76.96 77.55 77.36
  A 0.44 0.43 -3.5 0 1 77.06 76.93
  L 77.00 38.44
  A 0.98 0.98 5.8 0 1 78.18 37.48
  Q 80.45 37.96 80.14 35.77
  Q 79.46 30.96 83.49 32.84
  A 0.63 0.58 -71.2 0 1 83.80 33.54
  Q 83.38 35.33 84.09 36.98
  A 0.96 0.65 -2.7 0 0 84.80 37.41
  Z"
/>
<rect fill="#f2b4b4" x="85.50" y="32.51" width="16.50" height="3.24" rx="0.42"/>
<path fill="#b2b6b1" d="
  M 107.53 78.31
  L 107.51 81.78
  A 0.72 0.67 -90.0 0 1 106.84 82.50
  L 104.57 82.47
  A 0.54 0.52 89.4 0 1 104.05 81.94
  L 103.95 78.61
  A 1.18 1.17 82.7 0 0 102.52 77.50
  Q 100.25 77.99 100.41 76.07
  Q 100.50 75.00 100.50 74.91
  Q 100.46 56.36 100.56 37.84
  A 0.36 0.35 6.0 0 1 100.99 37.50
  Q 104.80 38.30 103.94 34.20
  A 1.44 1.44 77.4 0 1 105.02 32.49
  Q 108.26 31.74 107.50 35.00
  Q 106.74 38.26 109.68 37.58
  A 0.87 0.86 -6.6 0 1 110.75 38.42
  L 110.69 76.93
  A 0.57 0.48 -4.0 0 1 110.19 77.42
  L 108.04 77.68
  A 0.65 0.58 87.6 0 0 107.53 78.31
  Z"
/>
<rect fill="#f2b4b4" x="109.24" y="32.49" width="16.50" height="3.26" rx="0.51"/>
<rect fill="#f2b4b4" x="18.00" y="37.50" width="9.74" height="40.00" rx="0.43"/>
<rect fill="#f2b4b4" x="41.50" y="37.50" width="10.00" height="40.00" rx="0.51"/>
<rect fill="#f2b4b4" x="65.25" y="37.50" width="9.76" height="40.00" rx="0.52"/>
<rect fill="#f2b4b4" x="88.99" y="37.50" width="9.76" height="40.00" rx="0.52"/>
<rect fill="#f2b4b4" x="112.50" y="37.50" width="10.00" height="40.00" rx="0.64"/>
<path fill="#b2b6b1" d="
  M 125.79 37.75
  L 125.54 77.25
  Q 124.88 78.08 124.33 77.37
  Q 124.06 77.04 124.06 76.43
  Q 124.10 57.47 124.25 38.51
  Q 124.25 37.85 124.56 37.60
  Q 125.05 37.21 125.79 37.75
  Z"
/>
<path fill="#303633" d="
  M 126.71 37.50
  L 126.96 77.25
  L 125.54 77.25
  L 125.79 37.75
  Q 126.30 37.83 126.71 37.50
  Z"
/>
<path fill="#303633" d="
  M 13.04 37.75
  Q 13.49 38.17 15.23 37.98
  Q 14.39 57.57 14.71 77.00
  L 13.04 77.25
  L 13.04 37.75
  Z"
/>
<path fill="#d1e6ea" d="
  M 14.71 77.00
  Q 14.39 57.57 15.23 37.98
  Q 16.69 57.33 15.77 76.66
  Q 15.75 77.05 15.57 77.29
  Q 15.10 77.92 14.71 77.00
  Z"
/>
<rect fill="#f2b4b4" x="-8.23" y="-1.63" transform="translate(22.75,80.86) rotate(0.2)" width="16.46" height="3.26" rx="0.36"/>
<rect fill="#f2b4b4" x="38.24" y="79.25" width="16.50" height="3.26" rx="0.51"/>
<rect fill="#f2b4b4" x="61.99" y="79.26" width="16.50" height="3.24" rx="0.31"/>
<rect fill="#f2b4b4" x="85.51" y="79.26" width="16.50" height="3.24" rx="0.43"/>
<rect fill="#f2b4b4" x="109.25" y="79.26" width="16.50" height="3.24" rx="0.42"/>
<rect fill="#f2b4b4" x="10.88" y="84.24" width="118.12" height="3.26" rx="0.55"/>
<path fill="#e9b5a3" fill-opacity="0.973" d="
  M 8.75 86.71
  Q 9.54 87.75 8.24 87.85
  Q 6.25 88.00 3.66 88.00
  A 0.66 0.66 2.3 0 0 3.00 88.66
  L 3.00 93.16
  A 0.92 0.91 -0.0 0 0 3.92 94.07
  L 135.94 94.18
  A 0.82 0.75 11.0 0 0 136.67 93.74
  Q 137.18 92.62 137.11 91.36
  Q 137.10 91.09 137.14 89.65
  Q 137.19 87.54 133.71 88.20
  A 3.48 3.44 51.9 0 1 131.59 87.93
  Q 130.84 87.57 131.46 86.75
  L 135.86 86.91
  Q 138.00 86.99 138.00 88.84
  L 138.00 92.84
  Q 138.00 94.75 136.09 94.75
  L 3.56 94.69
  A 1.29 1.03 -17.7 0 1 2.70 94.36
  Q 1.86 93.48 1.87 92.24
  Q 1.89 90.63 1.87 90.24
  Q 1.80 88.75 2.54 87.48
  A 1.00 0.74 8.6 0 1 3.30 87.08
  L 8.75 86.71
  Z"
/>
<rect fill="#f2b4b4" x="4.26" y="89.24" width="131.46" height="3.26" rx="0.32"/>
<path fill="#9c0000" d="
  M 63.94 93.31
  Q 63.29 93.29 62.94 93.14
  Q 62.19 92.81 63.05 92.81
  L 92.19 92.81
  Q 92.74 92.81 92.19 92.92
  Q 89.35 93.51 85.25 93.50
  Q 68.84 93.46 63.94 93.31
  Z"
/>
</svg>
