<?xml version="1.0" encoding="UTF-8" standalone="no"?>
<!DOCTYPE svg PUBLIC "-//W3C//DTD SVG 1.1//EN" "http://www.w3.org/Graphics/SVG/1.1/DTD/svg11.dtd">
<svg xmlns="http://www.w3.org/2000/svg" version="1.1" viewBox="0 0 140 100">
<g stroke-width="2.00" fill="none" stroke-linecap="butt">
<path stroke="#4c4b4f" vector-effect="non-scaling-stroke" d="
  M 25.50 6.29
  Q 24.33 6.02 23.75 4.96"
/>
<path stroke="#575557" stroke-opacity="0.996" vector-effect="non-scaling-stroke" d="
  M 20.00 13.04
  Q 20.07 12.03 19.55 11.40
  A 0.34 0.29 -55.2 0 0 19.03 11.54
  Q 18.56 12.64 17.50 11.71"
/>
<path stroke="#4c4b4f" vector-effect="non-scaling-stroke" d="
  M 40.50 11.29
  Q 38.87 10.63 39.10 11.77
  A 0.77 0.50 74.2 0 1 38.86 12.55
  Q 38.40 12.76 37.79 12.50"
/>
<path stroke="#4c4b4f" vector-effect="non-scaling-stroke" d="
  M 21.50 30.21
  Q 20.55 30.89 22.25 31.03
  Q 24.36 31.19 23.64 30.17"
/>
<path stroke="#616963" stroke-opacity="0.996" vector-effect="non-scaling-stroke" d="
  M 76.24 83.62
  Q 40.02 84.72 3.76 83.43"
/>
<path stroke="#616963" stroke-opacity="0.996" vector-effect="non-scaling-stroke" d="
  M 121.21 52.00
  L 118.68 52.31
  A 0.66 0.65 89.0 0 0 118.10 52.92
  Q 118.02 53.89 119.21 53.50"
/>
<path stroke="#4c4b4f" vector-effect="non-scaling-stroke" d="
  M 119.29 54.00
  Q 118.73 54.51 119.31 54.94
  Q 122.22 57.07 125.38 58.85"
/>
<path stroke="#707573" vector-effect="non-scaling-stroke" d="
  M 137.27 58.74
  Q 137.45 67.52 136.50 76.25"
/>
<path stroke="#616963" stroke-opacity="0.996" vector-effect="non-scaling-stroke" d="
  M 120.50 58.71
  Q 123.07 59.38 121.36 57.93
  Q 121.23 57.82 120.85 57.37
  Q 120.36 56.80 119.71 57.25"
/>
<path stroke="#616963" stroke-opacity="0.996" vector-effect="non-scaling-stroke" d="
  M 115.81 53.52
  Q 113.32 51.37 109.85 51.80
  Q 109.66 51.83 107.64 51.91
  Q 105.85 51.99 104.25 53.50
  Q 99.91 57.57 98.96 58.75"
/>
<path stroke="#752929" vector-effect="non-scaling-stroke" d="
  M 98.96 58.75
  Q 97.61 59.44 96.50 58.46"
/>
<path stroke="#616963" stroke-opacity="0.996" vector-effect="non-scaling-stroke" d="
  M 101.29 53.50
  Q 102.68 53.81 102.45 52.66
  A 0.76 0.63 -0.3 0 0 101.82 52.14
  L 98.79 51.75"
/>
<path stroke="#b76a67" vector-effect="non-scaling-stroke" d="
  M 82.70 76.17
  Q 83.52 67.52 82.62 58.76"
/>
<path stroke="#a85f57" stroke-opacity="0.996" vector-effect="non-scaling-stroke" d="
  M 100.46 58.50
  Q 99.84 59.47 98.96 58.75"
/>
<path stroke="#818582" vector-effect="non-scaling-stroke" d="
  M 18.9889 22.7530
  A 0.31 0.31 0.0 0 0 18.6784 22.4436
  L 11.2984 22.4565
  A 0.31 0.31 0.0 0 0 10.9889 22.7670
  L 11.0111 35.4470
  A 0.31 0.31 0.0 0 0 11.3216 35.7564
  L 18.7016 35.7435
  A 0.31 0.31 0.0 0 0 19.0111 35.4330
  L 18.9889 22.7530"
/>
<path stroke="#818582" vector-effect="non-scaling-stroke" d="
  M 33.9933 27.8130
  A 0.31 0.31 0.0 0 0 33.6828 27.5036
  L 26.3028 27.5164
  A 0.31 0.31 0.0 0 0 25.9934 27.8270
  L 26.0067 35.4470
  A 0.31 0.31 0.0 0 0 26.3172 35.7564
  L 33.6972 35.7436
  A 0.31 0.31 0.0 0 0 34.0066 35.4330
  L 33.9933 27.8130"
/>
<path stroke="#707573" vector-effect="non-scaling-stroke" d="
  M 9.0493 33.0923
  A 0.56 0.56 0.0 0 0 8.5051 32.5169
  L 6.6259 32.4644
  A 0.56 0.56 0.0 0 0 6.0505 33.0085
  L 5.9907 35.1477
  A 0.56 0.56 0.0 0 0 6.5349 35.7231
  L 8.4141 35.7756
  A 0.56 0.56 0.0 0 0 8.9895 35.2315
  L 9.0493 33.0923"
/>
<path stroke="#707573" vector-effect="non-scaling-stroke" d="
  M 24.0327 33.0517
  A 0.53 0.53 0.0 0 0 23.5139 32.5107
  L 21.5743 32.4700
  A 0.53 0.53 0.0 0 0 21.0334 32.9888
  L 20.9873 35.1883
  A 0.53 0.53 0.0 0 0 21.5061 35.7293
  L 23.4457 35.7700
  A 0.53 0.53 0.0 0 0 23.9866 35.2512
  L 24.0327 33.0517"
/>
<path stroke="#707573" vector-effect="non-scaling-stroke" d="
  M 74.01 32.94
  A 0.43 0.43 0.0 0 0 73.58 32.51
  L 36.44 32.51
  A 0.43 0.43 0.0 0 0 36.01 32.94
  L 36.01 35.32
  A 0.43 0.43 0.0 0 0 36.44 35.75
  L 73.58 35.75
  A 0.43 0.43 0.0 0 0 74.01 35.32
  L 74.01 32.94"
/>
<path stroke="#818582" vector-effect="non-scaling-stroke" d="
  M 10.00 82.46
  L 13.45 82.47
  A 0.54 0.50 90.0 0 0 13.95 81.93
  L 14.00 71.99
  A 1.24 1.22 90.0 0 1 15.22 70.75
  L 19.88 70.75
  A 1.13 1.12 90.0 0 1 21.00 71.88
  L 21.05 81.69
  A 0.72 0.70 -82.2 0 0 21.54 82.36
  Q 22.47 82.65 23.45 82.52
  A 0.59 0.57 86.7 0 0 23.95 81.94
  L 24.00 71.67
  A 0.92 0.91 90.0 0 1 24.91 70.75
  L 29.77 70.75
  A 1.23 1.23 88.0 0 1 31.00 71.98
  L 31.00 81.69
  A 0.81 0.81 90.0 0 0 31.81 82.50
  L 70.25 82.46"
/>
<path stroke="#707573" vector-effect="non-scaling-stroke" d="
  M 70.25 82.46
  L 73.45 82.50
  A 0.57 0.55 90.0 0 0 74.00 81.93
  L 74.00 38.04
  A 0.52 0.50 89.5 0 0 73.49 37.52
  L 70.25 37.54"
/>
<path stroke="#818582" vector-effect="non-scaling-stroke" d="
  M 70.25 37.54
  L 10.25 37.54"
/>
<path stroke="#707573" vector-effect="non-scaling-stroke" d="
  M 10.25 37.54
  L 6.68 37.54
  A 0.73 0.68 90.0 0 0 6.00 38.27
  L 6.00 81.83
  A 0.67 0.64 89.6 0 0 6.65 82.50
  L 10.00 82.46"
/>
<path stroke="#c3c7c0" vector-effect="non-scaling-stroke" d="
  M 10.25 37.54
  L 10.00 82.46"
/>
<path stroke="#c3c7c0" vector-effect="non-scaling-stroke" d="
  M 70.25 37.54
  Q 69.63 60.00 70.25 82.46"
/>
<path stroke="#8e9191" vector-effect="non-scaling-stroke" d="
  M 19.00 72.82
  A 0.31 0.31 0.0 0 0 18.69 72.51
  L 16.31 72.51
  A 0.31 0.31 0.0 0 0 16.00 72.82
  L 16.00 82.20
  A 0.31 0.31 0.0 0 0 16.31 82.51
  L 18.69 82.51
  A 0.31 0.31 0.0 0 0 19.00 82.20
  L 19.00 72.82"
/>
<path stroke="#8e9191" vector-effect="non-scaling-stroke" d="
  M 29.00 72.82
  A 0.31 0.31 0.0 0 0 28.69 72.51
  L 26.31 72.51
  A 0.31 0.31 0.0 0 0 26.00 72.82
  L 26.00 82.20
  A 0.31 0.31 0.0 0 0 26.31 82.51
  L 28.69 82.51
  A 0.31 0.31 0.0 0 0 29.00 82.20
  L 29.00 72.82"
/>
<path stroke="#97999a" vector-effect="non-scaling-stroke" d="
  M 118.96 47.25
  L 119.00 38.02
  A 0.52 0.52 90.0 0 0 118.48 37.50
  L 104.75 37.54"
/>
<path stroke="#828586" vector-effect="non-scaling-stroke" d="
  M 104.75 37.54
  L 101.68 37.60
  A 0.59 0.53 -89.9 0 0 101.16 38.18
  L 101.02 50.11
  A 0.66 0.63 0.4 0 0 101.68 50.75
  L 118.44 50.82
  A 0.56 0.54 -0.5 0 0 119.00 50.27
  L 118.96 47.25"
/>
<path stroke="#eaebeb" vector-effect="non-scaling-stroke" d="
  M 104.75 37.54
  L 105.24 46.19
  A 0.61 0.51 -0.3 0 0 105.82 46.67
  L 118.96 47.25"
/>
<path stroke="#97999a" vector-effect="non-scaling-stroke" d="
  M 135.71 70.50
  L 135.75 61.50
  A 0.50 0.50 0.0 0 0 135.25 61.00
  L 121.25 61.04"
/>
<path stroke="#828586" vector-effect="non-scaling-stroke" d="
  M 121.25 61.04
  L 118.18 61.10
  A 0.61 0.53 -89.9 0 0 117.66 61.70
  L 117.53 73.05
  A 0.98 0.94 0.3 0 0 118.51 74.00
  L 135.11 74.00
  A 0.63 0.60 -0.4 0 0 135.74 73.39
  L 135.71 70.50"
/>
<path stroke="#eaebeb" vector-effect="non-scaling-stroke" d="
  M 121.25 61.04
  L 121.68 69.31
  A 0.53 0.52 89.4 0 0 122.18 69.81
  L 135.71 70.50"
/>
<path stroke="#7d827f" vector-effect="non-scaling-stroke" d="
  M 66.00 45.40
  A 1.40 1.40 0.0 0 0 64.60 44.00
  L 15.40 44.00
  A 1.40 1.40 0.0 0 0 14.00 45.40
  L 14.00 49.60
  A 1.40 1.40 0.0 0 0 15.40 51.00
  L 64.60 51.00
  A 1.40 1.40 0.0 0 0 66.00 49.60
  L 66.00 45.40"
/>
<path stroke="#818582" vector-effect="non-scaling-stroke" d="
  M 66.00 58.49
  A 0.99 0.99 0.0 0 0 65.01 57.50
  L 14.99 57.50
  A 0.99 0.99 0.0 0 0 14.00 58.49
  L 14.00 63.27
  A 0.99 0.99 0.0 0 0 14.99 64.26
  L 65.01 64.26
  A 0.99 0.99 0.0 0 0 66.00 63.27
  L 66.00 58.49"
/>
<path stroke="#818582" vector-effect="non-scaling-stroke" d="
  M 66.00 71.68
  A 0.94 0.94 0.0 0 0 65.06 70.74
  L 34.94 70.74
  A 0.94 0.94 0.0 0 0 34.00 71.68
  L 34.00 76.56
  A 0.94 0.94 0.0 0 0 34.94 77.50
  L 65.06 77.50
  A 0.94 0.94 0.0 0 0 66.00 76.56
  L 66.00 71.68"
/>
<path stroke="#8b8e8e" vector-effect="non-scaling-stroke" d="
  M 64.01 46.31
  A 0.31 0.31 0.0 0 0 63.70 46.00
  L 16.32 46.00
  A 0.31 0.31 0.0 0 0 16.01 46.31
  L 16.01 48.69
  A 0.31 0.31 0.0 0 0 16.32 49.00
  L 63.70 49.00
  A 0.31 0.31 0.0 0 0 64.01 48.69
  L 64.01 46.31"
/>
<path stroke="#8e9191" vector-effect="non-scaling-stroke" d="
  M 64.01 59.56
  A 0.31 0.31 0.0 0 0 63.70 59.25
  L 16.32 59.25
  A 0.31 0.31 0.0 0 0 16.01 59.56
  L 16.01 62.18
  A 0.31 0.31 0.0 0 0 16.32 62.49
  L 63.70 62.49
  A 0.31 0.31 0.0 0 0 64.01 62.18
  L 64.01 59.56"
/>
<path stroke="#dd8f8e" vector-effect="non-scaling-stroke" d="
  M 102.46 70.75
  L 102.50 61.52
  A 0.52 0.52 90.0 0 0 101.98 61.00
  L 87.75 61.04"
/>
<path stroke="#d77878" vector-effect="non-scaling-stroke" d="
  M 87.75 61.04
  L 84.76 61.00
  A 0.53 0.50 -89.5 0 0 84.25 61.53
  L 84.19 73.25
  A 0.74 0.73 -89.6 0 0 84.92 74.00
  L 101.68 73.94
  A 0.70 0.67 7.7 0 0 102.35 73.45
  Q 102.72 72.14 102.46 70.75"
/>
<path stroke="#f9e9e9" vector-effect="non-scaling-stroke" d="
  M 87.75 61.04
  Q 88.60 64.08 88.13 68.36
  A 1.53 1.53 1.6 0 0 89.74 70.06
  Q 96.66 69.66 102.46 70.75"
/>
<path stroke="#8e9191" vector-effect="non-scaling-stroke" d="
  M 64.00 72.94
  A 0.43 0.43 0.0 0 0 63.57 72.51
  L 36.43 72.51
  A 0.43 0.43 0.0 0 0 36.00 72.94
  L 36.00 75.32
  A 0.43 0.43 0.0 0 0 36.43 75.75
  L 63.57 75.75
  A 0.43 0.43 0.0 0 0 64.00 75.32
  L 64.00 72.94"
/>
</g>
<path fill="#2e3335" d="
  M 25.50 6.29
  Q 24.33 6.02 23.75 4.96
  Q 26.55 4.26 29.45 4.43
  Q 30.14 4.48 31.01 4.21
  Q 32.85 3.66 32.35 5.46
  A 0.95 0.89 -0.5 0 1 31.70 6.08
  Q 28.66 6.93 25.50 6.29
  Z"
/>
<path fill="#6a6369" fill-opacity="0.996" d="
  M 23.75 4.96
  Q 24.33 6.02 25.50 6.29
  Q 27.02 10.93 21.15 10.09
  Q 20.53 10.00 20.79 10.58
  Q 21.46 12.09 20.00 13.04
  Q 20.07 12.03 19.55 11.40
  A 0.34 0.29 -55.2 0 0 19.03 11.54
  Q 18.56 12.64 17.50 11.71
  Q 16.70 7.73 21.12 8.30
  Q 23.05 8.54 22.29 6.75
  Q 21.89 5.78 23.75 4.96
  Z"
/>
<path fill="#2e3335" d="
  M 40.50 11.29
  Q 38.87 10.63 39.10 11.77
  A 0.77 0.50 74.2 0 1 38.86 12.55
  Q 38.40 12.76 37.79 12.50
  Q 36.96 9.55 40.00 9.50
  Q 43.92 9.44 45.54 9.27
  Q 46.45 9.18 46.84 9.24
  Q 48.25 9.48 47.24 10.63
  Q 46.86 11.07 46.23 11.21
  Q 43.40 11.83 40.50 11.29
  Z"
/>
<path fill="#434644" fill-opacity="0.992" d="
  M 20.00 13.04
  L 18.07 13.32
  A 0.50 0.43 -7.2 0 0 17.64 13.80
  Q 17.83 15.59 16.41 16.71
  A 1.10 1.04 -18.9 0 0 16.00 17.50
  Q 15.88 20.67 12.55 17.12
  A 1.00 1.00 -32.7 0 1 12.90 15.51
  Q 14.78 14.74 14.27 13.66
  A 1.06 0.68 54.8 0 1 14.23 12.80
  Q 15.29 11.04 17.50 11.71
  Q 18.56 12.64 19.03 11.54
  A 0.34 0.29 -55.2 0 1 19.55 11.40
  Q 20.07 12.03 20.00 13.04
  Z"
/>
<path fill="#6a6369" fill-opacity="0.996" d="
  M 40.50 11.29
  Q 41.97 15.94 36.56 15.00
  A 0.47 0.47 -82.1 0 0 36.01 15.42
  Q 35.74 18.61 33.14 18.23
  A 0.54 0.54 -3.2 0 0 32.54 18.90
  Q 32.94 20.46 31.85 21.20
  Q 30.96 21.80 30.86 22.05
  Q 30.66 22.50 30.81 23.03
  A 1.04 0.67 64.7 0 1 30.70 23.90
  Q 30.00 24.64 29.23 23.92
  Q 28.31 23.07 28.29 23.05
  Q 26.43 21.49 28.98 19.96
  A 0.72 0.70 -22.4 0 0 29.31 19.19
  Q 28.72 16.52 32.02 16.57
  A 0.57 0.56 -2.3 0 0 32.59 15.96
  Q 32.32 12.93 35.25 13.25
  Q 37.02 13.44 37.79 12.50
  Q 38.40 12.76 38.86 12.55
  A 0.77 0.50 74.2 0 0 39.10 11.77
  Q 38.87 10.63 40.50 11.29
  Z"
/>
<path fill="#2e3335" d="
  M 21.50 30.21
  Q 20.55 30.89 22.25 31.03
  Q 24.36 31.19 23.64 30.17
  Q 22.34 25.18 27.00 25.22
  Q 30.87 25.25 34.89 25.25
  Q 36.88 25.25 36.44 27.19
  Q 35.67 30.53 37.76 30.33
  Q 38.65 30.25 38.75 30.25
  Q 56.01 30.25 74.43 30.25
  A 1.82 1.82 -87.6 0 1 76.25 32.07
  L 76.24 83.62
  Q 40.02 84.72 3.76 83.43
  Q 3.75 58.28 3.75 34.14
  Q 3.75 31.66 3.86 31.38
  Q 4.41 29.92 7.17 30.35
  A 1.33 1.31 4.7 0 0 8.71 29.07
  L 8.75 21.49
  A 1.25 1.24 -89.3 0 1 10.01 20.25
  L 20.03 20.44
  A 1.37 1.28 89.5 0 1 21.29 21.77
  L 21.50 30.21
  Z
  M 18.9889 22.7530
  A 0.31 0.31 0.0 0 0 18.6784 22.4436
  L 11.2984 22.4565
  A 0.31 0.31 0.0 0 0 10.9889 22.7670
  L 11.0111 35.4470
  A 0.31 0.31 0.0 0 0 11.3216 35.7564
  L 18.7016 35.7435
  A 0.31 0.31 0.0 0 0 19.0111 35.4330
  L 18.9889 22.7530
  Z
  M 33.9933 27.8130
  A 0.31 0.31 0.0 0 0 33.6828 27.5036
  L 26.3028 27.5164
  A 0.31 0.31 0.0 0 0 25.9934 27.8270
  L 26.0067 35.4470
  A 0.31 0.31 0.0 0 0 26.3172 35.7564
  L 33.6972 35.7436
  A 0.31 0.31 0.0 0 0 34.0066 35.4330
  L 33.9933 27.8130
  Z
  M 9.0493 33.0923
  A 0.56 0.56 0.0 0 0 8.5051 32.5169
  L 6.6259 32.4644
  A 0.56 0.56 0.0 0 0 6.0505 33.0085
  L 5.9907 35.1477
  A 0.56 0.56 0.0 0 0 6.5349 35.7231
  L 8.4141 35.7756
  A 0.56 0.56 0.0 0 0 8.9895 35.2315
  L 9.0493 33.0923
  Z
  M 24.0327 33.0517
  A 0.53 0.53 0.0 0 0 23.5139 32.5107
  L 21.5743 32.4700
  A 0.53 0.53 0.0 0 0 21.0334 32.9888
  L 20.9873 35.1883
  A 0.53 0.53 0.0 0 0 21.5061 35.7293
  L 23.4457 35.7700
  A 0.53 0.53 0.0 0 0 23.9866 35.2512
  L 24.0327 33.0517
  Z
  M 74.01 32.94
  A 0.43 0.43 0.0 0 0 73.58 32.51
  L 36.44 32.51
  A 0.43 0.43 0.0 0 0 36.01 32.94
  L 36.01 35.32
  A 0.43 0.43 0.0 0 0 36.44 35.75
  L 73.58 35.75
  A 0.43 0.43 0.0 0 0 74.01 35.32
  L 74.01 32.94
  Z
  M 10.00 82.46
  L 13.45 82.47
  A 0.54 0.50 90.0 0 0 13.95 81.93
  L 14.00 71.99
  A 1.24 1.22 90.0 0 1 15.22 70.75
  L 19.88 70.75
  A 1.13 1.12 90.0 0 1 21.00 71.88
  L 21.05 81.69
  A 0.72 0.70 -82.2 0 0 21.54 82.36
  Q 22.47 82.65 23.45 82.52
  A 0.59 0.57 86.7 0 0 23.95 81.94
  L 24.00 71.67
  A 0.92 0.91 90.0 0 1 24.91 70.75
  L 29.77 70.75
  A 1.23 1.23 88.0 0 1 31.00 71.98
  L 31.00 81.69
  A 0.81 0.81 90.0 0 0 31.81 82.50
  L 70.25 82.46
  L 73.45 82.50
  A 0.57 0.55 90.0 0 0 74.00 81.93
  L 74.00 38.04
  A 0.52 0.50 89.5 0 0 73.49 37.52
  L 70.25 37.54
  L 10.25 37.54
  L 6.68 37.54
  A 0.73 0.68 90.0 0 0 6.00 38.27
  L 6.00 81.83
  A 0.67 0.64 89.6 0 0 6.65 82.50
  L 10.00 82.46
  Z
  M 19.00 72.82
  A 0.31 0.31 0.0 0 0 18.69 72.51
  L 16.31 72.51
  A 0.31 0.31 0.0 0 0 16.00 72.82
  L 16.00 82.20
  A 0.31 0.31 0.0 0 0 16.31 82.51
  L 18.69 82.51
  A 0.31 0.31 0.0 0 0 19.00 82.20
  L 19.00 72.82
  Z
  M 29.00 72.82
  A 0.31 0.31 0.0 0 0 28.69 72.51
  L 26.31 72.51
  A 0.31 0.31 0.0 0 0 26.00 72.82
  L 26.00 82.20
  A 0.31 0.31 0.0 0 0 26.31 82.51
  L 28.69 82.51
  A 0.31 0.31 0.0 0 0 29.00 82.20
  L 29.00 72.82
  Z"
/>
<rect fill="#d3d7cf" x="-4.00" y="-6.65" transform="translate(15.00,29.10) rotate(-0.1)" width="8.00" height="13.30" rx="0.31"/>
<rect fill="#d3d7cf" x="-4.00" y="-4.12" transform="translate(30.00,31.63) rotate(-0.1)" width="8.00" height="8.24" rx="0.31"/>
<path fill="#6a6369" fill-opacity="0.996" d="
  M 21.50 30.21
  L 23.64 30.17
  Q 24.36 31.19 22.25 31.03
  Q 20.55 30.89 21.50 30.21
  Z"
/>
<rect fill="#b2b6b1" x="-1.50" y="-1.63" transform="translate(7.52,34.12) rotate(1.6)" width="3.00" height="3.26" rx="0.56"/>
<rect fill="#b2b6b1" x="-1.50" y="-1.63" transform="translate(22.51,34.12) rotate(1.2)" width="3.00" height="3.26" rx="0.53"/>
<rect fill="#b2b6b1" x="36.01" y="32.51" width="38.00" height="3.24" rx="0.43"/>
<path fill="#2e3335" d="
  M 121.21 52.00
  L 118.68 52.31
  A 0.66 0.65 89.0 0 0 118.10 52.92
  Q 118.02 53.89 119.21 53.50
  L 119.29 54.00
  Q 118.73 54.51 119.31 54.94
  Q 122.22 57.07 125.38 58.85
  L 137.27 58.74
  Q 137.45 67.52 136.50 76.25
  L 117.11 76.25
  Q 115.25 76.25 115.25 74.39
  L 115.25 60.56
  A 1.86 1.80 -0.5 0 1 117.08 58.76
  L 120.50 58.71
  Q 123.07 59.38 121.36 57.93
  Q 121.23 57.82 120.85 57.37
  Q 120.36 56.80 119.71 57.25
  Q 117.49 55.83 115.81 53.52
  Q 113.32 51.37 109.85 51.80
  Q 109.66 51.83 107.64 51.91
  Q 105.85 51.99 104.25 53.50
  Q 99.91 57.57 98.96 58.75
  Q 97.61 59.44 96.50 58.46
  L 101.29 53.50
  Q 102.68 53.81 102.45 52.66
  A 0.76 0.63 -0.3 0 0 101.82 52.14
  L 98.79 51.75
  L 98.80 36.89
  A 1.66 1.64 -0.0 0 1 100.46 35.25
  L 119.61 35.25
  A 1.59 1.56 -0.0 0 1 121.20 36.81
  L 121.21 52.00
  Z
  M 118.96 47.25
  L 119.00 38.02
  A 0.52 0.52 90.0 0 0 118.48 37.50
  L 104.75 37.54
  L 101.68 37.60
  A 0.59 0.53 -89.9 0 0 101.16 38.18
  L 101.02 50.11
  A 0.66 0.63 0.4 0 0 101.68 50.75
  L 118.44 50.82
  A 0.56 0.54 -0.5 0 0 119.00 50.27
  L 118.96 47.25
  Z
  M 135.71 70.50
  L 135.75 61.50
  A 0.50 0.50 0.0 0 0 135.25 61.00
  L 121.25 61.04
  L 118.18 61.10
  A 0.61 0.53 -89.9 0 0 117.66 61.70
  L 117.53 73.05
  A 0.98 0.94 0.3 0 0 118.51 74.00
  L 135.11 74.00
  A 0.63 0.60 -0.4 0 0 135.74 73.39
  L 135.71 70.50
  Z"
/>
<path fill="#b2b6b1" d="
  M 10.25 37.54
  L 10.00 82.46
  L 6.65 82.50
  A 0.67 0.64 89.6 0 1 6.00 81.83
  L 6.00 38.27
  A 0.73 0.68 -90.0 0 1 6.68 37.54
  L 10.25 37.54
  Z"
/>
<path fill="#d3d7cf" d="
  M 10.25 37.54
  L 70.25 37.54
  Q 69.63 60.00 70.25 82.46
  L 31.81 82.50
  A 0.81 0.81 -90.0 0 1 31.00 81.69
  L 31.00 71.98
  A 1.23 1.23 -88.0 0 0 29.77 70.75
  L 24.91 70.75
  A 0.92 0.91 90.0 0 0 24.00 71.67
  L 23.95 81.94
  A 0.59 0.57 86.7 0 1 23.45 82.52
  Q 22.47 82.65 21.54 82.36
  A 0.72 0.70 -82.2 0 1 21.05 81.69
  L 21.00 71.88
  A 1.13 1.12 90.0 0 0 19.88 70.75
  L 15.22 70.75
  A 1.24 1.22 -90.0 0 0 14.00 71.99
  L 13.95 81.93
  A 0.54 0.50 -90.0 0 1 13.45 82.47
  L 10.00 82.46
  L 10.25 37.54
  Z
  M 66.00 45.40
  A 1.40 1.40 0.0 0 0 64.60 44.00
  L 15.40 44.00
  A 1.40 1.40 0.0 0 0 14.00 45.40
  L 14.00 49.60
  A 1.40 1.40 0.0 0 0 15.40 51.00
  L 64.60 51.00
  A 1.40 1.40 0.0 0 0 66.00 49.60
  L 66.00 45.40
  Z
  M 66.00 58.49
  A 0.99 0.99 0.0 0 0 65.01 57.50
  L 14.99 57.50
  A 0.99 0.99 0.0 0 0 14.00 58.49
  L 14.00 63.27
  A 0.99 0.99 0.0 0 0 14.99 64.26
  L 65.01 64.26
  A 0.99 0.99 0.0 0 0 66.00 63.27
  L 66.00 58.49
  Z
  M 66.00 71.68
  A 0.94 0.94 0.0 0 0 65.06 70.74
  L 34.94 70.74
  A 0.94 0.94 0.0 0 0 34.00 71.68
  L 34.00 76.56
  A 0.94 0.94 0.0 0 0 34.94 77.50
  L 65.06 77.50
  A 0.94 0.94 0.0 0 0 66.00 76.56
  L 66.00 71.68
  Z"
/>
<path fill="#b2b6b1" d="
  M 70.25 37.54
  L 73.49 37.52
  A 0.52 0.50 89.5 0 1 74.00 38.04
  L 74.00 81.93
  A 0.57 0.55 -90.0 0 1 73.45 82.50
  L 70.25 82.46
  Q 69.63 60.00 70.25 37.54
  Z"
/>
<path fill="#d5d6d7" d="
  M 104.75 37.54
  L 105.24 46.19
  A 0.61 0.51 -0.3 0 0 105.82 46.67
  L 118.96 47.25
  L 119.00 50.27
  A 0.56 0.54 -0.5 0 1 118.44 50.82
  L 101.68 50.75
  A 0.66 0.63 0.4 0 1 101.02 50.11
  L 101.16 38.18
  A 0.59 0.53 -89.9 0 1 101.68 37.60
  L 104.75 37.54
  Z"
/>
<path fill="#ffffff" d="
  M 104.75 37.54
  L 118.48 37.50
  A 0.52 0.52 89.2 0 1 119.00 38.02
  L 118.96 47.25
  L 105.82 46.67
  A 0.61 0.51 -0.3 0 1 105.24 46.19
  L 104.75 37.54
  Z"
/>
<path fill="#272d2f" d="
  M 66.00 49.60
  A 1.40 1.40 0.0 0 1 64.60 51.00
  L 15.40 51.00
  A 1.40 1.40 0.0 0 1 14.00 49.60
  L 14.00 45.40
  A 1.40 1.40 0.0 0 1 15.40 44.00
  L 64.60 44.00
  A 1.40 1.40 0.0 0 1 66.00 45.40
  L 66.00 49.60
  Z
  M 64.01 46.31
  A 0.31 0.31 0.0 0 0 63.70 46.00
  L 16.32 46.00
  A 0.31 0.31 0.0 0 0 16.01 46.31
  L 16.01 48.69
  A 0.31 0.31 0.0 0 0 16.32 49.00
  L 63.70 49.00
  A 0.31 0.31 0.0 0 0 64.01 48.69
  L 64.01 46.31
  Z"
/>
<rect fill="#eeeeec" x="16.01" y="46.00" width="48.00" height="3.00" rx="0.31"/>
<path fill="#94a091" fill-opacity="0.988" d="
  M 98.79 51.75
  L 101.82 52.14
  A 0.76 0.63 -0.3 0 1 102.45 52.66
  Q 102.68 53.81 101.29 53.50
  Q 99.67 53.07 98.79 51.75
  Z"
/>
<path fill="#94a091" fill-opacity="0.988" d="
  M 115.81 53.52
  Q 113.65 52.97 111.44 52.92
  Q 107.66 52.84 107.07 52.94
  Q 104.88 53.28 103.06 55.31
  Q 100.73 57.92 100.46 58.50
  Q 99.84 59.47 98.96 58.75
  Q 99.91 57.57 104.25 53.50
  Q 105.85 51.99 107.64 51.91
  Q 109.66 51.83 109.85 51.80
  Q 113.32 51.37 115.81 53.52
  Z"
/>
<path fill="#94a091" fill-opacity="0.988" d="
  M 121.21 52.00
  Q 120.40 52.98 119.21 53.50
  Q 118.02 53.89 118.10 52.92
  A 0.66 0.65 89.0 0 1 118.68 52.31
  L 121.21 52.00
  Z"
/>
<path fill="#6a6369" fill-opacity="0.996" d="
  M 119.29 54.00
  Q 122.57 55.92 125.38 58.85
  Q 122.22 57.07 119.31 54.94
  Q 118.73 54.51 119.29 54.00
  Z"
/>
<path fill="#94a091" fill-opacity="0.988" d="
  M 120.50 58.71
  Q 120.54 57.76 119.71 57.25
  Q 120.36 56.80 120.85 57.37
  Q 121.23 57.82 121.36 57.93
  Q 123.07 59.38 120.50 58.71
  Z"
/>
<path fill="#2e3335" d="
  M 66.00 63.27
  A 0.99 0.99 0.0 0 1 65.01 64.26
  L 14.99 64.26
  A 0.99 0.99 0.0 0 1 14.00 63.27
  L 14.00 58.49
  A 0.99 0.99 0.0 0 1 14.99 57.50
  L 65.01 57.50
  A 0.99 0.99 0.0 0 1 66.00 58.49
  L 66.00 63.27
  Z
  M 64.01 59.56
  A 0.31 0.31 0.0 0 0 63.70 59.25
  L 16.32 59.25
  A 0.31 0.31 0.0 0 0 16.01 59.56
  L 16.01 62.18
  A 0.31 0.31 0.0 0 0 16.32 62.49
  L 63.70 62.49
  A 0.31 0.31 0.0 0 0 64.01 62.18
  L 64.01 59.56
  Z"
/>
<path fill="#bb1e1d" d="
  M 96.50 58.46
  Q 97.61 59.44 98.96 58.75
  Q 99.84 59.47 100.46 58.50
  Q 101.41 58.94 102.93 58.67
  A 1.38 1.38 82.8 0 1 104.54 59.92
  Q 105.18 67.89 104.37 75.57
  A 0.58 0.56 -86.6 0 1 103.81 76.08
  L 82.70 76.17
  Q 83.52 67.52 82.62 58.76
  L 96.50 58.46
  Z
  M 102.46 70.75
  L 102.50 61.52
  A 0.52 0.52 90.0 0 0 101.98 61.00
  L 87.75 61.04
  L 84.76 61.00
  A 0.53 0.50 -89.5 0 0 84.25 61.53
  L 84.19 73.25
  A 0.74 0.73 -89.6 0 0 84.92 74.00
  L 101.68 73.94
  A 0.70 0.67 7.7 0 0 102.35 73.45
  Q 102.72 72.14 102.46 70.75
  Z"
/>
<path fill="#b2b6b1" d="
  M 137.27 58.74
  Q 138.69 66.96 137.81 75.25
  A 1.16 0.93 81.0 0 1 137.35 76.06
  Q 136.87 76.37 136.50 76.25
  Q 137.45 67.52 137.27 58.74
  Z"
/>
<path fill="#b2b6b1" d="
  M 82.62 58.76
  Q 83.52 67.52 82.70 76.17
  Q 81.00 67.72 82.62 58.76
  Z"
/>
<rect fill="#eeeeec" x="16.01" y="59.25" width="48.00" height="3.24" rx="0.31"/>
<path fill="#f2d2d3" d="
  M 87.75 61.04
  Q 88.60 64.08 88.13 68.36
  A 1.53 1.53 1.6 0 0 89.74 70.06
  Q 96.66 69.66 102.46 70.75
  Q 102.72 72.14 102.35 73.45
  A 0.70 0.67 7.7 0 1 101.68 73.94
  L 84.92 74.00
  A 0.74 0.73 -89.6 0 1 84.19 73.25
  L 84.25 61.53
  A 0.53 0.50 -89.5 0 1 84.76 61.00
  L 87.75 61.04
  Z"
/>
<path fill="#ffffff" d="
  M 87.75 61.04
  L 101.98 61.00
  A 0.52 0.52 89.2 0 1 102.50 61.52
  L 102.46 70.75
  Q 96.66 69.66 89.74 70.06
  A 1.53 1.53 1.6 0 1 88.13 68.36
  Q 88.60 64.08 87.75 61.04
  Z"
/>
<path fill="#d5d6d7" d="
  M 121.25 61.04
  L 121.68 69.31
  A 0.53 0.52 89.4 0 0 122.18 69.81
  L 135.71 70.50
  L 135.74 73.39
  A 0.63 0.60 -0.4 0 1 135.11 74.00
  L 118.51 74.00
  A 0.98 0.94 0.3 0 1 117.53 73.05
  L 117.66 61.70
  A 0.61 0.53 -89.9 0 1 118.18 61.10
  L 121.25 61.04
  Z"
/>
<path fill="#ffffff" d="
  M 121.25 61.04
  L 135.25 61.00
  A 0.50 0.50 0.0 0 1 135.75 61.50
  L 135.71 70.50
  L 122.18 69.81
  A 0.53 0.52 89.4 0 1 121.68 69.31
  L 121.25 61.04
  Z"
/>
<path fill="#2e3335" d="
  M 66.00 76.56
  A 0.94 0.94 0.0 0 1 65.06 77.50
  L 34.94 77.50
  A 0.94 0.94 0.0 0 1 34.00 76.56
  L 34.00 71.68
  A 0.94 0.94 0.0 0 1 34.94 70.74
  L 65.06 70.74
  A 0.94 0.94 0.0 0 1 66.00 71.68
  L 66.00 76.56
  Z
  M 64.00 72.94
  A 0.43 0.43 0.0 0 0 63.57 72.51
  L 36.43 72.51
  A 0.43 0.43 0.0 0 0 36.00 72.94
  L 36.00 75.32
  A 0.43 0.43 0.0 0 0 36.43 75.75
  L 63.57 75.75
  A 0.43 0.43 0.0 0 0 64.00 75.32
  L 64.00 72.94
  Z"
/>
<rect fill="#eeeeec" x="16.00" y="72.51" width="3.00" height="10.00" rx="0.31"/>
<rect fill="#eeeeec" x="26.00" y="72.51" width="3.00" height="10.00" rx="0.31"/>
<rect fill="#eeeeec" x="36.00" y="72.51" width="28.00" height="3.24" rx="0.43"/>
<path fill="#94a091" fill-opacity="0.988" d="
  M 3.76 83.43
  Q 40.02 84.72 76.24 83.62
  Q 76.15 84.75 74.50 84.75
  Q 40.25 84.74 6.00 84.72
  Q 3.78 84.72 3.76 83.43
  Z"
/>
</svg>
