<?xml version="1.0" encoding="UTF-8" standalone="no"?>
<!DOCTYPE svg PUBLIC "-//W3C//DTD SVG 1.1//EN" "http://www.w3.org/Graphics/SVG/1.1/DTD/svg11.dtd">
<svg xmlns="http://www.w3.org/2000/svg" version="1.1" viewBox="0 0 140 100">
<g stroke-width="2.00" fill="none" stroke-linecap="butt">
<path stroke="#4d4a53" vector-effect="non-scaling-stroke" d="
  M 85.50 6.29
  Q 84.33 6.02 83.75 4.96"
/>
<path stroke="#4d4a53" vector-effect="non-scaling-stroke" d="
  M 80.04 13.00
  Q 79.97 10.27 78.73 11.79
  A 0.76 0.53 -54.9 0 1 77.95 12.07
  Q 77.63 11.91 77.46 11.50"
/>
<path stroke="#4d4a53" vector-effect="non-scaling-stroke" d="
  M 82.79 7.50
  L 83.95 7.58
  A 0.38 0.33 -2.5 0 0 84.36 7.19
  Q 83.99 5.46 82.54 6.75"
/>
<path stroke="#a05452" vector-effect="non-scaling-stroke" d="
  M 54.54 18.32
  Q 49.34 18.31 44.50 16.71"
/>
<path stroke="#5e5f61" vector-effect="non-scaling-stroke" d="
  M 44.50 16.71
  Q 42.29 15.46 41.06 15.44
  Q 36.00 15.33 37.08 9.85
  A 1.54 1.46 -84.5 0 0 35.65 8.02
  L 26.69 8.15
  A 0.60 0.57 -87.1 0 0 26.13 8.68
  Q 25.89 10.62 25.83 12.57
  Q 25.79 13.85 25.31 14.41
  Q 24.44 15.44 23.00 14.54"
/>
<path stroke="#cc4e4c" stroke-opacity="0.992" vector-effect="non-scaling-stroke" d="
  M 43.75 24.71
  Q 50.77 24.35 44.15 24.23
  A 1.51 1.38 88.8 0 1 42.80 22.81
  L 42.50 17.29"
/>
<path stroke="#752c2e" vector-effect="non-scaling-stroke" d="
  M 44.50 16.71
  L 42.50 17.29"
/>
<path stroke="#89595b" stroke-opacity="0.992" vector-effect="non-scaling-stroke" d="
  M 42.50 17.29
  Q 41.61 16.94 41.50 17.71"
/>
<path stroke="#5e5f61" vector-effect="non-scaling-stroke" d="
  M 33.41 14.92
  Q 30.07 15.89 33.38 17.71
  A 1.70 1.22 -26.0 0 0 34.31 17.87
  Q 37.20 17.56 37.14 20.12
  Q 37.13 20.62 37.17 22.38
  Q 37.21 24.48 34.68 24.27
  Q 30.68 23.94 26.36 24.51"
/>
<path stroke="#5e5f61" vector-effect="non-scaling-stroke" d="
  M 25.71 17.75
  L 30.26 17.85
  A 0.70 0.65 4.7 0 0 30.96 17.30
  Q 31.02 16.85 30.50 16.46"
/>
<path stroke="#5e5f61" vector-effect="non-scaling-stroke" d="
  M 30.50 15.79
  Q 31.58 13.43 29.75 15.21"
/>
<path stroke="#5e5f61" vector-effect="non-scaling-stroke" d="
  M 8.90 17.54
  Q 14.35 19.55 18.87 16.13"
/>
<path stroke="#4d4a53" vector-effect="non-scaling-stroke" d="
  M 100.25 11.29
  Q 98.63 10.78 99.17 11.77
  A 0.50 0.43 63.3 0 1 99.01 12.43
  Q 98.35 12.74 97.54 12.75"
/>
<path stroke="#787277" vector-effect="non-scaling-stroke" d="
  M 92.50 18.25
  Q 91.97 17.79 91.46 18.03
  A 0.63 0.54 67.4 0 0 91.21 18.80
  Q 91.71 20.03 92.50 18.25"
/>
<path stroke="#595b5c" vector-effect="non-scaling-stroke" d="
  M 81.50 30.21
  Q 80.40 30.66 81.78 31.07
  Q 83.61 31.60 83.71 30.00"
/>
<path stroke="#606564" stroke-opacity="0.996" vector-effect="non-scaling-stroke" d="
  M 136.10 84.24
  L 65.64 84.06
  A 0.40 0.32 0.0 0 0 65.24 84.38
  L 65.25 84.71"
/>
<path stroke="#64696a" stroke-opacity="0.996" vector-effect="non-scaling-stroke" d="
  M 36.79 30.50
  Q 37.35 32.89 37.00 34.75
  Q 36.53 37.24 38.50 38.04"
/>
<path stroke="#4d4a53" vector-effect="non-scaling-stroke" d="
  M 38.50 38.04
  L 43.54 40.00"
/>
<path stroke="#752c2e" vector-effect="non-scaling-stroke" d="
  M 43.54 40.00
  Q 43.21 40.67 42.50 40.79"
/>
<path stroke="#89595b" stroke-opacity="0.992" vector-effect="non-scaling-stroke" d="
  M 42.50 40.79
  Q 42.06 40.71 41.75 41.04"
/>
<path stroke="#5e5f61" vector-effect="non-scaling-stroke" d="
  M 37.75 40.04
  Q 35.79 37.54 32.80 38.19
  A 0.95 0.93 -85.8 0 0 32.12 38.79
  Q 31.02 41.76 34.19 40.94
  Q 36.26 40.40 36.96 42.00"
/>
<path stroke="#64696a" stroke-opacity="0.996" vector-effect="non-scaling-stroke" d="
  M 36.96 42.00
  L 36.89 46.33
  A 0.60 0.54 -0.6 0 1 36.31 46.86
  L 25.47 47.25"
/>
<path stroke="#64696a" stroke-opacity="0.996" vector-effect="non-scaling-stroke" d="
  M 21.04 47.25
  Q 15.05 46.55 8.89 47.35"
/>
<path stroke="#7e7c80" stroke-opacity="0.996" vector-effect="non-scaling-stroke" d="
  M 38.95 37.43
  Q 39.12 38.16 38.50 38.04"
/>
<path stroke="#8f3f44" vector-effect="non-scaling-stroke" d="
  M 53.37 40.32
  Q 48.22 41.21 43.54 40.00"
/>
<path stroke="#cc4e4c" stroke-opacity="0.992" vector-effect="non-scaling-stroke" d="
  M 54.03 47.57
  L 44.30 46.98
  Q 42.13 46.85 42.60 44.88
  Q 43.19 42.41 42.50 40.79"
/>
<path stroke="#8f908e" stroke-opacity="0.996" vector-effect="non-scaling-stroke" d="
  M 37.46 40.75
  Q 36.70 41.08 36.96 42.00"
/>
<path stroke="#595b5c" vector-effect="non-scaling-stroke" d="
  M 37.50 53.96
  Q 36.12 57.56 37.75 60.96"
/>
<path stroke="#48474d" vector-effect="non-scaling-stroke" d="
  M 37.75 60.96
  L 45.00 63.71"
/>
<path stroke="#712929" vector-effect="non-scaling-stroke" d="
  M 45.00 63.71
  Q 43.81 63.74 42.75 64.29"
/>
<path stroke="#855656" stroke-opacity="0.992" vector-effect="non-scaling-stroke" d="
  M 42.75 64.29
  L 42.25 64.21"
/>
<path stroke="#595b5c" vector-effect="non-scaling-stroke" d="
  M 42.25 64.21
  Q 39.21 62.56 35.80 62.01
  Q 35.34 61.94 34.92 61.64
  Q 32.89 60.20 32.01 62.04
  Q 31.64 62.83 31.96 63.48
  Q 32.44 64.42 33.75 63.79"
/>
<path stroke="#606564" stroke-opacity="0.996" vector-effect="non-scaling-stroke" d="
  M 37.17 63.86
  Q 36.70 67.54 37.31 71.12"
/>
<path stroke="#595b5c" vector-effect="non-scaling-stroke" d="
  M 30.51 62.86
  Q 31.05 61.86 30.66 61.33
  Q 30.34 60.90 29.73 61.04
  Q 29.00 61.20 29.04 62.00"
/>
<path stroke="#787277" vector-effect="non-scaling-stroke" d="
  M 38.25 60.71
  Q 37.84 60.69 37.75 60.96"
/>
<path stroke="#8f3f44" vector-effect="non-scaling-stroke" d="
  M 47.50 63.46
  Q 46.35 64.28 45.00 63.71"
/>
<path stroke="#b48180" stroke-opacity="0.992" vector-effect="non-scaling-stroke" d="
  M 42.25 64.21
  Q 41.83 64.18 41.71 64.50"
/>
<path stroke="#cc4e4c" stroke-opacity="0.992" vector-effect="non-scaling-stroke" d="
  M 42.75 71.04
  L 42.75 64.29"
/>
<path stroke="#a75e5b" stroke-opacity="0.996" vector-effect="non-scaling-stroke" d="
  M 54.53 88.35
  Q 49.36 88.24 44.50 86.71"
/>
<path stroke="#606564" stroke-opacity="0.996" vector-effect="non-scaling-stroke" d="
  M 44.50 86.71
  L 39.48 85.22
  Q 37.01 84.49 37.01 82.58
  L 37.00 79.29
  A 1.35 1.32 88.0 0 0 35.59 77.94
  Q 30.26 78.31 25.64 77.58"
/>
<path stroke="#712929" vector-effect="non-scaling-stroke" d="
  M 44.50 86.71
  Q 43.48 86.80 42.75 87.54"
/>
<path stroke="#855656" stroke-opacity="0.992" vector-effect="non-scaling-stroke" d="
  M 42.75 87.54
  Q 40.07 86.54 39.50 86.25
  Q 38.22 85.59 37.50 86.50"
/>
<path stroke="#606564" stroke-opacity="0.996" vector-effect="non-scaling-stroke" d="
  M 37.50 86.50
  L 37.29 86.50"
/>
<path stroke="#606564" stroke-opacity="0.996" vector-effect="non-scaling-stroke" d="
  M 37.00 86.21
  Q 37.36 85.03 35.34 85.08
  Q 34.79 85.09 34.26 84.92
  Q 31.40 83.98 31.95 86.42
  A 1.99 1.98 -8.5 0 0 34.05 87.97
  Q 38.23 87.63 36.61 93.39
  A 0.96 0.95 -79.3 0 1 35.61 94.08
  Q 30.64 93.61 26.33 94.56"
/>
<path stroke="#606564" stroke-opacity="0.996" vector-effect="non-scaling-stroke" d="
  M 25.75 87.71
  Q 27.84 87.87 29.94 87.81
  Q 31.77 87.77 30.50 86.46"
/>
<path stroke="#48474d" vector-effect="non-scaling-stroke" d="
  M 30.50 85.79
  Q 31.17 84.16 29.08 84.87
  Q 25.20 86.18 21.23 87.12
  Q 20.91 87.19 20.67 87.32
  Q 19.11 88.15 21.25 88.04"
/>
<path stroke="#595b5c" vector-effect="non-scaling-stroke" d="
  M 8.79 88.25
  Q 14.36 89.18 18.93 86.18"
/>
<path stroke="#cc4e4c" stroke-opacity="0.992" vector-effect="non-scaling-stroke" d="
  M 42.75 87.54
  L 43.21 93.70
  A 0.63 0.51 -0.3 0 0 43.81 94.18
  L 53.66 94.53"
/>
<path stroke="#999b9e" vector-effect="non-scaling-stroke" d="
  M 35.7370 9.5415
  A 0.30 0.30 0.0 0 0 35.4385 9.2400
  L 27.8186 9.2001
  A 0.30 0.30 0.0 0 0 27.5171 9.4985
  L 27.5030 12.1785
  A 0.30 0.30 0.0 0 0 27.8015 12.4800
  L 35.4214 12.5199
  A 0.30 0.30 0.0 0 0 35.7229 12.2215
  L 35.7370 9.5415"
/>
<path stroke="#999b9e" vector-effect="non-scaling-stroke" d="
  M 18.9843 19.6885
  A 0.64 0.64 0.0 0 0 18.3409 19.0519
  L 11.4210 19.0881
  A 0.64 0.64 0.0 0 0 10.7844 19.7315
  L 10.7957 21.8915
  A 0.64 0.64 0.0 0 0 11.4391 22.5281
  L 18.3590 22.4919
  A 0.64 0.64 0.0 0 0 18.9956 21.8485
  L 18.9843 19.6885"
/>
<path stroke="#999b9e" vector-effect="non-scaling-stroke" d="
  M 35.7354 19.5456
  A 0.32 0.32 0.0 0 0 35.4143 19.2267
  L 27.8143 19.2533
  A 0.32 0.32 0.0 0 0 27.4955 19.5744
  L 27.5046 22.1944
  A 0.32 0.32 0.0 0 0 27.8257 22.5133
  L 35.4257 22.4867
  A 0.32 0.32 0.0 0 0 35.7445 22.1656
  L 35.7354 19.5456"
/>
<path stroke="#db908f" vector-effect="non-scaling-stroke" d="
  M 52.5044 19.5891
  A 0.38 0.38 0.0 0 0 52.1318 19.2019
  L 44.6731 19.0587
  A 0.38 0.38 0.0 0 0 44.2859 19.4313
  L 44.2356 22.0509
  A 0.38 0.38 0.0 0 0 44.6082 22.4381
  L 52.0669 22.5813
  A 0.38 0.38 0.0 0 0 52.4541 22.2087
  L 52.5044 19.5891"
/>
<path stroke="#8c8f8f" vector-effect="non-scaling-stroke" d="
  M 78.9890 22.7930
  A 0.33 0.33 0.0 0 0 78.6584 22.4636
  L 71.3184 22.4764
  A 0.33 0.33 0.0 0 0 70.9890 22.8070
  L 71.0110 35.4270
  A 0.33 0.33 0.0 0 0 71.3416 35.7564
  L 78.6816 35.7436
  A 0.33 0.33 0.0 0 0 79.0110 35.4130
  L 78.9890 22.7930"
/>
<path stroke="#8c8f8f" vector-effect="non-scaling-stroke" d="
  M 93.9933 27.8130
  A 0.31 0.31 0.0 0 0 93.6828 27.5036
  L 86.3028 27.5164
  A 0.31 0.31 0.0 0 0 85.9934 27.8270
  L 86.0067 35.4470
  A 0.31 0.31 0.0 0 0 86.3172 35.7564
  L 93.6972 35.7436
  A 0.31 0.31 0.0 0 0 94.0066 35.4330
  L 93.9933 27.8130"
/>
<path stroke="#787b7c" vector-effect="non-scaling-stroke" d="
  M 69.1479 33.2243
  A 0.69 0.69 0.0 0 0 68.4639 32.5284
  L 66.5640 32.5118
  A 0.69 0.69 0.0 0 0 65.8680 33.1957
  L 65.8521 35.0157
  A 0.69 0.69 0.0 0 0 66.5361 35.7116
  L 68.4360 35.7282
  A 0.69 0.69 0.0 0 0 69.1320 35.0443
  L 69.1479 33.2243"
/>
<path stroke="#787b7c" vector-effect="non-scaling-stroke" d="
  M 83.9846 33.0734
  A 0.61 0.61 0.0 0 0 83.3599 32.4785
  L 81.5604 32.5225
  A 0.61 0.61 0.0 0 0 80.9655 33.1472
  L 81.0154 35.1866
  A 0.61 0.61 0.0 0 0 81.6401 35.7815
  L 83.4396 35.7375
  A 0.61 0.61 0.0 0 0 84.0345 35.1128
  L 83.9846 33.0734"
/>
<path stroke="#787b7c" vector-effect="non-scaling-stroke" d="
  M 134.00 32.87
  A 0.37 0.37 0.0 0 0 133.63 32.50
  L 96.41 32.50
  A 0.37 0.37 0.0 0 0 96.04 32.87
  L 96.04 35.39
  A 0.37 0.37 0.0 0 0 96.41 35.76
  L 133.63 35.76
  A 0.37 0.37 0.0 0 0 134.00 35.39
  L 134.00 32.87"
/>
<path stroke="#7f8481" vector-effect="non-scaling-stroke" d="
  M 69.75 82.46
  L 73.45 82.47
  A 0.53 0.50 -90.0 0 0 73.95 81.94
  L 74.00 71.75
  A 1.01 0.99 -89.7 0 1 74.99 70.75
  L 79.76 70.75
  A 1.24 1.24 0.0 0 1 81.00 71.99
  Q 81.00 76.34 81.00 80.01
  Q 81.00 80.07 80.92 80.99
  Q 80.76 82.99 83.57 82.37
  A 0.64 0.61 84.5 0 0 84.06 81.75
  L 84.05 71.57
  A 0.64 0.63 83.8 0 1 84.54 70.95
  Q 85.91 70.65 87.32 70.69
  Q 87.48 70.69 89.16 70.63
  Q 91.60 70.55 91.00 73.50
  Q 90.67 75.13 91.15 81.82
  A 0.54 0.53 87.7 0 0 91.68 82.32
  L 130.25 82.46"
/>
<path stroke="#6e7372" vector-effect="non-scaling-stroke" d="
  M 130.25 82.46
  L 133.45 82.50
  A 0.57 0.55 90.0 0 0 134.00 81.93
  L 134.00 38.04
  A 0.52 0.50 89.5 0 0 133.49 37.52
  L 130.25 37.54"
/>
<path stroke="#7f8481" vector-effect="non-scaling-stroke" d="
  M 130.25 37.54
  L 70.25 37.54"
/>
<path stroke="#6e7372" vector-effect="non-scaling-stroke" d="
  M 70.25 37.54
  L 66.77 37.33
  A 0.53 0.48 2.2 0 0 66.20 37.80
  L 66.06 81.70
  A 0.65 0.65 -82.5 0 0 66.54 82.33
  Q 68.11 82.72 69.75 82.46"
/>
<path stroke="#c3c7c0" vector-effect="non-scaling-stroke" d="
  M 70.25 37.54
  Q 69.75 47.92 69.97 58.31
  Q 70.23 70.39 69.75 82.46"
/>
<path stroke="#c3c7c0" vector-effect="non-scaling-stroke" d="
  M 130.25 37.54
  Q 129.63 60.00 130.25 82.46"
/>
<path stroke="#8c8f8f" vector-effect="non-scaling-stroke" d="
  M 79.00 72.82
  A 0.31 0.31 0.0 0 0 78.69 72.51
  L 76.31 72.51
  A 0.31 0.31 0.0 0 0 76.00 72.82
  L 76.00 82.20
  A 0.31 0.31 0.0 0 0 76.31 82.51
  L 78.69 82.51
  A 0.31 0.31 0.0 0 0 79.00 82.20
  L 79.00 72.82"
/>
<path stroke="#8c8f8f" vector-effect="non-scaling-stroke" d="
  M 89.00 72.82
  A 0.31 0.31 0.0 0 0 88.69 72.51
  L 86.31 72.51
  A 0.31 0.31 0.0 0 0 86.00 72.82
  L 86.00 82.20
  A 0.31 0.31 0.0 0 0 86.31 82.51
  L 88.69 82.51
  A 0.31 0.31 0.0 0 0 89.00 82.20
  L 89.00 72.82"
/>
<path stroke="#999b9e" vector-effect="non-scaling-stroke" d="
  M 35.7210 32.7627
  A 0.32 0.32 0.0 0 0 35.3966 32.4472
  L 27.8173 32.5531
  A 0.32 0.32 0.0 0 0 27.5018 32.8775
  L 27.5390 35.5373
  A 0.32 0.32 0.0 0 0 27.8634 35.8528
  L 35.4427 35.7469
  A 0.32 0.32 0.0 0 0 35.7582 35.4225
  L 35.7210 32.7627"
/>
<path stroke="#64696a" stroke-opacity="0.996" vector-effect="non-scaling-stroke" d="
  M 29.50 40.29
  Q 29.66 40.68 29.95 40.83
  A 0.57 0.45 -65.4 0 0 30.64 40.48
  Q 31.79 37.58 28.32 38.13
  Q 27.56 38.25 27.79 39.00"
/>
<path stroke="#999b9e" vector-effect="non-scaling-stroke" d="
  M 18.9783 42.9584
  A 0.56 0.56 0.0 0 0 18.4124 42.4043
  L 11.5728 42.4759
  A 0.56 0.56 0.0 0 0 11.0187 43.0417
  L 11.0417 45.2416
  A 0.56 0.56 0.0 0 0 11.6076 45.7957
  L 18.4472 45.7241
  A 0.56 0.56 0.0 0 0 19.0013 45.1583
  L 18.9783 42.9584"
/>
<path stroke="#999b9e" vector-effect="non-scaling-stroke" d="
  M 35.75 43.14
  A 0.64 0.64 0.0 0 0 35.11 42.50
  L 28.15 42.50
  A 0.64 0.64 0.0 0 0 27.51 43.14
  L 27.51 45.12
  A 0.64 0.64 0.0 0 0 28.15 45.76
  L 35.11 45.76
  A 0.64 0.64 0.0 0 0 35.75 45.12
  L 35.75 43.14"
/>
<path stroke="#2f3438" vector-effect="non-scaling-stroke" d="
  M 12.18 46.68
  Q 12.36 47.01 13.27 46.83
  Q 17.35 45.98 12.69 46.16
  A 0.51 0.35 -11.2 0 0 12.18 46.68"
/>
<path stroke="#7f8481" vector-effect="non-scaling-stroke" d="
  M 125.99 45.29
  A 1.29 1.29 0.0 0 0 124.70 44.00
  L 75.30 44.00
  A 1.29 1.29 0.0 0 0 74.01 45.29
  L 74.01 49.71
  A 1.29 1.29 0.0 0 0 75.30 51.00
  L 124.70 51.00
  A 1.29 1.29 0.0 0 0 125.99 49.71
  L 125.99 45.29"
/>
<path stroke="#818683" vector-effect="non-scaling-stroke" d="
  M 126.00 58.51
  A 1.01 1.01 0.0 0 0 124.99 57.50
  L 75.01 57.50
  A 1.01 1.01 0.0 0 0 74.00 58.51
  L 74.00 63.25
  A 1.01 1.01 0.0 0 0 75.01 64.26
  L 124.99 64.26
  A 1.01 1.01 0.0 0 0 126.00 63.25
  L 126.00 58.51"
/>
<path stroke="#818683" vector-effect="non-scaling-stroke" d="
  M 126.00 71.68
  A 0.94 0.94 0.0 0 0 125.06 70.74
  L 94.94 70.74
  A 0.94 0.94 0.0 0 0 94.00 71.68
  L 94.00 76.56
  A 0.94 0.94 0.0 0 0 94.94 77.50
  L 125.06 77.50
  A 0.94 0.94 0.0 0 0 126.00 76.56
  L 126.00 71.68"
/>
<path stroke="#db908f" vector-effect="non-scaling-stroke" d="
  M 52.4783 42.9387
  A 0.44 0.44 0.0 0 0 52.0414 42.4957
  L 44.7015 42.4444
  A 0.44 0.44 0.0 0 0 44.2585 42.8813
  L 44.2417 45.2813
  A 0.44 0.44 0.0 0 0 44.6786 45.7243
  L 52.0185 45.7756
  A 0.44 0.44 0.0 0 0 52.4615 45.3387
  L 52.4783 42.9387"
/>
<path stroke="#8c8f8f" vector-effect="non-scaling-stroke" d="
  M 124.00 46.27
  A 0.27 0.27 0.0 0 0 123.73 46.00
  L 76.27 46.00
  A 0.27 0.27 0.0 0 0 76.00 46.27
  L 76.00 48.73
  A 0.27 0.27 0.0 0 0 76.27 49.00
  L 123.73 49.00
  A 0.27 0.27 0.0 0 0 124.00 48.73
  L 124.00 46.27"
/>
<path stroke="#959899" vector-effect="non-scaling-stroke" d="
  M 35.71 56.46
  A 0.49 0.49 0.0 0 0 35.22 55.97
  L 28.02 55.97
  A 0.49 0.49 0.0 0 0 27.53 56.46
  L 27.53 58.54
  A 0.49 0.49 0.0 0 0 28.02 59.03
  L 35.22 59.03
  A 0.49 0.49 0.0 0 0 35.71 58.54
  L 35.71 56.46"
/>
<path stroke="#959899" vector-effect="non-scaling-stroke" d="
  M 19.1243 66.8242
  A 0.88 0.88 0.0 0 0 18.2367 65.9520
  L 11.7969 66.0082
  A 0.88 0.88 0.0 0 0 10.9247 66.8958
  L 10.9357 68.1558
  A 0.88 0.88 0.0 0 0 11.8233 69.0280
  L 18.2631 68.9718
  A 0.88 0.88 0.0 0 0 19.1353 68.0842
  L 19.1243 66.8242"
/>
<path stroke="#959899" vector-effect="non-scaling-stroke" d="
  M 35.76 66.59
  A 0.59 0.59 0.0 0 0 35.17 66.00
  L 28.09 66.00
  A 0.59 0.59 0.0 0 0 27.50 66.59
  L 27.50 68.41
  A 0.59 0.59 0.0 0 0 28.09 69.00
  L 35.17 69.00
  A 0.59 0.59 0.0 0 0 35.76 68.41
  L 35.76 66.59"
/>
<path stroke="#8f9191" vector-effect="non-scaling-stroke" d="
  M 124.00 59.69
  A 0.43 0.43 0.0 0 0 123.57 59.26
  L 76.43 59.26
  A 0.43 0.43 0.0 0 0 76.00 59.69
  L 76.00 62.07
  A 0.43 0.43 0.0 0 0 76.43 62.50
  L 123.57 62.50
  A 0.43 0.43 0.0 0 0 124.00 62.07
  L 124.00 59.69"
/>
<path stroke="#db908f" vector-effect="non-scaling-stroke" d="
  M 52.4733 66.6555
  A 0.64 0.64 0.0 0 0 51.8434 66.0055
  L 44.8043 65.8949
  A 0.64 0.64 0.0 0 0 44.1543 66.5248
  L 44.1267 68.2845
  A 0.64 0.64 0.0 0 0 44.7566 68.9345
  L 51.7957 69.0451
  A 0.64 0.64 0.0 0 0 52.4457 68.4152
  L 52.4733 66.6555"
/>
<path stroke="#8f9191" vector-effect="non-scaling-stroke" d="
  M 124.00 72.94
  A 0.43 0.43 0.0 0 0 123.57 72.51
  L 96.43 72.51
  A 0.43 0.43 0.0 0 0 96.00 72.94
  L 96.00 75.32
  A 0.43 0.43 0.0 0 0 96.43 75.75
  L 123.57 75.75
  A 0.43 0.43 0.0 0 0 124.00 75.32
  L 124.00 72.94"
/>
<path stroke="#959899" vector-effect="non-scaling-stroke" d="
  M 35.7306 79.5013
  A 0.30 0.30 0.0 0 0 35.4285 79.2034
  L 27.7887 79.2567
  A 0.30 0.30 0.0 0 0 27.4908 79.5588
  L 27.5094 82.2187
  A 0.30 0.30 0.0 0 0 27.8115 82.5166
  L 35.4513 82.4633
  A 0.30 0.30 0.0 0 0 35.7492 82.1612
  L 35.7306 79.5013"
/>
<path stroke="#959899" vector-effect="non-scaling-stroke" d="
  M 19.0843 89.5568
  A 0.65 0.65 0.0 0 0 18.4153 88.9264
  L 11.3784 89.1352
  A 0.65 0.65 0.0 0 0 10.7480 89.8042
  L 10.8157 92.0832
  A 0.65 0.65 0.0 0 0 11.4847 92.7136
  L 18.5216 92.5048
  A 0.65 0.65 0.0 0 0 19.1520 91.8358
  L 19.0843 89.5568"
/>
<path stroke="#959899" vector-effect="non-scaling-stroke" d="
  M 35.7354 89.5456
  A 0.32 0.32 0.0 0 0 35.4143 89.2267
  L 27.8143 89.2533
  A 0.32 0.32 0.0 0 0 27.4955 89.5744
  L 27.5046 92.1944
  A 0.32 0.32 0.0 0 0 27.8257 92.5133
  L 35.4257 92.4867
  A 0.32 0.32 0.0 0 0 35.7445 92.1656
  L 35.7354 89.5456"
/>
<path stroke="#db908f" vector-effect="non-scaling-stroke" d="
  M 52.5073 89.6536
  A 0.44 0.44 0.0 0 0 52.0774 89.2037
  L 44.7393 89.0372
  A 0.44 0.44 0.0 0 0 44.2894 89.4671
  L 44.2327 91.9664
  A 0.44 0.44 0.0 0 0 44.6626 92.4163
  L 52.0007 92.5828
  A 0.44 0.44 0.0 0 0 52.4506 92.1529
  L 52.5073 89.6536"
/>
</g>
<path fill="#33373d" d="
  M 85.50 6.29
  Q 84.33 6.02 83.75 4.96
  Q 86.82 4.28 89.97 4.40
  Q 90.53 4.42 91.36 4.24
  Q 92.96 3.89 92.38 5.48
  A 1.04 0.94 0.9 0 1 91.70 6.08
  Q 88.66 6.91 85.50 6.29
  Z"
/>
<path fill="#675e69" fill-opacity="0.996" d="
  M 83.75 4.96
  Q 84.33 6.02 85.50 6.29
  Q 86.98 10.88 81.15 10.10
  Q 80.53 10.02 80.79 10.58
  Q 81.45 12.07 80.04 13.00
  Q 79.97 10.27 78.73 11.79
  A 0.76 0.53 -54.9 0 1 77.95 12.07
  Q 77.63 11.91 77.46 11.50
  Q 77.00 7.77 80.74 8.31
  Q 82.02 8.49 82.79 7.50
  L 83.95 7.58
  A 0.38 0.33 -2.5 0 0 84.36 7.19
  Q 83.99 5.46 82.54 6.75
  Q 82.51 5.47 83.75 4.96
  Z"
/>
<path fill="#33373d" d="
  M 82.79 7.50
  Q 82.46 7.19 82.54 6.75
  Q 83.99 5.46 84.36 7.19
  A 0.38 0.33 -2.5 0 1 83.95 7.58
  L 82.79 7.50
  Z"
/>
<path fill="#888685" d="
  M 54.54 18.32
  Q 49.34 18.31 44.50 16.71
  Q 42.29 15.46 41.06 15.44
  Q 36.00 15.33 37.08 9.85
  A 1.54 1.46 -84.5 0 0 35.65 8.02
  L 26.69 8.15
  A 0.60 0.57 -87.1 0 0 26.13 8.68
  Q 25.89 10.62 25.83 12.57
  Q 25.79 13.85 25.31 14.41
  Q 24.44 15.44 23.00 14.54
  Q 25.78 14.48 25.25 11.50
  Q 24.93 9.69 25.62 7.78
  A 0.86 0.83 6.6 0 1 26.32 7.25
  Q 29.65 6.88 33.02 6.94
  Q 36.45 7.00 36.47 7.00
  Q 38.47 7.55 37.83 11.19
  Q 37.43 13.49 39.58 14.40
  Q 45.56 16.93 53.56 17.19
  Q 54.93 17.23 54.54 18.32
  Z"
/>
<path fill="#33373d" d="
  M 44.50 16.71
  L 42.50 17.29
  Q 41.61 16.94 41.50 17.71
  L 33.41 14.92
  Q 30.07 15.89 33.38 17.71
  A 1.70 1.22 -26.0 0 0 34.31 17.87
  Q 37.20 17.56 37.14 20.12
  Q 37.13 20.62 37.17 22.38
  Q 37.21 24.48 34.68 24.27
  Q 30.68 23.94 26.36 24.51
  Q 24.14 21.44 25.71 17.75
  L 30.26 17.85
  A 0.70 0.65 4.7 0 0 30.96 17.30
  Q 31.02 16.85 30.50 16.46
  L 30.50 15.79
  Q 31.58 13.43 29.75 15.21
  L 22.25 17.50
  A 1.45 1.43 81.6 0 0 21.24 18.88
  L 21.21 23.43
  A 1.07 1.02 -0.6 0 1 20.16 24.45
  L 10.30 24.69
  A 1.42 1.20 -0.5 0 1 8.85 23.49
  L 8.90 17.54
  Q 14.35 19.55 18.87 16.13
  L 23.00 14.54
  Q 24.44 15.44 25.31 14.41
  Q 25.79 13.85 25.83 12.57
  Q 25.89 10.62 26.13 8.68
  A 0.60 0.57 -87.1 0 1 26.69 8.15
  L 35.65 8.02
  A 1.54 1.46 -84.5 0 1 37.08 9.85
  Q 36.00 15.33 41.06 15.44
  Q 42.29 15.46 44.50 16.71
  Z
  M 35.7370 9.5415
  A 0.30 0.30 0.0 0 0 35.4385 9.2400
  L 27.8186 9.2001
  A 0.30 0.30 0.0 0 0 27.5171 9.4985
  L 27.5030 12.1785
  A 0.30 0.30 0.0 0 0 27.8015 12.4800
  L 35.4214 12.5199
  A 0.30 0.30 0.0 0 0 35.7229 12.2215
  L 35.7370 9.5415
  Z
  M 18.9843 19.6885
  A 0.64 0.64 0.0 0 0 18.3409 19.0519
  L 11.4210 19.0881
  A 0.64 0.64 0.0 0 0 10.7844 19.7315
  L 10.7957 21.8915
  A 0.64 0.64 0.0 0 0 11.4391 22.5281
  L 18.3590 22.4919
  A 0.64 0.64 0.0 0 0 18.9956 21.8485
  L 18.9843 19.6885
  Z
  M 35.7354 19.5456
  A 0.32 0.32 0.0 0 0 35.4143 19.2267
  L 27.8143 19.2533
  A 0.32 0.32 0.0 0 0 27.4955 19.5744
  L 27.5046 22.1944
  A 0.32 0.32 0.0 0 0 27.8257 22.5133
  L 35.4257 22.4867
  A 0.32 0.32 0.0 0 0 35.7445 22.1656
  L 35.7354 19.5456
  Z"
/>
<rect fill="#ffffff" x="-4.11" y="-1.64" transform="translate(31.62,10.86) rotate(0.3)" width="8.22" height="3.28" rx="0.30"/>
<path fill="#33373d" d="
  M 100.25 11.29
  Q 98.63 10.78 99.17 11.77
  A 0.50 0.43 63.3 0 1 99.01 12.43
  Q 98.35 12.74 97.54 12.75
  Q 97.24 9.31 100.75 9.51
  Q 104.09 9.71 106.25 9.25
  Q 107.84 8.91 107.57 10.22
  A 0.97 0.83 -7.2 0 1 106.98 10.87
  Q 103.75 12.10 100.25 11.29
  Z"
/>
<path fill="#675e69" fill-opacity="0.996" d="
  M 100.25 11.29
  Q 102.26 15.20 96.64 15.26
  A 0.71 0.70 -5.5 0 0 95.95 16.09
  Q 96.45 18.94 92.50 18.25
  Q 91.97 17.79 91.46 18.03
  A 0.63 0.54 67.4 0 0 91.21 18.80
  Q 91.71 20.03 92.50 18.25
  Q 92.98 20.59 91.24 21.80
  A 0.93 0.88 -19.6 0 0 90.85 22.57
  Q 90.97 25.21 89.18 23.75
  Q 88.12 22.89 87.90 22.66
  Q 86.67 21.39 88.95 20.03
  A 0.77 0.77 70.9 0 0 89.32 19.26
  Q 88.93 16.28 91.81 16.51
  A 0.48 0.47 -87.1 0 0 92.31 16.05
  Q 92.44 12.39 96.48 13.32
  Q 97.40 13.53 97.54 12.75
  Q 98.35 12.74 99.01 12.43
  A 0.50 0.43 63.3 0 0 99.17 11.77
  Q 98.63 10.78 100.25 11.29
  Z"
/>
<path fill="#33373d" d="
  M 80.04 13.00
  Q 79.21 13.44 78.24 13.35
  Q 76.95 13.22 77.71 14.61
  A 0.99 0.99 -23.9 0 1 77.16 16.03
  Q 75.93 16.44 75.86 17.38
  Q 75.76 18.66 75.73 18.71
  Q 75.25 19.56 73.94 18.56
  Q 71.10 16.41 73.98 14.90
  A 0.64 0.62 -19.5 0 0 74.32 14.21
  Q 73.68 11.17 77.46 11.50
  Q 77.63 11.91 77.95 12.07
  A 0.76 0.53 -54.9 0 0 78.73 11.79
  Q 79.97 10.27 80.04 13.00
  Z"
/>
<path fill="#888685" d="
  M 30.50 15.79
  L 29.75 15.21
  Q 31.58 13.43 30.50 15.79
  Z"
/>
<path fill="#888685" d="
  M 33.41 14.92
  Q 31.96 17.41 34.25 17.00
  Q 38.05 16.32 38.18 19.25
  Q 38.27 21.24 38.10 22.76
  Q 37.86 24.98 35.28 24.87
  Q 33.30 24.79 33.21 24.79
  Q 29.90 24.87 26.36 24.51
  Q 30.68 23.94 34.68 24.27
  Q 37.21 24.48 37.17 22.38
  Q 37.13 20.62 37.14 20.12
  Q 37.20 17.56 34.31 17.87
  A 1.70 1.22 -26.0 0 1 33.38 17.71
  Q 30.07 15.89 33.41 14.92
  Z"
/>
<path fill="#888685" d="
  M 18.87 16.13
  Q 14.35 19.55 8.90 17.54
  L 18.87 16.13
  Z"
/>
<path fill="#888685" d="
  M 30.50 16.46
  Q 31.02 16.85 30.96 17.30
  A 0.70 0.65 4.7 0 1 30.26 17.85
  L 25.71 17.75
  Q 26.30 16.63 27.76 16.97
  Q 29.28 17.33 30.50 16.46
  Z"
/>
<path fill="#b7211f" d="
  M 44.50 16.71
  Q 49.34 18.31 54.54 18.32
  Q 55.03 20.97 54.40 23.77
  A 1.16 1.12 -83.6 0 1 53.30 24.68
  L 43.75 24.71
  Q 50.77 24.35 44.15 24.23
  A 1.51 1.38 88.8 0 1 42.80 22.81
  L 42.50 17.29
  L 44.50 16.71
  Z
  M 52.5044 19.5891
  A 0.38 0.38 0.0 0 0 52.1318 19.2019
  L 44.6731 19.0587
  A 0.38 0.38 0.0 0 0 44.2859 19.4313
  L 44.2356 22.0509
  A 0.38 0.38 0.0 0 0 44.6082 22.4381
  L 52.0669 22.5813
  A 0.38 0.38 0.0 0 0 52.4541 22.2087
  L 52.5044 19.5891
  Z"
/>
<path fill="#e17c7a" fill-opacity="0.984" d="
  M 42.50 17.29
  L 42.80 22.81
  A 1.51 1.38 88.8 0 0 44.15 24.23
  Q 50.77 24.35 43.75 24.71
  Q 41.43 24.39 41.94 21.74
  Q 42.35 19.62 41.50 17.71
  Q 41.61 16.94 42.50 17.29
  Z"
/>
<path fill="#888685" d="
  M 92.50 18.25
  Q 91.71 20.03 91.21 18.80
  A 0.63 0.54 67.4 0 1 91.46 18.03
  Q 91.97 17.79 92.50 18.25
  Z"
/>
<rect fill="#ffffff" x="-4.10" y="-1.72" transform="translate(14.89,20.79) rotate(-0.3)" width="8.20" height="3.44" rx="0.64"/>
<rect fill="#ffffff" x="-4.11" y="-1.69" transform="translate(48.37,20.82) rotate(1.1)" width="8.22" height="3.38" rx="0.38"/>
<rect fill="#ffffff" x="-4.12" y="-1.63" transform="translate(31.62,20.87) rotate(-0.2)" width="8.24" height="3.26" rx="0.32"/>
<path fill="#2a3032" d="
  M 81.50 30.21
  Q 80.40 30.66 81.78 31.07
  Q 83.61 31.60 83.71 30.00
  L 83.74 26.98
  A 1.75 1.70 -89.7 0 1 85.44 25.25
  Q 89.75 25.25 93.74 25.10
  Q 96.94 24.98 96.12 28.89
  A 1.13 1.12 -84.0 0 0 97.22 30.25
  L 134.53 30.25
  A 1.72 1.71 -0.0 0 1 136.25 31.96
  L 136.10 84.24
  L 65.64 84.06
  A 0.40 0.32 0.0 0 0 65.24 84.38
  L 65.25 84.71
  Q 63.75 84.55 63.75 82.50
  Q 63.75 58.67 63.75 34.85
  Q 63.75 31.73 63.77 31.66
  Q 64.27 29.75 67.57 30.35
  A 1.00 1.00 5.3 0 0 68.75 29.37
  Q 68.75 26.34 68.75 23.96
  Q 68.75 23.89 68.65 22.55
  Q 68.46 19.92 71.50 20.20
  Q 74.62 20.49 77.72 20.06
  Q 82.03 19.47 81.25 23.75
  Q 80.89 25.73 81.50 30.21
  Z
  M 78.9890 22.7930
  A 0.33 0.33 0.0 0 0 78.6584 22.4636
  L 71.3184 22.4764
  A 0.33 0.33 0.0 0 0 70.9890 22.8070
  L 71.0110 35.4270
  A 0.33 0.33 0.0 0 0 71.3416 35.7564
  L 78.6816 35.7436
  A 0.33 0.33 0.0 0 0 79.0110 35.4130
  L 78.9890 22.7930
  Z
  M 93.9933 27.8130
  A 0.31 0.31 0.0 0 0 93.6828 27.5036
  L 86.3028 27.5164
  A 0.31 0.31 0.0 0 0 85.9934 27.8270
  L 86.0067 35.4470
  A 0.31 0.31 0.0 0 0 86.3172 35.7564
  L 93.6972 35.7436
  A 0.31 0.31 0.0 0 0 94.0066 35.4330
  L 93.9933 27.8130
  Z
  M 69.1479 33.2243
  A 0.69 0.69 0.0 0 0 68.4639 32.5284
  L 66.5640 32.5118
  A 0.69 0.69 0.0 0 0 65.8680 33.1957
  L 65.8521 35.0157
  A 0.69 0.69 0.0 0 0 66.5361 35.7116
  L 68.4360 35.7282
  A 0.69 0.69 0.0 0 0 69.1320 35.0443
  L 69.1479 33.2243
  Z
  M 83.9846 33.0734
  A 0.61 0.61 0.0 0 0 83.3599 32.4785
  L 81.5604 32.5225
  A 0.61 0.61 0.0 0 0 80.9655 33.1472
  L 81.0154 35.1866
  A 0.61 0.61 0.0 0 0 81.6401 35.7815
  L 83.4396 35.7375
  A 0.61 0.61 0.0 0 0 84.0345 35.1128
  L 83.9846 33.0734
  Z
  M 134.00 32.87
  A 0.37 0.37 0.0 0 0 133.63 32.50
  L 96.41 32.50
  A 0.37 0.37 0.0 0 0 96.04 32.87
  L 96.04 35.39
  A 0.37 0.37 0.0 0 0 96.41 35.76
  L 133.63 35.76
  A 0.37 0.37 0.0 0 0 134.00 35.39
  L 134.00 32.87
  Z
  M 69.75 82.46
  L 73.45 82.47
  A 0.53 0.50 -90.0 0 0 73.95 81.94
  L 74.00 71.75
  A 1.01 0.99 -89.7 0 1 74.99 70.75
  L 79.76 70.75
  A 1.24 1.24 0.0 0 1 81.00 71.99
  Q 81.00 76.34 81.00 80.01
  Q 81.00 80.07 80.92 80.99
  Q 80.76 82.99 83.57 82.37
  A 0.64 0.61 84.5 0 0 84.06 81.75
  L 84.05 71.57
  A 0.64 0.63 83.8 0 1 84.54 70.95
  Q 85.91 70.65 87.32 70.69
  Q 87.48 70.69 89.16 70.63
  Q 91.60 70.55 91.00 73.50
  Q 90.67 75.13 91.15 81.82
  A 0.54 0.53 87.7 0 0 91.68 82.32
  L 130.25 82.46
  L 133.45 82.50
  A 0.57 0.55 90.0 0 0 134.00 81.93
  L 134.00 38.04
  A 0.52 0.50 89.5 0 0 133.49 37.52
  L 130.25 37.54
  L 70.25 37.54
  L 66.77 37.33
  A 0.53 0.48 2.2 0 0 66.20 37.80
  L 66.06 81.70
  A 0.65 0.65 -82.5 0 0 66.54 82.33
  Q 68.11 82.72 69.75 82.46
  Z
  M 79.00 72.82
  A 0.31 0.31 0.0 0 0 78.69 72.51
  L 76.31 72.51
  A 0.31 0.31 0.0 0 0 76.00 72.82
  L 76.00 82.20
  A 0.31 0.31 0.0 0 0 76.31 82.51
  L 78.69 82.51
  A 0.31 0.31 0.0 0 0 79.00 82.20
  L 79.00 72.82
  Z
  M 89.00 72.82
  A 0.31 0.31 0.0 0 0 88.69 72.51
  L 86.31 72.51
  A 0.31 0.31 0.0 0 0 86.00 72.82
  L 86.00 82.20
  A 0.31 0.31 0.0 0 0 86.31 82.51
  L 88.69 82.51
  A 0.31 0.31 0.0 0 0 89.00 82.20
  L 89.00 72.82
  Z"
/>
<rect fill="#eeeeec" x="-4.00" y="-6.64" transform="translate(75.00,29.11) rotate(-0.1)" width="8.00" height="13.28" rx="0.33"/>
<rect fill="#eeeeec" x="-4.00" y="-4.12" transform="translate(90.00,31.63) rotate(-0.1)" width="8.00" height="8.24" rx="0.31"/>
<path fill="#888685" d="
  M 83.71 30.00
  Q 83.61 31.60 81.78 31.07
  Q 80.40 30.66 81.50 30.21
  Q 82.64 30.39 83.71 30.00
  Z"
/>
<path fill="#33373d" d="
  M 36.79 30.50
  Q 37.35 32.89 37.00 34.75
  Q 36.53 37.24 38.50 38.04
  L 43.54 40.00
  Q 43.21 40.67 42.50 40.79
  Q 42.06 40.71 41.75 41.04
  L 37.75 40.04
  Q 35.79 37.54 32.80 38.19
  A 0.95 0.93 -85.8 0 0 32.12 38.79
  Q 31.02 41.76 34.19 40.94
  Q 36.26 40.40 36.96 42.00
  L 36.89 46.33
  A 0.60 0.54 -0.6 0 1 36.31 46.86
  L 25.47 47.25
  L 25.36 41.68
  A 1.18 0.66 -29.2 0 1 25.84 40.90
  Q 26.90 40.07 25.71 39.86
  Q 25.36 39.80 24.95 39.97
  Q 23.73 40.48 22.24 40.81
  A 1.52 1.32 85.8 0 0 21.19 42.21
  L 21.04 47.25
  Q 15.05 46.55 8.89 47.35
  L 8.80 41.42
  A 0.82 0.73 -4.3 0 1 9.52 40.67
  Q 18.68 39.57 24.54 37.39
  A 1.10 1.10 79.6 0 0 25.25 36.36
  L 25.25 32.50
  Q 25.25 30.24 27.37 30.29
  L 36.79 30.50
  Z
  M 35.7210 32.7627
  A 0.32 0.32 0.0 0 0 35.3966 32.4472
  L 27.8173 32.5531
  A 0.32 0.32 0.0 0 0 27.5018 32.8775
  L 27.5390 35.5373
  A 0.32 0.32 0.0 0 0 27.8634 35.8528
  L 35.4427 35.7469
  A 0.32 0.32 0.0 0 0 35.7582 35.4225
  L 35.7210 32.7627
  Z
  M 27.79 39.00
  Q 26.58 40.81 29.50 40.29
  Q 29.66 40.68 29.95 40.83
  A 0.57 0.45 -65.4 0 0 30.64 40.48
  Q 31.79 37.58 28.32 38.13
  Q 27.56 38.25 27.79 39.00
  Z
  M 18.9783 42.9584
  A 0.56 0.56 0.0 0 0 18.4124 42.4043
  L 11.5728 42.4759
  A 0.56 0.56 0.0 0 0 11.0187 43.0417
  L 11.0417 45.2416
  A 0.56 0.56 0.0 0 0 11.6076 45.7957
  L 18.4472 45.7241
  A 0.56 0.56 0.0 0 0 19.0013 45.1583
  L 18.9783 42.9584
  Z
  M 35.75 43.14
  A 0.64 0.64 0.0 0 0 35.11 42.50
  L 28.15 42.50
  A 0.64 0.64 0.0 0 0 27.51 43.14
  L 27.51 45.12
  A 0.64 0.64 0.0 0 0 28.15 45.76
  L 35.11 45.76
  A 0.64 0.64 0.0 0 0 35.75 45.12
  L 35.75 43.14
  Z
  M 12.18 46.68
  Q 12.36 47.01 13.27 46.83
  Q 17.35 45.98 12.69 46.16
  A 0.51 0.35 -11.2 0 0 12.18 46.68
  Z"
/>
<path fill="#969b97" fill-opacity="0.992" d="
  M 36.79 30.50
  Q 38.25 30.68 37.94 32.24
  Q 37.33 35.34 38.95 37.43
  Q 39.12 38.16 38.50 38.04
  Q 36.53 37.24 37.00 34.75
  Q 37.35 32.89 36.79 30.50
  Z"
/>
<rect fill="#ffffff" x="-4.11" y="-1.65" transform="translate(31.63,34.15) rotate(-0.8)" width="8.22" height="3.30" rx="0.32"/>
<rect fill="#c5c6c6" x="-1.64" y="-1.60" transform="translate(67.50,34.12) rotate(0.5)" width="3.28" height="3.20" rx="0.69"/>
<rect fill="#c5c6c6" x="-1.51" y="-1.63" transform="translate(82.50,34.13) rotate(-1.4)" width="3.02" height="3.26" rx="0.61"/>
<rect fill="#c5c6c6" x="96.04" y="32.50" width="37.96" height="3.26" rx="0.37"/>
<path fill="#b2b6b1" d="
  M 70.25 37.54
  Q 69.75 47.92 69.97 58.31
  Q 70.23 70.39 69.75 82.46
  Q 68.11 82.72 66.54 82.33
  A 0.65 0.65 -82.5 0 1 66.06 81.70
  L 66.20 37.80
  A 0.53 0.48 2.2 0 1 66.77 37.33
  L 70.25 37.54
  Z"
/>
<path fill="#675e69" fill-opacity="0.996" d="
  M 38.95 37.43
  Q 45.89 40.30 53.37 40.32
  Q 48.22 41.21 43.54 40.00
  L 38.50 38.04
  Q 39.12 38.16 38.95 37.43
  Z"
/>
<path fill="#d3d7cf" d="
  M 70.25 37.54
  L 130.25 37.54
  Q 129.63 60.00 130.25 82.46
  L 91.68 82.32
  A 0.54 0.53 87.7 0 1 91.15 81.82
  Q 90.67 75.13 91.00 73.50
  Q 91.60 70.55 89.16 70.63
  Q 87.48 70.69 87.32 70.69
  Q 85.91 70.65 84.54 70.95
  A 0.64 0.63 83.8 0 0 84.05 71.57
  L 84.06 81.75
  A 0.64 0.61 84.5 0 1 83.57 82.37
  Q 80.76 82.99 80.92 80.99
  Q 81.00 80.07 81.00 80.01
  Q 81.00 76.34 81.00 71.99
  A 1.24 1.24 0.0 0 0 79.76 70.75
  L 74.99 70.75
  A 1.01 0.99 -89.7 0 0 74.00 71.75
  L 73.95 81.94
  A 0.53 0.50 -90.0 0 1 73.45 82.47
  L 69.75 82.46
  Q 70.23 70.39 69.97 58.31
  Q 69.75 47.92 70.25 37.54
  Z
  M 125.99 45.29
  A 1.29 1.29 0.0 0 0 124.70 44.00
  L 75.30 44.00
  A 1.29 1.29 0.0 0 0 74.01 45.29
  L 74.01 49.71
  A 1.29 1.29 0.0 0 0 75.30 51.00
  L 124.70 51.00
  A 1.29 1.29 0.0 0 0 125.99 49.71
  L 125.99 45.29
  Z
  M 126.00 58.51
  A 1.01 1.01 0.0 0 0 124.99 57.50
  L 75.01 57.50
  A 1.01 1.01 0.0 0 0 74.00 58.51
  L 74.00 63.25
  A 1.01 1.01 0.0 0 0 75.01 64.26
  L 124.99 64.26
  A 1.01 1.01 0.0 0 0 126.00 63.25
  L 126.00 58.51
  Z
  M 126.00 71.68
  A 0.94 0.94 0.0 0 0 125.06 70.74
  L 94.94 70.74
  A 0.94 0.94 0.0 0 0 94.00 71.68
  L 94.00 76.56
  A 0.94 0.94 0.0 0 0 94.94 77.50
  L 125.06 77.50
  A 0.94 0.94 0.0 0 0 126.00 76.56
  L 126.00 71.68
  Z"
/>
<path fill="#b2b6b1" d="
  M 130.25 37.54
  L 133.49 37.52
  A 0.52 0.50 89.5 0 1 134.00 38.04
  L 134.00 81.93
  A 0.57 0.55 -90.0 0 1 133.45 82.50
  L 130.25 82.46
  Q 129.63 60.00 130.25 37.54
  Z"
/>
<path fill="#969b97" fill-opacity="0.992" d="
  M 29.50 40.29
  Q 31.33 37.97 27.79 39.00
  Q 27.56 38.25 28.32 38.13
  Q 31.79 37.58 30.64 40.48
  A 0.57 0.45 -65.4 0 1 29.95 40.83
  Q 29.66 40.68 29.50 40.29
  Z"
/>
<path fill="#888685" d="
  M 37.75 40.04
  Q 37.50 40.35 37.46 40.75
  Q 36.70 41.08 36.96 42.00
  Q 36.26 40.40 34.19 40.94
  Q 31.02 41.76 32.12 38.79
  A 0.95 0.93 -85.8 0 1 32.80 38.19
  Q 35.79 37.54 37.75 40.04
  Z
  M 35.90 39.59
  Q 33.82 38.16 33.18 39.28
  A 0.60 0.54 30.3 0 0 33.42 40.04
  Q 34.69 40.79 35.90 39.93
  A 0.21 0.21 -44.7 0 0 35.90 39.59
  Z"
/>
<path fill="#b7211f" d="
  M 43.54 40.00
  Q 48.22 41.21 53.37 40.32
  Q 56.20 43.77 54.03 47.57
  L 44.30 46.98
  Q 42.13 46.85 42.60 44.88
  Q 43.19 42.41 42.50 40.79
  Q 43.21 40.67 43.54 40.00
  Z
  M 52.4783 42.9387
  A 0.44 0.44 0.0 0 0 52.0414 42.4957
  L 44.7015 42.4444
  A 0.44 0.44 0.0 0 0 44.2585 42.8813
  L 44.2417 45.2813
  A 0.44 0.44 0.0 0 0 44.6786 45.7243
  L 52.0185 45.7756
  A 0.44 0.44 0.0 0 0 52.4615 45.3387
  L 52.4783 42.9387
  Z"
/>
<path fill="#969b97" fill-opacity="0.992" d="
  M 37.46 40.75
  Q 38.36 42.75 37.73 46.74
  A 1.53 1.53 1.7 0 1 36.38 48.01
  Q 30.90 48.56 25.47 47.25
  L 36.31 46.86
  A 0.60 0.54 -0.6 0 0 36.89 46.33
  L 36.96 42.00
  Q 36.70 41.08 37.46 40.75
  Z"
/>
<path fill="#e17c7a" fill-opacity="0.984" d="
  M 42.50 40.79
  Q 43.19 42.41 42.60 44.88
  Q 42.13 46.85 44.30 46.98
  L 54.03 47.57
  Q 50.27 48.22 46.53 48.06
  Q 46.44 48.06 44.47 48.13
  Q 41.56 48.23 41.97 44.75
  Q 42.19 42.86 41.75 41.04
  Q 42.06 40.71 42.50 40.79
  Z"
/>
<rect fill="#ffffff" x="-3.98" y="-1.66" transform="translate(15.01,44.10) rotate(-0.6)" width="7.96" height="3.32" rx="0.56"/>
<rect fill="#ffffff" x="-4.11" y="-1.64" transform="translate(48.36,44.11) rotate(0.4)" width="8.22" height="3.28" rx="0.44"/>
<rect fill="#ffffff" x="27.51" y="42.50" width="8.24" height="3.26" rx="0.64"/>
<path fill="#2a3032" d="
  M 125.99 49.71
  A 1.29 1.29 0.0 0 1 124.70 51.00
  L 75.30 51.00
  A 1.29 1.29 0.0 0 1 74.01 49.71
  L 74.01 45.29
  A 1.29 1.29 0.0 0 1 75.30 44.00
  L 124.70 44.00
  A 1.29 1.29 0.0 0 1 125.99 45.29
  L 125.99 49.71
  Z
  M 124.00 46.27
  A 0.27 0.27 0.0 0 0 123.73 46.00
  L 76.27 46.00
  A 0.27 0.27 0.0 0 0 76.00 46.27
  L 76.00 48.73
  A 0.27 0.27 0.0 0 0 76.27 49.00
  L 123.73 49.00
  A 0.27 0.27 0.0 0 0 124.00 48.73
  L 124.00 46.27
  Z"
/>
<path fill="#2a3032" d="
  M 12.69 46.16
  Q 17.35 45.98 13.27 46.83
  Q 12.36 47.01 12.18 46.68
  A 0.51 0.35 -11.2 0 1 12.69 46.16
  Z"
/>
<rect fill="#eeeeec" x="76.00" y="46.00" width="48.00" height="3.00" rx="0.27"/>
<path fill="#969b97" fill-opacity="0.992" d="
  M 21.04 47.25
  Q 15.04 49.02 8.89 47.35
  Q 15.05 46.55 21.04 47.25
  Z"
/>
<path fill="#2a3032" d="
  M 37.50 53.96
  Q 36.12 57.56 37.75 60.96
  L 45.00 63.71
  Q 43.81 63.74 42.75 64.29
  L 42.25 64.21
  Q 39.21 62.56 35.80 62.01
  Q 35.34 61.94 34.92 61.64
  Q 32.89 60.20 32.01 62.04
  Q 31.64 62.83 31.96 63.48
  Q 32.44 64.42 33.75 63.79
  L 37.17 63.86
  Q 36.70 67.54 37.31 71.12
  L 26.44 71.10
  A 0.80 0.73 78.3 0 1 25.74 70.59
  Q 24.62 67.68 25.53 64.67
  A 1.02 0.64 -6.6 0 1 26.19 64.14
  L 30.51 62.86
  Q 31.05 61.86 30.66 61.33
  Q 30.34 60.90 29.73 61.04
  Q 29.00 61.20 29.04 62.00
  L 22.37 64.09
  A 1.60 1.44 -9.6 0 0 21.25 65.50
  L 21.25 69.95
  A 1.27 1.22 -89.6 0 1 20.01 71.22
  L 9.69 71.09
  A 0.67 0.66 82.6 0 1 9.05 70.59
  Q 8.23 67.50 9.05 64.42
  A 0.68 0.68 6.4 0 1 9.68 63.92
  Q 17.60 63.66 23.70 60.98
  Q 25.79 60.06 25.39 57.82
  Q 24.64 53.50 27.77 53.66
  Q 29.10 53.73 29.24 53.73
  Q 33.38 53.62 37.50 53.96
  Z
  M 35.71 56.46
  A 0.49 0.49 0.0 0 0 35.22 55.97
  L 28.02 55.97
  A 0.49 0.49 0.0 0 0 27.53 56.46
  L 27.53 58.54
  A 0.49 0.49 0.0 0 0 28.02 59.03
  L 35.22 59.03
  A 0.49 0.49 0.0 0 0 35.71 58.54
  L 35.71 56.46
  Z
  M 19.1243 66.8242
  A 0.88 0.88 0.0 0 0 18.2367 65.9520
  L 11.7969 66.0082
  A 0.88 0.88 0.0 0 0 10.9247 66.8958
  L 10.9357 68.1558
  A 0.88 0.88 0.0 0 0 11.8233 69.0280
  L 18.2631 68.9718
  A 0.88 0.88 0.0 0 0 19.1353 68.0842
  L 19.1243 66.8242
  Z
  M 35.76 66.59
  A 0.59 0.59 0.0 0 0 35.17 66.00
  L 28.09 66.00
  A 0.59 0.59 0.0 0 0 27.50 66.59
  L 27.50 68.41
  A 0.59 0.59 0.0 0 0 28.09 69.00
  L 35.17 69.00
  A 0.59 0.59 0.0 0 0 35.76 68.41
  L 35.76 66.59
  Z"
/>
<path fill="#888685" d="
  M 37.50 53.96
  Q 38.24 54.77 38.00 56.25
  Q 37.71 58.00 38.25 60.71
  Q 37.84 60.69 37.75 60.96
  Q 36.12 57.56 37.50 53.96
  Z"
/>
<rect fill="#ffffff" x="27.53" y="55.97" width="8.18" height="3.06" rx="0.49"/>
<path fill="#2f3436" d="
  M 126.00 63.25
  A 1.01 1.01 0.0 0 1 124.99 64.26
  L 75.01 64.26
  A 1.01 1.01 0.0 0 1 74.00 63.25
  L 74.00 58.51
  A 1.01 1.01 0.0 0 1 75.01 57.50
  L 124.99 57.50
  A 1.01 1.01 0.0 0 1 126.00 58.51
  L 126.00 63.25
  Z
  M 124.00 59.69
  A 0.43 0.43 0.0 0 0 123.57 59.26
  L 76.43 59.26
  A 0.43 0.43 0.0 0 0 76.00 59.69
  L 76.00 62.07
  A 0.43 0.43 0.0 0 0 76.43 62.50
  L 123.57 62.50
  A 0.43 0.43 0.0 0 0 124.00 62.07
  L 124.00 59.69
  Z"
/>
<rect fill="#eeeeec" x="76.00" y="59.26" width="48.00" height="3.24" rx="0.43"/>
<path fill="#675e69" fill-opacity="0.996" d="
  M 38.25 60.71
  L 47.50 63.46
  Q 46.35 64.28 45.00 63.71
  L 37.75 60.96
  Q 37.84 60.69 38.25 60.71
  Z"
/>
<path fill="#888685" d="
  M 30.51 62.86
  Q 29.63 61.67 29.04 62.00
  Q 29.00 61.20 29.73 61.04
  Q 30.34 60.90 30.66 61.33
  Q 31.05 61.86 30.51 62.86
  Z"
/>
<path fill="#888685" d="
  M 42.25 64.21
  Q 41.83 64.18 41.71 64.50
  Q 38.13 63.27 34.48 62.33
  Q 31.83 61.65 33.75 63.79
  Q 32.44 64.42 31.96 63.48
  Q 31.64 62.83 32.01 62.04
  Q 32.89 60.20 34.92 61.64
  Q 35.34 61.94 35.80 62.01
  Q 39.21 62.56 42.25 64.21
  Z"
/>
<path fill="#b7211f" d="
  M 47.50 63.46
  L 53.06 63.69
  A 1.54 1.32 -3.6 0 1 54.47 64.75
  Q 55.13 67.87 54.39 70.53
  A 0.73 0.71 4.5 0 1 53.76 71.05
  Q 48.26 71.57 42.75 71.04
  L 42.75 64.29
  Q 43.81 63.74 45.00 63.71
  Q 46.35 64.28 47.50 63.46
  Z
  M 52.4733 66.6555
  A 0.64 0.64 0.0 0 0 51.8434 66.0055
  L 44.8043 65.8949
  A 0.64 0.64 0.0 0 0 44.1543 66.5248
  L 44.1267 68.2845
  A 0.64 0.64 0.0 0 0 44.7566 68.9345
  L 51.7957 69.0451
  A 0.64 0.64 0.0 0 0 52.4457 68.4152
  L 52.4733 66.6555
  Z"
/>
<path fill="#969b97" fill-opacity="0.992" d="
  M 37.17 63.86
  Q 39.12 67.48 37.31 71.12
  Q 36.70 67.54 37.17 63.86
  Z"
/>
<path fill="#e17c7a" fill-opacity="0.984" d="
  M 42.25 64.21
  L 42.75 64.29
  L 42.75 71.04
  Q 41.66 70.08 42.00 68.25
  Q 42.30 66.64 41.71 64.50
  Q 41.83 64.18 42.25 64.21
  Z"
/>
<rect fill="#ffffff" x="-4.10" y="-1.51" transform="translate(15.03,67.49) rotate(-0.5)" width="8.20" height="3.02" rx="0.88"/>
<rect fill="#ffffff" x="-4.16" y="-1.52" transform="translate(48.30,67.47) rotate(0.9)" width="8.32" height="3.04" rx="0.64"/>
<rect fill="#ffffff" x="27.50" y="66.00" width="8.26" height="3.00" rx="0.59"/>
<path fill="#2f3436" d="
  M 126.00 76.56
  A 0.94 0.94 0.0 0 1 125.06 77.50
  L 94.94 77.50
  A 0.94 0.94 0.0 0 1 94.00 76.56
  L 94.00 71.68
  A 0.94 0.94 0.0 0 1 94.94 70.74
  L 125.06 70.74
  A 0.94 0.94 0.0 0 1 126.00 71.68
  L 126.00 76.56
  Z
  M 124.00 72.94
  A 0.43 0.43 0.0 0 0 123.57 72.51
  L 96.43 72.51
  A 0.43 0.43 0.0 0 0 96.00 72.94
  L 96.00 75.32
  A 0.43 0.43 0.0 0 0 96.43 75.75
  L 123.57 75.75
  A 0.43 0.43 0.0 0 0 124.00 75.32
  L 124.00 72.94
  Z"
/>
<rect fill="#eeeeec" x="76.00" y="72.51" width="3.00" height="10.00" rx="0.31"/>
<rect fill="#eeeeec" x="86.00" y="72.51" width="3.00" height="10.00" rx="0.31"/>
<rect fill="#eeeeec" x="96.00" y="72.51" width="28.00" height="3.24" rx="0.43"/>
<path fill="#969b97" fill-opacity="0.992" d="
  M 54.53 88.35
  Q 49.36 88.24 44.50 86.71
  L 39.48 85.22
  Q 37.01 84.49 37.01 82.58
  L 37.00 79.29
  A 1.35 1.32 88.0 0 0 35.59 77.94
  Q 30.26 78.31 25.64 77.58
  Q 31.06 76.56 36.43 76.99
  A 1.94 1.77 -88.3 0 1 38.06 78.89
  L 38.12 83.31
  A 0.83 0.70 12.8 0 0 38.64 84.00
  Q 45.71 86.81 53.31 87.23
  Q 53.83 87.26 54.15 87.44
  Q 54.86 87.85 54.53 88.35
  Z"
/>
<path fill="#2a3032" d="
  M 25.64 77.58
  Q 30.26 78.31 35.59 77.94
  A 1.35 1.32 88.0 0 1 37.00 79.29
  L 37.01 82.58
  Q 37.01 84.49 39.48 85.22
  L 44.50 86.71
  Q 43.48 86.80 42.75 87.54
  Q 40.07 86.54 39.50 86.25
  Q 38.22 85.59 37.50 86.50
  L 37.29 86.50
  Q 37.23 86.27 37.00 86.21
  Q 37.36 85.03 35.34 85.08
  Q 34.79 85.09 34.26 84.92
  Q 31.40 83.98 31.95 86.42
  A 1.99 1.98 -8.5 0 0 34.05 87.97
  Q 38.23 87.63 36.61 93.39
  A 0.96 0.95 -79.3 0 1 35.61 94.08
  Q 30.64 93.61 26.33 94.56
  Q 24.32 91.33 25.75 87.71
  Q 27.84 87.87 29.94 87.81
  Q 31.77 87.77 30.50 86.46
  L 30.50 85.79
  Q 31.17 84.16 29.08 84.87
  Q 25.20 86.18 21.23 87.12
  Q 20.91 87.19 20.67 87.32
  Q 19.11 88.15 21.25 88.04
  L 21.22 93.17
  A 1.39 1.34 0.2 0 1 19.83 94.50
  L 10.02 94.50
  A 1.24 1.18 -0.0 0 1 8.78 93.32
  L 8.79 88.25
  Q 14.36 89.18 18.93 86.18
  Q 21.50 84.64 24.71 84.18
  A 0.96 0.96 78.5 0 0 25.50 82.98
  Q 24.80 80.45 25.64 77.58
  Z
  M 35.7306 79.5013
  A 0.30 0.30 0.0 0 0 35.4285 79.2034
  L 27.7887 79.2567
  A 0.30 0.30 0.0 0 0 27.4908 79.5588
  L 27.5094 82.2187
  A 0.30 0.30 0.0 0 0 27.8115 82.5166
  L 35.4513 82.4633
  A 0.30 0.30 0.0 0 0 35.7492 82.1612
  L 35.7306 79.5013
  Z
  M 19.0843 89.5568
  A 0.65 0.65 0.0 0 0 18.4153 88.9264
  L 11.3784 89.1352
  A 0.65 0.65 0.0 0 0 10.7480 89.8042
  L 10.8157 92.0832
  A 0.65 0.65 0.0 0 0 11.4847 92.7136
  L 18.5216 92.5048
  A 0.65 0.65 0.0 0 0 19.1520 91.8358
  L 19.0843 89.5568
  Z
  M 35.7354 89.5456
  A 0.32 0.32 0.0 0 0 35.4143 89.2267
  L 27.8143 89.2533
  A 0.32 0.32 0.0 0 0 27.4955 89.5744
  L 27.5046 92.1944
  A 0.32 0.32 0.0 0 0 27.8257 92.5133
  L 35.4257 92.4867
  A 0.32 0.32 0.0 0 0 35.7445 92.1656
  L 35.7354 89.5456
  Z"
/>
<rect fill="#ffffff" x="-4.12" y="-1.63" transform="translate(31.62,80.86) rotate(-0.4)" width="8.24" height="3.26" rx="0.30"/>
<path fill="#969b97" fill-opacity="0.992" d="
  M 136.10 84.24
  Q 100.62 85.16 65.25 84.71
  L 65.24 84.38
  A 0.40 0.32 0.0 0 1 65.64 84.06
  L 136.10 84.24
  Z"
/>
<path fill="#675e69" fill-opacity="0.996" d="
  M 30.50 85.79
  Q 27.85 84.91 25.71 86.75
  Q 23.29 86.76 21.25 88.04
  Q 19.11 88.15 20.67 87.32
  Q 20.91 87.19 21.23 87.12
  Q 25.20 86.18 29.08 84.87
  Q 31.17 84.16 30.50 85.79
  Z"
/>
<path fill="#969b97" fill-opacity="0.992" d="
  M 37.00 86.21
  L 33.97 85.41
  A 0.75 0.61 21.8 0 0 33.20 85.65
  Q 32.44 86.82 34.25 87.00
  Q 36.13 87.19 37.29 86.50
  L 37.50 86.50
  L 37.97 93.00
  A 1.72 1.59 -1.5 0 1 36.22 94.71
  L 26.33 94.56
  Q 30.64 93.61 35.61 94.08
  A 0.96 0.95 -79.3 0 0 36.61 93.39
  Q 38.23 87.63 34.05 87.97
  A 1.99 1.98 -8.5 0 1 31.95 86.42
  Q 31.40 83.98 34.26 84.92
  Q 34.79 85.09 35.34 85.08
  Q 37.36 85.03 37.00 86.21
  Z"
/>
<path fill="#888685" d="
  M 18.93 86.18
  Q 14.36 89.18 8.79 88.25
  Q 9.09 86.76 11.00 87.00
  Q 13.54 87.31 18.93 86.18
  Z"
/>
<path fill="#e17c7a" fill-opacity="0.984" d="
  M 42.75 87.54
  L 43.21 93.70
  A 0.63 0.51 -0.3 0 0 43.81 94.18
  L 53.66 94.53
  L 43.75 94.64
  Q 41.51 94.66 42.00 92.27
  Q 43.13 86.69 37.50 86.50
  Q 38.22 85.59 39.50 86.25
  Q 40.07 86.54 42.75 87.54
  Z"
/>
<path fill="#969b97" fill-opacity="0.992" d="
  M 30.50 86.46
  Q 31.77 87.77 29.94 87.81
  Q 27.84 87.87 25.75 87.71
  L 25.79 87.25
  Q 28.28 87.44 30.50 86.46
  Z"
/>
<path fill="#b7211f" d="
  M 44.50 86.71
  Q 49.36 88.24 54.53 88.35
  Q 55.63 91.84 53.66 94.53
  L 43.81 94.18
  A 0.63 0.51 -0.3 0 1 43.21 93.70
  L 42.75 87.54
  Q 43.48 86.80 44.50 86.71
  Z
  M 52.5073 89.6536
  A 0.44 0.44 0.0 0 0 52.0774 89.2037
  L 44.7393 89.0372
  A 0.44 0.44 0.0 0 0 44.2894 89.4671
  L 44.2327 91.9664
  A 0.44 0.44 0.0 0 0 44.6626 92.4163
  L 52.0007 92.5828
  A 0.44 0.44 0.0 0 0 52.4506 92.1529
  L 52.5073 89.6536
  Z"
/>
<rect fill="#ffffff" x="-4.17" y="-1.79" transform="translate(14.95,90.82) rotate(-1.7)" width="8.34" height="3.58" rx="0.65"/>
<rect fill="#ffffff" x="-4.11" y="-1.69" transform="translate(48.37,90.81) rotate(1.3)" width="8.22" height="3.38" rx="0.44"/>
<rect fill="#ffffff" x="-4.12" y="-1.63" transform="translate(31.62,90.87) rotate(-0.2)" width="8.24" height="3.26" rx="0.32"/>
</svg>
