<?xml version="1.0" encoding="UTF-8" standalone="no"?>
<!DOCTYPE svg PUBLIC "-//W3C//DTD SVG 1.1//EN" "http://www.w3.org/Graphics/SVG/1.1/DTD/svg11.dtd">
<svg xmlns="http://www.w3.org/2000/svg" version="1.1" viewBox="0 0 140 100">
<g stroke-width="2.00" fill="none" stroke-linecap="butt">
<path stroke="#a77872" stroke-opacity="0.992" vector-effect="non-scaling-stroke" d="
  M 128.04 58.00
  L 127.46 58.50"
/>
<path stroke="#616161" stroke-opacity="0.992" vector-effect="non-scaling-stroke" d="
  M 127.46 58.50
  L 76.92 9.30
  Q 75.34 7.76 73.20 8.08
  Q 70.90 8.44 68.29 8.25
  Q 65.73 8.07 64.63 8.53
  Q 62.99 9.22 61.56 10.81
  Q 59.96 12.59 52.25 20.29"
/>
<path stroke="#7c8177" stroke-opacity="0.992" vector-effect="non-scaling-stroke" d="
  M 52.25 20.29
  Q 51.43 20.41 51.50 19.79"
/>
<path stroke="#804d4f" stroke-opacity="0.996" vector-effect="non-scaling-stroke" d="
  M 127.46 58.50
  L 128.79 60.25"
/>
<path stroke="#75262b" vector-effect="non-scaling-stroke" d="
  M 128.79 60.25
  Q 129.14 60.76 128.91 61.63"
/>
<path stroke="#868686" vector-effect="non-scaling-stroke" d="
  M 128.91 61.63
  Q 104.34 37.96 79.93 14.32
  Q 77.73 12.20 76.67 14.78
  A 0.74 0.72 33.2 0 0 76.85 15.59
  L 124.79 62.25"
/>
<path stroke="#75262b" vector-effect="non-scaling-stroke" d="
  M 124.79 62.25
  Q 124.11 63.03 123.25 62.54"
/>
<path stroke="#93666c" vector-effect="non-scaling-stroke" d="
  M 123.25 62.54
  L 121.25 61.29"
/>
<path stroke="#767678" vector-effect="non-scaling-stroke" d="
  M 120.75 60.79
  Q 121.00 60.36 120.31 59.69
  Q 118.61 58.01 119.25 60.21"
/>
<path stroke="#565654" stroke-opacity="0.996" vector-effect="non-scaling-stroke" d="
  M 118.75 61.21
  Q 118.73 59.87 117.54 60.00"
/>
<path stroke="#565654" stroke-opacity="0.996" vector-effect="non-scaling-stroke" d="
  M 117.29 58.50
  Q 117.93 58.68 118.21 58.49
  A 0.62 0.45 49.3 0 0 118.14 57.66
  L 116.29 55.75"
/>
<path stroke="#767678" vector-effect="non-scaling-stroke" d="
  M 116.29 55.75
  Q 115.52 54.19 113.96 54.25"
/>
<path stroke="#3a363e" stroke-opacity="0.996" vector-effect="non-scaling-stroke" d="
  M 113.96 54.25
  Q 113.40 53.62 112.54 53.75"
/>
<path stroke="#616161" stroke-opacity="0.992" vector-effect="non-scaling-stroke" d="
  M 112.50 53.54
  Q 113.80 53.36 111.57 50.65
  A 3.82 3.79 78.9 0 0 109.77 49.43
  Q 108.21 48.93 109.50 50.71"
/>
<path stroke="#804d4f" stroke-opacity="0.996" vector-effect="non-scaling-stroke" d="
  M 109.25 61.96
  Q 108.31 62.59 107.50 61.71"
/>
<path stroke="#616161" stroke-opacity="0.992" vector-effect="non-scaling-stroke" d="
  M 107.54 48.75
  Q 108.17 48.84 108.39 48.49
  A 0.76 0.64 37.1 0 0 108.19 47.61
  L 104.67 44.51
  A 0.38 0.37 -62.2 0 0 104.06 44.71
  Q 103.88 45.38 104.35 45.93"
/>
<path stroke="#804d4f" stroke-opacity="0.996" vector-effect="non-scaling-stroke" d="
  M 104.50 61.96
  Q 103.40 62.84 102.50 61.96"
/>
<path stroke="#565654" stroke-opacity="0.996" vector-effect="non-scaling-stroke" d="
  M 102.29 43.75
  Q 102.92 44.20 103.14 43.74
  A 0.84 0.81 36.8 0 0 102.99 42.82
  L 101.29 41.00"
/>
<path stroke="#616161" stroke-opacity="0.992" vector-effect="non-scaling-stroke" d="
  M 101.29 41.00
  Q 98.94 38.82 99.50 41.21"
/>
<path stroke="#804d4f" stroke-opacity="0.996" vector-effect="non-scaling-stroke" d="
  M 99.25 61.96
  Q 98.34 62.12 97.50 61.71"
/>
<path stroke="#565654" stroke-opacity="0.996" vector-effect="non-scaling-stroke" d="
  M 97.29 39.00
  Q 98.12 37.20 96.04 36.25"
/>
<path stroke="#767678" vector-effect="non-scaling-stroke" d="
  M 96.04 36.25
  Q 93.91 33.32 94.29 36.25"
/>
<path stroke="#804d4f" stroke-opacity="0.996" vector-effect="non-scaling-stroke" d="
  M 94.50 61.96
  Q 93.92 61.99 93.71 62.50"
/>
<path stroke="#75262b" vector-effect="non-scaling-stroke" d="
  M 93.71 62.50
  L 93.25 62.54"
/>
<path stroke="#804d4f" stroke-opacity="0.996" vector-effect="non-scaling-stroke" d="
  M 93.25 62.54
  Q 92.83 62.09 92.25 61.96"
/>
<path stroke="#565654" stroke-opacity="0.996" vector-effect="non-scaling-stroke" d="
  M 92.29 34.50
  Q 93.37 34.58 92.90 33.58
  Q 92.24 32.18 91.00 31.29"
/>
<path stroke="#767678" vector-effect="non-scaling-stroke" d="
  M 91.00 31.29
  Q 88.61 28.67 89.29 31.25"
/>
<path stroke="#804d4f" stroke-opacity="0.996" vector-effect="non-scaling-stroke" d="
  M 89.25 61.96
  Q 88.34 62.12 87.50 61.71"
/>
<path stroke="#616161" stroke-opacity="0.992" vector-effect="non-scaling-stroke" d="
  M 87.49 29.47
  Q 87.19 26.91 84.85 25.46
  Q 83.38 24.55 84.25 26.46"
/>
<path stroke="#804d4f" stroke-opacity="0.996" vector-effect="non-scaling-stroke" d="
  M 84.50 61.96
  Q 83.92 61.92 83.96 62.50"
/>
<path stroke="#75262b" vector-effect="non-scaling-stroke" d="
  M 83.96 62.50
  Q 83.55 62.22 83.04 62.50"
/>
<path stroke="#804d4f" stroke-opacity="0.996" vector-effect="non-scaling-stroke" d="
  M 83.04 62.50
  Q 82.80 61.97 82.25 61.96"
/>
<path stroke="#616161" stroke-opacity="0.992" vector-effect="non-scaling-stroke" d="
  M 82.43 24.48
  Q 82.29 21.54 79.50 19.96"
/>
<path stroke="#3a363e" stroke-opacity="0.996" vector-effect="non-scaling-stroke" d="
  M 79.50 19.96
  Q 78.61 19.70 78.04 19.00"
/>
<path stroke="#616161" stroke-opacity="0.992" vector-effect="non-scaling-stroke" d="
  M 78.04 19.00
  Q 77.08 17.18 75.25 16.25
  Q 73.00 15.10 73.00 19.00
  L 73.04 62.25"
/>
<path stroke="#93666c" vector-effect="non-scaling-stroke" d="
  M 73.04 62.25
  L 73.00 62.46"
/>
<path stroke="#75262b" vector-effect="non-scaling-stroke" d="
  M 73.00 62.46
  Q 72.24 62.56 71.54 62.25"
/>
<path stroke="#767678" vector-effect="non-scaling-stroke" d="
  M 71.54 62.25
  L 71.57 18.44
  A 0.81 0.77 -77.9 0 0 71.13 17.72
  Q 68.34 16.42 68.30 19.56
  Q 68.02 41.01 68.50 62.46"
/>
<path stroke="#75262b" vector-effect="non-scaling-stroke" d="
  M 68.50 62.46
  L 66.79 62.50"
/>
<path stroke="#804d4f" stroke-opacity="0.996" vector-effect="non-scaling-stroke" d="
  M 66.79 62.50
  L 66.71 62.00"
/>
<path stroke="#565654" stroke-opacity="0.996" vector-effect="non-scaling-stroke" d="
  M 66.71 62.00
  Q 66.94 40.06 66.76 18.13
  Q 66.75 17.38 66.39 16.98
  Q 65.93 16.46 65.25 16.31
  A 1.24 1.07 -53.6 0 0 64.34 16.52
  Q 60.64 19.15 62.73 23.99"
/>
<path stroke="#804d4f" stroke-opacity="0.996" vector-effect="non-scaling-stroke" d="
  M 62.54 61.50
  Q 61.81 61.25 61.96 62.25"
/>
<path stroke="#75262b" vector-effect="non-scaling-stroke" d="
  M 61.96 62.25
  L 61.25 62.21"
/>
<path stroke="#804d4f" stroke-opacity="0.996" vector-effect="non-scaling-stroke" d="
  M 61.25 62.21
  Q 61.10 61.91 60.75 61.96"
/>
<path stroke="#767678" vector-effect="non-scaling-stroke" d="
  M 60.71 22.00
  Q 61.13 18.67 59.21 21.75"
/>
<path stroke="#616161" stroke-opacity="0.992" vector-effect="non-scaling-stroke" d="
  M 59.21 21.75
  Q 55.91 22.99 57.71 25.50"
/>
<path stroke="#804d4f" stroke-opacity="0.996" vector-effect="non-scaling-stroke" d="
  M 57.50 61.71
  Q 56.92 61.84 56.50 62.29"
/>
<path stroke="#75262b" vector-effect="non-scaling-stroke" d="
  M 56.50 62.29
  L 56.29 62.25"
/>
<path stroke="#804d4f" stroke-opacity="0.996" vector-effect="non-scaling-stroke" d="
  M 56.29 62.25
  Q 56.02 61.87 55.50 61.96"
/>
<path stroke="#767678" vector-effect="non-scaling-stroke" d="
  M 55.50 26.46
  Q 56.69 24.20 55.18 25.47
  Q 54.94 25.68 54.66 25.83
  Q 52.32 27.15 52.58 29.49"
/>
<path stroke="#804d4f" stroke-opacity="0.996" vector-effect="non-scaling-stroke" d="
  M 52.71 61.75
  Q 52.01 60.86 51.71 62.25"
/>
<path stroke="#75262b" vector-effect="non-scaling-stroke" d="
  M 51.71 62.25
  L 51.29 62.25"
/>
<path stroke="#804d4f" stroke-opacity="0.996" vector-effect="non-scaling-stroke" d="
  M 51.29 62.25
  Q 51.12 61.91 50.75 61.96"
/>
<path stroke="#767678" vector-effect="non-scaling-stroke" d="
  M 50.71 31.25
  Q 51.25 30.45 50.75 30.28
  A 0.89 0.70 -58.5 0 0 49.90 30.60
  L 48.96 31.75"
/>
<path stroke="#565654" stroke-opacity="0.996" vector-effect="non-scaling-stroke" d="
  M 48.96 31.75
  Q 47.66 32.42 47.11 33.72
  Q 47.00 33.99 47.01 34.28
  Q 47.12 36.01 47.71 34.50"
/>
<path stroke="#804d4f" stroke-opacity="0.996" vector-effect="non-scaling-stroke" d="
  M 47.50 61.71
  Q 46.92 61.84 46.50 62.29"
/>
<path stroke="#75262b" vector-effect="non-scaling-stroke" d="
  M 46.50 62.29
  L 46.29 62.25"
/>
<path stroke="#804d4f" stroke-opacity="0.996" vector-effect="non-scaling-stroke" d="
  M 46.29 62.25
  Q 46.02 61.87 45.50 61.96"
/>
<path stroke="#565654" stroke-opacity="0.996" vector-effect="non-scaling-stroke" d="
  M 45.71 36.25
  Q 46.17 35.71 46.00 35.18
  A 0.42 0.37 -30.3 0 0 45.36 35.06
  Q 43.90 36.24 42.73 37.72
  Q 41.61 39.14 42.71 40.50"
/>
<path stroke="#804d4f" stroke-opacity="0.996" vector-effect="non-scaling-stroke" d="
  M 42.71 61.75
  Q 42.00 61.61 41.71 62.25"
/>
<path stroke="#75262b" vector-effect="non-scaling-stroke" d="
  M 41.71 62.25
  L 41.25 62.29"
/>
<path stroke="#804d4f" stroke-opacity="0.996" vector-effect="non-scaling-stroke" d="
  M 41.25 62.29
  L 40.75 61.96"
/>
<path stroke="#616161" stroke-opacity="0.992" vector-effect="non-scaling-stroke" d="
  M 40.75 40.96
  Q 41.06 38.52 39.46 40.75"
/>
<path stroke="#565654" stroke-opacity="0.996" vector-effect="non-scaling-stroke" d="
  M 39.46 40.75
  Q 36.22 41.99 37.71 45.00"
/>
<path stroke="#804d4f" stroke-opacity="0.996" vector-effect="non-scaling-stroke" d="
  M 37.50 61.71
  Q 36.80 61.65 36.50 62.29"
/>
<path stroke="#75262b" vector-effect="non-scaling-stroke" d="
  M 36.50 62.29
  L 36.29 62.25"
/>
<path stroke="#804d4f" stroke-opacity="0.996" vector-effect="non-scaling-stroke" d="
  M 36.29 62.25
  Q 36.33 61.67 35.75 61.71"
/>
<path stroke="#616161" stroke-opacity="0.992" vector-effect="non-scaling-stroke" d="
  M 35.71 46.00
  Q 36.70 43.79 34.81 44.81
  Q 33.99 45.26 32.12 47.12
  Q 30.95 48.29 32.75 48.29"
/>
<path stroke="#804d4f" stroke-opacity="0.996" vector-effect="non-scaling-stroke" d="
  M 32.71 61.75
  Q 32.31 60.90 31.96 61.75"
/>
<path stroke="#804d4f" stroke-opacity="0.996" vector-effect="non-scaling-stroke" d="
  M 31.96 61.75
  Q 31.37 62.00 30.75 61.96"
/>
<path stroke="#767678" vector-effect="non-scaling-stroke" d="
  M 30.71 50.50
  Q 31.56 48.66 30.01 49.52
  Q 27.65 50.82 27.44 53.22"
/>
<path stroke="#804d4f" stroke-opacity="0.996" vector-effect="non-scaling-stroke" d="
  M 27.50 61.54
  Q 26.74 61.45 26.71 62.25"
/>
<path stroke="#75262b" vector-effect="non-scaling-stroke" d="
  M 26.71 62.25
  L 26.29 62.25"
/>
<path stroke="#93666c" vector-effect="non-scaling-stroke" d="
  M 26.29 62.25
  Q 26.33 61.67 25.75 61.71"
/>
<path stroke="#616161" stroke-opacity="0.992" vector-effect="non-scaling-stroke" d="
  M 25.66 55.45
  Q 26.68 53.08 22.49 56.40
  A 1.91 1.91 -21.9 0 0 21.78 58.06
  Q 21.81 58.54 22.71 58.25"
/>
<path stroke="#93666c" vector-effect="non-scaling-stroke" d="
  M 22.75 61.71
  Q 22.02 61.63 21.71 62.25"
/>
<path stroke="#75262b" vector-effect="non-scaling-stroke" d="
  M 21.71 62.25
  Q 21.35 62.60 21.04 62.25"
/>
<path stroke="#93666c" vector-effect="non-scaling-stroke" d="
  M 21.04 62.25
  Q 21.07 61.83 20.75 61.71"
/>
<path stroke="#767678" vector-effect="non-scaling-stroke" d="
  M 20.50 60.46
  Q 21.77 57.97 19.69 59.69
  Q 18.96 60.28 19.25 60.79"
/>
<path stroke="#93666c" vector-effect="non-scaling-stroke" d="
  M 18.71 61.25
  Q 17.68 61.30 17.21 62.25"
/>
<path stroke="#75262b" vector-effect="non-scaling-stroke" d="
  M 17.21 62.25
  L 16.25 62.54"
/>
<path stroke="#75262b" vector-effect="non-scaling-stroke" d="
  M 16.25 62.54
  L 15.75 61.71"
/>
<path stroke="#868686" vector-effect="non-scaling-stroke" d="
  M 15.75 61.71
  L 63.08 15.54
  A 0.82 0.75 -33.3 0 0 63.29 14.71
  Q 62.78 13.37 61.69 13.42
  Q 60.93 13.45 59.94 14.42
  Q 35.99 37.84 11.79 61.00"
/>
<path stroke="#75262b" vector-effect="non-scaling-stroke" d="
  M 11.79 61.00
  Q 11.10 60.25 11.50 59.29"
/>
<path stroke="#767678" vector-effect="non-scaling-stroke" d="
  M 11.50 59.29
  Q 12.22 59.16 12.54 58.50"
/>
<path stroke="#565654" stroke-opacity="0.996" vector-effect="non-scaling-stroke" d="
  M 12.54 58.50
  L 24.29 47.25"
/>
<path stroke="#616161" stroke-opacity="0.992" vector-effect="non-scaling-stroke" d="
  M 24.29 47.25
  L 30.79 40.75"
/>
<path stroke="#565654" stroke-opacity="0.996" vector-effect="non-scaling-stroke" d="
  M 30.79 40.75
  Q 34.52 37.35 37.46 33.25"
/>
<path stroke="#565654" stroke-opacity="0.996" vector-effect="non-scaling-stroke" d="
  M 44.06 27.07
  Q 48.79 24.48 52.25 20.29"
/>
<path stroke="#767678" vector-effect="non-scaling-stroke" d="
  M 113.96 54.25
  L 114.29 55.25"
/>
<path stroke="#3a363e" stroke-opacity="0.996" vector-effect="non-scaling-stroke" d="
  M 113.96 56.00
  Q 113.74 54.81 112.54 55.00"
/>
<path stroke="#9c6c65" stroke-opacity="0.996" vector-effect="non-scaling-stroke" d="
  M 66.71 62.00
  L 66.25 61.71"
/>
<path stroke="#92968e" vector-effect="non-scaling-stroke" d="
  M 116.29 55.75
  Q 116.32 56.17 116.00 56.29"
/>
<path stroke="#7c8177" stroke-opacity="0.992" vector-effect="non-scaling-stroke" d="
  M 39.75 41.29
  Q 39.41 41.12 39.46 40.75"
/>
<path stroke="#c17773" vector-effect="non-scaling-stroke" d="
  M 15.75 61.71
  L 14.75 62.46"
/>
<path stroke="#c17773" vector-effect="non-scaling-stroke" d="
  M 14.75 62.46
  L 11.56 62.75
  A 0.48 0.44 -87.3 0 1 11.09 62.19
  Q 11.22 61.51 11.79 61.00"
/>
<path stroke="#b16765" vector-effect="non-scaling-stroke" d="
  M 11.50 57.96
  Q 10.48 58.83 11.50 59.29"
/>
<path stroke="#b01718" vector-effect="non-scaling-stroke" d="
  M 14.75 62.46
  Q 15.48 63.40 16.25 62.54"
/>
<path stroke="#ce5659" vector-effect="non-scaling-stroke" d="
  M 17.21 62.25
  Q 19.21 64.48 21.04 62.25"
/>
<path stroke="#ce5659" vector-effect="non-scaling-stroke" d="
  M 21.71 62.25
  Q 22.73 63.87 24.59 63.25
  Q 24.89 63.15 25.56 63.11
  Q 26.28 63.08 26.29 62.25"
/>
<path stroke="#bb3d3c" vector-effect="non-scaling-stroke" d="
  M 26.71 62.25
  Q 29.31 64.42 31.71 62.25"
/>
<path stroke="#bb3d3c" vector-effect="non-scaling-stroke" d="
  M 31.71 62.25
  Q 32.66 63.76 34.29 63.19
  Q 34.72 63.04 35.23 63.10
  Q 36.23 63.22 36.29 62.25"
/>
<path stroke="#bb3d3c" vector-effect="non-scaling-stroke" d="
  M 36.50 62.29
  Q 38.48 63.93 40.89 63.05
  A 0.55 0.41 -12.3 0 0 41.26 62.62
  L 41.25 62.29"
/>
<path stroke="#bb3d3c" vector-effect="non-scaling-stroke" d="
  M 41.71 62.25
  Q 42.39 63.75 43.80 63.21
  Q 44.25 63.04 44.73 63.10
  Q 45.89 63.26 46.29 62.25"
/>
<path stroke="#bb3d3c" vector-effect="non-scaling-stroke" d="
  M 46.50 62.29
  Q 48.19 63.64 50.25 63.00
  Q 51.25 63.40 51.29 62.25"
/>
<path stroke="#bb3d3c" vector-effect="non-scaling-stroke" d="
  M 51.71 62.25
  Q 53.88 64.21 56.29 62.25"
/>
<path stroke="#bb3d3c" vector-effect="non-scaling-stroke" d="
  M 56.50 62.29
  Q 58.44 63.41 60.63 63.13
  A 0.63 0.48 -85.4 0 0 61.08 62.63
  Q 61.12 62.40 61.25 62.21"
/>
<path stroke="#bb3d3c" vector-effect="non-scaling-stroke" d="
  M 61.96 62.25
  Q 62.02 62.66 62.29 62.95
  Q 62.51 63.19 62.94 63.21
  Q 64.93 63.27 66.79 62.50"
/>
<path stroke="#ce5659" vector-effect="non-scaling-stroke" d="
  M 73.00 62.46
  Q 75.73 63.85 78.25 62.29"
/>
<path stroke="#bb3d3c" vector-effect="non-scaling-stroke" d="
  M 78.75 62.29
  Q 80.70 64.15 83.04 62.50"
/>
<path stroke="#bb3d3c" vector-effect="non-scaling-stroke" d="
  M 83.96 62.50
  Q 87.56 63.41 91.26 63.05
  Q 91.55 63.02 92.23 63.16
  Q 93.02 63.31 93.25 62.54"
/>
<path stroke="#bb3d3c" vector-effect="non-scaling-stroke" d="
  M 93.71 62.50
  Q 94.28 63.17 96.19 63.19
  Q 104.19 63.26 112.19 63.19
  Q 113.19 63.18 113.25 62.54"
/>
<path stroke="#75262b" vector-effect="non-scaling-stroke" d="
  M 113.25 62.54
  Q 113.50 62.46 113.75 62.54"
/>
<path stroke="#ce5659" vector-effect="non-scaling-stroke" d="
  M 113.75 62.54
  Q 115.97 64.30 118.04 62.50"
/>
<path stroke="#914641" vector-effect="non-scaling-stroke" d="
  M 118.04 62.50
  Q 118.47 62.87 119.00 62.71"
/>
<path stroke="#ce5659" vector-effect="non-scaling-stroke" d="
  M 119.00 62.71
  Q 120.22 63.31 121.52 63.10
  Q 121.89 63.04 122.46 63.19
  Q 123.15 63.37 123.25 62.54"
/>
<path stroke="#bb3d3c" vector-effect="non-scaling-stroke" d="
  M 128.79 60.25
  Q 129.90 59.06 128.50 58.04"
/>
<path stroke="#bb3d3c" vector-effect="non-scaling-stroke" d="
  M 101.04 69.39
  Q 90.24 68.94 79.50 69.00
  Q 74.98 69.03 73.00 69.50"
/>
<path stroke="#75262b" vector-effect="non-scaling-stroke" d="
  M 73.00 69.50
  L 71.79 69.75"
/>
<path stroke="#b16765" vector-effect="non-scaling-stroke" d="
  M 71.79 69.75
  Q 70.10 68.67 68.25 69.54"
/>
<path stroke="#75262b" vector-effect="non-scaling-stroke" d="
  M 68.25 69.54
  Q 67.52 69.55 66.96 70.00"
/>
<path stroke="#9c524e" stroke-opacity="0.996" vector-effect="non-scaling-stroke" d="
  M 66.96 70.00
  Q 66.66 69.85 66.71 69.50"
/>
<path stroke="#ce5659" vector-effect="non-scaling-stroke" d="
  M 66.71 69.50
  Q 66.65 69.17 66.32 69.16
  Q 60.66 68.85 55.00 69.04"
/>
<path stroke="#bb3d3c" vector-effect="non-scaling-stroke" d="
  M 55.00 69.04
  Q 29.81 68.35 4.42 69.50"
/>
<path stroke="#c17773" vector-effect="non-scaling-stroke" d="
  M 128.91 61.63
  Q 127.75 63.92 124.79 62.25"
/>
<path stroke="#7c8177" stroke-opacity="0.992" vector-effect="non-scaling-stroke" d="
  M 24.29 47.25
  L 23.71 46.75"
/>
<path stroke="#b16765" vector-effect="non-scaling-stroke" d="
  M 71.54 62.25
  Q 70.06 62.72 68.50 62.46"
/>
<path stroke="#92968e" vector-effect="non-scaling-stroke" d="
  M 96.04 36.25
  Q 96.07 36.67 95.75 36.79"
/>
<path stroke="#616161" stroke-opacity="0.992" vector-effect="non-scaling-stroke" d="
  M 78.04 19.00
  Q 78.08 19.58 77.50 19.54"
/>
<path stroke="#ba918f" stroke-opacity="0.996" vector-effect="non-scaling-stroke" d="
  M 73.96 61.75
  Q 73.58 62.17 73.04 62.25"
/>
<path stroke="#7c8177" stroke-opacity="0.992" vector-effect="non-scaling-stroke" d="
  M 101.29 41.00
  Q 101.33 41.58 100.75 41.54"
/>
<path stroke="#c66360" stroke-opacity="0.996" vector-effect="non-scaling-stroke" d="
  M 31.71 62.25
  Q 31.92 62.01 31.96 61.75"
/>
<path stroke="#ae8582" vector-effect="non-scaling-stroke" d="
  M 119.25 61.71
  Q 118.42 62.12 119.00 62.71"
/>
<path stroke="#ae8582" vector-effect="non-scaling-stroke" d="
  M 118.04 62.50
  Q 118.16 61.69 117.50 61.71"
/>
<path stroke="#7c8177" stroke-opacity="0.992" vector-effect="non-scaling-stroke" d="
  M 30.79 40.75
  L 30.46 40.25"
/>
<path stroke="#92968e" vector-effect="non-scaling-stroke" d="
  M 12.54 58.50
  Q 12.58 57.92 12.00 57.96"
/>
<path stroke="#9da29b" stroke-opacity="0.996" vector-effect="non-scaling-stroke" d="
  M 59.50 22.04
  Q 59.27 21.98 59.21 21.75"
/>
<path stroke="#92968e" vector-effect="non-scaling-stroke" d="
  M 49.04 32.00
  L 48.96 31.75"
/>
<path stroke="#92968e" vector-effect="non-scaling-stroke" d="
  M 91.00 31.29
  Q 91.09 31.83 90.50 31.79"
/>
<path stroke="#616161" stroke-opacity="0.992" vector-effect="non-scaling-stroke" d="
  M 79.50 19.96
  Q 78.76 20.64 79.29 21.70"
/>
<path stroke="#804d4f" stroke-opacity="0.996" vector-effect="non-scaling-stroke" d="
  M 79.29 62.00
  Q 79.12 62.34 78.75 62.29"
/>
<path stroke="#75262b" vector-effect="non-scaling-stroke" d="
  M 78.75 62.29
  Q 78.50 62.21 78.25 62.29"
/>
<path stroke="#93666c" vector-effect="non-scaling-stroke" d="
  M 78.25 62.29
  Q 77.81 61.93 77.25 61.96"
/>
<path stroke="#93666c" vector-effect="non-scaling-stroke" d="
  M 114.25 61.96
  L 113.75 62.54"
/>
<path stroke="#804d4f" stroke-opacity="0.996" vector-effect="non-scaling-stroke" d="
  M 113.25 62.54
  L 112.50 61.96"
/>
<path stroke="#ce5659" vector-effect="non-scaling-stroke" d="
  M 11.27 53.85
  Q 7.68 52.43 3.83 52.95"
/>
<path stroke="#bc8d89" vector-effect="non-scaling-stroke" d="
  M 76.50 69.71
  L 73.00 69.50"
/>
<path stroke="#b2b6b1" vector-effect="non-scaling-stroke" d="
  M 76.25 91.21
  Q 76.17 90.81 76.50 90.71"
/>
<path stroke="#ce5659" vector-effect="non-scaling-stroke" d="
  M 136.17 52.75
  Q 132.35 53.79 128.84 52.83"
/>
<path stroke="#767678" vector-effect="non-scaling-stroke" d="
  M 73.00 69.50
  Q 72.28 72.76 73.32 75.75
  Q 73.76 77.02 75.40 78.72
  Q 76.68 80.05 77.72 81.59
  A 1.27 1.16 -59.7 0 1 77.91 82.48
  Q 77.50 84.98 78.12 88.28
  A 0.71 0.71 72.2 0 0 79.11 88.79
  Q 81.36 87.77 81.75 88.32
  A 0.73 0.46 -34.0 0 1 81.40 89.11
  Q 79.20 90.60 76.50 90.71"
/>
<path stroke="#767678" vector-effect="non-scaling-stroke" d="
  M 76.50 90.71
  L 74.00 89.96"
/>
<path stroke="#3a363e" stroke-opacity="0.996" vector-effect="non-scaling-stroke" d="
  M 59.54 88.00
  Q 59.57 87.58 59.25 87.46"
/>
<path stroke="#616161" stroke-opacity="0.992" vector-effect="non-scaling-stroke" d="
  M 66.96 70.00
  L 66.76 75.99
  A 1.33 1.27 68.2 0 1 66.41 76.86
  L 62.34 81.14
  A 1.27 1.14 69.2 0 0 62.01 81.99
  L 61.96 85.69
  A 0.70 0.63 -8.1 0 1 61.45 86.30
  Q 60.24 86.62 59.25 87.46"
/>
<path stroke="#616161" stroke-opacity="0.992" vector-effect="non-scaling-stroke" d="
  M 59.25 87.46
  Q 56.57 89.55 59.54 88.00"
/>
<path stroke="#616161" stroke-opacity="0.992" vector-effect="non-scaling-stroke" d="
  M 59.54 88.00
  Q 63.46 86.48 67.20 87.93
  Q 69.46 88.80 70.55 89.04
  Q 72.29 89.43 74.00 89.96"
/>
<path stroke="#9da29b" stroke-opacity="0.996" vector-effect="non-scaling-stroke" d="
  M 74.00 89.96
  Q 72.94 89.69 72.50 90.46"
/>
<path stroke="#d97c7d" vector-effect="non-scaling-stroke" d="
  M 55.00 69.04
  L 42.50 69.71"
/>
<path stroke="#ba918f" stroke-opacity="0.996" vector-effect="non-scaling-stroke" d="
  M 66.71 69.50
  L 65.75 69.79"
/>
<path stroke="#767678" vector-effect="non-scaling-stroke" d="
  M 71.79 69.75
  L 71.76 76.24
  A 2.78 2.12 27.5 0 0 72.61 78.05
  L 76.35 81.68
  A 1.19 1.18 22.4 0 1 76.72 82.56
  L 76.66 87.89
  A 1.18 1.09 8.7 0 1 75.16 88.90
  L 64.04 85.82
  A 0.91 0.87 1.0 0 1 63.42 85.21
  Q 62.75 82.71 63.81 81.56
  Q 65.69 79.54 67.65 77.60
  A 1.41 1.01 -28.5 0 0 68.06 76.75
  L 68.25 69.54"
/>
<path stroke="#868686" vector-effect="non-scaling-stroke" d="
  M 74.94 9.79
  Q 72.86 9.21 70.89 9.17
  Q 67.77 9.09 67.12 9.22
  Q 65.35 9.54 63.66 11.20
  A 0.62 0.61 -40.3 0 0 63.59 11.99
  Q 64.90 13.80 66.31 14.82
  Q 67.77 15.88 69.92 15.98
  Q 74.51 16.20 76.22 12.61
  Q 77.25 10.44 74.94 9.79"
/>
<path stroke="#d46767" vector-effect="non-scaling-stroke" d="
  M 134.2301 55.1870
  A 1.20 1.20 0.0 0 0 133.0280 53.9891
  L 131.9280 53.9910
  A 1.20 1.20 0.0 0 0 130.7301 55.1931
  L 130.7499 66.5330
  A 1.20 1.20 0.0 0 0 131.9520 67.7309
  L 133.0520 67.7290
  A 1.20 1.20 0.0 0 0 134.2499 66.5269
  L 134.2301 55.1870"
/>
<path stroke="#d46767" vector-effect="non-scaling-stroke" d="
  M 9.1194 55.1563
  A 0.92 0.92 0.0 0 0 8.1914 54.2444
  L 6.8515 54.2561
  A 0.92 0.92 0.0 0 0 5.9395 55.1841
  L 6.0406 66.7637
  A 0.92 0.92 0.0 0 0 6.9686 67.6756
  L 8.3085 67.6639
  A 0.92 0.92 0.0 0 0 9.2205 66.7359
  L 9.1194 55.1563"
/>
<path stroke="#ce5659" vector-effect="non-scaling-stroke" d="
  M 129.24 64.54
  A 0.34 0.34 0.0 0 0 128.90 64.20
  L 11.16 64.20
  A 0.34 0.34 0.0 0 0 10.82 64.54
  L 10.82 67.18
  A 0.34 0.34 0.0 0 0 11.16 67.52
  L 128.90 67.52
  A 0.34 0.34 0.0 0 0 129.24 67.18
  L 129.24 64.54"
/>
</g>
<path fill="#888d85" fill-opacity="0.988" d="
  M 128.04 58.00
  L 127.46 58.50
  L 76.92 9.30
  Q 75.34 7.76 73.20 8.08
  Q 70.90 8.44 68.29 8.25
  Q 65.73 8.07 64.63 8.53
  Q 62.99 9.22 61.56 10.81
  Q 59.96 12.59 52.25 20.29
  Q 51.43 20.41 51.50 19.79
  Q 57.25 14.15 63.06 8.56
  Q 64.76 6.93 67.64 6.84
  Q 70.15 6.77 72.37 6.83
  Q 75.23 6.90 76.94 8.56
  Q 102.45 33.32 128.04 58.00
  Z"
/>
<path fill="#3a363e" fill-opacity="0.996" d="
  M 127.46 58.50
  L 128.79 60.25
  Q 129.14 60.76 128.91 61.63
  Q 104.34 37.96 79.93 14.32
  Q 77.73 12.20 76.67 14.78
  A 0.74 0.72 33.2 0 0 76.85 15.59
  L 124.79 62.25
  Q 124.11 63.03 123.25 62.54
  L 121.25 61.29
  Q 120.90 61.14 120.75 60.79
  Q 121.00 60.36 120.31 59.69
  Q 118.61 58.01 119.25 60.21
  Q 118.61 60.50 118.75 61.21
  Q 118.73 59.87 117.54 60.00
  Q 117.58 59.20 117.29 58.50
  Q 117.93 58.68 118.21 58.49
  A 0.62 0.45 49.3 0 0 118.14 57.66
  L 116.29 55.75
  Q 115.52 54.19 113.96 54.25
  Q 113.40 53.62 112.54 53.75
  L 112.50 53.54
  Q 113.80 53.36 111.57 50.65
  A 3.82 3.79 78.9 0 0 109.77 49.43
  Q 108.21 48.93 109.50 50.71
  L 109.25 61.96
  Q 108.31 62.59 107.50 61.71
  Q 106.88 55.22 107.54 48.75
  Q 108.17 48.84 108.39 48.49
  A 0.76 0.64 37.1 0 0 108.19 47.61
  L 104.67 44.51
  A 0.38 0.37 -62.2 0 0 104.06 44.71
  Q 103.88 45.38 104.35 45.93
  L 104.50 61.96
  Q 103.40 62.84 102.50 61.96
  L 102.29 43.75
  Q 102.92 44.20 103.14 43.74
  A 0.84 0.81 36.8 0 0 102.99 42.82
  L 101.29 41.00
  Q 98.94 38.82 99.50 41.21
  L 99.25 61.96
  Q 98.34 62.12 97.50 61.71
  L 97.29 39.00
  Q 98.12 37.20 96.04 36.25
  Q 93.91 33.32 94.29 36.25
  L 94.50 61.96
  Q 93.92 61.99 93.71 62.50
  L 93.25 62.54
  Q 92.83 62.09 92.25 61.96
  L 92.29 34.50
  Q 93.37 34.58 92.90 33.58
  Q 92.24 32.18 91.00 31.29
  Q 88.61 28.67 89.29 31.25
  L 89.25 61.96
  Q 88.34 62.12 87.50 61.71
  Q 86.88 45.63 87.49 29.47
  Q 87.19 26.91 84.85 25.46
  Q 83.38 24.55 84.25 26.46
  L 84.50 61.96
  Q 83.92 61.92 83.96 62.50
  Q 83.55 62.22 83.04 62.50
  Q 82.80 61.97 82.25 61.96
  L 82.43 24.48
  Q 82.29 21.54 79.50 19.96
  Q 78.61 19.70 78.04 19.00
  Q 77.08 17.18 75.25 16.25
  Q 73.00 15.10 73.00 19.00
  L 73.04 62.25
  L 73.00 62.46
  Q 72.24 62.56 71.54 62.25
  L 71.57 18.44
  A 0.81 0.77 -77.9 0 0 71.13 17.72
  Q 68.34 16.42 68.30 19.56
  Q 68.02 41.01 68.50 62.46
  L 66.79 62.50
  L 66.71 62.00
  Q 66.94 40.06 66.76 18.13
  Q 66.75 17.38 66.39 16.98
  Q 65.93 16.46 65.25 16.31
  A 1.24 1.07 -53.6 0 0 64.34 16.52
  Q 60.64 19.15 62.73 23.99
  L 62.54 61.50
  Q 61.81 61.25 61.96 62.25
  L 61.25 62.21
  Q 61.10 61.91 60.75 61.96
  L 60.71 22.00
  Q 61.13 18.67 59.21 21.75
  Q 55.91 22.99 57.71 25.50
  L 57.50 61.71
  Q 56.92 61.84 56.50 62.29
  L 56.29 62.25
  Q 56.02 61.87 55.50 61.96
  Q 56.12 44.21 55.50 26.46
  Q 56.69 24.20 55.18 25.47
  Q 54.94 25.68 54.66 25.83
  Q 52.32 27.15 52.58 29.49
  L 52.71 61.75
  Q 52.01 60.86 51.71 62.25
  L 51.29 62.25
  Q 51.12 61.91 50.75 61.96
  L 50.71 31.25
  Q 51.25 30.45 50.75 30.28
  A 0.89 0.70 -58.5 0 0 49.90 30.60
  L 48.96 31.75
  Q 47.66 32.42 47.11 33.72
  Q 47.00 33.99 47.01 34.28
  Q 47.12 36.01 47.71 34.50
  L 47.50 61.71
  Q 46.92 61.84 46.50 62.29
  L 46.29 62.25
  Q 46.02 61.87 45.50 61.96
  L 45.71 36.25
  Q 46.17 35.71 46.00 35.18
  A 0.42 0.37 -30.3 0 0 45.36 35.06
  Q 43.90 36.24 42.73 37.72
  Q 41.61 39.14 42.71 40.50
  L 42.71 61.75
  Q 42.00 61.61 41.71 62.25
  L 41.25 62.29
  L 40.75 61.96
  L 40.75 40.96
  Q 41.06 38.52 39.46 40.75
  Q 36.22 41.99 37.71 45.00
  L 37.50 61.71
  Q 36.80 61.65 36.50 62.29
  L 36.29 62.25
  Q 36.33 61.67 35.75 61.71
  L 35.71 46.00
  Q 36.70 43.79 34.81 44.81
  Q 33.99 45.26 32.12 47.12
  Q 30.95 48.29 32.75 48.29
  L 32.71 61.75
  Q 32.31 60.90 31.96 61.75
  Q 31.37 62.00 30.75 61.96
  L 30.71 50.50
  Q 31.56 48.66 30.01 49.52
  Q 27.65 50.82 27.44 53.22
  Q 28.17 57.43 27.50 61.54
  Q 26.74 61.45 26.71 62.25
  L 26.29 62.25
  Q 26.33 61.67 25.75 61.71
  L 25.66 55.45
  Q 26.68 53.08 22.49 56.40
  A 1.91 1.91 -21.9 0 0 21.78 58.06
  Q 21.81 58.54 22.71 58.25
  L 22.75 61.71
  Q 22.02 61.63 21.71 62.25
  Q 21.35 62.60 21.04 62.25
  Q 21.07 61.83 20.75 61.71
  Q 21.38 60.92 20.50 60.46
  Q 21.77 57.97 19.69 59.69
  Q 18.96 60.28 19.25 60.79
  L 18.71 61.25
  Q 17.68 61.30 17.21 62.25
  L 16.25 62.54
  L 15.75 61.71
  L 63.08 15.54
  A 0.82 0.75 -33.3 0 0 63.29 14.71
  Q 62.78 13.37 61.69 13.42
  Q 60.93 13.45 59.94 14.42
  Q 35.99 37.84 11.79 61.00
  Q 11.10 60.25 11.50 59.29
  Q 12.22 59.16 12.54 58.50
  L 24.29 47.25
  L 30.79 40.75
  Q 34.52 37.35 37.46 33.25
  L 44.06 27.07
  Q 48.79 24.48 52.25 20.29
  Q 59.96 12.59 61.56 10.81
  Q 62.99 9.22 64.63 8.53
  Q 65.73 8.07 68.29 8.25
  Q 70.90 8.44 73.20 8.08
  Q 75.34 7.76 76.92 9.30
  L 127.46 58.50
  Z
  M 74.94 9.79
  Q 72.86 9.21 70.89 9.17
  Q 67.77 9.09 67.12 9.22
  Q 65.35 9.54 63.66 11.20
  A 0.62 0.61 -40.3 0 0 63.59 11.99
  Q 64.90 13.80 66.31 14.82
  Q 67.77 15.88 69.92 15.98
  Q 74.51 16.20 76.22 12.61
  Q 77.25 10.44 74.94 9.79
  Z"
/>
<path fill="#d2d6cd" d="
  M 74.94 9.79
  Q 77.25 10.44 76.22 12.61
  Q 74.51 16.20 69.92 15.98
  Q 67.77 15.88 66.31 14.82
  Q 64.90 13.80 63.59 11.99
  A 0.62 0.61 -40.3 0 1 63.66 11.20
  Q 65.35 9.54 67.12 9.22
  Q 67.77 9.09 70.89 9.17
  Q 72.86 9.21 74.94 9.79
  Z"
/>
<path fill="#d2d6cd" d="
  M 15.75 61.71
  L 14.75 62.46
  L 11.56 62.75
  A 0.48 0.44 -87.3 0 1 11.09 62.19
  Q 11.22 61.51 11.79 61.00
  Q 35.99 37.84 59.94 14.42
  Q 60.93 13.45 61.69 13.42
  Q 62.78 13.37 63.29 14.71
  A 0.82 0.75 -33.3 0 1 63.08 15.54
  L 15.75 61.71
  Z"
/>
<path fill="#d2d6cd" d="
  M 128.91 61.63
  Q 127.75 63.92 124.79 62.25
  L 76.85 15.59
  A 0.74 0.72 33.2 0 1 76.67 14.78
  Q 77.73 12.20 79.93 14.32
  Q 104.34 37.96 128.91 61.63
  Z"
/>
<path fill="#71756a" fill-opacity="0.996" d="
  M 66.71 62.00
  L 66.25 61.71
  L 66.25 18.90
  Q 66.25 16.68 64.15 17.44
  Q 62.62 17.99 62.71 20.75
  Q 62.77 22.39 62.73 23.99
  Q 60.64 19.15 64.34 16.52
  A 1.24 1.07 -53.6 0 1 65.25 16.31
  Q 65.93 16.46 66.39 16.98
  Q 66.75 17.38 66.76 18.13
  Q 66.94 40.06 66.71 62.00
  Z"
/>
<path fill="#888d85" fill-opacity="0.988" d="
  M 78.04 19.00
  Q 78.08 19.58 77.50 19.54
  Q 76.87 18.43 75.94 17.56
  Q 74.00 15.76 74.00 18.00
  L 73.96 61.75
  Q 73.58 62.17 73.04 62.25
  L 73.00 19.00
  Q 73.00 15.10 75.25 16.25
  Q 77.08 17.18 78.04 19.00
  Z"
/>
<path fill="#b2b6b1" d="
  M 71.54 62.25
  Q 70.06 62.72 68.50 62.46
  Q 68.02 41.01 68.30 19.56
  Q 68.34 16.42 71.13 17.72
  A 0.81 0.77 -77.9 0 1 71.57 18.44
  L 71.54 62.25
  Z"
/>
<path fill="#3a363e" fill-opacity="0.996" d="
  M 78.04 19.00
  Q 78.61 19.70 79.50 19.96
  Q 78.76 20.64 79.29 21.70
  L 79.29 62.00
  Q 79.12 62.34 78.75 62.29
  Q 78.50 62.21 78.25 62.29
  Q 77.81 61.93 77.25 61.96
  L 77.50 19.54
  Q 78.08 19.58 78.04 19.00
  Z"
/>
<path fill="#71756a" fill-opacity="0.996" d="
  M 51.50 19.79
  Q 51.43 20.41 52.25 20.29
  Q 48.79 24.48 44.06 27.07
  L 51.50 19.79
  Z"
/>
<path fill="#888d85" fill-opacity="0.988" d="
  M 79.50 19.96
  Q 82.29 21.54 82.43 24.48
  Q 81.72 22.38 79.29 21.70
  Q 78.76 20.64 79.50 19.96
  Z"
/>
<path fill="#b2b6b1" d="
  M 60.71 22.00
  L 59.50 22.04
  Q 59.27 21.98 59.21 21.75
  Q 61.13 18.67 60.71 22.00
  Z"
/>
<path fill="#888d85" fill-opacity="0.988" d="
  M 59.21 21.75
  Q 59.27 21.98 59.50 22.04
  Q 57.76 23.35 57.71 25.50
  Q 55.91 22.99 59.21 21.75
  Z"
/>
<path fill="#b2b6b1" d="
  M 55.50 26.46
  Q 53.44 27.32 52.58 29.49
  Q 52.32 27.15 54.66 25.83
  Q 54.94 25.68 55.18 25.47
  Q 56.69 24.20 55.50 26.46
  Z"
/>
<path fill="#888d85" fill-opacity="0.988" d="
  M 87.49 29.47
  Q 86.51 27.11 84.25 26.46
  Q 83.38 24.55 84.85 25.46
  Q 87.19 26.91 87.49 29.47
  Z"
/>
<path fill="#b2b6b1" d="
  M 91.00 31.29
  Q 91.09 31.83 90.50 31.79
  L 89.29 31.25
  Q 88.61 28.67 91.00 31.29
  Z"
/>
<path fill="#b2b6b1" d="
  M 50.71 31.25
  L 49.04 32.00
  L 48.96 31.75
  L 49.90 30.60
  A 0.89 0.70 -58.5 0 1 50.75 30.28
  Q 51.25 30.45 50.71 31.25
  Z"
/>
<path fill="#71756a" fill-opacity="0.996" d="
  M 91.00 31.29
  Q 92.24 32.18 92.90 33.58
  Q 93.37 34.58 92.29 34.50
  Q 91.95 32.80 90.50 31.79
  Q 91.09 31.83 91.00 31.29
  Z"
/>
<path fill="#71756a" fill-opacity="0.996" d="
  M 48.96 31.75
  L 49.04 32.00
  Q 48.11 33.13 47.71 34.50
  Q 47.12 36.01 47.01 34.28
  Q 47.00 33.99 47.11 33.72
  Q 47.66 32.42 48.96 31.75
  Z"
/>
<path fill="#71756a" fill-opacity="0.996" d="
  M 37.46 33.25
  Q 34.52 37.35 30.79 40.75
  L 30.46 40.25
  L 37.46 33.25
  Z"
/>
<path fill="#71756a" fill-opacity="0.996" d="
  M 45.71 36.25
  Q 42.57 37.16 42.71 40.50
  Q 41.61 39.14 42.73 37.72
  Q 43.90 36.24 45.36 35.06
  A 0.42 0.37 -30.3 0 1 46.00 35.18
  Q 46.17 35.71 45.71 36.25
  Z"
/>
<path fill="#b2b6b1" d="
  M 96.04 36.25
  Q 96.07 36.67 95.75 36.79
  Q 95.11 36.26 94.29 36.25
  Q 93.91 33.32 96.04 36.25
  Z"
/>
<path fill="#71756a" fill-opacity="0.996" d="
  M 96.04 36.25
  Q 98.12 37.20 97.29 39.00
  L 95.75 36.79
  Q 96.07 36.67 96.04 36.25
  Z"
/>
<path fill="#888d85" fill-opacity="0.988" d="
  M 40.75 40.96
  Q 40.17 40.93 39.75 41.29
  Q 39.41 41.12 39.46 40.75
  Q 41.06 38.52 40.75 40.96
  Z"
/>
<path fill="#888d85" fill-opacity="0.988" d="
  M 101.29 41.00
  Q 101.33 41.58 100.75 41.54
  L 99.50 41.21
  Q 98.94 38.82 101.29 41.00
  Z"
/>
<path fill="#888d85" fill-opacity="0.988" d="
  M 30.46 40.25
  L 30.79 40.75
  L 24.29 47.25
  L 23.71 46.75
  L 30.46 40.25
  Z"
/>
<path fill="#71756a" fill-opacity="0.996" d="
  M 39.46 40.75
  Q 39.41 41.12 39.75 41.29
  Q 37.75 42.62 37.71 45.00
  Q 36.22 41.99 39.46 40.75
  Z"
/>
<path fill="#71756a" fill-opacity="0.996" d="
  M 101.29 41.00
  L 102.99 42.82
  A 0.84 0.81 36.8 0 1 103.14 43.74
  Q 102.92 44.20 102.29 43.75
  L 100.75 41.54
  Q 101.33 41.58 101.29 41.00
  Z"
/>
<path fill="#888d85" fill-opacity="0.988" d="
  M 107.54 48.75
  Q 106.71 46.67 104.35 45.93
  Q 103.88 45.38 104.06 44.71
  A 0.38 0.37 -62.2 0 1 104.67 44.51
  L 108.19 47.61
  A 0.76 0.64 37.1 0 1 108.39 48.49
  Q 108.17 48.84 107.54 48.75
  Z"
/>
<path fill="#888d85" fill-opacity="0.988" d="
  M 35.71 46.00
  Q 33.77 46.54 32.75 48.29
  Q 30.95 48.29 32.12 47.12
  Q 33.99 45.26 34.81 44.81
  Q 36.70 43.79 35.71 46.00
  Z"
/>
<path fill="#71756a" fill-opacity="0.996" d="
  M 23.71 46.75
  L 24.29 47.25
  L 12.54 58.50
  Q 12.58 57.92 12.00 57.96
  L 23.71 46.75
  Z"
/>
<path fill="#b2b6b1" d="
  M 30.71 50.50
  L 27.44 53.22
  Q 27.65 50.82 30.01 49.52
  Q 31.56 48.66 30.71 50.50
  Z"
/>
<path fill="#888d85" fill-opacity="0.988" d="
  M 112.50 53.54
  Q 111.54 51.55 109.50 50.71
  Q 108.21 48.93 109.77 49.43
  A 3.82 3.79 78.9 0 1 111.57 50.65
  Q 113.80 53.36 112.50 53.54
  Z"
/>
<path fill="#eb9599" d="
  M 11.27 53.85
  Q 7.68 52.43 3.83 52.95
  Q 5.65 51.66 9.25 52.00
  Q 11.47 52.21 11.27 53.85
  Z"
/>
<path fill="#eb9599" d="
  M 136.17 52.75
  Q 132.35 53.79 128.84 52.83
  Q 132.49 50.83 136.17 52.75
  Z"
/>
<path fill="#b01718" d="
  M 11.27 53.85
  L 11.50 57.96
  Q 10.48 58.83 11.50 59.29
  Q 11.10 60.25 11.79 61.00
  Q 11.22 61.51 11.09 62.19
  A 0.48 0.44 -87.3 0 0 11.56 62.75
  L 14.75 62.46
  Q 15.48 63.40 16.25 62.54
  L 17.21 62.25
  Q 19.21 64.48 21.04 62.25
  Q 21.35 62.60 21.71 62.25
  Q 22.73 63.87 24.59 63.25
  Q 24.89 63.15 25.56 63.11
  Q 26.28 63.08 26.29 62.25
  L 26.71 62.25
  Q 29.31 64.42 31.71 62.25
  Q 32.66 63.76 34.29 63.19
  Q 34.72 63.04 35.23 63.10
  Q 36.23 63.22 36.29 62.25
  L 36.50 62.29
  Q 38.48 63.93 40.89 63.05
  A 0.55 0.41 -12.3 0 0 41.26 62.62
  L 41.25 62.29
  L 41.71 62.25
  Q 42.39 63.75 43.80 63.21
  Q 44.25 63.04 44.73 63.10
  Q 45.89 63.26 46.29 62.25
  L 46.50 62.29
  Q 48.19 63.64 50.25 63.00
  Q 51.25 63.40 51.29 62.25
  L 51.71 62.25
  Q 53.88 64.21 56.29 62.25
  L 56.50 62.29
  Q 58.44 63.41 60.63 63.13
  A 0.63 0.48 -85.4 0 0 61.08 62.63
  Q 61.12 62.40 61.25 62.21
  L 61.96 62.25
  Q 62.02 62.66 62.29 62.95
  Q 62.51 63.19 62.94 63.21
  Q 64.93 63.27 66.79 62.50
  L 68.50 62.46
  Q 70.06 62.72 71.54 62.25
  Q 72.24 62.56 73.00 62.46
  Q 75.73 63.85 78.25 62.29
  Q 78.50 62.21 78.75 62.29
  Q 80.70 64.15 83.04 62.50
  Q 83.55 62.22 83.96 62.50
  Q 87.56 63.41 91.26 63.05
  Q 91.55 63.02 92.23 63.16
  Q 93.02 63.31 93.25 62.54
  L 93.71 62.50
  Q 94.28 63.17 96.19 63.19
  Q 104.19 63.26 112.19 63.19
  Q 113.19 63.18 113.25 62.54
  Q 113.50 62.46 113.75 62.54
  Q 115.97 64.30 118.04 62.50
  Q 118.47 62.87 119.00 62.71
  Q 120.22 63.31 121.52 63.10
  Q 121.89 63.04 122.46 63.19
  Q 123.15 63.37 123.25 62.54
  Q 124.11 63.03 124.79 62.25
  Q 127.75 63.92 128.91 61.63
  Q 129.14 60.76 128.79 60.25
  Q 129.90 59.06 128.50 58.04
  L 128.84 52.83
  Q 132.35 53.79 136.17 52.75
  L 136.24 68.41
  A 1.02 1.02 -6.9 0 1 135.46 69.40
  Q 133.30 69.93 130.96 69.78
  Q 127.18 69.54 126.52 69.56
  Q 113.74 69.86 101.04 69.39
  Q 90.24 68.94 79.50 69.00
  Q 74.98 69.03 73.00 69.50
  L 71.79 69.75
  Q 70.10 68.67 68.25 69.54
  Q 67.52 69.55 66.96 70.00
  Q 66.66 69.85 66.71 69.50
  Q 66.65 69.17 66.32 69.16
  Q 60.66 68.85 55.00 69.04
  Q 29.81 68.35 4.42 69.50
  Q 3.19 61.49 3.83 52.95
  Q 7.68 52.43 11.27 53.85
  Z
  M 134.2301 55.1870
  A 1.20 1.20 0.0 0 0 133.0280 53.9891
  L 131.9280 53.9910
  A 1.20 1.20 0.0 0 0 130.7301 55.1931
  L 130.7499 66.5330
  A 1.20 1.20 0.0 0 0 131.9520 67.7309
  L 133.0520 67.7290
  A 1.20 1.20 0.0 0 0 134.2499 66.5269
  L 134.2301 55.1870
  Z
  M 9.1194 55.1563
  A 0.92 0.92 0.0 0 0 8.1914 54.2444
  L 6.8515 54.2561
  A 0.92 0.92 0.0 0 0 5.9395 55.1841
  L 6.0406 66.7637
  A 0.92 0.92 0.0 0 0 6.9686 67.6756
  L 8.3085 67.6639
  A 0.92 0.92 0.0 0 0 9.2205 66.7359
  L 9.1194 55.1563
  Z
  M 129.24 64.54
  A 0.34 0.34 0.0 0 0 128.90 64.20
  L 11.16 64.20
  A 0.34 0.34 0.0 0 0 10.82 64.54
  L 10.82 67.18
  A 0.34 0.34 0.0 0 0 11.16 67.52
  L 128.90 67.52
  A 0.34 0.34 0.0 0 0 129.24 67.18
  L 129.24 64.54
  Z"
/>
<path fill="#3a363e" fill-opacity="0.996" d="
  M 112.54 53.75
  Q 113.40 53.62 113.96 54.25
  L 114.29 55.25
  Q 114.00 55.57 113.96 56.00
  Q 113.74 54.81 112.54 55.00
  L 112.54 53.75
  Z"
/>
<path fill="#888d85" fill-opacity="0.988" d="
  M 25.66 55.45
  Q 23.40 56.26 22.71 58.25
  Q 21.81 58.54 21.78 58.06
  A 1.91 1.91 -21.9 0 1 22.49 56.40
  Q 26.68 53.08 25.66 55.45
  Z"
/>
<path fill="#b2b6b1" d="
  M 116.29 55.75
  Q 116.32 56.17 116.00 56.29
  L 114.29 55.25
  L 113.96 54.25
  Q 115.52 54.19 116.29 55.75
  Z"
/>
<rect fill="#f7b6b6" x="-1.75" y="-6.87" transform="translate(132.49,60.86) rotate(-0.1)" width="3.50" height="13.74" rx="1.20"/>
<rect fill="#f7b6b6" x="-1.59" y="-6.71" transform="translate(7.58,60.96) rotate(-0.5)" width="3.18" height="13.42" rx="0.92"/>
<path fill="#3a363e" fill-opacity="0.996" d="
  M 112.54 55.00
  Q 113.74 54.81 113.96 56.00
  L 114.25 61.96
  L 113.75 62.54
  Q 113.50 62.46 113.25 62.54
  L 112.50 61.96
  L 112.54 55.00
  Z"
/>
<path fill="#71756a" fill-opacity="0.996" d="
  M 116.29 55.75
  L 118.14 57.66
  A 0.62 0.45 49.3 0 1 118.21 58.49
  Q 117.93 58.68 117.29 58.50
  Q 117.06 57.17 116.00 56.29
  Q 116.32 56.17 116.29 55.75
  Z"
/>
<path fill="#b2b6b1" d="
  M 11.50 57.96
  Q 11.75 58.04 12.00 57.96
  Q 12.58 57.92 12.54 58.50
  Q 12.22 59.16 11.50 59.29
  Q 10.48 58.83 11.50 57.96
  Z"
/>
<path fill="#c66360" fill-opacity="0.996" d="
  M 128.04 58.00
  L 128.50 58.04
  Q 129.90 59.06 128.79 60.25
  L 127.46 58.50
  L 128.04 58.00
  Z"
/>
<path fill="#b2b6b1" d="
  M 20.50 60.46
  Q 19.96 60.86 19.25 60.79
  Q 18.96 60.28 19.69 59.69
  Q 21.77 57.97 20.50 60.46
  Z"
/>
<path fill="#b2b6b1" d="
  M 120.75 60.79
  Q 119.91 60.73 119.25 60.21
  Q 118.61 58.01 120.31 59.69
  Q 121.00 60.36 120.75 60.79
  Z"
/>
<path fill="#71756a" fill-opacity="0.996" d="
  M 117.54 60.00
  Q 118.73 59.87 118.75 61.21
  Q 119.10 61.36 119.25 61.71
  Q 118.42 62.12 119.00 62.71
  Q 118.47 62.87 118.04 62.50
  Q 118.16 61.69 117.50 61.71
  L 117.54 60.00
  Z"
/>
<path fill="#eb9599" d="
  M 18.71 61.25
  Q 19.41 62.42 20.75 61.71
  Q 21.07 61.83 21.04 62.25
  Q 19.21 64.48 17.21 62.25
  Q 17.68 61.30 18.71 61.25
  Z"
/>
<path fill="#c66360" fill-opacity="0.996" d="
  M 32.71 61.75
  Q 34.24 62.40 35.75 61.71
  Q 36.33 61.67 36.29 62.25
  Q 36.23 63.22 35.23 63.10
  Q 34.72 63.04 34.29 63.19
  Q 32.66 63.76 31.71 62.25
  Q 31.92 62.01 31.96 61.75
  Q 32.31 60.90 32.71 61.75
  Z"
/>
<path fill="#c66360" fill-opacity="0.996" d="
  M 52.71 61.75
  Q 54.06 62.22 55.50 61.96
  Q 56.02 61.87 56.29 62.25
  Q 53.88 64.21 51.71 62.25
  Q 52.01 60.86 52.71 61.75
  Z"
/>
<path fill="#c66360" fill-opacity="0.996" d="
  M 62.54 61.50
  Q 64.30 62.59 66.25 61.71
  L 66.71 62.00
  L 66.79 62.50
  Q 64.93 63.27 62.94 63.21
  Q 62.51 63.19 62.29 62.95
  Q 62.02 62.66 61.96 62.25
  Q 61.81 61.25 62.54 61.50
  Z"
/>
<path fill="#eb9599" d="
  M 121.25 61.29
  L 123.25 62.54
  Q 123.15 63.37 122.46 63.19
  Q 121.89 63.04 121.52 63.10
  Q 120.22 63.31 119.00 62.71
  Q 118.42 62.12 119.25 61.71
  Q 120.65 62.60 121.25 61.29
  Z"
/>
<path fill="#c66360" fill-opacity="0.996" d="
  M 27.50 61.54
  Q 28.98 62.37 30.75 61.96
  Q 31.37 62.00 31.96 61.75
  Q 31.92 62.01 31.71 62.25
  Q 29.31 64.42 26.71 62.25
  Q 26.74 61.45 27.50 61.54
  Z"
/>
<path fill="#b01718" d="
  M 15.75 61.71
  L 16.25 62.54
  Q 15.48 63.40 14.75 62.46
  L 15.75 61.71
  Z"
/>
<path fill="#eb9599" d="
  M 22.75 61.71
  Q 24.25 62.42 25.75 61.71
  Q 26.33 61.67 26.29 62.25
  Q 26.28 63.08 25.56 63.11
  Q 24.89 63.15 24.59 63.25
  Q 22.73 63.87 21.71 62.25
  Q 22.02 61.63 22.75 61.71
  Z"
/>
<path fill="#c66360" fill-opacity="0.996" d="
  M 37.50 61.71
  Q 39.08 62.24 40.75 61.96
  L 41.25 62.29
  L 41.26 62.62
  A 0.55 0.41 -12.3 0 1 40.89 63.05
  Q 38.48 63.93 36.50 62.29
  Q 36.80 61.65 37.50 61.71
  Z"
/>
<path fill="#c66360" fill-opacity="0.996" d="
  M 42.71 61.75
  Q 44.06 62.22 45.50 61.96
  Q 46.02 61.87 46.29 62.25
  Q 45.89 63.26 44.73 63.10
  Q 44.25 63.04 43.80 63.21
  Q 42.39 63.75 41.71 62.25
  Q 42.00 61.61 42.71 61.75
  Z"
/>
<path fill="#c66360" fill-opacity="0.996" d="
  M 47.50 61.71
  Q 49.08 62.24 50.75 61.96
  Q 51.12 61.91 51.29 62.25
  Q 51.25 63.40 50.25 63.00
  Q 48.19 63.64 46.50 62.29
  Q 46.92 61.84 47.50 61.71
  Z"
/>
<path fill="#c66360" fill-opacity="0.996" d="
  M 57.50 61.71
  Q 59.08 62.24 60.75 61.96
  Q 61.10 61.91 61.25 62.21
  Q 61.12 62.40 61.08 62.63
  A 0.63 0.48 -85.4 0 1 60.63 63.13
  Q 58.44 63.41 56.50 62.29
  Q 56.92 61.84 57.50 61.71
  Z"
/>
<path fill="#eb9599" d="
  M 73.96 61.75
  Q 75.57 62.22 77.25 61.96
  Q 77.81 61.93 78.25 62.29
  Q 75.73 63.85 73.00 62.46
  L 73.04 62.25
  Q 73.58 62.17 73.96 61.75
  Z"
/>
<path fill="#c66360" fill-opacity="0.996" d="
  M 87.50 61.71
  Q 88.34 62.12 89.25 61.96
  L 92.25 61.96
  Q 92.83 62.09 93.25 62.54
  Q 93.02 63.31 92.23 63.16
  Q 91.55 63.02 91.26 63.05
  Q 87.56 63.41 83.96 62.50
  Q 83.92 61.92 84.50 61.96
  Q 86.05 62.24 87.50 61.71
  Z"
/>
<path fill="#c66360" fill-opacity="0.996" d="
  M 97.50 61.71
  Q 98.34 62.12 99.25 61.96
  L 102.50 61.96
  Q 103.40 62.84 104.50 61.96
  Q 106.10 62.47 107.50 61.71
  Q 108.31 62.59 109.25 61.96
  L 112.50 61.96
  L 113.25 62.54
  Q 113.19 63.18 112.19 63.19
  Q 104.19 63.26 96.19 63.19
  Q 94.28 63.17 93.71 62.50
  Q 93.92 61.99 94.50 61.96
  Q 96.05 62.24 97.50 61.71
  Z"
/>
<path fill="#eb9599" d="
  M 117.50 61.71
  Q 118.16 61.69 118.04 62.50
  Q 115.97 64.30 113.75 62.54
  L 114.25 61.96
  Q 115.91 62.21 117.50 61.71
  Z"
/>
<path fill="#c66360" fill-opacity="0.996" d="
  M 79.29 62.00
  L 82.25 61.96
  Q 82.80 61.97 83.04 62.50
  Q 80.70 64.15 78.75 62.29
  Q 79.12 62.34 79.29 62.00
  Z"
/>
<rect fill="#eb9599" x="10.82" y="64.20" width="118.42" height="3.32" rx="0.34"/>
<path fill="#c66360" fill-opacity="0.996" d="
  M 55.00 69.04
  L 42.50 69.71
  L 4.42 69.50
  Q 29.81 68.35 55.00 69.04
  Z"
/>
<path fill="#eb9599" d="
  M 55.00 69.04
  Q 60.66 68.85 66.32 69.16
  Q 66.65 69.17 66.71 69.50
  L 65.75 69.79
  L 42.50 69.71
  L 55.00 69.04
  Z"
/>
<path fill="#c66360" fill-opacity="0.996" d="
  M 101.04 69.39
  Q 88.73 70.05 76.50 69.71
  L 73.00 69.50
  Q 74.98 69.03 79.50 69.00
  Q 90.24 68.94 101.04 69.39
  Z"
/>
<path fill="#b2b6b1" d="
  M 71.79 69.75
  L 71.76 76.24
  A 2.78 2.12 27.5 0 0 72.61 78.05
  L 76.35 81.68
  A 1.19 1.18 22.4 0 1 76.72 82.56
  L 76.66 87.89
  A 1.18 1.09 8.7 0 1 75.16 88.90
  L 64.04 85.82
  A 0.91 0.87 1.0 0 1 63.42 85.21
  Q 62.75 82.71 63.81 81.56
  Q 65.69 79.54 67.65 77.60
  A 1.41 1.01 -28.5 0 0 68.06 76.75
  L 68.25 69.54
  Q 70.10 68.67 71.79 69.75
  Z"
/>
<path fill="#888d85" fill-opacity="0.988" d="
  M 66.71 69.50
  Q 66.66 69.85 66.96 70.00
  L 66.76 75.99
  A 1.33 1.27 68.2 0 1 66.41 76.86
  L 62.34 81.14
  A 1.27 1.14 69.2 0 0 62.01 81.99
  L 61.96 85.69
  A 0.70 0.63 -8.1 0 1 61.45 86.30
  Q 60.24 86.62 59.25 87.46
  Q 56.57 89.55 59.54 88.00
  Q 63.46 86.48 67.20 87.93
  Q 69.46 88.80 70.55 89.04
  Q 72.29 89.43 74.00 89.96
  Q 72.94 89.69 72.50 90.46
  L 64.54 88.22
  A 4.27 2.89 -37.2 0 0 62.31 88.34
  Q 58.25 89.66 57.27 88.90
  A 0.76 0.53 -58.4 0 1 57.22 88.04
  Q 58.02 86.62 59.79 86.16
  Q 61.65 85.68 61.26 83.79
  Q 60.86 81.87 62.05 80.54
  Q 63.27 79.18 64.54 77.86
  Q 65.97 76.37 66.18 74.78
  Q 66.50 72.28 65.75 69.79
  L 66.71 69.50
  Z"
/>
<path fill="#3a363e" fill-opacity="0.996" d="
  M 68.25 69.54
  L 68.06 76.75
  A 1.41 1.01 -28.5 0 1 67.65 77.60
  Q 65.69 79.54 63.81 81.56
  Q 62.75 82.71 63.42 85.21
  A 0.91 0.87 1.0 0 0 64.04 85.82
  L 75.16 88.90
  A 1.18 1.09 8.7 0 0 76.66 87.89
  L 76.72 82.56
  A 1.19 1.18 22.4 0 0 76.35 81.68
  L 72.61 78.05
  A 2.78 2.12 27.5 0 1 71.76 76.24
  L 71.79 69.75
  L 73.00 69.50
  Q 72.28 72.76 73.32 75.75
  Q 73.76 77.02 75.40 78.72
  Q 76.68 80.05 77.72 81.59
  A 1.27 1.16 -59.7 0 1 77.91 82.48
  Q 77.50 84.98 78.12 88.28
  A 0.71 0.71 72.2 0 0 79.11 88.79
  Q 81.36 87.77 81.75 88.32
  A 0.73 0.46 -34.0 0 1 81.40 89.11
  Q 79.20 90.60 76.50 90.71
  L 74.00 89.96
  Q 72.29 89.43 70.55 89.04
  Q 69.46 88.80 67.20 87.93
  Q 63.46 86.48 59.54 88.00
  Q 59.57 87.58 59.25 87.46
  Q 60.24 86.62 61.45 86.30
  A 0.70 0.63 -8.1 0 0 61.96 85.69
  L 62.01 81.99
  A 1.27 1.14 69.2 0 1 62.34 81.14
  L 66.41 76.86
  A 1.33 1.27 68.2 0 0 66.76 75.99
  L 66.96 70.00
  Q 67.52 69.55 68.25 69.54
  Z"
/>
<path fill="#b2b6b1" d="
  M 73.00 69.50
  L 76.50 69.71
  L 74.56 69.78
  A 0.68 0.67 -84.3 0 0 73.93 70.30
  Q 72.51 75.99 77.19 79.56
  Q 79.34 81.21 78.69 84.24
  Q 77.84 88.16 79.95 87.58
  Q 81.54 87.14 81.60 87.13
  Q 83.24 87.07 82.75 88.67
  Q 82.52 89.43 81.75 89.87
  Q 79.24 91.35 76.25 91.21
  Q 76.17 90.81 76.50 90.71
  Q 79.20 90.60 81.40 89.11
  A 0.73 0.46 -34.0 0 0 81.75 88.32
  Q 81.36 87.77 79.11 88.79
  A 0.71 0.71 72.2 0 1 78.12 88.28
  Q 77.50 84.98 77.91 82.48
  A 1.27 1.16 -59.7 0 0 77.72 81.59
  Q 76.68 80.05 75.40 78.72
  Q 73.76 77.02 73.32 75.75
  Q 72.28 72.76 73.00 69.50
  Z"
/>
<path fill="#3a363e" fill-opacity="0.996" d="
  M 59.25 87.46
  Q 59.57 87.58 59.54 88.00
  Q 56.57 89.55 59.25 87.46
  Z"
/>
<path fill="#b2b6b1" d="
  M 74.00 89.96
  L 76.50 90.71
  Q 76.17 90.81 76.25 91.21
  L 72.50 90.46
  Q 72.94 89.69 74.00 89.96
  Z"
/>
</svg>
