<?xml version="1.0" encoding="UTF-8" standalone="no"?>
<!DOCTYPE svg PUBLIC "-//W3C//DTD SVG 1.1//EN" "http://www.w3.org/Graphics/SVG/1.1/DTD/svg11.dtd">
<svg xmlns="http://www.w3.org/2000/svg" version="1.1" viewBox="0 0 140 100">
<g stroke-width="2.00" fill="none" stroke-linecap="butt">
<path stroke="#505155" stroke-opacity="0.996" vector-effect="non-scaling-stroke" d="
  M 74.00 41.29
  L 72.31 41.09
  Q 71.68 41.02 72.12 41.45
  L 74.86 44.19
  A 1.14 0.72 34.7 0 1 75.21 45.01
  Q 75.11 45.64 74.75 46.21"
/>
<path stroke="#6f7374" stroke-opacity="0.996" vector-effect="non-scaling-stroke" d="
  M 83.25 91.21
  L 82.63 58.91"
/>
<path stroke="#505155" stroke-opacity="0.996" vector-effect="non-scaling-stroke" d="
  M 101.97 58.88
  Q 103.76 55.43 102.84 51.60
  Q 102.73 51.16 102.50 51.02
  Q 102.11 50.79 101.71 51.25"
/>
<path stroke="#505155" stroke-opacity="0.996" vector-effect="non-scaling-stroke" d="
  M 38.17 51.21
  Q 35.72 53.50 36.78 56.89
  Q 36.92 57.34 36.97 58.16
  Q 37.05 59.52 38.54 58.75"
/>
<path stroke="#6f7374" stroke-opacity="0.996" vector-effect="non-scaling-stroke" d="
  M 57.53 59.01
  L 57.17 91.25"
/>
<path stroke="#505155" stroke-opacity="0.996" vector-effect="non-scaling-stroke" d="
  M 15.66 91.12
  L 16.01 66.39
  A 0.64 0.43 -85.2 0 0 15.67 65.78
  Q 15.36 65.71 15.38 66.50
  Q 15.66 77.50 15.29 88.50"
/>
<path stroke="#505155" stroke-opacity="0.996" vector-effect="non-scaling-stroke" d="
  M 64.50 46.04
  Q 65.30 43.27 66.81 42.06
  Q 69.72 39.75 65.96 41.50"
/>
<path stroke="#96999b" vector-effect="non-scaling-stroke" d="
  M 89.0237 11.4133
  A 0.39 0.39 0.0 0 0 88.6344 11.0227
  L 51.2345 10.9574
  A 0.39 0.39 0.0 0 0 50.8438 11.3467
  L 50.7963 38.5867
  A 0.39 0.39 0.0 0 0 51.1856 38.9773
  L 88.5855 39.0426
  A 0.39 0.39 0.0 0 0 88.9762 38.6533
  L 89.0237 11.4133"
/>
<path stroke="#96999b" vector-effect="non-scaling-stroke" d="
  M 70.55 41.68
  A 0.78 0.77 -43.5 0 0 69.65 41.66
  Q 66.48 43.83 69.24 44.08
  Q 74.45 44.56 70.55 41.68"
/>
<path stroke="#96999b" vector-effect="non-scaling-stroke" d="
  M 55.7740 61.2434
  A 0.31 0.31 0.0 0 0 55.4645 60.9329
  L 17.8446 60.8672
  A 0.31 0.31 0.0 0 0 17.5340 61.1767
  L 17.4860 88.6566
  A 0.31 0.31 0.0 0 0 17.7955 88.9671
  L 55.4154 89.0328
  A 0.31 0.31 0.0 0 0 55.7260 88.7233
  L 55.7740 61.2434"
/>
<path stroke="#96999b" vector-effect="non-scaling-stroke" d="
  M 122.49 61.30
  A 0.30 0.30 0.0 0 0 122.19 61.00
  L 84.53 61.00
  A 0.30 0.30 0.0 0 0 84.23 61.30
  L 84.23 88.70
  A 0.30 0.30 0.0 0 0 84.53 89.00
  L 122.19 89.00
  A 0.30 0.30 0.0 0 0 122.49 88.70
  L 122.49 61.30"
/>
<path stroke="#909394" vector-effect="non-scaling-stroke" d="
  M 84.17 14.99
  A 0.96 0.96 0.0 0 0 83.21 14.03
  L 56.79 14.03
  A 0.96 0.96 0.0 0 0 55.83 14.99
  L 55.83 15.01
  A 0.96 0.96 0.0 0 0 56.79 15.97
  L 83.21 15.97
  A 0.96 0.96 0.0 0 0 84.17 15.01
  L 84.17 14.99"
/>
<path stroke="#909394" vector-effect="non-scaling-stroke" d="
  M 84.1600 19.9947
  A 0.96 0.96 0.0 0 0 83.2017 19.0331
  L 56.7817 18.9869
  A 0.96 0.96 0.0 0 0 55.8201 19.9453
  L 55.8200 19.9853
  A 0.96 0.96 0.0 0 0 56.7783 20.9469
  L 83.1983 20.9931
  A 0.96 0.96 0.0 0 0 84.1599 20.0347
  L 84.1600 19.9947"
/>
<path stroke="#d79494" vector-effect="non-scaling-stroke" d="
  M 59.8000 24.9864
  A 1.82 1.05 0.2 0 0 57.9837 23.9300
  A 1.82 1.05 0.2 0 0 56.1600 24.9736
  A 1.82 1.05 0.2 0 0 57.9763 26.0300
  A 1.82 1.05 0.2 0 0 59.8000 24.9864"
/>
<path stroke="#d79494" vector-effect="non-scaling-stroke" d="
  M 65.8299 24.9540
  A 1.83 1.01 -0.5 0 0 63.9912 23.9600
  A 1.83 1.01 -0.5 0 0 62.1701 24.9860
  A 1.83 1.01 -0.5 0 0 64.0088 25.9800
  A 1.83 1.01 -0.5 0 0 65.8299 24.9540"
/>
<path stroke="#d79494" vector-effect="non-scaling-stroke" d="
  M 71.8200 24.9864
  A 1.83 1.00 0.2 0 0 69.9935 23.9800
  A 1.83 1.00 0.2 0 0 68.1600 24.9736
  A 1.83 1.00 0.2 0 0 69.9865 25.9800
  A 1.83 1.00 0.2 0 0 71.8200 24.9864"
/>
<path stroke="#d79494" vector-effect="non-scaling-stroke" d="
  M 77.8099 24.9678
  A 1.82 1.04 -0.7 0 0 75.9773 23.9501
  A 1.82 1.04 -0.7 0 0 74.1701 25.0122
  A 1.82 1.04 -0.7 0 0 76.0027 26.0299
  A 1.82 1.04 -0.7 0 0 77.8099 24.9678"
/>
<path stroke="#d79494" vector-effect="non-scaling-stroke" d="
  M 83.8190 25.0603
  A 1.82 1.07 1.9 0 0 82.0355 23.9306
  A 1.82 1.07 1.9 0 0 80.1810 24.9397
  A 1.82 1.07 1.9 0 0 81.9645 26.0694
  A 1.82 1.07 1.9 0 0 83.8190 25.0603"
/>
<path stroke="#d79494" vector-effect="non-scaling-stroke" d="
  M 59.8199 30.0124
  A 1.83 1.01 0.7 0 0 58.0023 28.9801
  A 1.83 1.01 0.7 0 0 56.1601 29.9676
  A 1.83 1.01 0.7 0 0 57.9777 30.9999
  A 1.83 1.01 0.7 0 0 59.8199 30.0124"
/>
<path stroke="#d79494" vector-effect="non-scaling-stroke" d="
  M 65.7700 29.9737
  A 1.80 1.01 -0.2 0 0 63.9665 28.9700
  A 1.80 1.01 -0.2 0 0 62.1700 29.9863
  A 1.80 1.01 -0.2 0 0 63.9735 30.9900
  A 1.80 1.01 -0.2 0 0 65.7700 29.9737"
/>
<path stroke="#d79494" vector-effect="non-scaling-stroke" d="
  M 71.82 29.98
  A 1.82 1.02 0.0 0 0 70.00 28.96
  A 1.82 1.02 0.0 0 0 68.18 29.98
  A 1.82 1.02 0.0 0 0 70.00 31.00
  A 1.82 1.02 0.0 0 0 71.82 29.98"
/>
<path stroke="#d79494" vector-effect="non-scaling-stroke" d="
  M 77.8000 29.9674
  A 1.81 1.03 -0.4 0 0 75.9828 28.9500
  A 1.81 1.03 -0.4 0 0 74.1800 29.9926
  A 1.81 1.03 -0.4 0 0 75.9972 31.0100
  A 1.81 1.03 -0.4 0 0 77.8000 29.9674"
/>
<path stroke="#d79494" vector-effect="non-scaling-stroke" d="
  M 81.20 30.82
  A 1.63 1.62 40.5 0 0 83.33 30.66
  Q 84.93 29.04 82.01 29.16
  Q 79.14 29.27 81.20 30.82"
/>
<path stroke="#909394" vector-effect="non-scaling-stroke" d="
  M 84.1800 34.9947
  A 0.96 0.96 0.0 0 0 83.2217 34.0331
  L 56.8017 33.9869
  A 0.96 0.96 0.0 0 0 55.8401 34.9453
  L 55.8400 34.9853
  A 0.96 0.96 0.0 0 0 56.7983 35.9469
  L 83.2183 35.9931
  A 0.96 0.96 0.0 0 0 84.1799 35.0347
  L 84.1800 34.9947"
/>
<path stroke="#b1b4b3" stroke-opacity="0.992" vector-effect="non-scaling-stroke" d="
  M 82.51 61.42
  A 0.12 0.12 0.0 0 0 82.39 61.30
  L 82.37 61.30
  A 0.12 0.12 0.0 0 0 82.25 61.42
  L 82.25 90.08
  A 0.12 0.12 0.0 0 0 82.37 90.20
  L 82.39 90.20
  A 0.12 0.12 0.0 0 0 82.51 90.08
  L 82.51 61.42"
/>
<path stroke="#909394" vector-effect="non-scaling-stroke" d="
  M 50.71 64.99
  A 0.98 0.98 0.0 0 0 49.73 64.01
  L 23.71 64.01
  A 0.98 0.98 0.0 0 0 22.73 64.99
  L 22.73 65.01
  A 0.98 0.98 0.0 0 0 23.71 65.99
  L 49.73 65.99
  A 0.98 0.98 0.0 0 0 50.71 65.01
  L 50.71 64.99"
/>
<path stroke="#96999b" vector-effect="non-scaling-stroke" d="
  M 50.6599 69.9356
  A 0.94 0.94 0.0 0 0 49.7183 68.9973
  L 23.6583 69.0427
  A 0.94 0.94 0.0 0 0 22.7200 69.9844
  L 22.7201 70.0444
  A 0.94 0.94 0.0 0 0 23.6617 70.9827
  L 49.7217 70.9373
  A 0.94 0.94 0.0 0 0 50.6600 69.9956
  L 50.6599 69.9356"
/>
<path stroke="#d79494" vector-effect="non-scaling-stroke" d="
  M 30.3646 76.8149
  A 1.87 1.79 99.4 0 0 32.4360 75.2624
  A 1.87 1.79 99.4 0 0 30.9754 73.1251
  A 1.87 1.79 99.4 0 0 28.9040 74.6776
  A 1.87 1.79 99.4 0 0 30.3646 76.8149"
/>
<path stroke="#d79494" vector-effect="non-scaling-stroke" d="
  M 36.4062 76.8227
  A 1.87 1.83 97.8 0 0 38.4731 75.2184
  A 1.87 1.83 97.8 0 0 36.9138 73.1173
  A 1.87 1.83 97.8 0 0 34.8469 74.7216
  A 1.87 1.83 97.8 0 0 36.4062 76.8227"
/>
<path stroke="#d79494" vector-effect="non-scaling-stroke" d="
  M 44.53 74.95
  A 1.84 1.84 0.0 0 0 42.69 73.11
  A 1.84 1.84 0.0 0 0 40.85 74.95
  A 1.84 1.84 0.0 0 0 42.69 76.79
  A 1.84 1.84 0.0 0 0 44.53 74.95"
/>
<path stroke="#d79494" vector-effect="non-scaling-stroke" d="
  M 26.49 74.96
  A 1.82 1.82 0.0 0 0 24.67 73.14
  A 1.82 1.82 0.0 0 0 22.85 74.96
  A 1.82 1.82 0.0 0 0 24.67 76.78
  A 1.82 1.82 0.0 0 0 26.49 74.96"
/>
<path stroke="#d79494" vector-effect="non-scaling-stroke" d="
  M 48.0783 76.7700
  A 1.86 1.79 107.9 0 0 50.3534 75.5502
  A 1.86 1.79 107.9 0 0 49.2217 73.2300
  A 1.86 1.79 107.9 0 0 46.9466 74.4498
  A 1.86 1.79 107.9 0 0 48.0783 76.7700"
/>
<path stroke="#d79494" vector-effect="non-scaling-stroke" d="
  M 48.4602 81.9033
  A 1.91 1.76 94.8 0 0 50.3738 80.1473
  A 1.91 1.76 94.8 0 0 48.7798 78.0967
  A 1.91 1.76 94.8 0 0 46.8662 79.8527
  A 1.91 1.76 94.8 0 0 48.4602 81.9033"
/>
<path stroke="#d79494" vector-effect="non-scaling-stroke" d="
  M 23.8606 81.6663
  A 1.83 1.78 116.6 0 0 26.2716 80.8270
  A 1.83 1.78 116.6 0 0 25.4994 78.3937
  A 1.83 1.78 116.6 0 0 23.0884 79.2330
  A 1.83 1.78 116.6 0 0 23.8606 81.6663"
/>
<path stroke="#d79494" vector-effect="non-scaling-stroke" d="
  M 28.94 79.69
  Q 28.60 81.18 30.08 81.78
  A 1.34 1.27 -43.5 0 0 31.04 81.78
  Q 33.06 81.01 32.16 79.01
  A 1.21 1.18 -0.9 0 0 31.47 78.36
  Q 29.41 77.61 28.94 79.69"
/>
<path stroke="#d79494" vector-effect="non-scaling-stroke" d="
  M 34.94 79.69
  Q 34.60 81.18 36.08 81.78
  A 1.34 1.27 -43.5 0 0 37.04 81.78
  Q 39.06 81.01 38.16 79.01
  A 1.21 1.18 -0.9 0 0 37.47 78.36
  Q 35.41 77.61 34.94 79.69"
/>
<path stroke="#d79494" vector-effect="non-scaling-stroke" d="
  M 41.7037 81.5793
  A 1.86 1.82 121.3 0 0 44.2251 80.9355
  A 1.86 1.82 121.3 0 0 43.6363 78.4007
  A 1.86 1.82 121.3 0 0 41.1149 79.0445
  A 1.86 1.82 121.3 0 0 41.7037 81.5793"
/>
<path stroke="#96999b" vector-effect="non-scaling-stroke" d="
  M 50.69 84.99
  A 0.97 0.97 0.0 0 0 49.72 84.02
  L 23.56 84.02
  A 0.97 0.97 0.0 0 0 22.59 84.99
  L 22.59 85.01
  A 0.97 0.97 0.0 0 0 23.56 85.98
  L 49.72 85.98
  A 0.97 0.97 0.0 0 0 50.69 85.01
  L 50.69 84.99"
/>
<path stroke="#909394" vector-effect="non-scaling-stroke" d="
  M 117.4200 64.9846
  A 0.94 0.94 0.0 0 0 116.4817 64.0429
  L 90.2217 63.9971
  A 0.94 0.94 0.0 0 0 89.2801 64.9354
  L 89.2800 64.9954
  A 0.94 0.94 0.0 0 0 90.2183 65.9371
  L 116.4783 65.9829
  A 0.94 0.94 0.0 0 0 117.4199 65.0446
  L 117.4200 64.9846"
/>
<path stroke="#909394" vector-effect="non-scaling-stroke" d="
  M 117.3999 69.9555
  A 0.90 0.90 0.0 0 0 116.4984 69.0571
  L 90.2184 69.1029
  A 0.90 0.90 0.0 0 0 89.3200 70.0045
  L 89.3201 70.0645
  A 0.90 0.90 0.0 0 0 90.2216 70.9629
  L 116.5016 70.9171
  A 0.90 0.90 0.0 0 0 117.4000 70.0155
  L 117.3999 69.9555"
/>
<path stroke="#d79494" vector-effect="non-scaling-stroke" d="
  M 91.43 73.98
  A 0.31 0.31 45.2 0 1 91.11 73.98
  L 89.91 73.22
  A 0.31 0.31 62.6 0 0 89.48 73.64
  L 90.22 74.85
  A 0.31 0.31 45.1 0 1 90.21 75.18
  L 89.45 76.38
  A 0.31 0.31 -27.5 0 0 89.87 76.81
  L 91.09 76.07
  A 0.31 0.31 -45.0 0 1 91.41 76.07
  L 92.61 76.83
  A 0.31 0.31 1.0 0 0 93.04 76.41
  L 92.30 75.20
  A 0.31 0.31 -43.6 0 1 92.31 74.87
  L 93.07 73.67
  A 0.31 0.31 4.0 0 0 92.65 73.24
  L 91.43 73.98"
/>
<path stroke="#d79494" vector-effect="non-scaling-stroke" d="
  M 97.46 73.94
  A 0.36 0.36 44.1 0 1 97.06 73.94
  L 95.96 73.23
  A 0.36 0.36 1.0 0 0 95.47 73.73
  L 96.20 74.82
  A 0.36 0.36 43.9 0 1 96.20 75.21
  L 95.49 76.32
  A 0.36 0.36 87.3 0 0 95.99 76.81
  L 97.08 76.08
  A 0.36 0.36 44.1 0 1 97.48 76.08
  L 98.58 76.79
  A 0.36 0.36 -2.5 0 0 99.07 76.29
  L 98.34 75.19
  A 0.36 0.36 -45.7 0 1 98.34 74.80
  L 99.05 73.70
  A 0.36 0.36 87.3 0 0 98.55 73.21
  L 97.46 73.94"
/>
<path stroke="#d79494" vector-effect="non-scaling-stroke" d="
  M 103.47 73.96
  A 0.36 0.36 -45.4 0 1 103.08 73.96
  L 101.97 73.23
  A 0.36 0.36 -1.6 0 0 101.47 73.73
  L 102.21 74.84
  A 0.36 0.36 -44.9 0 1 102.21 75.23
  L 101.48 76.34
  A 0.36 0.36 88.6 0 0 101.98 76.84
  L 103.09 76.10
  A 0.36 0.36 44.6 0 1 103.48 76.10
  L 104.59 76.83
  A 0.36 0.36 -1.6 0 0 105.09 76.33
  L 104.35 75.22
  A 0.36 0.36 -44.6 0 1 104.35 74.83
  L 105.08 73.72
  A 0.36 0.36 0.9 0 0 104.58 73.22
  L 103.47 73.96"
/>
<path stroke="#d79494" vector-effect="non-scaling-stroke" d="
  M 109.48 73.95
  A 0.36 0.36 -45.0 0 1 109.09 73.95
  L 107.97 73.20
  A 0.36 0.36 -82.3 0 0 107.47 73.70
  L 108.21 74.82
  A 0.36 0.36 -1.2 0 1 108.21 75.22
  L 107.46 76.34
  A 0.36 0.36 84.9 0 0 107.96 76.84
  L 109.08 76.10
  A 0.36 0.36 44.9 0 1 109.48 76.10
  L 110.60 76.85
  A 0.36 0.36 -82.3 0 0 111.10 76.35
  L 110.35 75.23
  A 0.36 0.36 -35.0 0 1 110.36 74.83
  L 111.10 73.71
  A 0.36 0.36 -0.1 0 0 110.61 73.21
  L 109.48 73.95"
/>
<path stroke="#d79494" vector-effect="non-scaling-stroke" d="
  M 115.48 73.92
  A 0.36 0.36 -52.5 0 1 115.08 73.93
  L 113.95 73.20
  A 0.36 0.36 -4.7 0 0 113.46 73.71
  L 114.22 74.82
  A 0.36 0.36 0.0 0 1 114.23 75.21
  L 113.50 76.35
  A 0.36 0.36 -76.1 0 0 114.00 76.84
  L 115.12 76.07
  A 0.36 0.36 44.0 0 1 115.51 76.07
  L 116.65 76.80
  A 0.36 0.36 19.1 0 0 117.13 76.29
  L 116.37 75.18
  A 0.36 0.36 -46.9 0 1 116.37 74.78
  L 117.09 73.65
  A 0.36 0.36 85.4 0 0 116.59 73.16
  L 115.48 73.92"
/>
<path stroke="#d79494" vector-effect="non-scaling-stroke" d="
  M 115.50 78.87
  A 0.33 0.33 -45.6 0 1 115.18 78.87
  L 113.97 78.21
  A 0.33 0.33 85.9 0 0 113.53 78.66
  L 114.19 79.86
  A 0.33 0.33 -45.1 0 1 114.19 80.18
  L 113.53 81.38
  A 0.33 0.33 -89.7 0 0 113.98 81.83
  L 115.18 81.17
  A 0.33 0.33 44.3 0 1 115.50 81.16
  L 116.70 81.83
  A 0.33 0.33 80.4 0 0 117.15 81.38
  L 116.48 80.18
  A 0.33 0.33 -42.7 0 1 116.48 79.86
  L 117.15 78.66
  A 0.33 0.33 -4.1 0 0 116.70 78.21
  L 115.50 78.87"
/>
<path stroke="#d79494" vector-effect="non-scaling-stroke" d="
  M 91.09 78.72
  Q 89.02 77.36 89.81 79.54
  A 1.41 1.29 -47.5 0 1 89.81 80.47
  Q 89.17 82.30 91.05 81.47
  A 0.93 0.93 48.8 0 1 91.92 81.53
  Q 93.70 82.66 92.74 80.73
  A 1.77 1.74 -51.6 0 1 92.61 79.49
  Q 93.09 77.63 91.87 78.66
  A 0.67 0.64 -48.2 0 1 91.09 78.72"
/>
<path stroke="#d79494" vector-effect="non-scaling-stroke" d="
  M 95.90 80.85
  Q 95.00 82.24 97.00 81.25
  Q 97.60 80.96 98.11 81.43
  A 0.91 0.26 42.8 0 0 98.92 81.84
  Q 99.18 81.63 98.67 80.53
  A 1.34 1.32 -45.8 0 1 98.66 79.40
  Q 99.58 77.36 97.88 78.69
  A 0.74 0.72 40.2 0 1 97.07 78.75
  Q 94.80 77.52 95.97 79.99
  A 0.92 0.88 -41.5 0 1 95.90 80.85"
/>
<path stroke="#d79494" vector-effect="non-scaling-stroke" d="
  M 103.46 78.91
  A 0.33 0.33 -42.0 0 1 103.15 78.91
  L 102.03 78.31
  A 0.33 0.33 -87.3 0 0 101.58 78.76
  L 102.18 79.88
  A 0.33 0.33 45.5 0 1 102.17 80.19
  L 101.58 81.31
  A 0.33 0.33 90.0 0 0 102.02 81.76
  L 103.14 81.17
  A 0.33 0.33 -44.3 0 1 103.45 81.17
  L 104.57 81.77
  A 0.33 0.33 0.1 0 0 105.02 81.33
  L 104.43 80.20
  A 0.33 0.33 -43.5 0 1 104.43 79.89
  L 105.03 78.77
  A 0.33 0.33 1.0 0 0 104.59 78.32
  L 103.46 78.91"
/>
<path stroke="#d79494" vector-effect="non-scaling-stroke" d="
  M 108.92 78.64
  Q 107.50 77.66 107.96 79.93
  A 1.11 1.10 -27.7 0 1 107.63 80.97
  Q 107.33 81.26 107.63 81.53
  A 0.73 0.51 -35.8 0 0 108.36 81.52
  Q 109.45 80.92 110.39 81.66
  A 0.50 0.31 30.7 0 0 111.08 81.65
  Q 111.14 81.36 110.81 80.94
  Q 110.05 79.96 110.86 78.92
  A 0.33 0.29 -65.2 0 0 110.71 78.41
  Q 110.19 78.32 109.70 78.63
  A 0.74 0.68 -43.1 0 1 108.92 78.64"
/>
<path stroke="#909394" vector-effect="non-scaling-stroke" d="
  M 117.27 84.99
  A 0.98 0.98 0.0 0 0 116.29 84.01
  L 90.25 84.01
  A 0.98 0.98 0.0 0 0 89.27 84.99
  L 89.27 85.01
  A 0.98 0.98 0.0 0 0 90.25 85.99
  L 116.29 85.99
  A 0.98 0.98 0.0 0 0 117.27 85.01
  L 117.27 84.99"
/>
<path stroke="#d79494" vector-effect="non-scaling-stroke" d="
  M 30.4953 75.7599
  A 0.86 0.68 102.4 0 0 31.3441 75.0660
  A 0.86 0.68 102.4 0 0 30.8647 74.0801
  A 0.86 0.68 102.4 0 0 30.0159 74.7740
  A 0.86 0.68 102.4 0 0 30.4953 75.7599"
/>
<path stroke="#d79494" vector-effect="non-scaling-stroke" d="
  M 37.18 74.58
  Q 36.77 73.37 36.17 74.79
  A 0.78 0.68 -59.9 0 0 36.33 75.63
  Q 36.77 76.00 37.10 75.51
  A 1.16 0.95 55.7 0 0 37.18 74.58"
/>
<path stroke="#d79494" vector-effect="non-scaling-stroke" d="
  M 42.4953 75.7599
  A 0.86 0.68 102.4 0 0 43.3441 75.0660
  A 0.86 0.68 102.4 0 0 42.8647 74.0801
  A 0.86 0.68 102.4 0 0 42.0159 74.7740
  A 0.86 0.68 102.4 0 0 42.4953 75.7599"
/>
<path stroke="#d79494" vector-effect="non-scaling-stroke" d="
  M 25.28 74.81
  Q 25.14 73.37 24.27 74.58
  A 1.04 0.88 -41.2 0 0 24.13 75.49
  Q 24.39 76.12 24.96 75.66
  A 1.00 0.86 70.1 0 0 25.28 74.81"
/>
<path stroke="#d79494" vector-effect="non-scaling-stroke" d="
  M 49.26 74.81
  Q 49.03 73.22 48.24 74.56
  A 1.15 0.92 -44.7 0 0 48.13 75.49
  Q 48.39 76.12 48.96 75.66
  A 0.97 0.82 69.0 0 0 49.26 74.81"
/>
<path stroke="#d79494" vector-effect="non-scaling-stroke" d="
  M 49.34 80.06
  Q 49.38 78.47 48.35 79.39
  A 0.95 0.90 -27.7 0 0 48.06 80.25
  Q 48.23 81.13 48.89 80.83
  A 0.90 0.75 80.5 0 0 49.34 80.06"
/>
<path stroke="#d79494" vector-effect="non-scaling-stroke" d="
  M 24.81 80.72
  Q 26.04 80.70 25.23 79.47
  A 0.80 0.71 66.3 0 0 24.44 79.11
  Q 23.57 79.31 24.06 80.27
  A 0.82 0.81 -13.7 0 0 24.81 80.72"
/>
<path stroke="#d79494" vector-effect="non-scaling-stroke" d="
  M 30.81 80.72
  Q 32.04 80.70 31.23 79.47
  A 0.80 0.71 66.3 0 0 30.44 79.11
  Q 29.57 79.31 30.06 80.27
  A 0.82 0.81 -13.7 0 0 30.81 80.72"
/>
<path stroke="#d79494" vector-effect="non-scaling-stroke" d="
  M 36.00 79.56
  Q 35.86 81.21 37.00 80.69
  A 0.81 0.76 -14.6 0 0 37.47 79.94
  Q 37.43 79.07 36.57 79.03
  A 0.58 0.54 -85.7 0 0 36.00 79.56"
/>
<path stroke="#d79494" vector-effect="non-scaling-stroke" d="
  M 43.25 79.81
  Q 42.98 78.23 42.23 79.56
  A 1.08 0.98 -43.4 0 0 42.16 80.47
  Q 42.52 81.33 43.04 80.72
  A 1.23 0.98 64.5 0 0 43.25 79.81"
/>
</g>
<path fill="#2d3336" d="
  M 74.00 41.29
  L 72.31 41.09
  Q 71.68 41.02 72.12 41.45
  L 74.86 44.19
  A 1.14 0.72 34.7 0 1 75.21 45.01
  Q 75.11 45.64 74.75 46.21
  L 72.05 46.43
  A 0.82 0.69 -83.9 0 0 71.41 47.05
  Q 71.01 48.82 73.25 48.81
  Q 88.00 48.75 103.24 48.75
  A 1.31 1.18 -0.4 0 1 104.55 49.91
  L 104.69 57.76
  A 1.01 0.95 89.7 0 0 105.64 58.76
  L 122.94 58.80
  A 1.81 1.79 0.5 0 1 124.74 60.61
  L 124.51 90.18
  A 1.10 1.08 0.3 0 1 123.41 91.25
  L 83.25 91.21
  L 82.63 58.91
  L 101.97 58.88
  Q 103.76 55.43 102.84 51.60
  Q 102.73 51.16 102.50 51.02
  Q 102.11 50.79 101.71 51.25
  L 38.17 51.21
  Q 35.72 53.50 36.78 56.89
  Q 36.92 57.34 36.97 58.16
  Q 37.05 59.52 38.54 58.75
  L 57.53 59.01
  L 57.17 91.25
  L 15.66 91.12
  L 16.01 66.39
  A 0.64 0.43 -85.2 0 0 15.67 65.78
  Q 15.36 65.71 15.38 66.50
  Q 15.66 77.50 15.29 88.50
  L 15.25 60.54
  A 1.79 1.79 0.0 0 1 17.04 58.75
  L 34.05 58.75
  A 1.15 1.15 -89.5 0 0 35.20 57.62
  L 35.31 50.35
  A 1.63 1.63 -89.5 0 1 36.94 48.75
  L 67.69 48.69
  A 1.02 0.89 14.8 0 0 68.50 48.29
  Q 69.19 47.24 68.26 46.61
  Q 67.78 46.29 66.66 46.30
  Q 65.56 46.31 64.50 46.04
  Q 65.30 43.27 66.81 42.06
  Q 69.72 39.75 65.96 41.50
  L 50.14 41.29
  A 1.35 1.29 0.5 0 1 48.81 40.00
  L 48.75 10.05
  A 1.31 1.30 0.0 0 1 50.06 8.75
  L 89.91 8.75
  A 1.34 1.34 5.8 0 1 91.25 10.09
  L 91.25 40.14
  A 1.12 1.11 -0.0 0 1 90.13 41.25
  L 74.00 41.29
  Z
  M 89.0237 11.4133
  A 0.39 0.39 0.0 0 0 88.6344 11.0227
  L 51.2345 10.9574
  A 0.39 0.39 0.0 0 0 50.8438 11.3467
  L 50.7963 38.5867
  A 0.39 0.39 0.0 0 0 51.1856 38.9773
  L 88.5855 39.0426
  A 0.39 0.39 0.0 0 0 88.9762 38.6533
  L 89.0237 11.4133
  Z
  M 70.55 41.68
  A 0.78 0.77 -43.5 0 0 69.65 41.66
  Q 66.48 43.83 69.24 44.08
  Q 74.45 44.56 70.55 41.68
  Z
  M 55.7740 61.2434
  A 0.31 0.31 0.0 0 0 55.4645 60.9329
  L 17.8446 60.8672
  A 0.31 0.31 0.0 0 0 17.5340 61.1767
  L 17.4860 88.6566
  A 0.31 0.31 0.0 0 0 17.7955 88.9671
  L 55.4154 89.0328
  A 0.31 0.31 0.0 0 0 55.7260 88.7233
  L 55.7740 61.2434
  Z
  M 122.49 61.30
  A 0.30 0.30 0.0 0 0 122.19 61.00
  L 84.53 61.00
  A 0.30 0.30 0.0 0 0 84.23 61.30
  L 84.23 88.70
  A 0.30 0.30 0.0 0 0 84.53 89.00
  L 122.19 89.00
  A 0.30 0.30 0.0 0 0 122.49 88.70
  L 122.49 61.30
  Z"
/>
<path fill="#ffffff" d="
  M 88.9762 38.6533
  A 0.39 0.39 0.0 0 1 88.5855 39.0426
  L 51.1856 38.9773
  A 0.39 0.39 0.0 0 1 50.7963 38.5867
  L 50.8438 11.3467
  A 0.39 0.39 0.0 0 1 51.2345 10.9574
  L 88.6344 11.0227
  A 0.39 0.39 0.0 0 1 89.0237 11.4133
  L 88.9762 38.6533
  Z
  M 84.17 14.99
  A 0.96 0.96 0.0 0 0 83.21 14.03
  L 56.79 14.03
  A 0.96 0.96 0.0 0 0 55.83 14.99
  L 55.83 15.01
  A 0.96 0.96 0.0 0 0 56.79 15.97
  L 83.21 15.97
  A 0.96 0.96 0.0 0 0 84.17 15.01
  L 84.17 14.99
  Z
  M 84.1600 19.9947
  A 0.96 0.96 0.0 0 0 83.2017 19.0331
  L 56.7817 18.9869
  A 0.96 0.96 0.0 0 0 55.8201 19.9453
  L 55.8200 19.9853
  A 0.96 0.96 0.0 0 0 56.7783 20.9469
  L 83.1983 20.9931
  A 0.96 0.96 0.0 0 0 84.1599 20.0347
  L 84.1600 19.9947
  Z
  M 59.8000 24.9864
  A 1.82 1.05 0.2 0 0 57.9837 23.9300
  A 1.82 1.05 0.2 0 0 56.1600 24.9736
  A 1.82 1.05 0.2 0 0 57.9763 26.0300
  A 1.82 1.05 0.2 0 0 59.8000 24.9864
  Z
  M 65.8299 24.9540
  A 1.83 1.01 -0.5 0 0 63.9912 23.9600
  A 1.83 1.01 -0.5 0 0 62.1701 24.9860
  A 1.83 1.01 -0.5 0 0 64.0088 25.9800
  A 1.83 1.01 -0.5 0 0 65.8299 24.9540
  Z
  M 71.8200 24.9864
  A 1.83 1.00 0.2 0 0 69.9935 23.9800
  A 1.83 1.00 0.2 0 0 68.1600 24.9736
  A 1.83 1.00 0.2 0 0 69.9865 25.9800
  A 1.83 1.00 0.2 0 0 71.8200 24.9864
  Z
  M 77.8099 24.9678
  A 1.82 1.04 -0.7 0 0 75.9773 23.9501
  A 1.82 1.04 -0.7 0 0 74.1701 25.0122
  A 1.82 1.04 -0.7 0 0 76.0027 26.0299
  A 1.82 1.04 -0.7 0 0 77.8099 24.9678
  Z
  M 83.8190 25.0603
  A 1.82 1.07 1.9 0 0 82.0355 23.9306
  A 1.82 1.07 1.9 0 0 80.1810 24.9397
  A 1.82 1.07 1.9 0 0 81.9645 26.0694
  A 1.82 1.07 1.9 0 0 83.8190 25.0603
  Z
  M 59.8199 30.0124
  A 1.83 1.01 0.7 0 0 58.0023 28.9801
  A 1.83 1.01 0.7 0 0 56.1601 29.9676
  A 1.83 1.01 0.7 0 0 57.9777 30.9999
  A 1.83 1.01 0.7 0 0 59.8199 30.0124
  Z
  M 65.7700 29.9737
  A 1.80 1.01 -0.2 0 0 63.9665 28.9700
  A 1.80 1.01 -0.2 0 0 62.1700 29.9863
  A 1.80 1.01 -0.2 0 0 63.9735 30.9900
  A 1.80 1.01 -0.2 0 0 65.7700 29.9737
  Z
  M 71.82 29.98
  A 1.82 1.02 0.0 0 0 70.00 28.96
  A 1.82 1.02 0.0 0 0 68.18 29.98
  A 1.82 1.02 0.0 0 0 70.00 31.00
  A 1.82 1.02 0.0 0 0 71.82 29.98
  Z
  M 77.8000 29.9674
  A 1.81 1.03 -0.4 0 0 75.9828 28.9500
  A 1.81 1.03 -0.4 0 0 74.1800 29.9926
  A 1.81 1.03 -0.4 0 0 75.9972 31.0100
  A 1.81 1.03 -0.4 0 0 77.8000 29.9674
  Z
  M 81.20 30.82
  A 1.63 1.62 40.5 0 0 83.33 30.66
  Q 84.93 29.04 82.01 29.16
  Q 79.14 29.27 81.20 30.82
  Z
  M 84.1800 34.9947
  A 0.96 0.96 0.0 0 0 83.2217 34.0331
  L 56.8017 33.9869
  A 0.96 0.96 0.0 0 0 55.8401 34.9453
  L 55.8400 34.9853
  A 0.96 0.96 0.0 0 0 56.7983 35.9469
  L 83.2183 35.9931
  A 0.96 0.96 0.0 0 0 84.1799 35.0347
  L 84.1800 34.9947
  Z"
/>
<rect fill="#202628" x="55.83" y="14.03" width="28.34" height="1.94" rx="0.96"/>
<rect fill="#202628" x="-14.17" y="-0.98" transform="translate(69.99,19.99) rotate(0.1)" width="28.34" height="1.96" rx="0.96"/>
<ellipse fill="#ae2929" cx="0.00" cy="0.00" transform="translate(57.98,24.98) rotate(0.2)" rx="1.82" ry="1.05"/>
<ellipse fill="#ae2929" cx="0.00" cy="0.00" transform="translate(64.00,24.97) rotate(-0.5)" rx="1.83" ry="1.01"/>
<ellipse fill="#ae2929" cx="0.00" cy="0.00" transform="translate(69.99,24.98) rotate(0.2)" rx="1.83" ry="1.00"/>
<ellipse fill="#ae2929" cx="0.00" cy="0.00" transform="translate(75.99,24.99) rotate(-0.7)" rx="1.82" ry="1.04"/>
<ellipse fill="#ae2929" cx="0.00" cy="0.00" transform="translate(82.00,25.00) rotate(1.9)" rx="1.82" ry="1.07"/>
<ellipse fill="#ae2929" cx="0.00" cy="0.00" transform="translate(57.99,29.99) rotate(0.7)" rx="1.83" ry="1.01"/>
<ellipse fill="#ae2929" cx="0.00" cy="0.00" transform="translate(63.97,29.98) rotate(-0.2)" rx="1.80" ry="1.01"/>
<ellipse fill="#ae2929" cx="70.00" cy="29.98" rx="1.82" ry="1.02"/>
<ellipse fill="#ae2929" cx="0.00" cy="0.00" transform="translate(75.99,29.98) rotate(-0.4)" rx="1.81" ry="1.03"/>
<path fill="#ae2929" d="
  M 81.20 30.82
  Q 79.14 29.27 82.01 29.16
  Q 84.93 29.04 83.33 30.66
  A 1.63 1.62 40.5 0 1 81.20 30.82
  Z"
/>
<rect fill="#202628" x="-14.17" y="-0.98" transform="translate(70.01,34.99) rotate(0.1)" width="28.34" height="1.96" rx="0.96"/>
<path fill="#736f75" fill-opacity="0.992" d="
  M 64.50 46.04
  Q 63.51 45.54 63.77 44.66
  Q 63.88 44.29 64.59 43.64
  Q 65.55 42.76 65.96 41.50
  Q 69.72 39.75 66.81 42.06
  Q 65.30 43.27 64.50 46.04
  Z"
/>
<path fill="#736f75" fill-opacity="0.992" d="
  M 74.00 41.29
  Q 74.08 42.14 75.44 43.56
  Q 77.45 45.68 74.75 46.21
  Q 75.11 45.64 75.21 45.01
  A 1.14 0.72 34.7 0 0 74.86 44.19
  L 72.12 41.45
  Q 71.68 41.02 72.31 41.09
  L 74.00 41.29
  Z"
/>
<path fill="#ffffff" d="
  M 70.55 41.68
  Q 74.45 44.56 69.24 44.08
  Q 66.48 43.83 69.65 41.66
  A 0.78 0.77 -43.5 0 1 70.55 41.68
  Z"
/>
<path fill="#736f75" fill-opacity="0.992" d="
  M 101.97 58.88
  L 101.71 51.25
  Q 102.11 50.79 102.50 51.02
  Q 102.73 51.16 102.84 51.60
  Q 103.76 55.43 101.97 58.88
  Z"
/>
<path fill="#736f75" fill-opacity="0.992" d="
  M 38.17 51.21
  Q 37.47 55.16 38.54 58.75
  Q 37.05 59.52 36.97 58.16
  Q 36.92 57.34 36.78 56.89
  Q 35.72 53.50 38.17 51.21
  Z"
/>
<path fill="#b1b4b3" fill-opacity="0.992" d="
  M 82.63 58.91
  L 83.25 91.21
  Q 82.01 91.05 82.00 89.25
  Q 81.84 69.82 82.63 58.91
  Z
  M 82.51 61.42
  A 0.12 0.12 0.0 0 0 82.39 61.30
  L 82.37 61.30
  A 0.12 0.12 0.0 0 0 82.25 61.42
  L 82.25 90.08
  A 0.12 0.12 0.0 0 0 82.37 90.20
  L 82.39 90.20
  A 0.12 0.12 0.0 0 0 82.51 90.08
  L 82.51 61.42
  Z"
/>
<path fill="#b1b4b3" fill-opacity="0.992" d="
  M 57.53 59.01
  Q 58.97 75.16 57.17 91.25
  L 57.53 59.01
  Z"
/>
<path fill="#ffffff" d="
  M 55.7260 88.7233
  A 0.31 0.31 0.0 0 1 55.4154 89.0328
  L 17.7955 88.9671
  A 0.31 0.31 0.0 0 1 17.4860 88.6566
  L 17.5340 61.1767
  A 0.31 0.31 0.0 0 1 17.8446 60.8672
  L 55.4645 60.9329
  A 0.31 0.31 0.0 0 1 55.7740 61.2434
  L 55.7260 88.7233
  Z
  M 50.71 64.99
  A 0.98 0.98 0.0 0 0 49.73 64.01
  L 23.71 64.01
  A 0.98 0.98 0.0 0 0 22.73 64.99
  L 22.73 65.01
  A 0.98 0.98 0.0 0 0 23.71 65.99
  L 49.73 65.99
  A 0.98 0.98 0.0 0 0 50.71 65.01
  L 50.71 64.99
  Z
  M 50.6599 69.9356
  A 0.94 0.94 0.0 0 0 49.7183 68.9973
  L 23.6583 69.0427
  A 0.94 0.94 0.0 0 0 22.7200 69.9844
  L 22.7201 70.0444
  A 0.94 0.94 0.0 0 0 23.6617 70.9827
  L 49.7217 70.9373
  A 0.94 0.94 0.0 0 0 50.6600 69.9956
  L 50.6599 69.9356
  Z
  M 30.3646 76.8149
  A 1.87 1.79 99.4 0 0 32.4360 75.2624
  A 1.87 1.79 99.4 0 0 30.9754 73.1251
  A 1.87 1.79 99.4 0 0 28.9040 74.6776
  A 1.87 1.79 99.4 0 0 30.3646 76.8149
  Z
  M 36.4062 76.8227
  A 1.87 1.83 97.8 0 0 38.4731 75.2184
  A 1.87 1.83 97.8 0 0 36.9138 73.1173
  A 1.87 1.83 97.8 0 0 34.8469 74.7216
  A 1.87 1.83 97.8 0 0 36.4062 76.8227
  Z
  M 44.53 74.95
  A 1.84 1.84 0.0 0 0 42.69 73.11
  A 1.84 1.84 0.0 0 0 40.85 74.95
  A 1.84 1.84 0.0 0 0 42.69 76.79
  A 1.84 1.84 0.0 0 0 44.53 74.95
  Z
  M 26.49 74.96
  A 1.82 1.82 0.0 0 0 24.67 73.14
  A 1.82 1.82 0.0 0 0 22.85 74.96
  A 1.82 1.82 0.0 0 0 24.67 76.78
  A 1.82 1.82 0.0 0 0 26.49 74.96
  Z
  M 48.0783 76.7700
  A 1.86 1.79 107.9 0 0 50.3534 75.5502
  A 1.86 1.79 107.9 0 0 49.2217 73.2300
  A 1.86 1.79 107.9 0 0 46.9466 74.4498
  A 1.86 1.79 107.9 0 0 48.0783 76.7700
  Z
  M 48.4602 81.9033
  A 1.91 1.76 94.8 0 0 50.3738 80.1473
  A 1.91 1.76 94.8 0 0 48.7798 78.0967
  A 1.91 1.76 94.8 0 0 46.8662 79.8527
  A 1.91 1.76 94.8 0 0 48.4602 81.9033
  Z
  M 23.8606 81.6663
  A 1.83 1.78 116.6 0 0 26.2716 80.8270
  A 1.83 1.78 116.6 0 0 25.4994 78.3937
  A 1.83 1.78 116.6 0 0 23.0884 79.2330
  A 1.83 1.78 116.6 0 0 23.8606 81.6663
  Z
  M 28.94 79.69
  Q 28.60 81.18 30.08 81.78
  A 1.34 1.27 -43.5 0 0 31.04 81.78
  Q 33.06 81.01 32.16 79.01
  A 1.21 1.18 -0.9 0 0 31.47 78.36
  Q 29.41 77.61 28.94 79.69
  Z
  M 34.94 79.69
  Q 34.60 81.18 36.08 81.78
  A 1.34 1.27 -43.5 0 0 37.04 81.78
  Q 39.06 81.01 38.16 79.01
  A 1.21 1.18 -0.9 0 0 37.47 78.36
  Q 35.41 77.61 34.94 79.69
  Z
  M 41.7037 81.5793
  A 1.86 1.82 121.3 0 0 44.2251 80.9355
  A 1.86 1.82 121.3 0 0 43.6363 78.4007
  A 1.86 1.82 121.3 0 0 41.1149 79.0445
  A 1.86 1.82 121.3 0 0 41.7037 81.5793
  Z
  M 50.69 84.99
  A 0.97 0.97 0.0 0 0 49.72 84.02
  L 23.56 84.02
  A 0.97 0.97 0.0 0 0 22.59 84.99
  L 22.59 85.01
  A 0.97 0.97 0.0 0 0 23.56 85.98
  L 49.72 85.98
  A 0.97 0.97 0.0 0 0 50.69 85.01
  L 50.69 84.99
  Z"
/>
<path fill="#ffffff" d="
  M 122.49 88.70
  A 0.30 0.30 0.0 0 1 122.19 89.00
  L 84.53 89.00
  A 0.30 0.30 0.0 0 1 84.23 88.70
  L 84.23 61.30
  A 0.30 0.30 0.0 0 1 84.53 61.00
  L 122.19 61.00
  A 0.30 0.30 0.0 0 1 122.49 61.30
  L 122.49 88.70
  Z
  M 117.4200 64.9846
  A 0.94 0.94 0.0 0 0 116.4817 64.0429
  L 90.2217 63.9971
  A 0.94 0.94 0.0 0 0 89.2801 64.9354
  L 89.2800 64.9954
  A 0.94 0.94 0.0 0 0 90.2183 65.9371
  L 116.4783 65.9829
  A 0.94 0.94 0.0 0 0 117.4199 65.0446
  L 117.4200 64.9846
  Z
  M 117.3999 69.9555
  A 0.90 0.90 0.0 0 0 116.4984 69.0571
  L 90.2184 69.1029
  A 0.90 0.90 0.0 0 0 89.3200 70.0045
  L 89.3201 70.0645
  A 0.90 0.90 0.0 0 0 90.2216 70.9629
  L 116.5016 70.9171
  A 0.90 0.90 0.0 0 0 117.4000 70.0155
  L 117.3999 69.9555
  Z
  M 91.43 73.98
  A 0.31 0.31 45.2 0 1 91.11 73.98
  L 89.91 73.22
  A 0.31 0.31 62.6 0 0 89.48 73.64
  L 90.22 74.85
  A 0.31 0.31 45.1 0 1 90.21 75.18
  L 89.45 76.38
  A 0.31 0.31 -27.5 0 0 89.87 76.81
  L 91.09 76.07
  A 0.31 0.31 -45.0 0 1 91.41 76.07
  L 92.61 76.83
  A 0.31 0.31 1.0 0 0 93.04 76.41
  L 92.30 75.20
  A 0.31 0.31 -43.6 0 1 92.31 74.87
  L 93.07 73.67
  A 0.31 0.31 4.0 0 0 92.65 73.24
  L 91.43 73.98
  Z
  M 97.46 73.94
  A 0.36 0.36 44.1 0 1 97.06 73.94
  L 95.96 73.23
  A 0.36 0.36 1.0 0 0 95.47 73.73
  L 96.20 74.82
  A 0.36 0.36 43.9 0 1 96.20 75.21
  L 95.49 76.32
  A 0.36 0.36 87.3 0 0 95.99 76.81
  L 97.08 76.08
  A 0.36 0.36 44.1 0 1 97.48 76.08
  L 98.58 76.79
  A 0.36 0.36 -2.5 0 0 99.07 76.29
  L 98.34 75.19
  A 0.36 0.36 -45.7 0 1 98.34 74.80
  L 99.05 73.70
  A 0.36 0.36 87.3 0 0 98.55 73.21
  L 97.46 73.94
  Z
  M 103.47 73.96
  A 0.36 0.36 -45.4 0 1 103.08 73.96
  L 101.97 73.23
  A 0.36 0.36 -1.6 0 0 101.47 73.73
  L 102.21 74.84
  A 0.36 0.36 -44.9 0 1 102.21 75.23
  L 101.48 76.34
  A 0.36 0.36 88.6 0 0 101.98 76.84
  L 103.09 76.10
  A 0.36 0.36 44.6 0 1 103.48 76.10
  L 104.59 76.83
  A 0.36 0.36 -1.6 0 0 105.09 76.33
  L 104.35 75.22
  A 0.36 0.36 -44.6 0 1 104.35 74.83
  L 105.08 73.72
  A 0.36 0.36 0.9 0 0 104.58 73.22
  L 103.47 73.96
  Z
  M 109.48 73.95
  A 0.36 0.36 -45.0 0 1 109.09 73.95
  L 107.97 73.20
  A 0.36 0.36 -82.3 0 0 107.47 73.70
  L 108.21 74.82
  A 0.36 0.36 -1.2 0 1 108.21 75.22
  L 107.46 76.34
  A 0.36 0.36 84.9 0 0 107.96 76.84
  L 109.08 76.10
  A 0.36 0.36 44.9 0 1 109.48 76.10
  L 110.60 76.85
  A 0.36 0.36 -82.3 0 0 111.10 76.35
  L 110.35 75.23
  A 0.36 0.36 -35.0 0 1 110.36 74.83
  L 111.10 73.71
  A 0.36 0.36 -0.1 0 0 110.61 73.21
  L 109.48 73.95
  Z
  M 115.48 73.92
  A 0.36 0.36 -52.5 0 1 115.08 73.93
  L 113.95 73.20
  A 0.36 0.36 -4.7 0 0 113.46 73.71
  L 114.22 74.82
  A 0.36 0.36 0.0 0 1 114.23 75.21
  L 113.50 76.35
  A 0.36 0.36 -76.1 0 0 114.00 76.84
  L 115.12 76.07
  A 0.36 0.36 44.0 0 1 115.51 76.07
  L 116.65 76.80
  A 0.36 0.36 19.1 0 0 117.13 76.29
  L 116.37 75.18
  A 0.36 0.36 -46.9 0 1 116.37 74.78
  L 117.09 73.65
  A 0.36 0.36 85.4 0 0 116.59 73.16
  L 115.48 73.92
  Z
  M 115.50 78.87
  A 0.33 0.33 -45.6 0 1 115.18 78.87
  L 113.97 78.21
  A 0.33 0.33 85.9 0 0 113.53 78.66
  L 114.19 79.86
  A 0.33 0.33 -45.1 0 1 114.19 80.18
  L 113.53 81.38
  A 0.33 0.33 -89.7 0 0 113.98 81.83
  L 115.18 81.17
  A 0.33 0.33 44.3 0 1 115.50 81.16
  L 116.70 81.83
  A 0.33 0.33 80.4 0 0 117.15 81.38
  L 116.48 80.18
  A 0.33 0.33 -42.7 0 1 116.48 79.86
  L 117.15 78.66
  A 0.33 0.33 -4.1 0 0 116.70 78.21
  L 115.50 78.87
  Z
  M 91.09 78.72
  Q 89.02 77.36 89.81 79.54
  A 1.41 1.29 -47.5 0 1 89.81 80.47
  Q 89.17 82.30 91.05 81.47
  A 0.93 0.93 48.8 0 1 91.92 81.53
  Q 93.70 82.66 92.74 80.73
  A 1.77 1.74 -51.6 0 1 92.61 79.49
  Q 93.09 77.63 91.87 78.66
  A 0.67 0.64 -48.2 0 1 91.09 78.72
  Z
  M 95.90 80.85
  Q 95.00 82.24 97.00 81.25
  Q 97.60 80.96 98.11 81.43
  A 0.91 0.26 42.8 0 0 98.92 81.84
  Q 99.18 81.63 98.67 80.53
  A 1.34 1.32 -45.8 0 1 98.66 79.40
  Q 99.58 77.36 97.88 78.69
  A 0.74 0.72 40.2 0 1 97.07 78.75
  Q 94.80 77.52 95.97 79.99
  A 0.92 0.88 -41.5 0 1 95.90 80.85
  Z
  M 103.46 78.91
  A 0.33 0.33 -42.0 0 1 103.15 78.91
  L 102.03 78.31
  A 0.33 0.33 -87.3 0 0 101.58 78.76
  L 102.18 79.88
  A 0.33 0.33 45.5 0 1 102.17 80.19
  L 101.58 81.31
  A 0.33 0.33 90.0 0 0 102.02 81.76
  L 103.14 81.17
  A 0.33 0.33 -44.3 0 1 103.45 81.17
  L 104.57 81.77
  A 0.33 0.33 0.1 0 0 105.02 81.33
  L 104.43 80.20
  A 0.33 0.33 -43.5 0 1 104.43 79.89
  L 105.03 78.77
  A 0.33 0.33 1.0 0 0 104.59 78.32
  L 103.46 78.91
  Z
  M 108.92 78.64
  Q 107.50 77.66 107.96 79.93
  A 1.11 1.10 -27.7 0 1 107.63 80.97
  Q 107.33 81.26 107.63 81.53
  A 0.73 0.51 -35.8 0 0 108.36 81.52
  Q 109.45 80.92 110.39 81.66
  A 0.50 0.31 30.7 0 0 111.08 81.65
  Q 111.14 81.36 110.81 80.94
  Q 110.05 79.96 110.86 78.92
  A 0.33 0.29 -65.2 0 0 110.71 78.41
  Q 110.19 78.32 109.70 78.63
  A 0.74 0.68 -43.1 0 1 108.92 78.64
  Z
  M 117.27 84.99
  A 0.98 0.98 0.0 0 0 116.29 84.01
  L 90.25 84.01
  A 0.98 0.98 0.0 0 0 89.27 84.99
  L 89.27 85.01
  A 0.98 0.98 0.0 0 0 90.25 85.99
  L 116.29 85.99
  A 0.98 0.98 0.0 0 0 117.27 85.01
  L 117.27 84.99
  Z"
/>
<rect fill="#b1b4b3" fill-opacity="0.992" x="82.25" y="61.30" width="0.26" height="28.90" rx="0.12"/>
<rect fill="#202628" x="22.73" y="64.01" width="27.98" height="1.98" rx="0.98"/>
<rect fill="#202628" x="-14.07" y="-0.97" transform="translate(103.35,64.99) rotate(0.1)" width="28.14" height="1.94" rx="0.94"/>
<path fill="#736f75" fill-opacity="0.992" d="
  M 15.66 91.12
  L 15.29 88.50
  Q 15.66 77.50 15.38 66.50
  Q 15.36 65.71 15.67 65.78
  A 0.64 0.43 -85.2 0 1 16.01 66.39
  L 15.66 91.12
  Z"
/>
<rect fill="#2d3336" x="-13.97" y="-0.97" transform="translate(36.69,69.99) rotate(-0.1)" width="27.94" height="1.94" rx="0.94"/>
<rect fill="#202628" x="-14.04" y="-0.93" transform="translate(103.36,70.01) rotate(-0.1)" width="28.08" height="1.86" rx="0.90"/>
<path fill="#ae2929" d="
  M 30.3646 76.8149
  A 1.87 1.79 99.4 0 1 28.9040 74.6776
  A 1.87 1.79 99.4 0 1 30.9754 73.1251
  A 1.87 1.79 99.4 0 1 32.4360 75.2624
  A 1.87 1.79 99.4 0 1 30.3646 76.8149
  Z
  M 30.4953 75.7599
  A 0.86 0.68 102.4 0 0 31.3441 75.0660
  A 0.86 0.68 102.4 0 0 30.8647 74.0801
  A 0.86 0.68 102.4 0 0 30.0159 74.7740
  A 0.86 0.68 102.4 0 0 30.4953 75.7599
  Z"
/>
<path fill="#ae2929" d="
  M 36.4062 76.8227
  A 1.87 1.83 97.8 0 1 34.8469 74.7216
  A 1.87 1.83 97.8 0 1 36.9138 73.1173
  A 1.87 1.83 97.8 0 1 38.4731 75.2184
  A 1.87 1.83 97.8 0 1 36.4062 76.8227
  Z
  M 37.18 74.58
  Q 36.77 73.37 36.17 74.79
  A 0.78 0.68 -59.9 0 0 36.33 75.63
  Q 36.77 76.00 37.10 75.51
  A 1.16 0.95 55.7 0 0 37.18 74.58
  Z"
/>
<path fill="#ae2929" d="
  M 44.53 74.95
  A 1.84 1.84 0.0 0 1 42.69 76.79
  A 1.84 1.84 0.0 0 1 40.85 74.95
  A 1.84 1.84 0.0 0 1 42.69 73.11
  A 1.84 1.84 0.0 0 1 44.53 74.95
  Z
  M 42.4953 75.7599
  A 0.86 0.68 102.4 0 0 43.3441 75.0660
  A 0.86 0.68 102.4 0 0 42.8647 74.0801
  A 0.86 0.68 102.4 0 0 42.0159 74.7740
  A 0.86 0.68 102.4 0 0 42.4953 75.7599
  Z"
/>
<path fill="#ae2929" d="
  M 91.43 73.98
  L 92.65 73.24
  A 0.31 0.31 -19.8 0 1 93.07 73.67
  L 92.31 74.87
  A 0.31 0.31 -44.4 0 0 92.30 75.20
  L 93.04 76.41
  A 0.31 0.31 -10.3 0 1 92.61 76.83
  L 91.41 76.07
  A 0.31 0.31 -44.4 0 0 91.09 76.07
  L 89.87 76.81
  A 0.31 0.31 33.5 0 1 89.45 76.38
  L 90.21 75.18
  A 0.31 0.31 45.4 0 0 90.22 74.85
  L 89.48 73.64
  A 0.31 0.31 -56.1 0 1 89.91 73.22
  L 91.11 73.98
  A 0.31 0.31 45.5 0 0 91.43 73.98
  Z"
/>
<path fill="#ae2929" d="
  M 97.46 73.94
  L 98.55 73.21
  A 0.36 0.36 88.2 0 1 99.05 73.70
  L 98.34 74.80
  A 0.36 0.36 -45.6 0 0 98.34 75.19
  L 99.07 76.29
  A 0.36 0.36 -1.8 0 1 98.58 76.79
  L 97.48 76.08
  A 0.36 0.36 44.6 0 0 97.08 76.08
  L 95.99 76.81
  A 0.36 0.36 88.2 0 1 95.49 76.32
  L 96.20 75.21
  A 0.36 0.36 44.4 0 0 96.20 74.82
  L 95.47 73.73
  A 0.36 0.36 12.6 0 1 95.96 73.23
  L 97.06 73.94
  A 0.36 0.36 44.6 0 0 97.46 73.94
  Z"
/>
<path fill="#ae2929" d="
  M 103.47 73.96
  L 104.58 73.22
  A 0.36 0.36 33.9 0 1 105.08 73.72
  L 104.35 74.83
  A 0.36 0.36 -45.3 0 0 104.35 75.22
  L 105.09 76.33
  A 0.36 0.36 20.3 0 1 104.59 76.83
  L 103.48 76.10
  A 0.36 0.36 44.7 0 0 103.09 76.10
  L 101.98 76.84
  A 0.36 0.36 -68.8 0 1 101.48 76.34
  L 102.21 75.23
  A 0.36 0.36 -45.6 0 0 102.21 74.84
  L 101.47 73.73
  A 0.36 0.36 20.3 0 1 101.97 73.23
  L 103.08 73.96
  A 0.36 0.36 -45.2 0 0 103.47 73.96
  Z"
/>
<path fill="#ae2929" d="
  M 109.48 73.95
  L 110.61 73.21
  A 0.36 0.36 -5.2 0 1 111.10 73.71
  L 110.36 74.83
  A 0.36 0.36 -38.2 0 0 110.35 75.23
  L 111.10 76.35
  A 0.36 0.36 63.7 0 1 110.60 76.85
  L 109.48 76.10
  A 0.36 0.36 45.1 0 0 109.08 76.10
  L 107.96 76.84
  A 0.36 0.36 82.7 0 1 107.46 76.34
  L 108.21 75.22
  A 0.36 0.36 -82.3 0 0 108.21 74.82
  L 107.47 73.70
  A 0.36 0.36 63.7 0 1 107.97 73.20
  L 109.09 73.95
  A 0.36 0.36 -44.9 0 0 109.48 73.95
  Z"
/>
<path fill="#ae2929" d="
  M 115.48 73.92
  L 116.59 73.16
  A 0.36 0.36 83.0 0 1 117.09 73.65
  L 116.37 74.78
  A 0.36 0.36 -45.7 0 0 116.37 75.18
  L 117.13 76.29
  A 0.36 0.36 33.1 0 1 116.65 76.80
  L 115.51 76.07
  A 0.36 0.36 44.1 0 0 115.12 76.07
  L 114.00 76.84
  A 0.36 0.36 47.6 0 1 113.50 76.35
  L 114.23 75.21
  A 0.36 0.36 41.6 0 0 114.22 74.82
  L 113.46 73.71
  A 0.36 0.36 -6.9 0 1 113.95 73.20
  L 115.08 73.93
  A 0.36 0.36 -43.4 0 0 115.48 73.92
  Z"
/>
<path fill="#ae2929" d="
  M 26.49 74.96
  A 1.82 1.82 0.0 0 1 24.67 76.78
  A 1.82 1.82 0.0 0 1 22.85 74.96
  A 1.82 1.82 0.0 0 1 24.67 73.14
  A 1.82 1.82 0.0 0 1 26.49 74.96
  Z
  M 25.28 74.81
  Q 25.14 73.37 24.27 74.58
  A 1.04 0.88 -41.2 0 0 24.13 75.49
  Q 24.39 76.12 24.96 75.66
  A 1.00 0.86 70.1 0 0 25.28 74.81
  Z"
/>
<path fill="#ae2929" d="
  M 48.0783 76.7700
  A 1.86 1.79 107.9 0 1 46.9466 74.4498
  A 1.86 1.79 107.9 0 1 49.2217 73.2300
  A 1.86 1.79 107.9 0 1 50.3534 75.5502
  A 1.86 1.79 107.9 0 1 48.0783 76.7700
  Z
  M 49.26 74.81
  Q 49.03 73.22 48.24 74.56
  A 1.15 0.92 -44.7 0 0 48.13 75.49
  Q 48.39 76.12 48.96 75.66
  A 0.97 0.82 69.0 0 0 49.26 74.81
  Z"
/>
<path fill="#ffffff" d="
  M 24.96 75.66
  Q 24.39 76.12 24.13 75.49
  A 1.04 0.88 -41.2 0 1 24.27 74.58
  Q 25.14 73.37 25.28 74.81
  A 1.00 0.86 70.1 0 1 24.96 75.66
  Z"
/>
<ellipse fill="#ffffff" cx="0.00" cy="0.00" transform="translate(30.68,74.92) rotate(102.4)" rx="0.86" ry="0.68"/>
<path fill="#ffffff" d="
  M 37.10 75.51
  Q 36.77 76.00 36.33 75.63
  A 0.78 0.68 -59.9 0 1 36.17 74.79
  Q 36.77 73.37 37.18 74.58
  A 1.16 0.95 55.7 0 1 37.10 75.51
  Z"
/>
<ellipse fill="#ffffff" cx="0.00" cy="0.00" transform="translate(42.68,74.92) rotate(102.4)" rx="0.86" ry="0.68"/>
<path fill="#ffffff" d="
  M 48.96 75.66
  Q 48.39 76.12 48.13 75.49
  A 1.15 0.92 -44.7 0 1 48.24 74.56
  Q 49.03 73.22 49.26 74.81
  A 0.97 0.82 69.0 0 1 48.96 75.66
  Z"
/>
<path fill="#ae2929" d="
  M 48.4602 81.9033
  A 1.91 1.76 94.8 0 1 46.8662 79.8527
  A 1.91 1.76 94.8 0 1 48.7798 78.0967
  A 1.91 1.76 94.8 0 1 50.3738 80.1473
  A 1.91 1.76 94.8 0 1 48.4602 81.9033
  Z
  M 49.34 80.06
  Q 49.38 78.47 48.35 79.39
  A 0.95 0.90 -27.7 0 0 48.06 80.25
  Q 48.23 81.13 48.89 80.83
  A 0.90 0.75 80.5 0 0 49.34 80.06
  Z"
/>
<path fill="#ae2929" d="
  M 115.50 78.87
  L 116.70 78.21
  A 0.33 0.33 -1.6 0 1 117.15 78.66
  L 116.48 79.86
  A 0.33 0.33 -44.5 0 0 116.48 80.18
  L 117.15 81.38
  A 0.33 0.33 -78.6 0 1 116.70 81.83
  L 115.50 81.16
  A 0.33 0.33 45.1 0 0 115.18 81.17
  L 113.98 81.83
  A 0.33 0.33 81.3 0 1 113.53 81.38
  L 114.19 80.18
  A 0.33 0.33 0.0 0 0 114.19 79.86
  L 113.53 78.66
  A 0.33 0.33 88.3 0 1 113.97 78.21
  L 115.18 78.87
  A 0.33 0.33 -44.9 0 0 115.50 78.87
  Z"
/>
<path fill="#ae2929" d="
  M 23.8606 81.6663
  A 1.83 1.78 116.6 0 1 23.0884 79.2330
  A 1.83 1.78 116.6 0 1 25.4994 78.3937
  A 1.83 1.78 116.6 0 1 26.2716 80.8270
  A 1.83 1.78 116.6 0 1 23.8606 81.6663
  Z
  M 24.81 80.72
  Q 26.04 80.70 25.23 79.47
  A 0.80 0.71 66.3 0 0 24.44 79.11
  Q 23.57 79.31 24.06 80.27
  A 0.82 0.81 -13.7 0 0 24.81 80.72
  Z"
/>
<path fill="#ae2929" d="
  M 28.94 79.69
  Q 29.41 77.61 31.47 78.36
  A 1.21 1.18 -0.9 0 1 32.16 79.01
  Q 33.06 81.01 31.04 81.78
  A 1.34 1.27 -43.5 0 1 30.08 81.78
  Q 28.60 81.18 28.94 79.69
  Z
  M 30.81 80.72
  Q 32.04 80.70 31.23 79.47
  A 0.80 0.71 66.3 0 0 30.44 79.11
  Q 29.57 79.31 30.06 80.27
  A 0.82 0.81 -13.7 0 0 30.81 80.72
  Z"
/>
<path fill="#ae2929" d="
  M 34.94 79.69
  Q 35.41 77.61 37.47 78.36
  A 1.21 1.18 -0.9 0 1 38.16 79.01
  Q 39.06 81.01 37.04 81.78
  A 1.34 1.27 -43.5 0 1 36.08 81.78
  Q 34.60 81.18 34.94 79.69
  Z
  M 36.00 79.56
  Q 35.86 81.21 37.00 80.69
  A 0.81 0.76 -14.6 0 0 37.47 79.94
  Q 37.43 79.07 36.57 79.03
  A 0.58 0.54 -85.7 0 0 36.00 79.56
  Z"
/>
<path fill="#ae2929" d="
  M 41.7037 81.5793
  A 1.86 1.82 121.3 0 1 41.1149 79.0445
  A 1.86 1.82 121.3 0 1 43.6363 78.4007
  A 1.86 1.82 121.3 0 1 44.2251 80.9355
  A 1.86 1.82 121.3 0 1 41.7037 81.5793
  Z
  M 43.25 79.81
  Q 42.98 78.23 42.23 79.56
  A 1.08 0.98 -43.4 0 0 42.16 80.47
  Q 42.52 81.33 43.04 80.72
  A 1.23 0.98 64.5 0 0 43.25 79.81
  Z"
/>
<path fill="#ae2929" d="
  M 91.87 78.66
  Q 93.09 77.63 92.61 79.49
  A 1.77 1.74 -51.6 0 0 92.74 80.73
  Q 93.70 82.66 91.92 81.53
  A 0.93 0.93 48.8 0 0 91.05 81.47
  Q 89.17 82.30 89.81 80.47
  A 1.41 1.29 -47.5 0 0 89.81 79.54
  Q 89.02 77.36 91.09 78.72
  A 0.67 0.64 -48.2 0 0 91.87 78.66
  Z"
/>
<path fill="#ae2929" d="
  M 95.97 79.99
  Q 94.80 77.52 97.07 78.75
  A 0.74 0.72 40.2 0 0 97.88 78.69
  Q 99.58 77.36 98.66 79.40
  A 1.34 1.32 -45.8 0 0 98.67 80.53
  Q 99.18 81.63 98.92 81.84
  A 0.91 0.26 42.8 0 1 98.11 81.43
  Q 97.60 80.96 97.00 81.25
  Q 95.00 82.24 95.90 80.85
  A 0.92 0.88 -41.5 0 0 95.97 79.99
  Z"
/>
<path fill="#ae2929" d="
  M 103.46 78.91
  L 104.59 78.32
  A 0.33 0.33 -1.1 0 1 105.03 78.77
  L 104.43 79.89
  A 0.33 0.33 -44.8 0 0 104.43 80.20
  L 105.02 81.33
  A 0.33 0.33 -0.7 0 1 104.57 81.77
  L 103.45 81.17
  A 0.33 0.33 0.0 0 0 103.14 81.17
  L 102.02 81.76
  A 0.33 0.33 89.3 0 1 101.58 81.31
  L 102.17 80.19
  A 0.33 0.33 45.5 0 0 102.18 79.88
  L 101.58 78.76
  A 0.33 0.33 84.7 0 1 102.03 78.31
  L 103.15 78.91
  A 0.33 0.33 -43.9 0 0 103.46 78.91
  Z"
/>
<path fill="#ae2929" d="
  M 109.70 78.63
  Q 110.19 78.32 110.71 78.41
  A 0.33 0.29 -65.2 0 1 110.86 78.92
  Q 110.05 79.96 110.81 80.94
  Q 111.14 81.36 111.08 81.65
  A 0.50 0.31 30.7 0 1 110.39 81.66
  Q 109.45 80.92 108.36 81.52
  A 0.73 0.51 -35.8 0 1 107.63 81.53
  Q 107.33 81.26 107.63 80.97
  A 1.11 1.10 -27.7 0 0 107.96 79.93
  Q 107.50 77.66 108.92 78.64
  A 0.74 0.68 -43.1 0 0 109.70 78.63
  Z"
/>
<path fill="#ffffff" d="
  M 24.06 80.27
  Q 23.57 79.31 24.44 79.11
  A 0.80 0.71 66.3 0 1 25.23 79.47
  Q 26.04 80.70 24.81 80.72
  A 0.82 0.81 -13.7 0 1 24.06 80.27
  Z"
/>
<path fill="#ffffff" d="
  M 30.06 80.27
  Q 29.57 79.31 30.44 79.11
  A 0.80 0.71 66.3 0 1 31.23 79.47
  Q 32.04 80.70 30.81 80.72
  A 0.82 0.81 -13.7 0 1 30.06 80.27
  Z"
/>
<path fill="#ffffff" d="
  M 36.57 79.03
  Q 37.43 79.07 37.47 79.94
  A 0.81 0.76 -14.6 0 1 37.00 80.69
  Q 35.86 81.21 36.00 79.56
  A 0.58 0.54 -85.7 0 1 36.57 79.03
  Z"
/>
<path fill="#ffffff" d="
  M 43.04 80.72
  Q 42.52 81.33 42.16 80.47
  A 1.08 0.98 -43.4 0 1 42.23 79.56
  Q 42.98 78.23 43.25 79.81
  A 1.23 0.98 64.5 0 1 43.04 80.72
  Z"
/>
<path fill="#ffffff" d="
  M 48.89 80.83
  Q 48.23 81.13 48.06 80.25
  A 0.95 0.90 -27.7 0 1 48.35 79.39
  Q 49.38 78.47 49.34 80.06
  A 0.90 0.75 80.5 0 1 48.89 80.83
  Z"
/>
<rect fill="#2d3336" x="22.59" y="84.02" width="28.10" height="1.96" rx="0.97"/>
<rect fill="#202628" x="89.27" y="84.01" width="28.00" height="1.98" rx="0.98"/>
</svg>
