<?xml version="1.0" encoding="UTF-8" standalone="no"?>
<!DOCTYPE svg PUBLIC "-//W3C//DTD SVG 1.1//EN" "http://www.w3.org/Graphics/SVG/1.1/DTD/svg11.dtd">
<svg xmlns="http://www.w3.org/2000/svg" version="1.1" viewBox="0 0 140 100">
<g stroke-width="2.00" fill="none" stroke-linecap="butt">
<path stroke="#55625a" stroke-opacity="0.996" vector-effect="non-scaling-stroke" d="
  M 6.50 8.76
  Q 5.44 24.52 6.29 40.25"
/>
<path stroke="#96554c" stroke-opacity="0.996" vector-effect="non-scaling-stroke" d="
  M 6.29 40.25
  L 6.04 45.00"
/>
<path stroke="#4b584e" stroke-opacity="0.996" vector-effect="non-scaling-stroke" d="
  M 6.04 45.00
  L 6.04 88.25"
/>
<path stroke="#55625a" stroke-opacity="0.996" vector-effect="non-scaling-stroke" d="
  M 6.04 88.25
  Q 6.40 89.21 5.35 91.01"
/>
<path stroke="#641b1b" vector-effect="non-scaling-stroke" d="
  M 7.46 44.50
  Q 6.90 45.54 6.04 45.00"
/>
<path stroke="#55625a" stroke-opacity="0.996" vector-effect="non-scaling-stroke" d="
  M 50.25 8.79
  Q 52.25 8.49 53.36 9.50
  Q 54.20 10.26 54.16 12.14
  Q 53.90 23.94 53.96 35.75"
/>
<path stroke="#6e2527" vector-effect="non-scaling-stroke" d="
  M 53.96 35.75
  Q 53.10 35.79 52.54 36.50"
/>
<path stroke="#96999a" vector-effect="non-scaling-stroke" d="
  M 52.54 36.50
  L 52.44 24.56
  A 0.51 0.49 0.0 0 0 51.93 24.07
  L 8.31 24.24
  A 0.77 0.71 -1.1 0 0 7.55 24.97
  L 7.75 34.54"
/>
<path stroke="#6d3d3d" vector-effect="non-scaling-stroke" d="
  M 7.75 34.54
  L 7.54 35.25"
/>
<path stroke="#96999a" vector-effect="non-scaling-stroke" d="
  M 7.54 35.25
  L 7.46 39.25"
/>
<path stroke="#6e2527" vector-effect="non-scaling-stroke" d="
  M 7.46 39.25
  Q 7.03 40.15 6.29 40.25"
/>
<path stroke="#7e6463" stroke-opacity="0.992" vector-effect="non-scaling-stroke" d="
  M 54.04 43.25
  L 53.96 43.50"
/>
<path stroke="#6c1c1c" vector-effect="non-scaling-stroke" d="
  M 53.96 43.50
  Q 52.32 44.92 54.04 46.25"
/>
<path stroke="#8d8f8e" vector-effect="non-scaling-stroke" d="
  M 54.04 46.25
  Q 53.78 47.52 54.54 48.50"
/>
<path stroke="#4b584e" stroke-opacity="0.996" vector-effect="non-scaling-stroke" d="
  M 54.54 48.50
  Q 53.66 52.70 53.74 57.00
  Q 53.88 65.48 54.00 73.96"
/>
<path stroke="#6c1c1c" vector-effect="non-scaling-stroke" d="
  M 54.00 73.96
  Q 53.38 74.58 52.54 74.75"
/>
<path stroke="#8d8f8e" vector-effect="non-scaling-stroke" d="
  M 52.54 74.75
  L 52.44 58.07
  A 0.51 0.49 -90.0 0 0 51.95 57.56
  L 8.07 57.50
  A 0.57 0.57 0.0 0 0 7.50 58.07
  L 7.43 88.75
  A 0.31 0.31 89.1 0 0 7.74 89.06
  L 51.95 89.00
  A 0.55 0.55 0.0 0 0 52.50 88.45
  L 52.53 76.96"
/>
<path stroke="#6c1c1c" vector-effect="non-scaling-stroke" d="
  M 52.53 76.96
  Q 53.01 76.68 53.75 76.75"
/>
<path stroke="#4b584e" stroke-opacity="0.996" vector-effect="non-scaling-stroke" d="
  M 53.75 76.75
  Q 54.30 81.11 54.25 85.50
  Q 54.21 89.30 53.00 91.21"
/>
<path stroke="#242829" vector-effect="non-scaling-stroke" d="
  M 37.25 91.21
  Q 19.43 90.67 8.00 90.75
  Q 5.65 90.77 6.04 88.25"
/>
<path stroke="#d78c8c" vector-effect="non-scaling-stroke" d="
  M 52.54 36.50
  L 52.54 41.00"
/>
<path stroke="#8d8f8e" vector-effect="non-scaling-stroke" d="
  M 52.54 41.00
  L 52.46 43.94
  A 0.58 0.56 -2.9 0 1 51.95 44.49
  Q 47.00 45.03 51.94 45.52
  A 0.57 0.55 2.9 0 1 52.45 46.07
  L 52.45 55.44
  A 0.51 0.49 0.6 0 1 51.93 55.93
  L 8.08 55.75
  A 0.59 0.58 -90.0 0 1 7.50 55.16
  L 7.46 44.50"
/>
<path stroke="#d78c8c" vector-effect="non-scaling-stroke" d="
  M 7.46 44.50
  L 7.46 39.25"
/>
<path stroke="#d6a3a2" vector-effect="non-scaling-stroke" d="
  M 7.54 35.25
  Q 9.05 35.69 10.57 35.42
  A 0.68 0.51 -8.8 0 0 11.15 34.83
  Q 11.09 34.36 10.25 34.41
  Q 9.00 34.47 7.75 34.54"
/>
<path stroke="#9d564d" stroke-opacity="0.996" vector-effect="non-scaling-stroke" d="
  M 55.46 37.75
  Q 55.74 38.35 55.75 39.00"
/>
<path stroke="#4b584e" stroke-opacity="0.996" vector-effect="non-scaling-stroke" d="
  M 54.04 43.25
  Q 53.64 42.17 53.71 41.00"
/>
<path stroke="#96554c" stroke-opacity="0.996" vector-effect="non-scaling-stroke" d="
  M 53.71 41.00
  Q 54.85 38.45 53.96 35.75"
/>
<path stroke="#641b1b" vector-effect="non-scaling-stroke" d="
  M 53.71 41.00
  L 52.54 41.00"
/>
<path stroke="#d06262" stroke-opacity="0.992" vector-effect="non-scaling-stroke" d="
  M 60.79 47.50
  Q 58.70 46.47 59.94 48.31
  Q 64.08 54.47 62.96 63.25"
/>
<path stroke="#c24242" stroke-opacity="0.988" vector-effect="non-scaling-stroke" d="
  M 62.96 63.25
  Q 61.69 68.81 57.92 72.93
  Q 57.55 73.34 55.71 74.63
  Q 54.52 75.47 53.75 76.75"
/>
<path stroke="#de8d8d" vector-effect="non-scaling-stroke" d="
  M 52.53 76.96
  Q 48.42 78.27 49.99 76.20
  A 1.76 1.13 1.0 0 1 50.80 75.70
  Q 51.77 75.43 52.54 74.75"
/>
<path stroke="#9d564d" stroke-opacity="0.996" vector-effect="non-scaling-stroke" d="
  M 54.00 73.96
  Q 55.26 74.13 55.75 72.96"
/>
<path stroke="#c65451" stroke-opacity="0.992" vector-effect="non-scaling-stroke" d="
  M 55.75 72.96
  Q 58.51 71.57 60.00 68.25
  Q 64.27 58.73 59.32 50.03
  Q 59.19 49.81 59.00 49.64
  Q 55.71 46.66 58.61 50.29"
/>
<path stroke="#c24242" stroke-opacity="0.988" vector-effect="non-scaling-stroke" d="
  M 57.79 50.75
  Q 57.15 49.84 56.00 50.29"
/>
<path stroke="#9d564d" stroke-opacity="0.996" vector-effect="non-scaling-stroke" d="
  M 55.71 50.00
  Q 55.80 49.62 55.71 49.25"
/>
<path stroke="#de8d8d" vector-effect="non-scaling-stroke" d="
  M 55.71 49.25
  Q 55.48 47.41 54.04 46.25"
/>
<path stroke="#bec9c0" stroke-opacity="0.996" vector-effect="non-scaling-stroke" d="
  M 55.71 49.25
  Q 54.97 49.07 54.54 48.50"
/>
<path stroke="#d06262" stroke-opacity="0.992" vector-effect="non-scaling-stroke" d="
  M 61.04 47.25
  Q 60.94 45.46 59.50 45.25
  Q 55.85 44.71 53.96 43.50"
/>
<path stroke="#c65451" stroke-opacity="0.992" vector-effect="non-scaling-stroke" d="
  M 60.75 40.29
  Q 61.76 40.30 61.92 39.56
  A 0.48 0.41 4.8 0 0 61.43 39.07
  L 55.75 39.00"
/>
<path stroke="#ce5d5d" stroke-opacity="0.996" vector-effect="non-scaling-stroke" d="
  M 60.99 41.74
  L 66.86 38.82
  A 0.50 0.45 49.7 0 0 66.89 38.02
  Q 65.35 36.82 63.52 35.95
  Q 60.97 34.74 61.81 37.04
  A 0.50 0.48 70.1 0 1 61.53 37.68
  Q 58.63 38.72 55.71 37.50"
/>
<path stroke="#c65451" stroke-opacity="0.992" vector-effect="non-scaling-stroke" d="
  M 121.03 15.80
  Q 109.94 16.41 98.91 15.82"
/>
<path stroke="#c65451" stroke-opacity="0.992" vector-effect="non-scaling-stroke" d="
  M 121.21 30.25
  Q 119.40 30.34 120.04 32.02
  Q 120.97 34.53 122.33 37.79
  Q 122.58 38.40 122.88 37.81
  Q 123.75 36.02 124.30 37.70
  A 1.77 1.25 -53.6 0 1 124.28 38.66
  Q 122.54 44.21 129.01 43.08
  Q 131.57 42.63 133.97 43.40
  A 0.70 0.67 -81.5 0 1 134.44 44.06
  L 134.54 55.75"
/>
<path stroke="#ce5d5d" stroke-opacity="0.996" vector-effect="non-scaling-stroke" d="
  M 134.25 57.54
  Q 131.75 56.63 129.08 56.83
  Q 128.97 56.84 126.42 56.86
  Q 124.78 56.88 123.84 57.94
  Q 123.14 58.74 122.86 61.29
  Q 122.48 64.81 121.19 67.69
  Q 120.90 68.33 121.21 68.56
  A 0.72 0.43 -51.0 0 0 121.98 68.28
  Q 122.84 67.25 123.17 68.76
  A 1.09 0.78 -35.5 0 1 122.88 69.60
  Q 122.36 70.20 122.29 71.00"
/>
<path stroke="#d06262" stroke-opacity="0.992" vector-effect="non-scaling-stroke" d="
  M 121.21 86.50
  L 98.90 87.37"
/>
<path stroke="#ce5d5d" stroke-opacity="0.996" vector-effect="non-scaling-stroke" d="
  M 98.65 80.61
  Q 96.73 78.40 93.01 77.28
  A 0.52 0.51 -73.1 0 0 92.37 77.63
  Q 91.68 79.83 90.93 77.93
  Q 90.15 75.96 88.68 74.53
  A 1.39 1.29 -19.7 0 0 87.82 74.16
  Q 82.09 73.89 76.35 73.99
  Q 76.26 73.99 75.16 74.09
  Q 72.60 74.32 73.00 71.25
  Q 73.57 66.94 72.73 58.73"
/>
<path stroke="#c65451" stroke-opacity="0.992" vector-effect="non-scaling-stroke" d="
  M 77.46 58.75
  Q 79.67 59.49 78.67 58.09
  A 2.95 2.84 -66.3 0 1 78.14 56.65
  Q 77.68 51.34 75.04 53.42"
/>
<path stroke="#ce5d5d" stroke-opacity="0.996" vector-effect="non-scaling-stroke" d="
  M 75.26 50.49
  Q 77.28 48.87 76.19 47.68
  Q 75.55 46.99 74.09 46.96
  Q 71.51 46.92 68.96 47.25"
/>
<path stroke="#ce5d5d" stroke-opacity="0.996" vector-effect="non-scaling-stroke" d="
  M 68.76 32.75
  Q 76.18 33.35 83.50 32.79
  A 1.46 1.46 -68.5 0 0 84.37 32.41
  Q 88.46 28.61 93.14 25.58
  Q 93.50 25.35 94.04 25.20
  Q 95.52 24.77 94.51 24.16
  A 0.81 0.53 26.1 0 1 94.08 23.44
  L 94.50 21.79"
/>
<path stroke="#96999a" vector-effect="non-scaling-stroke" d="
  M 52.50 11.27
  A 0.27 0.27 0.0 0 0 52.23 11.00
  L 7.77 11.00
  A 0.27 0.27 0.0 0 0 7.50 11.27
  L 7.50 22.23
  A 0.27 0.27 0.0 0 0 7.77 22.50
  L 52.23 22.50
  A 0.27 0.27 0.0 0 0 52.50 22.23
  L 52.50 11.27"
/>
<path stroke="#96999a" vector-effect="non-scaling-stroke" d="
  M 47.54 16.31
  Q 49.97 13.61 47.31 15.39
  Q 47.08 15.55 46.90 15.80
  Q 44.91 18.62 42.77 15.31
  A 1.42 1.21 -36.9 0 0 40.79 15.19
  L 38.67 16.98
  A 0.67 0.52 44.4 0 1 37.90 16.89
  L 35.41 14.79
  A 0.64 0.59 -44.8 0 0 34.62 14.82
  L 32.13 16.93
  A 0.64 0.58 -44.0 0 1 31.34 16.96
  L 28.85 14.86
  A 0.70 0.53 44.7 0 0 28.06 14.76
  L 25.35 16.89
  A 0.68 0.52 -43.0 0 1 24.59 16.96
  L 22.10 14.85
  A 0.65 0.52 43.4 0 0 21.32 14.78
  L 19.06 16.86
  A 0.84 0.58 -49.9 0 1 18.29 17.07
  Q 16.99 16.50 16.08 15.15
  A 1.11 1.10 50.5 0 0 14.39 14.98
  Q 12.94 16.44 11.72 17.45
  Q 11.08 17.99 11.26 18.57
  A 0.40 0.33 -31.6 0 0 11.87 18.65
  L 14.61 16.31
  A 0.63 0.58 -44.1 0 1 15.41 16.29
  L 17.16 17.83
  Q 18.75 19.23 19.74 17.74
  Q 21.73 14.72 23.67 17.95
  Q 24.87 19.95 26.11 17.98
  Q 28.41 14.36 30.69 18.06
  Q 31.92 20.06 33.31 17.56
  Q 34.73 15.02 37.12 17.85
  A 1.46 1.46 41.1 0 0 39.46 17.69
  Q 41.63 14.26 44.05 18.02
  A 0.99 0.83 70.1 0 0 44.82 18.47
  Q 46.42 18.47 47.18 16.87
  Q 47.34 16.54 47.54 16.31"
/>
<path stroke="#de8d8d" vector-effect="non-scaling-stroke" d="
  M 118.96 25.25
  L 119.00 18.02
  A 0.52 0.52 89.2 0 0 118.48 17.50
  L 105.00 17.54"
/>
<path stroke="#d77677" vector-effect="non-scaling-stroke" d="
  M 105.00 17.54
  L 101.55 17.51
  A 0.54 0.50 90.0 0 0 101.05 18.05
  L 101.00 28.36
  A 0.65 0.64 0.0 0 0 101.65 29.00
  L 118.36 29.00
  A 0.63 0.60 -0.4 0 0 118.99 28.39
  L 118.96 25.25"
/>
<path stroke="#f8e9e9" vector-effect="non-scaling-stroke" d="
  M 105.00 17.54
  L 105.19 24.51
  A 0.58 0.49 0.1 0 0 105.76 24.99
  L 118.96 25.25"
/>
<path stroke="#c65451" stroke-opacity="0.992" vector-effect="non-scaling-stroke" d="
  M 96.75 28.04
  Q 95.71 27.79 95.53 26.74
  A 0.42 0.38 76.5 0 0 95.03 26.40
  Q 90.35 27.97 87.31 31.85
  A 0.48 0.46 -55.0 0 0 87.42 32.54
  Q 89.13 33.60 91.04 32.75"
/>
<path stroke="#d06262" stroke-opacity="0.992" vector-effect="non-scaling-stroke" d="
  M 91.21 46.50
  Q 87.62 46.90 81.00 47.00
  Q 78.27 47.04 79.44 48.62
  Q 79.67 48.94 79.75 49.50
  Q 79.85 50.28 80.75 50.21"
/>
<path stroke="#c65451" stroke-opacity="0.992" vector-effect="non-scaling-stroke" d="
  M 80.46 53.25
  Q 78.46 53.01 79.07 56.24
  Q 79.28 57.37 80.21 56.75"
/>
<path stroke="#c65451" stroke-opacity="0.992" vector-effect="non-scaling-stroke" d="
  M 94.54 72.00
  L 94.50 73.19
  A 1.35 0.52 41.7 0 0 94.93 74.02
  Q 95.51 74.71 94.68 75.26
  A 0.51 0.46 -34.5 0 0 94.52 75.93
  Q 95.60 77.53 97.46 78.09
  Q 97.78 78.19 98.12 78.40
  Q 99.18 79.07 98.71 77.50"
/>
<path stroke="#ce5d5d" stroke-opacity="0.996" vector-effect="non-scaling-stroke" d="
  M 98.71 72.73
  L 116.27 73.00
  Q 118.41 73.03 117.89 70.88
  Q 117.51 69.31 117.85 67.61
  Q 117.95 67.10 118.26 66.91
  Q 118.84 66.55 119.13 67.70
  Q 119.28 68.31 119.58 67.76
  Q 122.37 62.68 121.79 57.75"
/>
<path stroke="#d06262" stroke-opacity="0.992" vector-effect="non-scaling-stroke" d="
  M 121.79 57.75
  Q 118.76 56.66 114.90 57.06
  Q 113.00 57.26 113.00 55.35
  L 113.00 43.51
  A 0.52 0.51 0.0 0 1 113.52 43.00
  L 119.94 42.94
  Q 122.44 42.91 120.69 41.56
  Q 119.27 40.47 119.09 38.82
  A 0.35 0.32 6.1 0 1 119.54 38.48
  Q 122.02 39.30 120.53 37.01
  Q 119.70 35.75 119.29 34.30
  Q 118.47 31.41 116.75 31.29"
/>
<path stroke="#d06262" stroke-opacity="0.992" vector-effect="non-scaling-stroke" d="
  M 98.25 27.46
  Q 99.11 24.25 97.29 27.75"
/>
<path stroke="#de8d8d" vector-effect="non-scaling-stroke" d="
  M 88.96 41.88
  L 88.86 34.69
  A 0.55 0.51 -0.5 0 0 88.31 34.19
  L 75.00 34.29"
/>
<path stroke="#d77677" vector-effect="non-scaling-stroke" d="
  M 75.00 34.29
  L 71.42 34.34
  A 0.60 0.49 89.5 0 0 70.94 34.94
  L 71.00 44.96
  A 0.78 0.76 89.3 0 0 71.77 45.73
  L 88.57 45.58
  A 0.51 0.47 88.8 0 0 89.04 45.05
  L 88.96 41.88"
/>
<path stroke="#f8e9e9" vector-effect="non-scaling-stroke" d="
  M 75.00 34.29
  L 75.24 41.20
  A 0.59 0.51 -0.4 0 0 75.82 41.69
  L 88.96 41.88"
/>
<path stroke="#de8d8d" vector-effect="non-scaling-stroke" d="
  M 132.46 52.00
  L 132.36 44.94
  A 0.56 0.54 0.0 0 0 131.81 44.41
  L 118.00 44.29"
/>
<path stroke="#d77677" vector-effect="non-scaling-stroke" d="
  M 118.00 44.29
  L 114.81 44.29
  A 0.58 0.56 90.0 0 0 114.25 44.87
  L 114.25 55.19
  A 0.56 0.56 0.0 0 0 114.81 55.75
  L 131.97 55.75
  A 0.52 0.51 0.0 0 0 132.49 55.24
  L 132.46 52.00"
/>
<path stroke="#f8e9e9" vector-effect="non-scaling-stroke" d="
  M 118.00 44.29
  L 118.16 50.23
  A 1.59 1.47 89.6 0 0 119.61 51.78
  L 132.46 52.00"
/>
<path stroke="#de8d8d" vector-effect="non-scaling-stroke" d="
  M 92.46 68.50
  L 92.36 61.69
  A 0.55 0.54 0.0 0 0 91.82 61.16
  L 77.75 61.04"
/>
<path stroke="#d77677" vector-effect="non-scaling-stroke" d="
  M 77.75 61.04
  L 75.63 60.71
  A 1.18 0.98 5.2 0 0 74.27 61.65
  L 74.41 72.07
  A 0.53 0.49 0.0 0 0 74.94 72.56
  L 91.96 72.50
  A 0.52 0.50 -0.5 0 0 92.48 71.99
  L 92.46 68.50"
/>
<path stroke="#f8e9e9" vector-effect="non-scaling-stroke" d="
  M 77.75 61.04
  Q 78.52 63.33 78.11 67.00
  A 1.12 1.11 3.7 0 0 79.21 68.24
  L 92.46 68.50"
/>
<path stroke="#de8d8d" vector-effect="non-scaling-stroke" d="
  M 118.96 82.00
  L 119.00 74.77
  A 0.52 0.52 0.0 0 0 118.48 74.25
  L 104.50 74.29"
/>
<path stroke="#d77677" vector-effect="non-scaling-stroke" d="
  M 104.50 74.29
  Q 102.83 73.91 101.28 74.39
  A 0.71 0.64 81.1 0 0 100.84 75.06
  L 100.99 85.24
  A 0.52 0.50 89.4 0 0 101.49 85.75
  L 118.59 85.75
  A 0.50 0.49 88.9 0 0 119.08 85.23
  L 118.96 82.00"
/>
<path stroke="#f8e9e9" vector-effect="non-scaling-stroke" d="
  M 104.50 74.29
  Q 105.28 76.70 104.90 80.19
  A 1.49 1.43 3.7 0 0 106.36 81.78
  L 118.96 82.00"
/>
<path stroke="#96999a" vector-effect="non-scaling-stroke" d="
  M 26.01 30.16
  A 1.36 1.20 -37.5 0 1 24.01 30.02
  Q 21.67 25.95 19.40 30.00
  A 1.35 1.20 37.7 0 1 17.37 30.14
  L 15.25 28.06
  A 0.64 0.50 -45.4 0 0 14.44 28.16
  L 11.39 31.32
  A 0.44 0.38 -54.9 0 0 11.46 31.99
  Q 12.06 32.26 12.67 31.42
  Q 13.60 30.14 14.97 29.50
  A 0.59 0.56 62.3 0 1 15.69 29.75
  Q 18.39 34.18 21.06 29.75
  A 0.54 0.51 -61.1 0 1 21.75 29.53
  Q 23.47 30.41 24.10 31.24
  A 1.42 1.41 -46.7 0 0 26.41 31.17
  Q 28.45 28.10 30.24 31.06
  A 1.55 1.51 53.7 0 0 32.57 31.45
  L 34.63 29.59
  A 0.63 0.51 -43.2 0 1 35.41 29.53
  L 37.47 31.46
  A 1.28 1.08 39.7 0 0 39.26 31.45
  Q 40.24 30.03 41.54 29.43
  A 0.82 0.55 49.9 0 1 42.30 29.65
  L 44.57 31.73
  A 0.73 0.61 -39.8 0 0 45.41 31.73
  Q 47.29 30.47 48.47 28.51
  Q 49.11 27.44 48.30 28.07
  Q 47.19 28.94 45.54 30.58
  A 0.82 0.81 -38.5 0 1 44.27 30.44
  Q 41.69 26.32 39.32 29.89
  A 1.39 0.87 -70.6 0 1 38.59 30.47
  Q 37.39 30.71 36.69 29.31
  Q 35.30 26.55 33.94 28.69
  Q 31.46 32.57 29.20 28.40
  A 0.72 0.67 54.4 0 0 28.12 28.18
  L 26.01 30.16"
/>
<path stroke="#d6a3a2" vector-effect="non-scaling-stroke" d="
  M 19.15 34.83
  Q 19.09 34.36 18.25 34.39
  Q 16.52 34.44 14.80 34.54
  A 0.53 0.45 -5.1 0 0 14.29 35.06
  Q 14.38 35.70 15.19 35.62
  Q 16.10 35.53 16.32 35.53
  Q 17.46 35.58 18.57 35.40
  A 0.67 0.49 -8.3 0 0 19.15 34.83"
/>
<path stroke="#d6a3a2" vector-effect="non-scaling-stroke" d="
  M 22.34 35.17
  Q 22.34 35.88 23.53 35.74
  Q 24.98 35.58 26.44 35.47
  A 0.71 0.47 -3.3 0 0 27.10 34.97
  Q 27.09 34.47 26.00 34.50
  Q 23.83 34.56 22.94 34.63
  A 0.65 0.53 -2.9 0 0 22.34 35.17"
/>
<path stroke="#d6a3a2" vector-effect="non-scaling-stroke" d="
  M 34.38 34.65
  Q 33.60 34.40 31.80 34.20
  A 1.56 1.55 -69.2 0 0 30.36 34.85
  Q 29.65 35.85 31.51 35.74
  Q 32.64 35.67 33.76 35.50
  Q 35.95 35.16 34.38 34.65"
/>
<path stroke="#d6a3a2" vector-effect="non-scaling-stroke" d="
  M 42.64 34.82
  Q 40.60 33.75 38.67 34.96
  Q 38.20 35.25 38.73 35.39
  Q 40.70 35.87 42.60 35.23
  Q 43.11 35.06 42.64 34.82"
/>
<path stroke="#d6a3a2" vector-effect="non-scaling-stroke" d="
  M 46.27 35.05
  Q 46.33 35.67 47.05 35.60
  Q 47.87 35.51 47.96 35.51
  Q 49.20 35.53 50.44 35.47
  A 0.82 0.61 2.6 0 0 51.15 34.99
  Q 51.29 34.38 50.25 34.41
  Q 48.53 34.45 46.80 34.54
  A 0.55 0.47 -3.7 0 0 46.27 35.05"
/>
<path stroke="#d78c8c" vector-effect="non-scaling-stroke" d="
  M 37.95 41.71
  A 1.10 0.92 -54.0 0 0 39.43 41.34
  Q 41.70 37.82 43.56 40.94
  Q 44.79 43.00 46.56 40.81
  Q 51.00 35.33 45.80 40.34
  A 0.77 0.75 -55.0 0 1 44.97 40.50
  Q 43.30 39.78 42.07 38.39
  A 0.55 0.49 49.3 0 0 41.34 38.29
  L 38.85 40.39
  A 0.69 0.46 -42.2 0 1 38.07 40.51
  L 35.87 38.38
  A 1.18 1.00 44.3 0 0 34.35 38.27
  Q 33.50 39.12 32.89 39.88
  Q 31.56 41.55 29.80 38.91
  A 1.50 1.50 51.8 0 0 27.55 38.64
  L 25.61 40.42
  A 0.81 0.78 -54.6 0 1 24.77 40.58
  Q 23.38 40.00 22.69 38.56
  Q 21.81 36.75 20.31 39.06
  Q 18.35 42.10 16.11 38.54
  A 1.15 1.11 51.5 0 0 14.36 38.31
  L 11.38 41.32
  A 0.41 0.39 -55.6 0 0 11.49 41.97
  Q 12.29 42.32 12.94 41.19
  Q 14.98 37.62 17.02 41.01
  Q 18.30 43.13 20.12 40.15
  A 1.49 1.49 36.9 0 1 22.39 39.83
  L 24.06 41.36
  Q 25.52 42.71 26.55 41.00
  Q 28.26 38.16 29.77 40.46
  Q 31.85 43.64 33.87 39.96
  A 1.30 1.12 35.9 0 1 35.75 39.80
  L 37.95 41.71"
/>
<path stroke="#d6a3a2" vector-effect="non-scaling-stroke" d="
  M 10.46 44.64
  Q 8.88 44.93 10.38 45.50
  Q 12.02 46.12 14.22 45.26
  Q 14.76 45.05 14.24 44.81
  Q 12.88 44.20 10.46 44.64"
/>
<path stroke="#d6a3a2" vector-effect="non-scaling-stroke" d="
  M 17.59 45.17
  Q 17.59 45.88 18.78 45.74
  Q 20.23 45.58 21.69 45.47
  A 0.71 0.47 -3.3 0 0 22.35 44.97
  Q 22.34 44.47 21.25 44.50
  Q 19.08 44.56 18.19 44.63
  A 0.65 0.53 -2.9 0 0 17.59 45.17"
/>
<path stroke="#d6a3a2" vector-effect="non-scaling-stroke" d="
  M 25.94 44.71
  Q 25.33 44.85 25.55 45.18
  A 0.91 0.52 -6.3 0 0 26.19 45.46
  Q 27.72 45.56 29.24 45.66
  Q 30.30 45.73 30.38 45.17
  A 0.66 0.49 9.4 0 0 29.82 44.59
  Q 27.88 44.27 25.94 44.71"
/>
<path stroke="#d6a3a2" vector-effect="non-scaling-stroke" d="
  M 33.53 44.88
  Q 33.07 45.39 36.89 45.75
  A 1.87 1.86 -66.4 0 0 38.46 45.13
  Q 38.93 44.61 35.13 44.25
  A 1.90 1.90 23.5 0 0 33.53 44.88"
/>
<path stroke="#d6a3a2" vector-effect="non-scaling-stroke" d="
  M 46.56 45.02
  A 1.13 1.12 -17.1 0 0 45.70 44.57
  Q 41.29 44.46 42.00 45.50
  Q 42.68 46.50 46.00 45.50
  Q 46.74 45.28 46.56 45.02"
/>
<path stroke="#898a89" vector-effect="non-scaling-stroke" d="
  M 14.99 49.56
  L 17.96 51.83
  A 0.67 0.50 42.2 0 0 18.72 51.90
  L 20.96 49.90
  A 1.36 1.21 -36.9 0 1 22.94 50.06
  Q 23.85 51.60 24.95 51.87
  A 1.01 0.69 -54.7 0 0 25.78 51.56
  L 27.94 49.40
  A 0.54 0.52 43.8 0 1 28.67 49.40
  L 30.68 51.25
  A 1.58 1.57 -49.9 0 0 32.99 51.05
  Q 35.23 48.15 36.69 50.56
  Q 38.37 53.34 40.06 50.56
  Q 41.82 47.69 43.37 50.95
  Q 44.25 52.80 45.85 51.52
  Q 47.15 50.48 48.57 48.59
  Q 48.70 48.42 48.74 48.24
  Q 48.89 47.50 48.27 48.03
  Q 47.19 48.94 45.54 50.58
  A 0.82 0.81 -38.5 0 1 44.27 50.44
  Q 41.55 46.10 39.24 50.01
  A 1.23 1.23 -45.5 0 1 37.13 50.03
  Q 35.12 46.76 33.29 49.46
  Q 32.01 51.35 30.37 49.72
  L 28.80 48.16
  A 0.55 0.51 45.4 0 0 28.06 48.13
  L 25.84 50.31
  A 1.26 1.22 -35.9 0 1 23.86 50.03
  Q 21.96 46.27 19.72 49.70
  A 1.62 1.55 38.7 0 1 17.29 49.91
  L 15.38 48.07
  A 0.58 0.54 -43.7 0 0 14.62 48.08
  Q 13.10 49.45 11.69 50.94
  Q 11.25 51.40 11.29 51.81
  Q 11.37 52.51 11.93 51.98
  L 14.27 49.73
  A 0.67 0.43 -46.3 0 1 14.99 49.56"
/>
<path stroke="#818181" vector-effect="non-scaling-stroke" d="
  M 30.20 62.86
  Q 29.58 62.10 28.74 61.40
  A 0.62 0.61 -47.2 0 0 27.92 61.44
  L 25.38 63.91
  A 0.55 0.53 43.8 0 1 24.63 63.91
  L 22.11 61.58
  A 0.64 0.52 44.0 0 0 21.32 61.51
  L 18.84 63.87
  A 0.78 0.68 -44.1 0 1 17.81 63.93
  L 15.46 61.58
  A 0.81 0.81 -49.5 0 0 14.23 61.68
  Q 13.10 63.22 11.65 64.65
  Q 10.88 65.42 11.69 65.43
  A 1.76 1.74 16.1 0 0 13.22 64.60
  Q 15.00 61.72 16.61 64.32
  Q 17.67 66.04 19.15 64.67
  L 21.13 62.84
  A 0.66 0.53 -44.7 0 1 21.94 62.75
  L 24.00 64.68
  A 1.38 1.21 38.3 0 0 26.00 64.58
  Q 28.45 60.74 30.58 64.50
  A 1.51 0.88 74.4 0 0 31.26 65.16
  Q 32.51 65.63 33.36 64.09
  Q 34.94 61.25 36.81 64.35
  A 1.52 1.52 -36.9 0 0 39.14 64.68
  L 41.13 62.84
  A 0.66 0.50 -43.7 0 1 41.93 62.75
  L 44.25 65.00
  A 0.98 0.85 44.3 0 0 45.54 65.08
  Q 47.20 63.42 48.40 62.22
  Q 48.57 62.05 48.65 61.87
  Q 49.05 60.92 48.07 61.62
  Q 46.94 62.44 45.56 63.81
  A 1.00 0.87 44.5 0 1 44.24 63.73
  L 41.92 61.50
  A 0.65 0.49 -43.3 0 0 41.13 61.59
  L 38.61 63.92
  A 0.53 0.52 45.8 0 1 37.89 63.90
  L 35.76 61.87
  A 1.36 1.36 37.1 0 0 33.64 62.16
  Q 32.76 63.67 31.82 63.86
  Q 31.14 63.99 30.20 62.86"
/>
<path stroke="#818181" vector-effect="non-scaling-stroke" d="
  M 37.78 70.52
  L 35.23 68.08
  A 0.60 0.51 -45.3 0 0 34.45 68.15
  L 32.64 70.01
  Q 31.17 71.52 30.13 69.80
  Q 28.33 66.81 26.52 70.03
  A 1.41 1.41 -53.5 0 1 24.32 70.36
  L 22.15 68.31
  A 0.93 0.92 -51.7 0 0 20.73 68.48
  Q 18.30 72.28 16.12 68.62
  A 1.20 1.20 52.2 0 0 14.24 68.38
  L 11.91 70.71
  A 1.22 0.96 -28.8 0 0 11.55 71.56
  Q 11.64 72.80 13.06 70.81
  Q 15.09 67.97 16.81 70.69
  Q 18.54 73.41 20.47 69.94
  Q 21.52 68.04 22.53 69.97
  Q 24.76 74.25 27.34 70.17
  A 1.34 1.33 44.6 0 1 29.59 70.16
  Q 31.72 73.45 33.56 70.31
  Q 35.24 67.45 36.31 70.19
  Q 36.59 70.91 37.31 71.19
  A 2.19 0.84 24.5 0 0 39.31 71.31
  L 41.22 69.41
  A 0.81 0.80 -38.1 0 1 42.48 69.56
  Q 43.55 71.30 44.70 71.93
  A 1.24 1.23 33.8 0 0 46.23 71.63
  Q 48.27 69.14 48.45 68.26
  Q 48.60 67.57 47.96 68.18
  L 45.37 70.67
  A 0.54 0.53 45.0 0 1 44.62 70.66
  L 42.08 68.21
  A 0.83 0.73 -44.7 0 0 40.99 68.27
  L 38.50 70.68
  A 0.64 0.40 44.6 0 1 37.78 70.52"
/>
<path stroke="#818181" vector-effect="non-scaling-stroke" d="
  M 23.03 77.17
  Q 25.15 80.23 26.94 76.94
  Q 28.25 74.51 29.94 77.31
  Q 31.48 79.88 32.97 77.51
  Q 35.00 74.31 37.03 77.72
  A 1.49 1.49 -37.9 0 0 39.37 78.01
  L 41.38 75.99
  A 0.53 0.53 -0.0 0 1 42.12 75.99
  L 44.57 78.44
  A 0.60 0.60 0.0 0 0 45.43 78.44
  Q 46.75 77.13 47.75 75.79
  Q 49.59 73.33 47.24 75.41
  Q 47.07 75.55 46.93 75.78
  Q 44.92 78.95 42.97 75.52
  Q 41.74 73.36 40.61 75.58
  Q 38.62 79.51 35.94 75.31
  Q 34.73 73.43 33.31 76.06
  Q 32.43 77.70 31.32 77.24
  Q 30.93 77.07 30.04 75.91
  Q 28.08 73.35 26.13 76.46
  Q 24.92 78.38 23.76 76.44
  Q 21.75 73.07 19.73 76.55
  A 1.44 1.44 37.6 0 1 17.47 76.84
  L 15.36 74.74
  A 0.51 0.51 0.0 0 0 14.64 74.74
  Q 13.18 76.19 12.01 77.37
  Q 11.80 77.57 11.68 77.81
  Q 10.76 79.55 12.45 78.14
  Q 12.67 77.96 12.85 77.66
  Q 14.89 74.39 17.31 78.14
  A 1.31 1.31 43.9 0 0 19.54 78.10
  Q 21.46 74.89 23.03 77.17"
/>
<path stroke="#898a89" vector-effect="non-scaling-stroke" d="
  M 22.82 81.99
  A 1.31 1.31 48.3 0 0 20.60 81.86
  Q 17.96 85.57 16.11 82.31
  Q 14.95 80.27 13.54 82.60
  A 4.23 4.20 -87.2 0 1 11.80 84.19
  Q 10.96 84.60 11.39 85.16
  A 0.54 0.45 -40.3 0 0 12.12 85.16
  L 14.64 82.83
  A 0.56 0.51 44.1 0 1 15.36 82.85
  L 17.93 85.13
  A 0.71 0.70 -39.7 0 0 18.75 85.20
  Q 20.05 84.41 20.82 83.05
  A 0.89 0.80 -52.3 0 1 22.18 82.80
  L 24.06 84.94
  A 1.25 1.08 40.9 0 0 25.94 84.94
  Q 26.51 83.98 28.25 82.96
  A 0.75 0.63 50.2 0 1 29.07 83.11
  L 31.32 85.24
  A 0.66 0.52 -44.0 0 0 32.12 85.16
  L 34.56 82.91
  A 0.60 0.51 -44.1 0 1 35.33 82.86
  L 37.63 84.99
  A 1.00 0.92 43.3 0 0 38.99 85.01
  L 41.08 82.80
  A 0.85 0.76 43.5 0 1 42.23 82.83
  L 44.66 85.14
  A 0.61 0.55 -43.3 0 0 45.44 85.12
  Q 47.15 83.62 48.63 81.89
  Q 48.77 81.73 48.77 81.56
  Q 48.76 81.26 48.48 81.24
  Q 48.29 81.22 48.07 81.39
  Q 47.03 82.27 45.62 83.81
  A 0.85 0.85 -40.7 0 1 44.29 83.71
  Q 41.48 79.49 38.95 83.50
  A 0.54 0.46 -55.6 0 1 38.25 83.69
  L 35.72 81.86
  A 1.62 1.38 33.2 0 0 33.49 82.15
  Q 31.94 84.91 30.58 82.96
  Q 28.63 80.17 26.87 82.20
  Q 25.61 83.66 25.15 83.74
  Q 23.91 83.98 22.82 81.99"
/>
</g>
<path fill="#7d9280" fill-opacity="0.988" d="
  M 6.50 8.76
  Q 5.44 24.52 6.29 40.25
  L 6.04 45.00
  L 6.04 88.25
  Q 6.40 89.21 5.35 91.01
  Q 5.30 50.81 5.34 10.75
  Q 5.34 8.92 6.50 8.76
  Z"
/>
<path fill="#2d3235" d="
  M 6.50 8.76
  L 50.25 8.79
  Q 52.25 8.49 53.36 9.50
  Q 54.20 10.26 54.16 12.14
  Q 53.90 23.94 53.96 35.75
  Q 53.10 35.79 52.54 36.50
  L 52.44 24.56
  A 0.51 0.49 0.0 0 0 51.93 24.07
  L 8.31 24.24
  A 0.77 0.71 -1.1 0 0 7.55 24.97
  L 7.75 34.54
  L 7.54 35.25
  L 7.46 39.25
  Q 7.03 40.15 6.29 40.25
  Q 5.44 24.52 6.50 8.76
  Z
  M 52.50 11.27
  A 0.27 0.27 0.0 0 0 52.23 11.00
  L 7.77 11.00
  A 0.27 0.27 0.0 0 0 7.50 11.27
  L 7.50 22.23
  A 0.27 0.27 0.0 0 0 7.77 22.50
  L 52.23 22.50
  A 0.27 0.27 0.0 0 0 52.50 22.23
  L 52.50 11.27
  Z"
/>
<path fill="#7d9280" fill-opacity="0.988" d="
  M 50.25 8.79
  L 53.28 8.77
  A 1.51 1.46 89.8 0 1 54.75 10.28
  Q 54.75 23.50 54.75 36.50
  Q 54.75 37.76 55.46 37.75
  Q 55.74 38.35 55.75 39.00
  Q 54.62 38.11 54.75 39.50
  Q 54.82 40.28 54.71 43.25
  L 54.04 43.25
  Q 53.64 42.17 53.71 41.00
  Q 54.85 38.45 53.96 35.75
  Q 53.90 23.94 54.16 12.14
  Q 54.20 10.26 53.36 9.50
  Q 52.25 8.49 50.25 8.79
  Z"
/>
<path fill="#ffffff" d="
  M 52.50 22.23
  A 0.27 0.27 0.0 0 1 52.23 22.50
  L 7.77 22.50
  A 0.27 0.27 0.0 0 1 7.50 22.23
  L 7.50 11.27
  A 0.27 0.27 0.0 0 1 7.77 11.00
  L 52.23 11.00
  A 0.27 0.27 0.0 0 1 52.50 11.27
  L 52.50 22.23
  Z
  M 47.54 16.31
  Q 49.97 13.61 47.31 15.39
  Q 47.08 15.55 46.90 15.80
  Q 44.91 18.62 42.77 15.31
  A 1.42 1.21 -36.9 0 0 40.79 15.19
  L 38.67 16.98
  A 0.67 0.52 44.4 0 1 37.90 16.89
  L 35.41 14.79
  A 0.64 0.59 -44.8 0 0 34.62 14.82
  L 32.13 16.93
  A 0.64 0.58 -44.0 0 1 31.34 16.96
  L 28.85 14.86
  A 0.70 0.53 44.7 0 0 28.06 14.76
  L 25.35 16.89
  A 0.68 0.52 -43.0 0 1 24.59 16.96
  L 22.10 14.85
  A 0.65 0.52 43.4 0 0 21.32 14.78
  L 19.06 16.86
  A 0.84 0.58 -49.9 0 1 18.29 17.07
  Q 16.99 16.50 16.08 15.15
  A 1.11 1.10 50.5 0 0 14.39 14.98
  Q 12.94 16.44 11.72 17.45
  Q 11.08 17.99 11.26 18.57
  A 0.40 0.33 -31.6 0 0 11.87 18.65
  L 14.61 16.31
  A 0.63 0.58 -44.1 0 1 15.41 16.29
  L 17.16 17.83
  Q 18.75 19.23 19.74 17.74
  Q 21.73 14.72 23.67 17.95
  Q 24.87 19.95 26.11 17.98
  Q 28.41 14.36 30.69 18.06
  Q 31.92 20.06 33.31 17.56
  Q 34.73 15.02 37.12 17.85
  A 1.46 1.46 41.1 0 0 39.46 17.69
  Q 41.63 14.26 44.05 18.02
  A 0.99 0.83 70.1 0 0 44.82 18.47
  Q 46.42 18.47 47.18 16.87
  Q 47.34 16.54 47.54 16.31
  Z"
/>
<path fill="#2d3235" d="
  M 47.18 16.87
  Q 46.42 18.47 44.82 18.47
  A 0.99 0.83 70.1 0 1 44.05 18.02
  Q 41.63 14.26 39.46 17.69
  A 1.46 1.46 41.1 0 1 37.12 17.85
  Q 34.73 15.02 33.31 17.56
  Q 31.92 20.06 30.69 18.06
  Q 28.41 14.36 26.11 17.98
  Q 24.87 19.95 23.67 17.95
  Q 21.73 14.72 19.74 17.74
  Q 18.75 19.23 17.16 17.83
  L 15.41 16.29
  A 0.63 0.58 -44.1 0 0 14.61 16.31
  L 11.87 18.65
  A 0.40 0.33 -31.6 0 1 11.26 18.57
  Q 11.08 17.99 11.72 17.45
  Q 12.94 16.44 14.39 14.98
  A 1.11 1.10 50.5 0 1 16.08 15.15
  Q 16.99 16.50 18.29 17.07
  A 0.84 0.58 -49.9 0 0 19.06 16.86
  L 21.32 14.78
  A 0.65 0.52 43.4 0 1 22.10 14.85
  L 24.59 16.96
  A 0.68 0.52 -43.0 0 0 25.35 16.89
  L 28.06 14.76
  A 0.70 0.53 44.7 0 1 28.85 14.86
  L 31.34 16.96
  A 0.64 0.58 -44.0 0 0 32.13 16.93
  L 34.62 14.82
  A 0.64 0.59 -44.8 0 1 35.41 14.79
  L 37.90 16.89
  A 0.67 0.52 44.4 0 0 38.67 16.98
  L 40.79 15.19
  A 1.42 1.21 -36.9 0 1 42.77 15.31
  Q 44.91 18.62 46.90 15.80
  Q 47.08 15.55 47.31 15.39
  Q 49.97 13.61 47.54 16.31
  Q 47.34 16.54 47.18 16.87
  Z"
/>
<path fill="#cf8f89" fill-opacity="0.980" d="
  M 121.03 15.80
  Q 109.94 16.41 98.91 15.82
  Q 109.90 14.41 121.03 15.80
  Z"
/>
<path fill="#bd1a1b" d="
  M 98.91 15.82
  Q 109.94 16.41 121.03 15.80
  L 121.21 30.25
  Q 119.40 30.34 120.04 32.02
  Q 120.97 34.53 122.33 37.79
  Q 122.58 38.40 122.88 37.81
  Q 123.75 36.02 124.30 37.70
  A 1.77 1.25 -53.6 0 1 124.28 38.66
  Q 122.54 44.21 129.01 43.08
  Q 131.57 42.63 133.97 43.40
  A 0.70 0.67 -81.5 0 1 134.44 44.06
  L 134.54 55.75
  Q 134.66 56.71 134.25 57.54
  Q 131.75 56.63 129.08 56.83
  Q 128.97 56.84 126.42 56.86
  Q 124.78 56.88 123.84 57.94
  Q 123.14 58.74 122.86 61.29
  Q 122.48 64.81 121.19 67.69
  Q 120.90 68.33 121.21 68.56
  A 0.72 0.43 -51.0 0 0 121.98 68.28
  Q 122.84 67.25 123.17 68.76
  A 1.09 0.78 -35.5 0 1 122.88 69.60
  Q 122.36 70.20 122.29 71.00
  Q 121.25 71.89 121.25 72.50
  Q 121.28 79.50 121.21 86.50
  L 98.90 87.37
  L 98.65 80.61
  Q 96.73 78.40 93.01 77.28
  A 0.52 0.51 -73.1 0 0 92.37 77.63
  Q 91.68 79.83 90.93 77.93
  Q 90.15 75.96 88.68 74.53
  A 1.39 1.29 -19.7 0 0 87.82 74.16
  Q 82.09 73.89 76.35 73.99
  Q 76.26 73.99 75.16 74.09
  Q 72.60 74.32 73.00 71.25
  Q 73.57 66.94 72.73 58.73
  L 77.46 58.75
  Q 79.67 59.49 78.67 58.09
  A 2.95 2.84 -66.3 0 1 78.14 56.65
  Q 77.68 51.34 75.04 53.42
  Q 73.86 51.84 75.26 50.49
  Q 77.28 48.87 76.19 47.68
  Q 75.55 46.99 74.09 46.96
  Q 71.51 46.92 68.96 47.25
  L 68.76 32.75
  Q 76.18 33.35 83.50 32.79
  A 1.46 1.46 -68.5 0 0 84.37 32.41
  Q 88.46 28.61 93.14 25.58
  Q 93.50 25.35 94.04 25.20
  Q 95.52 24.77 94.51 24.16
  A 0.81 0.53 26.1 0 1 94.08 23.44
  L 94.50 21.79
  L 98.01 21.59
  A 0.63 0.57 -88.8 0 0 98.56 21.01
  L 98.91 15.82
  Z
  M 118.96 25.25
  L 119.00 18.02
  A 0.52 0.52 89.2 0 0 118.48 17.50
  L 105.00 17.54
  L 101.55 17.51
  A 0.54 0.50 90.0 0 0 101.05 18.05
  L 101.00 28.36
  A 0.65 0.64 0.0 0 0 101.65 29.00
  L 118.36 29.00
  A 0.63 0.60 -0.4 0 0 118.99 28.39
  L 118.96 25.25
  Z
  M 97.29 27.75
  Q 97.12 28.09 96.75 28.04
  Q 95.71 27.79 95.53 26.74
  A 0.42 0.38 76.5 0 0 95.03 26.40
  Q 90.35 27.97 87.31 31.85
  A 0.48 0.46 -55.0 0 0 87.42 32.54
  Q 89.13 33.60 91.04 32.75
  L 91.21 46.50
  Q 87.62 46.90 81.00 47.00
  Q 78.27 47.04 79.44 48.62
  Q 79.67 48.94 79.75 49.50
  Q 79.85 50.28 80.75 50.21
  Q 82.49 52.48 80.46 53.25
  Q 78.46 53.01 79.07 56.24
  Q 79.28 57.37 80.21 56.75
  Q 80.24 58.68 82.00 58.70
  Q 87.00 58.75 92.00 58.75
  Q 94.96 58.75 94.83 61.13
  Q 94.76 62.28 94.77 62.37
  Q 94.88 67.19 94.54 72.00
  L 94.50 73.19
  A 1.35 0.52 41.7 0 0 94.93 74.02
  Q 95.51 74.71 94.68 75.26
  A 0.51 0.46 -34.5 0 0 94.52 75.93
  Q 95.60 77.53 97.46 78.09
  Q 97.78 78.19 98.12 78.40
  Q 99.18 79.07 98.71 77.50
  L 98.71 72.73
  L 116.27 73.00
  Q 118.41 73.03 117.89 70.88
  Q 117.51 69.31 117.85 67.61
  Q 117.95 67.10 118.26 66.91
  Q 118.84 66.55 119.13 67.70
  Q 119.28 68.31 119.58 67.76
  Q 122.37 62.68 121.79 57.75
  Q 118.76 56.66 114.90 57.06
  Q 113.00 57.26 113.00 55.35
  L 113.00 43.51
  A 0.52 0.51 0.0 0 1 113.52 43.00
  L 119.94 42.94
  Q 122.44 42.91 120.69 41.56
  Q 119.27 40.47 119.09 38.82
  A 0.35 0.32 6.1 0 1 119.54 38.48
  Q 122.02 39.30 120.53 37.01
  Q 119.70 35.75 119.29 34.30
  Q 118.47 31.41 116.75 31.29
  L 100.75 31.25
  Q 98.01 31.24 98.75 28.75
  Q 99.07 27.68 98.25 27.46
  Q 99.11 24.25 97.29 27.75
  Z
  M 88.96 41.88
  L 88.86 34.69
  A 0.55 0.51 -0.5 0 0 88.31 34.19
  L 75.00 34.29
  L 71.42 34.34
  A 0.60 0.49 89.5 0 0 70.94 34.94
  L 71.00 44.96
  A 0.78 0.76 89.3 0 0 71.77 45.73
  L 88.57 45.58
  A 0.51 0.47 88.8 0 0 89.04 45.05
  L 88.96 41.88
  Z
  M 132.46 52.00
  L 132.36 44.94
  A 0.56 0.54 0.0 0 0 131.81 44.41
  L 118.00 44.29
  L 114.81 44.29
  A 0.58 0.56 90.0 0 0 114.25 44.87
  L 114.25 55.19
  A 0.56 0.56 0.0 0 0 114.81 55.75
  L 131.97 55.75
  A 0.52 0.51 0.0 0 0 132.49 55.24
  L 132.46 52.00
  Z
  M 92.46 68.50
  L 92.36 61.69
  A 0.55 0.54 0.0 0 0 91.82 61.16
  L 77.75 61.04
  L 75.63 60.71
  A 1.18 0.98 5.2 0 0 74.27 61.65
  L 74.41 72.07
  A 0.53 0.49 0.0 0 0 74.94 72.56
  L 91.96 72.50
  A 0.52 0.50 -0.5 0 0 92.48 71.99
  L 92.46 68.50
  Z
  M 118.96 82.00
  L 119.00 74.77
  A 0.52 0.52 0.0 0 0 118.48 74.25
  L 104.50 74.29
  Q 102.83 73.91 101.28 74.39
  A 0.71 0.64 81.1 0 0 100.84 75.06
  L 100.99 85.24
  A 0.52 0.50 89.4 0 0 101.49 85.75
  L 118.59 85.75
  A 0.50 0.49 88.9 0 0 119.08 85.23
  L 118.96 82.00
  Z"
/>
<path fill="#f1d2d2" d="
  M 105.00 17.54
  L 105.19 24.51
  A 0.58 0.49 0.1 0 0 105.76 24.99
  L 118.96 25.25
  L 118.99 28.39
  A 0.63 0.60 -0.4 0 1 118.36 29.00
  L 101.65 29.00
  A 0.65 0.64 -0.0 0 1 101.00 28.36
  L 101.05 18.05
  A 0.54 0.50 90.0 0 1 101.55 17.51
  L 105.00 17.54
  Z"
/>
<path fill="#ffffff" d="
  M 105.00 17.54
  L 118.48 17.50
  A 0.52 0.52 -87.6 0 1 119.00 18.02
  L 118.96 25.25
  L 105.76 24.99
  A 0.58 0.49 0.1 0 1 105.19 24.51
  L 105.00 17.54
  Z"
/>
<path fill="#dfa19f" fill-opacity="0.988" d="
  M 94.50 21.79
  L 94.08 23.44
  A 0.81 0.53 26.1 0 0 94.51 24.16
  Q 95.52 24.77 94.04 25.20
  Q 93.50 25.35 93.14 25.58
  Q 88.46 28.61 84.37 32.41
  A 1.46 1.46 -68.5 0 1 83.50 32.79
  Q 76.18 33.35 68.76 32.75
  Q 75.54 31.29 82.43 32.24
  A 2.61 2.60 -63.6 0 0 84.64 31.49
  Q 88.60 27.48 93.00 24.93
  A 0.56 0.52 63.8 0 0 93.21 24.24
  Q 92.39 22.35 94.50 21.79
  Z"
/>
<path fill="#ffffff" d="
  M 52.54 36.50
  L 52.54 41.00
  L 52.46 43.94
  A 0.58 0.56 -2.9 0 1 51.95 44.49
  Q 47.00 45.03 51.94 45.52
  A 0.57 0.55 2.9 0 1 52.45 46.07
  L 52.45 55.44
  A 0.51 0.49 0.6 0 1 51.93 55.93
  L 8.08 55.75
  A 0.59 0.58 -90.0 0 1 7.50 55.16
  L 7.46 44.50
  L 7.46 39.25
  L 7.54 35.25
  Q 9.05 35.69 10.57 35.42
  A 0.68 0.51 -8.8 0 0 11.15 34.83
  Q 11.09 34.36 10.25 34.41
  Q 9.00 34.47 7.75 34.54
  L 7.55 24.97
  A 0.77 0.71 -1.1 0 1 8.31 24.24
  L 51.93 24.07
  A 0.51 0.49 0.0 0 1 52.44 24.56
  L 52.54 36.50
  Z
  M 26.01 30.16
  A 1.36 1.20 -37.5 0 1 24.01 30.02
  Q 21.67 25.95 19.40 30.00
  A 1.35 1.20 37.7 0 1 17.37 30.14
  L 15.25 28.06
  A 0.64 0.50 -45.4 0 0 14.44 28.16
  L 11.39 31.32
  A 0.44 0.38 -54.9 0 0 11.46 31.99
  Q 12.06 32.26 12.67 31.42
  Q 13.60 30.14 14.97 29.50
  A 0.59 0.56 62.3 0 1 15.69 29.75
  Q 18.39 34.18 21.06 29.75
  A 0.54 0.51 -61.1 0 1 21.75 29.53
  Q 23.47 30.41 24.10 31.24
  A 1.42 1.41 -46.7 0 0 26.41 31.17
  Q 28.45 28.10 30.24 31.06
  A 1.55 1.51 53.7 0 0 32.57 31.45
  L 34.63 29.59
  A 0.63 0.51 -43.2 0 1 35.41 29.53
  L 37.47 31.46
  A 1.28 1.08 39.7 0 0 39.26 31.45
  Q 40.24 30.03 41.54 29.43
  A 0.82 0.55 49.9 0 1 42.30 29.65
  L 44.57 31.73
  A 0.73 0.61 -39.8 0 0 45.41 31.73
  Q 47.29 30.47 48.47 28.51
  Q 49.11 27.44 48.30 28.07
  Q 47.19 28.94 45.54 30.58
  A 0.82 0.81 -38.5 0 1 44.27 30.44
  Q 41.69 26.32 39.32 29.89
  A 1.39 0.87 -70.6 0 1 38.59 30.47
  Q 37.39 30.71 36.69 29.31
  Q 35.30 26.55 33.94 28.69
  Q 31.46 32.57 29.20 28.40
  A 0.72 0.67 54.4 0 0 28.12 28.18
  L 26.01 30.16
  Z
  M 19.15 34.83
  Q 19.09 34.36 18.25 34.39
  Q 16.52 34.44 14.80 34.54
  A 0.53 0.45 -5.1 0 0 14.29 35.06
  Q 14.38 35.70 15.19 35.62
  Q 16.10 35.53 16.32 35.53
  Q 17.46 35.58 18.57 35.40
  A 0.67 0.49 -8.3 0 0 19.15 34.83
  Z
  M 22.34 35.17
  Q 22.34 35.88 23.53 35.74
  Q 24.98 35.58 26.44 35.47
  A 0.71 0.47 -3.3 0 0 27.10 34.97
  Q 27.09 34.47 26.00 34.50
  Q 23.83 34.56 22.94 34.63
  A 0.65 0.53 -2.9 0 0 22.34 35.17
  Z
  M 34.38 34.65
  Q 33.60 34.40 31.80 34.20
  A 1.56 1.55 -69.2 0 0 30.36 34.85
  Q 29.65 35.85 31.51 35.74
  Q 32.64 35.67 33.76 35.50
  Q 35.95 35.16 34.38 34.65
  Z
  M 42.64 34.82
  Q 40.60 33.75 38.67 34.96
  Q 38.20 35.25 38.73 35.39
  Q 40.70 35.87 42.60 35.23
  Q 43.11 35.06 42.64 34.82
  Z
  M 46.27 35.05
  Q 46.33 35.67 47.05 35.60
  Q 47.87 35.51 47.96 35.51
  Q 49.20 35.53 50.44 35.47
  A 0.82 0.61 2.6 0 0 51.15 34.99
  Q 51.29 34.38 50.25 34.41
  Q 48.53 34.45 46.80 34.54
  A 0.55 0.47 -3.7 0 0 46.27 35.05
  Z
  M 37.95 41.71
  A 1.10 0.92 -54.0 0 0 39.43 41.34
  Q 41.70 37.82 43.56 40.94
  Q 44.79 43.00 46.56 40.81
  Q 51.00 35.33 45.80 40.34
  A 0.77 0.75 -55.0 0 1 44.97 40.50
  Q 43.30 39.78 42.07 38.39
  A 0.55 0.49 49.3 0 0 41.34 38.29
  L 38.85 40.39
  A 0.69 0.46 -42.2 0 1 38.07 40.51
  L 35.87 38.38
  A 1.18 1.00 44.3 0 0 34.35 38.27
  Q 33.50 39.12 32.89 39.88
  Q 31.56 41.55 29.80 38.91
  A 1.50 1.50 51.8 0 0 27.55 38.64
  L 25.61 40.42
  A 0.81 0.78 -54.6 0 1 24.77 40.58
  Q 23.38 40.00 22.69 38.56
  Q 21.81 36.75 20.31 39.06
  Q 18.35 42.10 16.11 38.54
  A 1.15 1.11 51.5 0 0 14.36 38.31
  L 11.38 41.32
  A 0.41 0.39 -55.6 0 0 11.49 41.97
  Q 12.29 42.32 12.94 41.19
  Q 14.98 37.62 17.02 41.01
  Q 18.30 43.13 20.12 40.15
  A 1.49 1.49 36.9 0 1 22.39 39.83
  L 24.06 41.36
  Q 25.52 42.71 26.55 41.00
  Q 28.26 38.16 29.77 40.46
  Q 31.85 43.64 33.87 39.96
  A 1.30 1.12 35.9 0 1 35.75 39.80
  L 37.95 41.71
  Z
  M 10.46 44.64
  Q 8.88 44.93 10.38 45.50
  Q 12.02 46.12 14.22 45.26
  Q 14.76 45.05 14.24 44.81
  Q 12.88 44.20 10.46 44.64
  Z
  M 17.59 45.17
  Q 17.59 45.88 18.78 45.74
  Q 20.23 45.58 21.69 45.47
  A 0.71 0.47 -3.3 0 0 22.35 44.97
  Q 22.34 44.47 21.25 44.50
  Q 19.08 44.56 18.19 44.63
  A 0.65 0.53 -2.9 0 0 17.59 45.17
  Z
  M 25.94 44.71
  Q 25.33 44.85 25.55 45.18
  A 0.91 0.52 -6.3 0 0 26.19 45.46
  Q 27.72 45.56 29.24 45.66
  Q 30.30 45.73 30.38 45.17
  A 0.66 0.49 9.4 0 0 29.82 44.59
  Q 27.88 44.27 25.94 44.71
  Z
  M 33.53 44.88
  Q 33.07 45.39 36.89 45.75
  A 1.87 1.86 -66.4 0 0 38.46 45.13
  Q 38.93 44.61 35.13 44.25
  A 1.90 1.90 23.5 0 0 33.53 44.88
  Z
  M 46.56 45.02
  A 1.13 1.12 -17.1 0 0 45.70 44.57
  Q 41.29 44.46 42.00 45.50
  Q 42.68 46.50 46.00 45.50
  Q 46.74 45.28 46.56 45.02
  Z
  M 14.99 49.56
  L 17.96 51.83
  A 0.67 0.50 42.2 0 0 18.72 51.90
  L 20.96 49.90
  A 1.36 1.21 -36.9 0 1 22.94 50.06
  Q 23.85 51.60 24.95 51.87
  A 1.01 0.69 -54.7 0 0 25.78 51.56
  L 27.94 49.40
  A 0.54 0.52 43.8 0 1 28.67 49.40
  L 30.68 51.25
  A 1.58 1.57 -49.9 0 0 32.99 51.05
  Q 35.23 48.15 36.69 50.56
  Q 38.37 53.34 40.06 50.56
  Q 41.82 47.69 43.37 50.95
  Q 44.25 52.80 45.85 51.52
  Q 47.15 50.48 48.57 48.59
  Q 48.70 48.42 48.74 48.24
  Q 48.89 47.50 48.27 48.03
  Q 47.19 48.94 45.54 50.58
  A 0.82 0.81 -38.5 0 1 44.27 50.44
  Q 41.55 46.10 39.24 50.01
  A 1.23 1.23 -45.5 0 1 37.13 50.03
  Q 35.12 46.76 33.29 49.46
  Q 32.01 51.35 30.37 49.72
  L 28.80 48.16
  A 0.55 0.51 45.4 0 0 28.06 48.13
  L 25.84 50.31
  A 1.26 1.22 -35.9 0 1 23.86 50.03
  Q 21.96 46.27 19.72 49.70
  A 1.62 1.55 38.7 0 1 17.29 49.91
  L 15.38 48.07
  A 0.58 0.54 -43.7 0 0 14.62 48.08
  Q 13.10 49.45 11.69 50.94
  Q 11.25 51.40 11.29 51.81
  Q 11.37 52.51 11.93 51.98
  L 14.27 49.73
  A 0.67 0.43 -46.3 0 1 14.99 49.56
  Z"
/>
<path fill="#e3acab" fill-opacity="0.984" d="
  M 98.25 27.46
  Q 97.83 27.84 97.29 27.75
  Q 99.11 24.25 98.25 27.46
  Z"
/>
<path fill="#cf8f89" fill-opacity="0.980" d="
  M 96.75 28.04
  Q 96.41 29.38 94.80 27.61
  A 0.86 0.86 50.4 0 0 93.64 27.50
  Q 91.31 29.28 88.92 30.83
  Q 88.48 31.12 88.40 31.46
  Q 88.22 32.20 89.49 31.97
  Q 90.65 31.76 91.04 32.75
  Q 89.13 33.60 87.42 32.54
  A 0.48 0.46 -55.0 0 1 87.31 31.85
  Q 90.35 27.97 95.03 26.40
  A 0.42 0.38 76.5 0 1 95.53 26.74
  Q 95.71 27.79 96.75 28.04
  Z"
/>
<path fill="#2d3235" d="
  M 26.01 30.16
  L 28.12 28.18
  A 0.72 0.67 54.4 0 1 29.20 28.40
  Q 31.46 32.57 33.94 28.69
  Q 35.30 26.55 36.69 29.31
  Q 37.39 30.71 38.59 30.47
  A 1.39 0.87 -70.6 0 0 39.32 29.89
  Q 41.69 26.32 44.27 30.44
  A 0.82 0.81 -38.5 0 0 45.54 30.58
  Q 47.19 28.94 48.30 28.07
  Q 49.11 27.44 48.47 28.51
  Q 47.29 30.47 45.41 31.73
  A 0.73 0.61 -39.8 0 1 44.57 31.73
  L 42.30 29.65
  A 0.82 0.55 49.9 0 0 41.54 29.43
  Q 40.24 30.03 39.26 31.45
  A 1.28 1.08 39.7 0 1 37.47 31.46
  L 35.41 29.53
  A 0.63 0.51 -43.2 0 0 34.63 29.59
  L 32.57 31.45
  A 1.55 1.51 53.7 0 1 30.24 31.06
  Q 28.45 28.10 26.41 31.17
  A 1.42 1.41 -46.7 0 1 24.10 31.24
  Q 23.47 30.41 21.75 29.53
  A 0.54 0.51 -61.1 0 0 21.06 29.75
  Q 18.39 34.18 15.69 29.75
  A 0.59 0.56 62.3 0 0 14.97 29.50
  Q 13.60 30.14 12.67 31.42
  Q 12.06 32.26 11.46 31.99
  A 0.44 0.38 -54.9 0 1 11.39 31.32
  L 14.44 28.16
  A 0.64 0.50 -45.4 0 1 15.25 28.06
  L 17.37 30.14
  A 1.35 1.20 37.7 0 0 19.40 30.00
  Q 21.67 25.95 24.01 30.02
  A 1.36 1.20 -37.5 0 0 26.01 30.16
  Z"
/>
<path fill="#cf8f89" fill-opacity="0.980" d="
  M 121.21 30.25
  Q 120.25 31.85 121.17 33.52
  Q 121.91 34.86 122.52 36.28
  Q 122.80 36.93 123.32 36.75
  A 1.30 0.41 -24.3 0 1 124.23 36.64
  Q 125.79 37.26 125.00 39.50
  Q 123.73 43.10 127.50 42.00
  Q 129.84 41.32 133.95 42.43
  A 0.73 0.71 4.8 0 1 134.49 43.05
  Q 135.12 49.39 134.54 55.75
  L 134.44 44.06
  A 0.70 0.67 -81.5 0 0 133.97 43.40
  Q 131.57 42.63 129.01 43.08
  Q 122.54 44.21 124.28 38.66
  A 1.77 1.25 -53.6 0 0 124.30 37.70
  Q 123.75 36.02 122.88 37.81
  Q 122.58 38.40 122.33 37.79
  Q 120.97 34.53 120.04 32.02
  Q 119.40 30.34 121.21 30.25
  Z"
/>
<path fill="#e3acab" fill-opacity="0.984" d="
  M 116.75 31.29
  Q 118.47 31.41 119.29 34.30
  Q 119.70 35.75 120.53 37.01
  Q 122.02 39.30 119.54 38.48
  A 0.35 0.32 6.1 0 0 119.09 38.82
  Q 119.27 40.47 120.69 41.56
  Q 122.44 42.91 119.94 42.94
  L 113.52 43.00
  A 0.52 0.51 0.0 0 0 113.00 43.51
  L 113.00 55.35
  Q 113.00 57.26 114.90 57.06
  Q 118.76 56.66 121.79 57.75
  Q 121.82 58.17 121.50 58.29
  Q 117.10 57.59 115.00 58.00
  Q 111.72 58.63 111.90 55.75
  Q 112.00 54.28 112.00 54.24
  Q 112.00 49.21 112.00 43.72
  A 1.69 1.68 1.6 0 1 113.78 42.04
  Q 115.97 42.17 118.94 42.11
  Q 119.74 42.10 119.77 41.55
  A 1.04 0.61 25.4 0 0 119.26 40.80
  Q 116.75 39.18 119.26 37.68
  A 0.78 0.73 -20.7 0 0 119.63 36.93
  Q 119.14 33.63 116.75 31.29
  Z"
/>
<path fill="#f1d2d2" d="
  M 75.00 34.29
  L 75.24 41.20
  A 0.59 0.51 -0.4 0 0 75.82 41.69
  L 88.96 41.88
  L 89.04 45.05
  A 0.51 0.47 88.8 0 1 88.57 45.58
  L 71.77 45.73
  A 0.78 0.76 89.3 0 1 71.00 44.96
  L 70.94 34.94
  A 0.60 0.49 89.5 0 1 71.42 34.34
  L 75.00 34.29
  Z"
/>
<path fill="#ffffff" d="
  M 88.96 41.88
  L 75.82 41.69
  A 0.59 0.51 -0.4 0 1 75.24 41.20
  L 75.00 34.29
  L 88.31 34.19
  A 0.55 0.51 -0.5 0 1 88.86 34.69
  L 88.96 41.88
  Z"
/>
<path fill="#ad4744" d="
  M 7.75 34.54
  Q 9.00 34.47 10.25 34.41
  Q 11.09 34.36 11.15 34.83
  A 0.68 0.51 -8.8 0 1 10.57 35.42
  Q 9.05 35.69 7.54 35.25
  L 7.75 34.54
  Z"
/>
<path fill="#ad4744" d="
  M 18.57 35.40
  Q 17.46 35.58 16.32 35.53
  Q 16.10 35.53 15.19 35.62
  Q 14.38 35.70 14.29 35.06
  A 0.53 0.45 -5.1 0 1 14.80 34.54
  Q 16.52 34.44 18.25 34.39
  Q 19.09 34.36 19.15 34.83
  A 0.67 0.49 -8.3 0 1 18.57 35.40
  Z"
/>
<path fill="#ad4744" d="
  M 22.94 34.63
  Q 23.83 34.56 26.00 34.50
  Q 27.09 34.47 27.10 34.97
  A 0.71 0.47 -3.3 0 1 26.44 35.47
  Q 24.98 35.58 23.53 35.74
  Q 22.34 35.88 22.34 35.17
  A 0.65 0.53 -2.9 0 1 22.94 34.63
  Z"
/>
<path fill="#ad4744" d="
  M 33.76 35.50
  Q 32.64 35.67 31.51 35.74
  Q 29.65 35.85 30.36 34.85
  A 1.56 1.55 -69.2 0 1 31.80 34.20
  Q 33.60 34.40 34.38 34.65
  Q 35.95 35.16 33.76 35.50
  Z"
/>
<path fill="#ad4744" d="
  M 42.60 35.23
  Q 40.70 35.87 38.73 35.39
  Q 38.20 35.25 38.67 34.96
  Q 40.60 33.75 42.64 34.82
  Q 43.11 35.06 42.60 35.23
  Z"
/>
<path fill="#ad4744" d="
  M 46.80 34.54
  Q 48.53 34.45 50.25 34.41
  Q 51.29 34.38 51.15 34.99
  A 0.82 0.61 2.6 0 1 50.44 35.47
  Q 49.20 35.53 47.96 35.51
  Q 47.87 35.51 47.05 35.60
  Q 46.33 35.67 46.27 35.05
  A 0.55 0.47 -3.7 0 1 46.80 34.54
  Z"
/>
<path fill="#dfa19f" fill-opacity="0.988" d="
  M 60.99 41.74
  L 66.86 38.82
  A 0.50 0.45 49.7 0 0 66.89 38.02
  Q 65.35 36.82 63.52 35.95
  Q 60.97 34.74 61.81 37.04
  A 0.50 0.48 70.1 0 1 61.53 37.68
  Q 58.63 38.72 55.71 37.50
  Q 57.20 36.68 58.94 37.05
  Q 60.79 37.45 60.84 35.82
  A 1.04 0.71 80.3 0 1 61.21 35.02
  Q 62.31 34.36 63.62 35.09
  Q 65.93 36.40 67.74 37.53
  A 0.95 0.94 43.0 0 1 67.80 39.10
  Q 64.67 41.40 60.99 41.74
  Z"
/>
<path fill="#ae1819" d="
  M 53.96 35.75
  Q 54.85 38.45 53.71 41.00
  L 52.54 41.00
  L 52.54 36.50
  Q 53.10 35.79 53.96 35.75
  Z"
/>
<path fill="#bd1a1b" d="
  M 60.99 41.74
  Q 60.57 40.79 60.75 40.29
  Q 61.76 40.30 61.92 39.56
  A 0.48 0.41 4.8 0 0 61.43 39.07
  L 55.75 39.00
  Q 55.74 38.35 55.46 37.75
  Q 55.50 37.54 55.71 37.50
  Q 58.63 38.72 61.53 37.68
  A 0.50 0.48 70.1 0 0 61.81 37.04
  Q 60.97 34.74 63.52 35.95
  Q 65.35 36.82 66.89 38.02
  A 0.50 0.45 49.7 0 1 66.86 38.82
  L 60.99 41.74
  Z"
/>
<path fill="#ae1819" d="
  M 37.95 41.71
  L 35.75 39.80
  A 1.30 1.12 35.9 0 0 33.87 39.96
  Q 31.85 43.64 29.77 40.46
  Q 28.26 38.16 26.55 41.00
  Q 25.52 42.71 24.06 41.36
  L 22.39 39.83
  A 1.49 1.49 36.9 0 0 20.12 40.15
  Q 18.30 43.13 17.02 41.01
  Q 14.98 37.62 12.94 41.19
  Q 12.29 42.32 11.49 41.97
  A 0.41 0.39 -55.6 0 1 11.38 41.32
  L 14.36 38.31
  A 1.15 1.11 51.5 0 1 16.11 38.54
  Q 18.35 42.10 20.31 39.06
  Q 21.81 36.75 22.69 38.56
  Q 23.38 40.00 24.77 40.58
  A 0.81 0.78 -54.6 0 0 25.61 40.42
  L 27.55 38.64
  A 1.50 1.50 51.8 0 1 29.80 38.91
  Q 31.56 41.55 32.89 39.88
  Q 33.50 39.12 34.35 38.27
  A 1.18 1.00 44.3 0 1 35.87 38.38
  L 38.07 40.51
  A 0.69 0.46 -42.2 0 0 38.85 40.39
  L 41.34 38.29
  A 0.55 0.49 49.3 0 1 42.07 38.39
  Q 43.30 39.78 44.97 40.50
  A 0.77 0.75 -55.0 0 0 45.80 40.34
  Q 51.00 35.33 46.56 40.81
  Q 44.79 43.00 43.56 40.94
  Q 41.70 37.82 39.43 41.34
  A 1.10 0.92 -54.0 0 1 37.95 41.71
  Z"
/>
<path fill="#cf8f89" fill-opacity="0.980" d="
  M 55.75 39.00
  L 61.43 39.07
  A 0.48 0.41 4.8 0 1 61.92 39.56
  Q 61.76 40.30 60.75 40.29
  Q 59.84 39.46 58.50 39.77
  Q 56.81 40.15 55.75 39.00
  Z"
/>
<path fill="#ae1819" d="
  M 7.46 39.25
  L 7.46 44.50
  Q 6.90 45.54 6.04 45.00
  L 6.29 40.25
  Q 7.03 40.15 7.46 39.25
  Z"
/>
<path fill="#1a1e1d" d="
  M 52.54 41.00
  L 53.71 41.00
  Q 53.64 42.17 54.04 43.25
  L 53.96 43.50
  Q 52.32 44.92 54.04 46.25
  Q 53.78 47.52 54.54 48.50
  Q 53.66 52.70 53.74 57.00
  Q 53.88 65.48 54.00 73.96
  Q 53.38 74.58 52.54 74.75
  L 52.44 58.07
  A 0.51 0.49 -90.0 0 0 51.95 57.56
  L 8.07 57.50
  A 0.57 0.57 0.0 0 0 7.50 58.07
  L 7.43 88.75
  A 0.31 0.31 89.1 0 0 7.74 89.06
  L 51.95 89.00
  A 0.55 0.55 0.0 0 0 52.50 88.45
  L 52.53 76.96
  Q 53.01 76.68 53.75 76.75
  Q 54.30 81.11 54.25 85.50
  Q 54.21 89.30 53.00 91.21
  L 37.25 91.21
  Q 19.43 90.67 8.00 90.75
  Q 5.65 90.77 6.04 88.25
  L 6.04 45.00
  Q 6.90 45.54 7.46 44.50
  L 7.50 55.16
  A 0.59 0.58 -90.0 0 0 8.08 55.75
  L 51.93 55.93
  A 0.51 0.49 0.6 0 0 52.45 55.44
  L 52.45 46.07
  A 0.57 0.55 2.9 0 0 51.94 45.52
  Q 47.00 45.03 51.95 44.49
  A 0.58 0.56 -2.9 0 0 52.46 43.94
  L 52.54 41.00
  Z"
/>
<path fill="#e3acab" fill-opacity="0.984" d="
  M 54.04 43.25
  L 54.71 43.25
  Q 57.24 44.38 59.96 44.93
  Q 60.89 45.11 61.34 45.40
  Q 62.72 46.27 61.04 47.25
  Q 60.94 45.46 59.50 45.25
  Q 55.85 44.71 53.96 43.50
  L 54.04 43.25
  Z"
/>
<path fill="#bd1a1b" d="
  M 53.96 43.50
  Q 55.85 44.71 59.50 45.25
  Q 60.94 45.46 61.04 47.25
  Q 61.00 47.46 60.79 47.50
  Q 58.70 46.47 59.94 48.31
  Q 64.08 54.47 62.96 63.25
  Q 61.69 68.81 57.92 72.93
  Q 57.55 73.34 55.71 74.63
  Q 54.52 75.47 53.75 76.75
  Q 53.01 76.68 52.53 76.96
  Q 48.42 78.27 49.99 76.20
  A 1.76 1.13 1.0 0 1 50.80 75.70
  Q 51.77 75.43 52.54 74.75
  Q 53.38 74.58 54.00 73.96
  Q 55.26 74.13 55.75 72.96
  Q 58.51 71.57 60.00 68.25
  Q 64.27 58.73 59.32 50.03
  Q 59.19 49.81 59.00 49.64
  Q 55.71 46.66 58.61 50.29
  L 57.79 50.75
  Q 57.15 49.84 56.00 50.29
  Q 55.77 50.23 55.71 50.00
  Q 55.80 49.62 55.71 49.25
  Q 55.48 47.41 54.04 46.25
  Q 52.32 44.92 53.96 43.50
  Z"
/>
<path fill="#f1d2d2" d="
  M 118.00 44.29
  L 118.16 50.23
  A 1.59 1.47 89.6 0 0 119.61 51.78
  L 132.46 52.00
  L 132.49 55.24
  A 0.52 0.51 0.0 0 1 131.97 55.75
  L 114.81 55.75
  A 0.56 0.56 0.0 0 1 114.25 55.19
  L 114.25 44.87
  A 0.58 0.56 90.0 0 1 114.81 44.29
  L 118.00 44.29
  Z"
/>
<path fill="#ad4744" d="
  M 10.46 44.64
  Q 12.88 44.20 14.24 44.81
  Q 14.76 45.05 14.22 45.26
  Q 12.02 46.12 10.38 45.50
  Q 8.88 44.93 10.46 44.64
  Z"
/>
<path fill="#ffffff" d="
  M 118.00 44.29
  L 131.81 44.41
  A 0.56 0.54 0.0 0 1 132.36 44.94
  L 132.46 52.00
  L 119.61 51.78
  A 1.59 1.47 89.6 0 1 118.16 50.23
  L 118.00 44.29
  Z"
/>
<path fill="#ad4744" d="
  M 18.19 44.63
  Q 19.08 44.56 21.25 44.50
  Q 22.34 44.47 22.35 44.97
  A 0.71 0.47 -3.3 0 1 21.69 45.47
  Q 20.23 45.58 18.78 45.74
  Q 17.59 45.88 17.59 45.17
  A 0.65 0.53 -2.9 0 1 18.19 44.63
  Z"
/>
<path fill="#ad4744" d="
  M 25.94 44.71
  Q 27.88 44.27 29.82 44.59
  A 0.66 0.49 9.4 0 1 30.38 45.17
  Q 30.30 45.73 29.24 45.66
  Q 27.72 45.56 26.19 45.46
  A 0.91 0.52 -6.3 0 1 25.55 45.18
  Q 25.33 44.85 25.94 44.71
  Z"
/>
<path fill="#ad4744" d="
  M 33.53 44.88
  A 1.90 1.90 23.5 0 1 35.13 44.25
  Q 38.93 44.61 38.46 45.13
  A 1.87 1.86 -66.4 0 1 36.89 45.75
  Q 33.07 45.39 33.53 44.88
  Z"
/>
<path fill="#ad4744" d="
  M 46.56 45.02
  Q 46.74 45.28 46.00 45.50
  Q 42.68 46.50 42.00 45.50
  Q 41.29 44.46 45.70 44.57
  A 1.13 1.12 -17.1 0 1 46.56 45.02
  Z"
/>
<path fill="#ffffff" d="
  M 54.04 46.25
  Q 55.48 47.41 55.71 49.25
  Q 54.97 49.07 54.54 48.50
  Q 53.78 47.52 54.04 46.25
  Z"
/>
<path fill="#e3acab" fill-opacity="0.984" d="
  M 91.21 46.50
  Q 91.32 47.00 91.09 47.38
  A 1.19 0.75 5.4 0 1 90.26 47.80
  Q 84.60 48.38 82.75 48.00
  Q 78.79 47.19 80.75 50.21
  Q 79.85 50.28 79.75 49.50
  Q 79.67 48.94 79.44 48.62
  Q 78.27 47.04 81.00 47.00
  Q 87.62 46.90 91.21 46.50
  Z"
/>
<path fill="#e3acab" fill-opacity="0.984" d="
  M 60.79 47.50
  Q 60.62 48.27 61.31 49.44
  Q 65.34 56.20 63.29 64.50
  Q 62.89 63.96 62.96 63.25
  Q 64.08 54.47 59.94 48.31
  Q 58.70 46.47 60.79 47.50
  Z"
/>
<path fill="#dfa19f" fill-opacity="0.988" d="
  M 75.26 50.49
  Q 77.02 46.84 72.98 47.94
  Q 70.72 48.55 68.96 47.25
  Q 71.51 46.92 74.09 46.96
  Q 75.55 46.99 76.19 47.68
  Q 77.28 48.87 75.26 50.49
  Z"
/>
<path fill="#121413" d="
  M 14.27 49.73
  L 11.93 51.98
  Q 11.37 52.51 11.29 51.81
  Q 11.25 51.40 11.69 50.94
  Q 13.10 49.45 14.62 48.08
  A 0.58 0.54 -43.7 0 1 15.38 48.07
  L 17.29 49.91
  A 1.62 1.55 38.7 0 0 19.72 49.70
  Q 21.96 46.27 23.86 50.03
  A 1.26 1.22 -35.9 0 0 25.84 50.31
  L 28.06 48.13
  A 0.55 0.51 45.4 0 1 28.80 48.16
  L 30.37 49.72
  Q 32.01 51.35 33.29 49.46
  Q 35.12 46.76 37.13 50.03
  A 1.23 1.23 -45.5 0 0 39.24 50.01
  Q 41.55 46.10 44.27 50.44
  A 0.82 0.81 -38.5 0 0 45.54 50.58
  Q 47.19 48.94 48.27 48.03
  Q 48.89 47.50 48.74 48.24
  Q 48.70 48.42 48.57 48.59
  Q 47.15 50.48 45.85 51.52
  Q 44.25 52.80 43.37 50.95
  Q 41.82 47.69 40.06 50.56
  Q 38.37 53.34 36.69 50.56
  Q 35.23 48.15 32.99 51.05
  A 1.58 1.57 -49.9 0 1 30.68 51.25
  L 28.67 49.40
  A 0.54 0.52 43.8 0 0 27.94 49.40
  L 25.78 51.56
  A 1.01 0.69 -54.7 0 1 24.95 51.87
  Q 23.85 51.60 22.94 50.06
  A 1.36 1.21 -36.9 0 0 20.96 49.90
  L 18.72 51.90
  A 0.67 0.50 42.2 0 1 17.96 51.83
  L 14.99 49.56
  A 0.67 0.43 -46.3 0 0 14.27 49.73
  Z"
/>
<path fill="#cf8f89" fill-opacity="0.980" d="
  M 55.75 72.96
  L 55.71 72.75
  Q 65.26 62.77 58.61 50.29
  Q 55.71 46.66 59.00 49.64
  Q 59.19 49.81 59.32 50.03
  Q 64.27 58.73 60.00 68.25
  Q 58.51 71.57 55.75 72.96
  Z"
/>
<path fill="#7d9280" fill-opacity="0.988" d="
  M 54.54 48.50
  Q 54.97 49.07 55.71 49.25
  Q 55.80 49.62 55.71 50.00
  Q 54.75 49.89 54.75 51.00
  Q 54.75 60.83 54.75 70.66
  Q 54.75 70.76 54.57 71.81
  Q 54.41 72.77 55.71 72.75
  L 55.75 72.96
  Q 55.26 74.13 54.00 73.96
  Q 53.88 65.48 53.74 57.00
  Q 53.66 52.70 54.54 48.50
  Z"
/>
<path fill="#c76b6a" fill-opacity="0.973" d="
  M 56.00 50.29
  Q 57.15 49.84 57.79 50.75
  Q 56.57 52.03 56.00 50.29
  Z"
/>
<path fill="#cf8f89" fill-opacity="0.980" d="
  M 77.46 58.75
  Q 78.44 54.74 75.04 53.42
  Q 77.68 51.34 78.14 56.65
  A 2.95 2.84 -66.3 0 0 78.67 58.09
  Q 79.67 59.49 77.46 58.75
  Z"
/>
<path fill="#cf8f89" fill-opacity="0.980" d="
  M 80.46 53.25
  Q 79.23 54.99 80.21 56.75
  Q 79.28 57.37 79.07 56.24
  Q 78.46 53.01 80.46 53.25
  Z"
/>
<path fill="#dfa19f" fill-opacity="0.988" d="
  M 134.25 57.54
  Q 130.29 58.31 125.25 57.92
  A 1.09 1.02 -81.2 0 0 124.17 58.76
  L 122.45 66.46
  A 0.66 0.63 -69.3 0 0 122.75 67.17
  Q 125.77 68.92 122.29 71.00
  Q 122.36 70.20 122.88 69.60
  A 1.09 0.78 -35.5 0 0 123.17 68.76
  Q 122.84 67.25 121.98 68.28
  A 0.72 0.43 -51.0 0 1 121.21 68.56
  Q 120.90 68.33 121.19 67.69
  Q 122.48 64.81 122.86 61.29
  Q 123.14 58.74 123.84 57.94
  Q 124.78 56.88 126.42 56.86
  Q 128.97 56.84 129.08 56.83
  Q 131.75 56.63 134.25 57.54
  Z"
/>
<path fill="#ffffff" d="
  M 52.54 74.75
  Q 51.77 75.43 50.80 75.70
  A 1.76 1.13 1.0 0 0 49.99 76.20
  Q 48.42 78.27 52.53 76.96
  L 52.50 88.45
  A 0.55 0.55 0.0 0 1 51.95 89.00
  L 7.74 89.06
  A 0.31 0.31 -89.0 0 1 7.43 88.75
  L 7.50 58.07
  A 0.57 0.57 0.0 0 1 8.07 57.50
  L 51.95 57.56
  A 0.51 0.49 -90.0 0 1 52.44 58.07
  L 52.54 74.75
  Z
  M 30.20 62.86
  Q 29.58 62.10 28.74 61.40
  A 0.62 0.61 -47.2 0 0 27.92 61.44
  L 25.38 63.91
  A 0.55 0.53 43.8 0 1 24.63 63.91
  L 22.11 61.58
  A 0.64 0.52 44.0 0 0 21.32 61.51
  L 18.84 63.87
  A 0.78 0.68 -44.1 0 1 17.81 63.93
  L 15.46 61.58
  A 0.81 0.81 -49.5 0 0 14.23 61.68
  Q 13.10 63.22 11.65 64.65
  Q 10.88 65.42 11.69 65.43
  A 1.76 1.74 16.1 0 0 13.22 64.60
  Q 15.00 61.72 16.61 64.32
  Q 17.67 66.04 19.15 64.67
  L 21.13 62.84
  A 0.66 0.53 -44.7 0 1 21.94 62.75
  L 24.00 64.68
  A 1.38 1.21 38.3 0 0 26.00 64.58
  Q 28.45 60.74 30.58 64.50
  A 1.51 0.88 74.4 0 0 31.26 65.16
  Q 32.51 65.63 33.36 64.09
  Q 34.94 61.25 36.81 64.35
  A 1.52 1.52 -36.9 0 0 39.14 64.68
  L 41.13 62.84
  A 0.66 0.50 -43.7 0 1 41.93 62.75
  L 44.25 65.00
  A 0.98 0.85 44.3 0 0 45.54 65.08
  Q 47.20 63.42 48.40 62.22
  Q 48.57 62.05 48.65 61.87
  Q 49.05 60.92 48.07 61.62
  Q 46.94 62.44 45.56 63.81
  A 1.00 0.87 44.5 0 1 44.24 63.73
  L 41.92 61.50
  A 0.65 0.49 -43.3 0 0 41.13 61.59
  L 38.61 63.92
  A 0.53 0.52 45.8 0 1 37.89 63.90
  L 35.76 61.87
  A 1.36 1.36 37.1 0 0 33.64 62.16
  Q 32.76 63.67 31.82 63.86
  Q 31.14 63.99 30.20 62.86
  Z
  M 37.78 70.52
  L 35.23 68.08
  A 0.60 0.51 -45.3 0 0 34.45 68.15
  L 32.64 70.01
  Q 31.17 71.52 30.13 69.80
  Q 28.33 66.81 26.52 70.03
  A 1.41 1.41 -53.5 0 1 24.32 70.36
  L 22.15 68.31
  A 0.93 0.92 -51.7 0 0 20.73 68.48
  Q 18.30 72.28 16.12 68.62
  A 1.20 1.20 52.2 0 0 14.24 68.38
  L 11.91 70.71
  A 1.22 0.96 -28.8 0 0 11.55 71.56
  Q 11.64 72.80 13.06 70.81
  Q 15.09 67.97 16.81 70.69
  Q 18.54 73.41 20.47 69.94
  Q 21.52 68.04 22.53 69.97
  Q 24.76 74.25 27.34 70.17
  A 1.34 1.33 44.6 0 1 29.59 70.16
  Q 31.72 73.45 33.56 70.31
  Q 35.24 67.45 36.31 70.19
  Q 36.59 70.91 37.31 71.19
  A 2.19 0.84 24.5 0 0 39.31 71.31
  L 41.22 69.41
  A 0.81 0.80 -38.1 0 1 42.48 69.56
  Q 43.55 71.30 44.70 71.93
  A 1.24 1.23 33.8 0 0 46.23 71.63
  Q 48.27 69.14 48.45 68.26
  Q 48.60 67.57 47.96 68.18
  L 45.37 70.67
  A 0.54 0.53 45.0 0 1 44.62 70.66
  L 42.08 68.21
  A 0.83 0.73 -44.7 0 0 40.99 68.27
  L 38.50 70.68
  A 0.64 0.40 44.6 0 1 37.78 70.52
  Z
  M 23.03 77.17
  Q 25.15 80.23 26.94 76.94
  Q 28.25 74.51 29.94 77.31
  Q 31.48 79.88 32.97 77.51
  Q 35.00 74.31 37.03 77.72
  A 1.49 1.49 -37.9 0 0 39.37 78.01
  L 41.38 75.99
  A 0.53 0.53 -0.0 0 1 42.12 75.99
  L 44.57 78.44
  A 0.60 0.60 0.0 0 0 45.43 78.44
  Q 46.75 77.13 47.75 75.79
  Q 49.59 73.33 47.24 75.41
  Q 47.07 75.55 46.93 75.78
  Q 44.92 78.95 42.97 75.52
  Q 41.74 73.36 40.61 75.58
  Q 38.62 79.51 35.94 75.31
  Q 34.73 73.43 33.31 76.06
  Q 32.43 77.70 31.32 77.24
  Q 30.93 77.07 30.04 75.91
  Q 28.08 73.35 26.13 76.46
  Q 24.92 78.38 23.76 76.44
  Q 21.75 73.07 19.73 76.55
  A 1.44 1.44 37.6 0 1 17.47 76.84
  L 15.36 74.74
  A 0.51 0.51 0.0 0 0 14.64 74.74
  Q 13.18 76.19 12.01 77.37
  Q 11.80 77.57 11.68 77.81
  Q 10.76 79.55 12.45 78.14
  Q 12.67 77.96 12.85 77.66
  Q 14.89 74.39 17.31 78.14
  A 1.31 1.31 43.9 0 0 19.54 78.10
  Q 21.46 74.89 23.03 77.17
  Z
  M 22.82 81.99
  A 1.31 1.31 48.3 0 0 20.60 81.86
  Q 17.96 85.57 16.11 82.31
  Q 14.95 80.27 13.54 82.60
  A 4.23 4.20 -87.2 0 1 11.80 84.19
  Q 10.96 84.60 11.39 85.16
  A 0.54 0.45 -40.3 0 0 12.12 85.16
  L 14.64 82.83
  A 0.56 0.51 44.1 0 1 15.36 82.85
  L 17.93 85.13
  A 0.71 0.70 -39.7 0 0 18.75 85.20
  Q 20.05 84.41 20.82 83.05
  A 0.89 0.80 -52.3 0 1 22.18 82.80
  L 24.06 84.94
  A 1.25 1.08 40.9 0 0 25.94 84.94
  Q 26.51 83.98 28.25 82.96
  A 0.75 0.63 50.2 0 1 29.07 83.11
  L 31.32 85.24
  A 0.66 0.52 -44.0 0 0 32.12 85.16
  L 34.56 82.91
  A 0.60 0.51 -44.1 0 1 35.33 82.86
  L 37.63 84.99
  A 1.00 0.92 43.3 0 0 38.99 85.01
  L 41.08 82.80
  A 0.85 0.76 43.5 0 1 42.23 82.83
  L 44.66 85.14
  A 0.61 0.55 -43.3 0 0 45.44 85.12
  Q 47.15 83.62 48.63 81.89
  Q 48.77 81.73 48.77 81.56
  Q 48.76 81.26 48.48 81.24
  Q 48.29 81.22 48.07 81.39
  Q 47.03 82.27 45.62 83.81
  A 0.85 0.85 -40.7 0 1 44.29 83.71
  Q 41.48 79.49 38.95 83.50
  A 0.54 0.46 -55.6 0 1 38.25 83.69
  L 35.72 81.86
  A 1.62 1.38 33.2 0 0 33.49 82.15
  Q 31.94 84.91 30.58 82.96
  Q 28.63 80.17 26.87 82.20
  Q 25.61 83.66 25.15 83.74
  Q 23.91 83.98 22.82 81.99
  Z"
/>
<path fill="#dfa19f" fill-opacity="0.988" d="
  M 121.79 57.75
  Q 122.37 62.68 119.58 67.76
  Q 119.28 68.31 119.13 67.70
  Q 118.84 66.55 118.26 66.91
  Q 117.95 67.10 117.85 67.61
  Q 117.51 69.31 117.89 70.88
  Q 118.41 73.03 116.27 73.00
  L 98.71 72.73
  Q 107.77 71.51 115.44 71.87
  Q 117.57 71.97 117.20 69.87
  Q 116.44 65.57 119.27 66.13
  A 0.56 0.48 11.5 0 0 119.90 65.78
  L 121.50 58.29
  Q 121.82 58.17 121.79 57.75
  Z"
/>
<path fill="#dfa19f" fill-opacity="0.988" d="
  M 72.73 58.73
  Q 73.57 66.94 73.00 71.25
  Q 72.60 74.32 75.16 74.09
  Q 76.26 73.99 76.35 73.99
  Q 82.09 73.89 87.82 74.16
  A 1.39 1.29 -19.7 0 1 88.68 74.53
  Q 90.15 75.96 90.93 77.93
  Q 91.68 79.83 92.37 77.63
  A 0.52 0.51 -73.1 0 1 93.01 77.28
  Q 96.73 78.40 98.65 80.61
  L 94.03 78.42
  A 0.86 0.78 24.4 0 0 92.90 78.79
  Q 92.13 80.59 90.80 79.18
  Q 89.70 78.02 89.32 76.47
  Q 88.87 74.62 87.00 74.65
  Q 80.03 74.80 73.40 74.69
  A 1.37 1.36 -2.1 0 1 72.06 73.45
  Q 71.41 66.04 72.73 58.73
  Z"
/>
<path fill="#f1d2d2" d="
  M 77.75 61.04
  Q 78.52 63.33 78.11 67.00
  A 1.12 1.11 3.7 0 0 79.21 68.24
  L 92.46 68.50
  L 92.48 71.99
  A 0.52 0.50 -0.5 0 1 91.96 72.50
  L 74.94 72.56
  A 0.53 0.49 0.0 0 1 74.41 72.07
  L 74.27 61.65
  A 1.18 0.98 5.2 0 1 75.63 60.71
  L 77.75 61.04
  Z"
/>
<path fill="#ffffff" d="
  M 77.75 61.04
  L 91.82 61.16
  A 0.55 0.54 0.0 0 1 92.36 61.69
  L 92.46 68.50
  L 79.21 68.24
  A 1.12 1.11 3.7 0 1 78.11 67.00
  Q 78.52 63.33 77.75 61.04
  Z"
/>
<path fill="#020302" d="
  M 31.82 63.86
  Q 32.76 63.67 33.64 62.16
  A 1.36 1.36 37.1 0 1 35.76 61.87
  L 37.89 63.90
  A 0.53 0.52 45.8 0 0 38.61 63.92
  L 41.13 61.59
  A 0.65 0.49 -43.3 0 1 41.92 61.50
  L 44.24 63.73
  A 1.00 0.87 44.5 0 0 45.56 63.81
  Q 46.94 62.44 48.07 61.62
  Q 49.05 60.92 48.65 61.87
  Q 48.57 62.05 48.40 62.22
  Q 47.20 63.42 45.54 65.08
  A 0.98 0.85 44.3 0 1 44.25 65.00
  L 41.93 62.75
  A 0.66 0.50 -43.7 0 0 41.13 62.84
  L 39.14 64.68
  A 1.52 1.52 -36.9 0 1 36.81 64.35
  Q 34.94 61.25 33.36 64.09
  Q 32.51 65.63 31.26 65.16
  A 1.51 0.88 74.4 0 1 30.58 64.50
  Q 28.45 60.74 26.00 64.58
  A 1.38 1.21 38.3 0 1 24.00 64.68
  L 21.94 62.75
  A 0.66 0.53 -44.7 0 0 21.13 62.84
  L 19.15 64.67
  Q 17.67 66.04 16.61 64.32
  Q 15.00 61.72 13.22 64.60
  A 1.76 1.74 16.1 0 1 11.69 65.43
  Q 10.88 65.42 11.65 64.65
  Q 13.10 63.22 14.23 61.68
  A 0.81 0.81 -49.5 0 1 15.46 61.58
  L 17.81 63.93
  A 0.78 0.68 -44.1 0 0 18.84 63.87
  L 21.32 61.51
  A 0.64 0.52 44.0 0 1 22.11 61.58
  L 24.63 63.91
  A 0.55 0.53 43.8 0 0 25.38 63.91
  L 27.92 61.44
  A 0.62 0.61 -47.2 0 1 28.74 61.40
  Q 29.58 62.10 30.20 62.86
  Q 31.14 63.99 31.82 63.86
  Z"
/>
<path fill="#c76b6a" fill-opacity="0.973" d="
  M 62.96 63.25
  Q 62.89 63.96 63.29 64.50
  Q 61.40 72.20 54.75 76.54
  Q 54.27 76.80 53.75 76.75
  Q 54.52 75.47 55.71 74.63
  Q 57.55 73.34 57.92 72.93
  Q 61.69 68.81 62.96 63.25
  Z"
/>
<path fill="#020302" d="
  M 38.50 70.68
  L 40.99 68.27
  A 0.83 0.73 -44.7 0 1 42.08 68.21
  L 44.62 70.66
  A 0.54 0.53 45.0 0 0 45.37 70.67
  L 47.96 68.18
  Q 48.60 67.57 48.45 68.26
  Q 48.27 69.14 46.23 71.63
  A 1.24 1.23 33.8 0 1 44.70 71.93
  Q 43.55 71.30 42.48 69.56
  A 0.81 0.80 -38.1 0 0 41.22 69.41
  L 39.31 71.31
  A 2.19 0.84 24.5 0 1 37.31 71.19
  Q 36.59 70.91 36.31 70.19
  Q 35.24 67.45 33.56 70.31
  Q 31.72 73.45 29.59 70.16
  A 1.34 1.33 44.6 0 0 27.34 70.17
  Q 24.76 74.25 22.53 69.97
  Q 21.52 68.04 20.47 69.94
  Q 18.54 73.41 16.81 70.69
  Q 15.09 67.97 13.06 70.81
  Q 11.64 72.80 11.55 71.56
  A 1.22 0.96 -28.8 0 1 11.91 70.71
  L 14.24 68.38
  A 1.20 1.20 52.2 0 1 16.12 68.62
  Q 18.30 72.28 20.73 68.48
  A 0.93 0.92 -51.7 0 1 22.15 68.31
  L 24.32 70.36
  A 1.41 1.41 -53.5 0 0 26.52 70.03
  Q 28.33 66.81 30.13 69.80
  Q 31.17 71.52 32.64 70.01
  L 34.45 68.15
  A 0.60 0.51 -45.3 0 1 35.23 68.08
  L 37.78 70.52
  A 0.64 0.40 44.6 0 0 38.50 70.68
  Z"
/>
<path fill="#cf8f89" fill-opacity="0.980" d="
  M 94.54 72.00
  L 95.67 73.89
  A 1.42 0.78 46.2 0 1 95.90 74.74
  Q 95.45 77.54 98.71 77.50
  Q 99.18 79.07 98.12 78.40
  Q 97.78 78.19 97.46 78.09
  Q 95.60 77.53 94.52 75.93
  A 0.51 0.46 -34.5 0 1 94.68 75.26
  Q 95.51 74.71 94.93 74.02
  A 1.35 0.52 41.7 0 1 94.50 73.19
  L 94.54 72.00
  Z"
/>
<path fill="#f1d2d2" d="
  M 104.50 74.29
  Q 105.28 76.70 104.90 80.19
  A 1.49 1.43 3.7 0 0 106.36 81.78
  L 118.96 82.00
  L 119.08 85.23
  A 0.50 0.49 88.9 0 1 118.59 85.75
  L 101.49 85.75
  A 0.52 0.50 89.4 0 1 100.99 85.24
  L 100.84 75.06
  A 0.71 0.64 81.1 0 1 101.28 74.39
  Q 102.83 73.91 104.50 74.29
  Z"
/>
<path fill="#ffffff" d="
  M 104.50 74.29
  L 118.48 74.25
  A 0.52 0.52 0.0 0 1 119.00 74.77
  L 118.96 82.00
  L 106.36 81.78
  A 1.49 1.43 3.7 0 1 104.90 80.19
  Q 105.28 76.70 104.50 74.29
  Z"
/>
<path fill="#020302" d="
  M 23.03 77.17
  Q 21.46 74.89 19.54 78.10
  A 1.31 1.31 43.9 0 1 17.31 78.14
  Q 14.89 74.39 12.85 77.66
  Q 12.67 77.96 12.45 78.14
  Q 10.76 79.55 11.68 77.81
  Q 11.80 77.57 12.01 77.37
  Q 13.18 76.19 14.64 74.74
  A 0.51 0.51 -0.0 0 1 15.36 74.74
  L 17.47 76.84
  A 1.44 1.44 37.6 0 0 19.73 76.55
  Q 21.75 73.07 23.76 76.44
  Q 24.92 78.38 26.13 76.46
  Q 28.08 73.35 30.04 75.91
  Q 30.93 77.07 31.32 77.24
  Q 32.43 77.70 33.31 76.06
  Q 34.73 73.43 35.94 75.31
  Q 38.62 79.51 40.61 75.58
  Q 41.74 73.36 42.97 75.52
  Q 44.92 78.95 46.93 75.78
  Q 47.07 75.55 47.24 75.41
  Q 49.59 73.33 47.75 75.79
  Q 46.75 77.13 45.43 78.44
  A 0.60 0.60 -90.0 0 1 44.57 78.44
  L 42.12 75.99
  A 0.53 0.53 0.0 0 0 41.38 75.99
  L 39.37 78.01
  A 1.49 1.49 -37.9 0 1 37.03 77.72
  Q 35.00 74.31 32.97 77.51
  Q 31.48 79.88 29.94 77.31
  Q 28.25 74.51 26.94 76.94
  Q 25.15 80.23 23.03 77.17
  Z"
/>
<path fill="#7d9280" fill-opacity="0.988" d="
  M 54.75 76.54
  Q 55.00 85.80 54.50 90.50
  Q 54.39 91.54 53.00 91.21
  Q 54.21 89.30 54.25 85.50
  Q 54.30 81.11 53.75 76.75
  Q 54.27 76.80 54.75 76.54
  Z"
/>
<path fill="#121413" d="
  M 22.82 81.99
  Q 23.91 83.98 25.15 83.74
  Q 25.61 83.66 26.87 82.20
  Q 28.63 80.17 30.58 82.96
  Q 31.94 84.91 33.49 82.15
  A 1.62 1.38 33.2 0 1 35.72 81.86
  L 38.25 83.69
  A 0.54 0.46 -55.6 0 0 38.95 83.50
  Q 41.48 79.49 44.29 83.71
  A 0.85 0.85 -40.7 0 0 45.62 83.81
  Q 47.03 82.27 48.07 81.39
  Q 48.29 81.22 48.48 81.24
  Q 48.76 81.26 48.77 81.56
  Q 48.77 81.73 48.63 81.89
  Q 47.15 83.62 45.44 85.12
  A 0.61 0.55 -43.3 0 1 44.66 85.14
  L 42.23 82.83
  A 0.85 0.76 43.5 0 0 41.08 82.80
  L 38.99 85.01
  A 1.00 0.92 43.3 0 1 37.63 84.99
  L 35.33 82.86
  A 0.60 0.51 -44.1 0 0 34.56 82.91
  L 32.12 85.16
  A 0.66 0.52 -44.0 0 1 31.32 85.24
  L 29.07 83.11
  A 0.75 0.63 50.2 0 0 28.25 82.96
  Q 26.51 83.98 25.94 84.94
  A 1.25 1.08 40.9 0 1 24.06 84.94
  L 22.18 82.80
  A 0.89 0.80 -52.3 0 0 20.82 83.05
  Q 20.05 84.41 18.75 85.20
  A 0.71 0.70 -39.7 0 1 17.93 85.13
  L 15.36 82.85
  A 0.56 0.51 44.1 0 0 14.64 82.83
  L 12.12 85.16
  A 0.54 0.45 -40.3 0 1 11.39 85.16
  Q 10.96 84.60 11.80 84.19
  A 4.23 4.20 -87.2 0 0 13.54 82.60
  Q 14.95 80.27 16.11 82.31
  Q 17.96 85.57 20.60 81.86
  A 1.31 1.31 48.3 0 1 22.82 81.99
  Z"
/>
<path fill="#e3acab" fill-opacity="0.984" d="
  M 121.21 86.50
  Q 121.32 87.00 121.09 87.38
  A 1.17 0.74 6.1 0 1 120.26 87.79
  Q 109.61 88.62 98.90 87.37
  L 121.21 86.50
  Z"
/>
<path fill="#2d3235" d="
  M 6.04 88.25
  Q 5.65 90.77 8.00 90.75
  Q 19.43 90.67 37.25 91.21
  L 5.35 91.01
  Q 6.40 89.21 6.04 88.25
  Z"
/>
</svg>
