<?xml version="1.0" encoding="UTF-8" standalone="no"?>
<!DOCTYPE svg PUBLIC "-//W3C//DTD SVG 1.1//EN" "http://www.w3.org/Graphics/SVG/1.1/DTD/svg11.dtd">
<svg xmlns="http://www.w3.org/2000/svg" version="1.1" viewBox="0 0 140 100">
<g stroke-width="2.00" fill="none" stroke-linecap="butt">
<path stroke="#696f6e" vector-effect="non-scaling-stroke" d="
  M 136.39 21.49
  L 106.97 4.44
  A 0.86 0.85 -45.3 0 0 106.09 4.45
  L 79.09 20.48
  A 2.06 1.97 -15.8 0 0 78.09 22.18
  L 78.00 31.12
  A 1.01 0.99 -6.4 0 0 79.24 32.09
  Q 81.49 31.57 84.25 31.54
  Q 110.22 31.31 136.23 32.34"
/>
<path stroke="#7a7f79" stroke-opacity="0.996" vector-effect="non-scaling-stroke" d="
  M 35.25 26.96
  Q 34.76 26.88 34.50 27.21"
/>
<path stroke="#3f4243" vector-effect="non-scaling-stroke" d="
  M 34.50 27.21
  Q 30.52 26.68 26.54 27.25"
/>
<path stroke="#7a7f79" stroke-opacity="0.996" vector-effect="non-scaling-stroke" d="
  M 26.54 27.25
  Q 26.48 27.02 26.25 26.96"
/>
<path stroke="#636a64" stroke-opacity="0.996" vector-effect="non-scaling-stroke" d="
  M 26.54 27.25
  Q 15.00 29.81 10.24 40.09
  Q 9.40 41.90 8.64 45.02
  Q 8.03 47.56 7.41 50.09
  Q 7.35 50.35 7.14 53.45
  Q 6.96 56.09 4.06 57.31
  Q 2.94 57.79 3.01 59.20
  A 1.02 0.85 17.0 0 0 3.50 59.95
  Q 11.50 64.72 20.70 65.97
  Q 23.29 66.33 25.54 67.40
  Q 29.16 69.13 32.95 70.40
  Q 37.60 71.96 42.24 71.70
  Q 50.45 71.25 58.18 68.16
  Q 62.12 66.58 64.68 63.72
  A 1.45 1.34 -51.2 0 0 64.54 61.63
  L 58.43 57.33
  A 2.72 1.67 20.3 0 1 57.40 56.02
  Q 55.68 49.52 53.96 44.68
  Q 48.97 30.67 34.50 27.21"
/>
<path stroke="#d3595c" stroke-opacity="0.992" vector-effect="non-scaling-stroke" d="
  M 74.04 30.77
  Q 72.41 32.41 72.63 34.94
  A 0.61 0.49 84.1 0 1 72.21 35.58
  L 69.00 36.02
  A 1.10 0.52 -0.3 0 0 68.21 36.40
  Q 67.80 37.14 69.24 36.92
  Q 73.58 36.25 73.00 40.50
  Q 72.88 41.41 73.23 41.74
  A 0.50 0.39 -58.9 0 0 73.92 41.48
  Q 74.50 40.14 74.15 38.21
  A 0.82 0.81 -11.4 0 1 74.78 37.27
  Q 76.50 36.90 77.93 36.98
  Q 78.29 37.00 78.54 36.90
  Q 79.52 36.50 78.56 36.11
  Q 78.29 36.00 77.91 36.02
  Q 76.34 36.08 74.80 35.79
  A 0.65 0.53 8.4 0 1 74.26 35.20
  L 74.54 31.25"
/>
<path stroke="#d3595c" stroke-opacity="0.992" vector-effect="non-scaling-stroke" d="
  M 92.00 35.75
  Q 90.27 35.30 89.34 36.41
  A 0.39 0.37 28.7 0 0 89.53 37.00
  Q 91.61 37.72 92.00 35.75"
/>
<path stroke="#d04d4d" stroke-opacity="0.992" vector-effect="non-scaling-stroke" d="
  M 134.04 35.75
  Q 133.21 36.19 132.26 35.98
  Q 131.40 35.79 131.25 36.25
  A 0.66 0.51 18.4 0 0 131.72 36.94
  Q 133.34 37.48 134.56 36.13"
/>
<path stroke="#696f6e" vector-effect="non-scaling-stroke" d="
  M 136.10 40.58
  Q 130.86 41.71 125.75 41.29"
/>
<path stroke="#545855" vector-effect="non-scaling-stroke" d="
  M 125.75 41.29
  L 78.77 41.25
  A 0.52 0.51 0.0 0 0 78.25 41.76
  L 78.29 65.75"
/>
<path stroke="#696f6e" vector-effect="non-scaling-stroke" d="
  M 78.29 65.75
  Q 78.24 66.00 77.55 66.18"
/>
<path stroke="#181c1d" vector-effect="non-scaling-stroke" d="
  M 125.75 41.29
  Q 129.49 41.82 131.00 41.50
  Q 133.06 41.07 132.25 42.46"
/>
<path stroke="#5a5d5a" vector-effect="non-scaling-stroke" d="
  M 132.25 42.46
  Q 107.10 42.53 81.95 42.50
  Q 81.84 42.50 80.56 42.39
  Q 78.60 42.23 79.25 44.25
  A 2.38 1.18 75.8 0 0 80.75 46.00
  L 133.75 45.96"
/>
<path stroke="#181c1d" vector-effect="non-scaling-stroke" d="
  M 133.75 45.96
  Q 134.38 46.96 133.60 47.43"
/>
<path stroke="#6b6e6a" vector-effect="non-scaling-stroke" d="
  M 133.60 47.43
  L 79.81 47.31
  A 0.51 0.50 -0.6 0 0 79.30 47.82
  L 79.41 63.57
  A 0.54 0.52 0.0 0 0 79.94 64.08
  L 100.45 64.20
  A 0.53 0.52 0.6 0 0 100.98 63.69
  L 101.21 50.34
  A 0.86 0.81 -89.3 0 1 102.02 49.50
  L 111.36 49.50
  A 0.65 0.61 -0.4 0 1 112.01 50.10
  L 112.17 63.68
  A 0.51 0.48 -90.0 0 0 112.65 64.19
  L 133.34 64.12"
/>
<path stroke="#181c1d" vector-effect="non-scaling-stroke" d="
  M 133.34 64.12
  Q 133.86 65.77 131.75 65.75
  Q 105.02 65.55 78.29 65.75"
/>
<path stroke="#808582" vector-effect="non-scaling-stroke" d="
  M 133.34 64.12
  Q 134.85 55.78 133.60 47.43"
/>
<path stroke="#6f7473" vector-effect="non-scaling-stroke" d="
  M 133.75 45.96
  Q 134.03 45.42 134.04 44.82
  Q 134.06 44.10 134.11 43.69
  Q 134.28 42.01 132.25 42.46"
/>
<path stroke="#d04d4d" stroke-opacity="0.992" vector-effect="non-scaling-stroke" d="
  M 74.72 68.90
  Q 73.39 61.17 72.96 68.01
  Q 72.93 68.54 72.69 68.78
  Q 72.27 69.18 71.71 68.75"
/>
<path stroke="#d04d4d" stroke-opacity="0.992" vector-effect="non-scaling-stroke" d="
  M 75.00 71.29
  Q 73.74 71.48 74.22 73.01
  Q 74.73 74.63 73.79 75.06
  A 0.41 0.35 75.9 0 1 73.28 74.70
  Q 73.12 72.86 72.15 71.28"
/>
<path stroke="#2d2e2e" vector-effect="non-scaling-stroke" d="
  M 135.70 89.97
  Q 131.83 88.27 128.00 89.04"
/>
<path stroke="#545855" vector-effect="non-scaling-stroke" d="
  M 128.00 89.04
  Q 103.50 88.40 78.85 89.00
  A 0.55 0.51 87.8 0 1 78.32 88.47
  L 77.84 73.81"
/>
<path stroke="#7e817f" vector-effect="non-scaling-stroke" d="
  M 128.00 89.04
  Q 129.60 89.41 131.25 89.21
  Q 132.13 89.11 132.21 89.35
  A 0.64 0.30 -4.3 0 1 131.53 89.73
  L 123.75 89.96"
/>
<path stroke="#6f7473" vector-effect="non-scaling-stroke" d="
  M 106.94 9.25
  L 133.18 24.67
  A 0.51 0.50 21.1 0 0 133.93 24.35
  Q 134.40 22.06 132.78 21.14
  Q 120.23 14.04 107.15 6.30
  A 0.95 0.94 45.3 0 0 106.19 6.29
  Q 93.08 13.83 80.38 21.52
  Q 79.52 22.04 79.28 22.64
  Q 78.92 23.53 79.45 24.35
  A 0.55 0.51 -31.0 0 0 80.18 24.50
  L 106.06 9.26
  A 0.89 0.81 -43.2 0 1 106.94 9.25"
/>
<path stroke="#808582" vector-effect="non-scaling-stroke" d="
  M 121.79 19.97
  Q 115.00 16.02 107.29 11.43
  A 1.33 1.32 -44.6 0 0 105.94 11.43
  L 80.18 26.51
  A 1.62 1.27 -9.1 0 0 79.53 27.21
  Q 78.89 28.70 79.34 30.28
  A 0.70 0.66 -7.8 0 0 80.00 30.75
  L 133.25 30.75
  A 0.73 0.69 8.9 0 0 133.93 30.28
  Q 134.92 27.52 132.55 26.17
  Q 127.16 23.10 121.79 19.97"
/>
<path stroke="#808582" vector-effect="non-scaling-stroke" d="
  M 117.26 21.66
  A 0.66 0.66 0.0 0 0 116.60 21.00
  L 96.82 21.00
  A 0.66 0.66 0.0 0 0 96.16 21.66
  L 96.16 26.84
  A 0.66 0.66 0.0 0 0 96.82 27.50
  L 116.60 27.50
  A 0.66 0.66 0.0 0 0 117.26 26.84
  L 117.26 21.66"
/>
<path stroke="#808582" vector-effect="non-scaling-stroke" d="
  M 101.0687 22.7534
  A 0.46 0.46 0.0 0 0 100.6168 22.2855
  L 97.7372 22.2352
  A 0.46 0.46 0.0 0 0 97.2693 22.6871
  L 97.2113 26.0066
  A 0.46 0.46 0.0 0 0 97.6632 26.4745
  L 100.5428 26.5248
  A 0.46 0.46 0.0 0 0 101.0107 26.0729
  L 101.0687 22.7534"
/>
<path stroke="#808582" vector-effect="non-scaling-stroke" d="
  M 111.0059 22.6953
  A 0.43 0.43 0.0 0 0 110.5774 22.2638
  L 102.6975 22.2363
  A 0.43 0.43 0.0 0 0 102.2660 22.6648
  L 102.2541 26.0647
  A 0.43 0.43 0.0 0 0 102.6826 26.4962
  L 110.5625 26.5237
  A 0.43 0.43 0.0 0 0 110.9940 26.0952
  L 111.0059 22.6953"
/>
<path stroke="#808582" vector-effect="non-scaling-stroke" d="
  M 115.9742 22.5637
  A 0.32 0.32 0.0 0 0 115.6514 22.2466
  L 112.5516 22.2736
  A 0.32 0.32 0.0 0 0 112.2344 22.5964
  L 112.2658 26.1963
  A 0.32 0.32 0.0 0 0 112.5886 26.5134
  L 115.6884 26.4864
  A 0.32 0.32 0.0 0 0 116.0056 26.1636
  L 115.9742 22.5637"
/>
<path stroke="#7e827f" vector-effect="non-scaling-stroke" d="
  M 39.69 31.81
  Q 40.96 32.55 43.49 35.51
  Q 45.24 37.55 46.54 39.84
  Q 51.02 47.74 53.31 56.58
  A 0.76 0.65 83.0 0 0 53.92 57.14
  Q 54.66 57.18 55.11 56.67
  Q 55.54 56.19 55.39 55.24
  Q 54.23 47.57 50.52 40.74
  Q 45.91 32.21 36.68 29.31
  Q 36.48 29.24 36.30 29.28
  Q 35.65 29.40 36.35 29.83
  Q 38.01 30.83 39.69 31.81"
/>
<path stroke="#636a64" stroke-opacity="0.996" vector-effect="non-scaling-stroke" d="
  M 21.25 59.71
  L 30.00 60.21"
/>
<path stroke="#7e827f" vector-effect="non-scaling-stroke" d="
  M 30.00 60.21
  L 42.31 59.75
  A 0.50 0.48 86.1 0 0 42.77 59.20
  Q 42.16 53.05 40.93 47.21
  Q 37.81 32.31 23.38 30.67
  Q 21.19 30.42 19.40 31.54
  Q 12.84 35.67 10.50 43.75
  Q 8.64 50.18 8.34 55.45
  A 0.80 0.76 16.3 0 0 8.76 56.18
  Q 14.60 59.23 21.25 59.71"
/>
<path stroke="#b9bfb5" stroke-opacity="0.996" vector-effect="non-scaling-stroke" d="
  M 30.00 60.21
  L 30.46 59.00"
/>
<path stroke="#959793" vector-effect="non-scaling-stroke" d="
  M 30.46 59.00
  Q 31.42 56.67 30.07 54.88
  A 1.76 1.25 33.4 0 1 29.73 54.01
  Q 29.66 51.27 29.97 48.54
  Q 30.00 48.20 29.93 47.97
  Q 29.78 47.50 29.48 47.55
  A 0.85 0.54 89.4 0 0 29.01 48.31
  L 28.69 54.19
  A 0.51 0.49 -88.2 0 1 28.19 54.68
  L 24.68 54.58
  A 0.55 0.54 88.8 0 1 24.15 54.06
  Q 23.98 51.41 24.12 48.74
  Q 24.25 46.13 23.59 48.00
  Q 23.50 48.24 23.50 48.50
  Q 23.52 51.07 22.93 53.57
  A 2.02 1.37 -26.1 0 1 22.45 54.41
  Q 20.74 56.21 21.54 58.75"
/>
<path stroke="#b9bfb5" stroke-opacity="0.996" vector-effect="non-scaling-stroke" d="
  M 21.54 58.75
  Q 21.56 59.30 21.25 59.71"
/>
<path stroke="#7a7f79" stroke-opacity="0.996" vector-effect="non-scaling-stroke" d="
  M 30.46 59.00
  Q 29.38 59.12 29.46 58.00"
/>
<path stroke="#959793" vector-effect="non-scaling-stroke" d="
  M 29.46 58.00
  Q 30.36 55.86 28.47 55.74
  Q 27.24 55.65 27.03 55.62
  Q 25.15 55.32 23.25 55.46
  A 0.81 0.78 8.4 0 0 22.55 55.96
  Q 21.31 59.09 25.50 58.29"
/>
<path stroke="#7a7f79" stroke-opacity="0.996" vector-effect="non-scaling-stroke" d="
  M 25.50 58.29
  Q 23.71 59.65 21.54 58.75"
/>
<path stroke="#b9bfb5" stroke-opacity="0.996" vector-effect="non-scaling-stroke" d="
  M 29.46 58.00
  Q 27.55 58.67 25.50 58.29"
/>
<path stroke="#7e827f" vector-effect="non-scaling-stroke" d="
  M 40.06 33.94
  Q 36.80 30.94 33.06 30.60
  Q 32.55 30.55 33.02 30.78
  Q 38.59 33.50 41.19 38.31
  Q 46.07 47.36 47.26 58.94
  A 0.77 0.71 -87.0 0 0 47.80 59.59
  Q 49.52 60.03 51.77 58.98
  A 0.63 0.63 -18.3 0 0 52.13 58.27
  Q 50.14 48.80 45.63 40.65
  Q 43.84 37.41 40.06 33.94"
/>
<path stroke="#7e827f" vector-effect="non-scaling-stroke" d="
  M 37.31 35.24
  Q 37.04 34.87 36.64 34.65
  Q 35.41 34.01 36.45 35.30
  Q 41.71 41.87 42.99 50.08
  Q 43.43 52.95 43.71 54.37
  Q 44.13 56.51 44.38 58.68
  Q 44.52 59.92 45.31 59.71
  A 0.70 0.56 80.1 0 0 45.70 59.00
  Q 45.33 55.61 44.58 52.28
  Q 43.50 47.45 42.92 45.70
  Q 41.32 40.83 37.31 35.24"
/>
<path stroke="#7e827f" vector-effect="non-scaling-stroke" d="
  M 57.58 58.69
  Q 54.95 57.48 53.22 59.77
  A 1.69 1.24 -73.9 0 1 52.47 60.35
  Q 49.47 61.38 46.32 61.40
  Q 41.27 61.43 41.18 61.43
  Q 33.47 61.92 25.75 61.60
  Q 16.48 61.21 8.08 57.44
  A 1.29 1.25 47.4 0 0 7.17 57.39
  Q 3.86 58.40 5.69 59.48
  Q 14.02 64.41 23.75 64.75
  Q 38.40 65.26 47.97 63.36
  Q 53.03 62.37 57.58 60.24
  Q 59.24 59.46 57.58 58.69"
/>
<path stroke="#7e827f" vector-effect="non-scaling-stroke" d="
  M 63.42 62.65
  Q 62.34 61.25 61.14 60.90
  Q 60.22 60.62 58.62 61.47
  Q 51.25 65.37 42.95 66.10
  Q 37.70 66.56 37.55 66.57
  Q 33.74 66.98 30.32 67.05
  Q 28.57 67.08 30.15 67.83
  Q 34.20 69.76 38.25 70.25
  Q 42.06 70.71 50.75 68.99
  Q 57.52 67.65 63.32 63.37
  A 0.51 0.51 -37.2 0 0 63.42 62.65"
/>
<path stroke="#808582" vector-effect="non-scaling-stroke" d="
  M 11.24 51.90
  Q 9.97 52.70 9.68 55.16
  A 0.75 0.65 -77.5 0 0 10.09 55.91
  L 14.76 57.75
  Q 17.46 58.82 17.17 55.69
  Q 16.79 51.70 18.09 47.71
  A 0.52 0.40 -76.4 0 0 17.80 47.05
  Q 17.43 47.01 17.31 47.56
  Q 16.76 50.08 16.18 52.57
  A 0.69 0.63 -83.5 0 1 15.57 53.10
  Q 13.99 53.16 12.70 52.24
  A 0.72 0.71 26.3 0 1 12.43 51.45
  L 13.83 46.72
  A 0.86 0.59 -66.4 0 0 13.67 45.89
  Q 13.13 45.44 12.86 46.46
  Q 12.25 48.82 11.78 51.19
  A 1.21 0.91 -15.6 0 1 11.24 51.90"
/>
<path stroke="#d04d4d" stroke-opacity="0.992" vector-effect="non-scaling-stroke" d="
  M 85.18 36.14
  Q 84.17 35.45 83.28 36.23
  Q 82.57 36.84 83.50 36.95
  Q 86.93 37.32 85.18 36.14"
/>
<path stroke="#d3595c" stroke-opacity="0.992" vector-effect="non-scaling-stroke" d="
  M 96.57 35.83
  Q 95.20 35.59 95.35 36.52
  A 0.74 0.62 -1.0 0 0 96.00 37.05
  Q 98.64 37.27 97.47 36.25
  Q 97.09 35.92 96.57 35.83"
/>
<path stroke="#d3595c" stroke-opacity="0.992" vector-effect="non-scaling-stroke" d="
  M 102.57 35.83
  Q 101.20 35.59 101.35 36.52
  A 0.74 0.62 -1.0 0 0 102.00 37.05
  Q 104.64 37.27 103.47 36.25
  Q 103.09 35.92 102.57 35.83"
/>
<path stroke="#d3595c" stroke-opacity="0.992" vector-effect="non-scaling-stroke" d="
  M 108.56 35.83
  Q 107.20 35.59 107.35 36.52
  A 0.74 0.62 -1.0 0 0 108.00 37.05
  Q 110.64 37.27 109.47 36.25
  Q 109.09 35.92 108.56 35.83"
/>
<path stroke="#d3595c" stroke-opacity="0.992" vector-effect="non-scaling-stroke" d="
  M 114.72 36.00
  Q 111.60 36.57 114.75 36.95
  A 1.43 1.03 23.0 0 0 115.67 36.74
  Q 116.35 36.25 115.42 36.01
  Q 115.10 35.93 114.72 36.00"
/>
<path stroke="#d3595c" stroke-opacity="0.992" vector-effect="non-scaling-stroke" d="
  M 120.24 35.99
  Q 118.12 36.37 119.89 36.90
  Q 120.24 37.01 120.62 36.94
  Q 123.23 36.46 120.90 36.00
  Q 120.56 35.93 120.24 35.99"
/>
<path stroke="#d04d4d" stroke-opacity="0.992" vector-effect="non-scaling-stroke" d="
  M 125.23 36.43
  A 0.57 0.57 89.5 0 0 125.88 37.08
  Q 129.47 36.60 126.77 35.94
  Q 125.35 35.59 125.23 36.43"
/>
<path stroke="#6b6e6a" vector-effect="non-scaling-stroke" d="
  M 111.2158 50.8162
  A 0.36 0.36 0.0 0 0 110.8539 50.4581
  L 102.4540 50.5021
  A 0.36 0.36 0.0 0 0 102.0959 50.8640
  L 102.1642 63.9038
  A 0.36 0.36 0.0 0 0 102.5261 64.2619
  L 110.9260 64.2179
  A 0.36 0.36 0.0 0 0 111.2841 63.8560
  L 111.2158 50.8162"
/>
<path stroke="#808582" vector-effect="non-scaling-stroke" d="
  M 16.4882 55.5984
  A 1.11 1.11 0.0 0 0 15.7804 54.1972
  L 12.0566 52.9729
  A 1.11 1.11 0.0 0 0 10.6554 53.6806
  L 10.4118 54.4216
  A 1.11 1.11 0.0 0 0 11.1196 55.8228
  L 14.8434 57.0471
  A 1.11 1.11 0.0 0 0 16.2446 56.3394
  L 16.4882 55.5984"
/>
<path stroke="#6b6e6a" vector-effect="non-scaling-stroke" d="
  M 93.7861 50.3792
  A 0.87 0.87 0.0 0 0 92.9192 49.5062
  L 83.6592 49.4739
  A 0.87 0.87 0.0 0 0 82.7862 50.3408
  L 82.7539 59.6008
  A 0.87 0.87 0.0 0 0 83.6208 60.4738
  L 92.8808 60.5061
  A 0.87 0.87 0.0 0 0 93.7538 59.6392
  L 93.7861 50.3792"
/>
<path stroke="#6b6e6a" vector-effect="non-scaling-stroke" d="
  M 130.3734 50.1879
  A 0.59 0.59 0.0 0 0 129.7876 49.5938
  L 120.1478 49.5265
  A 0.59 0.59 0.0 0 0 119.5537 50.1123
  L 119.4866 59.7321
  A 0.59 0.59 0.0 0 0 120.0724 60.3262
  L 129.7122 60.3935
  A 0.59 0.59 0.0 0 0 130.3063 59.8077
  L 130.3734 50.1879"
/>
<path stroke="#6b6e6a" vector-effect="non-scaling-stroke" d="
  M 88.50 59.00
  Q 88.12 58.57 88.32 58.14
  Q 88.48 57.78 88.50 57.70
  Q 89.20 54.53 84.48 55.59
  A 0.86 0.81 -6.3 0 0 83.81 56.38
  L 83.77 58.70
  A 0.72 0.65 10.0 0 0 84.28 59.35
  Q 86.44 60.00 88.50 59.00"
/>
<path stroke="#6b6e6a" vector-effect="non-scaling-stroke" d="
  M 88.50 59.00
  Q 90.44 60.01 92.48 59.36
  A 0.73 0.61 82.5 0 0 92.90 58.69
  L 92.83 51.00
  A 0.51 0.48 -90.0 0 0 92.35 50.49
  L 85.02 50.52
  A 1.03 1.01 6.3 0 0 84.02 51.30
  Q 83.23 54.78 85.20 54.84
  Q 86.63 54.88 86.80 54.90
  Q 88.52 55.09 88.33 53.64
  Q 88.24 52.97 88.24 52.87
  Q 88.16 49.75 89.09 54.07
  A 0.71 0.70 -3.4 0 0 89.71 54.62
  Q 93.56 55.00 89.22 55.42
  A 0.82 0.81 80.7 0 0 88.51 56.42
  Q 88.94 58.36 88.50 59.00"
/>
<path stroke="#6b6e6a" vector-effect="non-scaling-stroke" d="
  M 129.5245 50.8958
  A 0.40 0.40 0.0 0 0 129.1259 50.4944
  L 120.8859 50.4656
  A 0.40 0.40 0.0 0 0 120.4845 50.8642
  L 120.4555 59.1642
  A 0.40 0.40 0.0 0 0 120.8541 59.5656
  L 129.0941 59.5944
  A 0.40 0.40 0.0 0 0 129.4955 59.1958
  L 129.5245 50.8958"
/>
<path stroke="#959793" vector-effect="non-scaling-stroke" d="
  M 124.72 51.89
  Q 124.48 52.57 124.84 52.97
  Q 125.27 53.44 125.33 52.75
  Q 125.37 52.23 125.21 51.85
  Q 124.96 51.24 124.72 51.89"
/>
<path stroke="#959793" vector-effect="non-scaling-stroke" d="
  M 125.00 55.75
  Q 124.56 56.99 124.90 58.21
  Q 125.07 58.81 125.20 58.20
  Q 125.47 56.97 125.00 55.75"
/>
<path stroke="#808582" vector-effect="non-scaling-stroke" d="
  M 125.00 55.75
  Q 126.07 54.91 127.49 55.28
  Q 128.17 55.45 128.46 55.24
  Q 128.99 54.86 128.18 54.81
  L 125.31 54.63
  A 0.56 0.40 1.1 0 0 124.71 55.04
  Q 124.73 55.38 125.00 55.75"
/>
<path stroke="#959793" vector-effect="non-scaling-stroke" d="
  M 121.23 55.27
  Q 121.41 55.46 122.26 55.33
  Q 125.71 54.80 121.81 54.81
  Q 120.79 54.81 121.23 55.27"
/>
<path stroke="#cd272d" stroke-opacity="0.996" vector-effect="non-scaling-stroke" d="
  M 83.25 69.89
  Q 82.90 71.08 84.51 70.84
  A 1.00 1.00 10.2 0 0 85.25 70.33
  Q 86.37 68.29 83.91 69.24
  A 1.16 0.93 -5.6 0 0 83.25 69.89"
/>
<path stroke="#5a5d5a" vector-effect="non-scaling-stroke" d="
  M 134.21 76.50
  A 0.74 0.74 0.0 0 0 133.47 75.76
  L 79.97 75.76
  A 0.74 0.74 0.0 0 0 79.23 76.50
  L 79.23 78.50
  A 0.74 0.74 0.0 0 0 79.97 79.24
  L 133.47 79.24
  A 0.74 0.74 0.0 0 0 134.21 78.50
  L 134.21 76.50"
/>
<path stroke="#6b6e6a" vector-effect="non-scaling-stroke" d="
  M 96.22 81.12
  A 0.37 0.37 0.0 0 0 95.85 80.75
  L 79.51 80.75
  A 0.37 0.37 0.0 0 0 79.14 81.12
  L 79.14 87.38
  A 0.37 0.37 0.0 0 0 79.51 87.75
  L 95.85 87.75
  A 0.37 0.37 0.0 0 0 96.22 87.38
  L 96.22 81.12"
/>
<path stroke="#6b6e6a" vector-effect="non-scaling-stroke" d="
  M 116.24 81.32
  A 0.57 0.57 0.0 0 0 115.67 80.75
  L 97.59 80.75
  A 0.57 0.57 0.0 0 0 97.02 81.32
  L 97.02 81.92
  A 0.57 0.57 0.0 0 0 97.59 82.49
  L 115.67 82.49
  A 0.57 0.57 0.0 0 0 116.24 81.92
  L 116.24 81.32"
/>
<path stroke="#6b6e6a" vector-effect="non-scaling-stroke" d="
  M 134.2444 81.0552
  A 0.31 0.31 0.0 0 0 133.9339 80.7457
  L 117.5339 80.7743
  A 0.31 0.31 0.0 0 0 117.2244 81.0849
  L 117.2356 87.4648
  A 0.31 0.31 0.0 0 0 117.5461 87.7743
  L 133.9461 87.7457
  A 0.31 0.31 0.0 0 0 134.2556 87.4351
  L 134.2444 81.0552"
/>
<path stroke="#6b6e6a" vector-effect="non-scaling-stroke" d="
  M 116.2099 84.3133
  A 0.84 0.84 0.0 0 0 115.3685 83.4747
  L 97.8885 83.5053
  A 0.84 0.84 0.0 0 0 97.0500 84.3467
  L 97.0501 84.4067
  A 0.84 0.84 0.0 0 0 97.8915 85.2453
  L 115.3715 85.2147
  A 0.84 0.84 0.0 0 0 116.2100 84.3733
  L 116.2099 84.3133"
/>
<path stroke="#5a5d5a" vector-effect="non-scaling-stroke" d="
  M 116.2303 86.9535
  A 0.84 0.84 0.0 0 0 115.3933 86.1105
  L 97.8934 86.0495
  A 0.84 0.84 0.0 0 0 97.0504 86.8865
  L 97.0497 87.1065
  A 0.84 0.84 0.0 0 0 97.8867 87.9495
  L 115.3866 88.0105
  A 0.84 0.84 0.0 0 0 116.2296 87.1735
  L 116.2303 86.9535"
/>
</g>
<path fill="#a6aba7" fill-opacity="0.996" d="
  M 136.39 21.49
  L 106.97 4.44
  A 0.86 0.85 -45.3 0 0 106.09 4.45
  L 79.09 20.48
  A 2.06 1.97 -15.8 0 0 78.09 22.18
  L 78.00 31.12
  A 1.01 0.99 -6.4 0 0 79.24 32.09
  Q 81.49 31.57 84.25 31.54
  Q 110.22 31.31 136.23 32.34
  Q 107.03 33.54 79.05 32.96
  Q 77.10 32.92 77.12 31.11
  L 77.25 21.57
  A 0.97 0.84 -17.2 0 1 77.73 20.80
  L 105.81 4.06
  A 1.80 1.69 42.9 0 1 107.56 4.05
  Q 122.45 12.26 136.39 21.49
  Z"
/>
<path fill="#2d3335" d="
  M 136.39 21.49
  L 136.23 32.34
  Q 110.22 31.31 84.25 31.54
  Q 81.49 31.57 79.24 32.09
  A 1.01 0.99 -6.4 0 1 78.00 31.12
  L 78.09 22.18
  A 2.06 1.97 -15.8 0 1 79.09 20.48
  L 106.09 4.45
  A 0.86 0.85 -45.3 0 1 106.97 4.44
  L 136.39 21.49
  Z
  M 106.94 9.25
  L 133.18 24.67
  A 0.51 0.50 21.1 0 0 133.93 24.35
  Q 134.40 22.06 132.78 21.14
  Q 120.23 14.04 107.15 6.30
  A 0.95 0.94 45.3 0 0 106.19 6.29
  Q 93.08 13.83 80.38 21.52
  Q 79.52 22.04 79.28 22.64
  Q 78.92 23.53 79.45 24.35
  A 0.55 0.51 -31.0 0 0 80.18 24.50
  L 106.06 9.26
  A 0.89 0.81 -43.2 0 1 106.94 9.25
  Z
  M 121.79 19.97
  Q 115.00 16.02 107.29 11.43
  A 1.33 1.32 -44.6 0 0 105.94 11.43
  L 80.18 26.51
  A 1.62 1.27 -9.1 0 0 79.53 27.21
  Q 78.89 28.70 79.34 30.28
  A 0.70 0.66 -7.8 0 0 80.00 30.75
  L 133.25 30.75
  A 0.73 0.69 8.9 0 0 133.93 30.28
  Q 134.92 27.52 132.55 26.17
  Q 127.16 23.10 121.79 19.97
  Z"
/>
<path fill="#b1b5b0" d="
  M 106.06 9.26
  L 80.18 24.50
  A 0.55 0.51 -31.0 0 1 79.45 24.35
  Q 78.92 23.53 79.28 22.64
  Q 79.52 22.04 80.38 21.52
  Q 93.08 13.83 106.19 6.29
  A 0.95 0.94 45.3 0 1 107.15 6.30
  Q 120.23 14.04 132.78 21.14
  Q 134.40 22.06 133.93 24.35
  A 0.51 0.50 21.1 0 1 133.18 24.67
  L 106.94 9.25
  A 0.89 0.81 -43.2 0 0 106.06 9.26
  Z"
/>
<path fill="#d3d7cf" d="
  M 121.79 19.97
  Q 127.16 23.10 132.55 26.17
  Q 134.92 27.52 133.93 30.28
  A 0.73 0.69 8.9 0 1 133.25 30.75
  L 80.00 30.75
  A 0.70 0.66 -7.8 0 1 79.34 30.28
  Q 78.89 28.70 79.53 27.21
  A 1.62 1.27 -9.1 0 1 80.18 26.51
  L 105.94 11.43
  A 1.33 1.32 -44.6 0 1 107.29 11.43
  Q 115.00 16.02 121.79 19.97
  Z
  M 117.26 21.66
  A 0.66 0.66 0.0 0 0 116.60 21.00
  L 96.82 21.00
  A 0.66 0.66 0.0 0 0 96.16 21.66
  L 96.16 26.84
  A 0.66 0.66 0.0 0 0 96.82 27.50
  L 116.60 27.50
  A 0.66 0.66 0.0 0 0 117.26 26.84
  L 117.26 21.66
  Z"
/>
<path fill="#2d3335" d="
  M 117.26 26.84
  A 0.66 0.66 0.0 0 1 116.60 27.50
  L 96.82 27.50
  A 0.66 0.66 0.0 0 1 96.16 26.84
  L 96.16 21.66
  A 0.66 0.66 0.0 0 1 96.82 21.00
  L 116.60 21.00
  A 0.66 0.66 0.0 0 1 117.26 21.66
  L 117.26 26.84
  Z
  M 101.0687 22.7534
  A 0.46 0.46 0.0 0 0 100.6168 22.2855
  L 97.7372 22.2352
  A 0.46 0.46 0.0 0 0 97.2693 22.6871
  L 97.2113 26.0066
  A 0.46 0.46 0.0 0 0 97.6632 26.4745
  L 100.5428 26.5248
  A 0.46 0.46 0.0 0 0 101.0107 26.0729
  L 101.0687 22.7534
  Z
  M 111.0059 22.6953
  A 0.43 0.43 0.0 0 0 110.5774 22.2638
  L 102.6975 22.2363
  A 0.43 0.43 0.0 0 0 102.2660 22.6648
  L 102.2541 26.0647
  A 0.43 0.43 0.0 0 0 102.6826 26.4962
  L 110.5625 26.5237
  A 0.43 0.43 0.0 0 0 110.9940 26.0952
  L 111.0059 22.6953
  Z
  M 115.9742 22.5637
  A 0.32 0.32 0.0 0 0 115.6514 22.2466
  L 112.5516 22.2736
  A 0.32 0.32 0.0 0 0 112.2344 22.5964
  L 112.2658 26.1963
  A 0.32 0.32 0.0 0 0 112.5886 26.5134
  L 115.6884 26.4864
  A 0.32 0.32 0.0 0 0 116.0056 26.1636
  L 115.9742 22.5637
  Z"
/>
<rect fill="#d3d7cf" x="-1.90" y="-2.12" transform="translate(99.14,24.38) rotate(1.0)" width="3.80" height="4.24" rx="0.46"/>
<rect fill="#d3d7cf" x="-4.37" y="-2.13" transform="translate(106.63,24.38) rotate(0.2)" width="8.74" height="4.26" rx="0.43"/>
<rect fill="#d3d7cf" x="-1.87" y="-2.12" transform="translate(114.12,24.38) rotate(-0.5)" width="3.74" height="4.24" rx="0.32"/>
<path fill="#565757" d="
  M 35.25 26.96
  Q 34.76 26.88 34.50 27.21
  Q 30.52 26.68 26.54 27.25
  Q 26.48 27.02 26.25 26.96
  Q 30.76 25.99 35.25 26.96
  Z"
/>
<path fill="#9fa79b" fill-opacity="0.988" d="
  M 26.25 26.96
  Q 26.48 27.02 26.54 27.25
  Q 15.00 29.81 10.24 40.09
  Q 9.40 41.90 8.64 45.02
  Q 8.03 47.56 7.41 50.09
  Q 7.35 50.35 7.14 53.45
  Q 6.96 56.09 4.06 57.31
  Q 2.94 57.79 3.01 59.20
  A 1.02 0.85 17.0 0 0 3.50 59.95
  Q 11.50 64.72 20.70 65.97
  Q 23.29 66.33 25.54 67.40
  Q 29.16 69.13 32.95 70.40
  Q 37.60 71.96 42.24 71.70
  Q 50.45 71.25 58.18 68.16
  Q 62.12 66.58 64.68 63.72
  A 1.45 1.34 -51.2 0 0 64.54 61.63
  L 58.43 57.33
  A 2.72 1.67 20.3 0 1 57.40 56.02
  Q 55.68 49.52 53.96 44.68
  Q 48.97 30.67 34.50 27.21
  Q 34.76 26.88 35.25 26.96
  Q 47.75 29.59 53.20 41.13
  Q 56.44 48.00 57.71 55.29
  A 2.45 1.94 16.5 0 0 58.73 56.74
  L 64.90 60.96
  Q 66.97 62.37 65.12 64.28
  Q 60.46 69.07 53.06 70.56
  Q 45.87 72.01 40.62 72.26
  Q 36.55 72.45 32.55 71.08
  Q 28.65 69.74 24.99 67.74
  Q 23.41 66.88 21.62 66.74
  Q 11.77 65.95 3.38 60.59
  Q 1.52 59.40 2.32 57.97
  Q 2.61 57.45 4.14 56.59
  Q 5.03 56.09 5.69 55.30
  Q 6.23 54.65 6.30 53.52
  Q 7.00 41.83 13.31 33.81
  Q 17.78 28.15 26.25 26.96
  Z"
/>
<path fill="#282d2e" d="
  M 34.50 27.21
  Q 48.97 30.67 53.96 44.68
  Q 55.68 49.52 57.40 56.02
  A 2.72 1.67 20.3 0 0 58.43 57.33
  L 64.54 61.63
  A 1.45 1.34 -51.2 0 1 64.68 63.72
  Q 62.12 66.58 58.18 68.16
  Q 50.45 71.25 42.24 71.70
  Q 37.60 71.96 32.95 70.40
  Q 29.16 69.13 25.54 67.40
  Q 23.29 66.33 20.70 65.97
  Q 11.50 64.72 3.50 59.95
  A 1.02 0.85 17.0 0 1 3.01 59.20
  Q 2.94 57.79 4.06 57.31
  Q 6.96 56.09 7.14 53.45
  Q 7.35 50.35 7.41 50.09
  Q 8.03 47.56 8.64 45.02
  Q 9.40 41.90 10.24 40.09
  Q 15.00 29.81 26.54 27.25
  Q 30.52 26.68 34.50 27.21
  Z
  M 39.69 31.81
  Q 40.96 32.55 43.49 35.51
  Q 45.24 37.55 46.54 39.84
  Q 51.02 47.74 53.31 56.58
  A 0.76 0.65 83.0 0 0 53.92 57.14
  Q 54.66 57.18 55.11 56.67
  Q 55.54 56.19 55.39 55.24
  Q 54.23 47.57 50.52 40.74
  Q 45.91 32.21 36.68 29.31
  Q 36.48 29.24 36.30 29.28
  Q 35.65 29.40 36.35 29.83
  Q 38.01 30.83 39.69 31.81
  Z
  M 21.25 59.71
  L 30.00 60.21
  L 42.31 59.75
  A 0.50 0.48 86.1 0 0 42.77 59.20
  Q 42.16 53.05 40.93 47.21
  Q 37.81 32.31 23.38 30.67
  Q 21.19 30.42 19.40 31.54
  Q 12.84 35.67 10.50 43.75
  Q 8.64 50.18 8.34 55.45
  A 0.80 0.76 16.3 0 0 8.76 56.18
  Q 14.60 59.23 21.25 59.71
  Z
  M 40.06 33.94
  Q 36.80 30.94 33.06 30.60
  Q 32.55 30.55 33.02 30.78
  Q 38.59 33.50 41.19 38.31
  Q 46.07 47.36 47.26 58.94
  A 0.77 0.71 -87.0 0 0 47.80 59.59
  Q 49.52 60.03 51.77 58.98
  A 0.63 0.63 -18.3 0 0 52.13 58.27
  Q 50.14 48.80 45.63 40.65
  Q 43.84 37.41 40.06 33.94
  Z
  M 37.31 35.24
  Q 37.04 34.87 36.64 34.65
  Q 35.41 34.01 36.45 35.30
  Q 41.71 41.87 42.99 50.08
  Q 43.43 52.95 43.71 54.37
  Q 44.13 56.51 44.38 58.68
  Q 44.52 59.92 45.31 59.71
  A 0.70 0.56 80.1 0 0 45.70 59.00
  Q 45.33 55.61 44.58 52.28
  Q 43.50 47.45 42.92 45.70
  Q 41.32 40.83 37.31 35.24
  Z
  M 57.58 58.69
  Q 54.95 57.48 53.22 59.77
  A 1.69 1.24 -73.9 0 1 52.47 60.35
  Q 49.47 61.38 46.32 61.40
  Q 41.27 61.43 41.18 61.43
  Q 33.47 61.92 25.75 61.60
  Q 16.48 61.21 8.08 57.44
  A 1.29 1.25 47.4 0 0 7.17 57.39
  Q 3.86 58.40 5.69 59.48
  Q 14.02 64.41 23.75 64.75
  Q 38.40 65.26 47.97 63.36
  Q 53.03 62.37 57.58 60.24
  Q 59.24 59.46 57.58 58.69
  Z
  M 63.42 62.65
  Q 62.34 61.25 61.14 60.90
  Q 60.22 60.62 58.62 61.47
  Q 51.25 65.37 42.95 66.10
  Q 37.70 66.56 37.55 66.57
  Q 33.74 66.98 30.32 67.05
  Q 28.57 67.08 30.15 67.83
  Q 34.20 69.76 38.25 70.25
  Q 42.06 70.71 50.75 68.99
  Q 57.52 67.65 63.32 63.37
  A 0.51 0.51 -37.2 0 0 63.42 62.65
  Z"
/>
<path fill="#d3d7cf" d="
  M 39.69 31.81
  Q 38.01 30.83 36.35 29.83
  Q 35.65 29.40 36.30 29.28
  Q 36.48 29.24 36.68 29.31
  Q 45.91 32.21 50.52 40.74
  Q 54.23 47.57 55.39 55.24
  Q 55.54 56.19 55.11 56.67
  Q 54.66 57.18 53.92 57.14
  A 0.76 0.65 83.0 0 1 53.31 56.58
  Q 51.02 47.74 46.54 39.84
  Q 45.24 37.55 43.49 35.51
  Q 40.96 32.55 39.69 31.81
  Z"
/>
<path fill="#e09999" fill-opacity="0.980" d="
  M 74.04 30.77
  Q 72.41 32.41 72.63 34.94
  A 0.61 0.49 84.1 0 1 72.21 35.58
  L 69.00 36.02
  A 1.10 0.52 -0.3 0 0 68.21 36.40
  Q 67.80 37.14 69.24 36.92
  Q 73.58 36.25 73.00 40.50
  Q 72.88 41.41 73.23 41.74
  A 0.50 0.39 -58.9 0 0 73.92 41.48
  Q 74.50 40.14 74.15 38.21
  A 0.82 0.81 -11.4 0 1 74.78 37.27
  Q 76.50 36.90 77.93 36.98
  Q 78.29 37.00 78.54 36.90
  Q 79.52 36.50 78.56 36.11
  Q 78.29 36.00 77.91 36.02
  Q 76.34 36.08 74.80 35.79
  A 0.65 0.53 8.4 0 1 74.26 35.20
  L 74.54 31.25
  Q 74.91 31.92 74.75 32.75
  Q 74.17 35.73 77.00 35.25
  Q 78.75 34.95 79.53 36.30
  A 0.76 0.76 48.6 0 1 79.48 37.16
  Q 78.55 38.39 76.75 38.00
  Q 74.19 37.44 74.89 40.64
  A 1.81 1.80 -14.0 0 1 73.61 42.76
  Q 71.35 43.38 72.08 39.61
  A 1.37 1.37 89.2 0 0 70.44 38.01
  Q 68.77 38.38 67.46 37.49
  A 0.87 0.86 20.0 0 1 67.08 36.69
  Q 67.26 34.94 69.25 35.25
  Q 72.41 35.74 72.15 33.08
  Q 72.03 31.94 72.20 31.43
  Q 72.77 29.75 74.04 30.77
  Z"
/>
<path fill="#d3d7cf" d="
  M 30.00 60.21
  L 30.46 59.00
  Q 31.42 56.67 30.07 54.88
  A 1.76 1.25 33.4 0 1 29.73 54.01
  Q 29.66 51.27 29.97 48.54
  Q 30.00 48.20 29.93 47.97
  Q 29.78 47.50 29.48 47.55
  A 0.85 0.54 89.4 0 0 29.01 48.31
  L 28.69 54.19
  A 0.51 0.49 -88.2 0 1 28.19 54.68
  L 24.68 54.58
  A 0.55 0.54 88.8 0 1 24.15 54.06
  Q 23.98 51.41 24.12 48.74
  Q 24.25 46.13 23.59 48.00
  Q 23.50 48.24 23.50 48.50
  Q 23.52 51.07 22.93 53.57
  A 2.02 1.37 -26.1 0 1 22.45 54.41
  Q 20.74 56.21 21.54 58.75
  Q 21.56 59.30 21.25 59.71
  Q 14.60 59.23 8.76 56.18
  A 0.80 0.76 16.3 0 1 8.34 55.45
  Q 8.64 50.18 10.50 43.75
  Q 12.84 35.67 19.40 31.54
  Q 21.19 30.42 23.38 30.67
  Q 37.81 32.31 40.93 47.21
  Q 42.16 53.05 42.77 59.20
  A 0.50 0.48 86.1 0 1 42.31 59.75
  L 30.00 60.21
  Z
  M 11.24 51.90
  Q 9.97 52.70 9.68 55.16
  A 0.75 0.65 -77.5 0 0 10.09 55.91
  L 14.76 57.75
  Q 17.46 58.82 17.17 55.69
  Q 16.79 51.70 18.09 47.71
  A 0.52 0.40 -76.4 0 0 17.80 47.05
  Q 17.43 47.01 17.31 47.56
  Q 16.76 50.08 16.18 52.57
  A 0.69 0.63 -83.5 0 1 15.57 53.10
  Q 13.99 53.16 12.70 52.24
  A 0.72 0.71 26.3 0 1 12.43 51.45
  L 13.83 46.72
  A 0.86 0.59 -66.4 0 0 13.67 45.89
  Q 13.13 45.44 12.86 46.46
  Q 12.25 48.82 11.78 51.19
  A 1.21 0.91 -15.6 0 1 11.24 51.90
  Z"
/>
<path fill="#d3d7cf" d="
  M 40.06 33.94
  Q 43.84 37.41 45.63 40.65
  Q 50.14 48.80 52.13 58.27
  A 0.63 0.63 -18.3 0 1 51.77 58.98
  Q 49.52 60.03 47.80 59.59
  A 0.77 0.71 -87.0 0 1 47.26 58.94
  Q 46.07 47.36 41.19 38.31
  Q 38.59 33.50 33.02 30.78
  Q 32.55 30.55 33.06 30.60
  Q 36.80 30.94 40.06 33.94
  Z"
/>
<path fill="#c61a20" d="
  M 74.04 30.77
  Q 74.59 31.12 74.54 31.25
  L 74.26 35.20
  A 0.65 0.53 8.4 0 0 74.80 35.79
  Q 76.34 36.08 77.91 36.02
  Q 78.29 36.00 78.56 36.11
  Q 79.52 36.50 78.54 36.90
  Q 78.29 37.00 77.93 36.98
  Q 76.50 36.90 74.78 37.27
  A 0.82 0.81 -11.4 0 0 74.15 38.21
  Q 74.50 40.14 73.92 41.48
  A 0.50 0.39 -58.9 0 1 73.23 41.74
  Q 72.88 41.41 73.00 40.50
  Q 73.58 36.25 69.24 36.92
  Q 67.80 37.14 68.21 36.40
  A 1.10 0.52 -0.3 0 1 69.00 36.02
  L 72.21 35.58
  A 0.61 0.49 84.1 0 0 72.63 34.94
  Q 72.41 32.41 74.04 30.77
  Z"
/>
<path fill="#d3d7cf" d="
  M 37.31 35.24
  Q 41.32 40.83 42.92 45.70
  Q 43.50 47.45 44.58 52.28
  Q 45.33 55.61 45.70 59.00
  A 0.70 0.56 80.1 0 1 45.31 59.71
  Q 44.52 59.92 44.38 58.68
  Q 44.13 56.51 43.71 54.37
  Q 43.43 52.95 42.99 50.08
  Q 41.71 41.87 36.45 35.30
  Q 35.41 34.01 36.64 34.65
  Q 37.04 34.87 37.31 35.24
  Z"
/>
<path fill="#da827b" fill-opacity="0.980" d="
  M 85.56 35.44
  Q 87.29 36.00 86.52 37.16
  Q 86.10 37.79 85.24 37.95
  Q 84.12 38.15 83.04 37.85
  A 0.82 0.80 -86.7 0 1 82.46 37.19
  Q 81.95 34.26 85.56 35.44
  Z
  M 85.18 36.14
  Q 84.17 35.45 83.28 36.23
  Q 82.57 36.84 83.50 36.95
  Q 86.93 37.32 85.18 36.14
  Z"
/>
<path fill="#e09999" fill-opacity="0.980" d="
  M 92.00 35.75
  Q 90.27 35.30 89.34 36.41
  A 0.39 0.37 28.7 0 0 89.53 37.00
  Q 91.61 37.72 92.00 35.75
  Q 93.70 37.53 91.02 38.09
  Q 88.12 38.70 88.26 36.31
  A 0.79 0.78 -9.8 0 1 88.76 35.61
  Q 90.40 34.96 92.00 35.75
  Z"
/>
<path fill="#e09999" fill-opacity="0.980" d="
  M 97.56 35.44
  Q 98.92 35.75 98.61 36.96
  A 1.05 0.92 -5.2 0 1 97.97 37.63
  Q 96.67 38.12 95.25 38.04
  A 0.75 0.74 82.1 0 1 94.57 37.52
  Q 93.59 34.52 97.56 35.44
  Z
  M 96.57 35.83
  Q 95.20 35.59 95.35 36.52
  A 0.74 0.62 -1.0 0 0 96.00 37.05
  Q 98.64 37.27 97.47 36.25
  Q 97.09 35.92 96.57 35.83
  Z"
/>
<path fill="#e09999" fill-opacity="0.980" d="
  M 104.26 36.03
  Q 105.69 37.49 102.77 38.08
  Q 100.08 38.62 100.25 36.30
  A 0.85 0.82 -9.6 0 1 100.77 35.60
  Q 101.69 35.23 102.65 35.29
  Q 103.60 35.35 104.26 36.03
  Z
  M 102.57 35.83
  Q 101.20 35.59 101.35 36.52
  A 0.74 0.62 -1.0 0 0 102.00 37.05
  Q 104.64 37.27 103.47 36.25
  Q 103.09 35.92 102.57 35.83
  Z"
/>
<path fill="#e09999" fill-opacity="0.980" d="
  M 110.33 36.14
  Q 111.43 37.52 107.97 38.14
  A 1.43 1.42 84.3 0 1 106.30 36.77
  Q 106.25 34.85 108.54 35.20
  Q 109.74 35.39 110.33 36.14
  Z
  M 108.56 35.83
  Q 107.20 35.59 107.35 36.52
  A 0.74 0.62 -1.0 0 0 108.00 37.05
  Q 110.64 37.27 109.47 36.25
  Q 109.09 35.92 108.56 35.83
  Z"
/>
<path fill="#e09999" fill-opacity="0.980" d="
  M 116.33 36.14
  Q 117.43 37.52 113.97 38.14
  A 1.43 1.42 84.3 0 1 112.30 36.77
  Q 112.25 34.85 114.54 35.20
  Q 115.74 35.39 116.33 36.14
  Z
  M 114.72 36.00
  Q 111.60 36.57 114.75 36.95
  A 1.43 1.03 23.0 0 0 115.67 36.74
  Q 116.35 36.25 115.42 36.01
  Q 115.10 35.93 114.72 36.00
  Z"
/>
<path fill="#e09999" fill-opacity="0.980" d="
  M 121.56 35.44
  Q 123.35 35.99 122.52 37.17
  Q 122.09 37.79 121.24 37.95
  Q 120.12 38.15 119.04 37.85
  A 0.81 0.80 3.4 0 1 118.46 37.20
  Q 117.97 34.34 121.56 35.44
  Z
  M 120.24 35.99
  Q 118.12 36.37 119.89 36.90
  Q 120.24 37.01 120.62 36.94
  Q 123.23 36.46 120.90 36.00
  Q 120.56 35.93 120.24 35.99
  Z"
/>
<path fill="#da827b" fill-opacity="0.980" d="
  M 127.31 35.44
  Q 131.03 36.38 127.75 37.75
  Q 124.40 39.15 124.30 36.32
  A 0.77 0.74 78.9 0 1 124.76 35.60
  Q 125.99 35.10 127.31 35.44
  Z
  M 125.23 36.43
  A 0.57 0.57 89.5 0 0 125.88 37.08
  Q 129.47 36.60 126.77 35.94
  Q 125.35 35.59 125.23 36.43
  Z"
/>
<path fill="#da827b" fill-opacity="0.980" d="
  M 134.04 35.75
  Q 133.21 36.19 132.26 35.98
  Q 131.40 35.79 131.25 36.25
  A 0.66 0.51 18.4 0 0 131.72 36.94
  Q 133.34 37.48 134.56 36.13
  Q 134.07 38.62 131.40 38.02
  Q 130.57 37.83 130.23 37.20
  Q 129.70 36.22 130.81 35.56
  Q 132.19 34.75 134.04 35.75
  Z"
/>
<path fill="#c61a20" d="
  M 85.18 36.14
  Q 86.93 37.32 83.50 36.95
  Q 82.57 36.84 83.28 36.23
  Q 84.17 35.45 85.18 36.14
  Z"
/>
<path fill="#c61a20" d="
  M 92.00 35.75
  Q 91.61 37.72 89.53 37.00
  A 0.39 0.37 28.7 0 1 89.34 36.41
  Q 90.27 35.30 92.00 35.75
  Z"
/>
<path fill="#c61a20" d="
  M 97.47 36.25
  Q 98.64 37.27 96.00 37.05
  A 0.74 0.62 -1.0 0 1 95.35 36.52
  Q 95.20 35.59 96.57 35.83
  Q 97.09 35.92 97.47 36.25
  Z"
/>
<path fill="#c61a20" d="
  M 103.47 36.25
  Q 104.64 37.27 102.00 37.05
  A 0.74 0.62 -1.0 0 1 101.35 36.52
  Q 101.20 35.59 102.57 35.83
  Q 103.09 35.92 103.47 36.25
  Z"
/>
<path fill="#c61a20" d="
  M 109.47 36.25
  Q 110.64 37.27 108.00 37.05
  A 0.74 0.62 -1.0 0 1 107.35 36.52
  Q 107.20 35.59 108.56 35.83
  Q 109.09 35.92 109.47 36.25
  Z"
/>
<path fill="#c61a20" d="
  M 115.42 36.01
  Q 116.35 36.25 115.67 36.74
  A 1.43 1.03 23.0 0 1 114.75 36.95
  Q 111.60 36.57 114.72 36.00
  Q 115.10 35.93 115.42 36.01
  Z"
/>
<path fill="#c61a20" d="
  M 120.90 36.00
  Q 123.23 36.46 120.62 36.94
  Q 120.24 37.01 119.89 36.90
  Q 118.12 36.37 120.24 35.99
  Q 120.56 35.93 120.90 36.00
  Z"
/>
<path fill="#c61a20" d="
  M 134.04 35.75
  Q 134.15 35.74 134.56 36.13
  Q 133.34 37.48 131.72 36.94
  A 0.66 0.51 18.4 0 1 131.25 36.25
  Q 131.40 35.79 132.26 35.98
  Q 133.21 36.19 134.04 35.75
  Z"
/>
<path fill="#c61a20" d="
  M 125.23 36.43
  Q 125.35 35.59 126.77 35.94
  Q 129.47 36.60 125.88 37.08
  A 0.57 0.57 88.4 0 1 125.23 36.43
  Z"
/>
<path fill="#a6aba7" fill-opacity="0.996" d="
  M 136.10 40.58
  Q 130.86 41.71 125.75 41.29
  L 78.77 41.25
  A 0.52 0.51 0.0 0 0 78.25 41.76
  L 78.29 65.75
  Q 78.24 66.00 77.55 66.18
  Q 76.54 53.48 77.03 41.86
  A 1.61 1.61 -88.9 0 1 78.64 40.31
  L 136.10 40.58
  Z"
/>
<path fill="#030504" d="
  M 125.75 41.29
  Q 129.49 41.82 131.00 41.50
  Q 133.06 41.07 132.25 42.46
  Q 107.10 42.53 81.95 42.50
  Q 81.84 42.50 80.56 42.39
  Q 78.60 42.23 79.25 44.25
  A 2.38 1.18 75.8 0 0 80.75 46.00
  L 133.75 45.96
  Q 134.38 46.96 133.60 47.43
  L 79.81 47.31
  A 0.51 0.50 -0.6 0 0 79.30 47.82
  L 79.41 63.57
  A 0.54 0.52 0.0 0 0 79.94 64.08
  L 100.45 64.20
  A 0.53 0.52 0.6 0 0 100.98 63.69
  L 101.21 50.34
  A 0.86 0.81 -89.3 0 1 102.02 49.50
  L 111.36 49.50
  A 0.65 0.61 -0.4 0 1 112.01 50.10
  L 112.17 63.68
  A 0.51 0.48 -90.0 0 0 112.65 64.19
  L 133.34 64.12
  Q 133.86 65.77 131.75 65.75
  Q 105.02 65.55 78.29 65.75
  L 78.25 41.76
  A 0.52 0.51 0.0 0 1 78.77 41.25
  L 125.75 41.29
  Z
  M 111.2158 50.8162
  A 0.36 0.36 0.0 0 0 110.8539 50.4581
  L 102.4540 50.5021
  A 0.36 0.36 0.0 0 0 102.0959 50.8640
  L 102.1642 63.9038
  A 0.36 0.36 0.0 0 0 102.5261 64.2619
  L 110.9260 64.2179
  A 0.36 0.36 0.0 0 0 111.2841 63.8560
  L 111.2158 50.8162
  Z"
/>
<path fill="#2d3335" d="
  M 136.10 40.58
  Q 136.35 52.16 136.26 62.77
  Q 136.26 62.85 136.35 64.22
  Q 136.49 66.52 134.20 66.35
  Q 132.89 66.25 132.80 66.25
  Q 105.41 66.30 77.55 66.18
  Q 78.24 66.00 78.29 65.75
  Q 105.02 65.55 131.75 65.75
  Q 133.86 65.77 133.34 64.12
  Q 134.85 55.78 133.60 47.43
  Q 134.38 46.96 133.75 45.96
  Q 134.03 45.42 134.04 44.82
  Q 134.06 44.10 134.11 43.69
  Q 134.28 42.01 132.25 42.46
  Q 133.06 41.07 131.00 41.50
  Q 129.49 41.82 125.75 41.29
  Q 130.86 41.71 136.10 40.58
  Z"
/>
<path fill="#b1b5b0" d="
  M 132.25 42.46
  Q 134.28 42.01 134.11 43.69
  Q 134.06 44.10 134.04 44.82
  Q 134.03 45.42 133.75 45.96
  L 80.75 46.00
  A 2.38 1.18 75.8 0 1 79.25 44.25
  Q 78.60 42.23 80.56 42.39
  Q 81.84 42.50 81.95 42.50
  Q 107.10 42.53 132.25 42.46
  Z"
/>
<path fill="#2d3335" d="
  M 11.78 51.19
  Q 12.25 48.82 12.86 46.46
  Q 13.13 45.44 13.67 45.89
  A 0.86 0.59 -66.4 0 1 13.83 46.72
  L 12.43 51.45
  A 0.72 0.71 26.3 0 0 12.70 52.24
  Q 13.99 53.16 15.57 53.10
  A 0.69 0.63 -83.5 0 0 16.18 52.57
  Q 16.76 50.08 17.31 47.56
  Q 17.43 47.01 17.80 47.05
  A 0.52 0.40 -76.4 0 1 18.09 47.71
  Q 16.79 51.70 17.17 55.69
  Q 17.46 58.82 14.76 57.75
  L 10.09 55.91
  A 0.75 0.65 -77.5 0 1 9.68 55.16
  Q 9.97 52.70 11.24 51.90
  A 1.21 0.91 -15.6 0 0 11.78 51.19
  Z
  M 16.4882 55.5984
  A 1.11 1.11 0.0 0 0 15.7804 54.1972
  L 12.0566 52.9729
  A 1.11 1.11 0.0 0 0 10.6554 53.6806
  L 10.4118 54.4216
  A 1.11 1.11 0.0 0 0 11.1196 55.8228
  L 14.8434 57.0471
  A 1.11 1.11 0.0 0 0 16.2446 56.3394
  L 16.4882 55.5984
  Z"
/>
<path fill="#565757" d="
  M 30.46 59.00
  Q 29.38 59.12 29.46 58.00
  Q 30.36 55.86 28.47 55.74
  Q 27.24 55.65 27.03 55.62
  Q 25.15 55.32 23.25 55.46
  A 0.81 0.78 8.4 0 0 22.55 55.96
  Q 21.31 59.09 25.50 58.29
  Q 23.71 59.65 21.54 58.75
  Q 20.74 56.21 22.45 54.41
  A 2.02 1.37 -26.1 0 0 22.93 53.57
  Q 23.52 51.07 23.50 48.50
  Q 23.50 48.24 23.59 48.00
  Q 24.25 46.13 24.12 48.74
  Q 23.98 51.41 24.15 54.06
  A 0.55 0.54 88.8 0 0 24.68 54.58
  L 28.19 54.68
  A 0.51 0.49 -88.2 0 0 28.69 54.19
  L 29.01 48.31
  A 0.85 0.54 89.4 0 1 29.48 47.55
  Q 29.78 47.50 29.93 47.97
  Q 30.00 48.20 29.97 48.54
  Q 29.66 51.27 29.73 54.01
  A 1.76 1.25 33.4 0 0 30.07 54.88
  Q 31.42 56.67 30.46 59.00
  Z"
/>
<path fill="#d3d7cf" d="
  M 133.60 47.43
  Q 134.85 55.78 133.34 64.12
  L 112.65 64.19
  A 0.51 0.48 90.0 0 1 112.17 63.68
  L 112.01 50.10
  A 0.65 0.61 -0.4 0 0 111.36 49.50
  L 102.02 49.50
  A 0.86 0.81 -89.3 0 0 101.21 50.34
  L 100.98 63.69
  A 0.53 0.52 0.6 0 1 100.45 64.20
  L 79.94 64.08
  A 0.54 0.52 0.0 0 1 79.41 63.57
  L 79.30 47.82
  A 0.51 0.50 -0.6 0 1 79.81 47.31
  L 133.60 47.43
  Z
  M 93.7861 50.3792
  A 0.87 0.87 0.0 0 0 92.9192 49.5062
  L 83.6592 49.4739
  A 0.87 0.87 0.0 0 0 82.7862 50.3408
  L 82.7539 59.6008
  A 0.87 0.87 0.0 0 0 83.6208 60.4738
  L 92.8808 60.5061
  A 0.87 0.87 0.0 0 0 93.7538 59.6392
  L 93.7861 50.3792
  Z
  M 130.3734 50.1879
  A 0.59 0.59 0.0 0 0 129.7876 49.5938
  L 120.1478 49.5265
  A 0.59 0.59 0.0 0 0 119.5537 50.1123
  L 119.4866 59.7321
  A 0.59 0.59 0.0 0 0 120.0724 60.3262
  L 129.7122 60.3935
  A 0.59 0.59 0.0 0 0 130.3063 59.8077
  L 130.3734 50.1879
  Z"
/>
<path fill="#030504" d="
  M 93.7538 59.6392
  A 0.87 0.87 0.0 0 1 92.8808 60.5061
  L 83.6208 60.4738
  A 0.87 0.87 0.0 0 1 82.7539 59.6008
  L 82.7862 50.3408
  A 0.87 0.87 0.0 0 1 83.6592 49.4739
  L 92.9192 49.5062
  A 0.87 0.87 0.0 0 1 93.7861 50.3792
  L 93.7538 59.6392
  Z
  M 88.50 59.00
  Q 88.12 58.57 88.32 58.14
  Q 88.48 57.78 88.50 57.70
  Q 89.20 54.53 84.48 55.59
  A 0.86 0.81 -6.3 0 0 83.81 56.38
  L 83.77 58.70
  A 0.72 0.65 10.0 0 0 84.28 59.35
  Q 86.44 60.00 88.50 59.00
  Q 90.44 60.01 92.48 59.36
  A 0.73 0.61 82.5 0 0 92.90 58.69
  L 92.83 51.00
  A 0.51 0.48 -90.0 0 0 92.35 50.49
  L 85.02 50.52
  A 1.03 1.01 6.3 0 0 84.02 51.30
  Q 83.23 54.78 85.20 54.84
  Q 86.63 54.88 86.80 54.90
  Q 88.52 55.09 88.33 53.64
  Q 88.24 52.97 88.24 52.87
  Q 88.16 49.75 89.09 54.07
  A 0.71 0.70 -3.4 0 0 89.71 54.62
  Q 93.56 55.00 89.22 55.42
  A 0.82 0.81 80.7 0 0 88.51 56.42
  Q 88.94 58.36 88.50 59.00
  Z"
/>
<path fill="#030504" d="
  M 130.3063 59.8077
  A 0.59 0.59 0.0 0 1 129.7122 60.3935
  L 120.0724 60.3262
  A 0.59 0.59 0.0 0 1 119.4866 59.7321
  L 119.5537 50.1123
  A 0.59 0.59 0.0 0 1 120.1478 49.5265
  L 129.7876 49.5938
  A 0.59 0.59 0.0 0 1 130.3734 50.1879
  L 130.3063 59.8077
  Z
  M 129.5245 50.8958
  A 0.40 0.40 0.0 0 0 129.1259 50.4944
  L 120.8859 50.4656
  A 0.40 0.40 0.0 0 0 120.4845 50.8642
  L 120.4555 59.1642
  A 0.40 0.40 0.0 0 0 120.8541 59.5656
  L 129.0941 59.5944
  A 0.40 0.40 0.0 0 0 129.4955 59.1958
  L 129.5245 50.8958
  Z"
/>
<rect fill="#d3d7cf" x="-4.56" y="-6.88" transform="translate(106.69,57.36) rotate(-0.3)" width="9.12" height="13.76" rx="0.36"/>
<path fill="#d3d7cf" d="
  M 129.4955 59.1958
  A 0.40 0.40 0.0 0 1 129.0941 59.5944
  L 120.8541 59.5656
  A 0.40 0.40 0.0 0 1 120.4555 59.1642
  L 120.4845 50.8642
  A 0.40 0.40 0.0 0 1 120.8859 50.4656
  L 129.1259 50.4944
  A 0.40 0.40 0.0 0 1 129.5245 50.8958
  L 129.4955 59.1958
  Z
  M 124.72 51.89
  Q 124.48 52.57 124.84 52.97
  Q 125.27 53.44 125.33 52.75
  Q 125.37 52.23 125.21 51.85
  Q 124.96 51.24 124.72 51.89
  Z
  M 125.00 55.75
  Q 124.56 56.99 124.90 58.21
  Q 125.07 58.81 125.20 58.20
  Q 125.47 56.97 125.00 55.75
  Q 126.07 54.91 127.49 55.28
  Q 128.17 55.45 128.46 55.24
  Q 128.99 54.86 128.18 54.81
  L 125.31 54.63
  A 0.56 0.40 1.1 0 0 124.71 55.04
  Q 124.73 55.38 125.00 55.75
  Z
  M 121.23 55.27
  Q 121.41 55.46 122.26 55.33
  Q 125.71 54.80 121.81 54.81
  Q 120.79 54.81 121.23 55.27
  Z"
/>
<path fill="#d3d7cf" d="
  M 88.50 59.00
  Q 88.94 58.36 88.51 56.42
  A 0.82 0.81 80.7 0 1 89.22 55.42
  Q 93.56 55.00 89.71 54.62
  A 0.71 0.70 -3.4 0 1 89.09 54.07
  Q 88.16 49.75 88.24 52.87
  Q 88.24 52.97 88.33 53.64
  Q 88.52 55.09 86.80 54.90
  Q 86.63 54.88 85.20 54.84
  Q 83.23 54.78 84.02 51.30
  A 1.03 1.01 6.3 0 1 85.02 50.52
  L 92.35 50.49
  A 0.51 0.48 90.0 0 1 92.83 51.00
  L 92.90 58.69
  A 0.73 0.61 82.5 0 1 92.48 59.36
  Q 90.44 60.01 88.50 59.00
  Z"
/>
<path fill="#565757" d="
  M 125.21 51.85
  Q 125.37 52.23 125.33 52.75
  Q 125.27 53.44 124.84 52.97
  Q 124.48 52.57 124.72 51.89
  Q 124.96 51.24 125.21 51.85
  Z"
/>
<rect fill="#d3d7cf" x="-3.07" y="-1.50" transform="translate(13.45,55.01) rotate(18.2)" width="6.14" height="3.00" rx="1.11"/>
<path fill="#2d3335" d="
  M 125.00 55.75
  Q 124.73 55.38 124.71 55.04
  A 0.56 0.40 1.1 0 1 125.31 54.63
  L 128.18 54.81
  Q 128.99 54.86 128.46 55.24
  Q 128.17 55.45 127.49 55.28
  Q 126.07 54.91 125.00 55.75
  Z"
/>
<path fill="#565757" d="
  M 121.81 54.81
  Q 125.71 54.80 122.26 55.33
  Q 121.41 55.46 121.23 55.27
  Q 120.79 54.81 121.81 54.81
  Z"
/>
<path fill="#d3d7cf" d="
  M 29.46 58.00
  Q 27.55 58.67 25.50 58.29
  Q 21.31 59.09 22.55 55.96
  A 0.81 0.78 8.4 0 1 23.25 55.46
  Q 25.15 55.32 27.03 55.62
  Q 27.24 55.65 28.47 55.74
  Q 30.36 55.86 29.46 58.00
  Z"
/>
<path fill="#d3d7cf" d="
  M 88.50 59.00
  Q 86.44 60.00 84.28 59.35
  A 0.72 0.65 10.0 0 1 83.77 58.70
  L 83.81 56.38
  A 0.86 0.81 -6.3 0 1 84.48 55.59
  Q 89.20 54.53 88.50 57.70
  Q 88.48 57.78 88.32 58.14
  Q 88.12 58.57 88.50 59.00
  Z"
/>
<path fill="#565757" d="
  M 125.00 55.75
  Q 125.47 56.97 125.20 58.20
  Q 125.07 58.81 124.90 58.21
  Q 124.56 56.99 125.00 55.75
  Z"
/>
<path fill="#d3d7cf" d="
  M 57.58 58.69
  Q 59.24 59.46 57.58 60.24
  Q 53.03 62.37 47.97 63.36
  Q 38.40 65.26 23.75 64.75
  Q 14.02 64.41 5.69 59.48
  Q 3.86 58.40 7.17 57.39
  A 1.29 1.25 47.4 0 1 8.08 57.44
  Q 16.48 61.21 25.75 61.60
  Q 33.47 61.92 41.18 61.43
  Q 41.27 61.43 46.32 61.40
  Q 49.47 61.38 52.47 60.35
  A 1.69 1.24 -73.9 0 0 53.22 59.77
  Q 54.95 57.48 57.58 58.69
  Z"
/>
<path fill="#9fa79b" fill-opacity="0.988" d="
  M 29.46 58.00
  Q 29.38 59.12 30.46 59.00
  L 30.00 60.21
  L 21.25 59.71
  Q 21.56 59.30 21.54 58.75
  Q 23.71 59.65 25.50 58.29
  Q 27.55 58.67 29.46 58.00
  Z"
/>
<path fill="#d3d7cf" d="
  M 63.42 62.65
  A 0.51 0.51 -37.2 0 1 63.32 63.37
  Q 57.52 67.65 50.75 68.99
  Q 42.06 70.71 38.25 70.25
  Q 34.20 69.76 30.15 67.83
  Q 28.57 67.08 30.32 67.05
  Q 33.74 66.98 37.55 66.57
  Q 37.70 66.56 42.95 66.10
  Q 51.25 65.37 58.62 61.47
  Q 60.22 60.62 61.14 60.90
  Q 62.34 61.25 63.42 62.65
  Z"
/>
<path fill="#da827b" fill-opacity="0.980" d="
  M 74.72 68.90
  Q 73.39 61.17 72.96 68.01
  Q 72.93 68.54 72.69 68.78
  Q 72.27 69.18 71.71 68.75
  Q 72.08 67.43 72.05 66.06
  Q 72.03 65.06 72.34 64.52
  Q 73.17 63.03 74.22 64.25
  Q 74.76 64.86 74.76 65.92
  Q 74.77 67.33 74.72 68.90
  Z"
/>
<path fill="#c61a20" d="
  M 74.72 68.90
  L 78.58 68.84
  A 1.06 0.78 69.3 0 1 79.37 69.35
  Q 79.93 70.29 79.16 70.97
  A 1.57 0.86 12.1 0 1 78.25 71.24
  L 75.00 71.29
  Q 73.74 71.48 74.22 73.01
  Q 74.73 74.63 73.79 75.06
  A 0.41 0.35 75.9 0 1 73.28 74.70
  Q 73.12 72.86 72.15 71.28
  L 68.50 71.25
  A 1.63 1.08 -16.2 0 1 67.60 70.97
  Q 66.33 69.97 67.59 69.02
  A 1.64 1.21 19.8 0 1 68.49 68.75
  L 71.71 68.75
  Q 72.27 69.18 72.69 68.78
  Q 72.93 68.54 72.96 68.01
  Q 73.39 61.17 74.72 68.90
  Z"
/>
<path fill="#d4353a" fill-opacity="0.992" d="
  M 86.6202 70.0420
  A 1.16 1.16 0.0 0 1 85.4643 71.2060
  L 83.2043 71.2139
  A 1.16 1.16 0.0 0 1 82.0402 70.0580
  L 82.0398 69.9380
  A 1.16 1.16 0.0 0 1 83.1957 68.7740
  L 85.4557 68.7661
  A 1.16 1.16 0.0 0 1 86.6198 69.9220
  L 86.6202 70.0420
  Z
  M 83.25 69.89
  Q 82.90 71.08 84.51 70.84
  A 1.00 1.00 10.2 0 0 85.25 70.33
  Q 86.37 68.29 83.91 69.24
  A 1.16 0.93 -5.6 0 0 83.25 69.89
  Z"
/>
<path fill="#d4353a" fill-opacity="0.992" d="
  M 88.60 69.27
  Q 90.37 67.52 92.34 69.45
  A 0.72 0.66 37.1 0 1 92.49 70.27
  Q 91.67 71.73 89.11 71.09
  Q 87.24 70.63 88.60 69.27
  Z"
/>
<ellipse fill="#d4353a" fill-opacity="0.992" cx="0.00" cy="0.00" transform="translate(96.29,69.98) rotate(-0.5)" rx="2.36" ry="1.37"/>
<rect fill="#d4353a" fill-opacity="0.992" x="-2.23" y="-1.25" transform="translate(102.28,69.99) rotate(-0.9)" width="4.46" height="2.50" rx="1.17"/>
<rect fill="#d4353a" fill-opacity="0.992" x="-2.24" y="-1.25" transform="translate(108.27,69.99) rotate(-0.3)" width="4.48" height="2.50" rx="1.17"/>
<rect fill="#d4353a" fill-opacity="0.992" x="-2.25" y="-1.26" transform="translate(114.28,69.99) rotate(-1.1)" width="4.50" height="2.52" rx="1.17"/>
<rect fill="#d4353a" fill-opacity="0.992" x="-2.23" y="-1.25" transform="translate(120.28,69.99) rotate(-0.9)" width="4.46" height="2.50" rx="1.17"/>
<rect fill="#d4353a" fill-opacity="0.992" x="-2.23" y="-1.25" transform="translate(126.27,70.00) rotate(-1.9)" width="4.46" height="2.50" rx="1.16"/>
<rect fill="#c61a20" x="-2.25" y="-1.25" transform="translate(132.27,69.99) rotate(0.1)" width="4.50" height="2.50" rx="1.18"/>
<path fill="#c61a20" d="
  M 83.91 69.24
  Q 86.37 68.29 85.25 70.33
  A 1.00 1.00 10.2 0 1 84.51 70.84
  Q 82.90 71.08 83.25 69.89
  A 1.16 0.93 -5.6 0 1 83.91 69.24
  Z"
/>
<path fill="#da827b" fill-opacity="0.980" d="
  M 75.00 71.29
  Q 74.68 72.54 74.70 73.83
  Q 74.71 75.06 74.40 75.60
  Q 73.69 76.82 72.43 75.78
  A 1.17 0.94 24.6 0 1 72.01 74.95
  L 72.15 71.28
  Q 73.12 72.86 73.28 74.70
  A 0.41 0.35 75.9 0 0 73.79 75.06
  Q 74.73 74.63 74.22 73.01
  Q 73.74 71.48 75.00 71.29
  Z"
/>
<path fill="#030504" d="
  M 135.70 89.97
  Q 131.83 88.27 128.00 89.04
  Q 103.50 88.40 78.85 89.00
  A 0.55 0.51 87.8 0 1 78.32 88.47
  L 77.84 73.81
  L 134.68 73.75
  A 1.57 1.57 88.5 0 1 136.25 75.24
  Q 136.66 82.82 135.70 89.97
  Z
  M 134.21 76.50
  A 0.74 0.74 0.0 0 0 133.47 75.76
  L 79.97 75.76
  A 0.74 0.74 0.0 0 0 79.23 76.50
  L 79.23 78.50
  A 0.74 0.74 0.0 0 0 79.97 79.24
  L 133.47 79.24
  A 0.74 0.74 0.0 0 0 134.21 78.50
  L 134.21 76.50
  Z
  M 96.22 81.12
  A 0.37 0.37 0.0 0 0 95.85 80.75
  L 79.51 80.75
  A 0.37 0.37 0.0 0 0 79.14 81.12
  L 79.14 87.38
  A 0.37 0.37 0.0 0 0 79.51 87.75
  L 95.85 87.75
  A 0.37 0.37 0.0 0 0 96.22 87.38
  L 96.22 81.12
  Z
  M 116.24 81.32
  A 0.57 0.57 0.0 0 0 115.67 80.75
  L 97.59 80.75
  A 0.57 0.57 0.0 0 0 97.02 81.32
  L 97.02 81.92
  A 0.57 0.57 0.0 0 0 97.59 82.49
  L 115.67 82.49
  A 0.57 0.57 0.0 0 0 116.24 81.92
  L 116.24 81.32
  Z
  M 134.2444 81.0552
  A 0.31 0.31 0.0 0 0 133.9339 80.7457
  L 117.5339 80.7743
  A 0.31 0.31 0.0 0 0 117.2244 81.0849
  L 117.2356 87.4648
  A 0.31 0.31 0.0 0 0 117.5461 87.7743
  L 133.9461 87.7457
  A 0.31 0.31 0.0 0 0 134.2556 87.4351
  L 134.2444 81.0552
  Z
  M 116.2099 84.3133
  A 0.84 0.84 0.0 0 0 115.3685 83.4747
  L 97.8885 83.5053
  A 0.84 0.84 0.0 0 0 97.0500 84.3467
  L 97.0501 84.4067
  A 0.84 0.84 0.0 0 0 97.8915 85.2453
  L 115.3715 85.2147
  A 0.84 0.84 0.0 0 0 116.2100 84.3733
  L 116.2099 84.3133
  Z
  M 116.2303 86.9535
  A 0.84 0.84 0.0 0 0 115.3933 86.1105
  L 97.8934 86.0495
  A 0.84 0.84 0.0 0 0 97.0504 86.8865
  L 97.0497 87.1065
  A 0.84 0.84 0.0 0 0 97.8867 87.9495
  L 115.3866 88.0105
  A 0.84 0.84 0.0 0 0 116.2296 87.1735
  L 116.2303 86.9535
  Z"
/>
<path fill="#a6aba7" fill-opacity="0.996" d="
  M 77.84 73.81
  L 78.32 88.47
  A 0.55 0.51 87.8 0 0 78.85 89.00
  Q 103.50 88.40 128.00 89.04
  Q 129.60 89.41 131.25 89.21
  Q 132.13 89.11 132.21 89.35
  A 0.64 0.30 -4.3 0 1 131.53 89.73
  L 123.75 89.96
  L 78.50 89.71
  A 1.52 1.50 89.8 0 1 77.00 88.20
  Q 76.95 81.66 77.09 74.81
  Q 77.10 74.16 77.84 73.81
  Z"
/>
<rect fill="#b1b5b0" x="79.23" y="75.76" width="54.98" height="3.48" rx="0.74"/>
<rect fill="#d3d7cf" x="79.14" y="80.75" width="17.08" height="7.00" rx="0.37"/>
<rect fill="#d3d7cf" x="97.02" y="80.75" width="19.22" height="1.74" rx="0.57"/>
<rect fill="#d3d7cf" x="-8.51" y="-3.50" transform="translate(125.74,84.26) rotate(-0.1)" width="17.02" height="7.00" rx="0.31"/>
<rect fill="#d3d7cf" x="-9.58" y="-0.87" transform="translate(106.63,84.36) rotate(-0.1)" width="19.16" height="1.74" rx="0.84"/>
<rect fill="#b1b5b0" x="-9.59" y="-0.95" transform="translate(106.64,87.03) rotate(0.2)" width="19.18" height="1.90" rx="0.84"/>
<path fill="#565757" d="
  M 128.00 89.04
  Q 131.83 88.27 135.70 89.97
  L 123.75 89.96
  L 131.53 89.73
  A 0.64 0.30 -4.3 0 0 132.21 89.35
  Q 132.13 89.11 131.25 89.21
  Q 129.60 89.41 128.00 89.04
  Z"
/>
</svg>
