<?xml version="1.0" encoding="UTF-8" standalone="no"?>
<!DOCTYPE svg PUBLIC "-//W3C//DTD SVG 1.1//EN" "http://www.w3.org/Graphics/SVG/1.1/DTD/svg11.dtd">
<svg xmlns="http://www.w3.org/2000/svg" version="1.1" viewBox="0 0 140 100">
<g stroke-width="2.00" fill="none" stroke-linecap="butt">
<path stroke="#545f58" stroke-opacity="0.992" vector-effect="non-scaling-stroke" d="
  M 6.52 8.75
  Q 5.43 24.52 6.29 40.25"
/>
<path stroke="#965149" stroke-opacity="0.992" vector-effect="non-scaling-stroke" d="
  M 6.29 40.25
  L 6.04 45.00"
/>
<path stroke="#4e5950" stroke-opacity="0.992" vector-effect="non-scaling-stroke" d="
  M 6.04 45.00
  Q 6.38 70.38 6.00 90.00
  Q 5.99 90.33 5.54 90.50"
/>
<path stroke="#545f58" stroke-opacity="0.992" vector-effect="non-scaling-stroke" d="
  M 53.99 8.74
  L 53.96 35.75"
/>
<path stroke="#6f2426" vector-effect="non-scaling-stroke" d="
  M 53.96 35.75
  Q 53.10 35.79 52.54 36.50"
/>
<path stroke="#96999a" vector-effect="non-scaling-stroke" d="
  M 52.54 36.50
  L 52.44 24.56
  A 0.51 0.49 0.0 0 0 51.93 24.07
  L 8.31 24.24
  A 0.77 0.71 -1.1 0 0 7.55 24.97
  L 7.75 34.54"
/>
<path stroke="#6e3d3e" vector-effect="non-scaling-stroke" d="
  M 7.75 34.54
  L 7.54 35.25"
/>
<path stroke="#96999a" vector-effect="non-scaling-stroke" d="
  M 7.54 35.25
  L 7.46 39.25"
/>
<path stroke="#6f2426" vector-effect="non-scaling-stroke" d="
  M 7.46 39.25
  Q 7.03 40.15 6.29 40.25"
/>
<path stroke="#691f1e" vector-effect="non-scaling-stroke" d="
  M 7.46 44.75
  Q 6.81 45.57 6.04 45.00"
/>
<path stroke="#909392" vector-effect="non-scaling-stroke" d="
  M 54.04 46.25
  Q 53.96 47.56 54.54 48.75"
/>
<path stroke="#465147" stroke-opacity="0.992" vector-effect="non-scaling-stroke" d="
  M 54.54 48.75
  Q 53.65 53.37 53.75 55.75
  Q 54.13 64.85 54.25 73.96"
/>
<path stroke="#909392" vector-effect="non-scaling-stroke" d="
  M 52.54 74.75
  L 52.33 57.95
  A 0.52 0.51 89.4 0 0 51.82 57.44
  L 8.01 57.50
  A 0.51 0.51 -1.7 0 0 7.50 58.01
  L 7.43 88.75
  A 0.31 0.31 89.1 0 0 7.74 89.06
  L 51.94 89.00
  A 0.56 0.56 0.0 0 0 52.50 88.44
  L 52.50 77.04"
/>
<path stroke="#d88b8b" vector-effect="non-scaling-stroke" d="
  M 52.54 36.50
  L 52.54 41.00"
/>
<path stroke="#909392" vector-effect="non-scaling-stroke" d="
  M 52.54 41.00
  L 52.56 44.56"
/>
<path stroke="#df8d8c" vector-effect="non-scaling-stroke" d="
  M 52.56 44.56
  Q 48.61 44.16 50.32 45.25
  A 1.72 0.84 -14.4 0 0 51.25 45.44
  Q 51.93 45.43 52.54 45.75"
/>
<path stroke="#909392" vector-effect="non-scaling-stroke" d="
  M 52.54 45.75
  L 52.45 55.11
  A 0.95 0.94 0.9 0 1 51.48 56.04
  Q 29.05 55.47 8.06 55.93
  A 0.49 0.49 -0.6 0 1 7.56 55.44
  L 7.46 44.75"
/>
<path stroke="#d88b8b" vector-effect="non-scaling-stroke" d="
  M 7.46 44.75
  L 7.46 39.25"
/>
<path stroke="#d7a4a3" vector-effect="non-scaling-stroke" d="
  M 7.54 35.25
  Q 9.05 35.69 10.57 35.42
  A 0.68 0.51 -8.8 0 0 11.15 34.83
  Q 11.09 34.36 10.25 34.41
  Q 9.00 34.47 7.75 34.54"
/>
<path stroke="#9e534a" stroke-opacity="0.992" vector-effect="non-scaling-stroke" d="
  M 55.50 37.79
  Q 55.85 38.35 55.50 38.79"
/>
<path stroke="#9e534a" stroke-opacity="0.992" vector-effect="non-scaling-stroke" d="
  M 61.04 47.25
  Q 60.81 45.29 58.82 45.15
  Q 56.23 44.97 53.96 43.75"
/>
<path stroke="#4e5950" stroke-opacity="0.992" vector-effect="non-scaling-stroke" d="
  M 53.96 43.75
  Q 54.15 42.37 53.71 41.00"
/>
<path stroke="#965149" stroke-opacity="0.992" vector-effect="non-scaling-stroke" d="
  M 53.71 41.00
  Q 54.96 38.46 53.96 35.75"
/>
<path stroke="#691f1e" vector-effect="non-scaling-stroke" d="
  M 53.71 41.00
  Q 53.09 41.51 52.54 41.00"
/>
<path stroke="#b6beb5" stroke-opacity="0.992" vector-effect="non-scaling-stroke" d="
  M 55.71 49.00
  Q 55.05 49.12 54.54 48.75"
/>
<path stroke="#c3514e" stroke-opacity="0.992" vector-effect="non-scaling-stroke" d="
  M 60.79 47.50
  Q 58.56 46.33 59.66 48.28
  Q 67.60 62.32 57.13 74.41"
/>
<path stroke="#70211f" vector-effect="non-scaling-stroke" d="
  M 54.75 76.54
  L 52.50 77.04"
/>
<path stroke="#df8d8c" vector-effect="non-scaling-stroke" d="
  M 52.50 77.04
  L 50.31 77.35
  A 1.04 0.77 -19.7 0 1 49.45 77.09
  Q 48.78 76.29 49.99 75.96
  Q 51.37 75.57 52.54 74.75"
/>
<path stroke="#70211f" vector-effect="non-scaling-stroke" d="
  M 52.54 74.75
  L 54.25 73.96"
/>
<path stroke="#964b41" stroke-opacity="0.992" vector-effect="non-scaling-stroke" d="
  M 54.25 73.96
  Q 55.50 73.99 55.50 72.79"
/>
<path stroke="#c85c56" stroke-opacity="0.996" vector-effect="non-scaling-stroke" d="
  M 60.06 66.88
  Q 60.92 65.79 61.50 64.53
  Q 61.95 63.55 61.91 61.88
  Q 61.87 60.35 61.94 57.44
  Q 62.02 54.02 59.33 50.02
  Q 59.19 49.81 58.99 49.63
  Q 55.85 46.72 58.50 50.18"
/>
<path stroke="#964b41" stroke-opacity="0.992" vector-effect="non-scaling-stroke" d="
  M 55.50 49.96
  Q 55.87 49.53 55.71 49.00"
/>
<path stroke="#df8d8c" vector-effect="non-scaling-stroke" d="
  M 55.71 49.00
  Q 55.40 47.30 54.04 46.25"
/>
<path stroke="#70211f" vector-effect="non-scaling-stroke" d="
  M 54.04 46.25
  Q 53.53 45.48 52.54 45.75"
/>
<path stroke="#70211f" vector-effect="non-scaling-stroke" d="
  M 53.96 43.75
  Q 53.12 43.88 52.56 44.56"
/>
<path stroke="#c85c56" stroke-opacity="0.996" vector-effect="non-scaling-stroke" d="
  M 55.96 39.25
  Q 66.85 38.63 78.28 39.28
  Q 79.14 39.33 78.48 39.88
  Q 77.15 41.00 78.69 41.16
  Q 79.14 41.21 79.63 40.97
  Q 81.69 39.97 83.75 39.09
  Q 84.91 38.59 83.82 37.94
  Q 81.83 36.75 79.71 35.84
  Q 77.18 34.76 78.43 37.15
  A 0.47 0.47 -15.2 0 1 78.04 37.83
  Q 67.01 38.48 55.71 37.75"
/>
<path stroke="#f8e9e9" vector-effect="non-scaling-stroke" d="
  M 93.75 22.96
  L 93.25 23.29"
/>
<path stroke="#d87676" vector-effect="non-scaling-stroke" d="
  M 93.25 23.29
  L 88.78 23.10
  A 0.61 0.52 -86.8 0 0 88.23 23.67
  Q 87.84 29.18 89.70 24.33
  A 0.60 0.59 22.3 0 1 90.50 24.00
  Q 91.72 24.55 92.96 24.00"
/>
<path stroke="#f8e9e9" vector-effect="non-scaling-stroke" d="
  M 92.96 24.00
  L 93.53 40.26
  A 1.74 1.70 -0.9 0 0 95.26 41.90
  L 117.46 42.00"
/>
<path stroke="#d87676" vector-effect="non-scaling-stroke" d="
  M 117.46 42.00
  Q 117.53 43.50 117.53 45.00
  Q 117.53 45.90 118.18 45.97
  A 0.83 0.69 -71.7 0 0 118.93 45.50
  Q 119.41 44.50 119.33 43.38
  Q 119.32 43.25 119.31 42.12
  Q 119.30 40.79 117.79 40.75"
/>
<path stroke="#f8e9e9" vector-effect="non-scaling-stroke" d="
  M 117.79 40.75
  Q 118.14 40.26 118.75 40.21"
/>
<path stroke="#d87676" vector-effect="non-scaling-stroke" d="
  M 114.46 48.50
  Q 113.66 49.15 113.19 48.12
  A 0.68 0.68 72.2 0 1 113.83 47.16
  Q 115.61 47.22 116.20 46.50
  A 0.37 0.32 23.8 0 0 115.95 45.96
  Q 112.99 45.38 110.07 45.99
  Q 108.75 46.26 109.80 47.18
  L 118.90 55.15
  A 0.44 0.41 48.8 0 1 118.88 55.82
  Q 118.15 56.29 117.46 55.50"
/>
<path stroke="#dcaeac" stroke-opacity="0.992" vector-effect="non-scaling-stroke" d="
  M 89.50 55.46
  Q 89.01 55.38 88.75 55.71"
/>
<path stroke="#d87676" vector-effect="non-scaling-stroke" d="
  M 88.75 55.71
  Q 87.98 55.98 87.73 55.90
  Q 86.55 55.53 87.53 54.77
  Q 93.12 50.39 95.81 47.81
  Q 96.62 47.04 99.50 46.79
  A 0.64 0.52 -2.9 0 0 100.09 46.26
  Q 100.10 45.54 99.08 45.64
  Q 98.43 45.71 97.91 45.66
  Q 95.31 45.38 94.21 47.75"
/>
<path stroke="#e1b9b3" stroke-opacity="0.996" vector-effect="non-scaling-stroke" d="
  M 94.21 47.75
  L 93.50 47.71"
/>
<path stroke="#8f8284" vector-effect="non-scaling-stroke" d="
  M 93.50 47.71
  Q 94.04 46.64 92.75 46.54"
/>
<path stroke="#d87676" vector-effect="non-scaling-stroke" d="
  M 92.75 46.54
  Q 91.63 45.65 90.31 45.83
  A 1.69 1.01 -23.6 0 1 89.37 45.71
  L 88.04 45.00"
/>
<path stroke="#e1b9b3" stroke-opacity="0.996" vector-effect="non-scaling-stroke" d="
  M 88.04 45.00
  L 87.96 44.75"
/>
<path stroke="#d17475" vector-effect="non-scaling-stroke" d="
  M 88.25 36.75
  Q 87.67 39.52 88.22 42.51
  Q 88.40 43.48 88.80 42.58
  Q 90.23 39.40 88.25 36.75"
/>
<path stroke="#762627" vector-effect="non-scaling-stroke" d="
  M 92.75 46.54
  Q 92.83 46.94 92.50 47.04"
/>
<path stroke="#cb6761" stroke-opacity="0.996" vector-effect="non-scaling-stroke" d="
  M 114.50 48.96
  Q 114.01 49.68 114.94 49.81
  Q 118.29 53.06 122.15 55.66
  A 1.75 1.66 61.1 0 0 123.06 55.95
  L 135.86 56.06
  A 1.12 1.08 0.0 0 1 136.97 57.13
  L 137.15 81.25"
/>
<path stroke="#c3514e" stroke-opacity="0.992" vector-effect="non-scaling-stroke" d="
  M 105.84 81.13
  L 106.06 56.57
  A 0.53 0.52 -90.0 0 1 106.57 56.05
  Q 110.94 55.97 115.31 55.82
  Q 115.64 55.81 116.04 55.97
  Q 117.02 56.36 116.79 55.50"
/>
<path stroke="#e3c5c3" stroke-opacity="0.992" vector-effect="non-scaling-stroke" d="
  M 119.04 24.25
  Q 118.96 24.95 118.25 24.79"
/>
<path stroke="#df8d8c" vector-effect="non-scaling-stroke" d="
  M 118.25 24.79
  Q 116.08 27.82 118.71 30.25"
/>
<path stroke="#e3c5c3" stroke-opacity="0.992" vector-effect="non-scaling-stroke" d="
  M 118.71 30.25
  L 118.79 30.50"
/>
<path stroke="#e3c5c3" stroke-opacity="0.992" vector-effect="non-scaling-stroke" d="
  M 119.29 32.75
  L 119.21 33.50"
/>
<path stroke="#df8d8c" vector-effect="non-scaling-stroke" d="
  M 119.21 33.50
  L 118.44 32.64
  A 0.34 0.33 -57.4 0 0 117.88 32.77
  Q 117.45 34.03 117.50 36.25
  Q 117.54 37.93 118.71 38.25"
/>
<path stroke="#e3c5c3" stroke-opacity="0.992" vector-effect="non-scaling-stroke" d="
  M 118.71 38.25
  L 118.79 38.50"
/>
<path stroke="#df8d8c" vector-effect="non-scaling-stroke" d="
  M 117.79 40.75
  L 117.46 42.00"
/>
<path stroke="#df8d8c" vector-effect="non-scaling-stroke" d="
  M 92.96 24.00
  Q 93.26 23.70 93.25 23.29"
/>
<path stroke="#d88b8b" vector-effect="non-scaling-stroke" d="
  M 95.75 23.96
  Q 98.45 24.66 101.04 23.75"
/>
<path stroke="#d88b8b" vector-effect="non-scaling-stroke" d="
  M 103.71 23.75
  Q 106.38 24.98 109.04 23.75"
/>
<path stroke="#df8d8c" vector-effect="non-scaling-stroke" d="
  M 111.71 23.75
  Q 114.69 25.27 117.21 23.25"
/>
<path stroke="#c85c56" stroke-opacity="0.996" vector-effect="non-scaling-stroke" d="
  M 88.04 45.00
  Q 87.41 47.56 90.03 47.24
  Q 91.25 47.10 92.50 47.04"
/>
<path stroke="#7f6864" stroke-opacity="0.996" vector-effect="non-scaling-stroke" d="
  M 92.50 47.04
  Q 92.43 48.12 93.50 47.71"
/>
<path stroke="#c85c56" stroke-opacity="0.996" vector-effect="non-scaling-stroke" d="
  M 94.21 47.75
  L 84.59 55.62
  A 1.58 1.55 23.1 0 1 83.69 55.97
  Q 76.47 56.39 69.02 55.60"
/>
<path stroke="#c3514e" stroke-opacity="0.992" vector-effect="non-scaling-stroke" d="
  M 88.75 55.71
  L 101.21 55.88"
/>
<path stroke="#ecdad5" stroke-opacity="0.996" vector-effect="non-scaling-stroke" d="
  M 110.25 23.21
  Q 109.36 23.07 109.04 23.75"
/>
<path stroke="#c46560" stroke-opacity="0.996" vector-effect="non-scaling-stroke" d="
  M 109.04 23.75
  Q 106.36 21.89 103.71 23.75"
/>
<path stroke="#ecdad5" stroke-opacity="0.996" vector-effect="non-scaling-stroke" d="
  M 103.71 23.75
  L 102.50 23.29"
/>
<path stroke="#c3514e" stroke-opacity="0.992" vector-effect="non-scaling-stroke" d="
  M 119.21 33.50
  Q 119.60 35.97 118.71 38.25"
/>
<path stroke="#ecdad5" stroke-opacity="0.996" vector-effect="non-scaling-stroke" d="
  M 117.29 22.75
  L 117.21 23.25"
/>
<path stroke="#cb6761" stroke-opacity="0.996" vector-effect="non-scaling-stroke" d="
  M 117.21 23.25
  Q 114.30 22.29 111.71 23.75"
/>
<path stroke="#ecdad5" stroke-opacity="0.996" vector-effect="non-scaling-stroke" d="
  M 111.71 23.75
  Q 110.99 23.81 110.50 23.29"
/>
<path stroke="#ecdad5" stroke-opacity="0.996" vector-effect="non-scaling-stroke" d="
  M 102.25 23.21
  Q 101.36 23.07 101.04 23.75"
/>
<path stroke="#c46560" stroke-opacity="0.996" vector-effect="non-scaling-stroke" d="
  M 101.04 23.75
  Q 98.27 21.75 95.75 23.96"
/>
<path stroke="#ecdad5" stroke-opacity="0.996" vector-effect="non-scaling-stroke" d="
  M 95.75 23.96
  L 94.50 23.29"
/>
<path stroke="#c3514e" stroke-opacity="0.992" vector-effect="non-scaling-stroke" d="
  M 118.71 30.25
  Q 119.10 29.23 119.25 26.75
  Q 119.34 25.21 118.25 24.79"
/>
<path stroke="#96999a" vector-effect="non-scaling-stroke" d="
  M 52.50 11.27
  A 0.27 0.27 0.0 0 0 52.23 11.00
  L 7.77 11.00
  A 0.27 0.27 0.0 0 0 7.50 11.27
  L 7.50 22.23
  A 0.27 0.27 0.0 0 0 7.77 22.50
  L 52.23 22.50
  A 0.27 0.27 0.0 0 0 52.50 22.23
  L 52.50 11.27"
/>
<path stroke="#96999a" vector-effect="non-scaling-stroke" d="
  M 46.81 17.06
  Q 50.57 13.05 46.84 15.85
  Q 46.63 16.01 46.34 16.34
  Q 44.69 18.21 42.82 15.12
  A 1.32 1.32 45.7 0 0 40.58 15.09
  Q 38.35 18.53 36.56 15.71
  Q 35.12 13.43 32.88 16.49
  A 1.32 1.32 -43.1 0 1 30.69 16.42
  Q 28.31 12.63 25.84 16.46
  A 1.23 1.23 -69.1 0 1 23.78 16.46
  Q 21.61 13.09 19.43 16.52
  A 1.24 1.23 36.1 0 1 17.60 16.80
  Q 16.98 16.28 16.05 15.21
  Q 14.81 13.80 13.78 15.62
  Q 13.18 16.68 12.15 17.35
  Q 11.21 17.95 11.29 18.55
  Q 11.37 19.09 11.87 18.65
  L 14.61 16.31
  A 0.62 0.59 -45.3 0 1 15.40 16.29
  L 17.29 17.93
  A 1.72 1.52 37.6 0 0 19.72 17.77
  Q 21.73 14.72 23.66 17.94
  Q 24.87 19.95 26.12 17.97
  Q 28.41 14.36 30.50 17.76
  Q 31.78 19.83 33.11 17.80
  Q 35.24 14.57 37.03 17.88
  Q 38.19 20.01 39.50 17.98
  Q 41.70 14.57 43.56 17.69
  Q 44.60 19.43 46.81 17.06"
/>
<path stroke="#d17475" vector-effect="non-scaling-stroke" d="
  M 88.33 29.05
  Q 87.64 32.18 88.30 34.71
  Q 88.44 35.23 88.68 34.74
  Q 90.05 31.97 88.66 29.01
  Q 88.44 28.54 88.33 29.05"
/>
<path stroke="#d17475" vector-effect="non-scaling-stroke" d="
  M 108.81 46.29
  Q 105.87 45.12 103.17 46.19
  Q 102.08 46.63 103.23 46.87
  Q 106.01 47.48 108.81 46.48
  Q 109.07 46.39 108.81 46.29"
/>
<path stroke="#d88b8b" vector-effect="non-scaling-stroke" d="
  M 103.94 32.81
  Q 104.18 33.90 106.92 31.32
  A 1.37 1.36 -58.5 0 1 108.24 31.00
  Q 109.25 31.29 108.35 31.78
  Q 106.65 32.73 105.33 34.13
  A 0.85 0.78 -35.3 0 0 105.15 34.98
  Q 105.52 35.90 106.31 35.94
  Q 109.23 36.07 107.00 37.25
  Q 105.93 37.82 103.31 37.65
  Q 101.49 37.53 100.34 38.20
  Q 98.97 38.99 97.84 40.14
  A 0.42 0.37 -54.6 0 0 97.91 40.79
  Q 98.32 40.98 98.69 40.69
  Q 100.63 39.16 101.98 38.51
  A 1.49 1.16 33.6 0 1 102.91 38.44
  Q 106.71 39.34 109.17 36.46
  A 0.59 0.59 28.5 0 0 108.89 35.52
  Q 106.80 34.86 106.61 34.26
  Q 106.48 33.86 107.90 33.28
  Q 109.22 32.74 109.96 31.74
  A 1.10 0.95 34.8 0 0 109.59 30.29
  L 107.36 28.84
  A 1.12 0.77 45.9 0 0 106.53 28.67
  Q 105.27 29.07 104.58 28.62
  A 1.79 1.79 34.2 0 0 102.16 29.08
  Q 100.07 31.98 99.31 34.95
  A 1.27 1.17 83.5 0 1 98.76 35.70
  L 96.05 37.29
  Q 93.95 38.54 96.31 37.94
  Q 98.28 37.44 99.44 36.30
  Q 100.12 35.64 100.84 33.29
  Q 101.46 31.29 102.50 30.25
  Q 104.77 27.97 103.41 30.69
  Q 103.29 30.92 103.01 31.28
  Q 101.91 32.69 103.94 32.81"
/>
<path stroke="#96999a" vector-effect="non-scaling-stroke" d="
  M 25.81 31.56
  Q 26.40 31.15 26.80 30.55
  Q 28.40 28.19 30.33 31.16
  A 1.48 1.44 52.7 0 0 32.52 31.49
  L 34.63 29.59
  A 0.56 0.56 -0.0 0 1 35.37 29.59
  L 37.94 31.87
  A 0.58 0.53 43.0 0 0 38.70 31.88
  L 41.23 29.33
  A 0.51 0.47 -45.4 0 1 41.93 29.30
  L 44.42 31.79
  A 0.78 0.76 45.0 0 0 45.52 31.81
  L 48.53 28.76
  A 0.94 0.87 -24.1 0 0 48.79 28.16
  Q 48.81 27.54 48.26 28.02
  Q 47.19 28.94 45.54 30.59
  A 0.82 0.82 53.1 0 1 44.24 30.40
  Q 43.60 29.25 41.78 28.27
  A 0.74 0.70 -52.8 0 0 40.93 28.41
  L 38.89 30.43
  A 0.59 0.59 43.5 0 1 38.09 30.45
  L 35.35 28.10
  A 0.58 0.49 42.4 0 0 34.62 28.07
  L 32.34 30.32
  A 1.08 0.97 43.1 0 1 30.95 30.29
  L 28.69 28.34
  A 0.81 0.68 -44.1 0 0 27.70 28.41
  L 25.37 30.43
  A 0.57 0.52 44.9 0 1 24.64 30.40
  L 22.07 28.12
  A 0.62 0.51 42.3 0 0 21.28 28.08
  L 19.41 30.04
  A 1.38 1.16 -45.5 0 1 17.59 30.21
  L 15.37 27.99
  A 0.52 0.52 90.0 0 0 14.63 27.99
  Q 12.85 29.78 11.44 31.19
  Q 11.13 31.50 11.10 31.76
  Q 11.04 32.36 12.10 31.95
  A 2.73 2.70 5.1 0 0 13.44 30.84
  Q 15.07 28.17 16.39 30.40
  Q 18.21 33.48 20.60 30.10
  A 1.25 1.24 39.1 0 1 22.46 29.91
  L 24.63 31.91
  A 0.73 0.55 46.6 0 0 25.45 32.05
  Q 25.70 31.87 25.81 31.56"
/>
<path stroke="#d7a4a3" vector-effect="non-scaling-stroke" d="
  M 18.79 34.77
  Q 17.05 34.36 15.25 34.35
  Q 13.98 34.34 14.26 35.08
  A 0.84 0.64 -7.7 0 0 15.00 35.50
  Q 16.76 35.50 18.52 35.50
  Q 18.77 35.50 18.97 35.38
  Q 19.63 34.96 18.79 34.77"
/>
<path stroke="#d7a4a3" vector-effect="non-scaling-stroke" d="
  M 26.80 35.26
  Q 27.43 35.14 27.19 34.81
  A 0.88 0.54 -7.3 0 0 26.59 34.54
  Q 25.05 34.44 23.52 34.28
  Q 22.24 34.15 22.23 34.95
  A 0.62 0.51 2.8 0 0 22.81 35.48
  Q 24.82 35.64 26.80 35.26"
/>
<path stroke="#d7a4a3" vector-effect="non-scaling-stroke" d="
  M 34.38 34.65
  Q 33.60 34.40 31.80 34.20
  A 1.56 1.55 -69.2 0 0 30.36 34.85
  Q 29.65 35.85 31.51 35.74
  Q 32.64 35.67 33.76 35.50
  Q 35.95 35.16 34.38 34.65"
/>
<path stroke="#d7a4a3" vector-effect="non-scaling-stroke" d="
  M 42.64 34.82
  Q 40.60 33.75 38.67 34.96
  Q 38.20 35.25 38.73 35.39
  Q 40.70 35.87 42.60 35.23
  Q 43.11 35.06 42.64 34.82"
/>
<path stroke="#d7a4a3" vector-effect="non-scaling-stroke" d="
  M 46.29 34.86
  Q 45.68 35.54 47.00 35.54
  Q 48.72 35.55 50.45 35.46
  Q 51.36 35.42 50.98 34.99
  Q 50.54 34.50 47.86 34.25
  A 1.87 1.87 23.7 0 0 46.29 34.86"
/>
<path stroke="#d88b8b" vector-effect="non-scaling-stroke" d="
  M 38.05 41.88
  A 0.60 0.55 -44.8 0 0 38.80 41.85
  L 41.28 39.64
  A 1.06 1.00 55.0 0 1 42.85 39.96
  Q 44.50 42.90 46.11 41.11
  Q 51.59 35.01 45.60 40.44
  A 0.72 0.69 -51.9 0 1 44.83 40.55
  Q 43.19 39.74 42.60 38.95
  Q 41.36 37.29 40.24 39.04
  Q 38.30 42.07 36.67 39.32
  Q 35.00 36.49 33.03 39.78
  Q 31.92 41.64 30.56 39.95
  Q 28.01 36.78 26.25 39.56
  Q 24.82 41.82 23.04 38.91
  A 1.65 1.39 -36.3 0 0 20.74 38.75
  L 18.74 40.42
  A 0.70 0.57 44.0 0 1 17.94 40.35
  L 15.40 38.30
  A 0.65 0.59 42.9 0 0 14.58 38.29
  L 11.38 41.30
  A 0.61 0.53 -43.5 0 0 11.30 42.12
  Q 11.58 42.41 12.02 42.02
  Q 13.22 40.97 14.35 39.63
  A 0.88 0.88 -38.7 0 1 15.81 39.79
  Q 18.01 44.06 20.44 40.26
  Q 21.68 38.31 22.94 40.25
  Q 24.96 43.36 26.81 40.56
  Q 28.45 38.10 30.25 41.09
  A 1.55 1.45 -36.3 0 0 32.52 41.36
  L 34.60 39.56
  A 0.62 0.59 45.3 0 1 35.39 39.58
  L 38.05 41.88"
/>
<path stroke="#d7a4a3" vector-effect="non-scaling-stroke" d="
  M 10.46 44.64
  Q 8.88 44.93 10.38 45.50
  Q 12.02 46.12 14.22 45.26
  Q 14.76 45.05 14.24 44.81
  Q 12.88 44.20 10.46 44.64"
/>
<path stroke="#d7a4a3" vector-effect="non-scaling-stroke" d="
  M 17.59 45.17
  Q 17.59 45.88 18.78 45.74
  Q 20.23 45.58 21.69 45.47
  A 0.71 0.47 -3.3 0 0 22.35 44.97
  Q 22.34 44.47 21.25 44.50
  Q 19.08 44.56 18.19 44.63
  A 0.65 0.53 -2.9 0 0 17.59 45.17"
/>
<path stroke="#d7a4a3" vector-effect="non-scaling-stroke" d="
  M 26.37 45.35
  Q 27.15 45.60 28.95 45.80
  A 1.56 1.55 -69.2 0 0 30.39 45.15
  Q 31.10 44.15 29.24 44.26
  Q 28.11 44.33 26.99 44.50
  Q 24.80 44.84 26.37 45.35"
/>
<path stroke="#d7a4a3" vector-effect="non-scaling-stroke" d="
  M 34.44 45.56
  Q 37.26 46.47 38.19 45.44
  Q 38.93 44.61 36.20 44.35
  Q 35.51 44.29 34.84 44.43
  Q 32.46 44.92 34.44 45.56"
/>
<path stroke="#d7a4a3" vector-effect="non-scaling-stroke" d="
  M 46.32 45.06
  Q 47.20 44.57 46.21 44.56
  L 42.31 44.53
  A 0.52 0.47 -3.4 0 0 41.79 45.06
  Q 41.88 45.70 42.69 45.62
  Q 43.40 45.55 43.81 45.58
  Q 45.15 45.71 46.32 45.06"
/>
<path stroke="#909392" vector-effect="non-scaling-stroke" d="
  M 22.59 48.69
  A 1.37 1.32 45.0 0 0 20.67 48.65
  L 19.03 50.32
  A 0.73 0.64 -53.5 0 1 18.24 50.49
  Q 16.82 49.77 15.57 48.06
  A 0.62 0.61 -40.5 0 0 14.64 47.99
  Q 12.81 49.81 11.36 51.09
  Q 10.78 51.59 11.09 51.96
  A 0.60 0.54 -41.1 0 0 11.92 51.97
  L 14.44 49.64
  A 0.60 0.47 -45.4 0 1 15.15 49.55
  L 17.94 51.85
  A 0.66 0.55 43.3 0 0 18.72 51.90
  L 20.75 50.15
  A 1.65 1.43 -36.4 0 1 23.10 50.34
  Q 25.00 53.51 27.08 50.04
  Q 28.25 48.08 29.51 49.98
  Q 31.81 53.46 33.56 50.31
  Q 35.00 47.73 36.69 50.56
  Q 38.42 53.47 40.16 50.62
  Q 41.99 47.64 43.44 50.83
  Q 44.32 52.74 45.96 51.43
  Q 47.13 50.50 48.52 48.67
  Q 48.73 48.39 48.74 48.15
  Q 48.79 47.55 47.88 48.13
  Q 47.18 48.58 46.71 49.28
  Q 44.80 52.13 43.50 49.50
  Q 42.00 46.47 40.69 48.69
  Q 38.52 52.36 36.26 48.85
  Q 35.11 47.07 33.86 48.79
  Q 31.31 52.34 29.00 48.44
  A 0.75 0.63 65.7 0 0 28.25 48.08
  Q 27.22 48.36 26.65 49.42
  Q 25.46 51.62 22.59 48.69"
/>
<path stroke="#d88b8b" vector-effect="non-scaling-stroke" d="
  M 104.10 31.63
  Q 103.60 32.65 104.81 32.06
  A 3.38 1.20 -21.7 0 0 106.94 30.19
  Q 107.08 29.00 105.26 30.27
  Q 104.50 30.80 104.10 31.63"
/>
<path stroke="#df8d8c" vector-effect="non-scaling-stroke" d="
  M 98.96 75.25
  L 99.00 58.06
  A 0.56 0.56 0.0 0 0 98.44 57.50
  L 75.00 57.54"
/>
<path stroke="#d87676" vector-effect="non-scaling-stroke" d="
  M 75.00 57.54
  L 71.49 57.64
  A 0.61 0.52 89.0 0 0 70.99 58.25
  L 71.05 78.43
  A 0.51 0.51 0.2 0 0 71.56 78.94
  L 98.36 79.00
  A 0.63 0.61 -0.4 0 0 98.99 78.38
  L 98.96 75.25"
/>
<path stroke="#f8e9e9" vector-effect="non-scaling-stroke" d="
  M 75.00 57.54
  L 75.16 72.18
  Q 75.17 72.60 74.93 73.11
  Q 74.59 73.82 74.99 74.51
  Q 75.27 75.00 75.83 75.08
  Q 76.74 75.22 76.79 74.25"
/>
<path stroke="#d17475" vector-effect="non-scaling-stroke" d="
  M 76.79 74.25
  L 77.96 74.00"
/>
<path stroke="#f8e9e9" vector-effect="non-scaling-stroke" d="
  M 77.96 74.00
  L 78.26 74.53
  A 1.01 0.78 -10.8 0 0 79.06 74.93
  L 98.96 75.25"
/>
<path stroke="#d88b8b" vector-effect="non-scaling-stroke" d="
  M 77.96 74.00
  Q 83.02 70.98 77.73 72.67
  Q 77.33 72.80 77.25 72.57
  A 0.60 0.37 -32.2 0 1 77.50 72.05
  Q 80.36 69.86 81.78 72.94
  Q 81.98 73.38 82.22 73.63
  Q 83.36 74.82 82.92 72.55
  A 0.68 0.67 69.8 0 1 83.25 71.82
  Q 88.23 69.07 93.06 66.06
  Q 95.87 64.32 97.04 61.95
  A 0.56 0.54 -61.2 0 0 96.84 61.22
  Q 95.73 60.58 94.56 61.06
  Q 87.53 63.97 81.33 68.10
  A 1.20 1.20 50.7 0 1 79.83 67.95
  Q 79.20 67.33 78.93 67.55
  A 0.77 0.40 53.2 0 0 79.07 68.39
  Q 80.34 70.13 77.69 70.94
  Q 74.69 71.85 76.79 74.25"
/>
<path stroke="#d87676" vector-effect="non-scaling-stroke" d="
  M 112.00 57.54
  L 108.06 57.53
  A 0.53 0.50 -90.0 0 0 107.56 58.06
  L 107.50 78.49
  A 0.52 0.51 0.0 0 0 108.02 79.00
  L 135.07 79.00
  A 0.68 0.66 -0.4 0 0 135.75 78.33
  L 135.71 75.25"
/>
<path stroke="#df8d8c" vector-effect="non-scaling-stroke" d="
  M 135.71 75.25
  L 135.58 57.94
  A 0.52 0.50 0.0 0 0 135.06 57.44
  L 112.00 57.54"
/>
<path stroke="#f8e9e9" vector-effect="non-scaling-stroke" d="
  M 135.71 75.25
  L 123.25 74.40"
/>
<path stroke="#df8d8c" vector-effect="non-scaling-stroke" d="
  M 123.25 74.40
  Q 129.59 70.24 129.34 63.19
  A 1.07 0.92 18.6 0 0 128.88 62.42
  Q 127.80 61.71 127.08 60.62
  A 1.19 1.06 75.3 0 0 126.31 60.11
  Q 122.29 59.48 118.25 60.00
  Q 117.25 60.13 115.56 61.56
  L 114.19 62.73
  A 1.02 1.00 -22.3 0 0 113.83 63.56
  Q 114.12 70.19 119.78 74.26"
/>
<path stroke="#f8e9e9" vector-effect="non-scaling-stroke" d="
  M 119.78 74.26
  Q 116.11 75.66 112.18 74.91
  A 0.61 0.60 5.6 0 1 111.68 74.31
  L 112.00 57.54"
/>
<path stroke="#d87676" vector-effect="non-scaling-stroke" d="
  M 119.78 74.26
  L 123.25 74.40"
/>
<path stroke="#818281" vector-effect="non-scaling-stroke" d="
  M 17.86 63.93
  L 15.79 61.88
  A 1.40 1.26 -46.4 0 0 13.88 62.02
  L 11.81 64.26
  Q 11.43 64.68 11.37 64.86
  Q 11.11 65.74 12.06 65.02
  Q 13.31 64.06 14.64 62.74
  A 0.50 0.50 -90.0 0 1 15.36 62.74
  L 17.32 64.69
  A 1.42 1.42 -50.7 0 0 19.51 64.47
  Q 21.72 61.08 23.91 64.77
  Q 25.02 66.64 26.14 64.78
  Q 28.23 61.28 29.83 63.88
  Q 31.69 66.92 33.82 63.39
  A 1.25 1.25 38.0 0 1 35.77 63.15
  L 37.77 65.15
  A 0.58 0.52 45.7 0 0 38.54 65.20
  L 40.69 63.18
  A 1.41 1.30 -44.5 0 1 42.56 63.12
  L 44.65 65.15
  A 0.63 0.54 -43.7 0 0 45.44 65.11
  Q 47.92 62.92 48.31 62.31
  Q 49.34 60.71 47.94 61.53
  Q 47.70 61.67 47.54 61.94
  Q 45.11 65.99 42.77 62.27
  Q 41.56 60.33 40.31 62.25
  Q 37.97 65.85 36.19 62.06
  Q 35.07 59.69 33.81 62.06
  Q 31.89 65.67 29.73 62.29
  Q 28.49 60.35 26.46 63.22
  A 1.59 1.49 -50.3 0 1 24.13 63.51
  L 22.19 61.57
  A 0.83 0.81 -44.7 0 0 21.03 61.58
  L 18.63 63.92
  A 0.56 0.54 -45.0 0 1 17.86 63.93"
/>
<path stroke="#818281" vector-effect="non-scaling-stroke" d="
  M 31.70 70.61
  Q 30.52 70.34 29.84 69.17
  Q 28.44 66.77 26.53 69.95
  A 1.51 1.48 37.0 0 1 24.23 70.25
  L 22.22 68.40
  A 1.31 1.28 -54.1 0 0 20.22 68.74
  Q 18.70 71.46 17.41 70.09
  Q 16.44 69.06 15.39 68.01
  A 0.56 0.56 90.0 0 0 14.61 68.01
  L 11.67 70.96
  A 0.86 0.68 -35.5 0 0 11.43 71.79
  Q 11.77 72.63 12.69 71.19
  Q 14.98 67.61 17.50 71.55
  A 0.92 0.91 50.9 0 0 18.92 71.70
  L 21.09 69.53
  A 0.88 0.88 51.2 0 1 22.45 69.68
  Q 24.96 73.65 27.30 70.01
  A 1.22 1.21 -51.0 0 1 29.18 69.81
  L 31.17 71.79
  A 0.60 0.51 45.3 0 0 31.95 71.86
  L 34.20 69.68
  A 1.13 1.08 -45.5 0 1 35.72 69.63
  L 38.06 71.84
  A 0.58 0.53 -45.3 0 0 38.83 71.80
  L 41.43 69.20
  A 0.48 0.47 46.6 0 1 42.12 69.23
  L 44.38 71.78
  A 0.84 0.82 -43.2 0 0 45.58 71.80
  Q 47.31 70.06 48.32 68.84
  Q 48.86 68.18 48.64 68.00
  A 0.77 0.39 -45.7 0 0 47.86 68.26
  L 45.51 70.62
  A 0.79 0.76 45.8 0 1 44.40 70.58
  L 42.06 68.15
  A 0.54 0.54 -43.9 0 0 41.30 68.14
  L 39.11 70.26
  A 1.09 1.05 -39.3 0 1 37.48 70.13
  Q 34.70 66.04 32.42 70.23
  A 0.72 0.61 -68.1 0 1 31.70 70.61"
/>
<path stroke="#818281" vector-effect="non-scaling-stroke" d="
  M 23.07 77.15
  Q 25.59 80.33 27.22 77.02
  Q 28.27 74.87 29.57 76.88
  Q 31.70 80.18 33.70 76.83
  Q 34.94 74.75 36.26 76.79
  Q 38.45 80.18 40.32 77.07
  Q 41.75 74.68 43.48 77.56
  A 1.61 1.61 53.6 0 0 45.92 77.93
  Q 46.76 77.20 48.19 75.70
  Q 48.47 75.41 48.53 75.10
  Q 48.74 74.06 47.42 75.16
  Q 46.70 75.77 46.11 76.50
  Q 44.55 78.46 43.37 76.09
  Q 42.55 74.46 41.27 74.86
  A 1.46 0.90 -74.5 0 0 40.58 75.50
  Q 38.49 79.21 36.16 75.59
  Q 34.92 73.66 33.67 75.58
  Q 31.55 78.84 29.41 75.27
  A 1.35 1.35 -43.2 0 0 27.14 75.20
  Q 24.83 78.62 23.34 75.92
  Q 22.67 74.71 21.55 74.74
  A 1.05 0.76 -71.4 0 0 20.82 75.26
  Q 18.47 79.38 15.67 74.97
  A 0.73 0.73 51.4 0 0 14.53 74.84
  Q 12.81 76.56 11.69 77.68
  Q 10.85 78.52 11.44 78.66
  A 1.07 0.65 -52.5 0 0 12.28 78.33
  L 14.63 76.08
  A 0.54 0.53 -45.0 0 1 15.38 76.07
  L 17.29 77.91
  Q 18.80 79.36 19.78 77.62
  Q 21.30 74.91 23.07 77.15"
/>
<path stroke="#909392" vector-effect="non-scaling-stroke" d="
  M 37.33 83.24
  Q 35.18 79.47 32.66 83.17
  A 1.30 1.30 -44.2 0 1 30.49 83.14
  Q 28.25 79.62 26.19 83.19
  Q 24.98 85.28 23.31 82.69
  Q 21.57 79.99 19.94 82.69
  Q 18.31 85.37 16.44 82.31
  Q 15.24 80.35 12.64 83.46
  Q 12.11 84.10 11.36 84.47
  Q 10.88 84.70 11.36 85.18
  A 0.55 0.54 44.6 0 0 12.13 85.18
  L 14.39 82.93
  A 0.96 0.87 43.8 0 1 15.66 82.97
  L 18.01 85.18
  A 0.66 0.48 -43.4 0 0 18.78 85.08
  L 21.29 82.86
  A 0.60 0.58 44.5 0 1 22.07 82.87
  L 23.90 84.49
  A 1.79 1.65 41.1 0 0 26.35 84.42
  Q 28.71 81.66 29.87 83.91
  Q 30.53 85.20 31.69 85.23
  A 1.04 0.79 -68.0 0 0 32.46 84.77
  Q 35.09 80.91 37.43 84.65
  A 1.25 1.25 43.8 0 0 39.55 84.65
  Q 41.91 80.93 43.81 84.69
  Q 44.59 86.22 46.31 84.31
  Q 51.25 78.86 45.39 83.68
  A 0.63 0.59 -44.0 0 1 44.62 83.69
  L 42.30 81.73
  A 1.39 1.36 34.5 0 0 40.21 82.10
  Q 39.19 83.93 38.05 83.82
  A 1.14 0.72 71.2 0 1 37.33 83.24"
/>
<path stroke="#df8d8c" vector-effect="non-scaling-stroke" d="
  M 115.28 63.21
  Q 115.00 63.51 115.02 64.00
  Q 115.23 68.87 118.59 71.95
  Q 120.01 73.25 121.30 73.42
  Q 123.01 73.64 124.49 72.24
  Q 128.01 68.90 128.40 64.06
  A 1.20 0.98 29.5 0 0 128.07 63.21
  L 126.57 61.63
  A 1.39 1.09 66.2 0 0 125.76 61.20
  Q 120.61 60.70 117.81 61.06
  Q 116.69 61.21 115.93 62.49
  Q 115.88 62.58 115.28 63.21"
/>
<path stroke="#d17475" vector-effect="non-scaling-stroke" d="
  M 82.06 70.87
  A 1.01 0.98 -44.7 0 0 82.97 70.86
  Q 89.42 67.59 94.79 63.73
  Q 95.25 63.40 95.48 63.04
  Q 96.27 61.86 94.84 61.99
  Q 94.39 62.03 93.82 62.28
  Q 87.47 65.07 81.70 68.96
  Q 80.21 69.96 82.06 70.87"
/>
<path stroke="#ecdad5" stroke-opacity="0.996" vector-effect="non-scaling-stroke" d="
  M 117.69 63.44
  L 116.58 64.46
  Q 115.58 65.39 116.81 67.36
  Q 118.65 70.31 120.52 71.27
  Q 122.77 72.42 124.76 69.98
  Q 125.91 68.56 126.42 66.76
  Q 126.98 64.77 125.84 63.46
  Q 124.41 61.82 121.75 62.25
  Q 118.37 62.80 117.69 63.44"
/>
<path stroke="#ecdad5" stroke-opacity="0.996" vector-effect="non-scaling-stroke" d="
  M 125.10 63.46
  Q 123.99 62.69 122.72 62.64
  Q 121.65 62.60 120.28 62.69
  Q 118.70 62.80 117.75 63.93
  Q 116.93 64.90 117.26 66.39
  Q 117.86 69.07 119.95 70.84
  Q 121.52 72.18 123.18 70.95
  Q 125.59 69.15 126.19 66.18
  Q 126.54 64.47 125.10 63.46"
/>
</g>
<path fill="#7c8c7b" fill-opacity="0.984" d="
  M 6.52 8.75
  Q 5.43 24.52 6.29 40.25
  L 6.04 45.00
  Q 6.38 70.38 6.00 90.00
  Q 5.99 90.33 5.54 90.50
  Q 5.14 85.19 5.23 79.87
  Q 5.40 69.31 5.40 69.25
  Q 5.09 22.27 5.25 10.25
  Q 5.27 8.98 6.52 8.75
  Z"
/>
<path fill="#2d3235" d="
  M 6.52 8.75
  L 53.99 8.74
  L 53.96 35.75
  Q 53.10 35.79 52.54 36.50
  L 52.44 24.56
  A 0.51 0.49 0.0 0 0 51.93 24.07
  L 8.31 24.24
  A 0.77 0.71 -1.1 0 0 7.55 24.97
  L 7.75 34.54
  L 7.54 35.25
  L 7.46 39.25
  Q 7.03 40.15 6.29 40.25
  Q 5.43 24.52 6.52 8.75
  Z
  M 52.50 11.27
  A 0.27 0.27 0.0 0 0 52.23 11.00
  L 7.77 11.00
  A 0.27 0.27 0.0 0 0 7.50 11.27
  L 7.50 22.23
  A 0.27 0.27 0.0 0 0 7.77 22.50
  L 52.23 22.50
  A 0.27 0.27 0.0 0 0 52.50 22.23
  L 52.50 11.27
  Z"
/>
<path fill="#7c8c7b" fill-opacity="0.984" d="
  M 53.99 8.74
  Q 55.28 22.04 54.69 37.31
  Q 54.65 38.19 55.50 37.79
  Q 55.85 38.35 55.50 38.79
  Q 54.54 38.73 54.64 39.71
  Q 54.71 40.43 54.67 40.80
  Q 54.56 41.87 54.72 42.94
  A 0.84 0.83 4.8 0 0 55.29 43.60
  Q 57.71 44.41 60.22 44.92
  Q 61.11 45.10 61.53 45.48
  Q 62.53 46.38 61.04 47.25
  Q 60.81 45.29 58.82 45.15
  Q 56.23 44.97 53.96 43.75
  Q 54.15 42.37 53.71 41.00
  Q 54.96 38.46 53.96 35.75
  L 53.99 8.74
  Z"
/>
<path fill="#ffffff" d="
  M 52.50 22.23
  A 0.27 0.27 0.0 0 1 52.23 22.50
  L 7.77 22.50
  A 0.27 0.27 0.0 0 1 7.50 22.23
  L 7.50 11.27
  A 0.27 0.27 0.0 0 1 7.77 11.00
  L 52.23 11.00
  A 0.27 0.27 0.0 0 1 52.50 11.27
  L 52.50 22.23
  Z
  M 46.81 17.06
  Q 50.57 13.05 46.84 15.85
  Q 46.63 16.01 46.34 16.34
  Q 44.69 18.21 42.82 15.12
  A 1.32 1.32 45.7 0 0 40.58 15.09
  Q 38.35 18.53 36.56 15.71
  Q 35.12 13.43 32.88 16.49
  A 1.32 1.32 -43.1 0 1 30.69 16.42
  Q 28.31 12.63 25.84 16.46
  A 1.23 1.23 -69.1 0 1 23.78 16.46
  Q 21.61 13.09 19.43 16.52
  A 1.24 1.23 36.1 0 1 17.60 16.80
  Q 16.98 16.28 16.05 15.21
  Q 14.81 13.80 13.78 15.62
  Q 13.18 16.68 12.15 17.35
  Q 11.21 17.95 11.29 18.55
  Q 11.37 19.09 11.87 18.65
  L 14.61 16.31
  A 0.62 0.59 -45.3 0 1 15.40 16.29
  L 17.29 17.93
  A 1.72 1.52 37.6 0 0 19.72 17.77
  Q 21.73 14.72 23.66 17.94
  Q 24.87 19.95 26.12 17.97
  Q 28.41 14.36 30.50 17.76
  Q 31.78 19.83 33.11 17.80
  Q 35.24 14.57 37.03 17.88
  Q 38.19 20.01 39.50 17.98
  Q 41.70 14.57 43.56 17.69
  Q 44.60 19.43 46.81 17.06
  Z"
/>
<path fill="#2d3235" d="
  M 46.81 17.06
  Q 44.60 19.43 43.56 17.69
  Q 41.70 14.57 39.50 17.98
  Q 38.19 20.01 37.03 17.88
  Q 35.24 14.57 33.11 17.80
  Q 31.78 19.83 30.50 17.76
  Q 28.41 14.36 26.12 17.97
  Q 24.87 19.95 23.66 17.94
  Q 21.73 14.72 19.72 17.77
  A 1.72 1.52 37.6 0 1 17.29 17.93
  L 15.40 16.29
  A 0.62 0.59 -45.3 0 0 14.61 16.31
  L 11.87 18.65
  Q 11.37 19.09 11.29 18.55
  Q 11.21 17.95 12.15 17.35
  Q 13.18 16.68 13.78 15.62
  Q 14.81 13.80 16.05 15.21
  Q 16.98 16.28 17.60 16.80
  A 1.24 1.23 36.1 0 0 19.43 16.52
  Q 21.61 13.09 23.78 16.46
  A 1.23 1.23 -40.5 0 0 25.84 16.46
  Q 28.31 12.63 30.69 16.42
  A 1.32 1.32 -43.1 0 0 32.88 16.49
  Q 35.12 13.43 36.56 15.71
  Q 38.35 18.53 40.58 15.09
  A 1.32 1.32 45.7 0 1 42.82 15.12
  Q 44.69 18.21 46.34 16.34
  Q 46.63 16.01 46.84 15.85
  Q 50.57 13.05 46.81 17.06
  Z"
/>
<path fill="#f1d2d2" d="
  M 93.75 22.96
  L 93.25 23.29
  L 88.78 23.10
  A 0.61 0.52 -86.8 0 0 88.23 23.67
  Q 87.84 29.18 89.70 24.33
  A 0.60 0.59 22.3 0 1 90.50 24.00
  Q 91.72 24.55 92.96 24.00
  L 93.53 40.26
  A 1.74 1.70 -0.9 0 0 95.26 41.90
  L 117.46 42.00
  Q 117.53 43.50 117.53 45.00
  Q 117.53 45.90 118.18 45.97
  A 0.83 0.69 -71.7 0 0 118.93 45.50
  Q 119.41 44.50 119.33 43.38
  Q 119.32 43.25 119.31 42.12
  Q 119.30 40.79 117.79 40.75
  Q 118.14 40.26 118.75 40.21
  Q 120.79 42.89 119.30 45.87
  A 1.70 1.00 -11.5 0 1 118.60 46.50
  L 114.46 48.50
  Q 113.66 49.15 113.19 48.12
  A 0.68 0.68 72.2 0 1 113.83 47.16
  Q 115.61 47.22 116.20 46.50
  A 0.37 0.32 23.8 0 0 115.95 45.96
  Q 112.99 45.38 110.07 45.99
  Q 108.75 46.26 109.80 47.18
  L 118.90 55.15
  A 0.44 0.41 48.8 0 1 118.88 55.82
  Q 118.15 56.29 117.46 55.50
  Q 117.79 54.80 116.81 53.94
  Q 113.40 50.94 109.89 48.07
  A 1.54 1.01 -16.3 0 0 109.00 47.80
  L 103.68 47.86
  A 1.39 0.79 56.4 0 1 102.85 47.44
  Q 101.72 46.35 100.55 47.34
  A 1.89 0.89 -52.5 0 1 99.70 47.78
  L 97.00 48.19
  A 1.98 1.47 12.7 0 0 96.12 48.58
  Q 92.81 51.43 89.47 54.22
  Q 88.65 54.90 89.50 55.46
  Q 89.01 55.38 88.75 55.71
  Q 87.98 55.98 87.73 55.90
  Q 86.55 55.53 87.53 54.77
  Q 93.12 50.39 95.81 47.81
  Q 96.62 47.04 99.50 46.79
  A 0.64 0.52 -2.9 0 0 100.09 46.26
  Q 100.10 45.54 99.08 45.64
  Q 98.43 45.71 97.91 45.66
  Q 95.31 45.38 94.21 47.75
  L 93.50 47.71
  Q 94.04 46.64 92.75 46.54
  Q 91.63 45.65 90.31 45.83
  A 1.69 1.01 -23.6 0 1 89.37 45.71
  L 88.04 45.00
  L 87.96 44.75
  Q 88.29 43.69 87.64 43.05
  A 1.57 0.73 34.0 0 1 87.16 42.25
  Q 87.02 41.19 87.00 39.00
  Q 86.98 37.23 88.25 36.75
  Q 87.67 39.52 88.22 42.51
  Q 88.40 43.48 88.80 42.58
  Q 90.23 39.40 88.25 36.75
  Q 86.06 33.07 87.90 28.18
  A 1.17 1.16 -63.7 0 0 87.44 26.80
  Q 86.60 26.26 87.42 23.16
  A 1.24 1.23 -88.1 0 1 88.37 22.27
  Q 92.06 21.54 93.75 22.96
  Z
  M 88.33 29.05
  Q 87.64 32.18 88.30 34.71
  Q 88.44 35.23 88.68 34.74
  Q 90.05 31.97 88.66 29.01
  Q 88.44 28.54 88.33 29.05
  Z
  M 108.81 46.29
  Q 105.87 45.12 103.17 46.19
  Q 102.08 46.63 103.23 46.87
  Q 106.01 47.48 108.81 46.48
  Q 109.07 46.39 108.81 46.29
  Z"
/>
<path fill="#d8b4aa" fill-opacity="0.992" d="
  M 102.25 23.21
  Q 101.36 23.07 101.04 23.75
  Q 98.27 21.75 95.75 23.96
  L 94.50 23.29
  Q 98.36 20.65 102.25 23.21
  Z"
/>
<path fill="#d8b4aa" fill-opacity="0.992" d="
  M 110.25 23.21
  Q 109.36 23.07 109.04 23.75
  Q 106.36 21.89 103.71 23.75
  L 102.50 23.29
  Q 106.37 20.64 110.25 23.21
  Z"
/>
<path fill="#d8b4aa" fill-opacity="0.992" d="
  M 117.29 22.75
  L 117.21 23.25
  Q 114.30 22.29 111.71 23.75
  Q 110.99 23.81 110.50 23.29
  Q 113.74 20.99 117.29 22.75
  Z"
/>
<path fill="#ffffff" d="
  M 117.29 22.75
  L 119.04 24.25
  Q 118.96 24.95 118.25 24.79
  Q 116.08 27.82 118.71 30.25
  L 118.79 30.50
  Q 117.82 31.70 119.29 32.75
  L 119.21 33.50
  L 118.44 32.64
  A 0.34 0.33 -57.4 0 0 117.88 32.77
  Q 117.45 34.03 117.50 36.25
  Q 117.54 37.93 118.71 38.25
  L 118.79 38.50
  Q 117.89 39.36 118.75 40.21
  Q 118.14 40.26 117.79 40.75
  L 117.46 42.00
  L 95.26 41.90
  A 1.74 1.70 -0.9 0 1 93.53 40.26
  L 92.96 24.00
  Q 93.26 23.70 93.25 23.29
  L 93.75 22.96
  Q 94.18 23.00 94.50 23.29
  L 95.75 23.96
  Q 98.45 24.66 101.04 23.75
  Q 101.36 23.07 102.25 23.21
  L 102.50 23.29
  L 103.71 23.75
  Q 106.38 24.98 109.04 23.75
  Q 109.36 23.07 110.25 23.21
  L 110.50 23.29
  Q 110.99 23.81 111.71 23.75
  Q 114.69 25.27 117.21 23.25
  L 117.29 22.75
  Z
  M 103.94 32.81
  Q 104.18 33.90 106.92 31.32
  A 1.37 1.36 -58.5 0 1 108.24 31.00
  Q 109.25 31.29 108.35 31.78
  Q 106.65 32.73 105.33 34.13
  A 0.85 0.78 -35.3 0 0 105.15 34.98
  Q 105.52 35.90 106.31 35.94
  Q 109.23 36.07 107.00 37.25
  Q 105.93 37.82 103.31 37.65
  Q 101.49 37.53 100.34 38.20
  Q 98.97 38.99 97.84 40.14
  A 0.42 0.37 -54.6 0 0 97.91 40.79
  Q 98.32 40.98 98.69 40.69
  Q 100.63 39.16 101.98 38.51
  A 1.49 1.16 33.6 0 1 102.91 38.44
  Q 106.71 39.34 109.17 36.46
  A 0.59 0.59 28.5 0 0 108.89 35.52
  Q 106.80 34.86 106.61 34.26
  Q 106.48 33.86 107.90 33.28
  Q 109.22 32.74 109.96 31.74
  A 1.10 0.95 34.8 0 0 109.59 30.29
  L 107.36 28.84
  A 1.12 0.77 45.9 0 0 106.53 28.67
  Q 105.27 29.07 104.58 28.62
  A 1.79 1.79 34.2 0 0 102.16 29.08
  Q 100.07 31.98 99.31 34.95
  A 1.27 1.17 83.5 0 1 98.76 35.70
  L 96.05 37.29
  Q 93.95 38.54 96.31 37.94
  Q 98.28 37.44 99.44 36.30
  Q 100.12 35.64 100.84 33.29
  Q 101.46 31.29 102.50 30.25
  Q 104.77 27.97 103.41 30.69
  Q 103.29 30.92 103.01 31.28
  Q 101.91 32.69 103.94 32.81
  Z"
/>
<path fill="#bf1a19" d="
  M 93.25 23.29
  Q 93.26 23.70 92.96 24.00
  Q 91.72 24.55 90.50 24.00
  A 0.60 0.59 22.3 0 0 89.70 24.33
  Q 87.84 29.18 88.23 23.67
  A 0.61 0.52 -86.8 0 1 88.78 23.10
  L 93.25 23.29
  Z"
/>
<path fill="#b01617" d="
  M 101.04 23.75
  Q 98.45 24.66 95.75 23.96
  Q 98.27 21.75 101.04 23.75
  Z"
/>
<path fill="#b01617" d="
  M 109.04 23.75
  Q 106.38 24.98 103.71 23.75
  Q 106.36 21.89 109.04 23.75
  Z"
/>
<path fill="#bf1a19" d="
  M 117.21 23.25
  Q 114.69 25.27 111.71 23.75
  Q 114.30 22.29 117.21 23.25
  Z"
/>
<path fill="#ffffff" d="
  M 52.54 36.50
  L 52.54 41.00
  L 52.56 44.56
  Q 48.61 44.16 50.32 45.25
  A 1.72 0.84 -14.4 0 0 51.25 45.44
  Q 51.93 45.43 52.54 45.75
  L 52.45 55.11
  A 0.95 0.94 0.9 0 1 51.48 56.04
  Q 29.05 55.47 8.06 55.93
  A 0.49 0.49 -0.6 0 1 7.56 55.44
  L 7.46 44.75
  L 7.46 39.25
  L 7.54 35.25
  Q 9.05 35.69 10.57 35.42
  A 0.68 0.51 -8.8 0 0 11.15 34.83
  Q 11.09 34.36 10.25 34.41
  Q 9.00 34.47 7.75 34.54
  L 7.55 24.97
  A 0.77 0.71 -1.1 0 1 8.31 24.24
  L 51.93 24.07
  A 0.51 0.49 0.0 0 1 52.44 24.56
  L 52.54 36.50
  Z
  M 25.81 31.56
  Q 26.40 31.15 26.80 30.55
  Q 28.40 28.19 30.33 31.16
  A 1.48 1.44 52.7 0 0 32.52 31.49
  L 34.63 29.59
  A 0.56 0.56 -0.0 0 1 35.37 29.59
  L 37.94 31.87
  A 0.58 0.53 43.0 0 0 38.70 31.88
  L 41.23 29.33
  A 0.51 0.47 -45.4 0 1 41.93 29.30
  L 44.42 31.79
  A 0.78 0.76 45.0 0 0 45.52 31.81
  L 48.53 28.76
  A 0.94 0.87 -24.1 0 0 48.79 28.16
  Q 48.81 27.54 48.26 28.02
  Q 47.19 28.94 45.54 30.59
  A 0.82 0.82 53.1 0 1 44.24 30.40
  Q 43.60 29.25 41.78 28.27
  A 0.74 0.70 -52.8 0 0 40.93 28.41
  L 38.89 30.43
  A 0.59 0.59 43.5 0 1 38.09 30.45
  L 35.35 28.10
  A 0.58 0.49 42.4 0 0 34.62 28.07
  L 32.34 30.32
  A 1.08 0.97 43.1 0 1 30.95 30.29
  L 28.69 28.34
  A 0.81 0.68 -44.1 0 0 27.70 28.41
  L 25.37 30.43
  A 0.57 0.52 44.9 0 1 24.64 30.40
  L 22.07 28.12
  A 0.62 0.51 42.3 0 0 21.28 28.08
  L 19.41 30.04
  A 1.38 1.16 -45.5 0 1 17.59 30.21
  L 15.37 27.99
  A 0.52 0.52 90.0 0 0 14.63 27.99
  Q 12.85 29.78 11.44 31.19
  Q 11.13 31.50 11.10 31.76
  Q 11.04 32.36 12.10 31.95
  A 2.73 2.70 5.1 0 0 13.44 30.84
  Q 15.07 28.17 16.39 30.40
  Q 18.21 33.48 20.60 30.10
  A 1.25 1.24 39.1 0 1 22.46 29.91
  L 24.63 31.91
  A 0.73 0.55 46.6 0 0 25.45 32.05
  Q 25.70 31.87 25.81 31.56
  Z
  M 18.79 34.77
  Q 17.05 34.36 15.25 34.35
  Q 13.98 34.34 14.26 35.08
  A 0.84 0.64 -7.7 0 0 15.00 35.50
  Q 16.76 35.50 18.52 35.50
  Q 18.77 35.50 18.97 35.38
  Q 19.63 34.96 18.79 34.77
  Z
  M 26.80 35.26
  Q 27.43 35.14 27.19 34.81
  A 0.88 0.54 -7.3 0 0 26.59 34.54
  Q 25.05 34.44 23.52 34.28
  Q 22.24 34.15 22.23 34.95
  A 0.62 0.51 2.8 0 0 22.81 35.48
  Q 24.82 35.64 26.80 35.26
  Z
  M 34.38 34.65
  Q 33.60 34.40 31.80 34.20
  A 1.56 1.55 -69.2 0 0 30.36 34.85
  Q 29.65 35.85 31.51 35.74
  Q 32.64 35.67 33.76 35.50
  Q 35.95 35.16 34.38 34.65
  Z
  M 42.64 34.82
  Q 40.60 33.75 38.67 34.96
  Q 38.20 35.25 38.73 35.39
  Q 40.70 35.87 42.60 35.23
  Q 43.11 35.06 42.64 34.82
  Z
  M 46.29 34.86
  Q 45.68 35.54 47.00 35.54
  Q 48.72 35.55 50.45 35.46
  Q 51.36 35.42 50.98 34.99
  Q 50.54 34.50 47.86 34.25
  A 1.87 1.87 23.7 0 0 46.29 34.86
  Z
  M 38.05 41.88
  A 0.60 0.55 -44.8 0 0 38.80 41.85
  L 41.28 39.64
  A 1.06 1.00 55.0 0 1 42.85 39.96
  Q 44.50 42.90 46.11 41.11
  Q 51.59 35.01 45.60 40.44
  A 0.72 0.69 -51.9 0 1 44.83 40.55
  Q 43.19 39.74 42.60 38.95
  Q 41.36 37.29 40.24 39.04
  Q 38.30 42.07 36.67 39.32
  Q 35.00 36.49 33.03 39.78
  Q 31.92 41.64 30.56 39.95
  Q 28.01 36.78 26.25 39.56
  Q 24.82 41.82 23.04 38.91
  A 1.65 1.39 -36.3 0 0 20.74 38.75
  L 18.74 40.42
  A 0.70 0.57 44.0 0 1 17.94 40.35
  L 15.40 38.30
  A 0.65 0.59 42.9 0 0 14.58 38.29
  L 11.38 41.30
  A 0.61 0.53 -43.5 0 0 11.30 42.12
  Q 11.58 42.41 12.02 42.02
  Q 13.22 40.97 14.35 39.63
  A 0.88 0.88 -38.7 0 1 15.81 39.79
  Q 18.01 44.06 20.44 40.26
  Q 21.68 38.31 22.94 40.25
  Q 24.96 43.36 26.81 40.56
  Q 28.45 38.10 30.25 41.09
  A 1.55 1.45 -36.3 0 0 32.52 41.36
  L 34.60 39.56
  A 0.62 0.59 45.3 0 1 35.39 39.58
  L 38.05 41.88
  Z
  M 10.46 44.64
  Q 8.88 44.93 10.38 45.50
  Q 12.02 46.12 14.22 45.26
  Q 14.76 45.05 14.24 44.81
  Q 12.88 44.20 10.46 44.64
  Z
  M 17.59 45.17
  Q 17.59 45.88 18.78 45.74
  Q 20.23 45.58 21.69 45.47
  A 0.71 0.47 -3.3 0 0 22.35 44.97
  Q 22.34 44.47 21.25 44.50
  Q 19.08 44.56 18.19 44.63
  A 0.65 0.53 -2.9 0 0 17.59 45.17
  Z
  M 26.37 45.35
  Q 27.15 45.60 28.95 45.80
  A 1.56 1.55 -69.2 0 0 30.39 45.15
  Q 31.10 44.15 29.24 44.26
  Q 28.11 44.33 26.99 44.50
  Q 24.80 44.84 26.37 45.35
  Z
  M 34.44 45.56
  Q 37.26 46.47 38.19 45.44
  Q 38.93 44.61 36.20 44.35
  Q 35.51 44.29 34.84 44.43
  Q 32.46 44.92 34.44 45.56
  Z
  M 46.32 45.06
  Q 47.20 44.57 46.21 44.56
  L 42.31 44.53
  A 0.52 0.47 -3.4 0 0 41.79 45.06
  Q 41.88 45.70 42.69 45.62
  Q 43.40 45.55 43.81 45.58
  Q 45.15 45.71 46.32 45.06
  Z
  M 22.59 48.69
  A 1.37 1.32 45.0 0 0 20.67 48.65
  L 19.03 50.32
  A 0.73 0.64 -53.5 0 1 18.24 50.49
  Q 16.82 49.77 15.57 48.06
  A 0.62 0.61 -40.5 0 0 14.64 47.99
  Q 12.81 49.81 11.36 51.09
  Q 10.78 51.59 11.09 51.96
  A 0.60 0.54 -41.1 0 0 11.92 51.97
  L 14.44 49.64
  A 0.60 0.47 -45.4 0 1 15.15 49.55
  L 17.94 51.85
  A 0.66 0.55 43.3 0 0 18.72 51.90
  L 20.75 50.15
  A 1.65 1.43 -36.4 0 1 23.10 50.34
  Q 25.00 53.51 27.08 50.04
  Q 28.25 48.08 29.51 49.98
  Q 31.81 53.46 33.56 50.31
  Q 35.00 47.73 36.69 50.56
  Q 38.42 53.47 40.16 50.62
  Q 41.99 47.64 43.44 50.83
  Q 44.32 52.74 45.96 51.43
  Q 47.13 50.50 48.52 48.67
  Q 48.73 48.39 48.74 48.15
  Q 48.79 47.55 47.88 48.13
  Q 47.18 48.58 46.71 49.28
  Q 44.80 52.13 43.50 49.50
  Q 42.00 46.47 40.69 48.69
  Q 38.52 52.36 36.26 48.85
  Q 35.11 47.07 33.86 48.79
  Q 31.31 52.34 29.00 48.44
  A 0.75 0.63 65.7 0 0 28.25 48.08
  Q 27.22 48.36 26.65 49.42
  Q 25.46 51.62 22.59 48.69
  Z"
/>
<path fill="#c78a85" fill-opacity="0.980" d="
  M 119.04 24.25
  Q 120.89 27.48 118.79 30.50
  L 118.71 30.25
  Q 119.10 29.23 119.25 26.75
  Q 119.34 25.21 118.25 24.79
  Q 118.96 24.95 119.04 24.25
  Z"
/>
<path fill="#bf1a19" d="
  M 118.25 24.79
  Q 119.34 25.21 119.25 26.75
  Q 119.10 29.23 118.71 30.25
  Q 116.08 27.82 118.25 24.79
  Z"
/>
<path fill="#2d3235" d="
  M 25.81 31.56
  Q 25.70 31.87 25.45 32.05
  A 0.73 0.55 46.6 0 1 24.63 31.91
  L 22.46 29.91
  A 1.25 1.24 39.1 0 0 20.60 30.10
  Q 18.21 33.48 16.39 30.40
  Q 15.07 28.17 13.44 30.84
  A 2.73 2.70 5.1 0 1 12.10 31.95
  Q 11.04 32.36 11.10 31.76
  Q 11.13 31.50 11.44 31.19
  Q 12.85 29.78 14.63 27.99
  A 0.52 0.52 -0.0 0 1 15.37 27.99
  L 17.59 30.21
  A 1.38 1.16 -45.5 0 0 19.41 30.04
  L 21.28 28.08
  A 0.62 0.51 42.3 0 1 22.07 28.12
  L 24.64 30.40
  A 0.57 0.52 44.9 0 0 25.37 30.43
  L 27.70 28.41
  A 0.81 0.68 -44.1 0 1 28.69 28.34
  L 30.95 30.29
  A 1.08 0.97 43.1 0 0 32.34 30.32
  L 34.62 28.07
  A 0.58 0.49 42.4 0 1 35.35 28.10
  L 38.09 30.45
  A 0.59 0.59 43.5 0 0 38.89 30.43
  L 40.93 28.41
  A 0.74 0.70 -52.8 0 1 41.78 28.27
  Q 43.60 29.25 44.24 30.40
  A 0.82 0.82 53.1 0 0 45.54 30.59
  Q 47.19 28.94 48.26 28.02
  Q 48.81 27.54 48.79 28.16
  A 0.94 0.87 -24.1 0 1 48.53 28.76
  L 45.52 31.81
  A 0.78 0.76 45.0 0 1 44.42 31.79
  L 41.93 29.30
  A 0.51 0.47 -45.4 0 0 41.23 29.33
  L 38.70 31.88
  A 0.58 0.53 43.0 0 1 37.94 31.87
  L 35.37 29.59
  A 0.56 0.56 0.0 0 0 34.63 29.59
  L 32.52 31.49
  A 1.48 1.44 52.7 0 1 30.33 31.16
  Q 28.40 28.19 26.80 30.55
  Q 26.40 31.15 25.81 31.56
  Z"
/>
<path fill="#b01617" d="
  M 103.94 32.81
  Q 101.91 32.69 103.01 31.28
  Q 103.29 30.92 103.41 30.69
  Q 104.77 27.97 102.50 30.25
  Q 101.46 31.29 100.84 33.29
  Q 100.12 35.64 99.44 36.30
  Q 98.28 37.44 96.31 37.94
  Q 93.95 38.54 96.05 37.29
  L 98.76 35.70
  A 1.27 1.17 83.5 0 0 99.31 34.95
  Q 100.07 31.98 102.16 29.08
  A 1.79 1.79 34.2 0 1 104.58 28.62
  Q 105.27 29.07 106.53 28.67
  A 1.12 0.77 45.9 0 1 107.36 28.84
  L 109.59 30.29
  A 1.10 0.95 34.8 0 1 109.96 31.74
  Q 109.22 32.74 107.90 33.28
  Q 106.48 33.86 106.61 34.26
  Q 106.80 34.86 108.89 35.52
  A 0.59 0.59 28.5 0 1 109.17 36.46
  Q 106.71 39.34 102.91 38.44
  A 1.49 1.16 33.6 0 0 101.98 38.51
  Q 100.63 39.16 98.69 40.69
  Q 98.32 40.98 97.91 40.79
  A 0.42 0.37 -54.6 0 1 97.84 40.14
  Q 98.97 38.99 100.34 38.20
  Q 101.49 37.53 103.31 37.65
  Q 105.93 37.82 107.00 37.25
  Q 109.23 36.07 106.31 35.94
  Q 105.52 35.90 105.15 34.98
  A 0.85 0.78 -35.3 0 1 105.33 34.13
  Q 106.65 32.73 108.35 31.78
  Q 109.25 31.29 108.24 31.00
  A 1.37 1.36 -58.5 0 0 106.92 31.32
  Q 104.18 33.90 103.94 32.81
  Z
  M 104.10 31.63
  Q 103.60 32.65 104.81 32.06
  A 3.38 1.20 -21.7 0 0 106.94 30.19
  Q 107.08 29.00 105.26 30.27
  Q 104.50 30.80 104.10 31.63
  Z"
/>
<path fill="#b01617" d="
  M 88.33 29.05
  Q 88.44 28.54 88.66 29.01
  Q 90.05 31.97 88.68 34.74
  Q 88.44 35.23 88.30 34.71
  Q 87.64 32.18 88.33 29.05
  Z"
/>
<path fill="#ffffff" d="
  M 104.10 31.63
  Q 104.50 30.80 105.26 30.27
  Q 107.08 29.00 106.94 30.19
  A 3.38 1.20 -21.7 0 1 104.81 32.06
  Q 103.60 32.65 104.10 31.63
  Z"
/>
<path fill="#bf1a19" d="
  M 119.21 33.50
  Q 119.60 35.97 118.71 38.25
  Q 117.54 37.93 117.50 36.25
  Q 117.45 34.03 117.88 32.77
  A 0.34 0.33 -57.4 0 1 118.44 32.64
  L 119.21 33.50
  Z"
/>
<path fill="#c78a85" fill-opacity="0.980" d="
  M 119.29 32.75
  Q 120.70 35.81 118.79 38.50
  L 118.71 38.25
  Q 119.60 35.97 119.21 33.50
  L 119.29 32.75
  Z"
/>
<path fill="#af4846" d="
  M 7.75 34.54
  Q 9.00 34.47 10.25 34.41
  Q 11.09 34.36 11.15 34.83
  A 0.68 0.51 -8.8 0 1 10.57 35.42
  Q 9.05 35.69 7.54 35.25
  L 7.75 34.54
  Z"
/>
<path fill="#af4846" d="
  M 18.79 34.77
  Q 19.63 34.96 18.97 35.38
  Q 18.77 35.50 18.52 35.50
  Q 16.76 35.50 15.00 35.50
  A 0.84 0.64 -7.7 0 1 14.26 35.08
  Q 13.98 34.34 15.25 34.35
  Q 17.05 34.36 18.79 34.77
  Z"
/>
<path fill="#af4846" d="
  M 26.80 35.26
  Q 24.82 35.64 22.81 35.48
  A 0.62 0.51 2.8 0 1 22.23 34.95
  Q 22.24 34.15 23.52 34.28
  Q 25.05 34.44 26.59 34.54
  A 0.88 0.54 -7.3 0 1 27.19 34.81
  Q 27.43 35.14 26.80 35.26
  Z"
/>
<path fill="#af4846" d="
  M 33.76 35.50
  Q 32.64 35.67 31.51 35.74
  Q 29.65 35.85 30.36 34.85
  A 1.56 1.55 -69.2 0 1 31.80 34.20
  Q 33.60 34.40 34.38 34.65
  Q 35.95 35.16 33.76 35.50
  Z"
/>
<path fill="#af4846" d="
  M 42.60 35.23
  Q 40.70 35.87 38.73 35.39
  Q 38.20 35.25 38.67 34.96
  Q 40.60 33.75 42.64 34.82
  Q 43.11 35.06 42.60 35.23
  Z"
/>
<path fill="#af4846" d="
  M 46.29 34.86
  A 1.87 1.87 23.7 0 1 47.86 34.25
  Q 50.54 34.50 50.98 34.99
  Q 51.36 35.42 50.45 35.46
  Q 48.72 35.55 47.00 35.54
  Q 45.68 35.54 46.29 34.86
  Z"
/>
<path fill="#d19f93" fill-opacity="0.988" d="
  M 55.96 39.25
  Q 66.85 38.63 78.28 39.28
  Q 79.14 39.33 78.48 39.88
  Q 77.15 41.00 78.69 41.16
  Q 79.14 41.21 79.63 40.97
  Q 81.69 39.97 83.75 39.09
  Q 84.91 38.59 83.82 37.94
  Q 81.83 36.75 79.71 35.84
  Q 77.18 34.76 78.43 37.15
  A 0.47 0.47 -15.2 0 1 78.04 37.83
  Q 67.01 38.48 55.71 37.75
  Q 56.87 36.74 59.00 37.00
  Q 61.92 37.35 76.81 36.83
  A 0.52 0.47 -89.9 0 0 77.27 36.32
  Q 77.27 35.63 77.66 35.11
  A 0.85 0.72 23.6 0 1 78.49 34.86
  Q 81.11 35.48 83.69 37.19
  Q 85.92 38.66 83.53 39.77
  L 78.98 41.87
  A 1.01 1.00 77.3 0 1 77.56 40.96
  Q 77.53 39.50 75.89 39.64
  Q 74.72 39.75 74.59 39.75
  Q 66.05 39.75 57.50 39.75
  Q 56.30 39.75 55.96 39.25
  Z"
/>
<path fill="#b01617" d="
  M 53.96 35.75
  Q 54.96 38.46 53.71 41.00
  Q 53.09 41.51 52.54 41.00
  L 52.54 36.50
  Q 53.10 35.79 53.96 35.75
  Z"
/>
<path fill="#bf1a19" d="
  M 55.96 39.25
  Q 55.63 39.12 55.50 38.79
  Q 55.85 38.35 55.50 37.79
  L 55.71 37.75
  Q 67.01 38.48 78.04 37.83
  A 0.47 0.47 -15.2 0 0 78.43 37.15
  Q 77.18 34.76 79.71 35.84
  Q 81.83 36.75 83.82 37.94
  Q 84.91 38.59 83.75 39.09
  Q 81.69 39.97 79.63 40.97
  Q 79.14 41.21 78.69 41.16
  Q 77.15 41.00 78.48 39.88
  Q 79.14 39.33 78.28 39.28
  Q 66.85 38.63 55.96 39.25
  Z"
/>
<path fill="#b01617" d="
  M 88.25 36.75
  Q 90.23 39.40 88.80 42.58
  Q 88.40 43.48 88.22 42.51
  Q 87.67 39.52 88.25 36.75
  Z"
/>
<path fill="#b01617" d="
  M 38.05 41.88
  L 35.39 39.58
  A 0.62 0.59 45.3 0 0 34.60 39.56
  L 32.52 41.36
  A 1.55 1.45 -36.3 0 1 30.25 41.09
  Q 28.45 38.10 26.81 40.56
  Q 24.96 43.36 22.94 40.25
  Q 21.68 38.31 20.44 40.26
  Q 18.01 44.06 15.81 39.79
  A 0.88 0.88 -38.7 0 0 14.35 39.63
  Q 13.22 40.97 12.02 42.02
  Q 11.58 42.41 11.30 42.12
  A 0.61 0.53 -43.5 0 1 11.38 41.30
  L 14.58 38.29
  A 0.65 0.59 42.9 0 1 15.40 38.30
  L 17.94 40.35
  A 0.70 0.57 44.0 0 0 18.74 40.42
  L 20.74 38.75
  A 1.65 1.39 -36.3 0 1 23.04 38.91
  Q 24.82 41.82 26.25 39.56
  Q 28.01 36.78 30.56 39.95
  Q 31.92 41.64 33.03 39.78
  Q 35.00 36.49 36.67 39.32
  Q 38.30 42.07 40.24 39.04
  Q 41.36 37.29 42.60 38.95
  Q 43.19 39.74 44.83 40.55
  A 0.72 0.69 -51.9 0 0 45.60 40.44
  Q 51.59 35.01 46.11 41.11
  Q 44.50 42.90 42.85 39.96
  A 1.06 1.00 55.0 0 0 41.28 39.64
  L 38.80 41.85
  A 0.60 0.55 -44.8 0 1 38.05 41.88
  Z"
/>
<path fill="#b01617" d="
  M 7.46 39.25
  L 7.46 44.75
  Q 6.81 45.57 6.04 45.00
  L 6.29 40.25
  Q 7.03 40.15 7.46 39.25
  Z"
/>
<path fill="#bf1a19" d="
  M 117.79 40.75
  Q 119.30 40.79 119.31 42.12
  Q 119.32 43.25 119.33 43.38
  Q 119.41 44.50 118.93 45.50
  A 0.83 0.69 -71.7 0 1 118.18 45.97
  Q 117.53 45.90 117.53 45.00
  Q 117.53 43.50 117.46 42.00
  L 117.79 40.75
  Z"
/>
<path fill="#212725" d="
  M 52.54 41.00
  Q 53.09 41.51 53.71 41.00
  Q 54.15 42.37 53.96 43.75
  Q 53.12 43.88 52.56 44.56
  L 52.54 41.00
  Z"
/>
<path fill="#bf1a19" d="
  M 53.96 43.75
  Q 56.23 44.97 58.82 45.15
  Q 60.81 45.29 61.04 47.25
  Q 61.00 47.46 60.79 47.50
  Q 58.56 46.33 59.66 48.28
  Q 67.60 62.32 57.13 74.41
  L 54.75 76.54
  L 52.50 77.04
  L 50.31 77.35
  A 1.04 0.77 -19.7 0 1 49.45 77.09
  Q 48.78 76.29 49.99 75.96
  Q 51.37 75.57 52.54 74.75
  L 54.25 73.96
  Q 55.50 73.99 55.50 72.79
  Q 58.23 70.11 60.06 66.88
  Q 60.92 65.79 61.50 64.53
  Q 61.95 63.55 61.91 61.88
  Q 61.87 60.35 61.94 57.44
  Q 62.02 54.02 59.33 50.02
  Q 59.19 49.81 58.99 49.63
  Q 55.85 46.72 58.50 50.18
  Q 56.63 52.39 55.50 49.96
  Q 55.87 49.53 55.71 49.00
  Q 55.40 47.30 54.04 46.25
  Q 53.53 45.48 52.54 45.75
  Q 51.93 45.43 51.25 45.44
  A 1.72 0.84 -14.4 0 1 50.32 45.25
  Q 48.61 44.16 52.56 44.56
  Q 53.12 43.88 53.96 43.75
  Z"
/>
<path fill="#af4846" d="
  M 10.46 44.64
  Q 12.88 44.20 14.24 44.81
  Q 14.76 45.05 14.22 45.26
  Q 12.02 46.12 10.38 45.50
  Q 8.88 44.93 10.46 44.64
  Z"
/>
<path fill="#af4846" d="
  M 18.19 44.63
  Q 19.08 44.56 21.25 44.50
  Q 22.34 44.47 22.35 44.97
  A 0.71 0.47 -3.3 0 1 21.69 45.47
  Q 20.23 45.58 18.78 45.74
  Q 17.59 45.88 17.59 45.17
  A 0.65 0.53 -2.9 0 1 18.19 44.63
  Z"
/>
<path fill="#af4846" d="
  M 26.99 44.50
  Q 28.11 44.33 29.24 44.26
  Q 31.10 44.15 30.39 45.15
  A 1.56 1.55 -69.2 0 1 28.95 45.80
  Q 27.15 45.60 26.37 45.35
  Q 24.80 44.84 26.99 44.50
  Z"
/>
<path fill="#af4846" d="
  M 34.44 45.56
  Q 32.46 44.92 34.84 44.43
  Q 35.51 44.29 36.20 44.35
  Q 38.93 44.61 38.19 45.44
  Q 37.26 46.47 34.44 45.56
  Z"
/>
<path fill="#af4846" d="
  M 46.32 45.06
  Q 45.15 45.71 43.81 45.58
  Q 43.40 45.55 42.69 45.62
  Q 41.88 45.70 41.79 45.06
  A 0.52 0.47 -3.4 0 1 42.31 44.53
  L 46.21 44.56
  Q 47.20 44.57 46.32 45.06
  Z"
/>
<path fill="#212725" d="
  M 7.46 44.75
  L 7.56 55.44
  A 0.49 0.49 -0.6 0 0 8.06 55.93
  Q 29.05 55.47 51.48 56.04
  A 0.95 0.94 0.9 0 0 52.45 55.11
  L 52.54 45.75
  Q 53.53 45.48 54.04 46.25
  Q 53.96 47.56 54.54 48.75
  Q 53.65 53.37 53.75 55.75
  Q 54.13 64.85 54.25 73.96
  L 52.54 74.75
  L 52.33 57.95
  A 0.52 0.51 89.4 0 0 51.82 57.44
  L 8.01 57.50
  A 0.51 0.51 -1.7 0 0 7.50 58.01
  L 7.43 88.75
  A 0.31 0.31 89.1 0 0 7.74 89.06
  L 51.94 89.00
  A 0.56 0.56 0.0 0 0 52.50 88.44
  L 52.50 77.04
  L 54.75 76.54
  L 54.75 89.43
  A 1.82 1.82 2.4 0 1 52.93 91.25
  Q 30.25 91.25 6.75 91.25
  Q 5.79 91.25 5.54 90.50
  Q 5.99 90.33 6.00 90.00
  Q 6.38 70.38 6.04 45.00
  Q 6.81 45.57 7.46 44.75
  Z"
/>
<path fill="#d19f93" fill-opacity="0.988" d="
  M 87.96 44.75
  L 88.04 45.00
  Q 87.41 47.56 90.03 47.24
  Q 91.25 47.10 92.50 47.04
  Q 92.43 48.12 93.50 47.71
  L 94.21 47.75
  L 84.59 55.62
  A 1.58 1.55 23.1 0 1 83.69 55.97
  Q 76.47 56.39 69.02 55.60
  Q 76.40 54.88 82.69 55.39
  A 1.53 1.44 30.5 0 0 83.62 55.18
  Q 88.04 52.47 91.55 49.07
  Q 92.88 47.77 91.04 47.93
  Q 85.35 48.42 87.96 44.75
  Z"
/>
<path fill="#bf1a19" d="
  M 88.04 45.00
  L 89.37 45.71
  A 1.69 1.01 -23.6 0 0 90.31 45.83
  Q 91.63 45.65 92.75 46.54
  Q 92.83 46.94 92.50 47.04
  Q 91.25 47.10 90.03 47.24
  Q 87.41 47.56 88.04 45.00
  Z"
/>
<path fill="#bf1a19" d="
  M 88.75 55.71
  L 101.21 55.88
  Q 101.28 67.21 101.25 77.80
  Q 101.25 77.88 101.34 79.20
  Q 101.51 81.52 99.21 81.35
  Q 97.88 81.25 97.79 81.25
  Q 83.55 81.29 69.32 81.19
  A 0.52 0.50 0.6 0 1 68.81 80.69
  L 69.02 55.60
  Q 76.47 56.39 83.69 55.97
  A 1.58 1.55 23.1 0 0 84.59 55.62
  L 94.21 47.75
  Q 95.31 45.38 97.91 45.66
  Q 98.43 45.71 99.08 45.64
  Q 100.10 45.54 100.09 46.26
  A 0.64 0.52 -2.9 0 1 99.50 46.79
  Q 96.62 47.04 95.81 47.81
  Q 93.12 50.39 87.53 54.77
  Q 86.55 55.53 87.73 55.90
  Q 87.98 55.98 88.75 55.71
  Z
  M 98.96 75.25
  L 99.00 58.06
  A 0.56 0.56 0.0 0 0 98.44 57.50
  L 75.00 57.54
  L 71.49 57.64
  A 0.61 0.52 89.0 0 0 70.99 58.25
  L 71.05 78.43
  A 0.51 0.51 0.2 0 0 71.56 78.94
  L 98.36 79.00
  A 0.63 0.61 -0.4 0 0 98.99 78.38
  L 98.96 75.25
  Z"
/>
<path fill="#b01617" d="
  M 108.81 46.29
  Q 109.07 46.39 108.81 46.48
  Q 106.01 47.48 103.23 46.87
  Q 102.08 46.63 103.17 46.19
  Q 105.87 45.12 108.81 46.29
  Z"
/>
<path fill="#bf1a19" d="
  M 114.46 48.50
  L 114.50 48.96
  Q 114.01 49.68 114.94 49.81
  Q 118.29 53.06 122.15 55.66
  A 1.75 1.66 61.1 0 0 123.06 55.95
  L 135.86 56.06
  A 1.12 1.08 0.0 0 1 136.97 57.13
  L 137.15 81.25
  L 105.84 81.13
  L 106.06 56.57
  A 0.53 0.52 -90.0 0 1 106.57 56.05
  Q 110.94 55.97 115.31 55.82
  Q 115.64 55.81 116.04 55.97
  Q 117.02 56.36 116.79 55.50
  L 117.46 55.50
  Q 118.15 56.29 118.88 55.82
  A 0.44 0.41 48.8 0 0 118.90 55.15
  L 109.80 47.18
  Q 108.75 46.26 110.07 45.99
  Q 112.99 45.38 115.95 45.96
  A 0.37 0.32 23.8 0 1 116.20 46.50
  Q 115.61 47.22 113.83 47.16
  A 0.68 0.68 75.5 0 0 113.19 48.12
  Q 113.66 49.15 114.46 48.50
  Z
  M 112.00 57.54
  L 108.06 57.53
  A 0.53 0.50 -90.0 0 0 107.56 58.06
  L 107.50 78.49
  A 0.52 0.51 0.0 0 0 108.02 79.00
  L 135.07 79.00
  A 0.68 0.66 -0.4 0 0 135.75 78.33
  L 135.71 75.25
  L 135.58 57.94
  A 0.52 0.50 0.0 0 0 135.06 57.44
  L 112.00 57.54
  Z"
/>
<path fill="#ffffff" d="
  M 54.04 46.25
  Q 55.40 47.30 55.71 49.00
  Q 55.05 49.12 54.54 48.75
  Q 53.96 47.56 54.04 46.25
  Z"
/>
<path fill="#2d3235" d="
  M 92.75 46.54
  Q 94.04 46.64 93.50 47.71
  Q 92.43 48.12 92.50 47.04
  Q 92.83 46.94 92.75 46.54
  Z"
/>
<path fill="#c78a85" fill-opacity="0.980" d="
  M 60.79 47.50
  Q 60.79 48.27 61.81 50.44
  Q 68.25 64.11 57.13 74.41
  Q 67.60 62.32 59.66 48.28
  Q 58.56 46.33 60.79 47.50
  Z"
/>
<path fill="#212725" d="
  M 22.59 48.69
  Q 25.46 51.62 26.65 49.42
  Q 27.22 48.36 28.25 48.08
  A 0.75 0.63 65.7 0 1 29.00 48.44
  Q 31.31 52.34 33.86 48.79
  Q 35.11 47.07 36.26 48.85
  Q 38.52 52.36 40.69 48.69
  Q 42.00 46.47 43.50 49.50
  Q 44.80 52.13 46.71 49.28
  Q 47.18 48.58 47.88 48.13
  Q 48.79 47.55 48.74 48.15
  Q 48.73 48.39 48.52 48.67
  Q 47.13 50.50 45.96 51.43
  Q 44.32 52.74 43.44 50.83
  Q 41.99 47.64 40.16 50.62
  Q 38.42 53.47 36.69 50.56
  Q 35.00 47.73 33.56 50.31
  Q 31.81 53.46 29.51 49.98
  Q 28.25 48.08 27.08 50.04
  Q 25.00 53.51 23.10 50.34
  A 1.65 1.43 -36.4 0 0 20.75 50.15
  L 18.72 51.90
  A 0.66 0.55 43.3 0 1 17.94 51.85
  L 15.15 49.55
  A 0.60 0.47 -45.4 0 0 14.44 49.64
  L 11.92 51.97
  A 0.60 0.54 -41.1 0 1 11.09 51.96
  Q 10.78 51.59 11.36 51.09
  Q 12.81 49.81 14.64 47.99
  A 0.62 0.61 -40.5 0 1 15.57 48.06
  Q 16.82 49.77 18.24 50.49
  A 0.73 0.64 -53.5 0 0 19.03 50.32
  L 20.67 48.65
  A 1.37 1.32 45.0 0 1 22.59 48.69
  Z"
/>
<path fill="#d19f93" fill-opacity="0.988" d="
  M 60.06 66.88
  Q 63.19 58.02 58.50 50.18
  Q 55.85 46.72 58.99 49.63
  Q 59.19 49.81 59.33 50.02
  Q 62.02 54.02 61.94 57.44
  Q 61.87 60.35 61.91 61.88
  Q 61.95 63.55 61.50 64.53
  Q 60.92 65.79 60.06 66.88
  Z"
/>
<path fill="#6c7c6a" fill-opacity="0.984" d="
  M 54.54 48.75
  Q 55.05 49.12 55.71 49.00
  Q 55.87 49.53 55.50 49.96
  Q 54.75 50.09 54.75 51.25
  Q 54.75 60.97 54.75 70.68
  Q 54.75 70.76 54.57 71.79
  Q 54.42 72.65 55.50 72.79
  Q 55.50 73.99 54.25 73.96
  Q 54.13 64.85 53.75 55.75
  Q 53.65 53.37 54.54 48.75
  Z"
/>
<path fill="#d8b4aa" fill-opacity="0.992" d="
  M 114.50 48.96
  Q 117.98 50.92 120.00 53.25
  Q 121.41 54.88 123.21 55.22
  Q 123.39 55.25 126.79 55.25
  Q 131.30 55.25 135.94 55.25
  Q 137.94 55.25 138.04 57.24
  Q 138.65 68.94 137.15 81.25
  L 136.97 57.13
  A 1.12 1.08 0.0 0 0 135.86 56.06
  L 123.06 55.95
  A 1.75 1.66 61.1 0 1 122.15 55.66
  Q 118.29 53.06 114.94 49.81
  Q 114.01 49.68 114.50 48.96
  Z"
/>
<path fill="#c78a85" fill-opacity="0.980" d="
  M 101.21 55.88
  L 88.75 55.71
  Q 89.01 55.38 89.50 55.46
  Q 95.25 54.63 101.21 55.88
  Z"
/>
<path fill="#c78a85" fill-opacity="0.980" d="
  M 116.79 55.50
  Q 117.02 56.36 116.04 55.97
  Q 115.64 55.81 115.31 55.82
  Q 110.94 55.97 106.57 56.05
  A 0.53 0.52 -90.0 0 0 106.06 56.57
  L 105.84 81.13
  Q 104.81 69.00 105.23 57.56
  Q 105.31 55.27 107.45 55.31
  L 116.79 55.50
  Z"
/>
<path fill="#ffffff" d="
  M 52.54 74.75
  Q 51.37 75.57 49.99 75.96
  Q 48.78 76.29 49.45 77.09
  A 1.04 0.77 -19.7 0 0 50.31 77.35
  L 52.50 77.04
  L 52.50 88.44
  A 0.56 0.56 0.0 0 1 51.94 89.00
  L 7.74 89.06
  A 0.31 0.31 -89.0 0 1 7.43 88.75
  L 7.50 58.01
  A 0.51 0.51 -1.7 0 1 8.01 57.50
  L 51.82 57.44
  A 0.52 0.51 89.4 0 1 52.33 57.95
  L 52.54 74.75
  Z
  M 17.86 63.93
  L 15.79 61.88
  A 1.40 1.26 -46.4 0 0 13.88 62.02
  L 11.81 64.26
  Q 11.43 64.68 11.37 64.86
  Q 11.11 65.74 12.06 65.02
  Q 13.31 64.06 14.64 62.74
  A 0.50 0.50 -90.0 0 1 15.36 62.74
  L 17.32 64.69
  A 1.42 1.42 -50.7 0 0 19.51 64.47
  Q 21.72 61.08 23.91 64.77
  Q 25.02 66.64 26.14 64.78
  Q 28.23 61.28 29.83 63.88
  Q 31.69 66.92 33.82 63.39
  A 1.25 1.25 38.0 0 1 35.77 63.15
  L 37.77 65.15
  A 0.58 0.52 45.7 0 0 38.54 65.20
  L 40.69 63.18
  A 1.41 1.30 -44.5 0 1 42.56 63.12
  L 44.65 65.15
  A 0.63 0.54 -43.7 0 0 45.44 65.11
  Q 47.92 62.92 48.31 62.31
  Q 49.34 60.71 47.94 61.53
  Q 47.70 61.67 47.54 61.94
  Q 45.11 65.99 42.77 62.27
  Q 41.56 60.33 40.31 62.25
  Q 37.97 65.85 36.19 62.06
  Q 35.07 59.69 33.81 62.06
  Q 31.89 65.67 29.73 62.29
  Q 28.49 60.35 26.46 63.22
  A 1.59 1.49 -50.3 0 1 24.13 63.51
  L 22.19 61.57
  A 0.83 0.81 -44.7 0 0 21.03 61.58
  L 18.63 63.92
  A 0.56 0.54 -45.0 0 1 17.86 63.93
  Z
  M 31.70 70.61
  Q 30.52 70.34 29.84 69.17
  Q 28.44 66.77 26.53 69.95
  A 1.51 1.48 37.0 0 1 24.23 70.25
  L 22.22 68.40
  A 1.31 1.28 -54.1 0 0 20.22 68.74
  Q 18.70 71.46 17.41 70.09
  Q 16.44 69.06 15.39 68.01
  A 0.56 0.56 90.0 0 0 14.61 68.01
  L 11.67 70.96
  A 0.86 0.68 -35.5 0 0 11.43 71.79
  Q 11.77 72.63 12.69 71.19
  Q 14.98 67.61 17.50 71.55
  A 0.92 0.91 50.9 0 0 18.92 71.70
  L 21.09 69.53
  A 0.88 0.88 51.2 0 1 22.45 69.68
  Q 24.96 73.65 27.30 70.01
  A 1.22 1.21 -51.0 0 1 29.18 69.81
  L 31.17 71.79
  A 0.60 0.51 45.3 0 0 31.95 71.86
  L 34.20 69.68
  A 1.13 1.08 -45.5 0 1 35.72 69.63
  L 38.06 71.84
  A 0.58 0.53 -45.3 0 0 38.83 71.80
  L 41.43 69.20
  A 0.48 0.47 46.6 0 1 42.12 69.23
  L 44.38 71.78
  A 0.84 0.82 -43.2 0 0 45.58 71.80
  Q 47.31 70.06 48.32 68.84
  Q 48.86 68.18 48.64 68.00
  A 0.77 0.39 -45.7 0 0 47.86 68.26
  L 45.51 70.62
  A 0.79 0.76 45.8 0 1 44.40 70.58
  L 42.06 68.15
  A 0.54 0.54 -43.9 0 0 41.30 68.14
  L 39.11 70.26
  A 1.09 1.05 -39.3 0 1 37.48 70.13
  Q 34.70 66.04 32.42 70.23
  A 0.72 0.61 -68.1 0 1 31.70 70.61
  Z
  M 23.07 77.15
  Q 25.59 80.33 27.22 77.02
  Q 28.27 74.87 29.57 76.88
  Q 31.70 80.18 33.70 76.83
  Q 34.94 74.75 36.26 76.79
  Q 38.45 80.18 40.32 77.07
  Q 41.75 74.68 43.48 77.56
  A 1.61 1.61 53.6 0 0 45.92 77.93
  Q 46.76 77.20 48.19 75.70
  Q 48.47 75.41 48.53 75.10
  Q 48.74 74.06 47.42 75.16
  Q 46.70 75.77 46.11 76.50
  Q 44.55 78.46 43.37 76.09
  Q 42.55 74.46 41.27 74.86
  A 1.46 0.90 -74.5 0 0 40.58 75.50
  Q 38.49 79.21 36.16 75.59
  Q 34.92 73.66 33.67 75.58
  Q 31.55 78.84 29.41 75.27
  A 1.35 1.35 -43.2 0 0 27.14 75.20
  Q 24.83 78.62 23.34 75.92
  Q 22.67 74.71 21.55 74.74
  A 1.05 0.76 -71.4 0 0 20.82 75.26
  Q 18.47 79.38 15.67 74.97
  A 0.73 0.73 51.4 0 0 14.53 74.84
  Q 12.81 76.56 11.69 77.68
  Q 10.85 78.52 11.44 78.66
  A 1.07 0.65 -52.5 0 0 12.28 78.33
  L 14.63 76.08
  A 0.54 0.53 -45.0 0 1 15.38 76.07
  L 17.29 77.91
  Q 18.80 79.36 19.78 77.62
  Q 21.30 74.91 23.07 77.15
  Z
  M 37.33 83.24
  Q 35.18 79.47 32.66 83.17
  A 1.30 1.30 -44.2 0 1 30.49 83.14
  Q 28.25 79.62 26.19 83.19
  Q 24.98 85.28 23.31 82.69
  Q 21.57 79.99 19.94 82.69
  Q 18.31 85.37 16.44 82.31
  Q 15.24 80.35 12.64 83.46
  Q 12.11 84.10 11.36 84.47
  Q 10.88 84.70 11.36 85.18
  A 0.55 0.54 44.6 0 0 12.13 85.18
  L 14.39 82.93
  A 0.96 0.87 43.8 0 1 15.66 82.97
  L 18.01 85.18
  A 0.66 0.48 -43.4 0 0 18.78 85.08
  L 21.29 82.86
  A 0.60 0.58 44.5 0 1 22.07 82.87
  L 23.90 84.49
  A 1.79 1.65 41.1 0 0 26.35 84.42
  Q 28.71 81.66 29.87 83.91
  Q 30.53 85.20 31.69 85.23
  A 1.04 0.79 -68.0 0 0 32.46 84.77
  Q 35.09 80.91 37.43 84.65
  A 1.25 1.25 43.8 0 0 39.55 84.65
  Q 41.91 80.93 43.81 84.69
  Q 44.59 86.22 46.31 84.31
  Q 51.25 78.86 45.39 83.68
  A 0.63 0.59 -44.0 0 1 44.62 83.69
  L 42.30 81.73
  A 1.39 1.36 34.5 0 0 40.21 82.10
  Q 39.19 83.93 38.05 83.82
  A 1.14 0.72 71.2 0 1 37.33 83.24
  Z"
/>
<path fill="#ffffff" d="
  M 135.71 75.25
  L 123.25 74.40
  Q 129.59 70.24 129.34 63.19
  A 1.07 0.92 18.6 0 0 128.88 62.42
  Q 127.80 61.71 127.08 60.62
  A 1.19 1.06 75.3 0 0 126.31 60.11
  Q 122.29 59.48 118.25 60.00
  Q 117.25 60.13 115.56 61.56
  L 114.19 62.73
  A 1.02 1.00 -22.3 0 0 113.83 63.56
  Q 114.12 70.19 119.78 74.26
  Q 116.11 75.66 112.18 74.91
  A 0.61 0.60 5.6 0 1 111.68 74.31
  L 112.00 57.54
  L 135.06 57.44
  A 0.52 0.50 -0.0 0 1 135.58 57.94
  L 135.71 75.25
  Z"
/>
<path fill="#f1d2d2" d="
  M 75.00 57.54
  L 75.16 72.18
  Q 75.17 72.60 74.93 73.11
  Q 74.59 73.82 74.99 74.51
  Q 75.27 75.00 75.83 75.08
  Q 76.74 75.22 76.79 74.25
  L 77.96 74.00
  L 78.26 74.53
  A 1.01 0.78 -10.8 0 0 79.06 74.93
  L 98.96 75.25
  L 98.99 78.38
  A 0.63 0.61 -0.4 0 1 98.36 79.00
  L 71.56 78.94
  A 0.51 0.51 -0.4 0 1 71.05 78.43
  L 70.99 58.25
  A 0.61 0.52 89.0 0 1 71.49 57.64
  L 75.00 57.54
  Z"
/>
<path fill="#ffffff" d="
  M 75.00 57.54
  L 98.44 57.50
  A 0.56 0.56 0.0 0 1 99.00 58.06
  L 98.96 75.25
  L 79.06 74.93
  A 1.01 0.78 -10.8 0 1 78.26 74.53
  L 77.96 74.00
  Q 83.02 70.98 77.73 72.67
  Q 77.33 72.80 77.25 72.57
  A 0.60 0.37 -32.2 0 1 77.50 72.05
  Q 80.36 69.86 81.78 72.94
  Q 81.98 73.38 82.22 73.63
  Q 83.36 74.82 82.92 72.55
  A 0.68 0.67 69.8 0 1 83.25 71.82
  Q 88.23 69.07 93.06 66.06
  Q 95.87 64.32 97.04 61.95
  A 0.56 0.54 -61.2 0 0 96.84 61.22
  Q 95.73 60.58 94.56 61.06
  Q 87.53 63.97 81.33 68.10
  A 1.20 1.20 50.7 0 1 79.83 67.95
  Q 79.20 67.33 78.93 67.55
  A 0.77 0.40 53.2 0 0 79.07 68.39
  Q 80.34 70.13 77.69 70.94
  Q 74.69 71.85 76.79 74.25
  Q 76.74 75.22 75.83 75.08
  Q 75.27 75.00 74.99 74.51
  Q 74.59 73.82 74.93 73.11
  Q 75.17 72.60 75.16 72.18
  L 75.00 57.54
  Z"
/>
<path fill="#f1d2d2" d="
  M 112.00 57.54
  L 111.68 74.31
  A 0.61 0.60 5.6 0 0 112.18 74.91
  Q 116.11 75.66 119.78 74.26
  L 123.25 74.40
  L 135.71 75.25
  L 135.75 78.33
  A 0.68 0.66 -0.4 0 1 135.07 79.00
  L 108.02 79.00
  A 0.52 0.51 0.0 0 1 107.50 78.49
  L 107.56 58.06
  A 0.53 0.50 -90.0 0 1 108.06 57.53
  L 112.00 57.54
  Z"
/>
<path fill="#bf1a19" d="
  M 123.25 74.40
  L 119.78 74.26
  Q 114.12 70.19 113.83 63.56
  A 1.02 1.00 -22.3 0 1 114.19 62.73
  L 115.56 61.56
  Q 117.25 60.13 118.25 60.00
  Q 122.29 59.48 126.31 60.11
  A 1.19 1.06 75.3 0 1 127.08 60.62
  Q 127.80 61.71 128.88 62.42
  A 1.07 0.92 18.6 0 1 129.34 63.19
  Q 129.59 70.24 123.25 74.40
  Z
  M 115.28 63.21
  Q 115.00 63.51 115.02 64.00
  Q 115.23 68.87 118.59 71.95
  Q 120.01 73.25 121.30 73.42
  Q 123.01 73.64 124.49 72.24
  Q 128.01 68.90 128.40 64.06
  A 1.20 0.98 29.5 0 0 128.07 63.21
  L 126.57 61.63
  A 1.39 1.09 66.2 0 0 125.76 61.20
  Q 120.61 60.70 117.81 61.06
  Q 116.69 61.21 115.93 62.49
  Q 115.88 62.58 115.28 63.21
  Z"
/>
<path fill="#b01617" d="
  M 77.96 74.00
  L 76.79 74.25
  Q 74.69 71.85 77.69 70.94
  Q 80.34 70.13 79.07 68.39
  A 0.77 0.40 53.2 0 1 78.93 67.55
  Q 79.20 67.33 79.83 67.95
  A 1.20 1.20 50.7 0 0 81.33 68.10
  Q 87.53 63.97 94.56 61.06
  Q 95.73 60.58 96.84 61.22
  A 0.56 0.54 -61.2 0 1 97.04 61.95
  Q 95.87 64.32 93.06 66.06
  Q 88.23 69.07 83.25 71.82
  A 0.68 0.67 69.8 0 0 82.92 72.55
  Q 83.36 74.82 82.22 73.63
  Q 81.98 73.38 81.78 72.94
  Q 80.36 69.86 77.50 72.05
  A 0.60 0.37 -32.2 0 0 77.25 72.57
  Q 77.33 72.80 77.73 72.67
  Q 83.02 70.98 77.96 74.00
  Z
  M 82.06 70.87
  A 1.01 0.98 -44.7 0 0 82.97 70.86
  Q 89.42 67.59 94.79 63.73
  Q 95.25 63.40 95.48 63.04
  Q 96.27 61.86 94.84 61.99
  Q 94.39 62.03 93.82 62.28
  Q 87.47 65.07 81.70 68.96
  Q 80.21 69.96 82.06 70.87
  Z"
/>
<path fill="#ffffff" d="
  M 115.93 62.49
  Q 116.69 61.21 117.81 61.06
  Q 120.61 60.70 125.76 61.20
  A 1.39 1.09 66.2 0 1 126.57 61.63
  L 128.07 63.21
  A 1.20 0.98 29.5 0 1 128.40 64.06
  Q 128.01 68.90 124.49 72.24
  Q 123.01 73.64 121.30 73.42
  Q 120.01 73.25 118.59 71.95
  Q 115.23 68.87 115.02 64.00
  Q 115.00 63.51 115.28 63.21
  Q 115.88 62.58 115.93 62.49
  Z
  M 117.69 63.44
  L 116.58 64.46
  Q 115.58 65.39 116.81 67.36
  Q 118.65 70.31 120.52 71.27
  Q 122.77 72.42 124.76 69.98
  Q 125.91 68.56 126.42 66.76
  Q 126.98 64.77 125.84 63.46
  Q 124.41 61.82 121.75 62.25
  Q 118.37 62.80 117.69 63.44
  Z"
/>
<path fill="#030503" d="
  M 18.63 63.92
  L 21.03 61.58
  A 0.83 0.81 -44.7 0 1 22.19 61.57
  L 24.13 63.51
  A 1.59 1.49 -50.3 0 0 26.46 63.22
  Q 28.49 60.35 29.73 62.29
  Q 31.89 65.67 33.81 62.06
  Q 35.07 59.69 36.19 62.06
  Q 37.97 65.85 40.31 62.25
  Q 41.56 60.33 42.77 62.27
  Q 45.11 65.99 47.54 61.94
  Q 47.70 61.67 47.94 61.53
  Q 49.34 60.71 48.31 62.31
  Q 47.92 62.92 45.44 65.11
  A 0.63 0.54 -43.7 0 1 44.65 65.15
  L 42.56 63.12
  A 1.41 1.30 -44.5 0 0 40.69 63.18
  L 38.54 65.20
  A 0.58 0.52 45.7 0 1 37.77 65.15
  L 35.77 63.15
  A 1.25 1.25 38.0 0 0 33.82 63.39
  Q 31.69 66.92 29.83 63.88
  Q 28.23 61.28 26.14 64.78
  Q 25.02 66.64 23.91 64.77
  Q 21.72 61.08 19.51 64.47
  A 1.42 1.42 -50.7 0 1 17.32 64.69
  L 15.36 62.74
  A 0.50 0.50 0.0 0 0 14.64 62.74
  Q 13.31 64.06 12.06 65.02
  Q 11.11 65.74 11.37 64.86
  Q 11.43 64.68 11.81 64.26
  L 13.88 62.02
  A 1.40 1.26 -46.4 0 1 15.79 61.88
  L 17.86 63.93
  A 0.56 0.54 -45.0 0 0 18.63 63.92
  Z"
/>
<path fill="#f1d2d2" d="
  M 82.06 70.87
  Q 80.21 69.96 81.70 68.96
  Q 87.47 65.07 93.82 62.28
  Q 94.39 62.03 94.84 61.99
  Q 96.27 61.86 95.48 63.04
  Q 95.25 63.40 94.79 63.73
  Q 89.42 67.59 82.97 70.86
  A 1.01 0.98 -44.7 0 1 82.06 70.87
  Z"
/>
<path fill="#d8b4aa" fill-opacity="0.992" d="
  M 117.69 63.44
  Q 118.37 62.80 121.75 62.25
  Q 124.41 61.82 125.84 63.46
  Q 126.98 64.77 126.42 66.76
  Q 125.91 68.56 124.76 69.98
  Q 122.77 72.42 120.52 71.27
  Q 118.65 70.31 116.81 67.36
  Q 115.58 65.39 116.58 64.46
  L 117.69 63.44
  Z
  M 125.10 63.46
  Q 123.99 62.69 122.72 62.64
  Q 121.65 62.60 120.28 62.69
  Q 118.70 62.80 117.75 63.93
  Q 116.93 64.90 117.26 66.39
  Q 117.86 69.07 119.95 70.84
  Q 121.52 72.18 123.18 70.95
  Q 125.59 69.15 126.19 66.18
  Q 126.54 64.47 125.10 63.46
  Z"
/>
<path fill="#ffffff" d="
  M 125.10 63.46
  Q 126.54 64.47 126.19 66.18
  Q 125.59 69.15 123.18 70.95
  Q 121.52 72.18 119.95 70.84
  Q 117.86 69.07 117.26 66.39
  Q 116.93 64.90 117.75 63.93
  Q 118.70 62.80 120.28 62.69
  Q 121.65 62.60 122.72 62.64
  Q 123.99 62.69 125.10 63.46
  Z"
/>
<path fill="#030503" d="
  M 32.42 70.23
  Q 34.70 66.04 37.48 70.13
  A 1.09 1.05 -39.3 0 0 39.11 70.26
  L 41.30 68.14
  A 0.54 0.54 -43.9 0 1 42.06 68.15
  L 44.40 70.58
  A 0.79 0.76 45.8 0 0 45.51 70.62
  L 47.86 68.26
  A 0.77 0.39 -45.7 0 1 48.64 68.00
  Q 48.86 68.18 48.32 68.84
  Q 47.31 70.06 45.58 71.80
  A 0.84 0.82 -43.2 0 1 44.38 71.78
  L 42.12 69.23
  A 0.48 0.47 46.6 0 0 41.43 69.20
  L 38.83 71.80
  A 0.58 0.53 -45.3 0 1 38.06 71.84
  L 35.72 69.63
  A 1.13 1.08 -45.5 0 0 34.20 69.68
  L 31.95 71.86
  A 0.60 0.51 45.3 0 1 31.17 71.79
  L 29.18 69.81
  A 1.22 1.21 -51.0 0 0 27.30 70.01
  Q 24.96 73.65 22.45 69.68
  A 0.88 0.88 51.2 0 0 21.09 69.53
  L 18.92 71.70
  A 0.92 0.91 50.9 0 1 17.50 71.55
  Q 14.98 67.61 12.69 71.19
  Q 11.77 72.63 11.43 71.79
  A 0.86 0.68 -35.5 0 1 11.67 70.96
  L 14.61 68.01
  A 0.56 0.56 -0.0 0 1 15.39 68.01
  Q 16.44 69.06 17.41 70.09
  Q 18.70 71.46 20.22 68.74
  A 1.31 1.28 -54.1 0 1 22.22 68.40
  L 24.23 70.25
  A 1.51 1.48 37.0 0 0 26.53 69.95
  Q 28.44 66.77 29.84 69.17
  Q 30.52 70.34 31.70 70.61
  A 0.72 0.61 -68.1 0 0 32.42 70.23
  Z"
/>
<path fill="#030503" d="
  M 23.07 77.15
  Q 21.30 74.91 19.78 77.62
  Q 18.80 79.36 17.29 77.91
  L 15.38 76.07
  A 0.54 0.53 -45.0 0 0 14.63 76.08
  L 12.28 78.33
  A 1.07 0.65 -52.5 0 1 11.44 78.66
  Q 10.85 78.52 11.69 77.68
  Q 12.81 76.56 14.53 74.84
  A 0.73 0.73 51.4 0 1 15.67 74.97
  Q 18.47 79.38 20.82 75.26
  A 1.05 0.76 -71.4 0 1 21.55 74.74
  Q 22.67 74.71 23.34 75.92
  Q 24.83 78.62 27.14 75.20
  A 1.35 1.35 -43.2 0 1 29.41 75.27
  Q 31.55 78.84 33.67 75.58
  Q 34.92 73.66 36.16 75.59
  Q 38.49 79.21 40.58 75.50
  A 1.46 0.90 -74.5 0 1 41.27 74.86
  Q 42.55 74.46 43.37 76.09
  Q 44.55 78.46 46.11 76.50
  Q 46.70 75.77 47.42 75.16
  Q 48.74 74.06 48.53 75.10
  Q 48.47 75.41 48.19 75.70
  Q 46.76 77.20 45.92 77.93
  A 1.61 1.61 53.6 0 1 43.48 77.56
  Q 41.75 74.68 40.32 77.07
  Q 38.45 80.18 36.26 76.79
  Q 34.94 74.75 33.70 76.83
  Q 31.70 80.18 29.57 76.88
  Q 28.27 74.87 27.22 77.02
  Q 25.59 80.33 23.07 77.15
  Z"
/>
<path fill="#212725" d="
  M 38.05 83.82
  Q 39.19 83.93 40.21 82.10
  A 1.39 1.36 34.5 0 1 42.30 81.73
  L 44.62 83.69
  A 0.63 0.59 -44.0 0 0 45.39 83.68
  Q 51.25 78.86 46.31 84.31
  Q 44.59 86.22 43.81 84.69
  Q 41.91 80.93 39.55 84.65
  A 1.25 1.25 42.6 0 1 37.43 84.65
  Q 35.09 80.91 32.46 84.77
  A 1.04 0.79 -68.0 0 1 31.69 85.23
  Q 30.53 85.20 29.87 83.91
  Q 28.71 81.66 26.35 84.42
  A 1.79 1.65 41.1 0 1 23.90 84.49
  L 22.07 82.87
  A 0.60 0.58 44.5 0 0 21.29 82.86
  L 18.78 85.08
  A 0.66 0.48 -43.4 0 1 18.01 85.18
  L 15.66 82.97
  A 0.96 0.87 43.8 0 0 14.39 82.93
  L 12.13 85.18
  A 0.55 0.54 44.6 0 1 11.36 85.18
  Q 10.88 84.70 11.36 84.47
  Q 12.11 84.10 12.64 83.46
  Q 15.24 80.35 16.44 82.31
  Q 18.31 85.37 19.94 82.69
  Q 21.57 79.99 23.31 82.69
  Q 24.98 85.28 26.19 83.19
  Q 28.25 79.62 30.49 83.14
  A 1.30 1.30 -44.2 0 0 32.66 83.17
  Q 35.18 79.47 37.33 83.24
  A 1.14 0.72 71.2 0 0 38.05 83.82
  Z"
/>
</svg>
