<?xml version="1.0" encoding="UTF-8" standalone="no"?>
<!DOCTYPE svg PUBLIC "-//W3C//DTD SVG 1.1//EN" "http://www.w3.org/Graphics/SVG/1.1/DTD/svg11.dtd">
<svg xmlns="http://www.w3.org/2000/svg" version="1.1" viewBox="0 0 140 100">
<g stroke-width="2.00" fill="none" stroke-linecap="butt">
<path stroke="#c65453" vector-effect="non-scaling-stroke" d="
  M 81.21 27.00
  Q 78.77 26.66 76.71 27.75"
/>
<path stroke="#732628" vector-effect="non-scaling-stroke" d="
  M 76.71 27.75
  L 75.25 28.04"
/>
<path stroke="#c65453" vector-effect="non-scaling-stroke" d="
  M 75.25 28.04
  Q 73.12 26.81 70.77 27.00
  Q 68.43 27.19 68.35 27.19
  Q 66.19 27.28 64.55 27.87"
/>
<path stroke="#732628" vector-effect="non-scaling-stroke" d="
  M 64.55 27.87
  L 63.54 27.75"
/>
<path stroke="#c65453" vector-effect="non-scaling-stroke" d="
  M 63.54 27.75
  Q 61.43 26.61 59.00 27.29"
/>
<path stroke="#732628" vector-effect="non-scaling-stroke" d="
  M 79.75 31.96
  L 78.29 32.50"
/>
<path stroke="#7e5d5b" vector-effect="non-scaling-stroke" d="
  M 78.29 32.50
  Q 78.07 31.26 77.07 31.74"
/>
<path stroke="#7a4c4b" stroke-opacity="0.996" vector-effect="non-scaling-stroke" d="
  M 62.96 31.50
  Q 61.91 31.13 61.50 32.29"
/>
<path stroke="#732628" vector-effect="non-scaling-stroke" d="
  M 61.50 32.29
  Q 60.38 32.48 59.25 32.21"
/>
<path stroke="#7e5d5b" vector-effect="non-scaling-stroke" d="
  M 59.25 32.21
  Q 59.21 32.00 59.00 31.96"
/>
<path stroke="#c65453" vector-effect="non-scaling-stroke" d="
  M 96.23 32.57
  Q 89.55 33.32 82.94 32.98
  Q 81.20 32.90 79.75 31.96"
/>
<path stroke="#7e5d5b" vector-effect="non-scaling-stroke" d="
  M 79.75 31.96
  L 76.71 27.75"
/>
<path stroke="#7e5d5b" vector-effect="non-scaling-stroke" d="
  M 75.25 28.04
  L 76.96 31.00"
/>
<path stroke="#7e5d5b" vector-effect="non-scaling-stroke" d="
  M 63.04 31.00
  L 64.55 27.87"
/>
<path stroke="#7e5d5b" vector-effect="non-scaling-stroke" d="
  M 63.54 27.75
  Q 63.03 28.91 62.04 28.50"
/>
<path stroke="#732628" vector-effect="non-scaling-stroke" d="
  M 96.50 43.71
  L 95.00 44.54"
/>
<path stroke="#983f42" stroke-opacity="0.996" vector-effect="non-scaling-stroke" d="
  M 95.00 44.54
  Q 90.50 43.83 86.00 44.54"
/>
<path stroke="#6e2324" vector-effect="non-scaling-stroke" d="
  M 86.00 44.54
  L 84.35 45.31"
/>
<path stroke="#c65453" vector-effect="non-scaling-stroke" d="
  M 78.29 32.50
  L 73.79 33.00"
/>
<path stroke="#c24343" stroke-opacity="0.996" vector-effect="non-scaling-stroke" d="
  M 66.04 32.75
  Q 63.66 33.68 61.50 32.29"
/>
<path stroke="#c65453" vector-effect="non-scaling-stroke" d="
  M 59.25 32.21
  L 59.02 32.60
  A 0.85 0.81 -73.8 0 1 58.29 33.02
  L 43.72 32.68"
/>
<path stroke="#c65453" vector-effect="non-scaling-stroke" d="
  M 58.50 44.71
  Q 54.98 44.16 58.74 44.03
  Q 60.27 43.98 58.01 43.88
  Q 56.44 43.81 54.96 44.25"
/>
<path stroke="#732628" vector-effect="non-scaling-stroke" d="
  M 54.96 44.25
  Q 54.53 44.57 54.00 44.54"
/>
<path stroke="#a25050" stroke-opacity="0.992" vector-effect="non-scaling-stroke" d="
  M 54.00 44.54
  Q 53.35 43.67 52.75 43.75
  Q 49.53 44.16 46.29 44.25"
/>
<path stroke="#732628" vector-effect="non-scaling-stroke" d="
  M 46.29 44.25
  Q 44.96 43.76 43.54 44.50"
/>
<path stroke="#983f42" stroke-opacity="0.996" vector-effect="non-scaling-stroke" d="
  M 43.54 44.50
  L 43.46 43.75"
/>
<path stroke="#4f484a" stroke-opacity="0.996" vector-effect="non-scaling-stroke" d="
  M 98.04 44.75
  L 97.99 45.22
  A 0.89 0.59 22.6 0 0 98.47 45.93
  L 108.04 51.50"
/>
<path stroke="#732628" vector-effect="non-scaling-stroke" d="
  M 108.04 51.50
  Q 108.18 52.43 107.25 52.29"
/>
<path stroke="#4f484a" stroke-opacity="0.996" vector-effect="non-scaling-stroke" d="
  M 107.25 52.29
  L 95.00 44.54"
/>
<path stroke="#983f42" stroke-opacity="0.996" vector-effect="non-scaling-stroke" d="
  M 107.25 52.29
  L 107.54 52.75"
/>
<path stroke="#ac8181" stroke-opacity="0.992" vector-effect="non-scaling-stroke" d="
  M 107.54 52.75
  L 106.96 53.25"
/>
<path stroke="#4b4446" stroke-opacity="0.996" vector-effect="non-scaling-stroke" d="
  M 87.21 50.50
  Q 85.76 47.70 86.00 44.54"
/>
<path stroke="#666c69" stroke-opacity="0.996" vector-effect="non-scaling-stroke" d="
  M 87.43 52.03
  Q 86.18 52.26 87.44 52.86
  Q 87.73 53.00 88.08 52.99
  Q 92.17 52.84 96.24 53.20
  A 0.65 0.63 -1.0 0 1 96.82 53.74
  Q 97.54 58.90 96.46 64.00"
/>
<path stroke="#545655" stroke-opacity="0.992" vector-effect="non-scaling-stroke" d="
  M 96.46 64.00
  Q 84.37 63.28 79.00 64.00
  Q 75.75 64.44 75.88 61.85
  Q 75.97 60.19 75.97 60.14
  Q 75.87 56.81 76.20 53.50
  A 0.56 0.55 -86.6 0 1 76.76 52.99
  L 84.69 53.16
  A 0.94 0.67 10.0 0 0 85.48 52.78
  Q 85.83 52.09 85.00 51.71"
/>
<path stroke="#4f484a" stroke-opacity="0.996" vector-effect="non-scaling-stroke" d="
  M 43.54 44.50
  L 31.75 51.71"
/>
<path stroke="#983f42" stroke-opacity="0.996" vector-effect="non-scaling-stroke" d="
  M 31.75 51.71
  L 30.04 52.25"
/>
<path stroke="#ac8181" stroke-opacity="0.992" vector-effect="non-scaling-stroke" d="
  M 30.04 52.25
  L 29.96 52.00"
/>
<path stroke="#595959" stroke-opacity="0.992" vector-effect="non-scaling-stroke" d="
  M 46.29 44.25
  L 32.75 52.46"
/>
<path stroke="#866866" stroke-opacity="0.996" vector-effect="non-scaling-stroke" d="
  M 32.75 52.46
  L 32.29 52.75"
/>
<path stroke="#732628" vector-effect="non-scaling-stroke" d="
  M 32.29 52.75
  Q 31.69 52.40 31.75 51.71"
/>
<path stroke="#7e5d5b" vector-effect="non-scaling-stroke" d="
  M 55.25 51.71
  Q 54.73 51.63 54.46 52.00"
/>
<path stroke="#732628" vector-effect="non-scaling-stroke" d="
  M 54.46 52.00
  L 53.04 52.50"
/>
<path stroke="#866866" stroke-opacity="0.996" vector-effect="non-scaling-stroke" d="
  M 53.04 52.50
  Q 53.00 52.07 52.71 51.75"
/>
<path stroke="#595959" stroke-opacity="0.992" vector-effect="non-scaling-stroke" d="
  M 54.00 44.54
  Q 54.70 47.61 52.79 49.75"
/>
<path stroke="#b5938f" stroke-opacity="0.988" vector-effect="non-scaling-stroke" d="
  M 33.29 52.75
  Q 33.12 52.41 32.75 52.46"
/>
<path stroke="#7e5d5b" vector-effect="non-scaling-stroke" d="
  M 55.46 48.00
  Q 54.67 46.23 54.96 44.25"
/>
<path stroke="#c65453" vector-effect="non-scaling-stroke" d="
  M 110.25 52.54
  Q 119.82 53.59 129.61 52.67"
/>
<path stroke="#a25050" stroke-opacity="0.992" vector-effect="non-scaling-stroke" d="
  M 122.98 64.75
  Q 122.66 63.57 121.96 64.75"
/>
<path stroke="#732628" vector-effect="non-scaling-stroke" d="
  M 121.96 64.75
  L 120.75 64.79"
/>
<path stroke="#a25050" stroke-opacity="0.992" vector-effect="non-scaling-stroke" d="
  M 120.75 64.79
  Q 116.93 63.60 113.00 64.54"
/>
<path stroke="#6e2324" vector-effect="non-scaling-stroke" d="
  M 113.00 64.54
  L 111.25 64.46"
/>
<path stroke="#ce5f5d" stroke-opacity="0.996" vector-effect="non-scaling-stroke" d="
  M 111.25 64.46
  Q 111.21 63.77 110.50 64.00
  Q 107.71 64.91 108.00 61.25
  Q 108.34 56.96 107.54 52.75"
/>
<path stroke="#a47776" stroke-opacity="0.996" vector-effect="non-scaling-stroke" d="
  M 110.50 51.96
  Q 110.91 52.53 110.25 52.54"
/>
<path stroke="#983f42" stroke-opacity="0.996" vector-effect="non-scaling-stroke" d="
  M 110.25 52.54
  L 108.04 51.50"
/>
<path stroke="#816462" stroke-opacity="0.996" vector-effect="non-scaling-stroke" d="
  M 111.25 64.46
  Q 110.83 64.91 110.25 65.04"
/>
<path stroke="#ac8181" stroke-opacity="0.992" vector-effect="non-scaling-stroke" d="
  M 110.25 65.04
  L 109.00 64.79"
/>
<path stroke="#9a9b96" stroke-opacity="0.988" vector-effect="non-scaling-stroke" d="
  M 96.46 64.00
  L 96.50 64.46"
/>
<path stroke="#ce5f5d" stroke-opacity="0.996" vector-effect="non-scaling-stroke" d="
  M 32.29 52.75
  Q 31.69 57.64 32.00 61.00
  Q 32.19 63.05 31.50 64.29"
/>
<path stroke="#c24343" stroke-opacity="0.996" vector-effect="non-scaling-stroke" d="
  M 31.50 64.29
  L 19.96 64.50"
/>
<path stroke="#6e2324" vector-effect="non-scaling-stroke" d="
  M 19.96 64.50
  L 18.00 64.54"
/>
<path stroke="#983f42" stroke-opacity="0.996" vector-effect="non-scaling-stroke" d="
  M 18.00 64.54
  L 17.00 64.79"
/>
<path stroke="#ce5f5d" stroke-opacity="0.996" vector-effect="non-scaling-stroke" d="
  M 10.39 52.79
  Q 18.16 53.21 25.68 53.02
  Q 25.75 53.02 27.31 53.12
  Q 28.86 53.22 30.04 52.25"
/>
<path stroke="#d68582" stroke-opacity="0.992" vector-effect="non-scaling-stroke" d="
  M 32.00 64.54
  Q 31.59 64.56 31.50 64.29"
/>
<path stroke="#c65453" vector-effect="non-scaling-stroke" d="
  M 64.71 57.75
  L 64.43 53.82
  A 0.63 0.53 -89.9 0 0 63.95 53.25
  Q 59.78 52.71 56.75 53.00
  Q 55.08 53.16 54.46 52.00"
/>
<path stroke="#ce5f5d" stroke-opacity="0.996" vector-effect="non-scaling-stroke" d="
  M 53.04 52.50
  Q 53.08 53.10 52.50 53.09
  Q 48.50 53.00 43.84 53.00
  A 0.84 0.84 0.0 0 0 43.00 53.84
  L 43.00 62.85
  Q 43.00 64.81 44.92 64.42
  Q 47.53 63.89 49.00 64.71"
/>
<path stroke="#866866" stroke-opacity="0.996" vector-effect="non-scaling-stroke" d="
  M 49.00 64.71
  L 48.75 64.79"
/>
<path stroke="#c1a39d" stroke-opacity="0.992" vector-effect="non-scaling-stroke" d="
  M 48.75 64.79
  L 47.75 65.04"
/>
<path stroke="#ad605e" stroke-opacity="0.996" vector-effect="non-scaling-stroke" d="
  M 61.14 64.84
  Q 60.85 63.38 59.71 64.75"
/>
<path stroke="#732628" vector-effect="non-scaling-stroke" d="
  M 59.71 64.75
  L 58.25 64.79"
/>
<path stroke="#983f42" stroke-opacity="0.996" vector-effect="non-scaling-stroke" d="
  M 58.25 64.79
  Q 54.32 63.66 50.29 64.50"
/>
<path stroke="#ad605e" stroke-opacity="0.996" vector-effect="non-scaling-stroke" d="
  M 50.29 64.50
  Q 50.23 64.73 50.00 64.79"
/>
<path stroke="#732628" vector-effect="non-scaling-stroke" d="
  M 50.00 64.79
  L 49.00 64.71"
/>
<path stroke="#666c69" stroke-opacity="0.996" vector-effect="non-scaling-stroke" d="
  M 108.42 83.89
  L 88.73 84.00
  A 0.72 0.70 0.8 0 1 88.01 83.28
  L 88.30 73.57
  A 0.52 0.51 -89.4 0 1 88.81 73.06
  L 102.55 72.94
  A 0.78 0.50 8.0 0 0 103.19 72.65
  Q 103.29 72.48 103.29 72.25"
/>
<path stroke="#4b4446" stroke-opacity="0.996" vector-effect="non-scaling-stroke" d="
  M 103.29 72.25
  L 110.25 65.04"
/>
<path stroke="#595959" stroke-opacity="0.992" vector-effect="non-scaling-stroke" d="
  M 120.75 64.79
  Q 121.51 67.73 122.82 70.46
  Q 123.19 71.22 122.50 71.29"
/>
<path stroke="#9a9b96" stroke-opacity="0.988" vector-effect="non-scaling-stroke" d="
  M 109.16 84.60
  Q 108.75 83.79 108.42 83.89"
/>
<path stroke="#545655" stroke-opacity="0.992" vector-effect="non-scaling-stroke" d="
  M 108.42 83.89
  Q 109.47 79.03 108.99 73.80
  A 0.74 0.58 6.0 0 0 108.43 73.26
  L 105.96 72.68
  Q 105.40 72.54 105.80 72.11
  L 113.00 64.54"
/>
<path stroke="#6b706d" stroke-opacity="0.996" vector-effect="non-scaling-stroke" d="
  M 124.75 72.29
  Q 126.99 73.24 129.35 73.08
  Q 132.19 72.88 132.80 72.90
  Q 134.58 72.98 136.25 73.00
  A 0.71 0.70 88.3 0 1 136.95 73.67
  Q 137.28 79.35 136.62 84.00"
/>
<path stroke="#646967" stroke-opacity="0.996" vector-effect="non-scaling-stroke" d="
  M 136.62 84.00
  L 117.06 84.00
  A 1.06 1.04 0.3 0 1 116.00 82.95
  L 116.05 73.57
  A 0.53 0.53 -1.1 0 1 116.56 73.04
  Q 119.03 72.91 121.50 73.01
  Q 124.17 73.13 122.25 71.96"
/>
<path stroke="#9a9b96" stroke-opacity="0.988" vector-effect="non-scaling-stroke" d="
  M 125.50 71.96
  Q 125.18 72.25 124.75 72.29"
/>
<path stroke="#595959" stroke-opacity="0.992" vector-effect="non-scaling-stroke" d="
  M 124.75 72.29
  L 121.96 64.75"
/>
<path stroke="#918988" stroke-opacity="0.992" vector-effect="non-scaling-stroke" d="
  M 103.29 72.25
  Q 103.23 72.02 103.00 71.96"
/>
<path stroke="#4b4446" stroke-opacity="0.996" vector-effect="non-scaling-stroke" d="
  M 18.00 64.54
  Q 17.45 68.77 15.04 72.25"
/>
<path stroke="#918988" stroke-opacity="0.992" vector-effect="non-scaling-stroke" d="
  M 15.04 72.25
  Q 14.98 72.02 14.75 71.96"
/>
<path stroke="#545655" stroke-opacity="0.992" vector-effect="non-scaling-stroke" d="
  M 20.00 64.71
  Q 17.58 67.83 17.04 71.75"
/>
<path stroke="#666c69" stroke-opacity="0.996" vector-effect="non-scaling-stroke" d="
  M 17.04 71.75
  L 16.97 72.47
  A 0.45 0.37 -85.9 0 0 17.32 72.96
  L 22.97 73.00
  A 1.30 1.19 2.1 0 1 24.26 74.28
  L 23.63 83.31
  A 0.57 0.55 1.6 0 1 23.06 83.83
  L 3.69 83.83
  A 0.54 0.52 -0.5 0 1 3.15 83.32
  L 3.03 73.63
  A 0.63 0.61 -0.9 0 1 3.65 73.01
  Q 8.76 72.88 13.50 73.25
  Q 15.00 73.37 15.04 72.25"
/>
<path stroke="#a97674" stroke-opacity="0.988" vector-effect="non-scaling-stroke" d="
  M 20.50 64.79
  L 20.00 64.71"
/>
<path stroke="#754847" stroke-opacity="0.996" vector-effect="non-scaling-stroke" d="
  M 20.00 64.71
  L 19.96 64.50"
/>
<path stroke="#646967" stroke-opacity="0.996" vector-effect="non-scaling-stroke" d="
  M 48.75 64.79
  L 44.49 72.11
  A 1.88 1.65 13.0 0 1 42.95 72.94
  L 31.78 72.99
  A 0.78 0.77 0.0 0 0 31.00 73.76
  L 31.00 83.10
  A 0.89 0.87 89.7 0 0 31.88 83.99
  L 51.16 83.76
  A 0.87 0.85 89.7 0 0 52.00 82.89
  L 52.00 74.19
  A 1.33 1.32 85.5 0 0 50.47 72.88
  Q 48.14 73.26 46.53 72.74
  A 0.46 0.44 22.6 0 1 46.25 72.11
  L 50.00 64.79"
/>
<path stroke="#4f484a" stroke-opacity="0.996" vector-effect="non-scaling-stroke" d="
  M 58.25 64.79
  Q 60.27 67.79 61.56 68.94
  Q 63.02 70.23 63.25 71.71"
/>
<path stroke="#8a8382" stroke-opacity="0.992" vector-effect="non-scaling-stroke" d="
  M 63.25 71.71
  Q 63.00 71.79 62.75 71.71"
/>
<path stroke="#8a8382" stroke-opacity="0.992" vector-effect="non-scaling-stroke" d="
  M 51.50 64.71
  Q 50.97 64.34 50.29 64.50"
/>
<path stroke="#646967" stroke-opacity="0.996" vector-effect="non-scaling-stroke" d="
  M 81.29 72.88
  L 66.80 72.73
  A 1.43 1.06 61.2 0 1 65.95 72.34
  Q 62.42 68.89 59.71 64.75"
/>
<path stroke="#646967" stroke-opacity="0.996" vector-effect="non-scaling-stroke" d="
  M 81.27 84.01
  L 58.77 83.72"
/>
<path stroke="#646967" stroke-opacity="0.996" vector-effect="non-scaling-stroke" d="
  M 58.79 73.00
  Q 60.51 72.75 62.26 72.94
  Q 64.59 73.18 63.25 71.71"
/>
<path stroke="#a6aba4" stroke-opacity="0.992" vector-effect="non-scaling-stroke" d="
  M 136.62 84.00
  Q 136.22 84.45 137.24 84.69"
/>
<path stroke="#9a9b96" stroke-opacity="0.988" vector-effect="non-scaling-stroke" d="
  M 17.75 71.96
  Q 17.35 72.05 17.04 71.75"
/>
<path stroke="#dd8e8f" vector-effect="non-scaling-stroke" d="
  M 78.96 22.25
  L 79.00 18.02
  A 0.53 0.52 0.0 0 0 78.47 17.50
  L 67.00 17.54"
/>
<path stroke="#d77879" vector-effect="non-scaling-stroke" d="
  M 67.00 17.54
  L 62.02 17.52
  A 0.96 0.93 0.0 0 0 61.05 18.46
  L 61.14 25.06
  A 0.55 0.53 -0.0 0 0 61.69 25.59
  L 78.31 25.59
  A 0.60 0.52 0.5 0 0 78.91 25.08
  L 78.96 22.25"
/>
<path stroke="#f9e9e9" vector-effect="non-scaling-stroke" d="
  M 67.00 17.54
  Q 63.88 17.15 65.43 21.05
  A 1.18 1.16 77.7 0 0 66.57 21.79
  Q 73.25 21.50 78.96 22.25"
/>
<path stroke="#dd8e8f" vector-effect="non-scaling-stroke" d="
  M 63.96 38.75
  L 64.01 35.12
  A 0.88 0.86 0.3 0 0 63.13 34.25
  L 49.50 34.29"
/>
<path stroke="#d77879" vector-effect="non-scaling-stroke" d="
  M 49.50 34.29
  L 46.68 34.34
  A 0.59 0.56 89.5 0 0 46.13 34.93
  L 46.13 41.82
  A 0.55 0.51 0.0 0 0 46.68 42.33
  L 63.37 42.48
  A 0.60 0.59 0.0 0 0 63.98 41.88
  L 63.96 38.75"
/>
<path stroke="#f9e9e9" vector-effect="non-scaling-stroke" d="
  M 49.50 34.29
  L 50.01 37.81
  A 0.78 0.74 -7.0 0 0 50.86 38.44
  Q 57.47 37.78 63.96 38.75"
/>
<path stroke="#dd8e8f" vector-effect="non-scaling-stroke" d="
  M 93.96 39.00
  L 94.00 34.91
  A 0.67 0.66 0.0 0 0 93.33 34.25
  L 79.54 34.24"
/>
<path stroke="#d77879" vector-effect="non-scaling-stroke" d="
  M 79.54 34.24
  L 76.74 34.38
  A 0.62 0.59 89.0 0 0 76.18 34.99
  L 76.13 41.82
  A 0.56 0.51 0.5 0 0 76.69 42.34
  L 93.31 42.34
  A 0.60 0.52 0.5 0 0 93.91 41.83
  L 93.96 39.00"
/>
<path stroke="#f9e9e9" vector-effect="non-scaling-stroke" d="
  M 79.54 34.24
  Q 78.52 38.50 82.50 38.22
  Q 88.30 37.80 93.96 39.00"
/>
<path stroke="#7c7f80" vector-effect="non-scaling-stroke" d="
  M 81.32 54.24
  L 78.17 54.36
  A 0.59 0.55 89.5 0 0 77.64 54.94
  L 77.53 61.94
  A 0.54 0.51 0.0 0 0 78.07 62.45
  L 94.25 62.46"
/>
<path stroke="#909494" vector-effect="non-scaling-stroke" d="
  M 94.25 62.46
  Q 96.01 63.07 95.88 61.50
  Q 95.78 60.27 95.80 59.99
  Q 95.91 57.73 95.67 54.76
  A 0.56 0.55 -2.2 0 0 95.11 54.25
  L 81.32 54.24"
/>
<path stroke="#ebebeb" vector-effect="non-scaling-stroke" d="
  M 94.25 62.46
  L 94.11 59.24
  A 0.72 0.60 3.8 0 0 93.51 58.67
  Q 88.92 57.93 84.25 58.24
  Q 80.27 58.51 81.32 54.24"
/>
<path stroke="#dd8e8f" vector-effect="non-scaling-stroke" d="
  M 127.46 58.75
  L 127.47 54.81
  A 0.53 0.51 0.0 0 0 126.94 54.30
  L 113.25 54.29"
/>
<path stroke="#d77879" vector-effect="non-scaling-stroke" d="
  M 113.25 54.29
  L 109.80 54.28
  A 0.54 0.51 90.0 0 0 109.29 54.82
  L 109.30 61.93
  A 0.52 0.51 0.0 0 0 109.82 62.44
  L 126.63 62.50
  A 0.88 0.86 -0.3 0 0 127.51 61.63
  L 127.46 58.75"
/>
<path stroke="#f9e9e9" vector-effect="non-scaling-stroke" d="
  M 113.25 54.29
  L 113.19 57.42
  A 1.03 0.87 -1.0 0 0 114.26 58.29
  Q 121.38 58.02 127.46 58.75"
/>
<path stroke="#d77879" vector-effect="non-scaling-stroke" d="
  M 16.25 54.29
  L 13.01 54.25
  A 0.53 0.51 90.0 0 0 12.50 54.78
  L 12.50 61.98
  A 0.52 0.52 -89.2 0 0 13.02 62.50
  L 30.22 62.50
  A 0.53 0.51 -0.0 0 0 30.75 61.99
  L 30.71 58.75"
/>
<path stroke="#dd8e8f" vector-effect="non-scaling-stroke" d="
  M 30.71 58.75
  L 30.86 55.45
  A 1.21 1.14 -88.8 0 0 29.72 54.18
  L 16.25 54.29"
/>
<path stroke="#f9e9e9" vector-effect="non-scaling-stroke" d="
  M 30.71 58.75
  Q 21.08 57.71 18.75 58.25
  Q 16.23 58.83 16.61 56.99
  A 1.28 1.20 36.8 0 0 16.45 56.09
  Q 15.94 55.24 16.25 54.29"
/>
<path stroke="#dd8e8f" vector-effect="non-scaling-stroke" d="
  M 62.46 58.75
  L 62.57 54.77
  A 0.50 0.49 -88.9 0 0 62.08 54.25
  L 48.00 54.29"
/>
<path stroke="#d77879" vector-effect="non-scaling-stroke" d="
  M 48.00 54.29
  L 44.76 54.25
  A 0.53 0.51 -90.0 0 0 44.25 54.78
  L 44.25 61.98
  A 0.52 0.52 0.0 0 0 44.77 62.50
  L 61.82 62.50
  A 0.68 0.66 -0.4 0 0 62.50 61.83
  L 62.46 58.75"
/>
<path stroke="#f9e9e9" vector-effect="non-scaling-stroke" d="
  M 48.00 54.29
  L 48.45 57.71
  A 0.66 0.53 -1.8 0 0 49.07 58.18
  L 62.46 58.75"
/>
<path stroke="#909494" vector-effect="non-scaling-stroke" d="
  M 22.46 78.50
  L 22.39 74.93
  A 0.59 0.53 0.1 0 0 21.81 74.41
  L 8.11 74.29"
/>
<path stroke="#7c7f80" vector-effect="non-scaling-stroke" d="
  M 8.11 74.29
  L 4.76 74.25
  A 0.53 0.51 90.0 0 0 4.25 74.78
  L 4.25 81.98
  A 0.52 0.52 0.8 0 0 4.77 82.50
  L 22.10 82.50
  A 0.50 0.49 88.9 0 0 22.59 81.98
  L 22.46 78.50"
/>
<path stroke="#ebebeb" vector-effect="non-scaling-stroke" d="
  M 8.11 74.29
  Q 7.17 78.34 10.75 78.26
  Q 16.61 78.12 22.46 78.50"
/>
<path stroke="#909494" vector-effect="non-scaling-stroke" d="
  M 107.46 78.50
  L 107.47 74.80
  A 0.53 0.50 0.0 0 0 106.94 74.30
  L 92.50 74.29"
/>
<path stroke="#7c7f80" vector-effect="non-scaling-stroke" d="
  M 92.50 74.29
  L 89.94 74.20
  A 0.54 0.49 1.1 0 0 89.39 74.68
  L 89.29 81.89
  A 0.63 0.60 0.4 0 0 89.92 82.50
  L 106.97 82.50
  A 0.53 0.51 -0.0 0 0 107.50 81.99
  L 107.46 78.50"
/>
<path stroke="#ebebeb" vector-effect="non-scaling-stroke" d="
  M 92.50 74.29
  L 93.02 75.81
  Q 93.20 76.33 93.14 76.74
  Q 93.03 77.56 93.50 77.97
  Q 93.82 78.25 94.58 78.24
  Q 101.03 78.11 107.46 78.50"
/>
<path stroke="#808384" vector-effect="non-scaling-stroke" d="
  M 36.50 74.29
  L 33.05 74.28
  A 0.52 0.52 89.5 0 0 32.53 74.81
  L 32.64 81.81
  A 0.54 0.53 -0.5 0 0 33.18 82.33
  L 50.19 82.45
  A 0.53 0.51 -0.0 0 0 50.72 81.94
  L 50.71 78.50"
/>
<path stroke="#959798" vector-effect="non-scaling-stroke" d="
  M 50.71 78.50
  L 50.64 74.69
  A 0.57 0.51 -0.5 0 0 50.07 74.19
  L 36.50 74.29"
/>
<path stroke="#ebebeb" vector-effect="non-scaling-stroke" d="
  M 50.71 78.50
  L 37.32 78.19
  A 0.55 0.53 87.5 0 1 36.80 77.70
  L 36.50 74.29"
/>
<path stroke="#808384" vector-effect="non-scaling-stroke" d="
  M 64.75 74.29
  L 61.68 74.35
  A 0.59 0.56 -90.0 0 0 61.13 74.93
  L 61.13 82.05
  A 0.56 0.51 0.0 0 0 61.69 82.56
  L 78.43 82.44
  A 0.54 0.50 0.0 0 0 78.97 81.94
  L 78.96 78.50"
/>
<path stroke="#959798" vector-effect="non-scaling-stroke" d="
  M 78.96 78.50
  L 79.00 74.76
  A 0.51 0.50 0.6 0 0 78.49 74.25
  L 64.75 74.29"
/>
<path stroke="#ebebeb" vector-effect="non-scaling-stroke" d="
  M 78.96 78.50
  L 65.68 78.08
  A 0.59 0.59 87.7 0 1 65.12 77.56
  L 64.75 74.29"
/>
<path stroke="#959798" vector-effect="non-scaling-stroke" d="
  M 135.71 78.50
  L 135.72 74.80
  A 0.53 0.50 0.0 0 0 135.19 74.30
  L 121.50 74.29"
/>
<path stroke="#808384" vector-effect="non-scaling-stroke" d="
  M 121.50 74.29
  L 118.05 74.28
  A 0.54 0.51 90.0 0 0 117.54 74.82
  L 117.55 81.93
  A 0.52 0.51 0.0 0 0 118.07 82.44
  L 134.88 82.50
  A 0.88 0.86 -0.3 0 0 135.76 81.63
  L 135.71 78.50"
/>
<path stroke="#ebebeb" vector-effect="non-scaling-stroke" d="
  M 121.50 74.29
  L 121.63 75.76
  Q 121.69 76.46 121.65 76.74
  Q 121.42 78.54 123.50 78.25
  Q 126.30 77.86 135.71 78.50"
/>
</g>
<path fill="#bb1d1f" d="
  M 81.21 27.00
  Q 78.77 26.66 76.71 27.75
  L 75.25 28.04
  Q 73.12 26.81 70.77 27.00
  Q 68.43 27.19 68.35 27.19
  Q 66.19 27.28 64.55 27.87
  L 63.54 27.75
  Q 61.43 26.61 59.00 27.29
  Q 58.61 23.52 58.72 19.74
  Q 58.72 19.59 58.63 17.77
  Q 58.48 14.97 61.31 15.13
  Q 63.13 15.23 63.18 15.23
  Q 71.83 15.08 80.21 15.49
  A 1.09 1.07 1.4 0 1 81.25 16.56
  L 81.21 27.00
  Z
  M 78.96 22.25
  L 79.00 18.02
  A 0.53 0.52 0.0 0 0 78.47 17.50
  L 67.00 17.54
  L 62.02 17.52
  A 0.96 0.93 0.0 0 0 61.05 18.46
  L 61.14 25.06
  A 0.55 0.53 -0.0 0 0 61.69 25.59
  L 78.31 25.59
  A 0.60 0.52 0.5 0 0 78.91 25.08
  L 78.96 22.25
  Z"
/>
<path fill="#f3d2d2" d="
  M 67.00 17.54
  Q 63.88 17.15 65.43 21.05
  A 1.18 1.16 77.7 0 0 66.57 21.79
  Q 73.25 21.50 78.96 22.25
  L 78.91 25.08
  A 0.60 0.52 0.5 0 1 78.31 25.59
  L 61.69 25.59
  A 0.55 0.53 0.0 0 1 61.14 25.06
  L 61.05 18.46
  A 0.96 0.93 0.0 0 1 62.02 17.52
  L 67.00 17.54
  Z"
/>
<path fill="#ffffff" d="
  M 67.00 17.54
  L 78.47 17.50
  A 0.53 0.52 -0.0 0 1 79.00 18.02
  L 78.96 22.25
  Q 73.25 21.50 66.57 21.79
  A 1.18 1.16 77.7 0 1 65.43 21.05
  Q 63.88 17.15 67.00 17.54
  Z"
/>
<path fill="#d28c87" fill-opacity="0.996" d="
  M 63.54 27.75
  Q 63.03 28.91 62.04 28.50
  Q 61.75 28.02 61.28 27.87
  Q 61.09 27.82 60.36 27.97
  Q 59.53 28.15 59.00 27.29
  Q 61.43 26.61 63.54 27.75
  Z"
/>
<path fill="#d28c87" fill-opacity="0.996" d="
  M 75.25 28.04
  L 76.96 31.00
  Q 75.75 30.39 75.18 29.39
  A 2.77 2.75 -14.7 0 0 72.78 28.00
  L 68.00 28.00
  Q 64.77 28.00 64.06 30.06
  Q 63.81 30.79 63.04 31.00
  L 64.55 27.87
  Q 66.19 27.28 68.35 27.19
  Q 68.43 27.19 70.77 27.00
  Q 73.12 26.81 75.25 28.04
  Z"
/>
<path fill="#d28c87" fill-opacity="0.996" d="
  M 81.21 27.00
  Q 80.66 28.22 79.27 27.91
  Q 78.31 27.69 78.11 28.19
  A 1.02 0.42 46.5 0 0 78.43 29.02
  L 80.00 30.91
  A 3.04 2.31 63.7 0 0 82.25 32.03
  Q 89.34 31.57 96.23 32.57
  Q 89.55 33.32 82.94 32.98
  Q 81.20 32.90 79.75 31.96
  L 76.71 27.75
  Q 78.77 26.66 81.21 27.00
  Z"
/>
<path fill="#2a2f30" d="
  M 63.54 27.75
  L 64.55 27.87
  L 63.04 31.00
  L 62.96 31.50
  Q 61.91 31.13 61.50 32.29
  Q 60.38 32.48 59.25 32.21
  Q 59.21 32.00 59.00 31.96
  L 62.04 28.50
  Q 63.03 28.91 63.54 27.75
  Z"
/>
<path fill="#2a2f30" d="
  M 76.71 27.75
  L 79.75 31.96
  L 78.29 32.50
  Q 78.07 31.26 77.07 31.74
  L 76.96 31.00
  L 75.25 28.04
  L 76.71 27.75
  Z"
/>
<path fill="#ca6967" fill-opacity="0.992" d="
  M 62.96 31.50
  L 66.04 32.75
  Q 63.66 33.68 61.50 32.29
  Q 61.91 31.13 62.96 31.50
  Z"
/>
<path fill="#d28c87" fill-opacity="0.996" d="
  M 77.07 31.74
  Q 78.07 31.26 78.29 32.50
  L 73.79 33.00
  Q 75.03 31.61 77.07 31.74
  Z"
/>
<path fill="#d28c87" fill-opacity="0.996" d="
  M 59.00 31.96
  Q 59.21 32.00 59.25 32.21
  L 59.02 32.60
  A 0.85 0.81 -73.8 0 1 58.29 33.02
  L 43.72 32.68
  Q 51.33 31.52 59.00 31.96
  Z"
/>
<path fill="#bb1d1f" d="
  M 61.50 32.29
  Q 63.66 33.68 66.04 32.75
  L 66.10 43.57
  A 0.70 0.64 -9.4 0 1 65.59 44.21
  Q 62.14 45.23 58.50 44.71
  Q 54.98 44.16 58.74 44.03
  Q 60.27 43.98 58.01 43.88
  Q 56.44 43.81 54.96 44.25
  Q 54.53 44.57 54.00 44.54
  Q 53.35 43.67 52.75 43.75
  Q 49.53 44.16 46.29 44.25
  Q 44.96 43.76 43.54 44.50
  L 43.46 43.75
  L 43.72 32.68
  L 58.29 33.02
  A 0.85 0.81 -73.8 0 0 59.02 32.60
  L 59.25 32.21
  Q 60.38 32.48 61.50 32.29
  Z
  M 63.96 38.75
  L 64.01 35.12
  A 0.88 0.86 0.3 0 0 63.13 34.25
  L 49.50 34.29
  L 46.68 34.34
  A 0.59 0.56 89.5 0 0 46.13 34.93
  L 46.13 41.82
  A 0.55 0.51 0.0 0 0 46.68 42.33
  L 63.37 42.48
  A 0.60 0.59 0.0 0 0 63.98 41.88
  L 63.96 38.75
  Z"
/>
<path fill="#bb1d1f" d="
  M 79.75 31.96
  Q 81.20 32.90 82.94 32.98
  Q 89.55 33.32 96.23 32.57
  L 96.50 43.71
  L 95.00 44.54
  Q 90.50 43.83 86.00 44.54
  L 84.35 45.31
  Q 80.23 44.34 75.88 44.76
  Q 73.74 44.97 73.75 42.84
  L 73.79 33.00
  L 78.29 32.50
  L 79.75 31.96
  Z
  M 93.96 39.00
  L 94.00 34.91
  A 0.67 0.66 0.0 0 0 93.33 34.25
  L 79.54 34.24
  L 76.74 34.38
  A 0.62 0.59 89.0 0 0 76.18 34.99
  L 76.13 41.82
  A 0.56 0.51 0.5 0 0 76.69 42.34
  L 93.31 42.34
  A 0.60 0.52 0.5 0 0 93.91 41.83
  L 93.96 39.00
  Z"
/>
<path fill="#f3d2d2" d="
  M 49.50 34.29
  L 50.01 37.81
  A 0.78 0.74 -7.0 0 0 50.86 38.44
  Q 57.47 37.78 63.96 38.75
  L 63.98 41.88
  A 0.60 0.59 0.0 0 1 63.37 42.48
  L 46.68 42.33
  A 0.55 0.51 0.0 0 1 46.13 41.82
  L 46.13 34.93
  A 0.59 0.56 89.5 0 1 46.68 34.34
  L 49.50 34.29
  Z"
/>
<path fill="#ffffff" d="
  M 49.50 34.29
  L 63.13 34.25
  A 0.88 0.86 0.3 0 1 64.01 35.12
  L 63.96 38.75
  Q 57.47 37.78 50.86 38.44
  A 0.78 0.74 -7.0 0 1 50.01 37.81
  L 49.50 34.29
  Z"
/>
<path fill="#f3d2d2" d="
  M 79.54 34.24
  Q 78.52 38.50 82.50 38.22
  Q 88.30 37.80 93.96 39.00
  L 93.91 41.83
  A 0.60 0.52 0.5 0 1 93.31 42.34
  L 76.69 42.34
  A 0.56 0.51 0.5 0 1 76.13 41.82
  L 76.18 34.99
  A 0.62 0.59 89.0 0 1 76.74 34.38
  L 79.54 34.24
  Z"
/>
<path fill="#ffffff" d="
  M 79.54 34.24
  L 93.33 34.25
  A 0.67 0.66 0.0 0 1 94.00 34.91
  L 93.96 39.00
  Q 88.30 37.80 82.50 38.22
  Q 78.52 38.50 79.54 34.24
  Z"
/>
<path fill="#756165" fill-opacity="0.992" d="
  M 43.46 43.75
  L 43.54 44.50
  L 31.75 51.71
  L 30.04 52.25
  L 29.96 52.00
  L 43.46 43.75
  Z"
/>
<path fill="#2a2f30" d="
  M 46.29 44.25
  L 32.75 52.46
  L 32.29 52.75
  Q 31.69 52.40 31.75 51.71
  L 43.54 44.50
  Q 44.96 43.76 46.29 44.25
  Z"
/>
<path fill="#888482" fill-opacity="0.984" d="
  M 54.00 44.54
  Q 54.70 47.61 52.79 49.75
  L 52.87 45.44
  A 0.66 0.57 5.6 0 0 52.31 44.85
  Q 50.10 44.51 47.92 44.84
  Q 46.18 45.10 43.96 46.46
  Q 38.68 49.70 33.29 52.75
  Q 33.12 52.41 32.75 52.46
  L 46.29 44.25
  Q 49.53 44.16 52.75 43.75
  Q 53.35 43.67 54.00 44.54
  Z"
/>
<path fill="#2a2f30" d="
  M 96.50 43.71
  L 98.04 44.75
  L 97.99 45.22
  A 0.89 0.59 22.6 0 0 98.47 45.93
  L 108.04 51.50
  Q 108.18 52.43 107.25 52.29
  L 95.00 44.54
  L 96.50 43.71
  Z"
/>
<path fill="#d28c87" fill-opacity="0.996" d="
  M 58.50 44.71
  Q 54.88 44.05 55.46 48.00
  Q 54.67 46.23 54.96 44.25
  Q 56.44 43.81 58.01 43.88
  Q 60.27 43.98 58.74 44.03
  Q 54.98 44.16 58.50 44.71
  Z"
/>
<path fill="#2a2f30" d="
  M 54.96 44.25
  Q 54.67 46.23 55.46 48.00
  L 55.25 51.71
  Q 54.73 51.63 54.46 52.00
  L 53.04 52.50
  Q 53.00 52.07 52.71 51.75
  L 52.79 49.75
  Q 54.70 47.61 54.00 44.54
  Q 54.53 44.57 54.96 44.25
  Z"
/>
<path fill="#756165" fill-opacity="0.992" d="
  M 95.00 44.54
  L 107.25 52.29
  L 107.54 52.75
  L 106.96 53.25
  Q 100.81 49.03 94.24 45.53
  Q 92.69 44.71 91.06 44.71
  Q 89.37 44.71 87.69 44.88
  A 0.61 0.55 -3.5 0 0 87.15 45.43
  L 87.21 50.50
  Q 85.76 47.70 86.00 44.54
  Q 90.50 43.83 95.00 44.54
  Z"
/>
<path fill="#212828" d="
  M 86.00 44.54
  Q 85.76 47.70 87.21 50.50
  L 87.43 52.03
  Q 86.18 52.26 87.44 52.86
  Q 87.73 53.00 88.08 52.99
  Q 92.17 52.84 96.24 53.20
  A 0.65 0.63 -1.0 0 1 96.82 53.74
  Q 97.54 58.90 96.46 64.00
  Q 84.37 63.28 79.00 64.00
  Q 75.75 64.44 75.88 61.85
  Q 75.97 60.19 75.97 60.14
  Q 75.87 56.81 76.20 53.50
  A 0.56 0.55 -86.6 0 1 76.76 52.99
  L 84.69 53.16
  A 0.94 0.67 10.0 0 0 85.48 52.78
  Q 85.83 52.09 85.00 51.71
  L 84.35 45.31
  L 86.00 44.54
  Z
  M 81.32 54.24
  L 78.17 54.36
  A 0.59 0.55 89.5 0 0 77.64 54.94
  L 77.53 61.94
  A 0.54 0.51 0.0 0 0 78.07 62.45
  L 94.25 62.46
  Q 96.01 63.07 95.88 61.50
  Q 95.78 60.27 95.80 59.99
  Q 95.91 57.73 95.67 54.76
  A 0.56 0.55 -2.2 0 0 95.11 54.25
  L 81.32 54.24
  Z"
/>
<path fill="#756165" fill-opacity="0.992" d="
  M 98.04 44.75
  L 110.50 51.96
  Q 110.91 52.53 110.25 52.54
  L 108.04 51.50
  L 98.47 45.93
  A 0.89 0.59 22.6 0 1 97.99 45.22
  L 98.04 44.75
  Z"
/>
<path fill="#bb1d1f" d="
  M 108.04 51.50
  L 110.25 52.54
  Q 119.82 53.59 129.61 52.67
  L 129.60 63.06
  A 1.84 1.69 -0.0 0 1 127.76 64.75
  L 122.98 64.75
  Q 122.66 63.57 121.96 64.75
  L 120.75 64.79
  Q 116.93 63.60 113.00 64.54
  L 111.25 64.46
  Q 111.21 63.77 110.50 64.00
  Q 107.71 64.91 108.00 61.25
  Q 108.34 56.96 107.54 52.75
  L 107.25 52.29
  Q 108.18 52.43 108.04 51.50
  Z
  M 127.46 58.75
  L 127.47 54.81
  A 0.53 0.51 0.0 0 0 126.94 54.30
  L 113.25 54.29
  L 109.80 54.28
  A 0.54 0.51 90.0 0 0 109.29 54.82
  L 109.30 61.93
  A 0.52 0.51 0.0 0 0 109.82 62.44
  L 126.63 62.50
  A 0.88 0.86 -0.3 0 0 127.51 61.63
  L 127.46 58.75
  Z"
/>
<path fill="#bb1d1f" d="
  M 31.75 51.71
  Q 31.69 52.40 32.29 52.75
  Q 31.69 57.64 32.00 61.00
  Q 32.19 63.05 31.50 64.29
  L 19.96 64.50
  L 18.00 64.54
  L 17.00 64.79
  L 12.42 64.94
  Q 10.44 65.01 10.43 63.20
  L 10.39 52.79
  Q 18.16 53.21 25.68 53.02
  Q 25.75 53.02 27.31 53.12
  Q 28.86 53.22 30.04 52.25
  L 31.75 51.71
  Z
  M 16.25 54.29
  L 13.01 54.25
  A 0.53 0.51 90.0 0 0 12.50 54.78
  L 12.50 61.98
  A 0.52 0.52 -89.2 0 0 13.02 62.50
  L 30.22 62.50
  A 0.53 0.51 -0.0 0 0 30.75 61.99
  L 30.71 58.75
  L 30.86 55.45
  A 1.21 1.14 -88.8 0 0 29.72 54.18
  L 16.25 54.29
  Z"
/>
<path fill="#e2a19c" fill-opacity="0.992" d="
  M 52.71 51.75
  Q 53.00 52.07 53.04 52.50
  Q 53.08 53.10 52.50 53.09
  Q 48.50 53.00 43.84 53.00
  A 0.84 0.84 0.0 0 0 43.00 53.84
  L 43.00 62.85
  Q 43.00 64.81 44.92 64.42
  Q 47.53 63.89 49.00 64.71
  L 48.75 64.79
  L 47.75 65.04
  Q 46.69 64.55 45.50 64.76
  Q 41.71 65.44 41.90 62.09
  Q 41.99 60.48 41.99 60.40
  Q 41.97 56.73 42.06 53.05
  A 0.82 0.82 -0.4 0 1 42.85 52.25
  L 52.71 51.75
  Z"
/>
<path fill="#d28c87" fill-opacity="0.996" d="
  M 55.25 51.71
  Q 59.48 52.40 61.50 52.00
  Q 65.06 51.29 64.87 54.76
  Q 64.78 56.25 64.71 57.75
  L 64.43 53.82
  A 0.63 0.53 -89.9 0 0 63.95 53.25
  Q 59.78 52.71 56.75 53.00
  Q 55.08 53.16 54.46 52.00
  Q 54.73 51.63 55.25 51.71
  Z"
/>
<path fill="#888482" fill-opacity="0.984" d="
  M 85.00 51.71
  Q 85.83 52.09 85.48 52.78
  A 0.94 0.67 10.0 0 1 84.69 53.16
  L 76.76 52.99
  A 0.56 0.55 -86.6 0 0 76.20 53.50
  Q 75.87 56.81 75.97 60.14
  Q 75.97 60.19 75.88 61.85
  Q 75.75 64.44 79.00 64.00
  Q 84.37 63.28 96.46 64.00
  L 96.50 64.46
  L 77.57 64.74
  Q 75.25 64.77 75.25 62.49
  L 75.25 54.07
  Q 75.25 52.03 77.50 51.95
  L 85.00 51.71
  Z"
/>
<path fill="#acb1aa" fill-opacity="0.992" d="
  M 87.43 52.03
  Q 92.38 51.65 97.19 52.47
  A 0.69 0.68 1.8 0 1 97.75 53.06
  Q 98.47 58.82 97.69 63.94
  Q 97.56 64.79 96.50 64.46
  L 96.46 64.00
  Q 97.54 58.90 96.82 53.74
  A 0.65 0.63 -1.0 0 0 96.24 53.20
  Q 92.17 52.84 88.08 52.99
  Q 87.73 53.00 87.44 52.86
  Q 86.18 52.26 87.43 52.03
  Z"
/>
<path fill="#e2a19c" fill-opacity="0.992" d="
  M 29.96 52.00
  L 30.04 52.25
  Q 28.86 53.22 27.31 53.12
  Q 25.75 53.02 25.68 53.02
  Q 18.16 53.21 10.39 52.79
  Q 20.17 51.41 29.96 52.00
  Z"
/>
<path fill="#bb1d1f" d="
  M 54.46 52.00
  Q 55.08 53.16 56.75 53.00
  Q 59.78 52.71 63.95 53.25
  A 0.63 0.53 -89.9 0 1 64.43 53.82
  L 64.71 57.75
  Q 64.91 60.18 64.65 62.58
  Q 64.49 64.11 63.65 64.54
  Q 62.74 65.01 61.14 64.84
  Q 60.85 63.38 59.71 64.75
  L 58.25 64.79
  Q 54.32 63.66 50.29 64.50
  Q 50.23 64.73 50.00 64.79
  L 49.00 64.71
  Q 47.53 63.89 44.92 64.42
  Q 43.00 64.81 43.00 62.85
  L 43.00 53.84
  A 0.84 0.84 0.0 0 1 43.84 53.00
  Q 48.50 53.00 52.50 53.09
  Q 53.08 53.10 53.04 52.50
  L 54.46 52.00
  Z
  M 62.46 58.75
  L 62.57 54.77
  A 0.50 0.49 -88.9 0 0 62.08 54.25
  L 48.00 54.29
  L 44.76 54.25
  A 0.53 0.51 -90.0 0 0 44.25 54.78
  L 44.25 61.98
  A 0.52 0.52 0.0 0 0 44.77 62.50
  L 61.82 62.50
  A 0.68 0.66 -0.4 0 0 62.50 61.83
  L 62.46 58.75
  Z"
/>
<path fill="#d28c87" fill-opacity="0.996" d="
  M 110.50 51.96
  Q 120.07 51.53 129.61 52.67
  Q 119.82 53.59 110.25 52.54
  Q 110.91 52.53 110.50 51.96
  Z"
/>
<path fill="#e2a19c" fill-opacity="0.992" d="
  M 32.75 52.46
  Q 33.12 52.41 33.29 52.75
  Q 32.58 59.20 33.00 62.00
  Q 33.29 63.88 32.00 64.54
  Q 31.59 64.56 31.50 64.29
  Q 32.19 63.05 32.00 61.00
  Q 31.69 57.64 32.29 52.75
  L 32.75 52.46
  Z"
/>
<path fill="#e2a19c" fill-opacity="0.992" d="
  M 107.54 52.75
  Q 108.34 56.96 108.00 61.25
  Q 107.71 64.91 110.50 64.00
  Q 111.21 63.77 111.25 64.46
  Q 110.83 64.91 110.25 65.04
  L 109.00 64.79
  Q 108.02 64.68 107.39 64.07
  A 1.35 1.00 -73.7 0 1 107.06 63.18
  L 106.96 53.25
  L 107.54 52.75
  Z"
/>
<path fill="#ffffff" d="
  M 30.71 58.75
  Q 21.08 57.71 18.75 58.25
  Q 16.23 58.83 16.61 56.99
  A 1.28 1.20 36.8 0 0 16.45 56.09
  Q 15.94 55.24 16.25 54.29
  L 29.72 54.18
  A 1.21 1.14 -88.8 0 1 30.86 55.45
  L 30.71 58.75
  Z"
/>
<path fill="#ffffff" d="
  M 94.25 62.46
  L 94.11 59.24
  A 0.72 0.60 3.8 0 0 93.51 58.67
  Q 88.92 57.93 84.25 58.24
  Q 80.27 58.51 81.32 54.24
  L 95.11 54.25
  A 0.56 0.55 -2.2 0 1 95.67 54.76
  Q 95.91 57.73 95.80 59.99
  Q 95.78 60.27 95.88 61.50
  Q 96.01 63.07 94.25 62.46
  Z"
/>
<path fill="#f3d2d2" d="
  M 16.25 54.29
  Q 15.94 55.24 16.45 56.09
  A 1.28 1.20 36.8 0 1 16.61 56.99
  Q 16.23 58.83 18.75 58.25
  Q 21.08 57.71 30.71 58.75
  L 30.75 61.99
  A 0.53 0.51 -0.0 0 1 30.22 62.50
  L 13.02 62.50
  A 0.52 0.52 89.2 0 1 12.50 61.98
  L 12.50 54.78
  A 0.53 0.51 -90.0 0 1 13.01 54.25
  L 16.25 54.29
  Z"
/>
<path fill="#f3d2d2" d="
  M 48.00 54.29
  L 48.45 57.71
  A 0.66 0.53 -1.8 0 0 49.07 58.18
  L 62.46 58.75
  L 62.50 61.83
  A 0.68 0.66 -0.4 0 1 61.82 62.50
  L 44.77 62.50
  A 0.52 0.52 0.0 0 1 44.25 61.98
  L 44.25 54.78
  A 0.53 0.51 -90.0 0 1 44.76 54.25
  L 48.00 54.29
  Z"
/>
<path fill="#ffffff" d="
  M 48.00 54.29
  L 62.08 54.25
  A 0.50 0.49 -88.9 0 1 62.57 54.77
  L 62.46 58.75
  L 49.07 58.18
  A 0.66 0.53 -1.8 0 1 48.45 57.71
  L 48.00 54.29
  Z"
/>
<path fill="#d6d6d7" d="
  M 81.32 54.24
  Q 80.27 58.51 84.25 58.24
  Q 88.92 57.93 93.51 58.67
  A 0.72 0.60 3.8 0 1 94.11 59.24
  L 94.25 62.46
  L 78.07 62.45
  A 0.54 0.51 0.0 0 1 77.53 61.94
  L 77.64 54.94
  A 0.59 0.55 89.5 0 1 78.17 54.36
  L 81.32 54.24
  Z"
/>
<path fill="#f3d2d2" d="
  M 113.25 54.29
  L 113.19 57.42
  A 1.03 0.87 -1.0 0 0 114.26 58.29
  Q 121.38 58.02 127.46 58.75
  L 127.51 61.63
  A 0.88 0.86 -0.3 0 1 126.63 62.50
  L 109.82 62.44
  A 0.52 0.51 -0.0 0 1 109.30 61.93
  L 109.29 54.82
  A 0.54 0.51 90.0 0 1 109.80 54.28
  L 113.25 54.29
  Z"
/>
<path fill="#ffffff" d="
  M 113.25 54.29
  L 126.94 54.30
  A 0.53 0.51 0.0 0 1 127.47 54.81
  L 127.46 58.75
  Q 121.38 58.02 114.26 58.29
  A 1.03 0.87 -1.0 0 1 113.19 57.42
  L 113.25 54.29
  Z"
/>
<path fill="#888482" fill-opacity="0.984" d="
  M 120.75 64.79
  Q 121.51 67.73 122.82 70.46
  Q 123.19 71.22 122.50 71.29
  L 119.79 65.64
  A 1.23 1.23 86.9 0 0 119.09 65.01
  Q 116.57 64.15 114.33 64.96
  Q 112.93 65.46 110.71 67.72
  Q 109.09 69.35 107.43 70.95
  Q 106.31 72.02 107.85 72.00
  Q 109.42 71.98 109.63 73.56
  Q 110.32 78.99 109.16 84.60
  Q 108.75 83.79 108.42 83.89
  Q 109.47 79.03 108.99 73.80
  A 0.74 0.58 6.0 0 0 108.43 73.26
  L 105.96 72.68
  Q 105.40 72.54 105.80 72.11
  L 113.00 64.54
  Q 116.93 63.60 120.75 64.79
  Z"
/>
<path fill="#ca6967" fill-opacity="0.992" d="
  M 31.50 64.29
  Q 31.59 64.56 32.00 64.54
  L 20.50 64.79
  L 20.00 64.71
  L 19.96 64.50
  L 31.50 64.29
  Z"
/>
<path fill="#756165" fill-opacity="0.992" d="
  M 58.25 64.79
  Q 60.27 67.79 61.56 68.94
  Q 63.02 70.23 63.25 71.71
  Q 63.00 71.79 62.75 71.71
  L 57.10 65.11
  A 1.21 0.98 -15.8 0 0 56.26 64.75
  L 51.50 64.71
  Q 50.97 64.34 50.29 64.50
  Q 54.32 63.66 58.25 64.79
  Z"
/>
<path fill="#9fa49e" fill-opacity="0.992" d="
  M 61.14 64.84
  L 65.13 70.72
  Q 66.19 72.28 68.59 72.08
  Q 75.50 71.50 81.29 72.88
  L 66.80 72.73
  A 1.43 1.06 61.2 0 1 65.95 72.34
  Q 62.42 68.89 59.71 64.75
  Q 60.85 63.38 61.14 64.84
  Z"
/>
<path fill="#888482" fill-opacity="0.984" d="
  M 122.98 64.75
  Q 123.61 68.56 125.50 71.96
  Q 125.18 72.25 124.75 72.29
  L 121.96 64.75
  Q 122.66 63.57 122.98 64.75
  Z"
/>
<path fill="#756165" fill-opacity="0.992" d="
  M 18.00 64.54
  Q 17.45 68.77 15.04 72.25
  Q 14.98 72.02 14.75 71.96
  Q 15.59 69.10 16.96 66.45
  Q 17.40 65.60 17.00 64.79
  L 18.00 64.54
  Z"
/>
<path fill="#212828" d="
  M 18.00 64.54
  L 19.96 64.50
  L 20.00 64.71
  Q 17.58 67.83 17.04 71.75
  L 16.97 72.47
  A 0.45 0.37 -85.9 0 0 17.32 72.96
  L 22.97 73.00
  A 1.30 1.19 2.1 0 1 24.26 74.28
  L 23.63 83.31
  A 0.57 0.55 1.6 0 1 23.06 83.83
  L 3.69 83.83
  A 0.54 0.52 -0.5 0 1 3.15 83.32
  L 3.03 73.63
  A 0.63 0.61 -0.9 0 1 3.65 73.01
  Q 8.76 72.88 13.50 73.25
  Q 15.00 73.37 15.04 72.25
  Q 17.45 68.77 18.00 64.54
  Z
  M 22.46 78.50
  L 22.39 74.93
  A 0.59 0.53 0.1 0 0 21.81 74.41
  L 8.11 74.29
  L 4.76 74.25
  A 0.53 0.51 90.0 0 0 4.25 74.78
  L 4.25 81.98
  A 0.52 0.52 0.8 0 0 4.77 82.50
  L 22.10 82.50
  A 0.50 0.49 88.9 0 0 22.59 81.98
  L 22.46 78.50
  Z"
/>
<path fill="#9fa49e" fill-opacity="0.992" d="
  M 50.29 64.50
  Q 50.97 64.34 51.50 64.71
  L 47.58 70.64
  Q 46.35 72.50 48.62 72.03
  Q 50.81 71.57 52.51 72.54
  A 0.95 0.88 -76.6 0 1 52.95 73.32
  L 53.00 82.77
  Q 53.01 84.75 51.00 84.75
  L 32.37 84.75
  Q 30.25 84.75 30.25 82.63
  L 30.25 73.48
  A 1.26 1.19 89.5 0 1 31.42 72.22
  L 43.10 72.03
  A 1.02 0.78 10.6 0 0 43.91 71.62
  L 47.75 65.04
  L 48.75 64.79
  L 44.49 72.11
  A 1.88 1.65 13.0 0 1 42.95 72.94
  L 31.78 72.99
  A 0.78 0.77 0.0 0 0 31.00 73.76
  L 31.00 83.10
  A 0.89 0.87 89.7 0 0 31.88 83.99
  L 51.16 83.76
  A 0.87 0.85 89.7 0 0 52.00 82.89
  L 52.00 74.19
  A 1.33 1.32 85.5 0 0 50.47 72.88
  Q 48.14 73.26 46.53 72.74
  A 0.46 0.44 22.6 0 1 46.25 72.11
  L 50.00 64.79
  Q 50.23 64.73 50.29 64.50
  Z"
/>
<path fill="#212828" d="
  M 111.25 64.46
  L 113.00 64.54
  L 105.80 72.11
  Q 105.40 72.54 105.96 72.68
  L 108.43 73.26
  A 0.74 0.58 6.0 0 1 108.99 73.80
  Q 109.47 79.03 108.42 83.89
  L 88.73 84.00
  A 0.72 0.70 0.8 0 1 88.01 83.28
  L 88.30 73.57
  A 0.52 0.51 -89.4 0 1 88.81 73.06
  L 102.55 72.94
  A 0.78 0.50 8.0 0 0 103.19 72.65
  Q 103.29 72.48 103.29 72.25
  L 110.25 65.04
  Q 110.83 64.91 111.25 64.46
  Z
  M 107.46 78.50
  L 107.47 74.80
  A 0.53 0.50 0.0 0 0 106.94 74.30
  L 92.50 74.29
  L 89.94 74.20
  A 0.54 0.49 1.1 0 0 89.39 74.68
  L 89.29 81.89
  A 0.63 0.60 0.4 0 0 89.92 82.50
  L 106.97 82.50
  A 0.53 0.51 -0.0 0 0 107.50 81.99
  L 107.46 78.50
  Z"
/>
<path fill="#888482" fill-opacity="0.984" d="
  M 20.00 64.71
  L 20.50 64.79
  Q 18.60 68.18 17.75 71.96
  Q 17.35 72.05 17.04 71.75
  Q 17.58 67.83 20.00 64.71
  Z"
/>
<path fill="#2a2f30" d="
  M 48.75 64.79
  L 49.00 64.71
  L 50.00 64.79
  L 46.25 72.11
  A 0.46 0.44 22.6 0 0 46.53 72.74
  Q 48.14 73.26 50.47 72.88
  A 1.33 1.32 85.5 0 1 52.00 74.19
  L 52.00 82.89
  A 0.87 0.85 89.7 0 1 51.16 83.76
  L 31.88 83.99
  A 0.89 0.87 89.7 0 1 31.00 83.10
  L 31.00 73.76
  A 0.78 0.77 0.0 0 1 31.78 72.99
  L 42.95 72.94
  A 1.88 1.65 13.0 0 0 44.49 72.11
  L 48.75 64.79
  Z
  M 36.50 74.29
  L 33.05 74.28
  A 0.52 0.52 89.5 0 0 32.53 74.81
  L 32.64 81.81
  A 0.54 0.53 -0.5 0 0 33.18 82.33
  L 50.19 82.45
  A 0.53 0.51 -0.0 0 0 50.72 81.94
  L 50.71 78.50
  L 50.64 74.69
  A 0.57 0.51 -0.5 0 0 50.07 74.19
  L 36.50 74.29
  Z"
/>
<path fill="#2a2f30" d="
  M 58.25 64.79
  L 59.71 64.75
  Q 62.42 68.89 65.95 72.34
  A 1.43 1.06 61.2 0 0 66.80 72.73
  L 81.29 72.88
  L 81.27 84.01
  L 58.77 83.72
  L 58.79 73.00
  Q 60.51 72.75 62.26 72.94
  Q 64.59 73.18 63.25 71.71
  Q 63.02 70.23 61.56 68.94
  Q 60.27 67.79 58.25 64.79
  Z
  M 64.75 74.29
  L 61.68 74.35
  A 0.59 0.56 -90.0 0 0 61.13 74.93
  L 61.13 82.05
  A 0.56 0.51 0.0 0 0 61.69 82.56
  L 78.43 82.44
  A 0.54 0.50 0.0 0 0 78.97 81.94
  L 78.96 78.50
  L 79.00 74.76
  A 0.51 0.50 0.6 0 0 78.49 74.25
  L 64.75 74.29
  Z"
/>
<path fill="#756165" fill-opacity="0.992" d="
  M 109.00 64.79
  L 110.25 65.04
  L 103.29 72.25
  Q 103.23 72.02 103.00 71.96
  Q 106.38 68.09 108.69 66.19
  Q 109.49 65.53 109.00 64.79
  Z"
/>
<path fill="#2a2f30" d="
  M 120.75 64.79
  L 121.96 64.75
  L 124.75 72.29
  Q 126.99 73.24 129.35 73.08
  Q 132.19 72.88 132.80 72.90
  Q 134.58 72.98 136.25 73.00
  A 0.71 0.70 88.3 0 1 136.95 73.67
  Q 137.28 79.35 136.62 84.00
  L 117.06 84.00
  A 1.06 1.04 0.3 0 1 116.00 82.95
  L 116.05 73.57
  A 0.53 0.53 -1.1 0 1 116.56 73.04
  Q 119.03 72.91 121.50 73.01
  Q 124.17 73.13 122.25 71.96
  Q 122.51 71.67 122.50 71.29
  Q 123.19 71.22 122.82 70.46
  Q 121.51 67.73 120.75 64.79
  Z
  M 135.71 78.50
  L 135.72 74.80
  A 0.53 0.50 0.0 0 0 135.19 74.30
  L 121.50 74.29
  L 118.05 74.28
  A 0.54 0.51 90.0 0 0 117.54 74.82
  L 117.55 81.93
  A 0.52 0.51 0.0 0 0 118.07 82.44
  L 134.88 82.50
  A 0.88 0.86 -0.3 0 0 135.76 81.63
  L 135.71 78.50
  Z"
/>
<path fill="#acb1aa" fill-opacity="0.992" d="
  M 17.04 71.75
  Q 17.35 72.05 17.75 71.96
  L 23.55 72.24
  A 1.26 1.23 1.7 0 1 24.75 73.48
  L 24.69 82.92
  A 1.86 1.84 0.2 0 1 22.83 84.75
  L 3.98 84.75
  Q 2.00 84.75 2.00 82.77
  Q 2.00 79.32 2.00 75.89
  Q 2.00 75.80 1.92 74.61
  Q 1.73 71.45 5.50 72.00
  Q 9.40 72.57 14.75 71.96
  Q 14.98 72.02 15.04 72.25
  Q 15.00 73.37 13.50 73.25
  Q 8.76 72.88 3.65 73.01
  A 0.63 0.61 -0.9 0 0 3.03 73.63
  L 3.15 83.32
  A 0.54 0.52 -0.5 0 0 3.69 83.83
  L 23.06 83.83
  A 0.57 0.55 1.6 0 0 23.63 83.31
  L 24.26 74.28
  A 1.30 1.19 2.1 0 0 22.97 73.00
  L 17.32 72.96
  A 0.45 0.37 -85.9 0 1 16.97 72.47
  L 17.04 71.75
  Z"
/>
<path fill="#9fa49e" fill-opacity="0.992" d="
  M 62.75 71.71
  Q 63.00 71.79 63.25 71.71
  Q 64.59 73.18 62.26 72.94
  Q 60.51 72.75 58.79 73.00
  Q 59.27 71.68 60.75 71.98
  Q 61.81 72.19 62.75 71.71
  Z"
/>
<path fill="#acb1aa" fill-opacity="0.992" d="
  M 103.00 71.96
  Q 103.23 72.02 103.29 72.25
  Q 103.29 72.48 103.19 72.65
  A 0.78 0.50 8.0 0 1 102.55 72.94
  L 88.81 73.06
  A 0.52 0.51 -89.4 0 0 88.30 73.57
  L 88.01 83.28
  A 0.72 0.70 0.8 0 0 88.73 84.00
  L 108.42 83.89
  Q 108.75 83.79 109.16 84.60
  Q 99.85 84.85 90.90 84.76
  Q 90.82 84.76 89.60 84.81
  Q 86.79 84.95 86.93 82.14
  Q 86.99 80.96 86.99 80.85
  Q 86.96 77.03 87.04 74.03
  Q 87.09 71.94 89.27 71.94
  L 103.00 71.96
  Z"
/>
<path fill="#9fa49e" fill-opacity="0.992" d="
  M 122.25 71.96
  Q 124.17 73.13 121.50 73.01
  Q 119.03 72.91 116.56 73.04
  A 0.53 0.53 -1.1 0 0 116.05 73.57
  L 116.00 82.95
  A 1.06 1.04 0.3 0 0 117.06 84.00
  L 136.62 84.00
  Q 136.22 84.45 137.24 84.69
  L 117.64 84.75
  Q 115.23 84.75 115.24 82.35
  L 115.29 73.89
  Q 115.30 72.00 117.27 71.98
  L 122.25 71.96
  Z"
/>
<path fill="#acb1aa" fill-opacity="0.992" d="
  M 125.50 71.96
  L 135.97 71.97
  Q 137.90 71.98 138.08 73.86
  Q 138.56 78.82 137.24 84.69
  Q 136.22 84.45 136.62 84.00
  Q 137.28 79.35 136.95 73.67
  A 0.71 0.70 88.3 0 0 136.25 73.00
  Q 134.58 72.98 132.80 72.90
  Q 132.19 72.88 129.35 73.08
  Q 126.99 73.24 124.75 72.29
  Q 125.18 72.25 125.50 71.96
  Z"
/>
<path fill="#ffffff" d="
  M 50.71 78.50
  L 37.32 78.19
  A 0.55 0.53 87.5 0 1 36.80 77.70
  L 36.50 74.29
  L 50.07 74.19
  A 0.57 0.51 -0.5 0 1 50.64 74.69
  L 50.71 78.50
  Z"
/>
<path fill="#ffffff" d="
  M 78.96 78.50
  L 65.68 78.08
  A 0.59 0.59 87.7 0 1 65.12 77.56
  L 64.75 74.29
  L 78.49 74.25
  A 0.51 0.50 0.6 0 1 79.00 74.76
  L 78.96 78.50
  Z"
/>
<path fill="#d6d6d7" d="
  M 92.50 74.29
  L 93.02 75.81
  Q 93.20 76.33 93.14 76.74
  Q 93.03 77.56 93.50 77.97
  Q 93.82 78.25 94.58 78.24
  Q 101.03 78.11 107.46 78.50
  L 107.50 81.99
  A 0.53 0.51 -0.0 0 1 106.97 82.50
  L 89.92 82.50
  A 0.63 0.60 0.4 0 1 89.29 81.89
  L 89.39 74.68
  A 0.54 0.49 1.1 0 1 89.94 74.20
  L 92.50 74.29
  Z"
/>
<path fill="#d6d6d7" d="
  M 8.11 74.29
  Q 7.17 78.34 10.75 78.26
  Q 16.61 78.12 22.46 78.50
  L 22.59 81.98
  A 0.50 0.49 88.9 0 1 22.10 82.50
  L 4.77 82.50
  A 0.52 0.52 -2.4 0 1 4.25 81.98
  L 4.25 74.78
  A 0.53 0.51 -90.0 0 1 4.76 74.25
  L 8.11 74.29
  Z"
/>
<path fill="#ffffff" d="
  M 8.11 74.29
  L 21.81 74.41
  A 0.59 0.53 0.1 0 1 22.39 74.93
  L 22.46 78.50
  Q 16.61 78.12 10.75 78.26
  Q 7.17 78.34 8.11 74.29
  Z"
/>
<path fill="#d6d6d7" d="
  M 36.50 74.29
  L 36.80 77.70
  A 0.55 0.53 87.5 0 0 37.32 78.19
  L 50.71 78.50
  L 50.72 81.94
  A 0.53 0.51 -0.0 0 1 50.19 82.45
  L 33.18 82.33
  A 0.54 0.53 -0.5 0 1 32.64 81.81
  L 32.53 74.81
  A 0.52 0.52 89.5 0 1 33.05 74.28
  L 36.50 74.29
  Z"
/>
<path fill="#d6d6d7" d="
  M 64.75 74.29
  L 65.12 77.56
  A 0.59 0.59 87.7 0 0 65.68 78.08
  L 78.96 78.50
  L 78.97 81.94
  A 0.54 0.50 -0.0 0 1 78.43 82.44
  L 61.69 82.56
  A 0.56 0.51 0.0 0 1 61.13 82.05
  L 61.13 74.93
  A 0.59 0.56 -90.0 0 1 61.68 74.35
  L 64.75 74.29
  Z"
/>
<path fill="#ffffff" d="
  M 92.50 74.29
  L 106.94 74.30
  A 0.53 0.50 0.0 0 1 107.47 74.80
  L 107.46 78.50
  Q 101.03 78.11 94.58 78.24
  Q 93.82 78.25 93.50 77.97
  Q 93.03 77.56 93.14 76.74
  Q 93.20 76.33 93.02 75.81
  L 92.50 74.29
  Z"
/>
<path fill="#d6d6d7" d="
  M 121.50 74.29
  L 121.63 75.76
  Q 121.69 76.46 121.65 76.74
  Q 121.42 78.54 123.50 78.25
  Q 126.30 77.86 135.71 78.50
  L 135.76 81.63
  A 0.88 0.86 -0.3 0 1 134.88 82.50
  L 118.07 82.44
  A 0.52 0.51 -0.0 0 1 117.55 81.93
  L 117.54 74.82
  A 0.54 0.51 -90.0 0 1 118.05 74.28
  L 121.50 74.29
  Z"
/>
<path fill="#ffffff" d="
  M 121.50 74.29
  L 135.19 74.30
  A 0.53 0.50 0.0 0 1 135.72 74.80
  L 135.71 78.50
  Q 126.30 77.86 123.50 78.25
  Q 121.42 78.54 121.65 76.74
  Q 121.69 76.46 121.63 75.76
  L 121.50 74.29
  Z"
/>
<path fill="#9fa49e" fill-opacity="0.992" d="
  M 58.77 83.72
  L 81.27 84.01
  Q 70.61 85.47 59.86 84.53
  Q 59.46 84.50 59.20 84.31
  Q 58.78 84.01 58.77 83.72
  Z"
/>
</svg>
