<?xml version="1.0" encoding="UTF-8" standalone="no"?>
<!DOCTYPE svg PUBLIC "-//W3C//DTD SVG 1.1//EN" "http://www.w3.org/Graphics/SVG/1.1/DTD/svg11.dtd">
<svg xmlns="http://www.w3.org/2000/svg" version="1.1" viewBox="0 0 140 100">
<g stroke-width="2.00" fill="none" stroke-linecap="butt">
<path stroke="#5e6060" stroke-opacity="0.996" vector-effect="non-scaling-stroke" d="
  M 112.50 62.79
  Q 110.46 61.79 112.77 61.06
  Q 115.66 60.16 116.23 57.31
  A 0.67 0.66 -86.9 0 1 116.81 56.78
  Q 119.57 56.49 121.01 54.49
  Q 122.07 53.04 122.00 50.26
  Q 121.81 42.21 118.86 34.78
  Q 116.71 29.37 116.50 28.16
  Q 115.94 24.85 116.50 21.00
  Q 117.11 16.79 115.44 12.43
  Q 114.39 9.67 112.56 7.85
  Q 110.55 5.84 107.94 4.81
  Q 102.10 2.52 95.72 3.58
  Q 82.75 5.75 83.27 19.25
  Q 83.42 23.25 83.16 27.23
  Q 83.01 29.58 81.77 32.39
  Q 78.23 40.43 77.75 49.75
  Q 77.45 55.55 82.46 57.40
  A 1.34 1.31 -4.2 0 1 83.17 58.00
  Q 84.62 60.64 87.30 62.03
  Q 87.77 62.27 87.31 62.47
  L 78.54 66.14
  A 0.91 0.80 -10.5 0 0 78.00 66.82
  Q 77.46 71.92 79.13 76.83
  Q 81.11 82.64 81.90 88.67"
/>
<path stroke="#515756" stroke-opacity="0.996" vector-effect="non-scaling-stroke" d="
  M 114.00 63.04
  Q 115.23 64.56 118.00 65.00
  Q 119.88 65.30 121.89 67.16
  A 0.74 0.65 -58.8 0 1 122.03 67.95
  Q 121.55 69.14 123.12 68.61"
/>
<path stroke="#515756" stroke-opacity="0.996" vector-effect="non-scaling-stroke" d="
  M 121.98 71.93
  Q 119.30 80.12 117.17 88.48
  Q 116.68 90.41 118.21 91.00"
/>
<path stroke="#515756" stroke-opacity="0.996" vector-effect="non-scaling-stroke" d="
  M 118.21 93.00
  Q 115.09 96.08 111.50 96.50
  Q 103.15 97.48 91.81 96.77
  Q 86.57 96.44 81.66 94.19"
/>
<path stroke="#929894" stroke-opacity="0.996" vector-effect="non-scaling-stroke" d="
  M 106.03 97.54
  Q 100.24 96.81 94.49 97.54"
/>
<path stroke="#575a59" stroke-opacity="0.996" vector-effect="non-scaling-stroke" d="
  M 21.50 13.04
  Q 22.07 14.14 19.29 13.84
  A 1.00 0.85 4.2 0 0 18.19 14.64
  L 18.03 18.88
  Q 17.94 21.08 16.10 21.02
  L 9.19 20.80
  A 1.12 1.06 0.0 0 0 8.04 21.89
  L 8.33 32.96
  A 1.98 1.96 -69.2 0 0 8.94 34.34
  Q 20.13 44.84 30.20 55.76
  Q 31.06 56.69 31.23 57.60
  Q 31.69 60.00 28.75 58.96"
/>
<path stroke="#9fa19d" stroke-opacity="0.996" vector-effect="non-scaling-stroke" d="
  M 28.75 58.96
  L 28.75 58.79"
/>
<path stroke="#6f2122" vector-effect="non-scaling-stroke" d="
  M 40.25 13.79
  Q 40.01 15.12 39.00 15.96"
/>
<path stroke="#7c807d" vector-effect="non-scaling-stroke" d="
  M 39.00 15.96
  L 19.88 16.00
  A 0.63 0.62 0.0 0 0 19.25 16.62
  L 19.25 30.24
  A 0.52 0.51 0.0 0 0 19.77 30.75
  L 27.50 30.79"
/>
<path stroke="#6f2122" vector-effect="non-scaling-stroke" d="
  M 27.50 30.79
  Q 26.83 31.18 26.75 31.96"
/>
<path stroke="#6c5a5b" vector-effect="non-scaling-stroke" d="
  M 26.75 31.96
  Q 25.52 31.71 26.25 32.96"
/>
<path stroke="#575a59" stroke-opacity="0.996" vector-effect="non-scaling-stroke" d="
  M 25.75 33.79
  L 25.18 33.51
  A 1.04 0.63 -87.6 0 1 24.76 32.75
  Q 24.68 32.11 24.06 32.04
  A 0.67 0.65 10.9 0 0 23.35 32.51
  Q 23.14 33.24 24.00 33.71"
/>
<path stroke="#575a59" stroke-opacity="0.996" vector-effect="non-scaling-stroke" d="
  M 21.63 32.75
  Q 17.80 33.27 18.07 27.90
  A 1.85 1.84 9.3 0 0 16.73 26.04
  Q 10.06 24.10 11.91 29.92
  Q 12.54 31.91 14.48 33.96
  Q 25.04 45.13 36.49 55.51"
/>
<path stroke="#4b5150" stroke-opacity="0.996" vector-effect="non-scaling-stroke" d="
  M 38.50 58.76
  Q 39.85 75.04 39.00 91.51"
/>
<path stroke="#6b706e" vector-effect="non-scaling-stroke" d="
  M 39.00 91.51
  Q 35.73 92.37 31.85 91.91
  Q 31.09 91.82 29.68 92.03
  Q 27.63 92.34 27.85 90.11
  Q 28.02 88.47 28.02 88.37
  Q 28.29 74.09 28.31 59.82
  Q 28.31 59.53 28.43 59.34
  Q 28.56 59.13 28.75 58.96"
/>
<path stroke="#929894" stroke-opacity="0.996" vector-effect="non-scaling-stroke" d="
  M 39.00 91.51
  Q 39.65 91.38 39.71 91.25"
/>
<path stroke="#b75253" vector-effect="non-scaling-stroke" d="
  M 45.71 13.25
  Q 44.90 14.67 43.24 13.76
  Q 41.67 12.90 40.25 13.79"
/>
<path stroke="#6c5a5b" vector-effect="non-scaling-stroke" d="
  M 40.25 13.79
  Q 39.04 13.70 38.00 12.96"
/>
<path stroke="#575a59" stroke-opacity="0.996" vector-effect="non-scaling-stroke" d="
  M 26.04 12.75
  Q 23.92 14.82 21.96 12.75"
/>
<path stroke="#6b706e" vector-effect="non-scaling-stroke" d="
  M 29.50 13.04
  Q 29.64 14.50 28.15 14.00
  Q 28.06 13.97 27.18 13.82
  Q 26.62 13.73 26.75 13.04"
/>
<path stroke="#6b706e" vector-effect="non-scaling-stroke" d="
  M 37.75 13.04
  Q 37.60 14.40 36.00 14.00
  Q 34.74 13.69 33.92 13.25
  A 0.87 0.82 -45.4 0 0 33.09 13.28
  Q 31.56 14.19 30.00 12.96"
/>
<path stroke="#752728" vector-effect="non-scaling-stroke" d="
  M 68.00 21.04
  Q 67.86 21.84 68.25 22.46"
/>
<path stroke="#d38382" vector-effect="non-scaling-stroke" d="
  M 68.25 22.46
  Q 67.36 22.91 67.79 24.00"
/>
<path stroke="#752728" vector-effect="non-scaling-stroke" d="
  M 67.79 24.00
  L 67.75 25.96"
/>
<path stroke="#c65c5c" vector-effect="non-scaling-stroke" d="
  M 67.75 25.96
  L 66.44 33.28"
/>
<path stroke="#b75253" vector-effect="non-scaling-stroke" d="
  M 64.46 33.75
  Q 64.92 33.22 64.72 32.73
  A 0.81 0.66 -11.0 0 0 63.95 32.32
  Q 62.45 32.43 64.00 33.71"
/>
<path stroke="#b75253" vector-effect="non-scaling-stroke" d="
  M 61.68 33.01
  Q 60.53 32.19 58.68 32.11
  Q 57.70 32.07 58.29 33.00"
/>
<path stroke="#b04f50" vector-effect="non-scaling-stroke" d="
  M 56.50 33.54
  Q 57.31 32.28 55.99 32.05
  A 0.82 0.62 16.1 0 0 55.17 32.36
  Q 54.93 32.85 55.54 33.50"
/>
<path stroke="#b75253" vector-effect="non-scaling-stroke" d="
  M 53.71 33.00
  Q 53.93 31.80 52.28 32.60
  A 0.87 0.85 -38.7 0 1 51.37 32.51
  Q 49.63 31.16 50.29 33.00"
/>
<path stroke="#b75253" vector-effect="non-scaling-stroke" d="
  M 45.71 33.00
  Q 45.72 31.20 44.66 32.33
  A 0.92 0.92 35.6 0 1 43.56 32.51
  Q 41.47 31.40 42.29 33.00"
/>
<path stroke="#b04f50" vector-effect="non-scaling-stroke" d="
  M 40.61 33.60
  Q 40.06 30.28 39.54 33.50"
/>
<path stroke="#b75253" vector-effect="non-scaling-stroke" d="
  M 37.68 32.99
  Q 36.52 32.21 34.69 32.04
  Q 33.46 31.93 34.29 33.00"
/>
<path stroke="#b04f50" vector-effect="non-scaling-stroke" d="
  M 32.77 33.81
  Q 31.82 30.20 31.75 33.46"
/>
<path stroke="#b75253" vector-effect="non-scaling-stroke" d="
  M 29.71 33.00
  Q 29.57 31.41 28.75 32.30
  A 0.97 0.70 -57.4 0 1 27.94 32.62
  Q 27.27 32.46 26.75 31.96"
/>
<path stroke="#c67875" vector-effect="non-scaling-stroke" d="
  M 27.50 30.79
  L 28.32 30.78"
/>
<path stroke="#d6686b" vector-effect="non-scaling-stroke" d="
  M 28.32 30.78
  L 65.09 30.75
  A 0.61 0.59 -0.0 0 0 65.70 30.16
  L 65.59 16.69
  A 0.55 0.53 0.0 0 0 65.05 16.17
  L 39.50 16.04"
/>
<path stroke="#c67875" vector-effect="non-scaling-stroke" d="
  M 39.50 16.04
  L 39.00 15.96"
/>
<path stroke="#e3c7c7" vector-effect="non-scaling-stroke" d="
  M 39.50 16.04
  Q 38.46 18.04 35.31 21.06
  Q 32.74 23.53 28.32 30.78"
/>
<path stroke="#c65c5c" vector-effect="non-scaling-stroke" d="
  M 53.75 13.29
  Q 53.54 14.28 52.57 14.10
  Q 52.48 14.08 51.53 13.92
  Q 50.77 13.79 50.75 13.04"
/>
<path stroke="#c65c5c" vector-effect="non-scaling-stroke" d="
  M 61.71 13.25
  Q 61.82 14.13 61.35 14.02
  Q 60.64 13.85 60.46 13.82
  L 57.97 13.42
  Q 57.37 13.33 57.04 13.44
  Q 55.53 13.95 54.00 13.21"
/>
<path stroke="#b04f50" vector-effect="non-scaling-stroke" d="
  M 50.50 13.04
  Q 48.18 14.28 45.96 13.00"
/>
<path stroke="#826a6b" vector-effect="non-scaling-stroke" d="
  M 68.25 26.04
  L 67.75 25.96"
/>
<path stroke="#8f9191" vector-effect="non-scaling-stroke" d="
  M 67.79 24.00
  Q 70.01 23.78 68.25 22.46"
/>
<path stroke="#826a6b" vector-effect="non-scaling-stroke" d="
  M 68.75 20.29
  Q 68.75 21.01 68.00 21.04"
/>
<path stroke="#c65c5c" vector-effect="non-scaling-stroke" d="
  M 68.00 21.04
  Q 66.53 19.35 67.00 17.00
  Q 67.79 13.04 65.69 13.06
  Q 64.87 13.07 64.32 13.62
  A 0.70 0.60 -51.6 0 1 63.56 13.77
  L 62.00 12.96"
/>
<path stroke="#736062" vector-effect="non-scaling-stroke" d="
  M 83.50 32.70
  Q 82.31 35.19 81.06 38.13
  Q 78.96 43.11 79.29 48.50"
/>
<path stroke="#927475" vector-effect="non-scaling-stroke" d="
  M 79.29 48.50
  L 79.14 52.81
  A 0.85 0.71 15.6 0 0 79.64 53.53
  Q 82.93 55.11 86.85 55.50"
/>
<path stroke="#736062" vector-effect="non-scaling-stroke" d="
  M 86.85 55.50
  Q 94.04 56.10 101.50 55.71"
/>
<path stroke="#826a6b" vector-effect="non-scaling-stroke" d="
  M 101.50 55.71
  Q 106.83 55.99 112.00 54.71"
/>
<path stroke="#927475" vector-effect="non-scaling-stroke" d="
  M 112.00 54.71
  Q 114.57 55.01 116.89 54.11
  Q 117.06 54.04 119.35 53.44
  Q 121.18 52.96 120.88 50.66
  Q 120.71 49.44 120.70 49.33
  Q 120.05 40.97 116.77 33.32
  Q 115.27 29.79 115.09 27.83
  Q 114.87 25.43 115.00 22.00
  Q 115.23 15.95 114.75 14.25
  Q 112.93 7.77 106.54 5.77
  Q 101.85 4.31 96.50 5.00
  Q 85.78 6.38 84.50 17.00
  Q 84.23 19.24 84.75 25.00
  Q 84.99 27.65 83.50 32.70"
/>
<path stroke="#e2a9a9" vector-effect="non-scaling-stroke" d="
  M 112.00 54.71
  Q 111.78 50.68 108.00 49.21"
/>
<path stroke="#d39fa0" vector-effect="non-scaling-stroke" d="
  M 108.00 49.21
  Q 107.81 46.75 109.42 44.87
  A 0.48 0.45 -52.6 0 0 109.35 44.19
  Q 108.73 43.76 107.31 42.94
  Q 106.17 42.28 107.08 41.29
  Q 107.23 41.12 107.61 40.94
  Q 108.17 40.66 107.95 40.36
  A 0.50 0.37 -45.4 0 0 107.26 40.47
  Q 106.23 41.73 105.25 40.71
  A 1.62 0.99 -79.6 0 1 104.91 39.82
  Q 104.61 36.76 101.56 37.11
  A 0.66 0.66 -15.8 0 1 100.88 36.73
  Q 100.07 34.89 98.95 36.52
  A 0.68 0.50 -57.9 0 1 98.22 36.81
  Q 97.10 36.25 98.80 33.41
  A 0.97 0.95 -83.2 0 1 99.35 32.97
  Q 100.87 32.50 101.25 34.25
  Q 101.55 35.64 103.75 36.00"
/>
<path stroke="#cd9c9d" vector-effect="non-scaling-stroke" d="
  M 103.75 36.00
  Q 104.11 37.47 105.61 36.69
  Q 106.25 36.36 105.55 36.26
  L 103.75 36.00"
/>
<path stroke="#d39fa0" vector-effect="non-scaling-stroke" d="
  M 103.75 36.00
  Q 104.43 31.07 109.19 30.82
  A 0.68 0.67 -10.3 0 1 109.86 31.28
  Q 110.66 33.66 108.18 32.21
  A 0.64 0.63 -66.0 0 0 107.25 32.57
  Q 105.53 38.17 109.71 40.24
  Q 109.72 40.24 112.37 40.97
  Q 114.71 41.60 115.75 44.00"
/>
<path stroke="#cd9c9d" vector-effect="non-scaling-stroke" d="
  M 115.75 44.00
  Q 117.40 48.35 113.92 50.73
  A 0.66 0.61 -39.4 0 1 113.11 50.68
  Q 112.09 49.66 113.06 48.36
  Q 113.23 48.14 112.97 48.24
  Q 110.20 49.37 109.75 48.10
  Q 109.61 47.69 109.52 47.55
  Q 108.66 46.31 108.78 47.87
  Q 108.81 48.20 108.99 48.45
  Q 109.92 49.76 111.45 50.20
  A 1.61 1.56 76.9 0 1 112.24 50.71
  Q 113.71 52.45 115.31 50.31
  Q 117.83 46.96 115.75 44.00"
/>
<path stroke="#d39fa0" vector-effect="non-scaling-stroke" d="
  M 115.75 44.00
  Q 115.70 43.14 116.55 42.62
  Q 117.13 42.26 116.45 42.25
  Q 115.06 42.25 114.56 41.44
  A 1.37 0.72 57.8 0 1 114.44 39.94
  Q 115.72 39.03 114.79 38.68
  A 0.70 0.53 -62.7 0 0 114.08 39.02
  Q 113.47 40.03 112.25 40.25
  Q 111.20 40.44 109.31 38.94
  Q 106.40 36.62 109.07 34.26
  Q 109.33 34.04 109.62 34.02
  Q 110.22 33.99 110.16 34.48
  Q 110.13 34.71 109.82 35.06
  Q 108.98 35.99 109.28 37.21
  Q 109.40 37.68 109.56 37.20
  Q 109.79 36.48 110.34 36.02
  A 0.78 0.63 39.4 0 1 111.16 36.03
  Q 112.94 37.13 115.03 36.63
  A 0.78 0.75 89.0 0 0 115.61 36.01
  Q 116.30 32.54 112.75 31.00
  Q 108.72 29.25 105.37 30.91
  Q 104.52 31.33 104.06 31.39
  Q 102.39 31.60 103.00 30.04"
/>
<path stroke="#836565" vector-effect="non-scaling-stroke" d="
  M 103.00 30.04
  Q 109.86 28.67 111.50 22.50
  Q 114.08 12.76 106.41 8.53
  Q 103.56 6.96 100.36 6.82
  Q 96.94 6.67 94.00 8.00
  Q 88.15 10.65 87.72 17.50
  Q 87.11 27.30 96.29 30.00"
/>
<path stroke="#d39fa0" vector-effect="non-scaling-stroke" d="
  M 96.29 30.00
  Q 96.09 32.11 94.78 31.28
  Q 93.89 30.72 93.45 30.62
  Q 88.16 29.38 83.50 32.70"
/>
<path stroke="#645151" vector-effect="non-scaling-stroke" d="
  M 103.00 30.04
  L 96.29 30.00"
/>
<path stroke="#c39596" vector-effect="non-scaling-stroke" d="
  M 108.00 49.21
  Q 106.57 51.92 104.09 53.54
  Q 104.03 53.58 102.69 54.10
  Q 101.70 54.49 101.50 55.71"
/>
<path stroke="#d39fa0" vector-effect="non-scaling-stroke" d="
  M 86.85 55.50
  Q 87.81 51.74 90.98 49.86
  A 1.55 1.55 -27.5 0 1 93.18 50.55
  Q 94.32 53.07 95.72 51.17
  A 1.06 1.00 -35.9 0 0 95.89 50.27
  Q 95.33 48.45 93.16 48.78
  Q 91.64 49.02 92.15 48.35
  A 0.77 0.58 27.2 0 1 92.95 48.21
  Q 95.12 49.04 95.30 45.42
  Q 95.36 44.37 94.44 44.88
  Q 93.36 45.48 92.60 46.63
  Q 91.82 47.80 91.96 46.95
  Q 91.99 46.76 92.13 46.58
  Q 93.14 45.19 94.05 43.73
  A 0.55 0.50 -58.0 0 1 94.76 43.53
  Q 96.48 44.57 96.53 48.47
  Q 96.53 48.63 96.60 48.76
  Q 97.36 50.08 98.00 49.19
  A 0.30 0.28 -43.4 0 1 98.48 49.19
  Q 99.47 50.81 101.47 50.22
  A 0.61 0.56 -20.0 0 1 102.18 50.51
  Q 102.89 52.00 100.22 50.72
  Q 99.15 50.20 99.33 51.38
  Q 99.91 55.10 102.24 53.71
  Q 102.87 53.33 103.46 53.10
  Q 105.13 52.46 103.74 51.46
  A 0.96 0.89 20.4 0 1 103.35 50.68
  Q 103.45 48.11 102.40 45.77
  A 1.01 0.63 73.8 0 0 101.72 45.16
  L 100.78 45.11
  Q 99.87 45.05 99.86 45.05
  Q 99.38 44.96 99.37 45.28
  A 0.67 0.46 3.5 0 0 99.99 45.77
  Q 102.93 45.97 101.73 48.55
  A 0.45 0.40 -58.4 0 1 101.08 48.75
  Q 100.56 48.31 100.77 47.53
  A 0.47 0.46 -75.8 0 0 100.44 46.96
  Q 97.86 46.35 96.97 43.91
  A 1.41 1.27 -88.2 0 0 96.38 43.21
  L 94.68 42.26
  A 0.50 0.49 30.6 0 0 94.01 42.43
  Q 93.37 43.48 93.12 42.32
  Q 93.02 41.83 92.89 41.58
  Q 91.74 39.47 89.36 40.54
  A 1.15 1.15 75.0 0 0 88.69 41.70
  Q 89.05 45.19 91.27 43.59
  Q 92.18 42.94 91.50 43.82
  Q 90.36 45.29 90.82 46.79
  A 1.21 1.18 -41.1 0 1 90.75 47.67
  L 89.86 49.48
  A 0.55 0.54 19.7 0 1 89.22 49.77
  Q 87.74 49.40 86.69 51.08
  A 1.20 1.20 -45.2 0 1 84.66 51.09
  Q 83.56 49.37 81.84 49.61
  Q 81.29 49.68 81.06 49.55
  Q 80.61 49.31 80.65 48.74
  A 0.79 0.52 -81.1 0 0 80.31 48.00
  Q 79.67 47.77 79.29 48.50"
/>
<path stroke="#826a6b" vector-effect="non-scaling-stroke" d="
  M 99.76 58.76
  Q 96.63 58.53 94.75 58.75
  Q 91.07 59.18 86.52 57.99
  Q 84.48 57.46 86.15 58.75
  Q 87.06 59.45 89.01 59.68
  Q 92.43 60.07 95.85 59.97
  Q 99.03 59.88 102.66 59.89
  Q 108.49 59.91 114.16 58.42
  A 1.00 0.58 -4.6 0 0 114.80 57.98
  Q 114.98 57.57 114.02 57.68
  Q 109.38 58.21 104.73 58.72
  Q 102.52 58.97 99.76 58.76"
/>
<path stroke="#826a6b" vector-effect="non-scaling-stroke" d="
  M 103.81 62.69
  Q 100.48 63.24 89.81 62.36
  A 0.39 0.36 -3.5 0 0 89.39 62.80
  Q 89.72 64.09 91.19 64.29
  Q 100.00 65.46 108.75 64.00
  Q 110.05 63.78 109.75 62.66
  A 0.69 0.64 -8.6 0 0 109.07 62.20
  Q 106.42 62.25 103.81 62.69"
/>
<path stroke="#474949" vector-effect="non-scaling-stroke" d="
  M 81.78 69.53
  Q 84.17 69.76 82.68 66.55
  A 0.63 0.62 -20.0 0 0 81.96 66.22
  Q 78.18 67.26 79.77 68.69
  Q 80.58 69.42 81.78 69.53"
/>
<path stroke="#736062" vector-effect="non-scaling-stroke" d="
  M 98.90 67.95
  Q 104.10 68.30 109.26 67.30
  Q 110.43 67.08 109.94 66.51
  A 1.33 0.91 -12.5 0 0 109.07 66.16
  Q 107.27 66.13 104.25 66.75
  Q 99.48 67.74 92.02 66.15
  Q 90.53 65.84 90.00 66.74
  A 0.46 0.40 23.7 0 0 90.29 67.35
  Q 92.42 68.05 94.60 67.99
  Q 98.04 67.89 98.90 67.95"
/>
<path stroke="#474949" vector-effect="non-scaling-stroke" d="
  M 120.06 67.44
  Q 118.90 66.12 117.03 66.65
  A 0.97 0.90 -88.8 0 0 116.41 67.29
  Q 115.41 70.57 118.14 69.31
  Q 118.72 69.04 119.44 68.98
  Q 121.28 68.81 120.06 67.44"
/>
<path stroke="#826a6b" vector-effect="non-scaling-stroke" d="
  M 107.80 70.58
  Q 109.72 70.54 112.75 70.00
  Q 114.32 69.72 114.29 68.80
  A 0.52 0.43 -6.1 0 0 113.69 68.40
  Q 99.79 70.82 85.93 68.28
  A 0.53 0.48 10.0 0 0 85.32 68.67
  Q 85.05 70.34 87.25 70.50
  Q 97.46 71.23 104.70 70.64
  Q 104.80 70.64 107.80 70.58"
/>
<path stroke="#6c5d5f" vector-effect="non-scaling-stroke" d="
  M 118.00 71.29
  L 116.00 71.71"
/>
<path stroke="#927475" vector-effect="non-scaling-stroke" d="
  M 116.00 71.71
  L 107.50 72.54"
/>
<path stroke="#736062" vector-effect="non-scaling-stroke" d="
  M 107.50 72.54
  L 106.00 73.04"
/>
<path stroke="#826a6b" vector-effect="non-scaling-stroke" d="
  M 106.00 73.04
  L 92.25 73.04"
/>
<path stroke="#927475" vector-effect="non-scaling-stroke" d="
  M 92.25 73.04
  L 83.50 71.79"
/>
<path stroke="#6c5d5f" vector-effect="non-scaling-stroke" d="
  M 83.50 71.79
  Q 82.84 71.81 82.25 71.54"
/>
<path stroke="#927475" vector-effect="non-scaling-stroke" d="
  M 82.25 71.54
  Q 81.21 70.97 80.07 70.85
  A 0.43 0.41 -89.6 0 0 79.61 71.32
  Q 80.19 76.67 82.01 81.75
  Q 83.63 86.24 83.79 92.57
  A 1.39 1.37 9.8 0 0 84.69 93.83
  Q 88.34 95.21 92.35 95.48
  Q 93.72 95.58 100.14 95.61
  Q 107.11 95.65 114.02 94.50
  Q 116.34 94.11 116.04 91.78
  Q 115.50 87.55 117.37 82.45
  Q 119.33 77.13 120.09 70.76
  Q 120.17 70.09 119.58 70.42
  L 118.00 71.29"
/>
<path stroke="#cd9c9d" vector-effect="non-scaling-stroke" d="
  M 82.25 71.54
  Q 82.00 72.10 82.01 72.69
  A 0.97 0.75 17.3 0 0 82.51 73.41
  Q 83.32 73.86 83.94 74.53
  Q 84.32 74.95 84.73 76.12
  Q 85.32 77.82 86.93 78.83
  Q 89.48 80.42 91.06 83.01
  A 1.12 1.02 -9.7 0 0 91.81 83.49
  Q 93.46 83.75 94.47 85.09
  A 1.67 0.64 62.1 0 0 95.20 85.73
  L 99.27 87.15
  A 1.49 0.72 -31.7 0 0 100.22 87.05
  Q 103.47 85.78 103.04 89.44
  Q 103.00 89.78 103.09 90.04
  Q 103.59 91.42 103.89 89.54
  Q 103.94 89.23 103.89 88.82
  Q 103.54 85.74 105.31 84.31
  Q 106.20 83.60 110.94 81.44
  Q 112.35 80.79 113.19 81.62
  A 0.29 0.28 32.0 0 0 113.66 81.52
  Q 113.98 80.49 113.94 80.19
  Q 113.36 76.19 117.00 76.23
  A 0.62 0.53 2.5 0 0 117.61 75.75
  L 118.00 71.29"
/>
<path stroke="#cd9c9d" vector-effect="non-scaling-stroke" d="
  M 83.50 71.79
  Q 82.78 72.04 83.14 72.59
  Q 88.81 81.32 98.61 85.57
  A 2.13 2.10 -42.7 0 0 100.16 85.62
  Q 110.83 81.80 116.35 72.14
  Q 116.63 71.66 116.00 71.71"
/>
<path stroke="#e2a9a9" vector-effect="non-scaling-stroke" d="
  M 92.25 73.04
  Q 91.88 74.96 90.19 73.87
  Q 90.03 73.78 89.87 73.57
  Q 89.48 73.05 89.36 73.58
  A 0.69 0.63 29.8 0 0 89.56 74.20
  Q 90.68 75.26 92.16 74.63
  Q 93.49 74.06 93.25 75.48
  Q 93.01 76.89 93.79 78.00"
/>
<path stroke="#d39fa0" vector-effect="non-scaling-stroke" d="
  M 93.79 78.00
  Q 94.34 80.03 96.06 78.58
  A 0.70 0.65 -40.6 0 1 97.00 78.62
  L 98.78 80.61
  A 1.42 1.25 38.4 0 0 101.00 80.49
  L 103.40 75.53
  A 1.19 0.67 -74.4 0 1 104.03 74.90
  Q 105.18 74.62 105.01 76.06
  Q 104.84 77.54 103.68 78.27
  A 0.38 0.33 -41.1 0 0 103.60 78.85
  Q 104.10 79.22 104.60 78.95
  Q 104.99 78.73 105.29 78.00
  Q 106.39 75.27 107.50 72.54"
/>
<path stroke="#c39596" vector-effect="non-scaling-stroke" d="
  M 93.79 78.00
  Q 95.98 78.24 97.12 76.54
  Q 97.74 75.62 97.75 76.73
  Q 97.78 79.08 99.75 79.91
  A 0.72 0.70 21.5 0 0 100.70 79.51
  L 102.33 75.02
  A 1.61 1.57 -74.5 0 1 104.11 73.98
  Q 106.00 74.33 106.00 73.04"
/>
<path stroke="#cd9c9d" vector-effect="non-scaling-stroke" d="
  M 113.46 45.21
  Q 113.57 45.78 113.37 46.42
  Q 113.24 46.84 113.25 47.09
  Q 113.30 48.30 114.01 47.43
  Q 114.19 47.21 114.27 46.89
  Q 115.16 43.37 112.08 44.23
  A 0.71 0.71 81.1 0 1 111.19 43.58
  Q 111.10 41.67 110.38 43.23
  A 1.16 0.99 -48.7 0 0 110.37 44.15
  Q 111.02 45.52 112.52 44.74
  A 0.66 0.65 71.1 0 1 113.46 45.21"
/>
<path stroke="#818280" vector-effect="non-scaling-stroke" d="
  M 98.87 10.86
  Q 99.74 9.78 100.20 8.63
  A 0.46 0.45 11.7 0 0 99.79 8.01
  Q 94.08 7.83 90.56 11.81
  Q 89.82 12.66 89.81 14.93
  A 0.47 0.46 88.4 0 0 90.31 15.41
  Q 95.57 14.97 98.87 10.86"
/>
<path stroke="#434846" stroke-opacity="0.996" vector-effect="non-scaling-stroke" d="
  M 107.25 15.29
  Q 108.22 16.26 109.45 15.72
  Q 111.33 14.89 109.79 13.50"
/>
<path stroke="#818280" vector-effect="non-scaling-stroke" d="
  M 109.79 13.50
  Q 107.93 8.95 102.13 8.13
  A 0.78 0.76 11.9 0 0 101.27 8.68
  Q 100.82 10.28 101.83 11.29
  Q 102.62 12.08 102.71 12.19
  Q 104.53 14.37 107.25 15.29"
/>
<path stroke="#b0b3b0" stroke-opacity="0.996" vector-effect="non-scaling-stroke" d="
  M 109.79 13.50
  Q 108.71 14.67 107.25 15.29"
/>
<path stroke="#818280" vector-effect="non-scaling-stroke" d="
  M 105.81 15.94
  Q 103.51 14.92 100.57 11.39
  A 0.45 0.44 47.1 0 0 99.91 11.36
  Q 95.49 15.93 89.18 17.10
  A 0.65 0.62 -3.6 0 0 88.65 17.68
  Q 88.06 27.96 98.25 29.04
  Q 110.30 30.32 111.00 18.48
  A 1.04 1.04 8.3 0 0 110.20 17.41
  Q 107.99 16.90 105.81 15.94"
/>
<path stroke="#818280" vector-effect="non-scaling-stroke" d="
  M 96.00 17.04
  Q 93.68 16.67 92.75 18.71"
/>
<path stroke="#b0b3b0" stroke-opacity="0.996" vector-effect="non-scaling-stroke" d="
  M 92.75 18.71
  Q 89.55 21.01 93.43 21.87"
/>
<path stroke="#d0d1ce" vector-effect="non-scaling-stroke" d="
  M 93.43 21.87
  Q 90.47 26.61 95.43 26.92
  A 0.93 0.85 17.0 0 0 96.23 26.54
  Q 97.37 24.77 96.27 22.91
  A 0.69 0.58 53.7 0 1 96.32 22.12
  Q 97.07 21.40 98.21 21.58
  Q 98.50 21.62 98.25 21.46
  Q 97.57 21.03 97.46 20.25"
/>
<path stroke="#818280" vector-effect="non-scaling-stroke" d="
  M 97.46 20.25
  Q 97.97 18.96 96.96 18.00"
/>
<path stroke="#bcbcba" stroke-opacity="0.996" vector-effect="non-scaling-stroke" d="
  M 96.96 18.00
  Q 98.28 14.89 96.00 17.04"
/>
<path stroke="#4f514f" stroke-opacity="0.996" vector-effect="non-scaling-stroke" d="
  M 96.96 18.00
  Q 96.60 17.40 96.00 17.04"
/>
<path stroke="#636764" vector-effect="non-scaling-stroke" d="
  M 97.46 20.25
  Q 94.55 22.18 93.71 19.25"
/>
<path stroke="#434846" stroke-opacity="0.996" vector-effect="non-scaling-stroke" d="
  M 93.71 19.25
  Q 93.36 18.76 92.75 18.71"
/>
<path stroke="#929894" stroke-opacity="0.996" vector-effect="non-scaling-stroke" d="
  M 93.71 19.25
  Q 92.26 19.34 92.74 20.64
  A 1.21 0.77 8.6 0 0 93.38 21.20
  Q 94.08 21.48 93.43 21.87"
/>
<path stroke="#818280" vector-effect="non-scaling-stroke" d="
  M 104.20 18.25
  Q 104.43 18.82 103.97 19.08
  A 0.57 0.46 61.0 0 1 103.27 18.80
  Q 102.25 16.86 102.19 18.82
  A 1.45 1.42 -62.3 0 0 102.46 19.72
  Q 104.52 22.55 106.29 18.36
  A 0.73 0.72 18.7 0 0 105.80 17.38
  L 102.84 16.64
  Q 102.24 16.48 102.68 16.93
  Q 103.00 17.26 103.50 17.57
  Q 104.05 17.90 104.20 18.25"
/>
<path stroke="#a5a5a3" vector-effect="non-scaling-stroke" d="
  M 107.42 20.12
  Q 107.38 22.52 108.16 20.26
  Q 108.26 19.98 108.23 19.72
  Q 108.14 18.92 107.71 19.35
  A 1.20 0.85 75.5 0 0 107.42 20.12"
/>
<path stroke="#d0d1ce" vector-effect="non-scaling-stroke" d="
  M 104.19 26.89
  Q 106.35 27.12 107.01 25.31
  Q 107.40 24.24 106.88 23.22
  Q 106.14 21.79 104.62 22.29
  Q 103.41 22.69 103.04 23.89
  Q 102.64 25.19 103.39 26.40
  A 1.11 1.05 -11.7 0 0 104.19 26.89"
/>
<path stroke="#8f9191" vector-effect="non-scaling-stroke" d="
  M 99.32 26.03
  Q 99.99 28.03 101.07 24.42
  A 0.53 0.53 5.1 0 0 100.50 23.74
  Q 97.44 24.08 98.79 25.26
  A 2.03 1.61 17.0 0 1 99.32 26.03"
/>
<path stroke="#7c807d" vector-effect="non-scaling-stroke" d="
  M 11.54 24.22
  Q 13.87 23.79 16.25 23.94
  Q 17.67 24.03 17.45 23.20
  A 0.74 0.68 -6.1 0 0 16.76 22.69
  L 9.94 22.56
  A 1.00 0.92 -89.4 0 0 9.00 23.56
  L 9.00 31.46
  A 3.41 3.34 -67.8 0 0 9.97 33.84
  L 31.79 55.66
  A 2.61 2.57 25.9 0 1 32.55 57.79
  Q 32.36 59.50 33.35 59.25
  A 0.90 0.75 -89.4 0 0 33.92 58.58
  Q 34.17 57.30 33.98 56.04
  Q 33.81 54.93 32.79 53.93
  Q 22.13 43.34 11.61 32.61
  A 1.43 0.96 29.7 0 1 11.19 31.76
  L 11.03 24.81
  A 0.63 0.58 -6.4 0 1 11.54 24.22"
/>
<path stroke="#7c807d" vector-effect="non-scaling-stroke" d="
  M 32.25 90.71
  L 36.85 90.74
  A 0.64 0.63 90.0 0 0 37.49 90.09
  L 37.32 61.44
  A 0.53 0.52 -89.4 0 0 36.81 60.91
  L 32.01 60.75"
/>
<path stroke="#6b706e" vector-effect="non-scaling-stroke" d="
  M 32.01 60.75
  Q 29.18 60.29 29.19 61.81
  Q 29.25 76.00 29.31 90.18
  A 0.55 0.51 90.0 0 0 29.82 90.73
  L 32.25 90.71"
/>
<path stroke="#c3c7c1" vector-effect="non-scaling-stroke" d="
  M 32.01 60.75
  Q 33.07 75.73 32.25 90.71"
/>
<path stroke="#636764" vector-effect="non-scaling-stroke" d="
  M 94.72 18.03
  Q 92.96 18.55 95.00 18.87
  A 0.67 0.51 13.7 0 0 95.69 18.57
  Q 95.81 18.23 95.41 18.05
  Q 95.12 17.92 94.72 18.03"
/>
<path stroke="#d39fa0" vector-effect="non-scaling-stroke" d="
  M 93.02 31.44
  Q 92.89 30.91 92.35 30.79
  Q 91.76 30.65 91.68 30.62
  Q 89.21 29.70 89.91 32.21
  A 1.30 0.80 15.0 0 0 90.53 32.87
  Q 91.41 33.33 92.31 34.69
  Q 93.27 36.13 95.37 36.28
  A 0.49 0.49 -85.0 0 1 95.83 36.83
  Q 95.55 39.22 96.75 38.83
  A 0.96 0.96 -27.1 0 0 97.23 37.35
  Q 95.36 34.77 95.24 33.25
  A 1.52 0.47 -87.9 0 0 94.99 32.32
  Q 94.44 31.58 93.53 31.78
  A 0.46 0.42 76.4 0 1 93.02 31.44"
/>
<path stroke="#c39596" vector-effect="non-scaling-stroke" d="
  M 88.27 32.08
  Q 88.72 34.12 88.97 32.01
  Q 89.00 31.73 88.91 31.52
  Q 88.65 30.97 88.38 31.32
  A 1.01 0.67 64.7 0 0 88.27 32.08"
/>
<path stroke="#d39fa0" vector-effect="non-scaling-stroke" d="
  M 90.81 36.85
  Q 89.83 36.06 88.77 36.01
  Q 88.16 35.99 87.59 36.20
  Q 82.20 38.26 82.93 41.71
  A 0.57 0.55 -10.1 0 0 83.56 42.13
  Q 87.37 41.64 84.86 39.32
  A 0.83 0.60 36.0 0 1 84.60 38.52
  Q 84.78 38.07 85.28 38.44
  Q 85.49 38.60 85.74 39.02
  Q 86.91 40.97 88.62 39.59
  A 1.46 1.31 23.1 0 1 89.50 39.29
  Q 89.79 39.29 90.07 39.23
  Q 90.53 39.12 90.91 38.68
  Q 93.79 35.35 89.71 33.45
  A 0.76 0.75 35.6 0 0 88.87 33.58
  L 87.31 35.06
  Q 86.78 35.57 87.52 35.45
  Q 90.20 35.00 91.01 36.71
  Q 91.24 37.20 90.81 36.85"
/>
<path stroke="#c39596" vector-effect="non-scaling-stroke" d="
  M 112.76 35.27
  Q 112.23 34.36 111.55 34.14
  A 0.42 0.38 -83.0 0 0 111.05 34.57
  Q 111.12 35.90 112.37 35.93
  Q 113.15 35.95 112.76 35.27"
/>
<path stroke="#d39fa0" vector-effect="non-scaling-stroke" d="
  M 91.74 38.90
  Q 90.91 39.40 91.86 39.96
  Q 92.24 40.19 92.59 40.60
  Q 93.07 41.18 93.71 41.09
  A 0.96 0.66 -81.2 0 0 94.31 40.45
  L 95.07 37.98
  A 0.82 0.70 -63.3 0 0 94.87 37.16
  Q 92.85 35.54 92.28 38.20
  A 1.20 1.01 -12.2 0 1 91.74 38.90"
/>
<path stroke="#c39596" vector-effect="non-scaling-stroke" d="
  M 103.30 39.50
  Q 104.44 37.27 101.95 38.30
  A 0.40 0.39 60.5 0 0 101.79 38.90
  L 102.46 39.84
  A 0.76 0.71 -47.4 0 1 102.47 40.66
  Q 101.43 42.31 103.31 42.14
  A 0.88 0.79 5.5 0 0 104.02 41.62
  Q 104.36 40.65 103.51 40.15
  A 0.52 0.49 29.1 0 1 103.30 39.50"
/>
<path stroke="#c39596" vector-effect="non-scaling-stroke" d="
  M 95.52 39.43
  Q 95.06 38.99 95.06 39.63
  Q 95.06 39.85 95.20 40.02
  A 0.82 0.49 40.1 0 1 95.40 40.61
  Q 95.06 42.16 96.40 42.24
  Q 96.87 42.27 97.90 41.84
  Q 98.96 41.40 100.20 41.30
  A 1.09 1.08 -6.4 0 0 101.19 40.06
  Q 101.00 38.86 100.16 39.02
  A 1.18 0.67 -72.9 0 0 99.49 39.65
  Q 98.30 42.06 95.52 39.43"
/>
<path stroke="#d39fa0" vector-effect="non-scaling-stroke" d="
  M 87.29 44.00
  A 0.75 0.75 4.4 0 0 88.20 43.22
  Q 88.00 39.86 85.82 41.83
  Q 84.18 43.31 87.29 44.00"
/>
<path stroke="#c39596" vector-effect="non-scaling-stroke" d="
  M 107.74 44.12
  Q 106.66 43.68 106.22 42.66
  Q 105.98 42.10 105.68 41.86
  Q 104.36 40.82 105.01 42.60
  A 1.64 1.09 16.4 0 0 105.61 43.32
  Q 106.91 44.21 107.19 45.83
  Q 107.39 46.97 108.08 46.04
  Q 109.09 44.67 107.74 44.12"
/>
<path stroke="#d39fa0" vector-effect="non-scaling-stroke" d="
  M 105.69 47.06
  Q 107.78 47.28 106.59 45.87
  Q 106.28 45.50 106.18 45.00
  Q 105.85 43.31 104.56 44.56
  Q 102.35 46.71 105.69 47.06"
/>
<path stroke="#c39596" vector-effect="non-scaling-stroke" d="
  M 88.16 45.15
  Q 86.34 43.94 86.62 46.05
  Q 86.70 46.63 86.76 47.47
  Q 86.92 49.69 88.87 49.04
  A 1.99 1.99 81.4 0 0 90.24 47.18
  Q 90.28 44.04 88.93 45.10
  A 0.69 0.64 -46.3 0 1 88.16 45.15"
/>
<path stroke="#d39fa0" vector-effect="non-scaling-stroke" d="
  M 104.31 49.92
  Q 104.96 54.08 106.99 49.51
  A 1.23 1.23 20.6 0 0 106.23 47.84
  Q 103.87 47.12 104.31 49.92"
/>
<path stroke="#d39fa0" vector-effect="non-scaling-stroke" d="
  M 96.93 54.09
  Q 100.08 55.41 98.60 51.89
  A 1.15 1.15 -29.9 0 0 96.85 51.42
  Q 94.61 53.11 96.93 54.09"
/>
<path stroke="#cd9c9d" vector-effect="non-scaling-stroke" d="
  M 80.44 51.73
  Q 80.43 54.34 80.70 52.24
  Q 81.18 48.66 80.51 51.16
  Q 80.44 51.43 80.44 51.73"
/>
</g>
<path fill="#8b8c89" fill-opacity="0.992" d="
  M 112.50 62.79
  Q 110.46 61.79 112.77 61.06
  Q 115.66 60.16 116.23 57.31
  A 0.67 0.66 -86.9 0 1 116.81 56.78
  Q 119.57 56.49 121.01 54.49
  Q 122.07 53.04 122.00 50.26
  Q 121.81 42.21 118.86 34.78
  Q 116.71 29.37 116.50 28.16
  Q 115.94 24.85 116.50 21.00
  Q 117.11 16.79 115.44 12.43
  Q 114.39 9.67 112.56 7.85
  Q 110.55 5.84 107.94 4.81
  Q 102.10 2.52 95.72 3.58
  Q 82.75 5.75 83.27 19.25
  Q 83.42 23.25 83.16 27.23
  Q 83.01 29.58 81.77 32.39
  Q 78.23 40.43 77.75 49.75
  Q 77.45 55.55 82.46 57.40
  A 1.34 1.31 -4.2 0 1 83.17 58.00
  Q 84.62 60.64 87.30 62.03
  Q 87.77 62.27 87.31 62.47
  L 78.54 66.14
  A 0.91 0.80 -10.5 0 0 78.00 66.82
  Q 77.46 71.92 79.13 76.83
  Q 81.11 82.64 81.90 88.67
  Q 78.06 78.16 77.00 68.75
  Q 76.68 65.92 79.60 64.93
  Q 82.26 64.03 84.93 63.19
  A 0.57 0.57 -23.0 0 0 85.26 62.38
  Q 83.65 59.37 81.47 57.98
  Q 79.00 56.41 78.56 55.84
  Q 76.32 52.88 76.75 48.50
  Q 77.64 39.46 80.25 34.50
  Q 82.97 29.33 82.75 24.75
  Q 82.42 17.75 82.64 16.27
  Q 84.57 3.54 97.75 2.75
  Q 102.78 2.45 106.87 3.77
  Q 116.59 6.91 117.25 17.25
  Q 117.43 20.13 117.00 24.75
  Q 116.65 28.44 118.85 33.17
  Q 122.96 42.01 122.80 51.71
  Q 122.78 53.32 121.87 54.52
  Q 120.93 55.76 119.81 56.84
  A 1.81 1.15 7.4 0 1 118.95 57.24
  Q 117.48 57.53 116.56 59.06
  Q 115.33 61.12 112.50 62.79
  Z"
/>
<path fill="#313537" d="
  M 112.50 62.79
  Q 113.18 63.13 114.00 63.04
  Q 115.23 64.56 118.00 65.00
  Q 119.88 65.30 121.89 67.16
  A 0.74 0.65 -58.8 0 1 122.03 67.95
  Q 121.55 69.14 123.12 68.61
  L 121.98 71.93
  Q 119.30 80.12 117.17 88.48
  Q 116.68 90.41 118.21 91.00
  L 118.21 93.00
  Q 115.09 96.08 111.50 96.50
  Q 103.15 97.48 91.81 96.77
  Q 86.57 96.44 81.66 94.19
  Q 80.97 91.35 81.90 88.67
  Q 81.11 82.64 79.13 76.83
  Q 77.46 71.92 78.00 66.82
  A 0.91 0.80 -10.5 0 1 78.54 66.14
  L 87.31 62.47
  Q 87.77 62.27 87.30 62.03
  Q 84.62 60.64 83.17 58.00
  A 1.34 1.31 -4.2 0 0 82.46 57.40
  Q 77.45 55.55 77.75 49.75
  Q 78.23 40.43 81.77 32.39
  Q 83.01 29.58 83.16 27.23
  Q 83.42 23.25 83.27 19.25
  Q 82.75 5.75 95.72 3.58
  Q 102.10 2.52 107.94 4.81
  Q 110.55 5.84 112.56 7.85
  Q 114.39 9.67 115.44 12.43
  Q 117.11 16.79 116.50 21.00
  Q 115.94 24.85 116.50 28.16
  Q 116.71 29.37 118.86 34.78
  Q 121.81 42.21 122.00 50.26
  Q 122.07 53.04 121.01 54.49
  Q 119.57 56.49 116.81 56.78
  A 0.67 0.66 -86.9 0 0 116.23 57.31
  Q 115.66 60.16 112.77 61.06
  Q 110.46 61.79 112.50 62.79
  Z
  M 83.50 32.70
  Q 82.31 35.19 81.06 38.13
  Q 78.96 43.11 79.29 48.50
  L 79.14 52.81
  A 0.85 0.71 15.6 0 0 79.64 53.53
  Q 82.93 55.11 86.85 55.50
  Q 94.04 56.10 101.50 55.71
  Q 106.83 55.99 112.00 54.71
  Q 114.57 55.01 116.89 54.11
  Q 117.06 54.04 119.35 53.44
  Q 121.18 52.96 120.88 50.66
  Q 120.71 49.44 120.70 49.33
  Q 120.05 40.97 116.77 33.32
  Q 115.27 29.79 115.09 27.83
  Q 114.87 25.43 115.00 22.00
  Q 115.23 15.95 114.75 14.25
  Q 112.93 7.77 106.54 5.77
  Q 101.85 4.31 96.50 5.00
  Q 85.78 6.38 84.50 17.00
  Q 84.23 19.24 84.75 25.00
  Q 84.99 27.65 83.50 32.70
  Z
  M 99.76 58.76
  Q 96.63 58.53 94.75 58.75
  Q 91.07 59.18 86.52 57.99
  Q 84.48 57.46 86.15 58.75
  Q 87.06 59.45 89.01 59.68
  Q 92.43 60.07 95.85 59.97
  Q 99.03 59.88 102.66 59.89
  Q 108.49 59.91 114.16 58.42
  A 1.00 0.58 -4.6 0 0 114.80 57.98
  Q 114.98 57.57 114.02 57.68
  Q 109.38 58.21 104.73 58.72
  Q 102.52 58.97 99.76 58.76
  Z
  M 103.81 62.69
  Q 100.48 63.24 89.81 62.36
  A 0.39 0.36 -3.5 0 0 89.39 62.80
  Q 89.72 64.09 91.19 64.29
  Q 100.00 65.46 108.75 64.00
  Q 110.05 63.78 109.75 62.66
  A 0.69 0.64 -8.6 0 0 109.07 62.20
  Q 106.42 62.25 103.81 62.69
  Z
  M 81.78 69.53
  Q 84.17 69.76 82.68 66.55
  A 0.63 0.62 -20.0 0 0 81.96 66.22
  Q 78.18 67.26 79.77 68.69
  Q 80.58 69.42 81.78 69.53
  Z
  M 98.90 67.95
  Q 104.10 68.30 109.26 67.30
  Q 110.43 67.08 109.94 66.51
  A 1.33 0.91 -12.5 0 0 109.07 66.16
  Q 107.27 66.13 104.25 66.75
  Q 99.48 67.74 92.02 66.15
  Q 90.53 65.84 90.00 66.74
  A 0.46 0.40 23.7 0 0 90.29 67.35
  Q 92.42 68.05 94.60 67.99
  Q 98.04 67.89 98.90 67.95
  Z
  M 120.06 67.44
  Q 118.90 66.12 117.03 66.65
  A 0.97 0.90 -88.8 0 0 116.41 67.29
  Q 115.41 70.57 118.14 69.31
  Q 118.72 69.04 119.44 68.98
  Q 121.28 68.81 120.06 67.44
  Z
  M 107.80 70.58
  Q 109.72 70.54 112.75 70.00
  Q 114.32 69.72 114.29 68.80
  A 0.52 0.43 -6.1 0 0 113.69 68.40
  Q 99.79 70.82 85.93 68.28
  A 0.53 0.48 10.0 0 0 85.32 68.67
  Q 85.05 70.34 87.25 70.50
  Q 97.46 71.23 104.70 70.64
  Q 104.80 70.64 107.80 70.58
  Z
  M 118.00 71.29
  L 116.00 71.71
  L 107.50 72.54
  L 106.00 73.04
  L 92.25 73.04
  L 83.50 71.79
  Q 82.84 71.81 82.25 71.54
  Q 81.21 70.97 80.07 70.85
  A 0.43 0.41 -89.6 0 0 79.61 71.32
  Q 80.19 76.67 82.01 81.75
  Q 83.63 86.24 83.79 92.57
  A 1.39 1.37 9.8 0 0 84.69 93.83
  Q 88.34 95.21 92.35 95.48
  Q 93.72 95.58 100.14 95.61
  Q 107.11 95.65 114.02 94.50
  Q 116.34 94.11 116.04 91.78
  Q 115.50 87.55 117.37 82.45
  Q 119.33 77.13 120.09 70.76
  Q 120.17 70.09 119.58 70.42
  L 118.00 71.29
  Z"
/>
<path fill="#f2b3b3" d="
  M 112.00 54.71
  Q 111.78 50.68 108.00 49.21
  Q 107.81 46.75 109.42 44.87
  A 0.48 0.45 -52.6 0 0 109.35 44.19
  Q 108.73 43.76 107.31 42.94
  Q 106.17 42.28 107.08 41.29
  Q 107.23 41.12 107.61 40.94
  Q 108.17 40.66 107.95 40.36
  A 0.50 0.37 -45.4 0 0 107.26 40.47
  Q 106.23 41.73 105.25 40.71
  A 1.62 0.99 -79.6 0 1 104.91 39.82
  Q 104.61 36.76 101.56 37.11
  A 0.66 0.66 -15.8 0 1 100.88 36.73
  Q 100.07 34.89 98.95 36.52
  A 0.68 0.50 -57.9 0 1 98.22 36.81
  Q 97.10 36.25 98.80 33.41
  A 0.97 0.95 -83.2 0 1 99.35 32.97
  Q 100.87 32.50 101.25 34.25
  Q 101.55 35.64 103.75 36.00
  Q 104.11 37.47 105.61 36.69
  Q 106.25 36.36 105.55 36.26
  L 103.75 36.00
  Q 104.43 31.07 109.19 30.82
  A 0.68 0.67 -10.3 0 1 109.86 31.28
  Q 110.66 33.66 108.18 32.21
  A 0.64 0.63 -66.0 0 0 107.25 32.57
  Q 105.53 38.17 109.71 40.24
  Q 109.72 40.24 112.37 40.97
  Q 114.71 41.60 115.75 44.00
  Q 117.40 48.35 113.92 50.73
  A 0.66 0.61 -39.4 0 1 113.11 50.68
  Q 112.09 49.66 113.06 48.36
  Q 113.23 48.14 112.97 48.24
  Q 110.20 49.37 109.75 48.10
  Q 109.61 47.69 109.52 47.55
  Q 108.66 46.31 108.78 47.87
  Q 108.81 48.20 108.99 48.45
  Q 109.92 49.76 111.45 50.20
  A 1.61 1.56 76.9 0 1 112.24 50.71
  Q 113.71 52.45 115.31 50.31
  Q 117.83 46.96 115.75 44.00
  Q 115.70 43.14 116.55 42.62
  Q 117.13 42.26 116.45 42.25
  Q 115.06 42.25 114.56 41.44
  A 1.37 0.72 57.8 0 1 114.44 39.94
  Q 115.72 39.03 114.79 38.68
  A 0.70 0.53 -62.7 0 0 114.08 39.02
  Q 113.47 40.03 112.25 40.25
  Q 111.20 40.44 109.31 38.94
  Q 106.40 36.62 109.07 34.26
  Q 109.33 34.04 109.62 34.02
  Q 110.22 33.99 110.16 34.48
  Q 110.13 34.71 109.82 35.06
  Q 108.98 35.99 109.28 37.21
  Q 109.40 37.68 109.56 37.20
  Q 109.79 36.48 110.34 36.02
  A 0.78 0.63 39.4 0 1 111.16 36.03
  Q 112.94 37.13 115.03 36.63
  A 0.78 0.75 89.0 0 0 115.61 36.01
  Q 116.30 32.54 112.75 31.00
  Q 108.72 29.25 105.37 30.91
  Q 104.52 31.33 104.06 31.39
  Q 102.39 31.60 103.00 30.04
  Q 109.86 28.67 111.50 22.50
  Q 114.08 12.76 106.41 8.53
  Q 103.56 6.96 100.36 6.82
  Q 96.94 6.67 94.00 8.00
  Q 88.15 10.65 87.72 17.50
  Q 87.11 27.30 96.29 30.00
  Q 96.09 32.11 94.78 31.28
  Q 93.89 30.72 93.45 30.62
  Q 88.16 29.38 83.50 32.70
  Q 84.99 27.65 84.75 25.00
  Q 84.23 19.24 84.50 17.00
  Q 85.78 6.38 96.50 5.00
  Q 101.85 4.31 106.54 5.77
  Q 112.93 7.77 114.75 14.25
  Q 115.23 15.95 115.00 22.00
  Q 114.87 25.43 115.09 27.83
  Q 115.27 29.79 116.77 33.32
  Q 120.05 40.97 120.70 49.33
  Q 120.71 49.44 120.88 50.66
  Q 121.18 52.96 119.35 53.44
  Q 117.06 54.04 116.89 54.11
  Q 114.57 55.01 112.00 54.71
  Z
  M 113.46 45.21
  Q 113.57 45.78 113.37 46.42
  Q 113.24 46.84 113.25 47.09
  Q 113.30 48.30 114.01 47.43
  Q 114.19 47.21 114.27 46.89
  Q 115.16 43.37 112.08 44.23
  A 0.71 0.71 81.1 0 1 111.19 43.58
  Q 111.10 41.67 110.38 43.23
  A 1.16 0.99 -48.7 0 0 110.37 44.15
  Q 111.02 45.52 112.52 44.74
  A 0.66 0.65 71.1 0 1 113.46 45.21
  Z"
/>
<path fill="#141716" d="
  M 103.00 30.04
  L 96.29 30.00
  Q 87.11 27.30 87.72 17.50
  Q 88.15 10.65 94.00 8.00
  Q 96.94 6.67 100.36 6.82
  Q 103.56 6.96 106.41 8.53
  Q 114.08 12.76 111.50 22.50
  Q 109.86 28.67 103.00 30.04
  Z
  M 98.87 10.86
  Q 99.74 9.78 100.20 8.63
  A 0.46 0.45 11.7 0 0 99.79 8.01
  Q 94.08 7.83 90.56 11.81
  Q 89.82 12.66 89.81 14.93
  A 0.47 0.46 88.4 0 0 90.31 15.41
  Q 95.57 14.97 98.87 10.86
  Z
  M 107.25 15.29
  Q 108.22 16.26 109.45 15.72
  Q 111.33 14.89 109.79 13.50
  Q 107.93 8.95 102.13 8.13
  A 0.78 0.76 11.9 0 0 101.27 8.68
  Q 100.82 10.28 101.83 11.29
  Q 102.62 12.08 102.71 12.19
  Q 104.53 14.37 107.25 15.29
  Z
  M 105.81 15.94
  Q 103.51 14.92 100.57 11.39
  A 0.45 0.44 47.1 0 0 99.91 11.36
  Q 95.49 15.93 89.18 17.10
  A 0.65 0.62 -3.6 0 0 88.65 17.68
  Q 88.06 27.96 98.25 29.04
  Q 110.30 30.32 111.00 18.48
  A 1.04 1.04 8.3 0 0 110.20 17.41
  Q 107.99 16.90 105.81 15.94
  Z"
/>
<path fill="#edecea" d="
  M 98.87 10.86
  Q 95.57 14.97 90.31 15.41
  A 0.47 0.46 88.4 0 1 89.81 14.93
  Q 89.82 12.66 90.56 11.81
  Q 94.08 7.83 99.79 8.01
  A 0.46 0.45 11.7 0 1 100.20 8.63
  Q 99.74 9.78 98.87 10.86
  Z"
/>
<path fill="#edecea" d="
  M 109.79 13.50
  Q 108.71 14.67 107.25 15.29
  Q 104.53 14.37 102.71 12.19
  Q 102.62 12.08 101.83 11.29
  Q 100.82 10.28 101.27 8.68
  A 0.78 0.76 11.9 0 1 102.13 8.13
  Q 107.93 8.95 109.79 13.50
  Z"
/>
<path fill="#edecea" d="
  M 105.81 15.94
  Q 107.99 16.90 110.20 17.41
  A 1.04 1.04 8.3 0 1 111.00 18.48
  Q 110.30 30.32 98.25 29.04
  Q 88.06 27.96 88.65 17.68
  A 0.65 0.62 -3.6 0 1 89.18 17.10
  Q 95.49 15.93 99.91 11.36
  A 0.45 0.44 47.1 0 1 100.57 11.39
  Q 103.51 14.92 105.81 15.94
  Z
  M 96.00 17.04
  Q 93.68 16.67 92.75 18.71
  Q 89.55 21.01 93.43 21.87
  Q 90.47 26.61 95.43 26.92
  A 0.93 0.85 17.0 0 0 96.23 26.54
  Q 97.37 24.77 96.27 22.91
  A 0.69 0.58 53.7 0 1 96.32 22.12
  Q 97.07 21.40 98.21 21.58
  Q 98.50 21.62 98.25 21.46
  Q 97.57 21.03 97.46 20.25
  Q 97.97 18.96 96.96 18.00
  Q 98.28 14.89 96.00 17.04
  Z
  M 104.20 18.25
  Q 104.43 18.82 103.97 19.08
  A 0.57 0.46 61.0 0 1 103.27 18.80
  Q 102.25 16.86 102.19 18.82
  A 1.45 1.42 -62.3 0 0 102.46 19.72
  Q 104.52 22.55 106.29 18.36
  A 0.73 0.72 18.7 0 0 105.80 17.38
  L 102.84 16.64
  Q 102.24 16.48 102.68 16.93
  Q 103.00 17.26 103.50 17.57
  Q 104.05 17.90 104.20 18.25
  Z
  M 107.42 20.12
  Q 107.38 22.52 108.16 20.26
  Q 108.26 19.98 108.23 19.72
  Q 108.14 18.92 107.71 19.35
  A 1.20 0.85 75.5 0 0 107.42 20.12
  Z
  M 104.19 26.89
  Q 106.35 27.12 107.01 25.31
  Q 107.40 24.24 106.88 23.22
  Q 106.14 21.79 104.62 22.29
  Q 103.41 22.69 103.04 23.89
  Q 102.64 25.19 103.39 26.40
  A 1.11 1.05 -11.7 0 0 104.19 26.89
  Z
  M 99.32 26.03
  Q 99.99 28.03 101.07 24.42
  A 0.53 0.53 5.1 0 0 100.50 23.74
  Q 97.44 24.08 98.79 25.26
  A 2.03 1.61 17.0 0 1 99.32 26.03
  Z"
/>
<path fill="#8b8c89" fill-opacity="0.992" d="
  M 21.50 13.04
  Q 22.07 14.14 19.29 13.84
  A 1.00 0.85 4.2 0 0 18.19 14.64
  L 18.03 18.88
  Q 17.94 21.08 16.10 21.02
  L 9.19 20.80
  A 1.12 1.06 0.0 0 0 8.04 21.89
  L 8.33 32.96
  A 1.98 1.96 -69.2 0 0 8.94 34.34
  Q 20.13 44.84 30.20 55.76
  Q 31.06 56.69 31.23 57.60
  Q 31.69 60.00 28.75 58.96
  L 28.75 58.79
  Q 31.35 58.40 29.49 56.51
  Q 18.56 45.44 7.86 34.73
  A 2.93 2.89 -67.9 0 1 7.00 32.66
  L 7.00 22.27
  Q 7.00 20.25 9.02 20.25
  L 16.45 20.25
  A 0.76 0.76 -9.4 0 0 17.17 19.25
  Q 15.91 15.60 18.42 13.44
  Q 18.57 13.32 19.40 12.40
  Q 20.31 11.41 21.50 13.04
  Z"
/>
<path fill="#b2b6b1" d="
  M 29.50 13.04
  Q 29.64 14.50 28.15 14.00
  Q 28.06 13.97 27.18 13.82
  Q 26.62 13.73 26.75 13.04
  Q 27.99 11.27 29.50 13.04
  Z"
/>
<path fill="#b2b6b1" d="
  M 37.75 13.04
  Q 37.60 14.40 36.00 14.00
  Q 34.74 13.69 33.92 13.25
  A 0.87 0.82 -45.4 0 0 33.09 13.28
  Q 31.56 14.19 30.00 12.96
  Q 30.57 11.95 31.58 12.48
  A 0.92 0.89 44.7 0 0 32.41 12.49
  Q 33.32 12.02 34.19 12.62
  A 0.62 0.62 -45.4 0 0 34.93 12.61
  Q 36.24 11.64 37.75 13.04
  Z"
/>
<path fill="#8b8c89" fill-opacity="0.992" d="
  M 26.04 12.75
  Q 23.92 14.82 21.96 12.75
  Q 24.00 12.01 26.04 12.75
  Z"
/>
<path fill="#b48b8c" d="
  M 45.71 13.25
  Q 44.90 14.67 43.24 13.76
  Q 41.67 12.90 40.25 13.79
  Q 39.04 13.70 38.00 12.96
  Q 38.58 11.87 39.59 12.46
  A 0.82 0.79 -44.7 0 0 40.40 12.45
  Q 41.24 11.96 41.99 12.74
  A 0.65 0.64 -35.9 0 0 42.77 12.86
  Q 44.74 11.79 45.71 13.25
  Z"
/>
<path fill="#a78586" d="
  M 50.50 13.04
  Q 48.18 14.28 45.96 13.00
  Q 46.56 11.86 47.60 12.46
  A 0.90 0.88 -41.7 0 0 48.43 12.50
  Q 49.57 11.96 50.50 13.04
  Z"
/>
<path fill="#d29f9f" d="
  M 53.75 13.29
  Q 53.54 14.28 52.57 14.10
  Q 52.48 14.08 51.53 13.92
  Q 50.77 13.79 50.75 13.04
  Q 52.29 11.37 53.75 13.29
  Z"
/>
<path fill="#d29f9f" d="
  M 61.71 13.25
  Q 61.82 14.13 61.35 14.02
  Q 60.64 13.85 60.46 13.82
  L 57.97 13.42
  Q 57.37 13.33 57.04 13.44
  Q 55.53 13.95 54.00 13.21
  Q 54.27 11.90 55.49 12.35
  A 1.78 1.70 48.6 0 0 56.42 12.43
  Q 57.36 12.24 58.30 12.56
  A 1.30 1.13 -44.2 0 0 59.19 12.51
  Q 60.61 11.90 61.71 13.25
  Z"
/>
<path fill="#d29f9f" d="
  M 68.75 20.29
  Q 68.75 21.01 68.00 21.04
  Q 66.53 19.35 67.00 17.00
  Q 67.79 13.04 65.69 13.06
  Q 64.87 13.07 64.32 13.62
  A 0.70 0.60 -51.6 0 1 63.56 13.77
  L 62.00 12.96
  Q 62.53 11.80 63.59 12.45
  A 0.88 0.85 46.0 0 0 64.43 12.48
  Q 65.24 12.05 65.81 12.44
  Q 68.81 14.45 68.00 18.00
  Q 67.62 19.66 68.75 20.29
  Z"
/>
<path fill="#24292a" d="
  M 21.96 12.75
  Q 23.92 14.82 26.04 12.75
  Q 26.45 12.74 26.75 13.04
  Q 26.62 13.73 27.18 13.82
  Q 28.06 13.97 28.15 14.00
  Q 29.64 14.50 29.50 13.04
  L 30.00 12.96
  Q 31.56 14.19 33.09 13.28
  A 0.87 0.82 -45.4 0 1 33.92 13.25
  Q 34.74 13.69 36.00 14.00
  Q 37.60 14.40 37.75 13.04
  L 38.00 12.96
  Q 39.04 13.70 40.25 13.79
  Q 40.01 15.12 39.00 15.96
  L 19.88 16.00
  A 0.63 0.62 0.0 0 0 19.25 16.62
  L 19.25 30.24
  A 0.52 0.51 0.0 0 0 19.77 30.75
  L 27.50 30.79
  Q 26.83 31.18 26.75 31.96
  Q 25.52 31.71 26.25 32.96
  L 25.75 33.79
  L 25.18 33.51
  A 1.04 0.63 -87.6 0 1 24.76 32.75
  Q 24.68 32.11 24.06 32.04
  A 0.67 0.65 10.9 0 0 23.35 32.51
  Q 23.14 33.24 24.00 33.71
  Q 22.09 36.04 21.63 32.75
  Q 17.80 33.27 18.07 27.90
  A 1.85 1.84 9.3 0 0 16.73 26.04
  Q 10.06 24.10 11.91 29.92
  Q 12.54 31.91 14.48 33.96
  Q 25.04 45.13 36.49 55.51
  Q 35.19 58.98 38.50 58.76
  Q 39.85 75.04 39.00 91.51
  Q 35.73 92.37 31.85 91.91
  Q 31.09 91.82 29.68 92.03
  Q 27.63 92.34 27.85 90.11
  Q 28.02 88.47 28.02 88.37
  Q 28.29 74.09 28.31 59.82
  Q 28.31 59.53 28.43 59.34
  Q 28.56 59.13 28.75 58.96
  Q 31.69 60.00 31.23 57.60
  Q 31.06 56.69 30.20 55.76
  Q 20.13 44.84 8.94 34.34
  A 1.98 1.96 -69.2 0 1 8.33 32.96
  L 8.04 21.89
  A 1.12 1.06 0.0 0 1 9.19 20.80
  L 16.10 21.02
  Q 17.94 21.08 18.03 18.88
  L 18.19 14.64
  A 1.00 0.85 4.2 0 1 19.29 13.84
  Q 22.07 14.14 21.50 13.04
  L 21.96 12.75
  Z
  M 11.54 24.22
  Q 13.87 23.79 16.25 23.94
  Q 17.67 24.03 17.45 23.20
  A 0.74 0.68 -6.1 0 0 16.76 22.69
  L 9.94 22.56
  A 1.00 0.92 -89.4 0 0 9.00 23.56
  L 9.00 31.46
  A 3.41 3.34 -67.8 0 0 9.97 33.84
  L 31.79 55.66
  A 2.61 2.57 25.9 0 1 32.55 57.79
  Q 32.36 59.50 33.35 59.25
  A 0.90 0.75 -89.4 0 0 33.92 58.58
  Q 34.17 57.30 33.98 56.04
  Q 33.81 54.93 32.79 53.93
  Q 22.13 43.34 11.61 32.61
  A 1.43 0.96 29.7 0 1 11.19 31.76
  L 11.03 24.81
  A 0.63 0.58 -6.4 0 1 11.54 24.22
  Z
  M 32.25 90.71
  L 36.85 90.74
  A 0.64 0.63 90.0 0 0 37.49 90.09
  L 37.32 61.44
  A 0.53 0.52 -89.4 0 0 36.81 60.91
  L 32.01 60.75
  Q 29.18 60.29 29.19 61.81
  Q 29.25 76.00 29.31 90.18
  A 0.55 0.51 90.0 0 0 29.82 90.73
  L 32.25 90.71
  Z"
/>
<path fill="#b91919" d="
  M 45.96 13.00
  Q 48.18 14.28 50.50 13.04
  L 50.75 13.04
  Q 50.77 13.79 51.53 13.92
  Q 52.48 14.08 52.57 14.10
  Q 53.54 14.28 53.75 13.29
  L 54.00 13.21
  Q 55.53 13.95 57.04 13.44
  Q 57.37 13.33 57.97 13.42
  L 60.46 13.82
  Q 60.64 13.85 61.35 14.02
  Q 61.82 14.13 61.71 13.25
  Q 61.77 13.02 62.00 12.96
  L 63.56 13.77
  A 0.70 0.60 -51.6 0 0 64.32 13.62
  Q 64.87 13.07 65.69 13.06
  Q 67.79 13.04 67.00 17.00
  Q 66.53 19.35 68.00 21.04
  Q 67.86 21.84 68.25 22.46
  Q 67.36 22.91 67.79 24.00
  L 67.75 25.96
  L 66.44 33.28
  Q 65.74 35.79 64.46 33.75
  Q 64.92 33.22 64.72 32.73
  A 0.81 0.66 -11.0 0 0 63.95 32.32
  Q 62.45 32.43 64.00 33.71
  Q 62.03 35.75 61.68 33.01
  Q 60.53 32.19 58.68 32.11
  Q 57.70 32.07 58.29 33.00
  Q 57.56 35.91 56.50 33.54
  Q 57.31 32.28 55.99 32.05
  A 0.82 0.62 16.1 0 0 55.17 32.36
  Q 54.93 32.85 55.54 33.50
  Q 54.27 36.22 53.71 33.00
  Q 53.93 31.80 52.28 32.60
  A 0.87 0.85 -38.7 0 1 51.37 32.51
  Q 49.63 31.16 50.29 33.00
  Q 50.12 33.89 49.45 34.30
  A 0.60 0.49 56.5 0 1 48.74 34.08
  Q 47.96 32.97 47.20 34.01
  A 0.91 0.58 -60.4 0 1 46.43 34.42
  Q 45.72 34.23 45.71 33.00
  Q 45.72 31.20 44.66 32.33
  A 0.92 0.92 35.6 0 1 43.56 32.51
  Q 41.47 31.40 42.29 33.00
  Q 41.18 35.67 40.61 33.60
  Q 40.06 30.28 39.54 33.50
  Q 38.39 35.88 37.68 32.99
  Q 36.52 32.21 34.69 32.04
  Q 33.46 31.93 34.29 33.00
  Q 33.31 35.49 32.77 33.81
  Q 31.82 30.20 31.75 33.46
  Q 30.12 36.08 29.71 33.00
  Q 29.57 31.41 28.75 32.30
  A 0.97 0.70 -57.4 0 1 27.94 32.62
  Q 27.27 32.46 26.75 31.96
  Q 26.83 31.18 27.50 30.79
  L 28.32 30.78
  L 65.09 30.75
  A 0.61 0.59 -0.0 0 0 65.70 30.16
  L 65.59 16.69
  A 0.55 0.53 0.0 0 0 65.05 16.17
  L 39.50 16.04
  L 39.00 15.96
  Q 40.01 15.12 40.25 13.79
  Q 41.67 12.90 43.24 13.76
  Q 44.90 14.67 45.71 13.25
  Q 45.75 13.04 45.96 13.00
  Z"
/>
<path fill="#727976" fill-opacity="0.992" d="
  M 109.79 13.50
  Q 111.33 14.89 109.45 15.72
  Q 108.22 16.26 107.25 15.29
  Q 108.71 14.67 109.79 13.50
  Z"
/>
<path fill="#d3d7d0" d="
  M 39.00 15.96
  L 39.50 16.04
  Q 38.46 18.04 35.31 21.06
  Q 32.74 23.53 28.32 30.78
  L 27.50 30.79
  L 19.77 30.75
  A 0.52 0.51 -0.0 0 1 19.25 30.24
  L 19.25 16.62
  A 0.63 0.62 -0.0 0 1 19.88 16.00
  L 39.00 15.96
  Z"
/>
<path fill="#f3b7bd" d="
  M 39.50 16.04
  L 65.05 16.17
  A 0.55 0.53 0.0 0 1 65.59 16.69
  L 65.70 30.16
  A 0.61 0.59 0.0 0 1 65.09 30.75
  L 28.32 30.78
  Q 32.74 23.53 35.31 21.06
  Q 38.46 18.04 39.50 16.04
  Z"
/>
<path fill="#8b8c89" fill-opacity="0.992" d="
  M 96.96 18.00
  Q 96.60 17.40 96.00 17.04
  Q 98.28 14.89 96.96 18.00
  Z"
/>
<path fill="#141716" d="
  M 103.50 17.57
  Q 103.00 17.26 102.68 16.93
  Q 102.24 16.48 102.84 16.64
  L 105.80 17.38
  A 0.73 0.72 18.7 0 1 106.29 18.36
  Q 104.52 22.55 102.46 19.72
  A 1.45 1.42 -62.3 0 1 102.19 18.82
  Q 102.25 16.86 103.27 18.80
  A 0.57 0.46 61.0 0 0 103.97 19.08
  Q 104.43 18.82 104.20 18.25
  Q 104.05 17.90 103.50 17.57
  Z"
/>
<path fill="#141716" d="
  M 96.00 17.04
  Q 96.60 17.40 96.96 18.00
  Q 97.97 18.96 97.46 20.25
  Q 94.55 22.18 93.71 19.25
  Q 93.36 18.76 92.75 18.71
  Q 93.68 16.67 96.00 17.04
  Z
  M 94.72 18.03
  Q 92.96 18.55 95.00 18.87
  A 0.67 0.51 13.7 0 0 95.69 18.57
  Q 95.81 18.23 95.41 18.05
  Q 95.12 17.92 94.72 18.03
  Z"
/>
<path fill="#b2b6b1" d="
  M 95.41 18.05
  Q 95.81 18.23 95.69 18.57
  A 0.67 0.51 13.7 0 1 95.00 18.87
  Q 92.96 18.55 94.72 18.03
  Q 95.12 17.92 95.41 18.05
  Z"
/>
<path fill="#727976" fill-opacity="0.992" d="
  M 92.75 18.71
  Q 93.36 18.76 93.71 19.25
  Q 92.26 19.34 92.74 20.64
  A 1.21 0.77 8.6 0 0 93.38 21.20
  Q 94.08 21.48 93.43 21.87
  Q 89.55 21.01 92.75 18.71
  Z"
/>
<path fill="#b2b6b1" d="
  M 93.71 19.25
  Q 94.55 22.18 97.46 20.25
  Q 97.57 21.03 98.25 21.46
  Q 98.50 21.62 98.21 21.58
  Q 97.07 21.40 96.32 22.12
  A 0.69 0.58 53.7 0 0 96.27 22.91
  Q 97.37 24.77 96.23 26.54
  A 0.93 0.85 17.0 0 1 95.43 26.92
  Q 90.47 26.61 93.43 21.87
  Q 94.08 21.48 93.38 21.20
  A 1.21 0.77 8.6 0 1 92.74 20.64
  Q 92.26 19.34 93.71 19.25
  Z"
/>
<path fill="#5d5d5b" d="
  M 107.71 19.35
  Q 108.14 18.92 108.23 19.72
  Q 108.26 19.98 108.16 20.26
  Q 107.38 22.52 107.42 20.12
  A 1.20 0.85 75.5 0 1 107.71 19.35
  Z"
/>
<path fill="#313537" d="
  M 68.75 20.29
  Q 70.56 19.84 71.25 21.50
  Q 72.30 24.04 71.19 25.44
  Q 70.04 26.87 68.25 26.04
  L 67.75 25.96
  L 67.79 24.00
  Q 70.01 23.78 68.25 22.46
  Q 67.86 21.84 68.00 21.04
  Q 68.75 21.01 68.75 20.29
  Z"
/>
<path fill="#b2b6b1" d="
  M 103.39 26.40
  Q 102.64 25.19 103.04 23.89
  Q 103.41 22.69 104.62 22.29
  Q 106.14 21.79 106.88 23.22
  Q 107.40 24.24 107.01 25.31
  Q 106.35 27.12 104.19 26.89
  A 1.11 1.05 -11.7 0 1 103.39 26.40
  Z"
/>
<path fill="#d3d7d0" d="
  M 11.03 24.81
  L 11.19 31.76
  A 1.43 0.96 29.7 0 0 11.61 32.61
  Q 22.13 43.34 32.79 53.93
  Q 33.81 54.93 33.98 56.04
  Q 34.17 57.30 33.92 58.58
  A 0.90 0.75 -89.4 0 1 33.35 59.25
  Q 32.36 59.50 32.55 57.79
  A 2.61 2.57 25.9 0 0 31.79 55.66
  L 9.97 33.84
  A 3.41 3.34 -67.8 0 1 9.00 31.46
  L 9.00 23.56
  A 1.00 0.92 -89.4 0 1 9.94 22.56
  L 16.76 22.69
  A 0.74 0.68 -6.1 0 1 17.45 23.20
  Q 17.67 24.03 16.25 23.94
  Q 13.87 23.79 11.54 24.22
  A 0.63 0.58 -6.4 0 0 11.03 24.81
  Z"
/>
<path fill="#edecea" d="
  M 68.25 22.46
  Q 70.01 23.78 67.79 24.00
  Q 67.36 22.91 68.25 22.46
  Z"
/>
<path fill="#313537" d="
  M 98.79 25.26
  Q 97.44 24.08 100.50 23.74
  A 0.53 0.53 5.1 0 1 101.07 24.42
  Q 99.99 28.03 99.32 26.03
  A 2.03 1.61 17.0 0 0 98.79 25.26
  Z"
/>
<path fill="#8b8c89" fill-opacity="0.992" d="
  M 21.63 32.75
  Q 19.95 36.04 18.98 33.66
  A 1.16 1.10 0.6 0 0 18.34 33.04
  Q 16.36 32.28 16.90 29.73
  Q 17.88 25.13 13.73 26.35
  A 0.84 0.82 -2.5 0 0 13.14 26.98
  Q 12.83 28.48 13.02 29.98
  Q 13.18 31.30 14.37 32.48
  Q 25.77 43.66 36.49 55.51
  Q 25.04 45.13 14.48 33.96
  Q 12.54 31.91 11.91 29.92
  Q 10.06 24.10 16.73 26.04
  A 1.85 1.84 9.3 0 1 18.07 27.90
  Q 17.80 33.27 21.63 32.75
  Z"
/>
<path fill="#d29f9f" d="
  M 67.75 25.96
  L 68.25 26.04
  Q 67.85 28.38 68.04 30.75
  Q 68.19 32.56 66.44 33.28
  L 67.75 25.96
  Z"
/>
<path fill="#b48b8c" d="
  M 96.29 30.00
  L 103.00 30.04
  Q 102.39 31.60 104.06 31.39
  Q 104.52 31.33 105.37 30.91
  Q 108.72 29.25 112.75 31.00
  Q 116.30 32.54 115.61 36.01
  A 0.78 0.75 89.0 0 1 115.03 36.63
  Q 112.94 37.13 111.16 36.03
  A 0.78 0.63 39.4 0 0 110.34 36.02
  Q 109.79 36.48 109.56 37.20
  Q 109.40 37.68 109.28 37.21
  Q 108.98 35.99 109.82 35.06
  Q 110.13 34.71 110.16 34.48
  Q 110.22 33.99 109.62 34.02
  Q 109.33 34.04 109.07 34.26
  Q 106.40 36.62 109.31 38.94
  Q 111.20 40.44 112.25 40.25
  Q 113.47 40.03 114.08 39.02
  A 0.70 0.53 -62.7 0 1 114.79 38.68
  Q 115.72 39.03 114.44 39.94
  A 1.37 0.72 57.8 0 0 114.56 41.44
  Q 115.06 42.25 116.45 42.25
  Q 117.13 42.26 116.55 42.62
  Q 115.70 43.14 115.75 44.00
  Q 114.71 41.60 112.37 40.97
  Q 109.72 40.24 109.71 40.24
  Q 105.53 38.17 107.25 32.57
  A 0.64 0.63 -66.0 0 1 108.18 32.21
  Q 110.66 33.66 109.86 31.28
  A 0.68 0.67 -10.3 0 0 109.19 30.82
  Q 104.43 31.07 103.75 36.00
  Q 101.55 35.64 101.25 34.25
  Q 100.87 32.50 99.35 32.97
  A 0.97 0.95 -83.2 0 0 98.80 33.41
  Q 97.10 36.25 98.22 36.81
  A 0.68 0.50 -57.9 0 0 98.95 36.52
  Q 100.07 34.89 100.88 36.73
  A 0.66 0.66 -15.8 0 0 101.56 37.11
  Q 104.61 36.76 104.91 39.82
  A 1.62 0.99 -79.6 0 0 105.25 40.71
  Q 106.23 41.73 107.26 40.47
  A 0.50 0.37 -45.4 0 1 107.95 40.36
  Q 108.17 40.66 107.61 40.94
  Q 107.23 41.12 107.08 41.29
  Q 106.17 42.28 107.31 42.94
  Q 108.73 43.76 109.35 44.19
  A 0.48 0.45 -52.6 0 1 109.42 44.87
  Q 107.81 46.75 108.00 49.21
  Q 106.57 51.92 104.09 53.54
  Q 104.03 53.58 102.69 54.10
  Q 101.70 54.49 101.50 55.71
  Q 94.04 56.10 86.85 55.50
  Q 87.81 51.74 90.98 49.86
  A 1.55 1.55 -27.5 0 1 93.18 50.55
  Q 94.32 53.07 95.72 51.17
  A 1.06 1.00 -35.9 0 0 95.89 50.27
  Q 95.33 48.45 93.16 48.78
  Q 91.64 49.02 92.15 48.35
  A 0.77 0.58 27.2 0 1 92.95 48.21
  Q 95.12 49.04 95.30 45.42
  Q 95.36 44.37 94.44 44.88
  Q 93.36 45.48 92.60 46.63
  Q 91.82 47.80 91.96 46.95
  Q 91.99 46.76 92.13 46.58
  Q 93.14 45.19 94.05 43.73
  A 0.55 0.50 -58.0 0 1 94.76 43.53
  Q 96.48 44.57 96.53 48.47
  Q 96.53 48.63 96.60 48.76
  Q 97.36 50.08 98.00 49.19
  A 0.30 0.28 -43.4 0 1 98.48 49.19
  Q 99.47 50.81 101.47 50.22
  A 0.61 0.56 -20.0 0 1 102.18 50.51
  Q 102.89 52.00 100.22 50.72
  Q 99.15 50.20 99.33 51.38
  Q 99.91 55.10 102.24 53.71
  Q 102.87 53.33 103.46 53.10
  Q 105.13 52.46 103.74 51.46
  A 0.96 0.89 20.4 0 1 103.35 50.68
  Q 103.45 48.11 102.40 45.77
  A 1.01 0.63 73.8 0 0 101.72 45.16
  L 100.78 45.11
  Q 99.87 45.05 99.86 45.05
  Q 99.38 44.96 99.37 45.28
  A 0.67 0.46 3.5 0 0 99.99 45.77
  Q 102.93 45.97 101.73 48.55
  A 0.45 0.40 -58.4 0 1 101.08 48.75
  Q 100.56 48.31 100.77 47.53
  A 0.47 0.46 -75.8 0 0 100.44 46.96
  Q 97.86 46.35 96.97 43.91
  A 1.41 1.27 -88.2 0 0 96.38 43.21
  L 94.68 42.26
  A 0.50 0.49 30.6 0 0 94.01 42.43
  Q 93.37 43.48 93.12 42.32
  Q 93.02 41.83 92.89 41.58
  Q 91.74 39.47 89.36 40.54
  A 1.15 1.15 75.0 0 0 88.69 41.70
  Q 89.05 45.19 91.27 43.59
  Q 92.18 42.94 91.50 43.82
  Q 90.36 45.29 90.82 46.79
  A 1.21 1.18 -41.1 0 1 90.75 47.67
  L 89.86 49.48
  A 0.55 0.54 19.7 0 1 89.22 49.77
  Q 87.74 49.40 86.69 51.08
  A 1.20 1.20 -45.2 0 1 84.66 51.09
  Q 83.56 49.37 81.84 49.61
  Q 81.29 49.68 81.06 49.55
  Q 80.61 49.31 80.65 48.74
  A 0.79 0.52 -81.1 0 0 80.31 48.00
  Q 79.67 47.77 79.29 48.50
  Q 78.96 43.11 81.06 38.13
  Q 82.31 35.19 83.50 32.70
  Q 88.16 29.38 93.45 30.62
  Q 93.89 30.72 94.78 31.28
  Q 96.09 32.11 96.29 30.00
  Z
  M 93.02 31.44
  Q 92.89 30.91 92.35 30.79
  Q 91.76 30.65 91.68 30.62
  Q 89.21 29.70 89.91 32.21
  A 1.30 0.80 15.0 0 0 90.53 32.87
  Q 91.41 33.33 92.31 34.69
  Q 93.27 36.13 95.37 36.28
  A 0.49 0.49 -85.0 0 1 95.83 36.83
  Q 95.55 39.22 96.75 38.83
  A 0.96 0.96 -27.1 0 0 97.23 37.35
  Q 95.36 34.77 95.24 33.25
  A 1.52 0.47 -87.9 0 0 94.99 32.32
  Q 94.44 31.58 93.53 31.78
  A 0.46 0.42 76.4 0 1 93.02 31.44
  Z
  M 88.27 32.08
  Q 88.72 34.12 88.97 32.01
  Q 89.00 31.73 88.91 31.52
  Q 88.65 30.97 88.38 31.32
  A 1.01 0.67 64.7 0 0 88.27 32.08
  Z
  M 90.81 36.85
  Q 89.83 36.06 88.77 36.01
  Q 88.16 35.99 87.59 36.20
  Q 82.20 38.26 82.93 41.71
  A 0.57 0.55 -10.1 0 0 83.56 42.13
  Q 87.37 41.64 84.86 39.32
  A 0.83 0.60 36.0 0 1 84.60 38.52
  Q 84.78 38.07 85.28 38.44
  Q 85.49 38.60 85.74 39.02
  Q 86.91 40.97 88.62 39.59
  A 1.46 1.31 23.1 0 1 89.50 39.29
  Q 89.79 39.29 90.07 39.23
  Q 90.53 39.12 90.91 38.68
  Q 93.79 35.35 89.71 33.45
  A 0.76 0.75 35.6 0 0 88.87 33.58
  L 87.31 35.06
  Q 86.78 35.57 87.52 35.45
  Q 90.20 35.00 91.01 36.71
  Q 91.24 37.20 90.81 36.85
  Z
  M 112.76 35.27
  Q 112.23 34.36 111.55 34.14
  A 0.42 0.38 -83.0 0 0 111.05 34.57
  Q 111.12 35.90 112.37 35.93
  Q 113.15 35.95 112.76 35.27
  Z
  M 91.74 38.90
  Q 90.91 39.40 91.86 39.96
  Q 92.24 40.19 92.59 40.60
  Q 93.07 41.18 93.71 41.09
  A 0.96 0.66 -81.2 0 0 94.31 40.45
  L 95.07 37.98
  A 0.82 0.70 -63.3 0 0 94.87 37.16
  Q 92.85 35.54 92.28 38.20
  A 1.20 1.01 -12.2 0 1 91.74 38.90
  Z
  M 103.30 39.50
  Q 104.44 37.27 101.95 38.30
  A 0.40 0.39 60.5 0 0 101.79 38.90
  L 102.46 39.84
  A 0.76 0.71 -47.4 0 1 102.47 40.66
  Q 101.43 42.31 103.31 42.14
  A 0.88 0.79 5.5 0 0 104.02 41.62
  Q 104.36 40.65 103.51 40.15
  A 0.52 0.49 29.1 0 1 103.30 39.50
  Z
  M 95.52 39.43
  Q 95.06 38.99 95.06 39.63
  Q 95.06 39.85 95.20 40.02
  A 0.82 0.49 40.1 0 1 95.40 40.61
  Q 95.06 42.16 96.40 42.24
  Q 96.87 42.27 97.90 41.84
  Q 98.96 41.40 100.20 41.30
  A 1.09 1.08 -6.4 0 0 101.19 40.06
  Q 101.00 38.86 100.16 39.02
  A 1.18 0.67 -72.9 0 0 99.49 39.65
  Q 98.30 42.06 95.52 39.43
  Z
  M 87.29 44.00
  A 0.75 0.75 4.4 0 0 88.20 43.22
  Q 88.00 39.86 85.82 41.83
  Q 84.18 43.31 87.29 44.00
  Z
  M 107.74 44.12
  Q 106.66 43.68 106.22 42.66
  Q 105.98 42.10 105.68 41.86
  Q 104.36 40.82 105.01 42.60
  A 1.64 1.09 16.4 0 0 105.61 43.32
  Q 106.91 44.21 107.19 45.83
  Q 107.39 46.97 108.08 46.04
  Q 109.09 44.67 107.74 44.12
  Z
  M 105.69 47.06
  Q 107.78 47.28 106.59 45.87
  Q 106.28 45.50 106.18 45.00
  Q 105.85 43.31 104.56 44.56
  Q 102.35 46.71 105.69 47.06
  Z
  M 88.16 45.15
  Q 86.34 43.94 86.62 46.05
  Q 86.70 46.63 86.76 47.47
  Q 86.92 49.69 88.87 49.04
  A 1.99 1.99 81.4 0 0 90.24 47.18
  Q 90.28 44.04 88.93 45.10
  A 0.69 0.64 -46.3 0 1 88.16 45.15
  Z
  M 104.31 49.92
  Q 104.96 54.08 106.99 49.51
  A 1.23 1.23 20.6 0 0 106.23 47.84
  Q 103.87 47.12 104.31 49.92
  Z
  M 96.93 54.09
  Q 100.08 55.41 98.60 51.89
  A 1.15 1.15 -29.9 0 0 96.85 51.42
  Q 94.61 53.11 96.93 54.09
  Z"
/>
<path fill="#f2b3b3" d="
  M 93.53 31.78
  Q 94.44 31.58 94.99 32.32
  A 1.52 0.47 -87.9 0 1 95.24 33.25
  Q 95.36 34.77 97.23 37.35
  A 0.96 0.96 -27.1 0 1 96.75 38.83
  Q 95.55 39.22 95.83 36.83
  A 0.49 0.49 -85.0 0 0 95.37 36.28
  Q 93.27 36.13 92.31 34.69
  Q 91.41 33.33 90.53 32.87
  A 1.30 0.80 15.0 0 1 89.91 32.21
  Q 89.21 29.70 91.68 30.62
  Q 91.76 30.65 92.35 30.79
  Q 92.89 30.91 93.02 31.44
  A 0.46 0.42 76.4 0 0 93.53 31.78
  Z"
/>
<path fill="#d29f9f" d="
  M 88.38 31.32
  Q 88.65 30.97 88.91 31.52
  Q 89.00 31.73 88.97 32.01
  Q 88.72 34.12 88.27 32.08
  A 1.01 0.67 64.7 0 1 88.38 31.32
  Z"
/>
<path fill="#b48b8c" d="
  M 26.75 31.96
  Q 27.27 32.46 27.94 32.62
  A 0.97 0.70 -57.4 0 0 28.75 32.30
  Q 29.57 31.41 29.71 33.00
  Q 28.09 36.03 26.25 32.96
  Q 25.52 31.71 26.75 31.96
  Z"
/>
<path fill="#8b8c89" fill-opacity="0.992" d="
  M 25.75 33.79
  Q 25.17 35.28 24.00 33.71
  Q 23.14 33.24 23.35 32.51
  A 0.67 0.65 10.9 0 1 24.06 32.04
  Q 24.68 32.11 24.76 32.75
  A 1.04 0.63 -87.6 0 0 25.18 33.51
  L 25.75 33.79
  Z"
/>
<path fill="#a78586" d="
  M 32.77 33.81
  L 31.75 33.46
  Q 31.82 30.20 32.77 33.81
  Z"
/>
<path fill="#b48b8c" d="
  M 37.68 32.99
  Q 35.82 36.05 34.29 33.00
  Q 33.46 31.93 34.69 32.04
  Q 36.52 32.21 37.68 32.99
  Z"
/>
<path fill="#a78586" d="
  M 40.61 33.60
  L 39.54 33.50
  Q 40.06 30.28 40.61 33.60
  Z"
/>
<path fill="#b48b8c" d="
  M 45.71 33.00
  Q 44.04 35.96 42.29 33.00
  Q 41.47 31.40 43.56 32.51
  A 0.92 0.92 35.6 0 0 44.66 32.33
  Q 45.72 31.20 45.71 33.00
  Z"
/>
<path fill="#b48b8c" d="
  M 53.71 33.00
  Q 52.08 36.00 50.29 33.00
  Q 49.63 31.16 51.37 32.51
  A 0.87 0.85 -38.7 0 0 52.28 32.60
  Q 53.93 31.80 53.71 33.00
  Z"
/>
<path fill="#a78586" d="
  M 56.50 33.54
  L 55.54 33.50
  Q 54.93 32.85 55.17 32.36
  A 0.82 0.62 16.1 0 1 55.99 32.05
  Q 57.31 32.28 56.50 33.54
  Z"
/>
<path fill="#b48b8c" d="
  M 61.68 33.01
  Q 59.86 36.32 58.29 33.00
  Q 57.70 32.07 58.68 32.11
  Q 60.53 32.19 61.68 33.01
  Z"
/>
<path fill="#b48b8c" d="
  M 64.46 33.75
  L 64.00 33.71
  Q 62.45 32.43 63.95 32.32
  A 0.81 0.66 -11.0 0 1 64.72 32.73
  Q 64.92 33.22 64.46 33.75
  Z"
/>
<path fill="#f2b3b3" d="
  M 91.01 36.71
  Q 90.20 35.00 87.52 35.45
  Q 86.78 35.57 87.31 35.06
  L 88.87 33.58
  A 0.76 0.75 35.6 0 1 89.71 33.45
  Q 93.79 35.35 90.91 38.68
  Q 90.53 39.12 90.07 39.23
  Q 89.79 39.29 89.50 39.29
  A 1.46 1.31 23.1 0 0 88.62 39.59
  Q 86.91 40.97 85.74 39.02
  Q 85.49 38.60 85.28 38.44
  Q 84.78 38.07 84.60 38.52
  A 0.83 0.60 36.0 0 0 84.86 39.32
  Q 87.37 41.64 83.56 42.13
  A 0.57 0.55 -10.1 0 1 82.93 41.71
  Q 82.20 38.26 87.59 36.20
  Q 88.16 35.99 88.77 36.01
  Q 89.83 36.06 90.81 36.85
  Q 91.24 37.20 91.01 36.71
  Z"
/>
<path fill="#d29f9f" d="
  M 112.76 35.27
  Q 113.15 35.95 112.37 35.93
  Q 111.12 35.90 111.05 34.57
  A 0.42 0.38 -83.0 0 1 111.55 34.14
  Q 112.23 34.36 112.76 35.27
  Z"
/>
<path fill="#a78586" d="
  M 103.75 36.00
  L 105.55 36.26
  Q 106.25 36.36 105.61 36.69
  Q 104.11 37.47 103.75 36.00
  Z"
/>
<path fill="#f2b3b3" d="
  M 92.28 38.20
  Q 92.85 35.54 94.87 37.16
  A 0.82 0.70 -63.3 0 1 95.07 37.98
  L 94.31 40.45
  A 0.96 0.66 -81.2 0 1 93.71 41.09
  Q 93.07 41.18 92.59 40.60
  Q 92.24 40.19 91.86 39.96
  Q 90.91 39.40 91.74 38.90
  A 1.20 1.01 -12.2 0 0 92.28 38.20
  Z"
/>
<path fill="#d29f9f" d="
  M 103.51 40.15
  Q 104.36 40.65 104.02 41.62
  A 0.88 0.79 5.5 0 1 103.31 42.14
  Q 101.43 42.31 102.47 40.66
  A 0.76 0.71 -47.4 0 0 102.46 39.84
  L 101.79 38.90
  A 0.40 0.39 60.5 0 1 101.95 38.30
  Q 104.44 37.27 103.30 39.50
  A 0.52 0.49 29.1 0 0 103.51 40.15
  Z"
/>
<path fill="#d29f9f" d="
  M 95.52 39.43
  Q 98.30 42.06 99.49 39.65
  A 1.18 0.67 -72.9 0 1 100.16 39.02
  Q 101.00 38.86 101.19 40.06
  A 1.09 1.08 -6.4 0 1 100.20 41.30
  Q 98.96 41.40 97.90 41.84
  Q 96.87 42.27 96.40 42.24
  Q 95.06 42.16 95.40 40.61
  A 0.82 0.49 40.1 0 0 95.20 40.02
  Q 95.06 39.85 95.06 39.63
  Q 95.06 38.99 95.52 39.43
  Z"
/>
<path fill="#f2b3b3" d="
  M 86.85 55.50
  Q 82.93 55.11 79.64 53.53
  A 0.85 0.71 15.6 0 1 79.14 52.81
  L 79.29 48.50
  Q 79.67 47.77 80.31 48.00
  A 0.79 0.52 -81.1 0 1 80.65 48.74
  Q 80.61 49.31 81.06 49.55
  Q 81.29 49.68 81.84 49.61
  Q 83.56 49.37 84.66 51.09
  A 1.20 1.20 -45.2 0 0 86.69 51.08
  Q 87.74 49.40 89.22 49.77
  A 0.55 0.54 19.7 0 0 89.86 49.48
  L 90.75 47.67
  A 1.21 1.18 -41.1 0 0 90.82 46.79
  Q 90.36 45.29 91.50 43.82
  Q 92.18 42.94 91.27 43.59
  Q 89.05 45.19 88.69 41.70
  A 1.15 1.15 75.0 0 1 89.36 40.54
  Q 91.74 39.47 92.89 41.58
  Q 93.02 41.83 93.12 42.32
  Q 93.37 43.48 94.01 42.43
  A 0.50 0.49 30.6 0 1 94.68 42.26
  L 96.38 43.21
  A 1.41 1.27 -88.2 0 1 96.97 43.91
  Q 97.86 46.35 100.44 46.96
  A 0.47 0.46 -75.8 0 1 100.77 47.53
  Q 100.56 48.31 101.08 48.75
  A 0.45 0.40 -58.4 0 0 101.73 48.55
  Q 102.93 45.97 99.99 45.77
  A 0.67 0.46 3.5 0 1 99.37 45.28
  Q 99.38 44.96 99.86 45.05
  Q 99.87 45.05 100.78 45.11
  L 101.72 45.16
  A 1.01 0.63 73.8 0 1 102.40 45.77
  Q 103.45 48.11 103.35 50.68
  A 0.96 0.89 20.4 0 0 103.74 51.46
  Q 105.13 52.46 103.46 53.10
  Q 102.87 53.33 102.24 53.71
  Q 99.91 55.10 99.33 51.38
  Q 99.15 50.20 100.22 50.72
  Q 102.89 52.00 102.18 50.51
  A 0.61 0.56 -20.0 0 0 101.47 50.22
  Q 99.47 50.81 98.48 49.19
  A 0.30 0.28 -43.4 0 0 98.00 49.19
  Q 97.36 50.08 96.60 48.76
  Q 96.53 48.63 96.53 48.47
  Q 96.48 44.57 94.76 43.53
  A 0.55 0.50 -58.0 0 0 94.05 43.73
  Q 93.14 45.19 92.13 46.58
  Q 91.99 46.76 91.96 46.95
  Q 91.82 47.80 92.60 46.63
  Q 93.36 45.48 94.44 44.88
  Q 95.36 44.37 95.30 45.42
  Q 95.12 49.04 92.95 48.21
  A 0.77 0.58 27.2 0 0 92.15 48.35
  Q 91.64 49.02 93.16 48.78
  Q 95.33 48.45 95.89 50.27
  A 1.06 1.00 -35.9 0 1 95.72 51.17
  Q 94.32 53.07 93.18 50.55
  A 1.55 1.55 -27.5 0 0 90.98 49.86
  Q 87.81 51.74 86.85 55.50
  Z
  M 80.44 51.73
  Q 80.43 54.34 80.70 52.24
  Q 81.18 48.66 80.51 51.16
  Q 80.44 51.43 80.44 51.73
  Z"
/>
<path fill="#f2b3b3" d="
  M 87.29 44.00
  Q 84.18 43.31 85.82 41.83
  Q 88.00 39.86 88.20 43.22
  A 0.75 0.75 4.4 0 1 87.29 44.00
  Z"
/>
<path fill="#d29f9f" d="
  M 107.74 44.12
  Q 109.09 44.67 108.08 46.04
  Q 107.39 46.97 107.19 45.83
  Q 106.91 44.21 105.61 43.32
  A 1.64 1.09 16.4 0 1 105.01 42.60
  Q 104.36 40.82 105.68 41.86
  Q 105.98 42.10 106.22 42.66
  Q 106.66 43.68 107.74 44.12
  Z"
/>
<path fill="#a78586" d="
  M 113.46 45.21
  A 0.66 0.65 71.1 0 0 112.52 44.74
  Q 111.02 45.52 110.37 44.15
  A 1.16 0.99 -48.7 0 1 110.38 43.23
  Q 111.10 41.67 111.19 43.58
  A 0.71 0.71 81.1 0 0 112.08 44.23
  Q 115.16 43.37 114.27 46.89
  Q 114.19 47.21 114.01 47.43
  Q 113.30 48.30 113.25 47.09
  Q 113.24 46.84 113.37 46.42
  Q 113.57 45.78 113.46 45.21
  Z"
/>
<path fill="#f2b3b3" d="
  M 105.69 47.06
  Q 102.35 46.71 104.56 44.56
  Q 105.85 43.31 106.18 45.00
  Q 106.28 45.50 106.59 45.87
  Q 107.78 47.28 105.69 47.06
  Z"
/>
<path fill="#a78586" d="
  M 115.75 44.00
  Q 117.83 46.96 115.31 50.31
  Q 113.71 52.45 112.24 50.71
  A 1.61 1.56 76.9 0 0 111.45 50.20
  Q 109.92 49.76 108.99 48.45
  Q 108.81 48.20 108.78 47.87
  Q 108.66 46.31 109.52 47.55
  Q 109.61 47.69 109.75 48.10
  Q 110.20 49.37 112.97 48.24
  Q 113.23 48.14 113.06 48.36
  Q 112.09 49.66 113.11 50.68
  A 0.66 0.61 -39.4 0 0 113.92 50.73
  Q 117.40 48.35 115.75 44.00
  Z"
/>
<path fill="#d29f9f" d="
  M 88.93 45.10
  Q 90.28 44.04 90.24 47.18
  A 1.99 1.99 81.4 0 1 88.87 49.04
  Q 86.92 49.69 86.76 47.47
  Q 86.70 46.63 86.62 46.05
  Q 86.34 43.94 88.16 45.15
  A 0.69 0.64 -46.3 0 0 88.93 45.10
  Z"
/>
<path fill="#f2b3b3" d="
  M 104.31 49.92
  Q 103.87 47.12 106.23 47.84
  A 1.23 1.23 20.6 0 1 106.99 49.51
  Q 104.96 54.08 104.31 49.92
  Z"
/>
<path fill="#d29f9f" d="
  M 108.00 49.21
  Q 111.78 50.68 112.00 54.71
  Q 106.83 55.99 101.50 55.71
  Q 101.70 54.49 102.69 54.10
  Q 104.03 53.58 104.09 53.54
  Q 106.57 51.92 108.00 49.21
  Z"
/>
<path fill="#a78586" d="
  M 80.51 51.16
  Q 81.18 48.66 80.70 52.24
  Q 80.43 54.34 80.44 51.73
  Q 80.44 51.43 80.51 51.16
  Z"
/>
<path fill="#f2b3b3" d="
  M 96.93 54.09
  Q 94.61 53.11 96.85 51.42
  A 1.15 1.15 -29.9 0 1 98.60 51.89
  Q 100.08 55.41 96.93 54.09
  Z"
/>
<path fill="#d29f9f" d="
  M 104.73 58.72
  Q 109.38 58.21 114.02 57.68
  Q 114.98 57.57 114.80 57.98
  A 1.00 0.58 -4.6 0 1 114.16 58.42
  Q 108.49 59.91 102.66 59.89
  Q 99.03 59.88 95.85 59.97
  Q 92.43 60.07 89.01 59.68
  Q 87.06 59.45 86.15 58.75
  Q 84.48 57.46 86.52 57.99
  Q 91.07 59.18 94.75 58.75
  Q 96.63 58.53 99.76 58.76
  Q 102.52 58.97 104.73 58.72
  Z"
/>
<path fill="#b2b6b1" d="
  M 28.75 58.79
  L 28.75 58.96
  Q 28.56 59.13 28.43 59.34
  Q 28.31 59.53 28.31 59.82
  Q 28.29 74.09 28.02 88.37
  Q 28.02 88.47 27.85 90.11
  Q 27.63 92.34 29.68 92.03
  Q 31.09 91.82 31.85 91.91
  Q 35.73 92.37 39.00 91.51
  Q 39.65 91.38 39.71 91.25
  Q 39.53 93.17 37.50 93.12
  Q 33.25 93.00 28.70 93.00
  A 1.69 1.66 0.2 0 1 27.01 91.33
  L 27.24 59.75
  A 1.06 0.77 78.6 0 1 27.62 58.92
  Q 28.10 58.63 28.75 58.79
  Z"
/>
<path fill="#727976" fill-opacity="0.992" d="
  M 38.50 58.76
  Q 39.74 58.92 39.74 60.75
  Q 39.78 76.00 39.71 91.25
  Q 39.65 91.38 39.00 91.51
  Q 39.85 75.04 38.50 58.76
  Z"
/>
<path fill="#b2b6b1" d="
  M 32.01 60.75
  Q 33.07 75.73 32.25 90.71
  L 29.82 90.73
  A 0.55 0.51 90.0 0 1 29.31 90.18
  Q 29.25 76.00 29.19 61.81
  Q 29.18 60.29 32.01 60.75
  Z"
/>
<path fill="#d3d7d0" d="
  M 32.01 60.75
  L 36.81 60.91
  A 0.53 0.52 -89.4 0 1 37.32 61.44
  L 37.49 90.09
  A 0.64 0.63 90.0 0 1 36.85 90.74
  L 32.25 90.71
  Q 33.07 75.73 32.01 60.75
  Z"
/>
<path fill="#d29f9f" d="
  M 103.81 62.69
  Q 106.42 62.25 109.07 62.20
  A 0.69 0.64 -8.6 0 1 109.75 62.66
  Q 110.05 63.78 108.75 64.00
  Q 100.00 65.46 91.19 64.29
  Q 89.72 64.09 89.39 62.80
  A 0.39 0.36 -3.5 0 1 89.81 62.36
  Q 100.48 63.24 103.81 62.69
  Z"
/>
<path fill="#727976" fill-opacity="0.992" d="
  M 114.00 63.04
  Q 120.30 63.62 123.12 68.61
  Q 121.55 69.14 122.03 67.95
  A 0.74 0.65 -58.8 0 0 121.89 67.16
  Q 119.88 65.30 118.00 65.00
  Q 115.23 64.56 114.00 63.04
  Z"
/>
<path fill="#5d5d5b" d="
  M 79.77 68.69
  Q 78.18 67.26 81.96 66.22
  A 0.63 0.62 -20.0 0 1 82.68 66.55
  Q 84.17 69.76 81.78 69.53
  Q 80.58 69.42 79.77 68.69
  Z"
/>
<path fill="#b48b8c" d="
  M 94.60 67.99
  Q 92.42 68.05 90.29 67.35
  A 0.46 0.40 23.7 0 1 90.00 66.74
  Q 90.53 65.84 92.02 66.15
  Q 99.48 67.74 104.25 66.75
  Q 107.27 66.13 109.07 66.16
  A 1.33 0.91 -12.5 0 1 109.94 66.51
  Q 110.43 67.08 109.26 67.30
  Q 104.10 68.30 98.90 67.95
  Q 98.04 67.89 94.60 67.99
  Z"
/>
<path fill="#5d5d5b" d="
  M 120.06 67.44
  Q 121.28 68.81 119.44 68.98
  Q 118.72 69.04 118.14 69.31
  Q 115.41 70.57 116.41 67.29
  A 0.97 0.90 -88.8 0 1 117.03 66.65
  Q 118.90 66.12 120.06 67.44
  Z"
/>
<path fill="#d29f9f" d="
  M 104.70 70.64
  Q 97.46 71.23 87.25 70.50
  Q 85.05 70.34 85.32 68.67
  A 0.53 0.48 10.0 0 1 85.93 68.28
  Q 99.79 70.82 113.69 68.40
  A 0.52 0.43 -6.1 0 1 114.29 68.80
  Q 114.32 69.72 112.75 70.00
  Q 109.72 70.54 107.80 70.58
  Q 104.80 70.64 104.70 70.64
  Z"
/>
<path fill="#f2b3b3" d="
  M 82.25 71.54
  Q 82.00 72.10 82.01 72.69
  A 0.97 0.75 17.3 0 0 82.51 73.41
  Q 83.32 73.86 83.94 74.53
  Q 84.32 74.95 84.73 76.12
  Q 85.32 77.82 86.93 78.83
  Q 89.48 80.42 91.06 83.01
  A 1.12 1.02 -9.7 0 0 91.81 83.49
  Q 93.46 83.75 94.47 85.09
  A 1.67 0.64 62.1 0 0 95.20 85.73
  L 99.27 87.15
  A 1.49 0.72 -31.7 0 0 100.22 87.05
  Q 103.47 85.78 103.04 89.44
  Q 103.00 89.78 103.09 90.04
  Q 103.59 91.42 103.89 89.54
  Q 103.94 89.23 103.89 88.82
  Q 103.54 85.74 105.31 84.31
  Q 106.20 83.60 110.94 81.44
  Q 112.35 80.79 113.19 81.62
  A 0.29 0.28 32.0 0 0 113.66 81.52
  Q 113.98 80.49 113.94 80.19
  Q 113.36 76.19 117.00 76.23
  A 0.62 0.53 2.5 0 0 117.61 75.75
  L 118.00 71.29
  L 119.58 70.42
  Q 120.17 70.09 120.09 70.76
  Q 119.33 77.13 117.37 82.45
  Q 115.50 87.55 116.04 91.78
  Q 116.34 94.11 114.02 94.50
  Q 107.11 95.65 100.14 95.61
  Q 93.72 95.58 92.35 95.48
  Q 88.34 95.21 84.69 93.83
  A 1.39 1.37 9.8 0 1 83.79 92.57
  Q 83.63 86.24 82.01 81.75
  Q 80.19 76.67 79.61 71.32
  A 0.43 0.41 -89.6 0 1 80.07 70.85
  Q 81.21 70.97 82.25 71.54
  Z"
/>
<path fill="#a78586" d="
  M 118.00 71.29
  L 117.61 75.75
  A 0.62 0.53 2.5 0 1 117.00 76.23
  Q 113.36 76.19 113.94 80.19
  Q 113.98 80.49 113.66 81.52
  A 0.29 0.28 32.0 0 1 113.19 81.62
  Q 112.35 80.79 110.94 81.44
  Q 106.20 83.60 105.31 84.31
  Q 103.54 85.74 103.89 88.82
  Q 103.94 89.23 103.89 89.54
  Q 103.59 91.42 103.09 90.04
  Q 103.00 89.78 103.04 89.44
  Q 103.47 85.78 100.22 87.05
  A 1.49 0.72 -31.7 0 1 99.27 87.15
  L 95.20 85.73
  A 1.67 0.64 62.1 0 1 94.47 85.09
  Q 93.46 83.75 91.81 83.49
  A 1.12 1.02 -9.7 0 1 91.06 83.01
  Q 89.48 80.42 86.93 78.83
  Q 85.32 77.82 84.73 76.12
  Q 84.32 74.95 83.94 74.53
  Q 83.32 73.86 82.51 73.41
  A 0.97 0.75 17.3 0 1 82.01 72.69
  Q 82.00 72.10 82.25 71.54
  Q 82.84 71.81 83.50 71.79
  Q 82.78 72.04 83.14 72.59
  Q 88.81 81.32 98.61 85.57
  A 2.13 2.10 -42.7 0 0 100.16 85.62
  Q 110.83 81.80 116.35 72.14
  Q 116.63 71.66 116.00 71.71
  L 118.00 71.29
  Z"
/>
<path fill="#f2b3b3" d="
  M 83.50 71.79
  L 92.25 73.04
  Q 91.88 74.96 90.19 73.87
  Q 90.03 73.78 89.87 73.57
  Q 89.48 73.05 89.36 73.58
  A 0.69 0.63 29.8 0 0 89.56 74.20
  Q 90.68 75.26 92.16 74.63
  Q 93.49 74.06 93.25 75.48
  Q 93.01 76.89 93.79 78.00
  Q 94.34 80.03 96.06 78.58
  A 0.70 0.65 -40.6 0 1 97.00 78.62
  L 98.78 80.61
  A 1.42 1.25 38.4 0 0 101.00 80.49
  L 103.40 75.53
  A 1.19 0.67 -74.4 0 1 104.03 74.90
  Q 105.18 74.62 105.01 76.06
  Q 104.84 77.54 103.68 78.27
  A 0.38 0.33 -41.1 0 0 103.60 78.85
  Q 104.10 79.22 104.60 78.95
  Q 104.99 78.73 105.29 78.00
  Q 106.39 75.27 107.50 72.54
  L 116.00 71.71
  Q 116.63 71.66 116.35 72.14
  Q 110.83 81.80 100.16 85.62
  A 2.13 2.10 -42.7 0 1 98.61 85.57
  Q 88.81 81.32 83.14 72.59
  Q 82.78 72.04 83.50 71.79
  Z"
/>
<path fill="#727976" fill-opacity="0.992" d="
  M 121.98 71.93
  Q 121.38 78.44 119.44 83.44
  Q 117.89 87.42 118.21 91.00
  Q 116.68 90.41 117.17 88.48
  Q 119.30 80.12 121.98 71.93
  Z"
/>
<path fill="#b48b8c" d="
  M 107.50 72.54
  Q 106.39 75.27 105.29 78.00
  Q 104.99 78.73 104.60 78.95
  Q 104.10 79.22 103.60 78.85
  A 0.38 0.33 -41.1 0 1 103.68 78.27
  Q 104.84 77.54 105.01 76.06
  Q 105.18 74.62 104.03 74.90
  A 1.19 0.67 -74.4 0 0 103.40 75.53
  L 101.00 80.49
  A 1.42 1.25 38.4 0 1 98.78 80.61
  L 97.00 78.62
  A 0.70 0.65 -40.6 0 0 96.06 78.58
  Q 94.34 80.03 93.79 78.00
  Q 95.98 78.24 97.12 76.54
  Q 97.74 75.62 97.75 76.73
  Q 97.78 79.08 99.75 79.91
  A 0.72 0.70 21.5 0 0 100.70 79.51
  L 102.33 75.02
  A 1.61 1.57 -74.5 0 1 104.11 73.98
  Q 106.00 74.33 106.00 73.04
  L 107.50 72.54
  Z"
/>
<path fill="#d29f9f" d="
  M 92.25 73.04
  L 106.00 73.04
  Q 106.00 74.33 104.11 73.98
  A 1.61 1.57 -74.5 0 0 102.33 75.02
  L 100.70 79.51
  A 0.72 0.70 21.5 0 1 99.75 79.91
  Q 97.78 79.08 97.75 76.73
  Q 97.74 75.62 97.12 76.54
  Q 95.98 78.24 93.79 78.00
  Q 93.01 76.89 93.25 75.48
  Q 93.49 74.06 92.16 74.63
  Q 90.68 75.26 89.56 74.20
  A 0.69 0.63 29.8 0 1 89.36 73.58
  Q 89.48 73.05 89.87 73.57
  Q 90.03 73.78 90.19 73.87
  Q 91.88 74.96 92.25 73.04
  Z"
/>
<path fill="#727976" fill-opacity="0.992" d="
  M 118.21 93.00
  Q 117.37 95.77 114.25 96.50
  Q 109.65 97.58 106.03 97.54
  Q 100.24 96.81 94.49 97.54
  Q 87.30 98.37 81.66 94.19
  Q 86.57 96.44 91.81 96.77
  Q 103.15 97.48 111.50 96.50
  Q 115.09 96.08 118.21 93.00
  Z"
/>
<path fill="#b2b6b1" d="
  M 106.03 97.54
  Q 100.23 98.06 94.49 97.54
  Q 100.24 96.81 106.03 97.54
  Z"
/>
</svg>
