<?xml version="1.0" encoding="UTF-8" standalone="no"?>
<!DOCTYPE svg PUBLIC "-//W3C//DTD SVG 1.1//EN" "http://www.w3.org/Graphics/SVG/1.1/DTD/svg11.dtd">
<svg xmlns="http://www.w3.org/2000/svg" version="1.1" viewBox="0 0 140 100">
<g stroke-width="2.00" fill="none" stroke-linecap="butt">
<path stroke="#636b66" stroke-opacity="0.996" vector-effect="non-scaling-stroke" d="
  M 64.46 26.50
  Q 63.62 26.68 63.81 25.81
  Q 65.27 19.13 60.97 15.26
  Q 58.20 12.75 54.43 12.82
  Q 50.53 12.88 47.44 15.50
  Q 46.56 16.25 45.75 16.60
  Q 44.82 17.01 43.89 17.41
  Q 42.49 18.01 41.42 19.07
  Q 31.38 28.97 20.94 38.43
  Q 14.72 44.07 12.56 47.81
  Q 10.94 50.62 8.98 58.31"
/>
<path stroke="#707473" vector-effect="non-scaling-stroke" d="
  M 64.54 27.50
  Q 63.78 32.57 65.71 27.25"
/>
<path stroke="#707473" vector-effect="non-scaling-stroke" d="
  M 66.00 26.96
  Q 72.35 23.74 75.35 29.65
  Q 75.45 29.83 75.59 29.91
  Q 76.07 30.19 75.92 29.52
  Q 75.69 28.52 75.71 27.50"
/>
<path stroke="#636b66" stroke-opacity="0.996" vector-effect="non-scaling-stroke" d="
  M 8.94 61.19
  Q 12.68 82.12 32.22 83.67
  Q 37.75 84.11 42.49 82.04
  Q 55.06 76.54 57.42 61.68
  Q 57.88 58.76 58.82 55.99
  Q 58.87 55.86 59.18 54.60
  Q 59.69 52.58 61.79 53.31
  A 1.06 0.90 89.1 0 1 62.38 53.98
  Q 63.42 57.65 66.31 59.48
  Q 69.21 61.32 72.39 60.16
  Q 76.05 58.81 77.14 54.49
  A 1.51 1.00 88.2 0 1 77.64 53.68
  Q 78.54 53.03 79.69 53.20
  A 0.90 0.81 83.0 0 1 80.36 53.78
  Q 81.73 57.44 82.53 61.24
  Q 83.80 67.27 84.38 68.74
  Q 89.03 80.40 102.11 83.20
  Q 108.84 84.65 114.25 82.75
  Q 127.14 78.23 129.93 64.79
  Q 130.63 61.42 130.65 61.23
  Q 130.79 59.69 130.44 57.56
  Q 128.79 47.62 122.44 41.56
  Q 113.12 32.67 103.68 23.92
  Q 103.47 23.72 100.19 20.22
  Q 98.13 18.02 96.00 17.25
  Q 93.60 16.38 92.11 15.27
  Q 89.86 13.61 89.01 13.36
  Q 85.96 12.46 82.96 13.18
  Q 79.91 13.90 78.02 16.19
  Q 75.57 19.15 75.75 23.44
  Q 75.82 24.96 75.79 26.50"
/>
<path stroke="#907374" vector-effect="non-scaling-stroke" d="
  M 57.58 14.91
  Q 54.27 13.51 50.99 15.01
  Q 49.69 15.60 51.10 15.76
  Q 58.34 16.59 61.91 22.08
  Q 63.02 23.77 62.75 21.77
  Q 62.10 16.83 57.58 14.91"
/>
<path stroke="#907374" vector-effect="non-scaling-stroke" d="
  M 88.94 15.04
  Q 79.70 12.55 77.29 21.26
  Q 77.13 21.83 77.28 22.31
  Q 77.44 22.82 77.79 22.34
  Q 81.62 17.07 88.92 15.65
  Q 90.23 15.39 88.94 15.04"
/>
<path stroke="#818582" vector-effect="non-scaling-stroke" d="
  M 104.42 26.58
  Q 101.34 23.66 98.15 20.85
  Q 95.72 18.72 92.73 17.94
  Q 89.89 17.20 86.79 18.06
  Q 79.08 20.20 77.58 28.76
  A 0.84 0.77 25.0 0 0 77.90 29.53
  Q 78.99 30.38 79.32 31.73
  Q 80.85 38.06 83.13 45.80
  Q 83.60 47.41 82.95 48.96
  Q 82.01 51.23 82.22 53.40
  Q 82.46 56.00 83.25 53.51
  Q 86.53 43.11 96.26 38.32
  Q 104.96 34.04 114.27 37.01
  Q 115.33 37.35 114.55 36.55
  Q 109.65 31.54 104.42 26.58"
/>
<path stroke="#818582" vector-effect="non-scaling-stroke" d="
  M 38.20 36.40
  Q 52.39 39.81 57.16 54.21
  Q 57.33 54.72 57.51 54.23
  Q 58.15 52.54 57.44 50.77
  Q 56.25 47.79 57.18 44.85
  Q 57.71 43.20 57.73 43.12
  Q 59.33 37.00 61.05 30.92
  A 1.87 1.52 -18.0 0 1 61.57 30.12
  L 62.14 29.60
  A 0.94 0.93 64.3 0 0 62.43 28.76
  Q 61.81 24.66 59.24 21.75
  Q 56.79 18.98 52.93 18.06
  Q 45.99 16.42 40.39 21.88
  Q 32.79 29.29 25.69 36.31
  Q 24.73 37.27 26.03 36.89
  Q 29.10 36.02 32.12 35.83
  Q 35.06 35.64 38.20 36.40"
/>
<path stroke="#7a7e7b" vector-effect="non-scaling-stroke" d="
  M 71.67 27.74
  Q 69.03 26.39 67.49 28.22
  Q 65.96 30.03 68.18 29.19
  Q 70.23 28.42 72.23 29.20
  Q 73.59 29.73 72.75 28.64
  Q 72.31 28.07 71.67 27.74"
/>
<path stroke="#818582" vector-effect="non-scaling-stroke" d="
  M 72.36 42.90
  Q 73.28 43.23 74.21 43.53
  A 0.33 0.33 6.5 0 0 74.64 43.19
  Q 74.22 39.03 73.52 34.91
  Q 73.15 32.75 71.99 31.61
  Q 69.66 29.32 67.72 31.67
  Q 66.65 32.97 66.28 35.76
  Q 65.76 39.61 65.14 43.44
  Q 65.07 43.93 65.50 43.71
  Q 67.86 42.52 70.46 42.52
  Q 71.30 42.52 72.36 42.90"
/>
<path stroke="#818582" vector-effect="non-scaling-stroke" d="
  M 62.50 46.80
  A 0.49 0.42 -83.5 0 0 62.95 46.38
  L 64.86 33.30
  A 1.39 0.99 -65.8 0 0 64.68 32.38
  Q 64.03 31.48 63.01 31.85
  A 1.05 0.87 -89.5 0 0 62.43 32.54
  L 58.87 46.01
  A 0.47 0.42 -80.1 0 0 59.23 46.60
  L 62.50 46.80"
/>
<path stroke="#818582" vector-effect="non-scaling-stroke" d="
  M 75.55 35.88
  Q 76.22 40.86 77.07 46.20
  A 0.64 0.60 84.9 0 0 77.67 46.73
  L 80.69 46.72
  A 0.42 0.41 82.3 0 0 81.08 46.19
  L 77.35 32.23
  A 0.79 0.76 -23.3 0 0 76.19 31.79
  Q 74.75 32.66 75.16 34.29
  Q 75.53 35.77 75.55 35.88"
/>
<path stroke="#907374" vector-effect="non-scaling-stroke" d="
  M 55.74 60.02
  A 22.41 22.41 0.0 0 0 33.33 37.61
  A 22.41 22.41 0.0 0 0 10.92 60.02
  A 22.41 22.41 0.0 0 0 33.33 82.43
  A 22.41 22.41 0.0 0 0 55.74 60.02"
/>
<path stroke="#907374" vector-effect="non-scaling-stroke" d="
  M 129.09 60.02
  A 22.41 22.41 0.0 0 0 106.68 37.61
  A 22.41 22.41 0.0 0 0 84.27 60.02
  A 22.41 22.41 0.0 0 0 106.68 82.43
  A 22.41 22.41 0.0 0 0 129.09 60.02"
/>
<path stroke="#7a7e7b" vector-effect="non-scaling-stroke" d="
  M 73.42 45.26
  Q 69.01 42.57 65.51 46.26
  Q 64.65 47.17 65.41 47.25
  Q 65.69 47.28 66.03 47.07
  Q 69.56 45.00 74.27 46.90
  Q 74.78 47.10 74.63 46.57
  Q 74.43 45.87 73.42 45.26"
/>
<path stroke="#818582" vector-effect="non-scaling-stroke" d="
  M 75.76 53.35
  A 5.75 5.75 0.0 0 0 70.01 47.60
  A 5.75 5.75 0.0 0 0 64.26 53.35
  A 5.75 5.75 0.0 0 0 70.01 59.10
  A 5.75 5.75 0.0 0 0 75.76 53.35"
/>
<path stroke="#818582" vector-effect="non-scaling-stroke" d="
  M 61.15 48.55
  Q 60.46 48.44 59.76 48.46
  A 0.66 0.65 4.4 0 0 59.14 48.98
  Q 58.51 52.23 61.75 51.83
  A 0.91 0.83 5.7 0 0 62.46 51.30
  Q 62.91 50.12 62.27 49.20
  Q 61.91 48.67 61.15 48.55"
/>
<path stroke="#818582" vector-effect="non-scaling-stroke" d="
  M 80.74 50.48
  Q 80.89 49.87 80.96 49.25
  A 0.61 0.60 11.2 0 0 80.52 48.60
  Q 77.08 47.60 77.43 51.01
  A 0.86 0.83 -83.4 0 0 77.96 51.71
  Q 79.17 52.18 80.11 51.48
  Q 80.56 51.14 80.74 50.48"
/>
<path stroke="#907374" vector-effect="non-scaling-stroke" d="
  M 52.09 60.00
  A 18.76 18.76 0.0 0 0 33.33 41.24
  A 18.76 18.76 0.0 0 0 14.57 60.00
  A 18.76 18.76 0.0 0 0 33.33 78.76
  A 18.76 18.76 0.0 0 0 52.09 60.00"
/>
<path stroke="#907374" vector-effect="non-scaling-stroke" d="
  M 125.40 59.99
  A 18.76 18.76 0.0 0 0 106.64 41.23
  A 18.76 18.76 0.0 0 0 87.88 59.99
  A 18.76 18.76 0.0 0 0 106.64 78.75
  A 18.76 18.76 0.0 0 0 125.40 59.99"
/>
<path stroke="#707473" vector-effect="non-scaling-stroke" d="
  M 21.25 71.79
  Q 26.52 77.18 33.69 76.94
  Q 40.58 76.70 45.01 72.34
  Q 49.17 68.23 50.08 62.13
  Q 51.25 54.22 45.16 47.78"
/>
<path stroke="#818582" vector-effect="non-scaling-stroke" d="
  M 45.16 47.78
  Q 36.62 40.88 28.28 43.82
  Q 20.47 46.58 17.34 54.41
  Q 13.90 63.04 21.25 71.79"
/>
<path stroke="#c3c7c0" vector-effect="non-scaling-stroke" d="
  M 45.16 47.78
  Q 33.63 60.32 21.25 71.79"
/>
<path stroke="#707473" vector-effect="non-scaling-stroke" d="
  M 94.56 71.92
  Q 99.74 76.84 106.41 76.85
  Q 112.64 76.86 117.42 73.17
  Q 122.51 69.23 123.50 62.25
  Q 124.62 54.30 118.79 48.25"
/>
<path stroke="#818582" vector-effect="non-scaling-stroke" d="
  M 118.79 48.25
  Q 112.40 41.74 104.00 43.25
  Q 95.96 44.69 92.25 51.00
  Q 85.84 61.91 94.56 71.92"
/>
<path stroke="#c3c7c0" vector-effect="non-scaling-stroke" d="
  M 118.79 48.25
  L 94.56 71.92"
/>
<path stroke="#818582" vector-effect="non-scaling-stroke" d="
  M 72.94 53.36
  A 2.94 2.94 0.0 0 0 70.00 50.42
  A 2.94 2.94 0.0 0 0 67.06 53.36
  A 2.94 2.94 0.0 0 0 70.00 56.30
  A 2.94 2.94 0.0 0 0 72.94 53.36"
/>
<path stroke="#818582" vector-effect="non-scaling-stroke" d="
  M 71.78 53.29
  A 1.78 1.78 0.0 0 0 70.00 51.51
  A 1.78 1.78 0.0 0 0 68.22 53.29
  A 1.78 1.78 0.0 0 0 70.00 55.07
  A 1.78 1.78 0.0 0 0 71.78 53.29"
/>
</g>
<path fill="#99a499" fill-opacity="0.988" d="
  M 64.46 26.50
  Q 63.62 26.68 63.81 25.81
  Q 65.27 19.13 60.97 15.26
  Q 58.20 12.75 54.43 12.82
  Q 50.53 12.88 47.44 15.50
  Q 46.56 16.25 45.75 16.60
  Q 44.82 17.01 43.89 17.41
  Q 42.49 18.01 41.42 19.07
  Q 31.38 28.97 20.94 38.43
  Q 14.72 44.07 12.56 47.81
  Q 10.94 50.62 8.98 58.31
  Q 9.48 48.62 16.47 41.97
  Q 26.81 32.12 37.11 22.22
  Q 37.15 22.18 39.44 19.82
  Q 41.62 17.57 43.56 16.81
  Q 46.77 15.56 48.11 14.37
  Q 50.42 12.34 53.50 12.21
  Q 61.96 11.84 64.44 19.31
  Q 65.43 22.30 64.46 26.50
  Z"
/>
<path fill="#99a499" fill-opacity="0.988" d="
  M 8.94 61.19
  Q 12.68 82.12 32.22 83.67
  Q 37.75 84.11 42.49 82.04
  Q 55.06 76.54 57.42 61.68
  Q 57.88 58.76 58.82 55.99
  Q 58.87 55.86 59.18 54.60
  Q 59.69 52.58 61.79 53.31
  A 1.06 0.90 89.1 0 1 62.38 53.98
  Q 63.42 57.65 66.31 59.48
  Q 69.21 61.32 72.39 60.16
  Q 76.05 58.81 77.14 54.49
  A 1.51 1.00 88.2 0 1 77.64 53.68
  Q 78.54 53.03 79.69 53.20
  A 0.90 0.81 83.0 0 1 80.36 53.78
  Q 81.73 57.44 82.53 61.24
  Q 83.80 67.27 84.38 68.74
  Q 89.03 80.40 102.11 83.20
  Q 108.84 84.65 114.25 82.75
  Q 127.14 78.23 129.93 64.79
  Q 130.63 61.42 130.65 61.23
  Q 130.79 59.69 130.44 57.56
  Q 128.79 47.62 122.44 41.56
  Q 113.12 32.67 103.68 23.92
  Q 103.47 23.72 100.19 20.22
  Q 98.13 18.02 96.00 17.25
  Q 93.60 16.38 92.11 15.27
  Q 89.86 13.61 89.01 13.36
  Q 85.96 12.46 82.96 13.18
  Q 79.91 13.90 78.02 16.19
  Q 75.57 19.15 75.75 23.44
  Q 75.82 24.96 75.79 26.50
  Q 74.16 21.23 76.59 17.19
  Q 78.80 13.55 83.14 12.45
  Q 87.76 11.28 91.82 14.21
  Q 93.83 15.66 95.69 16.53
  Q 98.86 18.00 101.30 20.52
  Q 103.61 22.93 103.69 23.00
  Q 113.40 32.19 123.02 41.48
  Q 135.24 53.29 129.75 68.75
  Q 126.44 78.08 116.19 82.69
  Q 109.53 85.68 102.42 84.28
  Q 95.75 82.96 90.49 78.47
  Q 83.30 72.33 81.94 62.19
  Q 81.68 60.32 81.28 58.87
  Q 80.83 57.23 80.44 55.56
  Q 80.21 54.59 79.64 54.18
  Q 78.39 53.28 77.77 55.26
  Q 76.96 57.83 75.04 59.45
  Q 73.26 60.95 70.62 61.19
  Q 64.40 61.75 62.25 55.25
  Q 61.63 53.38 60.22 54.27
  A 1.38 1.05 87.2 0 0 59.68 55.06
  Q 58.35 60.23 57.94 62.69
  Q 55.29 78.55 40.75 83.50
  Q 35.99 85.12 30.67 84.47
  Q 25.74 83.87 21.26 81.41
  Q 10.02 75.23 8.94 61.19
  Z"
/>
<path fill="#2e3234" d="
  M 64.46 26.50
  Q 64.25 26.99 64.54 27.50
  Q 63.78 32.57 65.71 27.25
  Q 65.77 27.02 66.00 26.96
  Q 72.35 23.74 75.35 29.65
  Q 75.45 29.83 75.59 29.91
  Q 76.07 30.19 75.92 29.52
  Q 75.69 28.52 75.71 27.50
  L 75.79 26.50
  Q 75.82 24.96 75.75 23.44
  Q 75.57 19.15 78.02 16.19
  Q 79.91 13.90 82.96 13.18
  Q 85.96 12.46 89.01 13.36
  Q 89.86 13.61 92.11 15.27
  Q 93.60 16.38 96.00 17.25
  Q 98.13 18.02 100.19 20.22
  Q 103.47 23.72 103.68 23.92
  Q 113.12 32.67 122.44 41.56
  Q 128.79 47.62 130.44 57.56
  Q 130.79 59.69 130.65 61.23
  Q 130.63 61.42 129.93 64.79
  Q 127.14 78.23 114.25 82.75
  Q 108.84 84.65 102.11 83.20
  Q 89.03 80.40 84.38 68.74
  Q 83.80 67.27 82.53 61.24
  Q 81.73 57.44 80.36 53.78
  A 0.90 0.81 83.0 0 0 79.69 53.20
  Q 78.54 53.03 77.64 53.68
  A 1.51 1.00 88.2 0 0 77.14 54.49
  Q 76.05 58.81 72.39 60.16
  Q 69.21 61.32 66.31 59.48
  Q 63.42 57.65 62.38 53.98
  A 1.06 0.90 89.1 0 0 61.79 53.31
  Q 59.69 52.58 59.18 54.60
  Q 58.87 55.86 58.82 55.99
  Q 57.88 58.76 57.42 61.68
  Q 55.06 76.54 42.49 82.04
  Q 37.75 84.11 32.22 83.67
  Q 12.68 82.12 8.94 61.19
  Q 8.44 59.74 8.98 58.31
  Q 10.94 50.62 12.56 47.81
  Q 14.72 44.07 20.94 38.43
  Q 31.38 28.97 41.42 19.07
  Q 42.49 18.01 43.89 17.41
  Q 44.82 17.01 45.75 16.60
  Q 46.56 16.25 47.44 15.50
  Q 50.53 12.88 54.43 12.82
  Q 58.20 12.75 60.97 15.26
  Q 65.27 19.13 63.81 25.81
  Q 63.62 26.68 64.46 26.50
  Z
  M 57.58 14.91
  Q 54.27 13.51 50.99 15.01
  Q 49.69 15.60 51.10 15.76
  Q 58.34 16.59 61.91 22.08
  Q 63.02 23.77 62.75 21.77
  Q 62.10 16.83 57.58 14.91
  Z
  M 88.94 15.04
  Q 79.70 12.55 77.29 21.26
  Q 77.13 21.83 77.28 22.31
  Q 77.44 22.82 77.79 22.34
  Q 81.62 17.07 88.92 15.65
  Q 90.23 15.39 88.94 15.04
  Z
  M 104.42 26.58
  Q 101.34 23.66 98.15 20.85
  Q 95.72 18.72 92.73 17.94
  Q 89.89 17.20 86.79 18.06
  Q 79.08 20.20 77.58 28.76
  A 0.84 0.77 25.0 0 0 77.90 29.53
  Q 78.99 30.38 79.32 31.73
  Q 80.85 38.06 83.13 45.80
  Q 83.60 47.41 82.95 48.96
  Q 82.01 51.23 82.22 53.40
  Q 82.46 56.00 83.25 53.51
  Q 86.53 43.11 96.26 38.32
  Q 104.96 34.04 114.27 37.01
  Q 115.33 37.35 114.55 36.55
  Q 109.65 31.54 104.42 26.58
  Z
  M 38.20 36.40
  Q 52.39 39.81 57.16 54.21
  Q 57.33 54.72 57.51 54.23
  Q 58.15 52.54 57.44 50.77
  Q 56.25 47.79 57.18 44.85
  Q 57.71 43.20 57.73 43.12
  Q 59.33 37.00 61.05 30.92
  A 1.87 1.52 -18.0 0 1 61.57 30.12
  L 62.14 29.60
  A 0.94 0.93 64.3 0 0 62.43 28.76
  Q 61.81 24.66 59.24 21.75
  Q 56.79 18.98 52.93 18.06
  Q 45.99 16.42 40.39 21.88
  Q 32.79 29.29 25.69 36.31
  Q 24.73 37.27 26.03 36.89
  Q 29.10 36.02 32.12 35.83
  Q 35.06 35.64 38.20 36.40
  Z
  M 71.67 27.74
  Q 69.03 26.39 67.49 28.22
  Q 65.96 30.03 68.18 29.19
  Q 70.23 28.42 72.23 29.20
  Q 73.59 29.73 72.75 28.64
  Q 72.31 28.07 71.67 27.74
  Z
  M 72.36 42.90
  Q 73.28 43.23 74.21 43.53
  A 0.33 0.33 6.5 0 0 74.64 43.19
  Q 74.22 39.03 73.52 34.91
  Q 73.15 32.75 71.99 31.61
  Q 69.66 29.32 67.72 31.67
  Q 66.65 32.97 66.28 35.76
  Q 65.76 39.61 65.14 43.44
  Q 65.07 43.93 65.50 43.71
  Q 67.86 42.52 70.46 42.52
  Q 71.30 42.52 72.36 42.90
  Z
  M 62.50 46.80
  A 0.49 0.42 -83.5 0 0 62.95 46.38
  L 64.86 33.30
  A 1.39 0.99 -65.8 0 0 64.68 32.38
  Q 64.03 31.48 63.01 31.85
  A 1.05 0.87 -89.5 0 0 62.43 32.54
  L 58.87 46.01
  A 0.47 0.42 -80.1 0 0 59.23 46.60
  L 62.50 46.80
  Z
  M 75.55 35.88
  Q 76.22 40.86 77.07 46.20
  A 0.64 0.60 84.9 0 0 77.67 46.73
  L 80.69 46.72
  A 0.42 0.41 82.3 0 0 81.08 46.19
  L 77.35 32.23
  A 0.79 0.76 -23.3 0 0 76.19 31.79
  Q 74.75 32.66 75.16 34.29
  Q 75.53 35.77 75.55 35.88
  Z
  M 55.74 60.02
  A 22.41 22.41 0.0 0 0 33.33 37.61
  A 22.41 22.41 0.0 0 0 10.92 60.02
  A 22.41 22.41 0.0 0 0 33.33 82.43
  A 22.41 22.41 0.0 0 0 55.74 60.02
  Z
  M 129.09 60.02
  A 22.41 22.41 0.0 0 0 106.68 37.61
  A 22.41 22.41 0.0 0 0 84.27 60.02
  A 22.41 22.41 0.0 0 0 106.68 82.43
  A 22.41 22.41 0.0 0 0 129.09 60.02
  Z
  M 73.42 45.26
  Q 69.01 42.57 65.51 46.26
  Q 64.65 47.17 65.41 47.25
  Q 65.69 47.28 66.03 47.07
  Q 69.56 45.00 74.27 46.90
  Q 74.78 47.10 74.63 46.57
  Q 74.43 45.87 73.42 45.26
  Z
  M 75.76 53.35
  A 5.75 5.75 0.0 0 0 70.01 47.60
  A 5.75 5.75 0.0 0 0 64.26 53.35
  A 5.75 5.75 0.0 0 0 70.01 59.10
  A 5.75 5.75 0.0 0 0 75.76 53.35
  Z
  M 61.15 48.55
  Q 60.46 48.44 59.76 48.46
  A 0.66 0.65 4.4 0 0 59.14 48.98
  Q 58.51 52.23 61.75 51.83
  A 0.91 0.83 5.7 0 0 62.46 51.30
  Q 62.91 50.12 62.27 49.20
  Q 61.91 48.67 61.15 48.55
  Z
  M 80.74 50.48
  Q 80.89 49.87 80.96 49.25
  A 0.61 0.60 11.2 0 0 80.52 48.60
  Q 77.08 47.60 77.43 51.01
  A 0.86 0.83 -83.4 0 0 77.96 51.71
  Q 79.17 52.18 80.11 51.48
  Q 80.56 51.14 80.74 50.48
  Z"
/>
<path fill="#f2b4b4" d="
  M 57.58 14.91
  Q 62.10 16.83 62.75 21.77
  Q 63.02 23.77 61.91 22.08
  Q 58.34 16.59 51.10 15.76
  Q 49.69 15.60 50.99 15.01
  Q 54.27 13.51 57.58 14.91
  Z"
/>
<path fill="#f2b4b4" d="
  M 88.94 15.04
  Q 90.23 15.39 88.92 15.65
  Q 81.62 17.07 77.79 22.34
  Q 77.44 22.82 77.28 22.31
  Q 77.13 21.83 77.29 21.26
  Q 79.70 12.55 88.94 15.04
  Z"
/>
<path fill="#d3d7cf" d="
  M 104.42 26.58
  Q 109.65 31.54 114.55 36.55
  Q 115.33 37.35 114.27 37.01
  Q 104.96 34.04 96.26 38.32
  Q 86.53 43.11 83.25 53.51
  Q 82.46 56.00 82.22 53.40
  Q 82.01 51.23 82.95 48.96
  Q 83.60 47.41 83.13 45.80
  Q 80.85 38.06 79.32 31.73
  Q 78.99 30.38 77.90 29.53
  A 0.84 0.77 25.0 0 1 77.58 28.76
  Q 79.08 20.20 86.79 18.06
  Q 89.89 17.20 92.73 17.94
  Q 95.72 18.72 98.15 20.85
  Q 101.34 23.66 104.42 26.58
  Z"
/>
<path fill="#d3d7cf" d="
  M 32.12 35.83
  Q 29.10 36.02 26.03 36.89
  Q 24.73 37.27 25.69 36.31
  Q 32.79 29.29 40.39 21.88
  Q 45.99 16.42 52.93 18.06
  Q 56.79 18.98 59.24 21.75
  Q 61.81 24.66 62.43 28.76
  A 0.94 0.93 64.3 0 1 62.14 29.60
  L 61.57 30.12
  A 1.87 1.52 -18.0 0 0 61.05 30.92
  Q 59.33 37.00 57.73 43.12
  Q 57.71 43.20 57.18 44.85
  Q 56.25 47.79 57.44 50.77
  Q 58.15 52.54 57.51 54.23
  Q 57.33 54.72 57.16 54.21
  Q 52.39 39.81 38.20 36.40
  Q 35.06 35.64 32.12 35.83
  Z"
/>
<path fill="#b2b6b1" d="
  M 75.71 27.50
  Q 75.69 28.52 75.92 29.52
  Q 76.07 30.19 75.59 29.91
  Q 75.45 29.83 75.35 29.65
  Q 72.35 23.74 66.00 26.96
  Q 69.36 23.44 73.28 26.15
  Q 73.34 26.20 74.10 26.97
  Q 74.71 27.59 75.71 27.50
  Z"
/>
<path fill="#b2b6b1" d="
  M 65.71 27.25
  Q 63.78 32.57 64.54 27.50
  L 65.71 27.25
  Z"
/>
<path fill="#c5c9c1" d="
  M 71.67 27.74
  Q 72.31 28.07 72.75 28.64
  Q 73.59 29.73 72.23 29.20
  Q 70.23 28.42 68.18 29.19
  Q 65.96 30.03 67.49 28.22
  Q 69.03 26.39 71.67 27.74
  Z"
/>
<path fill="#d3d7cf" d="
  M 70.46 42.52
  Q 67.86 42.52 65.50 43.71
  Q 65.07 43.93 65.14 43.44
  Q 65.76 39.61 66.28 35.76
  Q 66.65 32.97 67.72 31.67
  Q 69.66 29.32 71.99 31.61
  Q 73.15 32.75 73.52 34.91
  Q 74.22 39.03 74.64 43.19
  A 0.33 0.33 6.5 0 1 74.21 43.53
  Q 73.28 43.23 72.36 42.90
  Q 71.30 42.52 70.46 42.52
  Z"
/>
<path fill="#d3d7cf" d="
  M 62.50 46.80
  L 59.23 46.60
  A 0.47 0.42 -80.1 0 1 58.87 46.01
  L 62.43 32.54
  A 1.05 0.87 -89.5 0 1 63.01 31.85
  Q 64.03 31.48 64.68 32.38
  A 1.39 0.99 -65.8 0 1 64.86 33.30
  L 62.95 46.38
  A 0.49 0.42 -83.5 0 1 62.50 46.80
  Z"
/>
<path fill="#d3d7cf" d="
  M 75.16 34.29
  Q 74.75 32.66 76.19 31.79
  A 0.79 0.76 -23.3 0 1 77.35 32.23
  L 81.08 46.19
  A 0.42 0.41 82.3 0 1 80.69 46.72
  L 77.67 46.73
  A 0.64 0.60 84.9 0 1 77.07 46.20
  Q 76.22 40.86 75.55 35.88
  Q 75.53 35.77 75.16 34.29
  Z"
/>
<path fill="#f2b4b4" d="
  M 55.74 60.02
  A 22.41 22.41 0.0 0 1 33.33 82.43
  A 22.41 22.41 0.0 0 1 10.92 60.02
  A 22.41 22.41 0.0 0 1 33.33 37.61
  A 22.41 22.41 0.0 0 1 55.74 60.02
  Z
  M 52.09 60.00
  A 18.76 18.76 0.0 0 0 33.33 41.24
  A 18.76 18.76 0.0 0 0 14.57 60.00
  A 18.76 18.76 0.0 0 0 33.33 78.76
  A 18.76 18.76 0.0 0 0 52.09 60.00
  Z"
/>
<path fill="#f2b4b4" d="
  M 129.09 60.02
  A 22.41 22.41 0.0 0 1 106.68 82.43
  A 22.41 22.41 0.0 0 1 84.27 60.02
  A 22.41 22.41 0.0 0 1 106.68 37.61
  A 22.41 22.41 0.0 0 1 129.09 60.02
  Z
  M 125.40 59.99
  A 18.76 18.76 0.0 0 0 106.64 41.23
  A 18.76 18.76 0.0 0 0 87.88 59.99
  A 18.76 18.76 0.0 0 0 106.64 78.75
  A 18.76 18.76 0.0 0 0 125.40 59.99
  Z"
/>
<path fill="#2e3234" d="
  M 52.09 60.00
  A 18.76 18.76 0.0 0 1 33.33 78.76
  A 18.76 18.76 0.0 0 1 14.57 60.00
  A 18.76 18.76 0.0 0 1 33.33 41.24
  A 18.76 18.76 0.0 0 1 52.09 60.00
  Z
  M 21.25 71.79
  Q 26.52 77.18 33.69 76.94
  Q 40.58 76.70 45.01 72.34
  Q 49.17 68.23 50.08 62.13
  Q 51.25 54.22 45.16 47.78
  Q 36.62 40.88 28.28 43.82
  Q 20.47 46.58 17.34 54.41
  Q 13.90 63.04 21.25 71.79
  Z"
/>
<path fill="#2e3234" d="
  M 125.40 59.99
  A 18.76 18.76 0.0 0 1 106.64 78.75
  A 18.76 18.76 0.0 0 1 87.88 59.99
  A 18.76 18.76 0.0 0 1 106.64 41.23
  A 18.76 18.76 0.0 0 1 125.40 59.99
  Z
  M 94.56 71.92
  Q 99.74 76.84 106.41 76.85
  Q 112.64 76.86 117.42 73.17
  Q 122.51 69.23 123.50 62.25
  Q 124.62 54.30 118.79 48.25
  Q 112.40 41.74 104.00 43.25
  Q 95.96 44.69 92.25 51.00
  Q 85.84 61.91 94.56 71.92
  Z"
/>
<path fill="#d3d7cf" d="
  M 45.16 47.78
  Q 33.63 60.32 21.25 71.79
  Q 13.90 63.04 17.34 54.41
  Q 20.47 46.58 28.28 43.82
  Q 36.62 40.88 45.16 47.78
  Z"
/>
<path fill="#d3d7cf" d="
  M 118.79 48.25
  L 94.56 71.92
  Q 85.84 61.91 92.25 51.00
  Q 95.96 44.69 104.00 43.25
  Q 112.40 41.74 118.79 48.25
  Z"
/>
<path fill="#c5c9c1" d="
  M 73.42 45.26
  Q 74.43 45.87 74.63 46.57
  Q 74.78 47.10 74.27 46.90
  Q 69.56 45.00 66.03 47.07
  Q 65.69 47.28 65.41 47.25
  Q 64.65 47.17 65.51 46.26
  Q 69.01 42.57 73.42 45.26
  Z"
/>
<path fill="#d3d7cf" d="
  M 75.76 53.35
  A 5.75 5.75 0.0 0 1 70.01 59.10
  A 5.75 5.75 0.0 0 1 64.26 53.35
  A 5.75 5.75 0.0 0 1 70.01 47.60
  A 5.75 5.75 0.0 0 1 75.76 53.35
  Z
  M 72.94 53.36
  A 2.94 2.94 0.0 0 0 70.00 50.42
  A 2.94 2.94 0.0 0 0 67.06 53.36
  A 2.94 2.94 0.0 0 0 70.00 56.30
  A 2.94 2.94 0.0 0 0 72.94 53.36
  Z"
/>
<path fill="#b2b6b1" d="
  M 45.16 47.78
  Q 51.25 54.22 50.08 62.13
  Q 49.17 68.23 45.01 72.34
  Q 40.58 76.70 33.69 76.94
  Q 26.52 77.18 21.25 71.79
  Q 33.63 60.32 45.16 47.78
  Z"
/>
<path fill="#b2b6b1" d="
  M 118.79 48.25
  Q 124.62 54.30 123.50 62.25
  Q 122.51 69.23 117.42 73.17
  Q 112.64 76.86 106.41 76.85
  Q 99.74 76.84 94.56 71.92
  L 118.79 48.25
  Z"
/>
<path fill="#d3d7cf" d="
  M 62.27 49.20
  Q 62.91 50.12 62.46 51.30
  A 0.91 0.83 5.7 0 1 61.75 51.83
  Q 58.51 52.23 59.14 48.98
  A 0.66 0.65 4.4 0 1 59.76 48.46
  Q 60.46 48.44 61.15 48.55
  Q 61.91 48.67 62.27 49.20
  Z"
/>
<path fill="#d3d7cf" d="
  M 80.11 51.48
  Q 79.17 52.18 77.96 51.71
  A 0.86 0.83 -83.4 0 1 77.43 51.01
  Q 77.08 47.60 80.52 48.60
  A 0.61 0.60 11.2 0 1 80.96 49.25
  Q 80.89 49.87 80.74 50.48
  Q 80.56 51.14 80.11 51.48
  Z"
/>
<path fill="#2e3234" d="
  M 72.94 53.36
  A 2.94 2.94 0.0 0 1 70.00 56.30
  A 2.94 2.94 0.0 0 1 67.06 53.36
  A 2.94 2.94 0.0 0 1 70.00 50.42
  A 2.94 2.94 0.0 0 1 72.94 53.36
  Z
  M 71.78 53.29
  A 1.78 1.78 0.0 0 0 70.00 51.51
  A 1.78 1.78 0.0 0 0 68.22 53.29
  A 1.78 1.78 0.0 0 0 70.00 55.07
  A 1.78 1.78 0.0 0 0 71.78 53.29
  Z"
/>
<circle fill="#d3d7cf" cx="70.00" cy="53.29" r="1.78"/>
</svg>
