<?xml version="1.0" encoding="UTF-8" standalone="no"?>
<!DOCTYPE svg PUBLIC "-//W3C//DTD SVG 1.1//EN" "http://www.w3.org/Graphics/SVG/1.1/DTD/svg11.dtd">
<svg xmlns="http://www.w3.org/2000/svg" version="1.1" viewBox="0 0 140 100">
<g stroke-width="2.00" fill="none" stroke-linecap="butt">
<path stroke="#646666" vector-effect="non-scaling-stroke" d="
  M 101.25 7.92
  Q 95.89 8.13 90.60 8.05
  Q 90.43 8.05 85.43 8.31
  Q 82.19 8.48 78.88 7.54"
/>
<path stroke="#646666" vector-effect="non-scaling-stroke" d="
  M 101.04 37.25
  Q 96.65 36.38 92.30 37.44
  A 0.49 0.49 -14.7 0 0 91.94 38.05
  Q 92.77 41.09 94.25 42.75
  Q 95.78 44.47 94.75 46.21"
/>
<path stroke="#474845" vector-effect="non-scaling-stroke" d="
  M 91.16 52.39
  Q 108.67 53.76 126.26 52.60"
/>
<path stroke="#646666" vector-effect="non-scaling-stroke" d="
  M 126.02 57.20
  Q 130.95 58.84 136.19 58.36
  A 0.54 0.54 -6.9 0 1 136.77 58.81
  Q 137.16 61.46 137.04 64.11
  Q 136.83 68.61 136.88 69.89
  Q 137.37 81.65 137.01 93.07
  A 1.03 1.00 1.1 0 1 135.97 94.04
  L 113.84 93.93
  A 0.65 0.63 -0.9 0 1 113.19 93.32
  Q 112.66 75.93 113.29 58.56
  A 0.48 0.48 3.4 0 1 113.81 58.10
  Q 120.94 58.54 123.31 58.06
  Q 125.12 57.70 123.75 56.71"
/>
<path stroke="#474845" vector-effect="non-scaling-stroke" d="
  M 123.79 55.50
  Q 124.39 54.88 123.83 54.35
  A 1.39 0.84 -13.9 0 0 122.93 54.07
  L 91.81 54.31
  A 1.05 0.78 11.5 0 0 90.98 54.70
  Q 90.65 55.24 91.25 55.54"
/>
<path stroke="#646666" vector-effect="non-scaling-stroke" d="
  M 91.25 56.71
  Q 90.74 56.47 90.50 56.73
  A 0.46 0.35 26.6 0 0 90.80 57.35
  Q 95.72 58.96 101.18 57.84"
/>
<path stroke="#817173" vector-effect="non-scaling-stroke" d="
  M 101.21 86.75
  L 79.50 86.96"
/>
<path stroke="#333733" vector-effect="non-scaling-stroke" d="
  M 79.50 86.96
  L 79.50 58.29"
/>
<path stroke="#646666" vector-effect="non-scaling-stroke" d="
  M 79.50 58.29
  L 87.83 58.18
  A 1.74 1.72 -72.8 0 0 89.23 57.43
  Q 89.81 56.59 88.75 56.71"
/>
<path stroke="#333733" vector-effect="non-scaling-stroke" d="
  M 89.00 55.54
  Q 89.53 54.91 89.11 54.49
  Q 88.87 54.25 88.31 54.24
  Q 72.42 53.94 56.34 54.62"
/>
<path stroke="#646666" vector-effect="non-scaling-stroke" d="
  M 56.22 57.32
  Q 60.80 58.64 65.86 58.20
  A 0.99 0.99 86.2 0 1 66.94 59.15
  Q 67.16 65.32 66.93 71.53
  Q 66.86 73.46 67.21 78.95
  Q 67.45 82.70 66.78 86.45
  A 0.62 0.55 4.4 0 1 66.18 86.91
  L 45.01 87.05
  A 1.79 1.67 -0.5 0 1 43.21 85.40
  L 43.02 59.14
  A 0.90 0.88 -0.3 0 1 43.92 58.25
  Q 48.97 58.25 52.83 58.09
  Q 53.40 58.06 53.75 57.88
  Q 54.69 57.39 53.75 56.71"
/>
<path stroke="#474845" vector-effect="non-scaling-stroke" d="
  M 53.79 53.25
  Q 67.29 52.90 87.75 53.00
  Q 89.36 53.01 88.75 51.71"
/>
<path stroke="#474845" vector-effect="non-scaling-stroke" d="
  M 84.71 46.10
  Q 84.86 43.07 86.50 41.25
  Q 87.92 39.68 87.96 38.00"
/>
<path stroke="#646666" vector-effect="non-scaling-stroke" d="
  M 87.96 38.00
  Q 88.21 37.24 87.57 37.17
  Q 83.25 36.71 78.96 37.25"
/>
<path stroke="#a69996" vector-effect="non-scaling-stroke" d="
  M 79.50 86.96
  Q 79.34 86.89 79.00 87.91"
/>
<path stroke="#9d9e9a" vector-effect="non-scaling-stroke" d="
  M 87.96 38.00
  Q 87.67 38.26 87.29 38.25"
/>
<path stroke="#8a8e8a" stroke-opacity="0.996" vector-effect="non-scaling-stroke" d="
  M 79.50 58.29
  L 78.79 58.25"
/>
<path stroke="#d63936" stroke-opacity="0.996" vector-effect="non-scaling-stroke" d="
  M 43.50 30.29
  L 42.67 30.01
  A 0.87 0.49 -86.1 0 1 42.31 29.25
  Q 42.30 28.42 41.47 28.08
  Q 40.03 27.51 40.50 28.96"
/>
<path stroke="#d63936" stroke-opacity="0.996" vector-effect="non-scaling-stroke" d="
  M 41.75 48.21
  L 43.54 46.98
  A 0.43 0.42 -39.9 0 0 43.61 46.32
  L 40.18 43.06
  Q 39.25 42.17 39.00 43.49
  Q 38.68 45.23 37.02 45.08
  Q 36.07 45.00 35.96 45.00
  Q 34.08 44.97 32.25 44.54"
/>
<path stroke="#d63936" stroke-opacity="0.996" vector-effect="non-scaling-stroke" d="
  M 41.25 48.46
  L 38.93 48.12
  A 0.60 0.59 2.4 0 1 38.42 47.57
  Q 38.28 44.87 36.46 46.75"
/>
<path stroke="#878888" vector-effect="non-scaling-stroke" d="
  M 99.0529 9.8238
  A 0.66 0.66 0.0 0 0 98.3975 9.1592
  L 81.4579 9.0409
  A 0.66 0.66 0.0 0 0 80.7933 9.6963
  L 80.7671 13.4562
  A 0.66 0.66 0.0 0 0 81.4225 14.1208
  L 98.3621 14.2391
  A 0.66 0.66 0.0 0 0 99.0267 13.5837
  L 99.0529 9.8238"
/>
<path stroke="#878888" vector-effect="non-scaling-stroke" d="
  M 99.0253 16.4763
  A 0.69 0.69 0.0 0 0 98.3305 15.7912
  L 81.4509 15.9090
  A 0.69 0.69 0.0 0 0 80.7657 16.6038
  L 80.8147 23.6237
  A 0.69 0.69 0.0 0 0 81.5095 24.3088
  L 98.3891 24.1910
  A 0.69 0.69 0.0 0 0 99.0743 23.4962
  L 99.0253 16.4763"
/>
<path stroke="#878888" vector-effect="non-scaling-stroke" d="
  M 99.0259 26.1522
  A 0.42 0.42 0.0 0 0 98.6038 25.7344
  L 81.1640 25.8257
  A 0.42 0.42 0.0 0 0 80.7462 26.2479
  L 80.7941 35.3878
  A 0.42 0.42 0.0 0 0 81.2162 35.8056
  L 98.6560 35.7143
  A 0.42 0.42 0.0 0 0 99.0738 35.2921
  L 99.0259 26.1522"
/>
<path stroke="#878888" vector-effect="non-scaling-stroke" d="
  M 89.63 39.10
  L 87.01 43.47
  Q 86.69 44.00 87.32 43.98
  L 92.75 43.82
  A 0.33 0.33 73.7 0 0 93.02 43.32
  L 90.59 39.14
  A 0.57 0.54 45.8 0 0 89.63 39.10"
/>
<path stroke="#878888" vector-effect="non-scaling-stroke" d="
  M 65.8137 59.5690
  A 0.43 0.43 0.0 0 0 65.3845 59.1382
  L 44.5245 59.1018
  A 0.43 0.43 0.0 0 0 44.0937 59.5310
  L 44.0863 63.7910
  A 0.43 0.43 0.0 0 0 44.5155 64.2218
  L 65.3755 64.2582
  A 0.43 0.43 0.0 0 0 65.8063 63.8290
  L 65.8137 59.5690"
/>
<path stroke="#878888" vector-effect="non-scaling-stroke" d="
  M 99.07 59.55
  A 0.44 0.44 0.0 0 0 98.63 59.11
  L 81.19 59.11
  A 0.44 0.44 0.0 0 0 80.75 59.55
  L 80.75 63.81
  A 0.44 0.44 0.0 0 0 81.19 64.25
  L 98.63 64.25
  A 0.44 0.44 0.0 0 0 99.07 63.81
  L 99.07 59.55"
/>
<path stroke="#878888" vector-effect="non-scaling-stroke" d="
  M 135.7965 59.6611
  A 0.55 0.55 0.0 0 0 135.2455 59.1120
  L 114.6456 59.1480
  A 0.55 0.55 0.0 0 0 114.0965 59.6989
  L 114.1035 63.6989
  A 0.55 0.55 0.0 0 0 114.6545 64.2480
  L 135.2544 64.2120
  A 0.55 0.55 0.0 0 0 135.8035 63.6611
  L 135.7965 59.6611"
/>
<path stroke="#878888" vector-effect="non-scaling-stroke" d="
  M 65.8162 66.1811
  A 0.44 0.44 0.0 0 0 65.3754 65.7419
  L 44.5755 65.7782
  A 0.44 0.44 0.0 0 0 44.1362 66.2189
  L 44.1438 70.5589
  A 0.44 0.44 0.0 0 0 44.5846 70.9981
  L 65.3845 70.9618
  A 0.44 0.44 0.0 0 0 65.8238 70.5211
  L 65.8162 66.1811"
/>
<path stroke="#878888" vector-effect="non-scaling-stroke" d="
  M 99.0869 66.0660
  A 0.30 0.30 0.0 0 0 98.7874 65.7655
  L 81.0674 65.7345
  A 0.30 0.30 0.0 0 0 80.7669 66.0340
  L 80.7531 73.9340
  A 0.30 0.30 0.0 0 0 81.0526 74.2345
  L 98.7726 74.2655
  A 0.30 0.30 0.0 0 0 99.0731 73.9660
  L 99.0869 66.0660"
/>
<path stroke="#878888" vector-effect="non-scaling-stroke" d="
  M 135.8621 66.4589
  A 0.69 0.69 0.0 0 0 135.1733 65.7677
  L 114.8933 65.7323
  A 0.69 0.69 0.0 0 0 114.2021 66.4211
  L 114.1779 80.2811
  A 0.69 0.69 0.0 0 0 114.8667 80.9723
  L 135.1467 81.0077
  A 0.69 0.69 0.0 0 0 135.8379 80.3189
  L 135.8621 66.4589"
/>
<path stroke="#878888" vector-effect="non-scaling-stroke" d="
  M 65.8410 72.7789
  A 0.42 0.42 0.0 0 0 65.4217 72.3582
  L 44.5617 72.3218
  A 0.42 0.42 0.0 0 0 44.1410 72.7411
  L 44.1190 85.3411
  A 0.42 0.42 0.0 0 0 44.5383 85.7618
  L 65.3983 85.7982
  A 0.42 0.42 0.0 0 0 65.8190 85.3789
  L 65.8410 72.7789"
/>
<path stroke="#878888" vector-effect="non-scaling-stroke" d="
  M 99.0352 76.0022
  A 0.27 0.27 0.0 0 0 98.7638 75.7336
  L 81.0040 75.8266
  A 0.27 0.27 0.0 0 0 80.7354 76.0980
  L 80.7848 85.5378
  A 0.27 0.27 0.0 0 0 81.0562 85.8064
  L 98.8160 85.7134
  A 0.27 0.27 0.0 0 0 99.0846 85.4420
  L 99.0352 76.0022"
/>
<path stroke="#878888" vector-effect="non-scaling-stroke" d="
  M 135.75 82.73
  A 0.26 0.26 0.0 0 0 135.49 82.47
  L 114.49 82.47
  A 0.26 0.26 0.0 0 0 114.23 82.73
  L 114.23 92.25
  A 0.26 0.26 0.0 0 0 114.49 92.51
  L 135.49 92.51
  A 0.26 0.26 0.0 0 0 135.75 92.25
  L 135.75 82.73"
/>
<path stroke="#878888" vector-effect="non-scaling-stroke" d="
  M 89.20 11.99
  Q 89.91 12.92 90.90 12.09
  A 0.90 0.84 32.6 0 1 91.71 11.94
  L 93.25 12.40
  A 0.97 0.69 -53.5 0 0 94.08 12.13
  Q 94.98 11.28 95.81 12.19
  Q 96.33 12.75 96.80 12.70
  A 0.48 0.39 72.4 0 0 97.06 12.04
  Q 96.11 9.99 94.05 11.13
  Q 92.99 11.71 92.28 10.65
  A 0.75 0.75 48.2 0 0 91.07 10.58
  Q 89.87 12.03 88.79 10.66
  A 0.57 0.48 -33.0 0 0 88.13 10.58
  L 86.79 11.31
  A 0.77 0.52 52.5 0 1 86.01 11.05
  Q 84.66 9.52 83.43 11.48
  Q 82.20 13.43 84.06 12.31
  Q 85.13 11.67 85.89 12.17
  A 1.09 0.69 45.1 0 0 86.73 12.36
  L 88.48 11.75
  A 0.66 0.62 61.5 0 1 89.20 11.99"
/>
<path stroke="#818182" vector-effect="non-scaling-stroke" d="
  M 89.60 17.71
  Q 88.47 17.02 87.20 17.53
  A 1.28 1.25 -45.6 0 1 86.28 17.55
  Q 84.35 16.81 83.19 18.45
  A 0.85 0.76 -36.1 0 0 83.05 19.10
  Q 83.20 19.72 83.61 19.13
  Q 84.72 17.52 86.07 18.95
  A 0.84 0.84 43.1 0 0 87.32 18.91
  Q 88.38 17.66 89.17 18.65
  A 1.18 0.60 59.5 0 0 89.92 19.13
  Q 90.51 19.12 90.95 18.65
  A 0.82 0.54 -52.7 0 1 91.73 18.38
  L 93.08 18.98
  A 0.68 0.60 32.0 0 0 93.81 18.86
  Q 94.93 17.69 96.18 19.07
  Q 97.38 20.38 96.74 18.72
  Q 95.86 16.47 93.76 17.73
  Q 93.01 18.19 92.49 17.70
  A 1.20 0.63 52.4 0 0 91.69 17.33
  Q 91.02 17.40 90.42 17.73
  A 0.82 0.80 -43.1 0 1 89.60 17.71"
/>
<path stroke="#818182" vector-effect="non-scaling-stroke" d="
  M 91.53 21.74
  L 93.27 22.35
  A 0.84 0.74 -56.4 0 0 94.08 22.13
  Q 95.16 21.08 96.05 22.27
  A 0.66 0.47 54.7 0 0 96.79 22.53
  Q 97.49 22.08 95.23 20.84
  A 0.84 0.82 -47.7 0 0 94.35 20.89
  Q 93.17 21.73 92.36 20.67
  A 0.83 0.83 42.8 0 0 91.00 20.72
  Q 90.00 22.27 88.91 20.59
  A 0.67 0.66 47.0 0 0 87.82 20.55
  Q 86.53 22.29 85.59 20.80
  A 0.50 0.50 -33.7 0 0 84.88 20.66
  Q 83.14 21.85 83.17 22.41
  Q 83.22 23.01 83.80 22.35
  Q 84.73 21.32 85.87 22.17
  A 1.04 0.74 47.7 0 0 86.73 22.36
  L 88.30 21.72
  A 0.65 0.62 -28.8 0 1 89.03 21.91
  Q 89.98 23.11 90.80 21.99
  A 0.67 0.63 -62.1 0 1 91.53 21.74"
/>
<path stroke="#d28284" vector-effect="non-scaling-stroke" d="
  M 97.1971 28.8548
  A 1.08 1.08 0.0 0 0 96.1209 27.7710
  L 84.0809 27.7290
  A 1.08 1.08 0.0 0 0 82.9972 28.8052
  L 82.9829 32.8852
  A 1.08 1.08 0.0 0 0 84.0591 33.9690
  L 96.0991 34.0110
  A 1.08 1.08 0.0 0 0 97.1828 32.9348
  L 97.1971 28.8548"
/>
<path stroke="#cd6c6f" vector-effect="non-scaling-stroke" d="
  M 96.0753 29.3111
  A 0.38 0.38 0.0 0 0 95.6967 28.9297
  L 84.3967 28.8903
  A 0.38 0.38 0.0 0 0 84.0154 29.2690
  L 84.0047 32.3489
  A 0.38 0.38 0.0 0 0 84.3833 32.7303
  L 95.6833 32.7697
  A 0.38 0.38 0.0 0 0 96.0646 32.3910
  L 96.0753 29.3111"
/>
<path stroke="#e58e8f" vector-effect="non-scaling-stroke" d="
  M 22.46 55.50
  L 22.56 38.19
  A 0.55 0.50 90.0 0 0 22.06 37.64
  L 16.00 37.54"
/>
<path stroke="#df777a" vector-effect="non-scaling-stroke" d="
  M 16.00 37.54
  L 11.62 37.51
  A 0.63 0.61 -89.1 0 0 11.00 38.13
  L 10.75 58.26
  A 0.70 0.67 -90.0 0 0 11.43 58.97
  L 21.81 58.85
  A 0.61 0.53 -0.1 0 0 22.41 58.33
  L 22.46 55.50"
/>
<path stroke="#fae9ea" vector-effect="non-scaling-stroke" d="
  M 16.00 37.54
  Q 13.84 37.36 14.24 38.33
  Q 14.53 39.01 14.54 39.25
  L 15.03 53.89
  A 1.10 0.98 -88.6 0 0 15.92 54.94
  L 22.46 55.50"
/>
<path stroke="#818182" vector-effect="non-scaling-stroke" d="
  M 55.52 60.78
  Q 54.74 59.90 53.95 61.02
  A 0.62 0.52 -57.0 0 1 53.23 61.24
  L 51.91 60.53
  A 0.63 0.58 35.8 0 0 51.18 60.62
  Q 49.91 61.91 48.65 60.68
  A 0.62 0.57 48.5 0 0 47.90 60.60
  Q 46.65 61.51 46.44 61.94
  Q 45.89 63.06 48.50 61.65
  A 0.22 0.21 59.7 0 1 48.79 61.73
  Q 49.66 63.15 51.07 61.81
  A 0.61 0.60 41.8 0 1 51.85 61.77
  Q 53.25 62.85 54.37 62.08
  A 0.81 0.76 -48.1 0 1 55.18 62.01
  Q 56.72 62.80 58.15 61.87
  A 0.62 0.61 -40.2 0 1 58.90 61.93
  Q 60.02 62.95 61.16 61.87
  A 0.60 0.56 -49.0 0 1 61.90 61.79
  Q 64.96 63.95 62.69 61.06
  A 2.34 0.73 -17.2 0 0 60.56 61.06
  Q 59.46 61.36 58.65 60.67
  A 0.50 0.50 44.1 0 0 57.98 60.68
  Q 57.25 61.38 56.31 61.29
  A 1.43 0.71 59.4 0 1 55.52 60.78"
/>
<path stroke="#818182" vector-effect="non-scaling-stroke" d="
  M 91.47 61.84
  Q 93.12 62.85 94.65 61.97
  A 0.82 0.72 -42.0 0 1 95.47 61.96
  Q 98.38 63.84 96.19 61.31
  A 2.63 0.95 -19.8 0 0 93.81 61.31
  Q 92.96 61.58 92.31 60.63
  A 0.74 0.74 -44.4 0 0 91.09 60.62
  Q 90.01 62.18 88.79 60.65
  A 0.45 0.44 -40.2 0 0 88.15 60.60
  Q 86.75 61.89 85.43 60.79
  A 0.97 0.69 50.1 0 0 84.59 60.57
  Q 83.40 61.01 83.26 62.24
  Q 83.21 62.75 83.58 62.38
  Q 84.70 61.26 85.88 62.17
  A 1.03 0.69 47.4 0 0 86.74 62.38
  L 88.32 61.74
  A 0.62 0.58 -29.4 0 1 89.03 61.91
  Q 89.95 63.06 90.79 61.98
  A 0.53 0.51 -55.4 0 1 91.47 61.84"
/>
<path stroke="#818182" vector-effect="non-scaling-stroke" d="
  M 128.20 60.58
  A 0.35 0.35 31.5 0 0 127.73 60.69
  Q 126.72 62.22 125.53 60.64
  A 0.66 0.66 90.0 0 0 124.47 60.64
  Q 123.31 62.20 122.13 60.48
  A 0.47 0.46 -37.2 0 0 121.44 60.39
  Q 119.73 61.81 118.93 60.75
  A 0.68 0.51 57.8 0 0 118.22 60.48
  Q 117.03 60.99 116.43 62.12
  A 0.53 0.40 -63.1 0 0 116.55 62.78
  Q 116.83 62.91 117.08 62.55
  Q 118.34 60.75 119.53 62.39
  A 0.68 0.68 -49.3 0 0 120.69 62.30
  Q 121.38 60.96 122.21 61.79
  Q 123.30 62.88 124.38 62.09
  A 0.77 0.70 -48.8 0 1 125.17 62.00
  Q 126.81 62.86 128.30 61.86
  A 0.53 0.51 52.3 0 1 128.99 61.96
  Q 130.12 63.29 130.87 61.92
  A 0.53 0.52 29.6 0 1 131.61 61.72
  Q 134.90 63.69 132.39 60.65
  A 0.82 0.82 -49.4 0 0 131.05 60.76
  Q 130.39 61.86 128.20 60.58"
/>
<path stroke="#818182" vector-effect="non-scaling-stroke" d="
  M 49.39 67.66
  Q 47.63 66.65 46.59 68.57
  Q 46.49 68.75 46.48 68.96
  Q 46.41 69.80 46.94 69.19
  Q 48.34 67.58 49.67 68.88
  A 0.51 0.50 -42.8 0 0 50.36 68.90
  Q 51.70 67.75 52.88 69.05
  A 0.48 0.47 -41.5 0 0 53.54 69.09
  Q 54.92 67.86 56.41 68.88
  A 0.66 0.65 42.7 0 0 57.18 68.86
  Q 58.46 67.84 59.60 68.84
  A 0.56 0.56 -43.2 0 0 60.32 68.86
  Q 61.96 67.62 63.06 69.26
  Q 63.35 69.69 63.41 69.19
  Q 63.59 67.65 62.05 67.37
  A 1.64 0.81 -37.9 0 0 61.13 67.56
  Q 59.99 68.10 58.92 67.52
  A 1.13 1.06 48.3 0 0 58.03 67.44
  Q 57.61 67.59 57.17 67.67
  Q 56.76 67.75 55.84 67.55
  Q 54.73 67.31 53.70 67.77
  A 1.01 0.99 -41.6 0 1 52.83 67.73
  Q 51.56 67.03 50.24 67.69
  A 0.92 0.90 46.6 0 1 49.39 67.66"
/>
<path stroke="#818182" vector-effect="non-scaling-stroke" d="
  M 92.73 67.80
  Q 91.77 66.84 90.58 67.63
  A 0.85 0.81 -48.7 0 1 89.76 67.70
  Q 88.36 67.01 86.99 67.69
  A 0.91 0.90 -44.0 0 1 86.14 67.68
  Q 84.06 66.55 83.00 68.75
  Q 82.77 69.23 83.15 69.27
  A 0.80 0.46 -57.2 0 0 83.73 68.97
  Q 84.91 67.64 86.21 68.83
  A 0.78 0.72 -34.7 0 0 87.00 68.94
  L 88.27 68.39
  A 0.79 0.58 55.5 0 1 89.05 68.66
  Q 89.96 69.72 90.94 68.63
  A 0.80 0.58 -53.3 0 1 91.73 68.38
  L 93.09 68.98
  A 0.66 0.59 32.4 0 0 93.81 68.86
  Q 94.90 67.69 96.00 68.99
  Q 96.64 69.76 96.88 69.24
  A 0.99 0.75 43.4 0 0 96.73 68.34
  Q 95.38 66.55 93.46 67.88
  A 0.59 0.55 49.5 0 1 92.73 67.80"
/>
<path stroke="#818182" vector-effect="non-scaling-stroke" d="
  M 85.57 70.94
  A 1.10 1.10 -48.4 0 0 84.09 71.03
  Q 82.60 72.55 83.31 72.62
  A 1.08 0.57 -59.1 0 0 84.08 72.15
  Q 84.89 71.11 85.92 72.13
  A 0.88 0.75 56.5 0 0 86.72 72.36
  L 88.26 71.90
  A 0.99 0.85 53.9 0 1 89.12 72.10
  Q 90.20 72.97 90.99 71.92
  A 0.61 0.54 28.4 0 1 91.68 71.76
  L 93.25 72.39
  A 1.02 0.67 -48.2 0 0 94.11 72.16
  Q 95.17 71.31 96.02 72.29
  A 0.88 0.43 51.4 0 0 96.81 72.66
  Q 97.34 72.39 95.28 70.60
  A 0.48 0.48 -47.2 0 0 94.62 70.63
  Q 93.35 71.94 91.99 70.49
  A 0.59 0.59 38.4 0 0 91.04 70.60
  Q 90.32 71.85 88.60 70.60
  A 0.70 0.69 -51.9 0 0 87.66 70.72
  Q 86.71 71.87 85.57 70.94"
/>
<path stroke="#818182" vector-effect="non-scaling-stroke" d="
  M 129.59 67.72
  Q 128.35 66.99 127.16 67.71
  A 0.82 0.78 -44.2 0 1 126.34 67.72
  Q 125.01 66.94 123.66 67.72
  A 0.77 0.75 46.6 0 1 122.85 67.69
  Q 121.54 66.80 120.15 67.71
  A 0.58 0.56 51.8 0 1 119.43 67.61
  Q 118.45 66.60 117.33 67.55
  Q 117.07 67.78 116.90 68.14
  Q 115.77 70.46 117.97 68.43
  A 0.66 0.65 -39.0 0 1 118.95 68.53
  Q 119.95 69.96 121.18 68.63
  A 0.55 0.53 39.4 0 1 121.89 68.57
  Q 123.27 69.58 124.62 68.58
  A 0.63 0.63 -0.0 0 1 125.38 68.58
  Q 126.45 69.40 127.47 68.79
  Q 128.20 68.36 128.52 68.37
  Q 129.17 68.38 129.67 68.86
  A 0.49 0.47 44.5 0 0 130.33 68.87
  Q 131.42 67.79 132.91 68.99
  Q 134.02 69.88 133.48 68.56
  Q 132.61 66.39 130.42 67.72
  A 0.81 0.80 44.4 0 1 129.59 67.72"
/>
<path stroke="#818182" vector-effect="non-scaling-stroke" d="
  M 125.77 70.78
  Q 124.88 69.73 124.04 71.03
  A 0.75 0.74 -49.1 0 1 122.85 71.12
  Q 121.64 69.70 120.92 70.75
  A 1.04 0.57 -63.2 0 1 120.20 71.24
  Q 119.48 71.22 118.38 70.63
  A 0.65 0.64 -55.3 0 0 117.59 70.78
  Q 114.81 73.98 118.09 71.78
  A 0.77 0.51 41.0 0 1 118.83 71.88
  L 119.52 72.35
  A 0.77 0.50 -48.9 0 0 120.32 72.12
  Q 121.21 71.22 122.26 71.87
  Q 123.05 72.36 123.36 72.38
  Q 124.01 72.43 124.61 72.05
  A 0.85 0.84 41.5 0 1 125.44 72.00
  Q 126.76 72.65 128.07 72.00
  A 0.75 0.75 -38.4 0 1 128.87 72.09
  Q 130.14 73.12 130.90 71.84
  A 0.44 0.44 -60.4 0 1 131.50 71.68
  Q 134.29 73.29 133.38 71.85
  Q 132.77 70.87 131.79 70.47
  A 0.83 0.66 -54.4 0 0 130.98 70.70
  Q 129.80 71.89 128.79 70.65
  A 0.48 0.47 -38.8 0 0 128.13 70.59
  Q 127.41 71.16 126.57 71.21
  A 1.16 0.77 61.6 0 1 125.77 70.78"
/>
<path stroke="#818182" vector-effect="non-scaling-stroke" d="
  M 128.84 75.37
  Q 129.99 76.11 131.11 75.32
  A 0.88 0.86 -50.5 0 1 131.95 75.23
  L 133.22 75.77
  Q 133.74 75.99 133.52 75.46
  Q 132.53 73.08 130.41 74.46
  A 0.79 0.78 43.2 0 1 129.59 74.48
  Q 128.25 73.70 126.91 74.48
  A 0.72 0.68 48.6 0 1 126.13 74.41
  Q 125.00 73.53 123.88 74.41
  A 0.88 0.72 -48.3 0 1 123.04 74.54
  L 122.01 74.04
  A 0.72 0.70 -53.0 0 0 121.22 74.16
  Q 119.83 75.43 118.72 74.03
  A 0.90 0.90 -46.9 0 0 117.28 74.08
  Q 115.58 76.54 118.10 75.20
  A 0.64 0.63 -36.5 0 1 118.82 75.30
  Q 119.85 76.29 121.12 75.33
  A 0.89 0.69 -46.8 0 1 121.97 75.20
  L 122.89 75.68
  A 0.72 0.72 38.4 0 0 123.67 75.59
  Q 124.80 74.64 126.10 75.46
  A 1.10 0.88 47.3 0 0 126.97 75.59
  L 127.97 75.24
  A 1.04 0.88 48.6 0 1 128.84 75.37"
/>
<path stroke="#818182" vector-effect="non-scaling-stroke" d="
  M 119.02 77.53
  Q 117.98 76.33 116.95 78.19
  Q 115.79 80.28 117.27 78.77
  Q 118.49 77.51 119.32 78.95
  Q 119.97 80.09 120.57 78.92
  Q 121.43 77.28 122.56 78.88
  A 0.67 0.67 -34.9 0 0 123.49 79.04
  Q 125.20 77.84 126.41 78.89
  A 0.55 0.53 45.8 0 0 127.11 78.91
  Q 127.62 78.49 128.25 78.33
  A 0.93 0.72 58.9 0 1 129.05 78.64
  Q 129.97 79.66 130.93 78.64
  A 0.82 0.53 -50.9 0 1 131.74 78.38
  L 133.07 79.11
  Q 133.44 79.31 133.38 78.94
  Q 132.96 76.49 130.52 77.78
  Q 129.45 78.34 128.91 77.52
  A 0.67 0.44 57.5 0 0 128.20 77.20
  L 127.37 77.66
  A 0.93 0.63 -39.7 0 1 126.58 77.74
  Q 125.08 76.94 123.67 77.73
  A 0.98 0.78 -41.8 0 1 122.81 77.78
  L 121.99 77.32
  A 0.74 0.71 -49.5 0 0 121.20 77.40
  Q 120.57 77.90 119.81 77.95
  A 1.12 0.72 60.8 0 1 119.02 77.53"
/>
<path stroke="#818182" vector-effect="non-scaling-stroke" d="
  M 49.63 74.43
  Q 47.77 73.48 46.53 75.09
  A 0.52 0.43 -58.1 0 0 46.63 75.83
  Q 46.92 75.96 47.24 75.69
  A 1.40 0.81 -53.8 0 1 48.06 75.33
  Q 55.16 75.53 62.25 75.44
  Q 62.55 75.44 62.84 75.55
  Q 64.55 76.17 63.04 74.66
  A 1.31 0.93 60.2 0 0 62.20 74.27
  L 56.93 74.48
  Q 56.41 74.51 56.01 74.30
  Q 54.87 73.72 53.88 74.43
  A 0.75 0.74 -47.9 0 1 53.08 74.48
  Q 51.81 73.78 50.49 74.44
  A 0.93 0.92 45.3 0 1 49.63 74.43"
/>
<path stroke="#d28284" vector-effect="non-scaling-stroke" d="
  M 63.9634 78.9255
  A 1.14 1.14 0.0 0 0 62.8254 77.7835
  L 47.3854 77.7565
  A 1.14 1.14 0.0 0 0 46.2434 78.8945
  L 46.2366 82.7745
  A 1.14 1.14 0.0 0 0 47.3746 83.9165
  L 62.8146 83.9435
  A 1.14 1.14 0.0 0 0 63.9566 82.8055
  L 63.9634 78.9255"
/>
<path stroke="#d28284" vector-effect="non-scaling-stroke" d="
  M 97.1737 78.7125
  A 0.93 0.93 0.0 0 0 96.2454 77.7808
  L 83.8254 77.7592
  A 0.93 0.93 0.0 0 0 82.8938 78.6875
  L 82.8863 82.9875
  A 0.93 0.93 0.0 0 0 83.8146 83.9192
  L 96.2346 83.9408
  A 0.93 0.93 0.0 0 0 97.1662 83.0125
  L 97.1737 78.7125"
/>
<path stroke="#cd6c6f" vector-effect="non-scaling-stroke" d="
  M 62.9092 79.5547
  A 0.58 0.58 0.0 0 0 62.3332 78.9707
  L 47.8336 78.8694
  A 0.58 0.58 0.0 0 0 47.2495 79.4454
  L 47.2308 82.1253
  A 0.58 0.58 0.0 0 0 47.8068 82.7093
  L 62.3064 82.8106
  A 0.58 0.58 0.0 0 0 62.8905 82.2346
  L 62.9092 79.5547"
/>
<path stroke="#cd6c6f" vector-effect="non-scaling-stroke" d="
  M 96.12 79.33
  A 0.40 0.40 0.0 0 0 95.72 78.93
  L 84.42 78.93
  A 0.40 0.40 0.0 0 0 84.02 79.33
  L 84.02 82.35
  A 0.40 0.40 0.0 0 0 84.42 82.75
  L 95.72 82.75
  A 0.40 0.40 0.0 0 0 96.12 82.35
  L 96.12 79.33"
/>
<path stroke="#e58e8f" vector-effect="non-scaling-stroke" d="
  M 133.97 85.63
  A 1.13 1.13 0.0 0 0 132.84 84.50
  L 117.18 84.50
  A 1.13 1.13 0.0 0 0 116.05 85.63
  L 116.05 89.37
  A 1.13 1.13 0.0 0 0 117.18 90.50
  L 132.84 90.50
  A 1.13 1.13 0.0 0 0 133.97 89.37
  L 133.97 85.63"
/>
<path stroke="#df777a" vector-effect="non-scaling-stroke" d="
  M 132.76 86.02
  A 0.52 0.52 0.0 0 0 132.24 85.50
  L 117.78 85.50
  A 0.52 0.52 0.0 0 0 117.26 86.02
  L 117.26 88.98
  A 0.52 0.52 0.0 0 0 117.78 89.50
  L 132.24 89.50
  A 0.52 0.52 0.0 0 0 132.76 88.98
  L 132.76 86.02"
/>
</g>
<path fill="#bbbcbc" fill-opacity="0.996" d="
  M 101.25 7.92
  Q 95.89 8.13 90.60 8.05
  Q 90.43 8.05 85.43 8.31
  Q 82.19 8.48 78.88 7.54
  Q 90.11 5.90 101.25 7.92
  Z"
/>
<path fill="#0e1010" d="
  M 78.88 7.54
  Q 82.19 8.48 85.43 8.31
  Q 90.43 8.05 90.60 8.05
  Q 95.89 8.13 101.25 7.92
  L 101.04 37.25
  Q 96.65 36.38 92.30 37.44
  A 0.49 0.49 -14.7 0 0 91.94 38.05
  Q 92.77 41.09 94.25 42.75
  Q 95.78 44.47 94.75 46.21
  Q 93.25 46.00 91.90 46.49
  A 0.81 0.75 -10.1 0 0 91.38 47.18
  L 91.16 52.39
  Q 108.67 53.76 126.26 52.60
  L 126.02 57.20
  Q 130.95 58.84 136.19 58.36
  A 0.54 0.54 -6.9 0 1 136.77 58.81
  Q 137.16 61.46 137.04 64.11
  Q 136.83 68.61 136.88 69.89
  Q 137.37 81.65 137.01 93.07
  A 1.03 1.00 1.1 0 1 135.97 94.04
  L 113.84 93.93
  A 0.65 0.63 -0.9 0 1 113.19 93.32
  Q 112.66 75.93 113.29 58.56
  A 0.48 0.48 3.4 0 1 113.81 58.10
  Q 120.94 58.54 123.31 58.06
  Q 125.12 57.70 123.75 56.71
  Q 124.22 56.17 123.79 55.50
  Q 124.39 54.88 123.83 54.35
  A 1.39 0.84 -13.9 0 0 122.93 54.07
  L 91.81 54.31
  A 1.05 0.78 11.5 0 0 90.98 54.70
  Q 90.65 55.24 91.25 55.54
  Q 91.01 56.11 91.25 56.71
  Q 90.74 56.47 90.50 56.73
  A 0.46 0.35 26.6 0 0 90.80 57.35
  Q 95.72 58.96 101.18 57.84
  L 101.21 86.75
  L 79.50 86.96
  L 79.50 58.29
  L 87.83 58.18
  A 1.74 1.72 -72.8 0 0 89.23 57.43
  Q 89.81 56.59 88.75 56.71
  Q 89.12 56.20 89.00 55.54
  Q 89.53 54.91 89.11 54.49
  Q 88.87 54.25 88.31 54.24
  Q 72.42 53.94 56.34 54.62
  L 56.22 57.32
  Q 60.80 58.64 65.86 58.20
  A 0.99 0.99 86.2 0 1 66.94 59.15
  Q 67.16 65.32 66.93 71.53
  Q 66.86 73.46 67.21 78.95
  Q 67.45 82.70 66.78 86.45
  A 0.62 0.55 4.4 0 1 66.18 86.91
  L 45.01 87.05
  A 1.79 1.67 -0.5 0 1 43.21 85.40
  L 43.02 59.14
  A 0.90 0.88 -0.3 0 1 43.92 58.25
  Q 48.97 58.25 52.83 58.09
  Q 53.40 58.06 53.75 57.88
  Q 54.69 57.39 53.75 56.71
  L 53.79 53.25
  Q 67.29 52.90 87.75 53.00
  Q 89.36 53.01 88.75 51.71
  L 88.75 47.43
  A 1.41 1.26 0.7 0 0 87.37 46.17
  L 84.71 46.10
  Q 84.86 43.07 86.50 41.25
  Q 87.92 39.68 87.96 38.00
  Q 88.21 37.24 87.57 37.17
  Q 83.25 36.71 78.96 37.25
  L 78.88 7.54
  Z
  M 99.0529 9.8238
  A 0.66 0.66 0.0 0 0 98.3975 9.1592
  L 81.4579 9.0409
  A 0.66 0.66 0.0 0 0 80.7933 9.6963
  L 80.7671 13.4562
  A 0.66 0.66 0.0 0 0 81.4225 14.1208
  L 98.3621 14.2391
  A 0.66 0.66 0.0 0 0 99.0267 13.5837
  L 99.0529 9.8238
  Z
  M 99.0253 16.4763
  A 0.69 0.69 0.0 0 0 98.3305 15.7912
  L 81.4509 15.9090
  A 0.69 0.69 0.0 0 0 80.7657 16.6038
  L 80.8147 23.6237
  A 0.69 0.69 0.0 0 0 81.5095 24.3088
  L 98.3891 24.1910
  A 0.69 0.69 0.0 0 0 99.0743 23.4962
  L 99.0253 16.4763
  Z
  M 99.0259 26.1522
  A 0.42 0.42 0.0 0 0 98.6038 25.7344
  L 81.1640 25.8257
  A 0.42 0.42 0.0 0 0 80.7462 26.2479
  L 80.7941 35.3878
  A 0.42 0.42 0.0 0 0 81.2162 35.8056
  L 98.6560 35.7143
  A 0.42 0.42 0.0 0 0 99.0738 35.2921
  L 99.0259 26.1522
  Z
  M 89.63 39.10
  L 87.01 43.47
  Q 86.69 44.00 87.32 43.98
  L 92.75 43.82
  A 0.33 0.33 73.7 0 0 93.02 43.32
  L 90.59 39.14
  A 0.57 0.54 45.8 0 0 89.63 39.10
  Z
  M 65.8137 59.5690
  A 0.43 0.43 0.0 0 0 65.3845 59.1382
  L 44.5245 59.1018
  A 0.43 0.43 0.0 0 0 44.0937 59.5310
  L 44.0863 63.7910
  A 0.43 0.43 0.0 0 0 44.5155 64.2218
  L 65.3755 64.2582
  A 0.43 0.43 0.0 0 0 65.8063 63.8290
  L 65.8137 59.5690
  Z
  M 99.07 59.55
  A 0.44 0.44 0.0 0 0 98.63 59.11
  L 81.19 59.11
  A 0.44 0.44 0.0 0 0 80.75 59.55
  L 80.75 63.81
  A 0.44 0.44 0.0 0 0 81.19 64.25
  L 98.63 64.25
  A 0.44 0.44 0.0 0 0 99.07 63.81
  L 99.07 59.55
  Z
  M 135.7965 59.6611
  A 0.55 0.55 0.0 0 0 135.2455 59.1120
  L 114.6456 59.1480
  A 0.55 0.55 0.0 0 0 114.0965 59.6989
  L 114.1035 63.6989
  A 0.55 0.55 0.0 0 0 114.6545 64.2480
  L 135.2544 64.2120
  A 0.55 0.55 0.0 0 0 135.8035 63.6611
  L 135.7965 59.6611
  Z
  M 65.8162 66.1811
  A 0.44 0.44 0.0 0 0 65.3754 65.7419
  L 44.5755 65.7782
  A 0.44 0.44 0.0 0 0 44.1362 66.2189
  L 44.1438 70.5589
  A 0.44 0.44 0.0 0 0 44.5846 70.9981
  L 65.3845 70.9618
  A 0.44 0.44 0.0 0 0 65.8238 70.5211
  L 65.8162 66.1811
  Z
  M 99.0869 66.0660
  A 0.30 0.30 0.0 0 0 98.7874 65.7655
  L 81.0674 65.7345
  A 0.30 0.30 0.0 0 0 80.7669 66.0340
  L 80.7531 73.9340
  A 0.30 0.30 0.0 0 0 81.0526 74.2345
  L 98.7726 74.2655
  A 0.30 0.30 0.0 0 0 99.0731 73.9660
  L 99.0869 66.0660
  Z
  M 135.8621 66.4589
  A 0.69 0.69 0.0 0 0 135.1733 65.7677
  L 114.8933 65.7323
  A 0.69 0.69 0.0 0 0 114.2021 66.4211
  L 114.1779 80.2811
  A 0.69 0.69 0.0 0 0 114.8667 80.9723
  L 135.1467 81.0077
  A 0.69 0.69 0.0 0 0 135.8379 80.3189
  L 135.8621 66.4589
  Z
  M 65.8410 72.7789
  A 0.42 0.42 0.0 0 0 65.4217 72.3582
  L 44.5617 72.3218
  A 0.42 0.42 0.0 0 0 44.1410 72.7411
  L 44.1190 85.3411
  A 0.42 0.42 0.0 0 0 44.5383 85.7618
  L 65.3983 85.7982
  A 0.42 0.42 0.0 0 0 65.8190 85.3789
  L 65.8410 72.7789
  Z
  M 99.0352 76.0022
  A 0.27 0.27 0.0 0 0 98.7638 75.7336
  L 81.0040 75.8266
  A 0.27 0.27 0.0 0 0 80.7354 76.0980
  L 80.7848 85.5378
  A 0.27 0.27 0.0 0 0 81.0562 85.8064
  L 98.8160 85.7134
  A 0.27 0.27 0.0 0 0 99.0846 85.4420
  L 99.0352 76.0022
  Z
  M 135.75 82.73
  A 0.26 0.26 0.0 0 0 135.49 82.47
  L 114.49 82.47
  A 0.26 0.26 0.0 0 0 114.23 82.73
  L 114.23 92.25
  A 0.26 0.26 0.0 0 0 114.49 92.51
  L 135.49 92.51
  A 0.26 0.26 0.0 0 0 135.75 92.25
  L 135.75 82.73
  Z"
/>
<path fill="#ffffff" d="
  M 99.0267 13.5837
  A 0.66 0.66 0.0 0 1 98.3621 14.2391
  L 81.4225 14.1208
  A 0.66 0.66 0.0 0 1 80.7671 13.4562
  L 80.7933 9.6963
  A 0.66 0.66 0.0 0 1 81.4579 9.0409
  L 98.3975 9.1592
  A 0.66 0.66 0.0 0 1 99.0529 9.8238
  L 99.0267 13.5837
  Z
  M 89.20 11.99
  Q 89.91 12.92 90.90 12.09
  A 0.90 0.84 32.6 0 1 91.71 11.94
  L 93.25 12.40
  A 0.97 0.69 -53.5 0 0 94.08 12.13
  Q 94.98 11.28 95.81 12.19
  Q 96.33 12.75 96.80 12.70
  A 0.48 0.39 72.4 0 0 97.06 12.04
  Q 96.11 9.99 94.05 11.13
  Q 92.99 11.71 92.28 10.65
  A 0.75 0.75 48.2 0 0 91.07 10.58
  Q 89.87 12.03 88.79 10.66
  A 0.57 0.48 -33.0 0 0 88.13 10.58
  L 86.79 11.31
  A 0.77 0.52 52.5 0 1 86.01 11.05
  Q 84.66 9.52 83.43 11.48
  Q 82.20 13.43 84.06 12.31
  Q 85.13 11.67 85.89 12.17
  A 1.09 0.69 45.1 0 0 86.73 12.36
  L 88.48 11.75
  A 0.66 0.62 61.5 0 1 89.20 11.99
  Z"
/>
<path fill="#0e1010" d="
  M 88.48 11.75
  L 86.73 12.36
  A 1.09 0.69 45.1 0 1 85.89 12.17
  Q 85.13 11.67 84.06 12.31
  Q 82.20 13.43 83.43 11.48
  Q 84.66 9.52 86.01 11.05
  A 0.77 0.52 52.5 0 0 86.79 11.31
  L 88.13 10.58
  A 0.57 0.48 -33.0 0 1 88.79 10.66
  Q 89.87 12.03 91.07 10.58
  A 0.75 0.75 48.2 0 1 92.28 10.65
  Q 92.99 11.71 94.05 11.13
  Q 96.11 9.99 97.06 12.04
  A 0.48 0.39 72.4 0 1 96.80 12.70
  Q 96.33 12.75 95.81 12.19
  Q 94.98 11.28 94.08 12.13
  A 0.97 0.69 -53.5 0 1 93.25 12.40
  L 91.71 11.94
  A 0.90 0.84 32.6 0 0 90.90 12.09
  Q 89.91 12.92 89.20 11.99
  A 0.66 0.62 61.5 0 0 88.48 11.75
  Z"
/>
<path fill="#ffffff" d="
  M 99.0743 23.4962
  A 0.69 0.69 0.0 0 1 98.3891 24.1910
  L 81.5095 24.3088
  A 0.69 0.69 0.0 0 1 80.8147 23.6237
  L 80.7657 16.6038
  A 0.69 0.69 0.0 0 1 81.4509 15.9090
  L 98.3305 15.7912
  A 0.69 0.69 0.0 0 1 99.0253 16.4763
  L 99.0743 23.4962
  Z
  M 89.60 17.71
  Q 88.47 17.02 87.20 17.53
  A 1.28 1.25 -45.6 0 1 86.28 17.55
  Q 84.35 16.81 83.19 18.45
  A 0.85 0.76 -36.1 0 0 83.05 19.10
  Q 83.20 19.72 83.61 19.13
  Q 84.72 17.52 86.07 18.95
  A 0.84 0.84 43.1 0 0 87.32 18.91
  Q 88.38 17.66 89.17 18.65
  A 1.18 0.60 59.5 0 0 89.92 19.13
  Q 90.51 19.12 90.95 18.65
  A 0.82 0.54 -52.7 0 1 91.73 18.38
  L 93.08 18.98
  A 0.68 0.60 32.0 0 0 93.81 18.86
  Q 94.93 17.69 96.18 19.07
  Q 97.38 20.38 96.74 18.72
  Q 95.86 16.47 93.76 17.73
  Q 93.01 18.19 92.49 17.70
  A 1.20 0.63 52.4 0 0 91.69 17.33
  Q 91.02 17.40 90.42 17.73
  A 0.82 0.80 -43.1 0 1 89.60 17.71
  Z
  M 91.53 21.74
  L 93.27 22.35
  A 0.84 0.74 -56.4 0 0 94.08 22.13
  Q 95.16 21.08 96.05 22.27
  A 0.66 0.47 54.7 0 0 96.79 22.53
  Q 97.49 22.08 95.23 20.84
  A 0.84 0.82 -47.7 0 0 94.35 20.89
  Q 93.17 21.73 92.36 20.67
  A 0.83 0.83 42.8 0 0 91.00 20.72
  Q 90.00 22.27 88.91 20.59
  A 0.67 0.66 47.0 0 0 87.82 20.55
  Q 86.53 22.29 85.59 20.80
  A 0.50 0.50 -33.7 0 0 84.88 20.66
  Q 83.14 21.85 83.17 22.41
  Q 83.22 23.01 83.80 22.35
  Q 84.73 21.32 85.87 22.17
  A 1.04 0.74 47.7 0 0 86.73 22.36
  L 88.30 21.72
  A 0.65 0.62 -28.8 0 1 89.03 21.91
  Q 89.98 23.11 90.80 21.99
  A 0.67 0.63 -62.1 0 1 91.53 21.74
  Z"
/>
<path fill="#030304" d="
  M 90.42 17.73
  Q 91.02 17.40 91.69 17.33
  A 1.20 0.63 52.4 0 1 92.49 17.70
  Q 93.01 18.19 93.76 17.73
  Q 95.86 16.47 96.74 18.72
  Q 97.38 20.38 96.18 19.07
  Q 94.93 17.69 93.81 18.86
  A 0.68 0.60 32.0 0 1 93.08 18.98
  L 91.73 18.38
  A 0.82 0.54 -52.7 0 0 90.95 18.65
  Q 90.51 19.12 89.92 19.13
  A 1.18 0.60 59.5 0 1 89.17 18.65
  Q 88.38 17.66 87.32 18.91
  A 0.84 0.84 43.1 0 1 86.07 18.95
  Q 84.72 17.52 83.61 19.13
  Q 83.20 19.72 83.05 19.10
  A 0.85 0.76 -36.1 0 1 83.19 18.45
  Q 84.35 16.81 86.28 17.55
  A 1.28 1.25 -45.6 0 0 87.20 17.53
  Q 88.47 17.02 89.60 17.71
  A 0.82 0.80 -43.1 0 0 90.42 17.73
  Z"
/>
<path fill="#030304" d="
  M 90.80 21.99
  Q 89.98 23.11 89.03 21.91
  A 0.65 0.62 -28.8 0 0 88.30 21.72
  L 86.73 22.36
  A 1.04 0.74 47.7 0 1 85.87 22.17
  Q 84.73 21.32 83.80 22.35
  Q 83.22 23.01 83.17 22.41
  Q 83.14 21.85 84.88 20.66
  A 0.50 0.50 -33.7 0 1 85.59 20.80
  Q 86.53 22.29 87.82 20.55
  A 0.67 0.66 47.0 0 1 88.91 20.59
  Q 90.00 22.27 91.00 20.72
  A 0.83 0.83 42.8 0 1 92.36 20.67
  Q 93.17 21.73 94.35 20.89
  A 0.84 0.82 -47.7 0 1 95.23 20.84
  Q 97.49 22.08 96.79 22.53
  A 0.66 0.47 54.7 0 1 96.05 22.27
  Q 95.16 21.08 94.08 22.13
  A 0.84 0.74 -56.4 0 1 93.27 22.35
  L 91.53 21.74
  A 0.67 0.63 -62.1 0 0 90.80 21.99
  Z"
/>
<path fill="#ca1c1e" d="
  M 43.50 30.29
  L 42.67 30.01
  A 0.87 0.49 -86.1 0 1 42.31 29.25
  Q 42.30 28.42 41.47 28.08
  Q 40.03 27.51 40.50 28.96
  Q 34.99 30.67 30.56 34.37
  A 0.84 0.75 -51.4 0 1 29.73 34.51
  Q 27.60 33.57 29.75 31.75
  Q 33.67 28.42 38.52 26.75
  Q 38.65 26.70 39.62 26.49
  Q 40.97 26.19 40.66 24.92
  Q 40.23 23.12 41.88 23.72
  L 47.31 25.68
  Q 49.15 26.34 47.51 27.49
  L 43.50 30.29
  Z"
/>
<path fill="#ffffff" d="
  M 99.0738 35.2921
  A 0.42 0.42 0.0 0 1 98.6560 35.7143
  L 81.2162 35.8056
  A 0.42 0.42 0.0 0 1 80.7941 35.3878
  L 80.7462 26.2479
  A 0.42 0.42 0.0 0 1 81.1640 25.8257
  L 98.6038 25.7344
  A 0.42 0.42 0.0 0 1 99.0259 26.1522
  L 99.0738 35.2921
  Z
  M 97.1971 28.8548
  A 1.08 1.08 0.0 0 0 96.1209 27.7710
  L 84.0809 27.7290
  A 1.08 1.08 0.0 0 0 82.9972 28.8052
  L 82.9829 32.8852
  A 1.08 1.08 0.0 0 0 84.0591 33.9690
  L 96.0991 34.0110
  A 1.08 1.08 0.0 0 0 97.1828 32.9348
  L 97.1971 28.8548
  Z"
/>
<path fill="#e2574e" fill-opacity="0.988" d="
  M 43.50 30.29
  Q 41.45 31.73 40.50 28.96
  Q 40.03 27.51 41.47 28.08
  Q 42.30 28.42 42.31 29.25
  A 0.87 0.49 -86.1 0 0 42.67 30.01
  L 43.50 30.29
  Z"
/>
<path fill="#a50508" d="
  M 97.1828 32.9348
  A 1.08 1.08 0.0 0 1 96.0991 34.0110
  L 84.0591 33.9690
  A 1.08 1.08 0.0 0 1 82.9829 32.8852
  L 82.9972 28.8052
  A 1.08 1.08 0.0 0 1 84.0809 27.7290
  L 96.1209 27.7710
  A 1.08 1.08 0.0 0 1 97.1971 28.8548
  L 97.1828 32.9348
  Z
  M 96.0753 29.3111
  A 0.38 0.38 0.0 0 0 95.6967 28.9297
  L 84.3967 28.8903
  A 0.38 0.38 0.0 0 0 84.0154 29.2690
  L 84.0047 32.3489
  A 0.38 0.38 0.0 0 0 84.3833 32.7303
  L 95.6833 32.7697
  A 0.38 0.38 0.0 0 0 96.0646 32.3910
  L 96.0753 29.3111
  Z"
/>
<rect fill="#f4d2d5" x="-6.03" y="-1.92" transform="translate(90.04,30.83) rotate(0.2)" width="12.06" height="3.84" rx="0.38"/>
<path fill="#ca1c1e" d="
  M 24.7199 59.7939
  A 1.49 1.49 0.0 0 1 23.2273 61.2813
  L 10.2073 61.2586
  A 1.49 1.49 0.0 0 1 8.7199 59.7660
  L 8.7601 36.7461
  A 1.49 1.49 0.0 0 1 10.2527 35.2587
  L 23.2727 35.2814
  A 1.49 1.49 0.0 0 1 24.7601 36.7740
  L 24.7199 59.7939
  Z
  M 22.46 55.50
  L 22.56 38.19
  A 0.55 0.50 90.0 0 0 22.06 37.64
  L 16.00 37.54
  L 11.62 37.51
  A 0.63 0.61 -89.1 0 0 11.00 38.13
  L 10.75 58.26
  A 0.70 0.67 -90.0 0 0 11.43 58.97
  L 21.81 58.85
  A 0.61 0.53 -0.1 0 0 22.41 58.33
  L 22.46 55.50
  Z"
/>
<path fill="#bbbcbc" fill-opacity="0.996" d="
  M 101.04 37.25
  Q 98.31 38.49 94.36 37.86
  Q 92.21 37.51 93.24 39.43
  Q 94.59 41.99 95.82 44.13
  Q 96.92 46.06 94.75 46.21
  Q 95.78 44.47 94.25 42.75
  Q 92.77 41.09 91.94 38.05
  A 0.49 0.49 -14.7 0 1 92.30 37.44
  Q 96.65 36.38 101.04 37.25
  Z"
/>
<path fill="#bbbcbc" fill-opacity="0.996" d="
  M 87.96 38.00
  Q 87.67 38.26 87.29 38.25
  Q 84.28 37.72 82.25 38.00
  Q 80.23 38.28 78.96 37.25
  Q 83.25 36.71 87.57 37.17
  Q 88.21 37.24 87.96 38.00
  Z"
/>
<path fill="#f4d2d5" d="
  M 16.00 37.54
  Q 13.84 37.36 14.24 38.33
  Q 14.53 39.01 14.54 39.25
  L 15.03 53.89
  A 1.10 0.98 -88.6 0 0 15.92 54.94
  L 22.46 55.50
  L 22.41 58.33
  A 0.61 0.53 -0.1 0 1 21.81 58.85
  L 11.43 58.97
  A 0.70 0.67 -90.0 0 1 10.75 58.26
  L 11.00 38.13
  A 0.63 0.61 -89.1 0 1 11.62 37.51
  L 16.00 37.54
  Z"
/>
<path fill="#ffffff" d="
  M 16.00 37.54
  L 22.06 37.64
  A 0.55 0.50 90.0 0 1 22.56 38.19
  L 22.46 55.50
  L 15.92 54.94
  A 1.10 0.98 -88.6 0 1 15.03 53.89
  L 14.54 39.25
  Q 14.53 39.01 14.24 38.33
  Q 13.84 37.36 16.00 37.54
  Z"
/>
<path fill="#808079" d="
  M 87.96 38.00
  Q 87.92 39.68 86.50 41.25
  Q 84.86 43.07 84.71 46.10
  Q 83.26 45.49 83.81 44.56
  Q 86.33 40.30 87.29 38.25
  Q 87.67 38.26 87.96 38.00
  Z"
/>
<path fill="#ffffff" d="
  M 89.63 39.10
  A 0.57 0.54 45.8 0 1 90.59 39.14
  L 93.02 43.32
  A 0.33 0.33 73.7 0 1 92.75 43.82
  L 87.32 43.98
  Q 86.69 44.00 87.01 43.47
  L 89.63 39.10
  Z"
/>
<path fill="#e2574e" fill-opacity="0.988" d="
  M 41.75 48.21
  L 43.54 46.98
  A 0.43 0.42 -39.9 0 0 43.61 46.32
  L 40.18 43.06
  Q 39.25 42.17 39.00 43.49
  Q 38.68 45.23 37.02 45.08
  Q 36.07 45.00 35.96 45.00
  Q 34.08 44.97 32.25 44.54
  Q 34.23 44.18 36.25 44.32
  Q 38.45 44.47 38.34 42.71
  Q 38.21 40.81 39.74 41.95
  Q 41.83 43.50 43.50 45.13
  Q 44.57 46.16 44.43 47.07
  Q 44.22 48.45 41.75 48.21
  Z"
/>
<path fill="#ca1c1e" d="
  M 41.75 48.21
  Q 41.53 48.40 41.25 48.46
  L 38.93 48.12
  A 0.60 0.59 2.4 0 1 38.42 47.57
  Q 38.28 44.87 36.46 46.75
  Q 33.83 46.76 30.56 47.81
  Q 28.89 48.35 28.80 46.81
  A 1.06 0.95 -23.3 0 1 29.18 45.98
  Q 30.48 44.86 32.25 44.54
  Q 34.08 44.97 35.96 45.00
  Q 36.07 45.00 37.02 45.08
  Q 38.68 45.23 39.00 43.49
  Q 39.25 42.17 40.18 43.06
  L 43.61 46.32
  A 0.43 0.42 -39.9 0 1 43.54 46.98
  L 41.75 48.21
  Z"
/>
<path fill="#e2574e" fill-opacity="0.988" d="
  M 41.25 48.46
  Q 37.56 50.31 36.46 46.75
  Q 38.28 44.87 38.42 47.57
  A 0.60 0.59 2.4 0 0 38.93 48.12
  L 41.25 48.46
  Z"
/>
<path fill="#808079" d="
  M 88.75 51.71
  Q 89.36 53.01 87.75 53.00
  Q 67.29 52.90 53.79 53.25
  Q 54.22 51.90 56.50 52.00
  Q 66.26 52.42 88.75 51.71
  Z"
/>
<path fill="#808079" d="
  M 91.16 52.39
  Q 108.72 51.26 126.26 52.60
  Q 108.67 53.76 91.16 52.39
  Z"
/>
<path fill="#585f57" fill-opacity="0.996" d="
  M 89.00 55.54
  Q 88.07 54.70 86.00 54.75
  Q 78.31 54.95 56.34 54.62
  Q 72.42 53.94 88.31 54.24
  Q 88.87 54.25 89.11 54.49
  Q 89.53 54.91 89.00 55.54
  Z"
/>
<path fill="#808079" d="
  M 123.79 55.50
  Q 123.03 54.69 122.31 54.69
  Q 107.52 54.75 92.74 54.81
  Q 92.29 54.81 91.95 55.03
  Q 91.58 55.26 91.25 55.54
  Q 90.65 55.24 90.98 54.70
  A 1.05 0.78 11.5 0 1 91.81 54.31
  L 122.93 54.07
  A 1.39 0.84 -13.9 0 1 123.83 54.35
  Q 124.39 54.88 123.79 55.50
  Z"
/>
<path fill="#d12f2f" fill-opacity="0.996" d="
  M 31.23 60.10
  Q 29.48 59.26 27.91 58.10
  Q 26.28 56.90 27.46 55.77
  A 1.68 1.67 48.0 0 1 29.89 55.90
  Q 32.38 58.82 34.50 56.61
  A 0.51 0.50 -45.8 0 1 35.22 56.59
  L 39.04 60.46
  Q 40.81 62.25 38.36 62.91
  Q 36.05 63.54 32.94 63.35
  A 0.82 0.62 -2.7 0 1 32.23 62.86
  L 31.72 60.82
  A 1.14 0.73 88.5 0 0 31.23 60.10
  Z"
/>
<path fill="#bbbcbc" fill-opacity="0.996" d="
  M 91.25 56.71
  Q 96.21 56.57 101.18 57.84
  Q 95.72 58.96 90.80 57.35
  A 0.46 0.35 26.6 0 1 90.50 56.73
  Q 90.74 56.47 91.25 56.71
  Z"
/>
<path fill="#bbbcbc" fill-opacity="0.996" d="
  M 53.75 56.71
  Q 54.69 57.39 53.75 57.88
  Q 53.40 58.06 52.83 58.09
  Q 48.97 58.25 43.92 58.25
  A 0.90 0.88 -0.3 0 0 43.02 59.14
  L 43.21 85.40
  A 1.79 1.67 -0.5 0 0 45.01 87.05
  L 66.18 86.91
  A 0.62 0.55 4.4 0 0 66.78 86.45
  Q 67.45 82.70 67.21 78.95
  Q 66.86 73.46 66.93 71.53
  Q 67.16 65.32 66.94 59.15
  A 0.99 0.99 86.2 0 0 65.86 58.20
  Q 60.80 58.64 56.22 57.32
  L 66.45 57.05
  A 1.64 1.51 89.3 0 1 68.00 58.69
  L 68.00 86.51
  A 1.24 1.24 0.0 0 1 66.76 87.75
  L 43.18 87.75
  A 1.12 1.11 -0.3 0 1 42.06 86.65
  L 42.00 59.10
  Q 41.99 57.02 44.25 56.96
  L 53.75 56.71
  Z"
/>
<path fill="#bbbcbc" fill-opacity="0.996" d="
  M 88.75 56.71
  Q 89.81 56.59 89.23 57.43
  A 1.74 1.72 -72.8 0 1 87.83 58.18
  L 79.50 58.29
  L 78.79 58.25
  Q 78.76 57.88 78.91 57.61
  A 1.11 0.64 5.8 0 1 79.75 57.23
  L 88.75 56.71
  Z"
/>
<path fill="#bbbcbc" fill-opacity="0.996" d="
  M 123.75 56.71
  Q 125.12 57.70 123.31 58.06
  Q 120.94 58.54 113.81 58.10
  A 0.48 0.48 3.4 0 0 113.29 58.56
  Q 112.66 75.93 113.19 93.32
  A 0.65 0.63 -0.9 0 0 113.84 93.93
  L 135.97 94.04
  A 1.03 1.00 1.1 0 0 137.01 93.07
  Q 137.37 81.65 136.88 69.89
  Q 136.83 68.61 137.04 64.11
  Q 137.16 61.46 136.77 58.81
  A 0.54 0.54 -6.9 0 0 136.19 58.36
  Q 130.95 58.84 126.02 57.20
  Q 131.92 56.66 136.98 57.22
  A 1.15 1.14 -86.9 0 1 138.00 58.36
  Q 138.00 74.46 138.00 89.94
  Q 138.00 90.06 138.11 91.54
  Q 138.35 94.91 134.25 94.75
  Q 124.38 94.37 113.47 94.51
  A 1.45 1.45 -0.4 0 1 112.00 93.06
  Q 112.00 76.82 112.00 60.87
  Q 112.00 60.81 111.94 59.63
  Q 111.77 56.35 115.50 57.00
  Q 117.94 57.43 123.75 56.71
  Z"
/>
<path fill="#585f57" fill-opacity="0.996" d="
  M 78.79 58.25
  L 79.50 58.29
  L 79.50 86.96
  Q 79.34 86.89 79.00 87.91
  L 78.79 58.25
  Z"
/>
<path fill="#ffffff" d="
  M 65.8063 63.8290
  A 0.43 0.43 0.0 0 1 65.3755 64.2582
  L 44.5155 64.2218
  A 0.43 0.43 0.0 0 1 44.0863 63.7910
  L 44.0937 59.5310
  A 0.43 0.43 0.0 0 1 44.5245 59.1018
  L 65.3845 59.1382
  A 0.43 0.43 0.0 0 1 65.8137 59.5690
  L 65.8063 63.8290
  Z
  M 55.52 60.78
  Q 54.74 59.90 53.95 61.02
  A 0.62 0.52 -57.0 0 1 53.23 61.24
  L 51.91 60.53
  A 0.63 0.58 35.8 0 0 51.18 60.62
  Q 49.91 61.91 48.65 60.68
  A 0.62 0.57 48.5 0 0 47.90 60.60
  Q 46.65 61.51 46.44 61.94
  Q 45.89 63.06 48.50 61.65
  A 0.22 0.21 59.7 0 1 48.79 61.73
  Q 49.66 63.15 51.07 61.81
  A 0.61 0.60 41.8 0 1 51.85 61.77
  Q 53.25 62.85 54.37 62.08
  A 0.81 0.76 -48.1 0 1 55.18 62.01
  Q 56.72 62.80 58.15 61.87
  A 0.62 0.61 -40.2 0 1 58.90 61.93
  Q 60.02 62.95 61.16 61.87
  A 0.60 0.56 -49.0 0 1 61.90 61.79
  Q 64.96 63.95 62.69 61.06
  A 2.34 0.73 -17.2 0 0 60.56 61.06
  Q 59.46 61.36 58.65 60.67
  A 0.50 0.50 44.1 0 0 57.98 60.68
  Q 57.25 61.38 56.31 61.29
  A 1.43 0.71 59.4 0 1 55.52 60.78
  Z"
/>
<path fill="#ffffff" d="
  M 99.07 63.81
  A 0.44 0.44 0.0 0 1 98.63 64.25
  L 81.19 64.25
  A 0.44 0.44 0.0 0 1 80.75 63.81
  L 80.75 59.55
  A 0.44 0.44 0.0 0 1 81.19 59.11
  L 98.63 59.11
  A 0.44 0.44 0.0 0 1 99.07 59.55
  L 99.07 63.81
  Z
  M 91.47 61.84
  Q 93.12 62.85 94.65 61.97
  A 0.82 0.72 -42.0 0 1 95.47 61.96
  Q 98.38 63.84 96.19 61.31
  A 2.63 0.95 -19.8 0 0 93.81 61.31
  Q 92.96 61.58 92.31 60.63
  A 0.74 0.74 -44.4 0 0 91.09 60.62
  Q 90.01 62.18 88.79 60.65
  A 0.45 0.44 -40.2 0 0 88.15 60.60
  Q 86.75 61.89 85.43 60.79
  A 0.97 0.69 50.1 0 0 84.59 60.57
  Q 83.40 61.01 83.26 62.24
  Q 83.21 62.75 83.58 62.38
  Q 84.70 61.26 85.88 62.17
  A 1.03 0.69 47.4 0 0 86.74 62.38
  L 88.32 61.74
  A 0.62 0.58 -29.4 0 1 89.03 61.91
  Q 89.95 63.06 90.79 61.98
  A 0.53 0.51 -55.4 0 1 91.47 61.84
  Z"
/>
<path fill="#ffffff" d="
  M 135.8035 63.6611
  A 0.55 0.55 0.0 0 1 135.2544 64.2120
  L 114.6545 64.2480
  A 0.55 0.55 0.0 0 1 114.1035 63.6989
  L 114.0965 59.6989
  A 0.55 0.55 0.0 0 1 114.6456 59.1480
  L 135.2455 59.1120
  A 0.55 0.55 0.0 0 1 135.7965 59.6611
  L 135.8035 63.6611
  Z
  M 128.20 60.58
  A 0.35 0.35 31.5 0 0 127.73 60.69
  Q 126.72 62.22 125.53 60.64
  A 0.66 0.66 90.0 0 0 124.47 60.64
  Q 123.31 62.20 122.13 60.48
  A 0.47 0.46 -37.2 0 0 121.44 60.39
  Q 119.73 61.81 118.93 60.75
  A 0.68 0.51 57.8 0 0 118.22 60.48
  Q 117.03 60.99 116.43 62.12
  A 0.53 0.40 -63.1 0 0 116.55 62.78
  Q 116.83 62.91 117.08 62.55
  Q 118.34 60.75 119.53 62.39
  A 0.68 0.68 -49.3 0 0 120.69 62.30
  Q 121.38 60.96 122.21 61.79
  Q 123.30 62.88 124.38 62.09
  A 0.77 0.70 -48.8 0 1 125.17 62.00
  Q 126.81 62.86 128.30 61.86
  A 0.53 0.51 52.3 0 1 128.99 61.96
  Q 130.12 63.29 130.87 61.92
  A 0.53 0.52 29.6 0 1 131.61 61.72
  Q 134.90 63.69 132.39 60.65
  A 0.82 0.82 -49.4 0 0 131.05 60.76
  Q 130.39 61.86 128.20 60.58
  Z"
/>
<path fill="#030304" d="
  M 56.31 61.29
  Q 57.25 61.38 57.98 60.68
  A 0.50 0.50 44.1 0 1 58.65 60.67
  Q 59.46 61.36 60.56 61.06
  A 2.34 0.73 -17.2 0 1 62.69 61.06
  Q 64.96 63.95 61.90 61.79
  A 0.60 0.56 -49.0 0 0 61.16 61.87
  Q 60.02 62.95 58.90 61.93
  A 0.62 0.61 -40.2 0 0 58.15 61.87
  Q 56.72 62.80 55.18 62.01
  A 0.81 0.76 -48.1 0 0 54.37 62.08
  Q 53.25 62.85 51.85 61.77
  A 0.61 0.60 41.8 0 0 51.07 61.81
  Q 49.66 63.15 48.79 61.73
  A 0.22 0.21 59.7 0 0 48.50 61.65
  Q 45.89 63.06 46.44 61.94
  Q 46.65 61.51 47.90 60.60
  A 0.62 0.57 48.5 0 1 48.65 60.68
  Q 49.91 61.91 51.18 60.62
  A 0.63 0.58 35.8 0 1 51.91 60.53
  L 53.23 61.24
  A 0.62 0.52 -57.0 0 0 53.95 61.02
  Q 54.74 59.90 55.52 60.78
  A 1.43 0.71 59.4 0 0 56.31 61.29
  Z"
/>
<path fill="#030304" d="
  M 90.79 61.98
  Q 89.95 63.06 89.03 61.91
  A 0.62 0.58 -29.4 0 0 88.32 61.74
  L 86.74 62.38
  A 1.03 0.69 47.4 0 1 85.88 62.17
  Q 84.70 61.26 83.58 62.38
  Q 83.21 62.75 83.26 62.24
  Q 83.40 61.01 84.59 60.57
  A 0.97 0.69 50.1 0 1 85.43 60.79
  Q 86.75 61.89 88.15 60.60
  A 0.45 0.44 -40.2 0 1 88.79 60.65
  Q 90.01 62.18 91.09 60.62
  A 0.74 0.74 -44.4 0 1 92.31 60.63
  Q 92.96 61.58 93.81 61.31
  A 2.63 0.95 -19.8 0 1 96.19 61.31
  Q 98.38 63.84 95.47 61.96
  A 0.82 0.72 -42.0 0 0 94.65 61.97
  Q 93.12 62.85 91.47 61.84
  A 0.53 0.51 -55.4 0 0 90.79 61.98
  Z"
/>
<path fill="#030304" d="
  M 128.20 60.58
  Q 130.39 61.86 131.05 60.76
  A 0.82 0.82 -49.4 0 1 132.39 60.65
  Q 134.90 63.69 131.61 61.72
  A 0.53 0.52 29.6 0 0 130.87 61.92
  Q 130.12 63.29 128.99 61.96
  A 0.53 0.51 52.3 0 0 128.30 61.86
  Q 126.81 62.86 125.17 62.00
  A 0.77 0.70 -48.8 0 0 124.38 62.09
  Q 123.30 62.88 122.21 61.79
  Q 121.38 60.96 120.69 62.30
  A 0.68 0.68 -49.3 0 1 119.53 62.39
  Q 118.34 60.75 117.08 62.55
  Q 116.83 62.91 116.55 62.78
  A 0.53 0.40 -63.1 0 1 116.43 62.12
  Q 117.03 60.99 118.22 60.48
  A 0.68 0.51 57.8 0 1 118.93 60.75
  Q 119.73 61.81 121.44 60.39
  A 0.47 0.46 -37.2 0 1 122.13 60.48
  Q 123.31 62.20 124.47 60.64
  A 0.66 0.66 -0.0 0 1 125.53 60.64
  Q 126.72 62.22 127.73 60.69
  A 0.35 0.35 31.5 0 1 128.20 60.58
  Z"
/>
<path fill="#d12f2f" fill-opacity="0.996" d="
  M 27.13 73.68
  Q 27.96 73.06 28.95 72.88
  A 0.80 0.75 66.3 0 1 29.74 73.22
  L 32.44 77.06
  Q 34.53 80.06 30.81 79.69
  L 26.32 79.25
  A 1.16 0.93 -9.0 0 1 25.51 78.79
  Q 24.94 77.90 25.32 76.72
  A 0.77 0.70 -62.7 0 0 25.11 75.93
  Q 20.38 71.99 17.71 66.45
  A 1.43 1.05 47.0 0 1 17.60 65.52
  Q 17.95 64.21 19.22 64.62
  A 1.42 1.02 78.2 0 1 19.92 65.26
  Q 22.46 69.98 26.38 73.66
  A 0.59 0.56 -42.0 0 0 27.13 73.68
  Z"
/>
<path fill="#ffffff" d="
  M 65.8238 70.5211
  A 0.44 0.44 0.0 0 1 65.3845 70.9618
  L 44.5846 70.9981
  A 0.44 0.44 0.0 0 1 44.1438 70.5589
  L 44.1362 66.2189
  A 0.44 0.44 0.0 0 1 44.5755 65.7782
  L 65.3754 65.7419
  A 0.44 0.44 0.0 0 1 65.8162 66.1811
  L 65.8238 70.5211
  Z
  M 49.39 67.66
  Q 47.63 66.65 46.59 68.57
  Q 46.49 68.75 46.48 68.96
  Q 46.41 69.80 46.94 69.19
  Q 48.34 67.58 49.67 68.88
  A 0.51 0.50 -42.8 0 0 50.36 68.90
  Q 51.70 67.75 52.88 69.05
  A 0.48 0.47 -41.5 0 0 53.54 69.09
  Q 54.92 67.86 56.41 68.88
  A 0.66 0.65 42.7 0 0 57.18 68.86
  Q 58.46 67.84 59.60 68.84
  A 0.56 0.56 -43.2 0 0 60.32 68.86
  Q 61.96 67.62 63.06 69.26
  Q 63.35 69.69 63.41 69.19
  Q 63.59 67.65 62.05 67.37
  A 1.64 0.81 -37.9 0 0 61.13 67.56
  Q 59.99 68.10 58.92 67.52
  A 1.13 1.06 48.3 0 0 58.03 67.44
  Q 57.61 67.59 57.17 67.67
  Q 56.76 67.75 55.84 67.55
  Q 54.73 67.31 53.70 67.77
  A 1.01 0.99 -41.6 0 1 52.83 67.73
  Q 51.56 67.03 50.24 67.69
  A 0.92 0.90 46.6 0 1 49.39 67.66
  Z"
/>
<path fill="#ffffff" d="
  M 99.0731 73.9660
  A 0.30 0.30 0.0 0 1 98.7726 74.2655
  L 81.0526 74.2345
  A 0.30 0.30 0.0 0 1 80.7531 73.9340
  L 80.7669 66.0340
  A 0.30 0.30 0.0 0 1 81.0674 65.7345
  L 98.7874 65.7655
  A 0.30 0.30 0.0 0 1 99.0869 66.0660
  L 99.0731 73.9660
  Z
  M 92.73 67.80
  Q 91.77 66.84 90.58 67.63
  A 0.85 0.81 -48.7 0 1 89.76 67.70
  Q 88.36 67.01 86.99 67.69
  A 0.91 0.90 -44.0 0 1 86.14 67.68
  Q 84.06 66.55 83.00 68.75
  Q 82.77 69.23 83.15 69.27
  A 0.80 0.46 -57.2 0 0 83.73 68.97
  Q 84.91 67.64 86.21 68.83
  A 0.78 0.72 -34.7 0 0 87.00 68.94
  L 88.27 68.39
  A 0.79 0.58 55.5 0 1 89.05 68.66
  Q 89.96 69.72 90.94 68.63
  A 0.80 0.58 -53.3 0 1 91.73 68.38
  L 93.09 68.98
  A 0.66 0.59 32.4 0 0 93.81 68.86
  Q 94.90 67.69 96.00 68.99
  Q 96.64 69.76 96.88 69.24
  A 0.99 0.75 43.4 0 0 96.73 68.34
  Q 95.38 66.55 93.46 67.88
  A 0.59 0.55 49.5 0 1 92.73 67.80
  Z
  M 85.57 70.94
  A 1.10 1.10 -48.4 0 0 84.09 71.03
  Q 82.60 72.55 83.31 72.62
  A 1.08 0.57 -59.1 0 0 84.08 72.15
  Q 84.89 71.11 85.92 72.13
  A 0.88 0.75 56.5 0 0 86.72 72.36
  L 88.26 71.90
  A 0.99 0.85 53.9 0 1 89.12 72.10
  Q 90.20 72.97 90.99 71.92
  A 0.61 0.54 28.4 0 1 91.68 71.76
  L 93.25 72.39
  A 1.02 0.67 -48.2 0 0 94.11 72.16
  Q 95.17 71.31 96.02 72.29
  A 0.88 0.43 51.4 0 0 96.81 72.66
  Q 97.34 72.39 95.28 70.60
  A 0.48 0.48 -47.2 0 0 94.62 70.63
  Q 93.35 71.94 91.99 70.49
  A 0.59 0.59 38.4 0 0 91.04 70.60
  Q 90.32 71.85 88.60 70.60
  A 0.70 0.69 -51.9 0 0 87.66 70.72
  Q 86.71 71.87 85.57 70.94
  Z"
/>
<path fill="#ffffff" d="
  M 135.8379 80.3189
  A 0.69 0.69 0.0 0 1 135.1467 81.0077
  L 114.8667 80.9723
  A 0.69 0.69 0.0 0 1 114.1779 80.2811
  L 114.2021 66.4211
  A 0.69 0.69 0.0 0 1 114.8933 65.7323
  L 135.1733 65.7677
  A 0.69 0.69 0.0 0 1 135.8621 66.4589
  L 135.8379 80.3189
  Z
  M 129.59 67.72
  Q 128.35 66.99 127.16 67.71
  A 0.82 0.78 -44.2 0 1 126.34 67.72
  Q 125.01 66.94 123.66 67.72
  A 0.77 0.75 46.6 0 1 122.85 67.69
  Q 121.54 66.80 120.15 67.71
  A 0.58 0.56 51.8 0 1 119.43 67.61
  Q 118.45 66.60 117.33 67.55
  Q 117.07 67.78 116.90 68.14
  Q 115.77 70.46 117.97 68.43
  A 0.66 0.65 -39.0 0 1 118.95 68.53
  Q 119.95 69.96 121.18 68.63
  A 0.55 0.53 39.4 0 1 121.89 68.57
  Q 123.27 69.58 124.62 68.58
  A 0.63 0.63 -0.0 0 1 125.38 68.58
  Q 126.45 69.40 127.47 68.79
  Q 128.20 68.36 128.52 68.37
  Q 129.17 68.38 129.67 68.86
  A 0.49 0.47 44.5 0 0 130.33 68.87
  Q 131.42 67.79 132.91 68.99
  Q 134.02 69.88 133.48 68.56
  Q 132.61 66.39 130.42 67.72
  A 0.81 0.80 44.4 0 1 129.59 67.72
  Z
  M 125.77 70.78
  Q 124.88 69.73 124.04 71.03
  A 0.75 0.74 -49.1 0 1 122.85 71.12
  Q 121.64 69.70 120.92 70.75
  A 1.04 0.57 -63.2 0 1 120.20 71.24
  Q 119.48 71.22 118.38 70.63
  A 0.65 0.64 -55.3 0 0 117.59 70.78
  Q 114.81 73.98 118.09 71.78
  A 0.77 0.51 41.0 0 1 118.83 71.88
  L 119.52 72.35
  A 0.77 0.50 -48.9 0 0 120.32 72.12
  Q 121.21 71.22 122.26 71.87
  Q 123.05 72.36 123.36 72.38
  Q 124.01 72.43 124.61 72.05
  A 0.85 0.84 41.5 0 1 125.44 72.00
  Q 126.76 72.65 128.07 72.00
  A 0.75 0.75 -38.4 0 1 128.87 72.09
  Q 130.14 73.12 130.90 71.84
  A 0.44 0.44 -60.4 0 1 131.50 71.68
  Q 134.29 73.29 133.38 71.85
  Q 132.77 70.87 131.79 70.47
  A 0.83 0.66 -54.4 0 0 130.98 70.70
  Q 129.80 71.89 128.79 70.65
  A 0.48 0.47 -38.8 0 0 128.13 70.59
  Q 127.41 71.16 126.57 71.21
  A 1.16 0.77 61.6 0 1 125.77 70.78
  Z
  M 128.84 75.37
  Q 129.99 76.11 131.11 75.32
  A 0.88 0.86 -50.5 0 1 131.95 75.23
  L 133.22 75.77
  Q 133.74 75.99 133.52 75.46
  Q 132.53 73.08 130.41 74.46
  A 0.79 0.78 43.2 0 1 129.59 74.48
  Q 128.25 73.70 126.91 74.48
  A 0.72 0.68 48.6 0 1 126.13 74.41
  Q 125.00 73.53 123.88 74.41
  A 0.88 0.72 -48.3 0 1 123.04 74.54
  L 122.01 74.04
  A 0.72 0.70 -53.0 0 0 121.22 74.16
  Q 119.83 75.43 118.72 74.03
  A 0.90 0.90 -46.9 0 0 117.28 74.08
  Q 115.58 76.54 118.10 75.20
  A 0.64 0.63 -36.5 0 1 118.82 75.30
  Q 119.85 76.29 121.12 75.33
  A 0.89 0.69 -46.8 0 1 121.97 75.20
  L 122.89 75.68
  A 0.72 0.72 38.4 0 0 123.67 75.59
  Q 124.80 74.64 126.10 75.46
  A 1.10 0.88 47.3 0 0 126.97 75.59
  L 127.97 75.24
  A 1.04 0.88 48.6 0 1 128.84 75.37
  Z
  M 119.02 77.53
  Q 117.98 76.33 116.95 78.19
  Q 115.79 80.28 117.27 78.77
  Q 118.49 77.51 119.32 78.95
  Q 119.97 80.09 120.57 78.92
  Q 121.43 77.28 122.56 78.88
  A 0.67 0.67 -34.9 0 0 123.49 79.04
  Q 125.20 77.84 126.41 78.89
  A 0.55 0.53 45.8 0 0 127.11 78.91
  Q 127.62 78.49 128.25 78.33
  A 0.93 0.72 58.9 0 1 129.05 78.64
  Q 129.97 79.66 130.93 78.64
  A 0.82 0.53 -50.9 0 1 131.74 78.38
  L 133.07 79.11
  Q 133.44 79.31 133.38 78.94
  Q 132.96 76.49 130.52 77.78
  Q 129.45 78.34 128.91 77.52
  A 0.67 0.44 57.5 0 0 128.20 77.20
  L 127.37 77.66
  A 0.93 0.63 -39.7 0 1 126.58 77.74
  Q 125.08 76.94 123.67 77.73
  A 0.98 0.78 -41.8 0 1 122.81 77.78
  L 121.99 77.32
  A 0.74 0.71 -49.5 0 0 121.20 77.40
  Q 120.57 77.90 119.81 77.95
  A 1.12 0.72 60.8 0 1 119.02 77.53
  Z"
/>
<path fill="#030304" d="
  M 130.42 67.72
  Q 132.61 66.39 133.48 68.56
  Q 134.02 69.88 132.91 68.99
  Q 131.42 67.79 130.33 68.87
  A 0.49 0.47 44.5 0 1 129.67 68.86
  Q 129.17 68.38 128.52 68.37
  Q 128.20 68.36 127.47 68.79
  Q 126.45 69.40 125.38 68.58
  A 0.63 0.63 0.0 0 0 124.62 68.58
  Q 123.27 69.58 121.89 68.57
  A 0.55 0.53 39.4 0 0 121.18 68.63
  Q 119.95 69.96 118.95 68.53
  A 0.66 0.65 -39.0 0 0 117.97 68.43
  Q 115.77 70.46 116.90 68.14
  Q 117.07 67.78 117.33 67.55
  Q 118.45 66.60 119.43 67.61
  A 0.58 0.56 51.8 0 0 120.15 67.71
  Q 121.54 66.80 122.85 67.69
  A 0.77 0.75 46.6 0 0 123.66 67.72
  Q 125.01 66.94 126.34 67.72
  A 0.82 0.78 -44.2 0 0 127.16 67.71
  Q 128.35 66.99 129.59 67.72
  A 0.81 0.80 44.4 0 0 130.42 67.72
  Z"
/>
<path fill="#030304" d="
  M 50.24 67.69
  Q 51.56 67.03 52.83 67.73
  A 1.01 0.99 -41.6 0 0 53.70 67.77
  Q 54.73 67.31 55.84 67.55
  Q 56.76 67.75 57.17 67.67
  Q 57.61 67.59 58.03 67.44
  A 1.13 1.06 48.3 0 1 58.92 67.52
  Q 59.99 68.10 61.13 67.56
  A 1.64 0.81 -37.9 0 1 62.05 67.37
  Q 63.59 67.65 63.41 69.19
  Q 63.35 69.69 63.06 69.26
  Q 61.96 67.62 60.32 68.86
  A 0.56 0.56 -43.2 0 1 59.60 68.84
  Q 58.46 67.84 57.18 68.86
  A 0.66 0.65 42.7 0 1 56.41 68.88
  Q 54.92 67.86 53.54 69.09
  A 0.48 0.47 -41.5 0 1 52.88 69.05
  Q 51.70 67.75 50.36 68.90
  A 0.51 0.50 -42.8 0 1 49.67 68.88
  Q 48.34 67.58 46.94 69.19
  Q 46.41 69.80 46.48 68.96
  Q 46.49 68.75 46.59 68.57
  Q 47.63 66.65 49.39 67.66
  A 0.92 0.90 46.6 0 0 50.24 67.69
  Z"
/>
<path fill="#030304" d="
  M 93.46 67.88
  Q 95.38 66.55 96.73 68.34
  A 0.99 0.75 43.4 0 1 96.88 69.24
  Q 96.64 69.76 96.00 68.99
  Q 94.90 67.69 93.81 68.86
  A 0.66 0.59 32.4 0 1 93.09 68.98
  L 91.73 68.38
  A 0.80 0.58 -53.3 0 0 90.94 68.63
  Q 89.96 69.72 89.05 68.66
  A 0.79 0.58 55.5 0 0 88.27 68.39
  L 87.00 68.94
  A 0.78 0.72 -34.7 0 1 86.21 68.83
  Q 84.91 67.64 83.73 68.97
  A 0.80 0.46 -57.2 0 1 83.15 69.27
  Q 82.77 69.23 83.00 68.75
  Q 84.06 66.55 86.14 67.68
  A 0.91 0.90 -44.0 0 0 86.99 67.69
  Q 88.36 67.01 89.76 67.70
  A 0.85 0.81 -48.7 0 0 90.58 67.63
  Q 91.77 66.84 92.73 67.80
  A 0.59 0.55 49.5 0 0 93.46 67.88
  Z"
/>
<path fill="#030304" d="
  M 85.57 70.94
  Q 86.71 71.87 87.66 70.72
  A 0.70 0.69 -51.9 0 1 88.60 70.60
  Q 90.32 71.85 91.04 70.60
  A 0.59 0.59 38.4 0 1 91.99 70.49
  Q 93.35 71.94 94.62 70.63
  A 0.48 0.48 -47.2 0 1 95.28 70.60
  Q 97.34 72.39 96.81 72.66
  A 0.88 0.43 51.4 0 1 96.02 72.29
  Q 95.17 71.31 94.11 72.16
  A 1.02 0.67 -48.2 0 1 93.25 72.39
  L 91.68 71.76
  A 0.61 0.54 28.4 0 0 90.99 71.92
  Q 90.20 72.97 89.12 72.10
  A 0.99 0.85 53.9 0 0 88.26 71.90
  L 86.72 72.36
  A 0.88 0.75 56.5 0 1 85.92 72.13
  Q 84.89 71.11 84.08 72.15
  A 1.08 0.57 -59.1 0 1 83.31 72.62
  Q 82.60 72.55 84.09 71.03
  A 1.10 1.10 -48.4 0 1 85.57 70.94
  Z"
/>
<path fill="#030304" d="
  M 126.57 71.21
  Q 127.41 71.16 128.13 70.59
  A 0.48 0.47 -38.8 0 1 128.79 70.65
  Q 129.80 71.89 130.98 70.70
  A 0.83 0.66 -54.4 0 1 131.79 70.47
  Q 132.77 70.87 133.38 71.85
  Q 134.29 73.29 131.50 71.68
  A 0.44 0.44 -60.4 0 0 130.90 71.84
  Q 130.14 73.12 128.87 72.09
  A 0.75 0.75 -38.4 0 0 128.07 72.00
  Q 126.76 72.65 125.44 72.00
  A 0.85 0.84 41.5 0 0 124.61 72.05
  Q 124.01 72.43 123.36 72.38
  Q 123.05 72.36 122.26 71.87
  Q 121.21 71.22 120.32 72.12
  A 0.77 0.50 -48.9 0 1 119.52 72.35
  L 118.83 71.88
  A 0.77 0.51 41.0 0 0 118.09 71.78
  Q 114.81 73.98 117.59 70.78
  A 0.65 0.64 -55.3 0 1 118.38 70.63
  Q 119.48 71.22 120.20 71.24
  A 1.04 0.57 -63.2 0 0 120.92 70.75
  Q 121.64 69.70 122.85 71.12
  A 0.75 0.74 -49.1 0 0 124.04 71.03
  Q 124.88 69.73 125.77 70.78
  A 1.16 0.77 61.6 0 0 126.57 71.21
  Z"
/>
<path fill="#ffffff" d="
  M 65.8190 85.3789
  A 0.42 0.42 0.0 0 1 65.3983 85.7982
  L 44.5383 85.7618
  A 0.42 0.42 0.0 0 1 44.1190 85.3411
  L 44.1410 72.7411
  A 0.42 0.42 0.0 0 1 44.5617 72.3218
  L 65.4217 72.3582
  A 0.42 0.42 0.0 0 1 65.8410 72.7789
  L 65.8190 85.3789
  Z
  M 49.63 74.43
  Q 47.77 73.48 46.53 75.09
  A 0.52 0.43 -58.1 0 0 46.63 75.83
  Q 46.92 75.96 47.24 75.69
  A 1.40 0.81 -53.8 0 1 48.06 75.33
  Q 55.16 75.53 62.25 75.44
  Q 62.55 75.44 62.84 75.55
  Q 64.55 76.17 63.04 74.66
  A 1.31 0.93 60.2 0 0 62.20 74.27
  L 56.93 74.48
  Q 56.41 74.51 56.01 74.30
  Q 54.87 73.72 53.88 74.43
  A 0.75 0.74 -47.9 0 1 53.08 74.48
  Q 51.81 73.78 50.49 74.44
  A 0.93 0.92 45.3 0 1 49.63 74.43
  Z
  M 63.9634 78.9255
  A 1.14 1.14 0.0 0 0 62.8254 77.7835
  L 47.3854 77.7565
  A 1.14 1.14 0.0 0 0 46.2434 78.8945
  L 46.2366 82.7745
  A 1.14 1.14 0.0 0 0 47.3746 83.9165
  L 62.8146 83.9435
  A 1.14 1.14 0.0 0 0 63.9566 82.8055
  L 63.9634 78.9255
  Z"
/>
<path fill="#030304" d="
  M 127.97 75.24
  L 126.97 75.59
  A 1.10 0.88 47.3 0 1 126.10 75.46
  Q 124.80 74.64 123.67 75.59
  A 0.72 0.72 38.4 0 1 122.89 75.68
  L 121.97 75.20
  A 0.89 0.69 -46.8 0 0 121.12 75.33
  Q 119.85 76.29 118.82 75.30
  A 0.64 0.63 -36.5 0 0 118.10 75.20
  Q 115.58 76.54 117.28 74.08
  A 0.90 0.90 -46.9 0 1 118.72 74.03
  Q 119.83 75.43 121.22 74.16
  A 0.72 0.70 -53.0 0 1 122.01 74.04
  L 123.04 74.54
  A 0.88 0.72 -48.3 0 0 123.88 74.41
  Q 125.00 73.53 126.13 74.41
  A 0.72 0.68 48.6 0 0 126.91 74.48
  Q 128.25 73.70 129.59 74.48
  A 0.79 0.78 43.2 0 0 130.41 74.46
  Q 132.53 73.08 133.52 75.46
  Q 133.74 75.99 133.22 75.77
  L 131.95 75.23
  A 0.88 0.86 -50.5 0 0 131.11 75.32
  Q 129.99 76.11 128.84 75.37
  A 1.04 0.88 48.6 0 0 127.97 75.24
  Z"
/>
<path fill="#030304" d="
  M 50.49 74.44
  Q 51.81 73.78 53.08 74.48
  A 0.75 0.74 -47.9 0 0 53.88 74.43
  Q 54.87 73.72 56.01 74.30
  Q 56.41 74.51 56.93 74.48
  L 62.20 74.27
  A 1.31 0.93 60.2 0 1 63.04 74.66
  Q 64.55 76.17 62.84 75.55
  Q 62.55 75.44 62.25 75.44
  Q 55.16 75.53 48.06 75.33
  A 1.40 0.81 -53.8 0 0 47.24 75.69
  Q 46.92 75.96 46.63 75.83
  A 0.52 0.43 -58.1 0 1 46.53 75.09
  Q 47.77 73.48 49.63 74.43
  A 0.93 0.92 45.3 0 0 50.49 74.44
  Z"
/>
<path fill="#ffffff" d="
  M 99.0846 85.4420
  A 0.27 0.27 0.0 0 1 98.8160 85.7134
  L 81.0562 85.8064
  A 0.27 0.27 0.0 0 1 80.7848 85.5378
  L 80.7354 76.0980
  A 0.27 0.27 0.0 0 1 81.0040 75.8266
  L 98.7638 75.7336
  A 0.27 0.27 0.0 0 1 99.0352 76.0022
  L 99.0846 85.4420
  Z
  M 97.1737 78.7125
  A 0.93 0.93 0.0 0 0 96.2454 77.7808
  L 83.8254 77.7592
  A 0.93 0.93 0.0 0 0 82.8938 78.6875
  L 82.8863 82.9875
  A 0.93 0.93 0.0 0 0 83.8146 83.9192
  L 96.2346 83.9408
  A 0.93 0.93 0.0 0 0 97.1662 83.0125
  L 97.1737 78.7125
  Z"
/>
<path fill="#030304" d="
  M 119.81 77.95
  Q 120.57 77.90 121.20 77.40
  A 0.74 0.71 -49.5 0 1 121.99 77.32
  L 122.81 77.78
  A 0.98 0.78 -41.8 0 0 123.67 77.73
  Q 125.08 76.94 126.58 77.74
  A 0.93 0.63 -39.7 0 0 127.37 77.66
  L 128.20 77.20
  A 0.67 0.44 57.5 0 1 128.91 77.52
  Q 129.45 78.34 130.52 77.78
  Q 132.96 76.49 133.38 78.94
  Q 133.44 79.31 133.07 79.11
  L 131.74 78.38
  A 0.82 0.53 -50.9 0 0 130.93 78.64
  Q 129.97 79.66 129.05 78.64
  A 0.93 0.72 58.9 0 0 128.25 78.33
  Q 127.62 78.49 127.11 78.91
  A 0.55 0.53 45.8 0 1 126.41 78.89
  Q 125.20 77.84 123.49 79.04
  A 0.67 0.67 -34.9 0 1 122.56 78.88
  Q 121.43 77.28 120.57 78.92
  Q 119.97 80.09 119.32 78.95
  Q 118.49 77.51 117.27 78.77
  Q 115.79 80.28 116.95 78.19
  Q 117.98 76.33 119.02 77.53
  A 1.12 0.72 60.8 0 0 119.81 77.95
  Z"
/>
<path fill="#a50508" d="
  M 63.9566 82.8055
  A 1.14 1.14 0.0 0 1 62.8146 83.9435
  L 47.3746 83.9165
  A 1.14 1.14 0.0 0 1 46.2366 82.7745
  L 46.2434 78.8945
  A 1.14 1.14 0.0 0 1 47.3854 77.7565
  L 62.8254 77.7835
  A 1.14 1.14 0.0 0 1 63.9634 78.9255
  L 63.9566 82.8055
  Z
  M 62.9092 79.5547
  A 0.58 0.58 0.0 0 0 62.3332 78.9707
  L 47.8336 78.8694
  A 0.58 0.58 0.0 0 0 47.2495 79.4454
  L 47.2308 82.1253
  A 0.58 0.58 0.0 0 0 47.8068 82.7093
  L 62.3064 82.8106
  A 0.58 0.58 0.0 0 0 62.8905 82.2346
  L 62.9092 79.5547
  Z"
/>
<path fill="#a50508" d="
  M 97.1662 83.0125
  A 0.93 0.93 0.0 0 1 96.2346 83.9408
  L 83.8146 83.9192
  A 0.93 0.93 0.0 0 1 82.8863 82.9875
  L 82.8938 78.6875
  A 0.93 0.93 0.0 0 1 83.8254 77.7592
  L 96.2454 77.7808
  A 0.93 0.93 0.0 0 1 97.1737 78.7125
  L 97.1662 83.0125
  Z
  M 96.12 79.33
  A 0.40 0.40 0.0 0 0 95.72 78.93
  L 84.42 78.93
  A 0.40 0.40 0.0 0 0 84.02 79.33
  L 84.02 82.35
  A 0.40 0.40 0.0 0 0 84.42 82.75
  L 95.72 82.75
  A 0.40 0.40 0.0 0 0 96.12 82.35
  L 96.12 79.33
  Z"
/>
<rect fill="#f4d2d5" x="-7.83" y="-1.92" transform="translate(55.07,80.84) rotate(0.4)" width="15.66" height="3.84" rx="0.58"/>
<rect fill="#f4d2d5" x="84.02" y="78.93" width="12.10" height="3.82" rx="0.40"/>
<path fill="#ffffff" d="
  M 135.75 92.25
  A 0.26 0.26 0.0 0 1 135.49 92.51
  L 114.49 92.51
  A 0.26 0.26 0.0 0 1 114.23 92.25
  L 114.23 82.73
  A 0.26 0.26 0.0 0 1 114.49 82.47
  L 135.49 82.47
  A 0.26 0.26 0.0 0 1 135.75 82.73
  L 135.75 92.25
  Z
  M 133.97 85.63
  A 1.13 1.13 0.0 0 0 132.84 84.50
  L 117.18 84.50
  A 1.13 1.13 0.0 0 0 116.05 85.63
  L 116.05 89.37
  A 1.13 1.13 0.0 0 0 117.18 90.50
  L 132.84 90.50
  A 1.13 1.13 0.0 0 0 133.97 89.37
  L 133.97 85.63
  Z"
/>
<path fill="#ca1c1e" d="
  M 133.97 89.37
  A 1.13 1.13 0.0 0 1 132.84 90.50
  L 117.18 90.50
  A 1.13 1.13 0.0 0 1 116.05 89.37
  L 116.05 85.63
  A 1.13 1.13 0.0 0 1 117.18 84.50
  L 132.84 84.50
  A 1.13 1.13 0.0 0 1 133.97 85.63
  L 133.97 89.37
  Z
  M 132.76 86.02
  A 0.52 0.52 0.0 0 0 132.24 85.50
  L 117.78 85.50
  A 0.52 0.52 0.0 0 0 117.26 86.02
  L 117.26 88.98
  A 0.52 0.52 0.0 0 0 117.78 89.50
  L 132.24 89.50
  A 0.52 0.52 0.0 0 0 132.76 88.98
  L 132.76 86.02
  Z"
/>
<rect fill="#f4d2d5" x="117.26" y="85.50" width="15.50" height="4.00" rx="0.52"/>
<path fill="#f4d2d5" d="
  M 101.21 86.75
  Q 101.05 88.01 99.44 87.94
  Q 90.68 87.53 79.00 87.91
  Q 79.34 86.89 79.50 86.96
  L 101.21 86.75
  Z"
/>
</svg>
