<?xml version="1.0" encoding="UTF-8" standalone="no"?>
<!DOCTYPE svg PUBLIC "-//W3C//DTD SVG 1.1//EN" "http://www.w3.org/Graphics/SVG/1.1/DTD/svg11.dtd">
<svg xmlns="http://www.w3.org/2000/svg" version="1.1" viewBox="0 0 140 100">
<g stroke-width="2.00" fill="none" stroke-linecap="butt">
<path stroke="#d63a39" stroke-opacity="0.992" vector-effect="non-scaling-stroke" d="
  M 122.75 25.46
  Q 123.98 21.54 126.81 23.97
  A 0.78 0.56 45.1 0 0 127.64 24.11
  L 130.60 21.93
  A 0.41 0.36 41.4 0 0 130.52 21.29
  L 127.24 19.24
  Q 125.81 18.35 126.16 20.02
  Q 126.51 21.71 124.56 22.01
  A 1.33 1.06 -70.9 0 0 123.80 22.49
  Q 123.09 23.38 121.75 22.96"
/>
<path stroke="#d55553" stroke-opacity="0.992" vector-effect="non-scaling-stroke" d="
  M 124.31 42.70
  Q 119.27 41.39 113.64 41.79
  A 0.36 0.36 -3.0 0 1 113.25 41.44
  L 112.99 32.53
  A 1.44 1.43 -0.6 0 1 114.45 31.05
  Q 119.70 31.14 116.84 30.05"
/>
<path stroke="#d55553" stroke-opacity="0.992" vector-effect="non-scaling-stroke" d="
  M 99.87 42.59
  Q 93.80 41.28 87.92 42.46"
/>
<path stroke="#d55553" stroke-opacity="0.992" vector-effect="non-scaling-stroke" d="
  M 75.87 42.62
  Q 69.79 41.13 63.92 42.45"
/>
<path stroke="#d55553" stroke-opacity="0.992" vector-effect="non-scaling-stroke" d="
  M 47.21 29.75
  Q 45.05 30.30 46.54 31.05
  A 1.19 0.90 -38.3 0 0 47.45 31.03
  Q 48.96 30.39 50.36 30.97
  A 0.92 0.82 -84.4 0 1 50.88 31.68
  Q 51.47 36.44 50.99 41.20
  A 0.59 0.58 1.7 0 1 50.43 41.72
  L 39.45 42.22"
/>
<path stroke="#d63a39" stroke-opacity="0.992" vector-effect="non-scaling-stroke" d="
  M 40.30 30.22
  Q 42.69 31.14 44.26 31.06
  A 0.78 0.76 -81.9 0 0 44.94 30.54
  Q 45.41 29.25 44.25 29.38"
/>
<path stroke="#d63a39" stroke-opacity="0.992" vector-effect="non-scaling-stroke" d="
  M 22.79 28.83
  Q 21.78 30.95 19.75 30.21"
/>
<path stroke="#d63a39" stroke-opacity="0.992" vector-effect="non-scaling-stroke" d="
  M 78.00 20.71
  Q 81.32 21.52 84.50 20.46"
/>
<path stroke="#ce3433" stroke-opacity="0.992" vector-effect="non-scaling-stroke" d="
  M 24.33 30.57
  Q 20.48 31.52 16.54 30.75"
/>
<path stroke="#cd4f4d" stroke-opacity="0.996" vector-effect="non-scaling-stroke" d="
  M 27.29 42.50
  Q 22.06 41.42 17.90 41.87
  A 1.39 1.30 -2.9 0 1 16.35 40.56
  L 16.54 30.75"
/>
<path stroke="#5e6464" stroke-opacity="0.996" vector-effect="non-scaling-stroke" d="
  M 51.33 57.55
  L 52.50 48.79"
/>
<path stroke="#5e6464" stroke-opacity="0.996" vector-effect="non-scaling-stroke" d="
  M 135.75 48.79
  Q 136.17 59.73 136.01 70.68
  Q 136.01 70.77 136.12 72.31
  Q 136.26 74.41 134.23 73.89
  Q 133.95 73.83 133.26 73.85
  L 130.50 73.96"
/>
<path stroke="#47504d" stroke-opacity="0.996" vector-effect="non-scaling-stroke" d="
  M 130.50 73.96
  Q 116.38 73.45 101.40 74.03
  A 1.36 1.34 88.6 0 1 100.00 72.68
  L 99.95 65.82
  A 1.28 0.82 -77.7 0 0 99.62 64.93
  Q 99.12 64.49 98.71 65.25"
/>
<path stroke="#5e6464" stroke-opacity="0.996" vector-effect="non-scaling-stroke" d="
  M 88.71 71.75
  L 87.51 73.54
  A 1.05 0.85 13.5 0 1 86.69 73.93
  L 52.87 73.83
  A 0.96 0.95 2.5 0 1 51.91 72.80
  Q 52.24 68.91 51.98 65.97
  Q 51.93 65.50 51.72 65.22
  Q 51.17 64.52 50.71 65.50"
/>
<path stroke="#47504d" stroke-opacity="0.996" vector-effect="non-scaling-stroke" d="
  M 33.00 74.54
  Q 33.71 74.27 35.75 74.25
  Q 40.35 74.20 36.75 74.09
  Q 20.49 73.59 4.23 74.44"
/>
<path stroke="#7f8783" stroke-opacity="0.992" vector-effect="non-scaling-stroke" d="
  M 100.44 74.57
  Q 115.48 73.69 130.50 73.96"
/>
<path stroke="#d63a39" stroke-opacity="0.992" vector-effect="non-scaling-stroke" d="
  M 93.68 27.61
  Q 93.88 27.78 94.08 27.76
  A 0.56 0.40 73.3 0 0 94.33 27.03
  Q 93.80 25.73 93.51 26.92
  A 0.78 0.59 -66.7 0 0 93.68 27.61"
/>
<path stroke="#e38c8d" vector-effect="non-scaling-stroke" d="
  M 49.7526 33.0143
  A 0.50 0.50 0.0 0 0 49.2544 32.5126
  L 42.0544 32.4875
  A 0.50 0.50 0.0 0 0 41.5527 32.9857
  L 41.5274 40.2257
  A 0.50 0.50 0.0 0 0 42.0256 40.7274
  L 49.2256 40.7525
  A 0.50 0.50 0.0 0 0 49.7273 40.2543
  L 49.7526 33.0143"
/>
<path stroke="#e38c8d" vector-effect="non-scaling-stroke" d="
  M 74.1066 33.1424
  A 0.60 0.60 0.0 0 0 73.5130 32.5361
  L 66.6533 32.4643
  A 0.60 0.60 0.0 0 0 66.0471 33.0580
  L 65.9734 40.0976
  A 0.60 0.60 0.0 0 0 66.5670 40.7039
  L 73.4267 40.7757
  A 0.60 0.60 0.0 0 0 74.0329 40.1820
  L 74.1066 33.1424"
/>
<path stroke="#e38c8d" vector-effect="non-scaling-stroke" d="
  M 98.0800 33.2152
  A 0.67 0.67 0.0 0 0 97.4158 32.5394
  L 90.7161 32.4809
  A 0.67 0.67 0.0 0 0 90.0403 33.1451
  L 89.9800 40.0448
  A 0.67 0.67 0.0 0 0 90.6442 40.7206
  L 97.3439 40.7791
  A 0.67 0.67 0.0 0 0 98.0197 40.1149
  L 98.0800 33.2152"
/>
<path stroke="#e38c8d" vector-effect="non-scaling-stroke" d="
  M 122.5365 32.9472
  A 0.43 0.43 0.0 0 0 122.1072 32.5165
  L 114.6672 32.5035
  A 0.43 0.43 0.0 0 0 114.2365 32.9328
  L 114.2235 40.3528
  A 0.43 0.43 0.0 0 0 114.6528 40.7835
  L 122.0928 40.7965
  A 0.43 0.43 0.0 0 0 122.5235 40.3672
  L 122.5365 32.9472"
/>
<path stroke="#db8787" vector-effect="non-scaling-stroke" d="
  M 25.4571 32.8857
  A 0.44 0.44 0.0 0 0 25.0155 32.4472
  L 17.6756 32.4728
  A 0.44 0.44 0.0 0 0 17.2371 32.9144
  L 17.2629 40.3143
  A 0.44 0.44 0.0 0 0 17.7045 40.7528
  L 25.0444 40.7272
  A 0.44 0.44 0.0 0 0 25.4829 40.2856
  L 25.4571 32.8857"
/>
<path stroke="#6d7271" vector-effect="non-scaling-stroke" d="
  M 8.82 54.29
  L 33.37 54.03
  A 1.53 1.49 -85.0 0 1 34.84 55.83
  Q 34.25 59.08 37.53 57.93
  A 0.75 0.70 81.7 0 0 38.00 57.25
  L 38.16 51.57
  A 0.51 0.46 -89.4 0 0 37.70 51.05
  L 5.87 51.02
  A 0.89 0.87 -90.0 0 0 5.00 51.91
  L 5.00 71.62
  A 0.88 0.88 0.0 0 0 5.88 72.50
  L 37.50 72.50
  A 0.50 0.50 0.0 0 0 38.00 72.00
  Q 38.00 69.35 38.00 66.70
  Q 38.00 66.64 38.08 65.81
  Q 38.25 64.13 35.32 65.41
  A 0.61 0.60 71.8 0 0 34.97 66.11
  Q 35.36 67.79 34.54 68.82
  A 1.14 0.93 15.6 0 1 33.70 69.19
  L 9.14 69.25
  A 1.09 1.04 0.5 0 1 8.05 68.19
  L 8.27 54.81
  A 0.56 0.53 -0.0 0 1 8.82 54.29"
/>
<path stroke="#6d7271" vector-effect="non-scaling-stroke" d="
  M 83.07 54.79
  L 83.16 57.45
  A 0.68 0.40 89.8 0 0 83.54 58.09
  L 85.95 58.26
  A 0.57 0.47 -87.6 0 0 86.46 57.69
  L 86.51 51.75
  A 0.61 0.60 5.2 0 0 86.01 51.16
  Q 82.66 50.59 79.25 50.68
  Q 66.54 51.05 53.82 51.06
  A 0.53 0.52 0.6 0 0 53.29 51.57
  L 53.24 57.25
  A 0.71 0.70 -80.9 0 0 53.72 57.92
  Q 57.33 59.14 56.52 55.36
  A 1.08 1.05 84.2 0 1 57.55 54.06
  L 82.44 54.29
  A 0.65 0.52 -0.3 0 1 83.07 54.79"
/>
<path stroke="#6d7271" vector-effect="non-scaling-stroke" d="
  M 104.98 68.44
  L 104.75 65.74
  A 1.01 0.75 -83.3 0 0 104.32 64.99
  Q 103.21 64.42 102.02 64.86
  A 0.74 0.72 -10.7 0 0 101.53 65.56
  L 101.64 71.81
  A 0.54 0.52 -0.5 0 0 102.18 72.32
  L 134.13 72.49
  A 0.62 0.61 -89.5 0 0 134.75 71.87
  L 134.69 51.78
  A 0.81 0.79 0.0 0 0 133.88 50.99
  L 103.40 50.72
  A 1.88 1.85 1.6 0 0 101.50 52.49
  Q 101.46 53.67 101.49 56.06
  Q 101.49 56.17 101.42 56.93
  Q 101.25 58.76 104.48 57.94
  A 0.54 0.54 76.6 0 0 104.87 57.30
  Q 104.52 55.70 104.99 54.69
  A 0.85 0.77 11.4 0 1 105.74 54.24
  L 130.45 54.06
  A 1.06 1.04 89.7 0 1 131.50 55.12
  L 131.50 68.09
  A 1.13 1.10 -89.7 0 1 130.39 69.22
  L 105.55 68.96
  A 0.58 0.56 -1.6 0 1 104.98 68.44"
/>
<path stroke="#5e6464" stroke-opacity="0.996" vector-effect="non-scaling-stroke" d="
  M 59.00 65.46
  Q 58.02 64.31 57.98 66.95
  A 1.04 1.03 -88.6 0 0 58.97 68.00
  Q 69.46 68.41 79.93 68.27
  Q 81.25 68.25 81.83 67.60
  Q 82.77 66.57 81.80 65.15
  A 1.03 0.85 -13.8 0 0 80.99 64.76
  L 78.22 64.74
  Q 76.47 64.72 76.18 62.90
  Q 75.29 57.24 79.29 58.06
  Q 80.14 58.24 80.73 58.11
  Q 83.71 57.43 80.77 56.15"
/>
<path stroke="#47504d" stroke-opacity="0.996" vector-effect="non-scaling-stroke" d="
  M 112.60 59.62
  Q 111.58 61.72 111.66 63.93
  A 0.61 0.47 87.9 0 1 111.21 64.55
  L 107.13 64.75"
/>
<path stroke="#5e6464" stroke-opacity="0.996" vector-effect="non-scaling-stroke" d="
  M 107.13 64.75
  Q 104.62 66.39 106.52 67.54
  Q 107.26 67.99 108.60 68.07
  Q 119.29 68.70 129.99 67.72"
/>
<path stroke="#47504d" stroke-opacity="0.996" vector-effect="non-scaling-stroke" d="
  M 129.99 67.72
  Q 130.01 62.34 130.02 57.50
  Q 130.03 55.40 128.65 56.22"
/>
<path stroke="#7f8783" stroke-opacity="0.992" vector-effect="non-scaling-stroke" d="
  M 129.99 67.72
  Q 129.65 66.72 129.00 66.96"
/>
<path stroke="#7f8783" stroke-opacity="0.992" vector-effect="non-scaling-stroke" d="
  M 107.54 65.25
  Q 107.54 65.13 107.13 64.75"
/>
<path stroke="#5e6464" stroke-opacity="0.996" vector-effect="non-scaling-stroke" d="
  M 10.15 67.25
  Q 21.42 68.44 32.69 68.20
  A 0.79 0.60 3.9 0 0 33.40 67.73
  Q 33.56 67.10 32.75 66.71"
/>
<path stroke="#5e6464" stroke-opacity="0.996" vector-effect="non-scaling-stroke" d="
  M 32.79 66.00
  Q 33.15 65.46 32.77 65.06
  Q 32.54 64.81 32.02 64.80
  Q 30.41 64.75 28.81 64.70
  A 0.58 0.58 87.1 0 1 28.25 64.19
  Q 28.00 62.22 27.81 60.27
  Q 27.63 58.38 29.25 57.79"
/>
<path stroke="#7d827f" vector-effect="non-scaling-stroke" d="
  M 61.96 60.25
  A 0.26 0.26 0.0 0 0 61.70 59.99
  L 29.46 59.99
  A 0.26 0.26 0.0 0 0 29.20 60.25
  L 29.20 62.75
  A 0.26 0.26 0.0 0 0 29.46 63.01
  L 61.70 63.01
  A 0.26 0.26 0.0 0 0 61.96 62.75
  L 61.96 60.25"
/>
<path stroke="#7d827f" vector-effect="non-scaling-stroke" d="
  M 110.4655 60.1425
  A 0.35 0.35 0.0 0 0 110.1143 59.7937
  L 77.8745 59.9063
  A 0.35 0.35 0.0 0 0 77.5257 60.2575
  L 77.5345 62.7575
  A 0.35 0.35 0.0 0 0 77.8857 63.1063
  L 110.1255 62.9937
  A 0.35 0.35 0.0 0 0 110.4743 62.6425
  L 110.4655 60.1425"
/>
<path stroke="#6d7271" vector-effect="non-scaling-stroke" d="
  M 56.68 68.45
  L 56.46 65.75
  A 0.79 0.57 -88.0 0 0 56.02 65.09
  Q 54.87 64.78 53.73 65.09
  A 0.68 0.65 82.8 0 0 53.25 65.74
  L 53.25 71.82
  A 0.67 0.66 90.0 0 0 53.91 72.49
  L 85.76 72.51
  A 0.56 0.51 0.0 0 0 86.32 72.00
  L 86.38 65.44
  A 0.75 0.67 9.3 0 0 85.84 64.78
  Q 82.52 63.76 83.27 67.33
  A 1.42 1.42 82.6 0 1 81.96 69.03
  Q 69.89 69.65 57.31 68.97
  A 0.69 0.56 0.4 0 1 56.68 68.45"
/>
</g>
<path fill="#e55351" fill-opacity="0.984" d="
  M 122.75 25.46
  Q 123.98 21.54 126.81 23.97
  A 0.78 0.56 45.1 0 0 127.64 24.11
  L 130.60 21.93
  A 0.41 0.36 41.4 0 0 130.52 21.29
  L 127.24 19.24
  Q 125.81 18.35 126.16 20.02
  Q 126.51 21.71 124.56 22.01
  A 1.33 1.06 -70.9 0 0 123.80 22.49
  Q 123.09 23.38 121.75 22.96
  Q 123.13 21.75 123.81 21.56
  Q 125.71 21.05 125.31 19.25
  Q 124.95 17.66 126.42 18.30
  L 130.59 20.14
  A 1.39 1.36 -55.8 0 1 130.99 22.37
  Q 129.05 24.35 127.23 25.08
  A 0.83 0.73 55.0 0 1 126.41 24.88
  Q 124.59 23.09 122.75 25.46
  Z"
/>
<path fill="#c82122" fill-opacity="0.996" d="
  M 122.75 25.46
  Q 121.32 26.74 120.31 28.91
  Q 119.59 30.45 121.28 30.29
  Q 124.21 30.02 124.70 31.94
  Q 124.74 32.08 124.82 35.07
  Q 124.94 38.98 124.31 42.70
  Q 119.27 41.39 113.64 41.79
  A 0.36 0.36 -3.0 0 1 113.25 41.44
  L 112.99 32.53
  A 1.44 1.43 -0.6 0 1 114.45 31.05
  Q 119.70 31.14 116.84 30.05
  Q 111.27 19.72 101.04 23.92
  Q 98.92 24.79 97.75 26.04
  Q 96.33 27.55 95.80 29.58
  A 0.54 0.54 2.7 0 0 96.42 30.26
  Q 100.54 29.55 100.40 33.04
  Q 100.31 35.38 100.31 35.46
  Q 100.44 39.19 99.87 42.59
  Q 93.80 41.28 87.92 42.46
  L 87.89 31.78
  A 1.73 1.60 2.3 0 1 89.76 30.19
  Q 93.35 30.48 91.67 28.07
  Q 87.29 21.78 79.52 23.13
  Q 73.89 24.10 71.63 29.16
  Q 71.03 30.51 72.48 30.25
  Q 76.54 29.55 76.40 33.04
  Q 76.31 35.34 76.31 35.47
  Q 76.44 39.18 75.87 42.62
  Q 69.79 41.13 63.92 42.45
  Q 63.65 38.26 63.73 34.36
  Q 63.73 34.23 63.64 32.66
  Q 63.46 29.82 66.81 30.26
  Q 68.98 30.54 67.85 28.66
  Q 63.30 21.14 54.25 23.25
  Q 49.26 24.42 47.21 29.75
  Q 45.05 30.30 46.54 31.05
  A 1.19 0.90 -38.3 0 0 47.45 31.03
  Q 48.96 30.39 50.36 30.97
  A 0.92 0.82 -84.4 0 1 50.88 31.68
  Q 51.47 36.44 50.99 41.20
  A 0.59 0.58 1.7 0 1 50.43 41.72
  L 39.45 42.22
  Q 38.34 36.17 40.30 30.22
  Q 42.69 31.14 44.26 31.06
  A 0.78 0.76 -81.9 0 0 44.94 30.54
  Q 45.41 29.25 44.25 29.38
  Q 33.69 15.98 22.79 28.83
  Q 21.78 30.95 19.75 30.21
  Q 17.16 23.59 9.50 22.75
  Q 6.51 22.42 8.15 20.60
  A 1.17 1.10 20.1 0 1 8.99 20.24
  Q 16.13 20.18 20.71 26.17
  A 0.58 0.58 45.6 0 0 21.62 26.18
  Q 25.14 21.75 29.60 20.75
  Q 39.23 18.59 45.19 26.36
  A 0.41 0.40 45.4 0 0 45.83 26.37
  Q 53.52 17.00 64.44 21.80
  Q 67.16 22.99 69.27 26.12
  A 0.63 0.63 -44.1 0 0 70.30 26.13
  Q 73.45 21.73 78.00 20.71
  Q 81.32 21.52 84.50 20.46
  Q 90.23 21.44 93.32 25.84
  A 0.79 0.79 47.2 0 0 94.58 25.89
  Q 99.94 19.43 107.75 20.29
  Q 113.81 20.95 117.50 25.89
  A 0.98 0.97 -50.5 0 0 119.16 25.73
  Q 119.90 24.18 121.75 22.96
  Q 123.09 23.38 123.80 22.49
  A 1.33 1.06 -70.9 0 1 124.56 22.01
  Q 126.51 21.71 126.16 20.02
  Q 125.81 18.35 127.24 19.24
  L 130.52 21.29
  A 0.41 0.36 41.4 0 1 130.60 21.93
  L 127.64 24.11
  A 0.78 0.56 45.1 0 1 126.81 23.97
  Q 123.98 21.54 122.75 25.46
  Z
  M 93.68 27.61
  Q 93.88 27.78 94.08 27.76
  A 0.56 0.40 73.3 0 0 94.33 27.03
  Q 93.80 25.73 93.51 26.92
  A 0.78 0.59 -66.7 0 0 93.68 27.61
  Z
  M 49.7526 33.0143
  A 0.50 0.50 0.0 0 0 49.2544 32.5126
  L 42.0544 32.4875
  A 0.50 0.50 0.0 0 0 41.5527 32.9857
  L 41.5274 40.2257
  A 0.50 0.50 0.0 0 0 42.0256 40.7274
  L 49.2256 40.7525
  A 0.50 0.50 0.0 0 0 49.7273 40.2543
  L 49.7526 33.0143
  Z
  M 74.1066 33.1424
  A 0.60 0.60 0.0 0 0 73.5130 32.5361
  L 66.6533 32.4643
  A 0.60 0.60 0.0 0 0 66.0471 33.0580
  L 65.9734 40.0976
  A 0.60 0.60 0.0 0 0 66.5670 40.7039
  L 73.4267 40.7757
  A 0.60 0.60 0.0 0 0 74.0329 40.1820
  L 74.1066 33.1424
  Z
  M 98.0800 33.2152
  A 0.67 0.67 0.0 0 0 97.4158 32.5394
  L 90.7161 32.4809
  A 0.67 0.67 0.0 0 0 90.0403 33.1451
  L 89.9800 40.0448
  A 0.67 0.67 0.0 0 0 90.6442 40.7206
  L 97.3439 40.7791
  A 0.67 0.67 0.0 0 0 98.0197 40.1149
  L 98.0800 33.2152
  Z
  M 122.5365 32.9472
  A 0.43 0.43 0.0 0 0 122.1072 32.5165
  L 114.6672 32.5035
  A 0.43 0.43 0.0 0 0 114.2365 32.9328
  L 114.2235 40.3528
  A 0.43 0.43 0.0 0 0 114.6528 40.7835
  L 122.0928 40.7965
  A 0.43 0.43 0.0 0 0 122.5235 40.3672
  L 122.5365 32.9472
  Z"
/>
<path fill="#e55351" fill-opacity="0.984" d="
  M 84.50 20.46
  Q 81.32 21.52 78.00 20.71
  Q 81.21 19.81 84.50 20.46
  Z"
/>
<path fill="#e55351" fill-opacity="0.984" d="
  M 93.51 26.92
  Q 93.80 25.73 94.33 27.03
  A 0.56 0.40 73.3 0 1 94.08 27.76
  Q 93.88 27.78 93.68 27.61
  A 0.78 0.59 -66.7 0 1 93.51 26.92
  Z"
/>
<path fill="#e55351" fill-opacity="0.984" d="
  M 22.79 28.83
  Q 22.92 30.40 24.33 30.57
  Q 20.48 31.52 16.54 30.75
  L 16.50 30.54
  L 19.75 30.21
  Q 21.78 30.95 22.79 28.83
  Z"
/>
<path fill="#e55351" fill-opacity="0.984" d="
  M 40.30 30.22
  Q 42.96 30.94 44.25 29.38
  Q 45.41 29.25 44.94 30.54
  A 0.78 0.76 -81.9 0 1 44.26 31.06
  Q 42.69 31.14 40.30 30.22
  Z"
/>
<path fill="#e28985" fill-opacity="0.988" d="
  M 47.21 29.75
  Q 47.73 30.49 49.00 30.25
  Q 52.22 29.63 52.06 32.65
  Q 52.00 33.77 52.00 33.85
  Q 52.00 37.24 52.00 41.28
  A 1.74 1.74 86.9 0 1 50.45 43.01
  Q 44.92 43.58 39.45 42.22
  L 50.43 41.72
  A 0.59 0.58 1.7 0 0 50.99 41.20
  Q 51.47 36.44 50.88 31.68
  A 0.92 0.82 -84.4 0 0 50.36 30.97
  Q 48.96 30.39 47.45 31.03
  A 1.19 0.90 -38.3 0 1 46.54 31.05
  Q 45.05 30.30 47.21 29.75
  Z"
/>
<path fill="#e28985" fill-opacity="0.988" d="
  M 116.84 30.05
  Q 119.70 31.14 114.45 31.05
  A 1.44 1.43 -0.6 0 0 112.99 32.53
  L 113.25 41.44
  A 0.36 0.36 -3.0 0 0 113.64 41.79
  Q 119.27 41.39 124.31 42.70
  L 113.72 42.93
  A 1.81 1.68 89.4 0 1 112.00 41.12
  Q 112.00 37.37 111.82 34.01
  Q 111.56 29.20 116.84 30.05
  Z"
/>
<path fill="#b81616" d="
  M 24.33 30.57
  Q 27.96 29.57 27.88 33.01
  Q 27.82 35.35 27.82 35.49
  Q 27.97 39.03 27.29 42.50
  Q 22.06 41.42 17.90 41.87
  A 1.39 1.30 -2.9 0 1 16.35 40.56
  L 16.54 30.75
  Q 20.48 31.52 24.33 30.57
  Z
  M 25.4571 32.8857
  A 0.44 0.44 0.0 0 0 25.0155 32.4472
  L 17.6756 32.4728
  A 0.44 0.44 0.0 0 0 17.2371 32.9144
  L 17.2629 40.3143
  A 0.44 0.44 0.0 0 0 17.7045 40.7528
  L 25.0444 40.7272
  A 0.44 0.44 0.0 0 0 25.4829 40.2856
  L 25.4571 32.8857
  Z"
/>
<path fill="#e28985" fill-opacity="0.988" d="
  M 16.50 30.54
  L 16.54 30.75
  L 16.35 40.56
  A 1.39 1.30 -2.9 0 0 17.90 41.87
  Q 22.06 41.42 27.29 42.50
  Q 21.54 43.73 15.80 42.54
  A 0.70 0.69 -87.7 0 1 15.25 41.94
  Q 14.58 36.08 15.19 31.19
  Q 15.31 30.17 16.50 30.54
  Z"
/>
<rect fill="#fdf7f8" x="-4.11" y="-4.14" transform="translate(21.36,36.60) rotate(-0.2)" width="8.22" height="8.28" rx="0.44"/>
<rect fill="#fdf7f8" x="-4.10" y="-4.12" transform="translate(45.64,36.62) rotate(0.2)" width="8.20" height="8.24" rx="0.50"/>
<rect fill="#fdf7f8" x="-4.03" y="-4.12" transform="translate(70.04,36.62) rotate(0.6)" width="8.06" height="8.24" rx="0.60"/>
<rect fill="#fdf7f8" x="-4.02" y="-4.12" transform="translate(94.03,36.63) rotate(0.5)" width="8.04" height="8.24" rx="0.67"/>
<rect fill="#fdf7f8" x="-4.15" y="-4.14" transform="translate(118.38,36.65) rotate(0.1)" width="8.30" height="8.28" rx="0.43"/>
<path fill="#e28985" fill-opacity="0.988" d="
  M 75.87 42.62
  Q 69.77 43.69 63.92 42.45
  Q 69.79 41.13 75.87 42.62
  Z"
/>
<path fill="#e28985" fill-opacity="0.988" d="
  M 99.87 42.59
  Q 93.77 43.71 87.92 42.46
  Q 93.80 41.28 99.87 42.59
  Z"
/>
<path fill="#272d2f" d="
  M 51.33 57.55
  L 52.50 48.79
  L 87.41 48.81
  A 1.28 1.25 -0.2 0 1 88.69 50.05
  L 88.73 56.98
  A 0.77 0.76 -90.0 0 0 89.49 57.75
  L 97.85 57.75
  A 1.40 1.40 -0.6 0 0 99.25 56.35
  L 99.25 50.36
  A 1.61 1.61 0.0 0 1 100.86 48.75
  L 135.75 48.79
  Q 136.17 59.73 136.01 70.68
  Q 136.01 70.77 136.12 72.31
  Q 136.26 74.41 134.23 73.89
  Q 133.95 73.83 133.26 73.85
  L 130.50 73.96
  Q 116.38 73.45 101.40 74.03
  A 1.36 1.34 88.6 0 1 100.00 72.68
  L 99.95 65.82
  A 1.28 0.82 -77.7 0 0 99.62 64.93
  Q 99.12 64.49 98.71 65.25
  L 89.77 65.25
  A 0.97 0.96 0.6 0 0 88.80 66.19
  L 88.71 71.75
  L 87.51 73.54
  A 1.05 0.85 13.5 0 1 86.69 73.93
  L 52.87 73.83
  A 0.96 0.95 2.5 0 1 51.91 72.80
  Q 52.24 68.91 51.98 65.97
  Q 51.93 65.50 51.72 65.22
  Q 51.17 64.52 50.71 65.50
  L 41.15 65.31
  A 0.94 0.88 -89.4 0 0 40.25 66.25
  L 40.25 73.50
  A 0.98 0.97 -4.9 0 1 39.44 74.46
  Q 35.90 75.05 33.00 74.54
  Q 33.71 74.27 35.75 74.25
  Q 40.35 74.20 36.75 74.09
  Q 20.49 73.59 4.23 74.44
  Q 2.65 74.77 2.67 73.00
  Q 2.75 62.00 2.75 49.77
  A 1.02 1.02 -90.0 0 1 3.77 48.75
  L 38.89 48.75
  A 1.48 1.40 89.4 0 1 40.29 50.20
  L 40.39 56.81
  A 0.65 0.60 4.6 0 0 40.93 57.40
  Q 45.72 58.19 51.33 57.55
  Z
  M 8.82 54.29
  L 33.37 54.03
  A 1.53 1.49 -85.0 0 1 34.84 55.83
  Q 34.25 59.08 37.53 57.93
  A 0.75 0.70 81.7 0 0 38.00 57.25
  L 38.16 51.57
  A 0.51 0.46 -89.4 0 0 37.70 51.05
  L 5.87 51.02
  A 0.89 0.87 -90.0 0 0 5.00 51.91
  L 5.00 71.62
  A 0.88 0.88 0.0 0 0 5.88 72.50
  L 37.50 72.50
  A 0.50 0.50 0.0 0 0 38.00 72.00
  Q 38.00 69.35 38.00 66.70
  Q 38.00 66.64 38.08 65.81
  Q 38.25 64.13 35.32 65.41
  A 0.61 0.60 71.8 0 0 34.97 66.11
  Q 35.36 67.79 34.54 68.82
  A 1.14 0.93 15.6 0 1 33.70 69.19
  L 9.14 69.25
  A 1.09 1.04 0.5 0 1 8.05 68.19
  L 8.27 54.81
  A 0.56 0.53 -0.0 0 1 8.82 54.29
  Z
  M 83.07 54.79
  L 83.16 57.45
  A 0.68 0.40 89.8 0 0 83.54 58.09
  L 85.95 58.26
  A 0.57 0.47 -87.6 0 0 86.46 57.69
  L 86.51 51.75
  A 0.61 0.60 5.2 0 0 86.01 51.16
  Q 82.66 50.59 79.25 50.68
  Q 66.54 51.05 53.82 51.06
  A 0.53 0.52 0.6 0 0 53.29 51.57
  L 53.24 57.25
  A 0.71 0.70 -80.9 0 0 53.72 57.92
  Q 57.33 59.14 56.52 55.36
  A 1.08 1.05 84.2 0 1 57.55 54.06
  L 82.44 54.29
  A 0.65 0.52 -0.3 0 1 83.07 54.79
  Z
  M 104.98 68.44
  L 104.75 65.74
  A 1.01 0.75 -83.3 0 0 104.32 64.99
  Q 103.21 64.42 102.02 64.86
  A 0.74 0.72 -10.7 0 0 101.53 65.56
  L 101.64 71.81
  A 0.54 0.52 -0.5 0 0 102.18 72.32
  L 134.13 72.49
  A 0.62 0.61 -89.5 0 0 134.75 71.87
  L 134.69 51.78
  A 0.81 0.79 0.0 0 0 133.88 50.99
  L 103.40 50.72
  A 1.88 1.85 1.6 0 0 101.50 52.49
  Q 101.46 53.67 101.49 56.06
  Q 101.49 56.17 101.42 56.93
  Q 101.25 58.76 104.48 57.94
  A 0.54 0.54 76.6 0 0 104.87 57.30
  Q 104.52 55.70 104.99 54.69
  A 0.85 0.77 11.4 0 1 105.74 54.24
  L 130.45 54.06
  A 1.06 1.04 89.7 0 1 131.50 55.12
  L 131.50 68.09
  A 1.13 1.10 -89.7 0 1 130.39 69.22
  L 105.55 68.96
  A 0.58 0.56 -1.6 0 1 104.98 68.44
  Z
  M 80.77 56.15
  L 59.81 56.32
  A 0.95 0.75 11.2 0 0 59.03 56.72
  Q 58.61 57.49 59.47 57.69
  Q 59.81 57.76 60.51 57.61
  Q 62.11 57.27 63.56 58.00
  A 1.07 0.96 -83.4 0 1 64.09 58.75
  Q 64.58 61.61 64.04 64.45
  A 0.70 0.68 -87.0 0 1 63.44 65.01
  L 59.00 65.46
  Q 58.02 64.31 57.98 66.95
  A 1.04 1.03 -88.6 0 0 58.97 68.00
  Q 69.46 68.41 79.93 68.27
  Q 81.25 68.25 81.83 67.60
  Q 82.77 66.57 81.80 65.15
  A 1.03 0.85 -13.8 0 0 80.99 64.76
  L 78.22 64.74
  Q 76.47 64.72 76.18 62.90
  Q 75.29 57.24 79.29 58.06
  Q 80.14 58.24 80.73 58.11
  Q 83.71 57.43 80.77 56.15
  Z
  M 128.65 56.22
  L 107.74 56.48
  A 0.62 0.57 2.0 0 0 107.14 56.99
  Q 107.04 58.09 108.69 57.69
  Q 112.31 56.81 112.60 59.62
  Q 111.58 61.72 111.66 63.93
  A 0.61 0.47 87.9 0 1 111.21 64.55
  L 107.13 64.75
  Q 104.62 66.39 106.52 67.54
  Q 107.26 67.99 108.60 68.07
  Q 119.29 68.70 129.99 67.72
  Q 130.01 62.34 130.02 57.50
  Q 130.03 55.40 128.65 56.22
  Z
  M 10.15 67.25
  Q 21.42 68.44 32.69 68.20
  A 0.79 0.60 3.9 0 0 33.40 67.73
  Q 33.56 67.10 32.75 66.71
  Q 33.06 66.37 32.79 66.00
  Q 33.15 65.46 32.77 65.06
  Q 32.54 64.81 32.02 64.80
  Q 30.41 64.75 28.81 64.70
  A 0.58 0.58 87.1 0 1 28.25 64.19
  Q 28.00 62.22 27.81 60.27
  Q 27.63 58.38 29.25 57.79
  Q 33.51 58.36 31.86 56.60
  A 1.22 1.09 -19.6 0 0 31.01 56.25
  L 11.06 56.31
  A 0.54 0.50 0.5 0 0 10.52 56.80
  L 10.15 67.25
  Z
  M 61.96 60.25
  A 0.26 0.26 0.0 0 0 61.70 59.99
  L 29.46 59.99
  A 0.26 0.26 0.0 0 0 29.20 60.25
  L 29.20 62.75
  A 0.26 0.26 0.0 0 0 29.46 63.01
  L 61.70 63.01
  A 0.26 0.26 0.0 0 0 61.96 62.75
  L 61.96 60.25
  Z
  M 110.4655 60.1425
  A 0.35 0.35 0.0 0 0 110.1143 59.7937
  L 77.8745 59.9063
  A 0.35 0.35 0.0 0 0 77.5257 60.2575
  L 77.5345 62.7575
  A 0.35 0.35 0.0 0 0 77.8857 63.1063
  L 110.1255 62.9937
  A 0.35 0.35 0.0 0 0 110.4743 62.6425
  L 110.4655 60.1425
  Z
  M 56.68 68.45
  L 56.46 65.75
  A 0.79 0.57 -88.0 0 0 56.02 65.09
  Q 54.87 64.78 53.73 65.09
  A 0.68 0.65 82.8 0 0 53.25 65.74
  L 53.25 71.82
  A 0.67 0.66 90.0 0 0 53.91 72.49
  L 85.76 72.51
  A 0.56 0.51 0.0 0 0 86.32 72.00
  L 86.38 65.44
  A 0.75 0.67 9.3 0 0 85.84 64.78
  Q 82.52 63.76 83.27 67.33
  A 1.42 1.42 82.6 0 1 81.96 69.03
  Q 69.89 69.65 57.31 68.97
  A 0.69 0.56 0.4 0 1 56.68 68.45
  Z"
/>
<path fill="#969b9a" fill-opacity="0.992" d="
  M 52.50 48.79
  L 51.33 57.55
  Q 50.76 53.52 50.92 50.25
  Q 51.00 48.68 52.50 48.79
  Z"
/>
<path fill="#969b9a" fill-opacity="0.992" d="
  M 135.75 48.79
  Q 137.07 49.07 137.06 50.50
  Q 137.00 60.49 137.00 70.48
  Q 137.00 70.55 137.09 72.01
  Q 137.27 75.08 134.18 74.81
  Q 132.56 74.68 132.45 74.67
  Q 116.47 74.41 100.44 74.57
  Q 115.48 73.69 130.50 73.96
  L 133.26 73.85
  Q 133.95 73.83 134.23 73.89
  Q 136.26 74.41 136.12 72.31
  Q 136.01 70.77 136.01 70.68
  Q 136.17 59.73 135.75 48.79
  Z"
/>
<path fill="#b2b6b2" d="
  M 8.27 54.81
  L 8.05 68.19
  A 1.09 1.04 0.5 0 0 9.14 69.25
  L 33.70 69.19
  A 1.14 0.93 15.6 0 0 34.54 68.82
  Q 35.36 67.79 34.97 66.11
  A 0.61 0.60 71.8 0 1 35.32 65.41
  Q 38.25 64.13 38.08 65.81
  Q 38.00 66.64 38.00 66.70
  Q 38.00 69.35 38.00 72.00
  A 0.50 0.50 0.0 0 1 37.50 72.50
  L 5.88 72.50
  A 0.88 0.88 -2.1 0 1 5.00 71.62
  L 5.00 51.91
  A 0.89 0.87 -90.0 0 1 5.87 51.02
  L 37.70 51.05
  A 0.51 0.46 -89.4 0 1 38.16 51.57
  L 38.00 57.25
  A 0.75 0.70 81.7 0 1 37.53 57.93
  Q 34.25 59.08 34.84 55.83
  A 1.53 1.49 -85.0 0 0 33.37 54.03
  L 8.82 54.29
  A 0.56 0.53 -0.0 0 0 8.27 54.81
  Z"
/>
<path fill="#b2b6b2" d="
  M 82.44 54.29
  L 57.55 54.06
  A 1.08 1.05 84.2 0 0 56.52 55.36
  Q 57.33 59.14 53.72 57.92
  A 0.71 0.70 -80.9 0 1 53.24 57.25
  L 53.29 51.57
  A 0.53 0.52 0.6 0 1 53.82 51.06
  Q 66.54 51.05 79.25 50.68
  Q 82.66 50.59 86.01 51.16
  A 0.61 0.60 5.2 0 1 86.51 51.75
  L 86.46 57.69
  A 0.57 0.47 -87.6 0 1 85.95 58.26
  L 83.54 58.09
  A 0.68 0.40 89.8 0 1 83.16 57.45
  L 83.07 54.79
  A 0.65 0.52 -0.3 0 0 82.44 54.29
  Z"
/>
<path fill="#b2b6b2" d="
  M 105.55 68.96
  L 130.39 69.22
  A 1.13 1.10 -89.7 0 0 131.50 68.09
  L 131.50 55.12
  A 1.06 1.04 89.7 0 0 130.45 54.06
  L 105.74 54.24
  A 0.85 0.77 11.4 0 0 104.99 54.69
  Q 104.52 55.70 104.87 57.30
  A 0.54 0.54 76.6 0 1 104.48 57.94
  Q 101.25 58.76 101.42 56.93
  Q 101.49 56.17 101.49 56.06
  Q 101.46 53.67 101.50 52.49
  A 1.88 1.85 1.6 0 1 103.40 50.72
  L 133.88 50.99
  A 0.81 0.79 0.0 0 1 134.69 51.78
  L 134.75 71.87
  A 0.62 0.61 -89.5 0 1 134.13 72.49
  L 102.18 72.32
  A 0.54 0.52 -0.5 0 1 101.64 71.81
  L 101.53 65.56
  A 0.74 0.72 -10.7 0 1 102.02 64.86
  Q 103.21 64.42 104.32 64.99
  A 1.01 0.75 -83.3 0 1 104.75 65.74
  L 104.98 68.44
  A 0.58 0.56 -1.6 0 0 105.55 68.96
  Z"
/>
<path fill="#969b9a" fill-opacity="0.992" d="
  M 59.00 65.46
  Q 58.54 66.01 58.78 66.54
  A 0.90 0.66 -8.5 0 0 59.55 66.95
  L 80.44 66.94
  A 0.56 0.43 -3.0 0 0 81.01 66.45
  L 80.90 65.77
  A 0.77 0.53 -1.2 0 0 80.18 65.30
  L 77.65 65.23
  A 2.15 2.15 -4.1 0 1 75.59 63.45
  Q 74.46 56.94 78.99 57.82
  Q 81.36 58.29 80.77 56.15
  Q 83.71 57.43 80.73 58.11
  Q 80.14 58.24 79.29 58.06
  Q 75.29 57.24 76.18 62.90
  Q 76.47 64.72 78.22 64.74
  L 80.99 64.76
  A 1.03 0.85 -13.8 0 1 81.80 65.15
  Q 82.77 66.57 81.83 67.60
  Q 81.25 68.25 79.93 68.27
  Q 69.46 68.41 58.97 68.00
  A 1.04 1.03 -88.6 0 1 57.98 66.95
  Q 58.02 64.31 59.00 65.46
  Z"
/>
<path fill="#68736c" fill-opacity="0.988" d="
  M 129.99 67.72
  Q 129.65 66.72 129.00 66.96
  Q 129.89 61.49 128.65 56.22
  Q 130.03 55.40 130.02 57.50
  Q 130.01 62.34 129.99 67.72
  Z"
/>
<path fill="#969b9a" fill-opacity="0.992" d="
  M 29.25 57.79
  Q 27.63 58.38 27.81 60.27
  Q 28.00 62.22 28.25 64.19
  A 0.58 0.58 87.1 0 0 28.81 64.70
  Q 30.41 64.75 32.02 64.80
  Q 32.54 64.81 32.77 65.06
  Q 33.15 65.46 32.79 66.00
  Q 31.42 64.81 29.11 65.34
  Q 27.00 65.83 27.00 63.66
  Q 27.00 61.37 27.04 59.50
  Q 27.09 57.36 29.25 57.79
  Z"
/>
<rect fill="#d3d7cf" x="29.20" y="59.99" width="32.76" height="3.02" rx="0.26"/>
<rect fill="#d3d7cf" x="-16.47" y="-1.60" transform="translate(94.00,61.45) rotate(-0.2)" width="32.94" height="3.20" rx="0.35"/>
<path fill="#68736c" fill-opacity="0.988" d="
  M 112.60 59.62
  Q 113.03 62.12 112.44 64.49
  A 1.01 1.00 7.0 0 1 111.46 65.25
  L 107.54 65.25
  Q 107.54 65.13 107.13 64.75
  L 111.21 64.55
  A 0.61 0.47 87.9 0 0 111.66 63.93
  Q 111.58 61.72 112.60 59.62
  Z"
/>
<path fill="#b2b6b2" d="
  M 57.31 68.97
  Q 69.89 69.65 81.96 69.03
  A 1.42 1.42 82.6 0 0 83.27 67.33
  Q 82.52 63.76 85.84 64.78
  A 0.75 0.67 9.3 0 1 86.38 65.44
  L 86.32 72.00
  A 0.56 0.51 0.0 0 1 85.76 72.51
  L 53.91 72.49
  A 0.67 0.66 90.0 0 1 53.25 71.82
  L 53.25 65.74
  A 0.68 0.65 82.8 0 1 53.73 65.09
  Q 54.87 64.78 56.02 65.09
  A 0.79 0.57 -88.0 0 1 56.46 65.75
  L 56.68 68.45
  A 0.69 0.56 0.4 0 0 57.31 68.97
  Z"
/>
<path fill="#68736c" fill-opacity="0.988" d="
  M 130.50 73.96
  Q 115.48 73.69 100.44 74.57
  Q 98.73 73.23 99.25 70.50
  Q 99.73 67.99 98.71 65.25
  Q 99.12 64.49 99.62 64.93
  A 1.28 0.82 -77.7 0 1 99.95 65.82
  L 100.00 72.68
  A 1.36 1.34 88.6 0 0 101.40 74.03
  Q 116.38 73.45 130.50 73.96
  Z"
/>
<path fill="#969b9a" fill-opacity="0.992" d="
  M 88.71 71.75
  Q 88.98 74.96 86.22 74.69
  Q 84.75 74.55 84.63 74.55
  Q 68.61 74.32 53.10 74.68
  Q 51.03 74.72 50.95 72.43
  L 50.71 65.50
  Q 51.17 64.52 51.72 65.22
  Q 51.93 65.50 51.98 65.97
  Q 52.24 68.91 51.91 72.80
  A 0.96 0.95 2.5 0 0 52.87 73.83
  L 86.69 73.93
  A 1.05 0.85 13.5 0 0 87.51 73.54
  L 88.71 71.75
  Z"
/>
<path fill="#969b9a" fill-opacity="0.992" d="
  M 107.13 64.75
  Q 107.54 65.13 107.54 65.25
  Q 106.13 67.18 108.39 67.06
  Q 109.51 67.00 109.63 67.00
  Q 119.31 67.03 129.00 66.96
  Q 129.65 66.72 129.99 67.72
  Q 119.29 68.70 108.60 68.07
  Q 107.26 67.99 106.52 67.54
  Q 104.62 66.39 107.13 64.75
  Z"
/>
<path fill="#969b9a" fill-opacity="0.992" d="
  M 10.15 67.25
  L 32.75 66.71
  Q 33.56 67.10 33.40 67.73
  A 0.79 0.60 3.9 0 1 32.69 68.20
  Q 21.42 68.44 10.15 67.25
  Z"
/>
<path fill="#68736c" fill-opacity="0.988" d="
  M 33.00 74.54
  L 4.23 74.44
  Q 20.49 73.59 36.75 74.09
  Q 40.35 74.20 35.75 74.25
  Q 33.71 74.27 33.00 74.54
  Z"
/>
</svg>
