<?xml version="1.0" encoding="UTF-8" standalone="no"?>
<!DOCTYPE svg PUBLIC "-//W3C//DTD SVG 1.1//EN" "http://www.w3.org/Graphics/SVG/1.1/DTD/svg11.dtd">
<svg xmlns="http://www.w3.org/2000/svg" version="1.1" viewBox="0 0 140 100">
<g stroke-width="2.00" fill="none" stroke-linecap="butt">
<path stroke="#cc5956" stroke-opacity="0.992" vector-effect="non-scaling-stroke" d="
  M 76.87 36.90
  L 74.25 33.17
  A 0.69 0.59 -43.5 0 1 74.33 32.38
  Q 76.89 29.32 76.13 24.49
  A 1.33 1.32 74.7 0 1 76.94 23.06
  Q 78.21 22.55 79.41 21.01
  Q 79.59 20.78 79.58 20.58
  Q 79.56 20.25 79.30 20.13
  A 1.09 0.40 -36.5 0 0 78.44 20.38
  L 75.29 22.39
  A 0.31 0.25 41.0 0 1 75.00 22.38
  Q 69.17 19.32 65.35 22.12
  Q 62.33 24.33 62.99 28.39
  A 1.44 1.44 86.9 0 1 61.49 30.06
  Q 53.35 29.60 50.69 35.94
  Q 50.07 37.42 50.44 38.38
  Q 50.67 38.95 50.63 39.31
  Q 50.32 41.87 49.89 44.41
  Q 49.35 47.65 50.03 49.43
  Q 51.19 52.42 54.31 54.14"
/>
<path stroke="#d06360" stroke-opacity="0.992" vector-effect="non-scaling-stroke" d="
  M 77.04 38.50
  Q 76.63 38.08 76.04 38.25"
/>
<path stroke="#dd8b8c" vector-effect="non-scaling-stroke" d="
  M 76.04 38.25
  Q 75.47 34.96 72.82 33.94
  Q 71.44 33.40 68.67 33.89
  Q 66.58 34.26 64.47 34.54
  Q 63.20 34.70 64.08 34.11
  Q 64.23 34.01 64.43 33.96
  Q 66.54 33.41 63.93 32.13
  A 1.22 1.22 -65.1 0 0 62.27 32.74
  Q 61.40 34.75 60.69 36.73
  Q 59.64 39.66 58.71 40.44
  Q 56.65 42.17 53.29 40.22
  A 0.80 0.79 -61.6 0 0 52.19 40.55
  Q 51.38 42.11 51.41 44.06
  A 0.73 0.53 10.0 0 0 51.94 44.61
  L 56.86 45.97
  A 0.78 0.68 -84.3 0 1 57.37 46.69
  L 57.47 51.30
  A 0.58 0.49 -89.0 0 0 57.93 51.86
  Q 61.33 52.15 63.30 49.99
  Q 63.85 49.39 63.04 49.34
  Q 59.66 49.14 60.31 48.44
  Q 60.71 48.02 61.80 48.02
  Q 67.42 48.02 72.02 44.80
  Q 73.13 44.02 72.74 43.57
  A 0.67 0.48 -40.1 0 0 71.93 43.63
  Q 67.05 47.55 60.71 46.98
  A 0.51 0.39 4.9 0 1 60.25 46.56
  Q 60.26 46.31 60.45 46.16
  Q 60.64 46.00 61.10 46.01
  Q 63.04 46.05 64.95 45.76
  A 0.81 0.81 -84.6 0 0 65.60 45.22
  Q 66.62 42.10 66.81 37.55
  A 0.53 0.52 -2.8 0 0 66.21 37.01
  Q 63.90 37.33 63.87 36.83
  Q 63.84 36.39 64.89 35.99
  Q 68.68 34.56 72.69 35.22
  A 1.63 1.36 -12.7 0 1 73.55 35.66
  Q 74.85 37.03 74.79 39.00"
/>
<path stroke="#d06360" stroke-opacity="0.992" vector-effect="non-scaling-stroke" d="
  M 74.79 39.00
  Q 75.73 40.17 77.04 40.75"
/>
<path stroke="#d06360" stroke-opacity="0.992" vector-effect="non-scaling-stroke" d="
  M 80.25 40.54
  Q 84.04 40.72 83.77 36.97"
/>
<path stroke="#cb4d4e" vector-effect="non-scaling-stroke" d="
  M 83.96 34.75
  Q 85.43 35.20 86.00 33.79"
/>
<path stroke="#d06360" stroke-opacity="0.992" vector-effect="non-scaling-stroke" d="
  M 86.29 34.00
  Q 87.45 37.37 87.25 40.96"
/>
<path stroke="#d06360" stroke-opacity="0.992" vector-effect="non-scaling-stroke" d="
  M 87.25 40.96
  Q 88.01 43.89 86.14 46.19
  A 1.21 0.96 -65.9 0 1 85.31 46.62
  L 83.94 46.62
  A 1.28 0.76 60.4 0 1 83.13 46.16
  Q 82.18 45.11 80.76 45.16
  Q 79.46 45.20 79.22 45.18
  Q 77.40 45.08 74.71 45.40
  A 2.35 2.35 13.0 0 0 73.01 46.46
  Q 70.96 49.63 73.58 51.89
  Q 74.94 53.06 74.97 53.09
  Q 78.00 56.39 75.12 60.17
  Q 74.75 60.66 74.70 61.04
  Q 74.57 62.04 75.75 61.71"
/>
<path stroke="#d06360" stroke-opacity="0.992" vector-effect="non-scaling-stroke" d="
  M 76.50 61.96
  Q 76.16 63.72 78.04 63.75"
/>
<path stroke="#cc5956" stroke-opacity="0.992" vector-effect="non-scaling-stroke" d="
  M 78.29 65.37
  Q 74.28 66.68 70.53 65.36
  A 0.71 0.69 -80.9 0 1 70.06 64.69
  Q 70.10 60.99 71.72 57.63
  A 1.26 1.11 -44.3 0 0 71.79 56.71
  Q 70.94 54.25 68.81 53.66
  A 1.29 1.28 -72.8 0 0 67.25 54.49
  Q 65.64 59.37 62.39 63.30
  A 0.47 0.46 38.4 0 0 62.48 63.97
  Q 64.13 65.21 64.00 67.19
  A 0.76 0.71 -5.9 0 1 63.45 67.83
  Q 59.80 68.85 56.47 67.82
  A 1.16 1.15 -72.3 0 1 55.72 66.36
  Q 56.66 63.45 58.33 61.82
  Q 62.00 58.24 62.96 53.09
  A 0.36 0.36 -2.6 0 0 62.51 52.68
  Q 61.11 53.09 60.05 53.27
  Q 59.79 53.32 59.61 53.45
  Q 58.96 53.95 59.75 54.04"
/>
<path stroke="#f3d8d4" stroke-opacity="0.992" vector-effect="non-scaling-stroke" d="
  M 76.04 38.25
  Q 75.78 39.21 74.79 39.00"
/>
<path stroke="#d4706b" stroke-opacity="0.992" vector-effect="non-scaling-stroke" d="
  M 85.68 49.87
  Q 82.21 46.84 84.96 52.50"
/>
<path stroke="#d4706b" stroke-opacity="0.992" vector-effect="non-scaling-stroke" d="
  M 84.46 56.75
  Q 82.79 52.68 82.92 48.28
  A 0.68 0.49 -86.1 0 0 82.51 47.62
  Q 82.26 47.58 82.00 47.71"
/>
<path stroke="#db7674" stroke-opacity="0.996" vector-effect="non-scaling-stroke" d="
  M 83.79 58.75
  Q 82.95 57.14 82.91 55.36
  Q 82.88 53.54 82.58 52.71
  Q 82.12 51.43 81.50 50.21"
/>
<path stroke="#db7674" stroke-opacity="0.996" vector-effect="non-scaling-stroke" d="
  M 83.46 61.00
  Q 81.65 58.86 82.04 56.01
  Q 82.23 54.59 81.04 54.00"
/>
<path stroke="#d06660" stroke-opacity="0.992" vector-effect="non-scaling-stroke" d="
  M 82.83 63.82
  Q 81.16 58.49 81.00 57.00
  Q 80.93 56.35 80.29 56.75"
/>
<path stroke="#cc5956" stroke-opacity="0.992" vector-effect="non-scaling-stroke" d="
  M 79.79 60.75
  Q 79.72 62.97 80.81 65.69
  Q 81.34 66.98 80.53 68.33
  Q 80.22 68.85 80.74 68.79
  Q 82.17 68.61 81.26 64.58
  Q 80.91 63.06 81.34 61.57
  Q 81.54 60.87 79.96 60.25"
/>
<path stroke="#cf5a59" stroke-opacity="0.996" vector-effect="non-scaling-stroke" d="
  M 14.96 64.50
  Q 16.51 64.50 18.04 64.82
  Q 20.00 65.24 19.54 64.40
  A 0.94 0.65 -10.4 0 0 18.74 64.04
  Q 16.71 64.09 15.25 62.71"
/>
<path stroke="#d4706b" stroke-opacity="0.992" vector-effect="non-scaling-stroke" d="
  M 46.75 61.96
  Q 45.62 63.72 43.96 62.25"
/>
<path stroke="#d06360" stroke-opacity="0.992" vector-effect="non-scaling-stroke" d="
  M 41.21 63.80
  Q 43.55 65.59 46.03 64.69
  Q 46.57 64.50 46.06 64.26
  Q 45.10 63.82 43.99 63.93
  A 0.96 0.92 66.4 0 1 43.20 63.60
  Q 42.70 63.03 41.96 62.75"
/>
<path stroke="#d06360" stroke-opacity="0.992" vector-effect="non-scaling-stroke" d="
  M 35.78 64.78
  Q 35.26 65.54 35.60 65.97
  A 0.95 0.47 45.1 0 1 35.86 66.74
  Q 35.60 67.37 35.18 66.75
  A 1.47 0.85 68.9 0 0 34.46 66.17
  L 29.75 64.96"
/>
<path stroke="#666a69" vector-effect="non-scaling-stroke" d="
  M 21.31 72.84
  L 6.25 73.04"
/>
<path stroke="#828584" stroke-opacity="0.996" vector-effect="non-scaling-stroke" d="
  M 6.25 73.04
  Q 5.86 72.79 6.00 72.29"
/>
<path stroke="#44484a" stroke-opacity="0.996" vector-effect="non-scaling-stroke" d="
  M 6.25 73.04
  Q 5.62 80.00 6.25 86.96"
/>
<path stroke="#828584" stroke-opacity="0.996" vector-effect="non-scaling-stroke" d="
  M 6.25 86.96
  Q 5.75 86.81 5.59 87.68"
/>
<path stroke="#44484a" stroke-opacity="0.996" vector-effect="non-scaling-stroke" d="
  M 25.50 76.79
  Q 26.37 78.26 28.26 78.06
  Q 30.16 77.87 28.75 76.71"
/>
<path stroke="#44484a" stroke-opacity="0.996" vector-effect="non-scaling-stroke" d="
  M 94.75 76.79
  Q 96.73 78.17 99.21 78.25"
/>
<path stroke="#202525" vector-effect="non-scaling-stroke" d="
  M 99.21 78.25
  L 99.61 86.95"
/>
<path stroke="#6f7372" vector-effect="non-scaling-stroke" d="
  M 99.61 86.95
  Q 99.30 86.89 98.96 87.25"
/>
<path stroke="#666a69" vector-effect="non-scaling-stroke" d="
  M 91.10 87.37
  Q 84.12 86.48 76.81 87.25"
/>
<path stroke="#44484a" stroke-opacity="0.996" vector-effect="non-scaling-stroke" d="
  M 76.81 87.25
  Q 75.48 83.79 75.93 79.99
  A 0.93 0.76 -71.3 0 0 75.62 79.17
  Q 74.66 78.48 73.75 79.46"
/>
<path stroke="#6f7372" vector-effect="non-scaling-stroke" d="
  M 68.22 79.12
  Q 66.38 81.86 67.07 85.65
  A 0.92 0.90 84.0 0 1 66.21 86.74
  L 54.17 86.99
  A 1.24 1.20 -88.7 0 1 52.96 85.68
  Q 53.16 82.42 52.58 79.83
  Q 52.50 79.47 52.28 79.24
  Q 51.56 78.47 51.50 79.71"
/>
<path stroke="#666a69" vector-effect="non-scaling-stroke" d="
  M 44.50 86.59
  L 28.74 87.30"
/>
<path stroke="#666a69" vector-effect="non-scaling-stroke" d="
  M 21.12 87.34
  L 6.25 86.96"
/>
<path stroke="#666a69" vector-effect="non-scaling-stroke" d="
  M 91.33 72.89
  L 76.56 73.28
  A 0.44 0.42 82.6 0 0 76.17 73.81
  Q 77.50 80.44 72.25 76.79"
/>
<path stroke="#3b3f3f" stroke-opacity="0.996" vector-effect="non-scaling-stroke" d="
  M 114.29 73.75
  Q 114.31 74.78 114.21 75.77
  Q 113.92 78.68 115.59 76.92"
/>
<path stroke="#3b3f3f" stroke-opacity="0.996" vector-effect="non-scaling-stroke" d="
  M 114.83 79.23
  Q 113.15 82.69 113.75 86.71"
/>
<path stroke="#666a68" vector-effect="non-scaling-stroke" d="
  M 113.75 86.71
  L 99.61 86.95"
/>
<path stroke="#3b3f3f" stroke-opacity="0.996" vector-effect="non-scaling-stroke" d="
  M 99.21 78.25
  L 99.46 74.88
  A 0.70 0.36 -81.7 0 0 99.24 74.24
  Q 99.06 74.17 98.79 74.25"
/>
<path stroke="#6f7372" vector-effect="non-scaling-stroke" d="
  M 68.75 77.04
  Q 68.29 77.67 67.71 77.44
  Q 67.33 77.28 67.15 76.75
  Q 66.71 75.42 67.03 74.41
  A 1.12 1.10 -81.3 0 0 65.97 72.94
  L 53.69 73.16
  A 0.60 0.55 -87.0 0 0 53.15 73.69
  L 52.77 76.94
  A 1.03 0.99 79.2 0 1 52.27 77.71
  Q 50.55 78.70 49.50 76.79"
/>
<path stroke="#666a69" vector-effect="non-scaling-stroke" d="
  M 45.50 76.79
  Q 45.54 78.00 44.74 77.50
  A 1.53 1.53 -67.8 0 1 44.06 75.88
  Q 44.81 72.44 42.25 73.00
  Q 39.68 73.56 28.73 72.65"
/>
<path stroke="#828584" stroke-opacity="0.996" vector-effect="non-scaling-stroke" d="
  M 76.81 87.25
  Q 76.19 87.00 76.00 87.71"
/>
<path stroke="#8b8d8e" stroke-opacity="0.996" vector-effect="non-scaling-stroke" d="
  M 114.46 86.75
  L 113.75 86.71"
/>
<path stroke="#8b8d8e" stroke-opacity="0.996" vector-effect="non-scaling-stroke" d="
  M 114.71 74.50
  L 114.29 73.75"
/>
<path stroke="#666a68" vector-effect="non-scaling-stroke" d="
  M 114.29 73.75
  Q 114.20 73.04 113.69 73.06
  Q 105.47 73.48 98.92 72.48"
/>
<path stroke="#666a68" vector-effect="non-scaling-stroke" d="
  M 121.00 79.46
  Q 122.92 78.39 122.99 80.81
  Q 123.07 83.57 123.38 86.32
  A 0.59 0.55 86.0 0 0 123.94 86.84
  L 136.29 86.74
  A 0.71 0.69 89.2 0 0 136.97 86.02
  L 136.84 73.70
  A 0.54 0.54 0.5 0 0 136.31 73.16
  L 124.25 73.03
  A 1.21 1.17 -87.9 0 0 123.07 74.17
  Q 122.69 80.11 119.25 76.79"
/>
<path stroke="#dd8b8c" vector-effect="non-scaling-stroke" d="
  M 71.92 22.39
  Q 67.27 20.89 64.81 24.90
  Q 64.20 25.89 65.30 25.57
  L 71.93 23.60
  Q 73.88 23.03 71.92 22.39"
/>
<path stroke="#dd8b8c" vector-effect="non-scaling-stroke" d="
  M 66.16 30.86
  Q 69.87 33.13 72.99 30.96
  Q 74.38 29.99 74.66 28.45
  Q 74.92 27.05 74.63 25.25
  A 0.70 0.64 -12.9 0 0 73.75 24.75
  L 64.92 27.35
  A 0.69 0.56 -10.5 0 0 64.42 27.93
  Q 64.43 29.81 66.16 30.86"
/>
<path stroke="#dd8b8c" vector-effect="non-scaling-stroke" d="
  M 52.18 35.79
  Q 50.85 37.57 52.84 38.59
  Q 53.86 39.11 57.20 39.37
  A 0.85 0.80 11.9 0 0 58.05 38.85
  L 60.67 31.77
  A 0.43 0.42 8.7 0 0 60.25 31.20
  Q 55.43 31.43 52.18 35.79"
/>
<path stroke="#dd8b8c" vector-effect="non-scaling-stroke" d="
  M 85.11 36.85
  Q 84.75 38.67 84.52 40.50
  Q 84.35 41.84 85.26 41.43
  A 0.90 0.83 -11.2 0 0 85.79 40.70
  L 86.05 35.99
  A 0.61 0.54 -88.0 0 0 85.52 35.35
  Q 85.10 35.34 85.14 36.02
  Q 85.16 36.55 85.11 36.85"
/>
<path stroke="#d88486" vector-effect="non-scaling-stroke" d="
  M 74.75 42.05
  Q 72.98 39.79 71.42 37.39
  Q 70.86 36.55 70.42 36.24
  Q 69.39 35.53 68.73 36.57
  A 0.47 0.41 27.8 0 0 68.97 37.19
  Q 70.72 37.96 71.44 39.31
  Q 74.71 45.53 81.75 43.75
  Q 82.50 43.56 83.44 44.26
  Q 84.26 44.88 84.73 44.91
  Q 85.67 44.95 85.80 43.94
  A 0.77 0.68 17.4 0 0 85.36 43.21
  Q 84.29 42.69 83.14 42.43
  Q 82.27 42.24 80.89 42.60
  Q 78.23 43.30 75.54 42.58
  A 1.60 1.47 76.5 0 1 74.75 42.05"
/>
<path stroke="#dd8b8c" vector-effect="non-scaling-stroke" d="
  M 68.42 39.95
  L 67.70 44.21
  A 0.32 0.30 89.9 0 0 68.05 44.59
  Q 73.52 43.43 69.43 39.55
  Q 68.62 38.79 68.42 39.95"
/>
<path stroke="#dd8b8c" vector-effect="non-scaling-stroke" d="
  M 53.94 51.81
  A 1.78 1.10 -67.6 0 0 55.75 50.50
  Q 57.13 46.71 52.18 46.44
  A 1.06 1.06 4.9 0 0 51.07 47.37
  Q 50.72 50.06 53.94 51.81"
/>
<path stroke="#dd8b8c" vector-effect="non-scaling-stroke" d="
  M 64.67 53.43
  Q 62.66 60.15 57.68 65.20
  A 0.94 0.94 -58.7 0 0 58.06 66.76
  Q 59.23 67.14 60.87 67.02
  Q 62.15 66.93 62.25 66.36
  Q 62.36 65.73 59.84 65.33
  Q 58.81 65.16 59.52 64.39
  Q 63.98 59.59 65.91 54.27
  A 3.70 3.65 81.2 0 1 67.10 52.62
  Q 69.11 51.05 70.11 49.40
  Q 70.96 48.02 71.04 47.74
  Q 71.35 46.61 67.74 48.03
  Q 67.07 48.29 66.46 48.69
  Q 65.16 49.52 64.98 51.03
  Q 64.70 53.35 64.67 53.43"
/>
<path stroke="#d88486" vector-effect="non-scaling-stroke" d="
  M 72.76 63.20
  Q 72.64 61.11 74.24 59.05
  Q 75.95 56.84 74.28 54.77
  L 72.01 51.94
  A 1.36 1.20 72.2 0 0 71.20 51.46
  Q 69.88 51.30 70.84 52.68
  Q 71.70 53.92 72.87 54.99
  A 2.54 2.33 -59.0 0 1 73.42 57.68
  L 71.25 63.26
  A 1.23 1.17 17.3 0 0 72.13 64.84
  Q 73.31 65.12 74.81 64.98
  Q 75.25 64.94 75.50 64.73
  Q 75.99 64.33 75.57 63.87
  A 1.26 0.80 -15.1 0 0 74.68 63.59
  L 73.31 63.66
  A 0.52 0.49 -3.4 0 1 72.76 63.20"
/>
<path stroke="#d4706b" stroke-opacity="0.992" vector-effect="non-scaling-stroke" d="
  M 48.68 64.71
  Q 49.15 64.52 49.14 63.94
  A 0.79 0.71 9.2 0 0 48.59 63.26
  Q 47.20 62.80 47.95 64.36
  A 0.63 0.53 65.6 0 0 48.68 64.71"
/>
<path stroke="#db7674" stroke-opacity="0.996" vector-effect="non-scaling-stroke" d="
  M 7.48 66.42
  Q 5.32 65.28 3.80 65.59
  Q 3.38 65.67 3.21 65.97
  Q 2.90 66.51 3.86 66.70
  Q 5.88 67.09 7.36 66.98
  Q 8.40 66.90 7.48 66.42"
/>
<path stroke="#d06360" stroke-opacity="0.992" vector-effect="non-scaling-stroke" d="
  M 29.20 66.57
  Q 28.98 68.24 33.46 68.10
  Q 34.10 68.08 34.66 67.78
  Q 35.71 67.21 34.37 67.08
  Q 34.10 67.06 33.77 67.15
  Q 31.31 67.85 29.49 66.45
  A 0.18 0.18 -66.6 0 0 29.20 66.57"
/>
<path stroke="#7f8283" vector-effect="non-scaling-stroke" d="
  M 9.00 74.29
  Q 8.42 74.11 7.94 74.27
  A 0.80 0.62 83.4 0 0 7.50 75.00
  L 7.50 85.15
  A 0.58 0.57 2.8 0 0 8.02 85.72
  Q 12.48 86.21 16.74 85.83
  Q 16.75 85.83 18.23 85.90
  Q 19.52 85.97 18.96 84.00"
/>
<path stroke="#949797" vector-effect="non-scaling-stroke" d="
  M 18.96 84.00
  Q 19.54 77.95 17.27 81.33
  A 0.73 0.62 -62.6 0 1 16.51 81.64
  Q 15.00 81.18 15.53 79.15
  A 1.21 1.21 8.0 0 1 16.74 78.24
  Q 19.52 78.31 18.72 74.76
  A 0.65 0.63 83.8 0 0 18.10 74.25
  L 9.00 74.29"
/>
<path stroke="#eaeaeb" vector-effect="non-scaling-stroke" d="
  M 18.96 84.00
  Q 16.40 83.32 12.62 83.93
  Q 9.57 84.42 9.90 81.35
  Q 10.21 78.42 9.00 74.29"
/>
<path stroke="#949797" vector-effect="non-scaling-stroke" d="
  M 88.96 83.75
  Q 89.28 81.73 88.69 80.31
  Q 88.32 79.44 87.86 79.91
  A 1.31 0.39 -90.0 0 0 87.59 80.81
  Q 87.56 81.16 87.37 81.42
  A 0.76 0.67 28.7 0 1 86.52 81.61
  Q 85.09 81.04 85.56 78.98
  A 0.98 0.98 9.0 0 1 86.61 78.22
  Q 89.64 78.48 88.77 74.76
  A 0.66 0.66 83.3 0 0 88.13 74.25
  L 79.50 74.29"
/>
<path stroke="#7f8283" vector-effect="non-scaling-stroke" d="
  M 79.50 74.29
  L 78.06 74.08
  A 0.49 0.44 -86.0 0 0 77.55 74.57
  L 77.50 85.10
  A 0.66 0.65 0.9 0 0 78.14 85.75
  Q 82.13 85.87 86.23 85.77
  Q 86.34 85.77 87.75 85.88
  Q 89.61 86.04 88.96 83.75"
/>
<path stroke="#eaeaeb" vector-effect="non-scaling-stroke" d="
  M 79.50 74.29
  L 79.84 81.44
  Q 79.96 83.82 82.23 83.80
  L 88.96 83.75"
/>
<path stroke="#44484a" stroke-opacity="0.996" vector-effect="non-scaling-stroke" d="
  M 42.05 80.33
  Q 39.46 80.71 39.21 78.50"
/>
<path stroke="#949797" vector-effect="non-scaling-stroke" d="
  M 39.21 78.50
  Q 43.64 78.65 42.41 74.72
  A 0.70 0.67 -8.5 0 0 41.75 74.25
  L 31.48 74.25
  A 0.69 0.66 89.6 0 0 30.82 74.95
  L 30.99 85.06
  A 0.65 0.59 89.5 0 0 31.58 85.70
  L 41.81 85.61
  A 0.64 0.62 -85.5 0 0 42.41 85.08
  Q 42.87 82.62 42.05 80.33"
/>
<path stroke="#b0b1b2" stroke-opacity="0.996" vector-effect="non-scaling-stroke" d="
  M 39.21 78.50
  Q 36.86 80.79 40.00 81.75
  Q 40.84 82.01 42.05 80.33"
/>
<path stroke="#949797" vector-effect="non-scaling-stroke" d="
  M 64.57 85.84
  Q 66.35 85.33 65.91 83.14
  Q 65.77 82.41 65.78 81.83
  Q 65.82 78.75 64.00 81.54"
/>
<path stroke="#666a69" vector-effect="non-scaling-stroke" d="
  M 64.00 81.54
  Q 62.64 80.50 62.21 78.75"
/>
<path stroke="#949797" vector-effect="non-scaling-stroke" d="
  M 62.21 78.75
  L 62.36 78.51
  A 0.58 0.37 12.9 0 1 62.85 78.34
  Q 66.94 78.70 65.66 74.72
  A 0.71 0.67 -8.4 0 0 64.99 74.25
  L 56.10 74.28"
/>
<path stroke="#7f8283" vector-effect="non-scaling-stroke" d="
  M 56.10 74.28
  Q 53.86 73.70 54.00 75.82
  Q 54.31 80.28 54.24 85.25
  A 0.51 0.50 0.0 0 0 54.75 85.75
  L 64.57 85.84"
/>
<path stroke="#eaeaeb" vector-effect="non-scaling-stroke" d="
  M 56.10 74.28
  L 57.00 82.69
  A 0.67 0.62 89.2 0 0 57.56 83.28
  L 63.19 83.81
  A 1.23 0.69 -4.5 0 1 64.02 84.19
  Q 64.43 84.79 64.57 85.84"
/>
<path stroke="#d2d3d1" vector-effect="non-scaling-stroke" d="
  M 62.21 78.75
  Q 60.35 81.85 64.00 81.54"
/>
<path stroke="#8b8e8d" vector-effect="non-scaling-stroke" d="
  M 112.46 83.75
  L 112.64 80.55
  A 0.42 0.37 85.7 0 0 112.19 80.10
  Q 111.64 80.24 111.31 80.81
  Q 109.94 83.20 108.81 81.19
  Q 107.58 79.00 109.64 78.39
  Q 109.69 78.37 110.88 78.25
  Q 112.96 78.03 112.30 74.75
  A 0.62 0.62 -5.7 0 0 111.69 74.25
  L 102.33 74.28"
/>
<path stroke="#767979" vector-effect="non-scaling-stroke" d="
  M 102.33 74.28
  Q 101.81 74.17 101.41 74.25
  A 0.78 0.62 88.7 0 0 100.89 74.93
  Q 100.43 80.20 101.01 85.44
  A 0.52 0.51 -5.1 0 0 101.57 85.90
  Q 108.39 85.46 110.50 85.75
  Q 113.14 86.12 112.46 83.75"
/>
<path stroke="#eaeaeb" vector-effect="non-scaling-stroke" d="
  M 102.33 74.28
  Q 103.75 77.95 102.97 82.17
  A 0.98 0.97 -79.1 0 0 103.73 83.30
  Q 107.94 84.14 112.46 83.75"
/>
<path stroke="#8b8e8d" vector-effect="non-scaling-stroke" d="
  M 134.25 85.71
  Q 134.83 85.89 135.31 85.73
  A 0.80 0.62 83.4 0 0 135.75 85.00
  L 135.75 74.77
  A 0.52 0.51 90.0 0 0 135.24 74.25
  L 126.00 74.29"
/>
<path stroke="#767979" vector-effect="non-scaling-stroke" d="
  M 126.00 74.29
  Q 123.87 73.66 124.02 75.82
  Q 124.33 80.31 124.04 85.18
  A 0.53 0.53 -88.0 0 0 124.57 85.75
  L 134.25 85.71"
/>
<path stroke="#eaeaeb" vector-effect="non-scaling-stroke" d="
  M 126.00 74.29
  L 126.75 82.15
  A 1.52 1.46 87.6 0 0 128.19 83.52
  L 133.81 83.64
  A 0.55 0.51 2.5 0 1 134.35 84.19
  L 134.25 85.71"
/>
<path stroke="#5d615e" vector-effect="non-scaling-stroke" d="
  M 109.37 80.27
  Q 110.03 81.83 110.34 80.55
  A 1.04 0.99 -58.4 0 0 110.15 79.65
  Q 109.73 79.16 109.45 79.38
  A 0.85 0.55 62.3 0 0 109.37 80.27"
/>
</g>
<path fill="#dd9c94" fill-opacity="0.984" d="
  M 76.87 36.90
  L 74.25 33.17
  A 0.69 0.59 -43.5 0 1 74.33 32.38
  Q 76.89 29.32 76.13 24.49
  A 1.33 1.32 74.7 0 1 76.94 23.06
  Q 78.21 22.55 79.41 21.01
  Q 79.59 20.78 79.58 20.58
  Q 79.56 20.25 79.30 20.13
  A 1.09 0.40 -36.5 0 0 78.44 20.38
  L 75.29 22.39
  A 0.31 0.25 41.0 0 1 75.00 22.38
  Q 69.17 19.32 65.35 22.12
  Q 62.33 24.33 62.99 28.39
  A 1.44 1.44 86.9 0 1 61.49 30.06
  Q 53.35 29.60 50.69 35.94
  Q 50.07 37.42 50.44 38.38
  Q 50.67 38.95 50.63 39.31
  Q 50.32 41.87 49.89 44.41
  Q 49.35 47.65 50.03 49.43
  Q 51.19 52.42 54.31 54.14
  Q 50.64 53.00 49.34 49.77
  Q 48.66 48.09 49.07 45.17
  Q 49.40 42.84 49.75 40.50
  Q 49.96 39.05 49.52 38.17
  A 1.34 0.90 48.6 0 1 49.40 37.27
  Q 52.25 28.57 61.70 29.15
  A 0.40 0.40 88.2 0 0 62.12 28.70
  Q 61.50 23.81 65.06 21.31
  Q 69.51 18.20 74.58 21.24
  A 1.03 0.73 41.7 0 0 75.48 21.34
  L 78.67 19.61
  A 0.84 0.58 -35.8 0 1 79.47 19.59
  Q 81.54 21.15 78.18 22.96
  Q 76.37 23.93 76.94 25.90
  Q 77.72 28.64 74.87 32.57
  A 0.74 0.74 -55.2 0 0 75.06 33.63
  Q 77.07 35.00 76.87 36.90
  Z"
/>
<path fill="#bb1718" d="
  M 76.87 36.90
  Q 77.71 37.49 77.04 38.50
  Q 76.63 38.08 76.04 38.25
  Q 75.47 34.96 72.82 33.94
  Q 71.44 33.40 68.67 33.89
  Q 66.58 34.26 64.47 34.54
  Q 63.20 34.70 64.08 34.11
  Q 64.23 34.01 64.43 33.96
  Q 66.54 33.41 63.93 32.13
  A 1.22 1.22 -65.1 0 0 62.27 32.74
  Q 61.40 34.75 60.69 36.73
  Q 59.64 39.66 58.71 40.44
  Q 56.65 42.17 53.29 40.22
  A 0.80 0.79 -61.6 0 0 52.19 40.55
  Q 51.38 42.11 51.41 44.06
  A 0.73 0.53 10.0 0 0 51.94 44.61
  L 56.86 45.97
  A 0.78 0.68 -84.3 0 1 57.37 46.69
  L 57.47 51.30
  A 0.58 0.49 -89.0 0 0 57.93 51.86
  Q 61.33 52.15 63.30 49.99
  Q 63.85 49.39 63.04 49.34
  Q 59.66 49.14 60.31 48.44
  Q 60.71 48.02 61.80 48.02
  Q 67.42 48.02 72.02 44.80
  Q 73.13 44.02 72.74 43.57
  A 0.67 0.48 -40.1 0 0 71.93 43.63
  Q 67.05 47.55 60.71 46.98
  A 0.51 0.39 4.9 0 1 60.25 46.56
  Q 60.26 46.31 60.45 46.16
  Q 60.64 46.00 61.10 46.01
  Q 63.04 46.05 64.95 45.76
  A 0.81 0.81 -84.6 0 0 65.60 45.22
  Q 66.62 42.10 66.81 37.55
  A 0.53 0.52 -2.8 0 0 66.21 37.01
  Q 63.90 37.33 63.87 36.83
  Q 63.84 36.39 64.89 35.99
  Q 68.68 34.56 72.69 35.22
  A 1.63 1.36 -12.7 0 1 73.55 35.66
  Q 74.85 37.03 74.79 39.00
  Q 75.73 40.17 77.04 40.75
  L 80.25 40.54
  Q 84.04 40.72 83.77 36.97
  Q 83.42 35.87 83.96 34.75
  Q 85.43 35.20 86.00 33.79
  Q 86.25 33.74 86.29 34.00
  Q 87.45 37.37 87.25 40.96
  Q 88.01 43.89 86.14 46.19
  A 1.21 0.96 -65.9 0 1 85.31 46.62
  L 83.94 46.62
  A 1.28 0.76 60.4 0 1 83.13 46.16
  Q 82.18 45.11 80.76 45.16
  Q 79.46 45.20 79.22 45.18
  Q 77.40 45.08 74.71 45.40
  A 2.35 2.35 13.0 0 0 73.01 46.46
  Q 70.96 49.63 73.58 51.89
  Q 74.94 53.06 74.97 53.09
  Q 78.00 56.39 75.12 60.17
  Q 74.75 60.66 74.70 61.04
  Q 74.57 62.04 75.75 61.71
  Q 76.24 61.63 76.50 61.96
  Q 76.16 63.72 78.04 63.75
  Q 78.38 64.32 78.29 65.37
  Q 74.28 66.68 70.53 65.36
  A 0.71 0.69 -80.9 0 1 70.06 64.69
  Q 70.10 60.99 71.72 57.63
  A 1.26 1.11 -44.3 0 0 71.79 56.71
  Q 70.94 54.25 68.81 53.66
  A 1.29 1.28 -72.8 0 0 67.25 54.49
  Q 65.64 59.37 62.39 63.30
  A 0.47 0.46 38.4 0 0 62.48 63.97
  Q 64.13 65.21 64.00 67.19
  A 0.76 0.71 -5.9 0 1 63.45 67.83
  Q 59.80 68.85 56.47 67.82
  A 1.16 1.15 -72.3 0 1 55.72 66.36
  Q 56.66 63.45 58.33 61.82
  Q 62.00 58.24 62.96 53.09
  A 0.36 0.36 -2.6 0 0 62.51 52.68
  Q 61.11 53.09 60.05 53.27
  Q 59.79 53.32 59.61 53.45
  Q 58.96 53.95 59.75 54.04
  L 54.31 54.14
  Q 51.19 52.42 50.03 49.43
  Q 49.35 47.65 49.89 44.41
  Q 50.32 41.87 50.63 39.31
  Q 50.67 38.95 50.44 38.38
  Q 50.07 37.42 50.69 35.94
  Q 53.35 29.60 61.49 30.06
  A 1.44 1.44 86.9 0 0 62.99 28.39
  Q 62.33 24.33 65.35 22.12
  Q 69.17 19.32 75.00 22.38
  A 0.31 0.25 41.0 0 0 75.29 22.39
  L 78.44 20.38
  A 1.09 0.40 -36.5 0 1 79.30 20.13
  Q 79.56 20.25 79.58 20.58
  Q 79.59 20.78 79.41 21.01
  Q 78.21 22.55 76.94 23.06
  A 1.33 1.32 74.7 0 0 76.13 24.49
  Q 76.89 29.32 74.33 32.38
  A 0.69 0.59 -43.5 0 0 74.25 33.17
  L 76.87 36.90
  Z
  M 71.92 22.39
  Q 67.27 20.89 64.81 24.90
  Q 64.20 25.89 65.30 25.57
  L 71.93 23.60
  Q 73.88 23.03 71.92 22.39
  Z
  M 66.16 30.86
  Q 69.87 33.13 72.99 30.96
  Q 74.38 29.99 74.66 28.45
  Q 74.92 27.05 74.63 25.25
  A 0.70 0.64 -12.9 0 0 73.75 24.75
  L 64.92 27.35
  A 0.69 0.56 -10.5 0 0 64.42 27.93
  Q 64.43 29.81 66.16 30.86
  Z
  M 52.18 35.79
  Q 50.85 37.57 52.84 38.59
  Q 53.86 39.11 57.20 39.37
  A 0.85 0.80 11.9 0 0 58.05 38.85
  L 60.67 31.77
  A 0.43 0.42 8.7 0 0 60.25 31.20
  Q 55.43 31.43 52.18 35.79
  Z
  M 85.11 36.85
  Q 84.75 38.67 84.52 40.50
  Q 84.35 41.84 85.26 41.43
  A 0.90 0.83 -11.2 0 0 85.79 40.70
  L 86.05 35.99
  A 0.61 0.54 -88.0 0 0 85.52 35.35
  Q 85.10 35.34 85.14 36.02
  Q 85.16 36.55 85.11 36.85
  Z
  M 74.75 42.05
  Q 72.98 39.79 71.42 37.39
  Q 70.86 36.55 70.42 36.24
  Q 69.39 35.53 68.73 36.57
  A 0.47 0.41 27.8 0 0 68.97 37.19
  Q 70.72 37.96 71.44 39.31
  Q 74.71 45.53 81.75 43.75
  Q 82.50 43.56 83.44 44.26
  Q 84.26 44.88 84.73 44.91
  Q 85.67 44.95 85.80 43.94
  A 0.77 0.68 17.4 0 0 85.36 43.21
  Q 84.29 42.69 83.14 42.43
  Q 82.27 42.24 80.89 42.60
  Q 78.23 43.30 75.54 42.58
  A 1.60 1.47 76.5 0 1 74.75 42.05
  Z
  M 68.42 39.95
  L 67.70 44.21
  A 0.32 0.30 89.9 0 0 68.05 44.59
  Q 73.52 43.43 69.43 39.55
  Q 68.62 38.79 68.42 39.95
  Z
  M 53.94 51.81
  A 1.78 1.10 -67.6 0 0 55.75 50.50
  Q 57.13 46.71 52.18 46.44
  A 1.06 1.06 4.9 0 0 51.07 47.37
  Q 50.72 50.06 53.94 51.81
  Z
  M 64.67 53.43
  Q 62.66 60.15 57.68 65.20
  A 0.94 0.94 -58.7 0 0 58.06 66.76
  Q 59.23 67.14 60.87 67.02
  Q 62.15 66.93 62.25 66.36
  Q 62.36 65.73 59.84 65.33
  Q 58.81 65.16 59.52 64.39
  Q 63.98 59.59 65.91 54.27
  A 3.70 3.65 81.2 0 1 67.10 52.62
  Q 69.11 51.05 70.11 49.40
  Q 70.96 48.02 71.04 47.74
  Q 71.35 46.61 67.74 48.03
  Q 67.07 48.29 66.46 48.69
  Q 65.16 49.52 64.98 51.03
  Q 64.70 53.35 64.67 53.43
  Z
  M 72.76 63.20
  Q 72.64 61.11 74.24 59.05
  Q 75.95 56.84 74.28 54.77
  L 72.01 51.94
  A 1.36 1.20 72.2 0 0 71.20 51.46
  Q 69.88 51.30 70.84 52.68
  Q 71.70 53.92 72.87 54.99
  A 2.54 2.33 -59.0 0 1 73.42 57.68
  L 71.25 63.26
  A 1.23 1.17 17.3 0 0 72.13 64.84
  Q 73.31 65.12 74.81 64.98
  Q 75.25 64.94 75.50 64.73
  Q 75.99 64.33 75.57 63.87
  A 1.26 0.80 -15.1 0 0 74.68 63.59
  L 73.31 63.66
  A 0.52 0.49 -3.4 0 1 72.76 63.20
  Z"
/>
<path fill="#ffffff" d="
  M 71.92 22.39
  Q 73.88 23.03 71.93 23.60
  L 65.30 25.57
  Q 64.20 25.89 64.81 24.90
  Q 67.27 20.89 71.92 22.39
  Z"
/>
<path fill="#ffffff" d="
  M 66.16 30.86
  Q 64.43 29.81 64.42 27.93
  A 0.69 0.56 -10.5 0 1 64.92 27.35
  L 73.75 24.75
  A 0.70 0.64 -12.9 0 1 74.63 25.25
  Q 74.92 27.05 74.66 28.45
  Q 74.38 29.99 72.99 30.96
  Q 69.87 33.13 66.16 30.86
  Z"
/>
<path fill="#ffffff" d="
  M 52.18 35.79
  Q 55.43 31.43 60.25 31.20
  A 0.43 0.42 8.7 0 1 60.67 31.77
  L 58.05 38.85
  A 0.85 0.80 11.9 0 1 57.20 39.37
  Q 53.86 39.11 52.84 38.59
  Q 50.85 37.57 52.18 35.79
  Z"
/>
<path fill="#ffffff" d="
  M 76.04 38.25
  Q 75.78 39.21 74.79 39.00
  Q 74.85 37.03 73.55 35.66
  A 1.63 1.36 -12.7 0 0 72.69 35.22
  Q 68.68 34.56 64.89 35.99
  Q 63.84 36.39 63.87 36.83
  Q 63.90 37.33 66.21 37.01
  A 0.53 0.52 -2.8 0 1 66.81 37.55
  Q 66.62 42.10 65.60 45.22
  A 0.81 0.81 -84.6 0 1 64.95 45.76
  Q 63.04 46.05 61.10 46.01
  Q 60.64 46.00 60.45 46.16
  Q 60.26 46.31 60.25 46.56
  A 0.51 0.39 4.9 0 0 60.71 46.98
  Q 67.05 47.55 71.93 43.63
  A 0.67 0.48 -40.1 0 1 72.74 43.57
  Q 73.13 44.02 72.02 44.80
  Q 67.42 48.02 61.80 48.02
  Q 60.71 48.02 60.31 48.44
  Q 59.66 49.14 63.04 49.34
  Q 63.85 49.39 63.30 49.99
  Q 61.33 52.15 57.93 51.86
  A 0.58 0.49 -89.0 0 1 57.47 51.30
  L 57.37 46.69
  A 0.78 0.68 -84.3 0 0 56.86 45.97
  L 51.94 44.61
  A 0.73 0.53 10.0 0 1 51.41 44.06
  Q 51.38 42.11 52.19 40.55
  A 0.80 0.79 -61.6 0 1 53.29 40.22
  Q 56.65 42.17 58.71 40.44
  Q 59.64 39.66 60.69 36.73
  Q 61.40 34.75 62.27 32.74
  A 1.22 1.22 -65.1 0 1 63.93 32.13
  Q 66.54 33.41 64.43 33.96
  Q 64.23 34.01 64.08 34.11
  Q 63.20 34.70 64.47 34.54
  Q 66.58 34.26 68.67 33.89
  Q 71.44 33.40 72.82 33.94
  Q 75.47 34.96 76.04 38.25
  Z"
/>
<path fill="#db8384" fill-opacity="0.996" d="
  M 86.00 33.79
  Q 85.43 35.20 83.96 34.75
  Q 84.50 33.41 86.00 33.79
  Z"
/>
<path fill="#e6b1a9" fill-opacity="0.984" d="
  M 86.29 34.00
  Q 88.28 34.36 88.00 36.25
  Q 87.47 39.85 87.46 41.00
  L 87.25 40.96
  Q 87.45 37.37 86.29 34.00
  Z"
/>
<path fill="#ffffff" d="
  M 85.14 36.02
  Q 85.10 35.34 85.52 35.35
  A 0.61 0.54 -88.0 0 1 86.05 35.99
  L 85.79 40.70
  A 0.90 0.83 -11.2 0 1 85.26 41.43
  Q 84.35 41.84 84.52 40.50
  Q 84.75 38.67 85.11 36.85
  Q 85.16 36.55 85.14 36.02
  Z"
/>
<path fill="#f4f0f4" d="
  M 75.54 42.58
  Q 78.23 43.30 80.89 42.60
  Q 82.27 42.24 83.14 42.43
  Q 84.29 42.69 85.36 43.21
  A 0.77 0.68 17.4 0 1 85.80 43.94
  Q 85.67 44.95 84.73 44.91
  Q 84.26 44.88 83.44 44.26
  Q 82.50 43.56 81.75 43.75
  Q 74.71 45.53 71.44 39.31
  Q 70.72 37.96 68.97 37.19
  A 0.47 0.41 27.8 0 1 68.73 36.57
  Q 69.39 35.53 70.42 36.24
  Q 70.86 36.55 71.42 37.39
  Q 72.98 39.79 74.75 42.05
  A 1.60 1.47 76.5 0 0 75.54 42.58
  Z"
/>
<path fill="#e6b1a9" fill-opacity="0.984" d="
  M 80.25 40.54
  Q 82.66 39.57 83.77 36.97
  Q 84.04 40.72 80.25 40.54
  Z"
/>
<path fill="#e6b1a9" fill-opacity="0.984" d="
  M 76.04 38.25
  Q 76.63 38.08 77.04 38.50
  Q 76.50 39.65 77.04 40.75
  Q 75.73 40.17 74.79 39.00
  Q 75.78 39.21 76.04 38.25
  Z"
/>
<path fill="#ffffff" d="
  M 68.42 39.95
  Q 68.62 38.79 69.43 39.55
  Q 73.52 43.43 68.05 44.59
  A 0.32 0.30 89.9 0 1 67.70 44.21
  L 68.42 39.95
  Z"
/>
<path fill="#e6b1a9" fill-opacity="0.984" d="
  M 87.25 40.96
  L 87.46 41.00
  Q 88.95 43.96 86.97 46.36
  Q 86.22 47.28 86.03 47.98
  Q 85.74 49.00 85.68 49.87
  Q 82.21 46.84 84.96 52.50
  L 84.46 56.75
  Q 82.79 52.68 82.92 48.28
  A 0.68 0.49 -86.1 0 0 82.51 47.62
  Q 82.26 47.58 82.00 47.71
  Q 82.28 46.67 81.65 46.05
  A 1.32 0.59 -9.0 0 0 80.75 45.81
  L 75.06 45.86
  A 1.23 0.82 12.2 0 0 74.22 46.19
  Q 73.03 47.63 72.99 49.50
  A 1.49 0.67 43.0 0 0 73.35 50.35
  L 76.96 55.18
  Q 78.14 56.76 76.73 58.63
  Q 75.67 60.03 75.75 61.71
  Q 74.57 62.04 74.70 61.04
  Q 74.75 60.66 75.12 60.17
  Q 78.00 56.39 74.97 53.09
  Q 74.94 53.06 73.58 51.89
  Q 70.96 49.63 73.01 46.46
  A 2.35 2.35 13.0 0 1 74.71 45.40
  Q 77.40 45.08 79.22 45.18
  Q 79.46 45.20 80.76 45.16
  Q 82.18 45.11 83.13 46.16
  A 1.28 0.76 60.4 0 0 83.94 46.62
  L 85.31 46.62
  A 1.21 0.96 -65.9 0 0 86.14 46.19
  Q 88.01 43.89 87.25 40.96
  Z"
/>
<path fill="#ffffff" d="
  M 53.94 51.81
  Q 50.72 50.06 51.07 47.37
  A 1.06 1.06 4.9 0 1 52.18 46.44
  Q 57.13 46.71 55.75 50.50
  A 1.78 1.10 -67.6 0 1 53.94 51.81
  Z"
/>
<path fill="#ffffff" d="
  M 64.98 51.03
  Q 65.16 49.52 66.46 48.69
  Q 67.07 48.29 67.74 48.03
  Q 71.35 46.61 71.04 47.74
  Q 70.96 48.02 70.11 49.40
  Q 69.11 51.05 67.10 52.62
  A 3.70 3.65 81.2 0 0 65.91 54.27
  Q 63.98 59.59 59.52 64.39
  Q 58.81 65.16 59.84 65.33
  Q 62.36 65.73 62.25 66.36
  Q 62.15 66.93 60.87 67.02
  Q 59.23 67.14 58.06 66.76
  A 0.94 0.94 -58.7 0 1 57.68 65.20
  Q 62.66 60.15 64.67 53.43
  Q 64.70 53.35 64.98 51.03
  Z"
/>
<path fill="#c3302d" fill-opacity="0.996" d="
  M 84.46 56.75
  L 83.79 58.75
  Q 82.95 57.14 82.91 55.36
  Q 82.88 53.54 82.58 52.71
  Q 82.12 51.43 81.50 50.21
  Q 81.47 48.90 82.00 47.71
  Q 82.26 47.58 82.51 47.62
  A 0.68 0.49 -86.1 0 1 82.92 48.28
  Q 82.79 52.68 84.46 56.75
  Z"
/>
<path fill="#c3302d" fill-opacity="0.996" d="
  M 85.68 49.87
  L 84.96 52.50
  Q 82.21 46.84 85.68 49.87
  Z"
/>
<path fill="#f3bcba" fill-opacity="0.996" d="
  M 81.50 50.21
  Q 82.12 51.43 82.58 52.71
  Q 82.88 53.54 82.91 55.36
  Q 82.95 57.14 83.79 58.75
  Q 83.92 59.94 83.46 61.00
  Q 81.65 58.86 82.04 56.01
  Q 82.23 54.59 81.04 54.00
  Q 80.89 52.06 81.50 50.21
  Z"
/>
<path fill="#f4f0f4" d="
  M 73.31 63.66
  L 74.68 63.59
  A 1.26 0.80 -15.1 0 1 75.57 63.87
  Q 75.99 64.33 75.50 64.73
  Q 75.25 64.94 74.81 64.98
  Q 73.31 65.12 72.13 64.84
  A 1.23 1.17 17.3 0 1 71.25 63.26
  L 73.42 57.68
  A 2.54 2.33 -59.0 0 0 72.87 54.99
  Q 71.70 53.92 70.84 52.68
  Q 69.88 51.30 71.20 51.46
  A 1.36 1.20 72.2 0 1 72.01 51.94
  L 74.28 54.77
  Q 75.95 56.84 74.24 59.05
  Q 72.64 61.11 72.76 63.20
  A 0.52 0.49 -3.4 0 0 73.31 63.66
  Z"
/>
<path fill="#dd9c94" fill-opacity="0.984" d="
  M 78.29 65.37
  Q 74.89 68.00 70.29 66.06
  A 1.92 1.90 -72.6 0 1 69.17 63.90
  Q 69.76 61.03 70.73 58.56
  Q 71.31 57.05 70.90 56.26
  Q 70.40 55.31 69.05 54.45
  A 0.79 0.79 -64.1 0 0 67.88 54.86
  Q 66.42 59.15 63.45 63.08
  A 0.68 0.68 -45.5 0 0 63.45 63.90
  Q 66.24 67.67 62.72 68.64
  Q 59.16 69.62 56.09 68.31
  Q 54.09 67.45 55.13 65.54
  Q 56.66 62.75 58.79 60.54
  Q 61.40 57.84 61.99 54.18
  A 0.44 0.37 -89.5 0 0 61.57 53.66
  L 59.75 54.04
  Q 58.96 53.95 59.61 53.45
  Q 59.79 53.32 60.05 53.27
  Q 61.11 53.09 62.51 52.68
  A 0.36 0.36 -2.6 0 1 62.96 53.09
  Q 62.00 58.24 58.33 61.82
  Q 56.66 63.45 55.72 66.36
  A 1.16 1.15 -72.3 0 0 56.47 67.82
  Q 59.80 68.85 63.45 67.83
  A 0.76 0.71 -5.9 0 0 64.00 67.19
  Q 64.13 65.21 62.48 63.97
  A 0.47 0.46 38.4 0 1 62.39 63.30
  Q 65.64 59.37 67.25 54.49
  A 1.29 1.28 -72.8 0 1 68.81 53.66
  Q 70.94 54.25 71.79 56.71
  A 1.26 1.11 -44.3 0 1 71.72 57.63
  Q 70.10 60.99 70.06 64.69
  A 0.71 0.69 -80.9 0 0 70.53 65.36
  Q 74.28 66.68 78.29 65.37
  Z"
/>
<path fill="#c3302d" fill-opacity="0.996" d="
  M 81.04 54.00
  Q 82.23 54.59 82.04 56.01
  Q 81.65 58.86 83.46 61.00
  Q 83.75 62.37 82.83 63.82
  Q 81.16 58.49 81.00 57.00
  Q 80.93 56.35 80.29 56.75
  L 81.04 54.00
  Z"
/>
<path fill="#dd9c94" fill-opacity="0.984" d="
  M 82.83 63.82
  L 82.33 68.45
  A 1.11 0.86 -15.4 0 1 81.77 69.20
  Q 80.26 70.06 79.13 68.83
  A 1.13 1.12 27.2 0 1 78.84 67.94
  L 79.79 60.75
  Q 79.72 62.97 80.81 65.69
  Q 81.34 66.98 80.53 68.33
  Q 80.22 68.85 80.74 68.79
  Q 82.17 68.61 81.26 64.58
  Q 80.91 63.06 81.34 61.57
  Q 81.54 60.87 79.96 60.25
  L 80.29 56.75
  Q 80.93 56.35 81.00 57.00
  Q 81.16 58.49 82.83 63.82
  Z"
/>
<path fill="#bb1718" d="
  M 79.96 60.25
  Q 81.54 60.87 81.34 61.57
  Q 80.91 63.06 81.26 64.58
  Q 82.17 68.61 80.74 68.79
  Q 80.22 68.85 80.53 68.33
  Q 81.34 66.98 80.81 65.69
  Q 79.72 62.97 79.79 60.75
  Q 79.62 60.41 79.96 60.25
  Z"
/>
<path fill="#db8384" fill-opacity="0.996" d="
  M 14.96 64.50
  Q 16.51 64.50 18.04 64.82
  Q 20.00 65.24 19.54 64.40
  A 0.94 0.65 -10.4 0 0 18.74 64.04
  Q 16.71 64.09 15.25 62.71
  Q 18.14 61.07 21.65 62.31
  Q 23.67 63.02 22.89 65.02
  Q 22.31 66.52 19.77 65.88
  Q 18.54 65.57 17.31 65.85
  Q 15.76 66.21 14.96 64.50
  Z"
/>
<path fill="#c3302d" fill-opacity="0.996" d="
  M 46.75 61.96
  Q 45.62 63.72 43.96 62.25
  Q 45.22 61.23 46.75 61.96
  Z"
/>
<path fill="#e6b1a9" fill-opacity="0.984" d="
  M 46.75 61.96
  Q 50.55 62.10 49.38 65.23
  A 0.99 0.93 1.8 0 1 48.71 65.82
  Q 44.08 67.05 41.21 63.80
  Q 43.55 65.59 46.03 64.69
  Q 46.57 64.50 46.06 64.26
  Q 45.10 63.82 43.99 63.93
  A 0.96 0.92 66.4 0 1 43.20 63.60
  Q 42.70 63.03 41.96 62.75
  Q 42.79 62.01 43.96 62.25
  Q 45.62 63.72 46.75 61.96
  Z
  M 48.68 64.71
  Q 49.15 64.52 49.14 63.94
  A 0.79 0.71 9.2 0 0 48.59 63.26
  Q 47.20 62.80 47.95 64.36
  A 0.63 0.53 65.6 0 0 48.68 64.71
  Z"
/>
<path fill="#e6b1a9" fill-opacity="0.984" d="
  M 76.50 61.96
  Q 77.77 62.39 78.04 63.75
  Q 76.16 63.72 76.50 61.96
  Z"
/>
<path fill="#c3302d" fill-opacity="0.996" d="
  M 15.25 62.71
  Q 16.71 64.09 18.74 64.04
  A 0.94 0.65 -10.4 0 1 19.54 64.40
  Q 20.00 65.24 18.04 64.82
  Q 16.51 64.50 14.96 64.50
  Q 14.38 63.49 15.25 62.71
  Z"
/>
<path fill="#bb1718" d="
  M 41.96 62.75
  Q 42.70 63.03 43.20 63.60
  A 0.96 0.92 66.4 0 0 43.99 63.93
  Q 45.10 63.82 46.06 64.26
  Q 46.57 64.50 46.03 64.69
  Q 43.55 65.59 41.21 63.80
  Q 41.65 62.72 41.96 62.75
  Z"
/>
<path fill="#c3302d" fill-opacity="0.996" d="
  M 47.95 64.36
  Q 47.20 62.80 48.59 63.26
  A 0.79 0.71 9.2 0 1 49.14 63.94
  Q 49.15 64.52 48.68 64.71
  A 0.63 0.53 65.6 0 1 47.95 64.36
  Z"
/>
<path fill="#c3302d" fill-opacity="0.996" d="
  M 9.18 67.40
  Q 6.51 69.66 3.13 68.46
  Q 1.94 68.03 1.52 67.28
  Q 0.94 66.24 2.10 65.29
  A 1.53 1.06 18.4 0 1 2.99 65.03
  Q 4.49 65.06 7.00 64.50
  Q 10.06 63.82 9.66 66.57
  A 1.38 1.33 -16.0 0 1 9.18 67.40
  Z
  M 7.48 66.42
  Q 5.32 65.28 3.80 65.59
  Q 3.38 65.67 3.21 65.97
  Q 2.90 66.51 3.86 66.70
  Q 5.88 67.09 7.36 66.98
  Q 8.40 66.90 7.48 66.42
  Z"
/>
<path fill="#bb1718" d="
  M 35.78 64.78
  Q 35.26 65.54 35.60 65.97
  A 0.95 0.47 45.1 0 1 35.86 66.74
  Q 35.60 67.37 35.18 66.75
  A 1.47 0.85 68.9 0 0 34.46 66.17
  L 29.75 64.96
  L 35.78 64.78
  Z"
/>
<path fill="#e6b1a9" fill-opacity="0.984" d="
  M 29.75 64.96
  L 34.46 66.17
  A 1.47 0.85 68.9 0 1 35.18 66.75
  Q 35.60 67.37 35.86 66.74
  A 0.95 0.47 45.1 0 0 35.60 65.97
  Q 35.26 65.54 35.78 64.78
  Q 37.47 66.95 35.31 68.06
  Q 32.78 69.37 29.87 68.55
  Q 28.63 68.20 28.16 67.28
  Q 27.33 65.66 29.75 64.96
  Z
  M 29.20 66.57
  Q 28.98 68.24 33.46 68.10
  Q 34.10 68.08 34.66 67.78
  Q 35.71 67.21 34.37 67.08
  Q 34.10 67.06 33.77 67.15
  Q 31.31 67.85 29.49 66.45
  A 0.18 0.18 -66.6 0 0 29.20 66.57
  Z"
/>
<path fill="#f3bcba" fill-opacity="0.996" d="
  M 7.48 66.42
  Q 8.40 66.90 7.36 66.98
  Q 5.88 67.09 3.86 66.70
  Q 2.90 66.51 3.21 65.97
  Q 3.38 65.67 3.80 65.59
  Q 5.32 65.28 7.48 66.42
  Z"
/>
<path fill="#bb1718" d="
  M 29.20 66.57
  A 0.18 0.18 -66.6 0 1 29.49 66.45
  Q 31.31 67.85 33.77 67.15
  Q 34.10 67.06 34.37 67.08
  Q 35.71 67.21 34.66 67.78
  Q 34.10 68.08 33.46 68.10
  Q 28.98 68.24 29.20 66.57
  Z"
/>
<path fill="#a4a7a3" fill-opacity="0.996" d="
  M 21.31 72.84
  L 6.25 73.04
  Q 5.86 72.79 6.00 72.29
  Q 13.71 71.15 21.31 72.84
  Z"
/>
<path fill="#a4a7a3" fill-opacity="0.996" d="
  M 45.50 76.79
  Q 45.54 78.00 44.74 77.50
  A 1.53 1.53 -67.8 0 1 44.06 75.88
  Q 44.81 72.44 42.25 73.00
  Q 39.68 73.56 28.73 72.65
  Q 36.10 71.45 43.50 72.18
  A 1.36 1.35 6.7 0 1 44.71 73.71
  Q 44.32 76.53 45.50 76.79
  Z"
/>
<path fill="#b5b8b6" fill-opacity="0.996" d="
  M 68.75 77.04
  Q 68.29 77.67 67.71 77.44
  Q 67.33 77.28 67.15 76.75
  Q 66.71 75.42 67.03 74.41
  A 1.12 1.10 -81.3 0 0 65.97 72.94
  L 53.69 73.16
  A 0.60 0.55 -87.0 0 0 53.15 73.69
  L 52.77 76.94
  A 1.03 0.99 79.2 0 1 52.27 77.71
  Q 50.55 78.70 49.50 76.79
  Q 52.70 78.04 51.85 74.05
  Q 51.42 72.00 53.52 72.00
  L 65.50 72.00
  Q 69.28 72.00 68.00 75.00
  Q 67.42 76.36 68.75 77.04
  Z"
/>
<path fill="#a4a7a3" fill-opacity="0.996" d="
  M 91.33 72.89
  L 76.56 73.28
  A 0.44 0.42 82.6 0 0 76.17 73.81
  Q 77.50 80.44 72.25 76.79
  Q 73.74 77.20 74.99 76.66
  A 0.62 0.58 72.3 0 0 75.32 75.96
  Q 74.31 71.69 78.20 71.85
  Q 80.69 71.95 80.80 71.95
  Q 86.10 71.81 91.33 72.89
  Z"
/>
<path fill="#b5b8b6" fill-opacity="0.996" d="
  M 114.71 74.50
  L 114.29 73.75
  Q 114.20 73.04 113.69 73.06
  Q 105.47 73.48 98.92 72.48
  Q 105.93 71.99 112.94 72.12
  Q 115.22 72.17 114.71 74.50
  Z"
/>
<path fill="#b5b8b6" fill-opacity="0.996" d="
  M 121.00 79.46
  Q 122.92 78.39 122.99 80.81
  Q 123.07 83.57 123.38 86.32
  A 0.59 0.55 86.0 0 0 123.94 86.84
  L 136.29 86.74
  A 0.71 0.69 89.2 0 0 136.97 86.02
  L 136.84 73.70
  A 0.54 0.54 0.5 0 0 136.31 73.16
  L 124.25 73.03
  A 1.21 1.17 -87.9 0 0 123.07 74.17
  Q 122.69 80.11 119.25 76.79
  Q 120.41 77.08 121.52 76.87
  A 0.54 0.49 79.7 0 0 121.90 76.26
  Q 121.51 74.09 122.75 72.44
  A 1.06 0.98 16.6 0 1 123.55 72.05
  L 136.31 72.01
  A 1.69 1.68 -90.0 0 1 138.00 73.71
  L 137.94 86.69
  A 1.26 1.22 -89.3 0 1 136.70 87.94
  L 123.06 87.72
  A 0.72 0.69 81.8 0 1 122.41 87.21
  Q 121.56 84.50 122.00 82.25
  Q 122.38 80.31 121.00 79.46
  Z"
/>
<path fill="#606265" fill-opacity="0.992" d="
  M 6.00 72.29
  Q 5.86 72.79 6.25 73.04
  Q 5.62 80.00 6.25 86.96
  Q 5.75 86.81 5.59 87.68
  Q 4.90 81.39 5.37 75.45
  Q 5.38 75.33 5.25 73.96
  Q 5.15 73.00 6.00 72.29
  Z"
/>
<path fill="#292e2f" d="
  M 21.31 72.84
  L 21.42 76.47
  A 0.63 0.43 -1.5 0 0 22.05 76.88
  L 25.50 76.79
  Q 26.37 78.26 28.26 78.06
  Q 30.16 77.87 28.75 76.71
  L 28.73 72.65
  Q 39.68 73.56 42.25 73.00
  Q 44.81 72.44 44.06 75.88
  A 1.53 1.53 -67.8 0 0 44.74 77.50
  Q 45.54 78.00 45.50 76.79
  L 49.50 76.79
  Q 50.55 78.70 52.27 77.71
  A 1.03 0.99 79.2 0 0 52.77 76.94
  L 53.15 73.69
  A 0.60 0.55 -87.0 0 1 53.69 73.16
  L 65.97 72.94
  A 1.12 1.10 -81.3 0 1 67.03 74.41
  Q 66.71 75.42 67.15 76.75
  Q 67.33 77.28 67.71 77.44
  Q 68.29 77.67 68.75 77.04
  Q 70.45 76.50 72.25 76.79
  Q 77.50 80.44 76.17 73.81
  A 0.44 0.42 82.6 0 1 76.56 73.28
  L 91.33 72.89
  Q 90.14 78.27 94.75 76.79
  Q 96.73 78.17 99.21 78.25
  L 99.61 86.95
  Q 99.30 86.89 98.96 87.25
  L 98.81 81.30
  A 1.65 1.30 -88.9 0 0 97.62 79.73
  L 92.66 79.27
  A 1.62 1.33 -87.3 0 0 91.21 80.88
  L 91.10 87.37
  Q 84.12 86.48 76.81 87.25
  Q 75.48 83.79 75.93 79.99
  A 0.93 0.76 -71.3 0 0 75.62 79.17
  Q 74.66 78.48 73.75 79.46
  L 68.22 79.12
  Q 66.38 81.86 67.07 85.65
  A 0.92 0.90 84.0 0 1 66.21 86.74
  L 54.17 86.99
  A 1.24 1.20 -88.7 0 1 52.96 85.68
  Q 53.16 82.42 52.58 79.83
  Q 52.50 79.47 52.28 79.24
  Q 51.56 78.47 51.50 79.71
  L 46.52 79.24
  Q 44.75 79.07 44.68 81.42
  L 44.50 86.59
  L 28.74 87.30
  Q 28.76 84.41 28.95 82.27
  Q 29.18 79.59 27.02 79.42
  Q 24.81 79.25 24.51 79.21
  Q 23.21 79.06 21.96 79.55
  A 0.77 0.77 -9.2 0 0 21.46 80.24
  L 21.12 87.34
  L 6.25 86.96
  Q 5.62 80.00 6.25 73.04
  L 21.31 72.84
  Z
  M 9.00 74.29
  Q 8.42 74.11 7.94 74.27
  A 0.80 0.62 83.4 0 0 7.50 75.00
  L 7.50 85.15
  A 0.58 0.57 2.8 0 0 8.02 85.72
  Q 12.48 86.21 16.74 85.83
  Q 16.75 85.83 18.23 85.90
  Q 19.52 85.97 18.96 84.00
  Q 19.54 77.95 17.27 81.33
  A 0.73 0.62 -62.6 0 1 16.51 81.64
  Q 15.00 81.18 15.53 79.15
  A 1.21 1.21 8.0 0 1 16.74 78.24
  Q 19.52 78.31 18.72 74.76
  A 0.65 0.63 83.8 0 0 18.10 74.25
  L 9.00 74.29
  Z
  M 88.96 83.75
  Q 89.28 81.73 88.69 80.31
  Q 88.32 79.44 87.86 79.91
  A 1.31 0.39 -90.0 0 0 87.59 80.81
  Q 87.56 81.16 87.37 81.42
  A 0.76 0.67 28.7 0 1 86.52 81.61
  Q 85.09 81.04 85.56 78.98
  A 0.98 0.98 9.0 0 1 86.61 78.22
  Q 89.64 78.48 88.77 74.76
  A 0.66 0.66 83.3 0 0 88.13 74.25
  L 79.50 74.29
  L 78.06 74.08
  A 0.49 0.44 -86.0 0 0 77.55 74.57
  L 77.50 85.10
  A 0.66 0.65 0.9 0 0 78.14 85.75
  Q 82.13 85.87 86.23 85.77
  Q 86.34 85.77 87.75 85.88
  Q 89.61 86.04 88.96 83.75
  Z
  M 42.05 80.33
  Q 39.46 80.71 39.21 78.50
  Q 43.64 78.65 42.41 74.72
  A 0.70 0.67 -8.5 0 0 41.75 74.25
  L 31.48 74.25
  A 0.69 0.66 89.6 0 0 30.82 74.95
  L 30.99 85.06
  A 0.65 0.59 89.5 0 0 31.58 85.70
  L 41.81 85.61
  A 0.64 0.62 -85.5 0 0 42.41 85.08
  Q 42.87 82.62 42.05 80.33
  Z
  M 64.57 85.84
  Q 66.35 85.33 65.91 83.14
  Q 65.77 82.41 65.78 81.83
  Q 65.82 78.75 64.00 81.54
  Q 62.64 80.50 62.21 78.75
  L 62.36 78.51
  A 0.58 0.37 12.9 0 1 62.85 78.34
  Q 66.94 78.70 65.66 74.72
  A 0.71 0.67 -8.4 0 0 64.99 74.25
  L 56.10 74.28
  Q 53.86 73.70 54.00 75.82
  Q 54.31 80.28 54.24 85.25
  A 0.51 0.50 0.0 0 0 54.75 85.75
  L 64.57 85.84
  Z"
/>
<path fill="#171c1a" d="
  M 98.92 72.48
  Q 105.47 73.48 113.69 73.06
  Q 114.20 73.04 114.29 73.75
  Q 114.31 74.78 114.21 75.77
  Q 113.92 78.68 115.59 76.92
  L 119.25 76.79
  Q 122.69 80.11 123.07 74.17
  A 1.21 1.17 -87.9 0 1 124.25 73.03
  L 136.31 73.16
  A 0.54 0.54 0.5 0 1 136.84 73.70
  L 136.97 86.02
  A 0.71 0.69 89.2 0 1 136.29 86.74
  L 123.94 86.84
  A 0.59 0.55 86.0 0 1 123.38 86.32
  Q 123.07 83.57 122.99 80.81
  Q 122.92 78.39 121.00 79.46
  L 114.83 79.23
  Q 113.15 82.69 113.75 86.71
  L 99.61 86.95
  L 99.21 78.25
  L 99.46 74.88
  A 0.70 0.36 -81.7 0 0 99.24 74.24
  Q 99.06 74.17 98.79 74.25
  Q 98.59 73.65 98.92 72.48
  Z
  M 112.46 83.75
  L 112.64 80.55
  A 0.42 0.37 85.7 0 0 112.19 80.10
  Q 111.64 80.24 111.31 80.81
  Q 109.94 83.20 108.81 81.19
  Q 107.58 79.00 109.64 78.39
  Q 109.69 78.37 110.88 78.25
  Q 112.96 78.03 112.30 74.75
  A 0.62 0.62 -5.7 0 0 111.69 74.25
  L 102.33 74.28
  Q 101.81 74.17 101.41 74.25
  A 0.78 0.62 88.7 0 0 100.89 74.93
  Q 100.43 80.20 101.01 85.44
  A 0.52 0.51 -5.1 0 0 101.57 85.90
  Q 108.39 85.46 110.50 85.75
  Q 113.14 86.12 112.46 83.75
  Z
  M 134.25 85.71
  Q 134.83 85.89 135.31 85.73
  A 0.80 0.62 83.4 0 0 135.75 85.00
  L 135.75 74.77
  A 0.52 0.51 90.0 0 0 135.24 74.25
  L 126.00 74.29
  Q 123.87 73.66 124.02 75.82
  Q 124.33 80.31 124.04 85.18
  A 0.53 0.53 -88.0 0 0 124.57 85.75
  L 134.25 85.71
  Z
  M 109.37 80.27
  Q 110.03 81.83 110.34 80.55
  A 1.04 0.99 -58.4 0 0 110.15 79.65
  Q 109.73 79.16 109.45 79.38
  A 0.85 0.55 62.3 0 0 109.37 80.27
  Z"
/>
<path fill="#606265" fill-opacity="0.992" d="
  M 114.29 73.75
  L 114.71 74.50
  Q 114.04 76.19 115.59 76.92
  Q 113.92 78.68 114.21 75.77
  Q 114.31 74.78 114.29 73.75
  Z"
/>
<path fill="#ffffff" d="
  M 18.96 84.00
  Q 16.40 83.32 12.62 83.93
  Q 9.57 84.42 9.90 81.35
  Q 10.21 78.42 9.00 74.29
  L 18.10 74.25
  A 0.65 0.63 83.8 0 1 18.72 74.76
  Q 19.52 78.31 16.74 78.24
  A 1.21 1.21 8.0 0 0 15.53 79.15
  Q 15.00 81.18 16.51 81.64
  A 0.73 0.62 -62.6 0 0 17.27 81.33
  Q 19.54 77.95 18.96 84.00
  Z"
/>
<path fill="#d5d5d7" d="
  M 79.50 74.29
  L 79.84 81.44
  Q 79.96 83.82 82.23 83.80
  L 88.96 83.75
  Q 89.61 86.04 87.75 85.88
  Q 86.34 85.77 86.23 85.77
  Q 82.13 85.87 78.14 85.75
  A 0.66 0.65 0.9 0 1 77.50 85.10
  L 77.55 74.57
  A 0.49 0.44 -86.0 0 1 78.06 74.08
  L 79.50 74.29
  Z"
/>
<path fill="#ffffff" d="
  M 88.96 83.75
  L 82.23 83.80
  Q 79.96 83.82 79.84 81.44
  L 79.50 74.29
  L 88.13 74.25
  A 0.66 0.66 83.3 0 1 88.77 74.76
  Q 89.64 78.48 86.61 78.22
  A 0.98 0.98 9.0 0 0 85.56 78.98
  Q 85.09 81.04 86.52 81.61
  A 0.76 0.67 28.7 0 0 87.37 81.42
  Q 87.56 81.16 87.59 80.81
  A 1.31 0.39 -90.0 0 1 87.86 79.91
  Q 88.32 79.44 88.69 80.31
  Q 89.28 81.73 88.96 83.75
  Z"
/>
<path fill="#d5d5d7" d="
  M 9.00 74.29
  Q 10.21 78.42 9.90 81.35
  Q 9.57 84.42 12.62 83.93
  Q 16.40 83.32 18.96 84.00
  Q 19.52 85.97 18.23 85.90
  Q 16.75 85.83 16.74 85.83
  Q 12.48 86.21 8.02 85.72
  A 0.58 0.57 2.8 0 1 7.50 85.15
  L 7.50 75.00
  A 0.80 0.62 83.4 0 1 7.94 74.27
  Q 8.42 74.11 9.00 74.29
  Z"
/>
<path fill="#ffffff" d="
  M 39.21 78.50
  Q 36.86 80.79 40.00 81.75
  Q 40.84 82.01 42.05 80.33
  Q 42.87 82.62 42.41 85.08
  A 0.64 0.62 -85.5 0 1 41.81 85.61
  L 31.58 85.70
  A 0.65 0.59 89.5 0 1 30.99 85.06
  L 30.82 74.95
  A 0.69 0.66 89.6 0 1 31.48 74.25
  L 41.75 74.25
  A 0.70 0.67 -8.5 0 1 42.41 74.72
  Q 43.64 78.65 39.21 78.50
  Z"
/>
<path fill="#d5d5d7" d="
  M 56.10 74.28
  L 57.00 82.69
  A 0.67 0.62 89.2 0 0 57.56 83.28
  L 63.19 83.81
  A 1.23 0.69 -4.5 0 1 64.02 84.19
  Q 64.43 84.79 64.57 85.84
  L 54.75 85.75
  A 0.51 0.50 0.0 0 1 54.24 85.25
  Q 54.31 80.28 54.00 75.82
  Q 53.86 73.70 56.10 74.28
  Z"
/>
<path fill="#ffffff" d="
  M 56.10 74.28
  L 64.99 74.25
  A 0.71 0.67 -8.4 0 1 65.66 74.72
  Q 66.94 78.70 62.85 78.34
  A 0.58 0.37 12.9 0 0 62.36 78.51
  L 62.21 78.75
  Q 60.35 81.85 64.00 81.54
  Q 65.82 78.75 65.78 81.83
  Q 65.77 82.41 65.91 83.14
  Q 66.35 85.33 64.57 85.84
  Q 64.43 84.79 64.02 84.19
  A 1.23 0.69 -4.5 0 0 63.19 83.81
  L 57.56 83.28
  A 0.67 0.62 89.2 0 1 57.00 82.69
  L 56.10 74.28
  Z"
/>
<path fill="#606265" fill-opacity="0.992" d="
  M 98.79 74.25
  Q 99.06 74.17 99.24 74.24
  A 0.70 0.36 -81.7 0 1 99.46 74.88
  L 99.21 78.25
  Q 96.73 78.17 94.75 76.79
  L 97.95 76.90
  A 0.67 0.60 8.4 0 0 98.60 76.47
  Q 98.92 75.41 98.79 74.25
  Z"
/>
<path fill="#d5d5d7" d="
  M 102.33 74.28
  Q 103.75 77.95 102.97 82.17
  A 0.98 0.97 -79.1 0 0 103.73 83.30
  Q 107.94 84.14 112.46 83.75
  Q 113.14 86.12 110.50 85.75
  Q 108.39 85.46 101.57 85.90
  A 0.52 0.51 -5.1 0 1 101.01 85.44
  Q 100.43 80.20 100.89 74.93
  A 0.78 0.62 88.7 0 1 101.41 74.25
  Q 101.81 74.17 102.33 74.28
  Z"
/>
<path fill="#ffffff" d="
  M 102.33 74.28
  L 111.69 74.25
  A 0.62 0.62 -5.7 0 1 112.30 74.75
  Q 112.96 78.03 110.88 78.25
  Q 109.69 78.37 109.64 78.39
  Q 107.58 79.00 108.81 81.19
  Q 109.94 83.20 111.31 80.81
  Q 111.64 80.24 112.19 80.10
  A 0.42 0.37 85.7 0 1 112.64 80.55
  L 112.46 83.75
  Q 107.94 84.14 103.73 83.30
  A 0.98 0.97 -79.1 0 1 102.97 82.17
  Q 103.75 77.95 102.33 74.28
  Z"
/>
<path fill="#d5d5d7" d="
  M 126.00 74.29
  L 126.75 82.15
  A 1.52 1.46 87.6 0 0 128.19 83.52
  L 133.81 83.64
  A 0.55 0.51 2.5 0 1 134.35 84.19
  L 134.25 85.71
  L 124.57 85.75
  A 0.53 0.53 -88.0 0 1 124.04 85.18
  Q 124.33 80.31 124.02 75.82
  Q 123.87 73.66 126.00 74.29
  Z"
/>
<path fill="#ffffff" d="
  M 126.00 74.29
  L 135.24 74.25
  A 0.52 0.51 -90.0 0 1 135.75 74.77
  L 135.75 85.00
  A 0.80 0.62 83.4 0 1 135.31 85.73
  Q 134.83 85.89 134.25 85.71
  L 134.35 84.19
  A 0.55 0.51 2.5 0 0 133.81 83.64
  L 128.19 83.52
  A 1.52 1.46 87.6 0 1 126.75 82.15
  L 126.00 74.29
  Z"
/>
<path fill="#606265" fill-opacity="0.992" d="
  M 25.50 76.79
  Q 27.16 77.09 28.75 76.71
  Q 30.16 77.87 28.26 78.06
  Q 26.37 78.26 25.50 76.79
  Z"
/>
<path fill="#606265" fill-opacity="0.992" d="
  M 39.21 78.50
  Q 39.46 80.71 42.05 80.33
  Q 40.84 82.01 40.00 81.75
  Q 36.86 80.79 39.21 78.50
  Z"
/>
<path fill="#a4a7a3" fill-opacity="0.996" d="
  M 62.21 78.75
  Q 62.64 80.50 64.00 81.54
  Q 60.35 81.85 62.21 78.75
  Z"
/>
<path fill="#b5b8b6" fill-opacity="0.996" d="
  M 68.22 79.12
  L 68.10 85.43
  Q 68.06 87.68 65.96 87.87
  Q 61.47 88.28 55.87 87.88
  Q 55.72 87.87 54.02 87.93
  Q 51.39 88.03 51.96 84.49
  Q 52.36 82.01 51.50 79.71
  Q 51.56 78.47 52.28 79.24
  Q 52.50 79.47 52.58 79.83
  Q 53.16 82.42 52.96 85.68
  A 1.24 1.20 -88.7 0 0 54.17 86.99
  L 66.21 86.74
  A 0.92 0.90 84.0 0 0 67.07 85.65
  Q 66.38 81.86 68.22 79.12
  Z"
/>
<path fill="#606265" fill-opacity="0.992" d="
  M 76.81 87.25
  Q 76.19 87.00 76.00 87.71
  Q 74.73 85.32 75.44 82.19
  Q 75.93 80.01 73.75 79.46
  Q 74.66 78.48 75.62 79.17
  A 0.93 0.76 -71.3 0 1 75.93 79.99
  Q 75.48 83.79 76.81 87.25
  Z"
/>
<path fill="#a4a7a3" fill-opacity="0.996" d="
  M 109.45 79.38
  Q 109.73 79.16 110.15 79.65
  A 1.04 0.99 -58.4 0 1 110.34 80.55
  Q 110.03 81.83 109.37 80.27
  A 0.85 0.55 62.3 0 1 109.45 79.38
  Z"
/>
<path fill="#606265" fill-opacity="0.992" d="
  M 114.83 79.23
  L 114.46 86.75
  L 113.75 86.71
  Q 113.15 82.69 114.83 79.23
  Z"
/>
<path fill="#a4a7a3" fill-opacity="0.996" d="
  M 44.50 86.59
  Q 44.62 86.85 44.29 87.35
  A 1.11 0.95 10.0 0 1 43.51 87.81
  Q 36.08 88.66 28.74 87.30
  L 44.50 86.59
  Z"
/>
<path fill="#a4a7a3" fill-opacity="0.996" d="
  M 91.10 87.37
  Q 83.53 88.68 76.00 87.71
  Q 76.19 87.00 76.81 87.25
  Q 84.12 86.48 91.10 87.37
  Z"
/>
<path fill="#b5b8b6" fill-opacity="0.996" d="
  M 113.75 86.71
  L 114.46 86.75
  Q 114.49 87.72 113.75 87.75
  Q 106.72 88.02 99.69 87.75
  Q 99.18 87.73 98.96 87.25
  Q 99.30 86.89 99.61 86.95
  L 113.75 86.71
  Z"
/>
<path fill="#a4a7a3" fill-opacity="0.996" d="
  M 6.25 86.96
  L 21.12 87.34
  Q 13.31 88.73 5.59 87.68
  Q 5.75 86.81 6.25 86.96
  Z"
/>
</svg>
