<?xml version="1.0" encoding="UTF-8" standalone="no"?>
<!DOCTYPE svg PUBLIC "-//W3C//DTD SVG 1.1//EN" "http://www.w3.org/Graphics/SVG/1.1/DTD/svg11.dtd">
<svg xmlns="http://www.w3.org/2000/svg" version="1.1" viewBox="0 0 140 100">
<g stroke-width="2.00" fill="none" stroke-linecap="butt">
<path stroke="#7a927d" stroke-opacity="0.992" vector-effect="non-scaling-stroke" d="
  M 36.25 76.21
  L 36.50 75.79"
/>
<path stroke="#646b69" stroke-opacity="0.996" vector-effect="non-scaling-stroke" d="
  M 36.50 75.79
  Q 37.05 75.57 37.06 74.94
  Q 37.32 63.91 36.96 56.81
  A 0.57 0.53 89.4 0 0 36.44 56.26
  L 28.56 56.03
  A 1.55 1.42 0.9 0 1 27.06 54.62
  L 27.00 45.48
  A 1.27 1.18 89.1 0 1 28.15 44.20
  L 36.02 44.04
  A 0.97 0.88 -1.0 0 0 36.97 43.15
  L 36.84 24.68
  A 0.53 0.53 -72.2 0 0 36.32 24.16
  L 27.82 23.94
  A 0.60 0.53 -0.4 0 1 27.25 23.44
  L 26.92 16.82
  A 0.60 0.55 -88.5 0 0 26.43 16.25
  Q 21.57 15.68 16.69 16.14
  A 1.23 1.23 -71.7 0 0 15.86 16.56
  Q 7.30 26.27 5.80 39.26
  Q 5.76 39.60 5.47 40.17
  Q 5.02 41.07 5.00 42.75
  Q 4.93 48.71 4.97 54.67
  Q 4.99 57.74 5.65 60.76
  Q 6.64 65.36 7.00 66.75
  Q 8.72 73.40 12.81 79.69
  Q 14.43 82.16 16.40 83.64
  A 1.54 1.48 62.5 0 0 17.31 83.95
  L 26.01 83.99
  A 0.99 0.97 -89.1 0 0 26.99 83.02
  Q 27.05 79.72 27.13 77.18
  Q 27.17 75.80 28.25 76.25"
/>
<path stroke="#455b4a" stroke-opacity="0.996" vector-effect="non-scaling-stroke" d="
  M 36.50 75.79
  Q 32.32 75.34 28.25 76.25"
/>
<path stroke="#c55751" stroke-opacity="0.992" vector-effect="non-scaling-stroke" d="
  M 104.71 25.25
  Q 105.10 22.72 103.56 21.15
  A 1.11 0.95 -23.5 0 0 102.68 20.88
  Q 100.54 21.15 98.39 20.97
  Q 98.25 20.96 95.76 21.09
  Q 93.51 21.21 94.15 17.83
  A 1.54 1.53 -84.7 0 0 92.64 16.00
  L 51.56 16.06
  A 0.60 0.52 1.5 0 0 50.97 16.55
  L 50.74 20.00
  A 1.15 1.14 0.8 0 1 49.64 21.06
  L 43.79 21.25"
/>
<path stroke="#c55751" stroke-opacity="0.992" vector-effect="non-scaling-stroke" d="
  M 103.97 34.51
  L 94.87 34.30
  A 0.59 0.57 1.0 0 0 94.26 34.87
  L 94.36 42.53
  A 1.35 1.23 -0.2 0 0 95.71 43.75
  L 103.01 43.75
  A 1.07 1.01 -0.3 0 1 104.08 44.75
  L 104.23 54.84
  A 1.52 1.46 2.0 0 1 102.58 56.32
  Q 98.35 55.96 94.92 56.59
  A 0.67 0.60 -5.3 0 0 94.37 57.18
  L 94.26 65.19
  A 0.56 0.55 1.0 0 0 94.81 65.75
  L 102.83 65.94
  A 1.31 1.17 0.3 0 1 104.11 67.09
  L 104.20 77.61
  A 1.46 1.40 1.2 0 1 102.66 79.02
  Q 98.86 78.83 95.49 79.02
  Q 93.50 79.13 94.22 82.17
  A 1.50 1.49 -8.9 0 1 92.88 84.00
  Q 88.02 84.39 82.79 84.25
  Q 74.45 84.03 72.70 84.04
  Q 62.99 84.09 53.28 84.00
  Q 53.19 84.00 52.23 84.09
  Q 50.41 84.25 51.00 81.75
  Q 51.65 79.00 50.00 79.00
  L 44.04 79.00"
/>
<path stroke="#c95c5a" stroke-opacity="0.992" vector-effect="non-scaling-stroke" d="
  M 43.78 52.89
  L 49.95 52.76
  A 0.65 0.60 -86.7 0 0 50.54 52.19
  L 50.93 49.19
  A 1.89 1.65 9.5 0 0 49.39 47.31
  Q 45.71 46.61 43.96 47.50"
/>
<path stroke="#c95c5a" stroke-opacity="0.992" vector-effect="non-scaling-stroke" d="
  M 111.00 81.71
  L 116.51 82.21
  A 0.99 0.93 76.9 0 1 117.23 82.69
  Q 118.49 84.86 121.02 84.16
  Q 121.48 84.03 121.99 84.11
  Q 123.69 84.41 124.24 82.96
  Q 130.06 67.76 136.81 51.15
  A 3.46 3.44 45.4 0 0 136.82 48.58
  L 124.12 16.78
  A 1.16 1.02 86.8 0 0 123.48 16.13
  Q 122.24 15.69 120.94 15.82
  Q 120.73 15.84 119.43 15.88
  Q 118.18 15.91 117.63 16.98
  A 1.35 0.90 -77.2 0 1 116.97 17.61
  Q 114.86 18.30 111.95 17.89
  A 0.83 0.83 4.2 0 0 111.00 18.71
  L 111.00 36.39
  A 0.80 0.71 0.8 0 0 111.78 37.10
  L 116.70 37.21
  A 1.13 0.79 68.6 0 1 117.48 37.73
  Q 118.59 39.48 116.50 39.71"
/>
<path stroke="#e18a88" stroke-opacity="0.996" vector-effect="non-scaling-stroke" d="
  M 117.00 60.21
  Q 116.58 60.18 116.46 60.50"
/>
<path stroke="#c53f3c" stroke-opacity="0.996" vector-effect="non-scaling-stroke" d="
  M 111.00 81.71
  L 111.00 63.04"
/>
<path stroke="#d76969" vector-effect="non-scaling-stroke" d="
  M 111.00 63.04
  Q 113.48 63.10 115.95 62.89
  Q 116.97 62.81 117.50 62.27
  Q 118.55 61.20 117.00 60.21"
/>
<path stroke="#c53f3c" stroke-opacity="0.996" vector-effect="non-scaling-stroke" d="
  M 117.00 60.21
  L 111.93 60.06
  A 1.02 0.90 1.3 0 1 110.94 59.15
  L 111.17 40.69
  A 0.63 0.54 89.1 0 1 111.68 40.08
  L 116.50 39.71"
/>
<path stroke="#e18a88" stroke-opacity="0.996" vector-effect="non-scaling-stroke" d="
  M 111.00 63.04
  Q 110.66 62.87 110.71 62.50"
/>
<path stroke="#d15a5a" vector-effect="non-scaling-stroke" d="
  M 55.76 17.77
  A 0.26 0.26 0.0 0 0 55.50 17.51
  L 52.76 17.51
  A 0.26 0.26 0.0 0 0 52.50 17.77
  L 52.50 82.21
  A 0.26 0.26 0.0 0 0 52.76 82.47
  L 55.50 82.47
  A 0.26 0.26 0.0 0 0 55.76 82.21
  L 55.76 17.77"
/>
<path stroke="#d76969" vector-effect="non-scaling-stroke" d="
  M 87.50 17.82
  A 0.32 0.32 0.0 0 0 87.18 17.50
  L 57.82 17.50
  A 0.32 0.32 0.0 0 0 57.50 17.82
  L 57.50 82.18
  A 0.32 0.32 0.0 0 0 57.82 82.50
  L 87.18 82.50
  A 0.32 0.32 0.0 0 0 87.50 82.18
  L 87.50 17.82"
/>
<path stroke="#d15a5a" vector-effect="non-scaling-stroke" d="
  M 92.50 17.93
  A 0.43 0.43 0.0 0 0 92.07 17.50
  L 89.69 17.50
  A 0.43 0.43 0.0 0 0 89.26 17.93
  L 89.26 82.07
  A 0.43 0.43 0.0 0 0 89.69 82.50
  L 92.07 82.50
  A 0.43 0.43 0.0 0 0 92.50 82.07
  L 92.50 17.93"
/>
<path stroke="#d76969" vector-effect="non-scaling-stroke" d="
  M 50.76 23.09
  A 0.59 0.59 0.0 0 0 50.17 22.50
  L 46.59 22.50
  A 0.59 0.59 0.0 0 0 46.00 23.09
  L 46.00 45.17
  A 0.59 0.59 0.0 0 0 46.59 45.76
  L 50.17 45.76
  A 0.59 0.59 0.0 0 0 50.76 45.17
  L 50.76 23.09"
/>
<path stroke="#d76969" vector-effect="non-scaling-stroke" d="
  M 102.5024 23.1228
  A 0.63 0.63 0.0 0 0 101.8713 22.4939
  L 94.8713 22.5061
  A 0.63 0.63 0.0 0 0 94.2424 23.1372
  L 94.2576 31.8772
  A 0.63 0.63 0.0 0 0 94.8887 32.5061
  L 101.8887 32.4939
  A 0.63 0.63 0.0 0 0 102.5176 31.8628
  L 102.5024 23.1228"
/>
<path stroke="#d76969" vector-effect="non-scaling-stroke" d="
  M 102.4848 45.6756
  A 0.45 0.45 0.0 0 0 102.0332 45.2272
  L 94.6932 45.2528
  A 0.45 0.45 0.0 0 0 94.2448 45.7044
  L 94.2752 54.4244
  A 0.45 0.45 0.0 0 0 94.7268 54.8728
  L 102.0668 54.8472
  A 0.45 0.45 0.0 0 0 102.5152 54.3956
  L 102.4848 45.6756"
/>
<path stroke="#d76969" vector-effect="non-scaling-stroke" d="
  M 50.76 54.69
  A 0.43 0.43 0.0 0 0 50.33 54.26
  L 46.43 54.26
  A 0.43 0.43 0.0 0 0 46.00 54.69
  L 46.00 77.07
  A 0.43 0.43 0.0 0 0 46.43 77.50
  L 50.33 77.50
  A 0.43 0.43 0.0 0 0 50.76 77.07
  L 50.76 54.69"
/>
<path stroke="#d76969" vector-effect="non-scaling-stroke" d="
  M 102.4941 67.9356
  A 0.45 0.45 0.0 0 0 102.0425 67.4872
  L 94.6826 67.5129
  A 0.45 0.45 0.0 0 0 94.2341 67.9644
  L 94.2659 77.0644
  A 0.45 0.45 0.0 0 0 94.7175 77.5128
  L 102.0774 77.4871
  A 0.45 0.45 0.0 0 0 102.5259 77.0356
  L 102.4941 67.9356"
/>
<path stroke="#d15a5a" vector-effect="non-scaling-stroke" d="
  M 122.51 18.19
  A 0.70 0.70 0.0 0 0 121.81 17.49
  L 119.95 17.49
  A 0.70 0.70 0.0 0 0 119.25 18.19
  L 119.25 81.79
  A 0.70 0.70 0.0 0 0 119.95 82.49
  L 121.81 82.49
  A 0.70 0.70 0.0 0 0 122.51 81.79
  L 122.51 18.19"
/>
<path stroke="#d76969" vector-effect="non-scaling-stroke" d="
  M 117.50 19.77
  A 0.52 0.52 0.0 0 0 116.98 19.25
  L 113.02 19.25
  A 0.52 0.52 0.0 0 0 112.50 19.77
  L 112.50 35.23
  A 0.52 0.52 0.0 0 0 113.02 35.75
  L 116.98 35.75
  A 0.52 0.52 0.0 0 0 117.50 35.23
  L 117.50 19.77"
/>
<path stroke="#d76969" vector-effect="non-scaling-stroke" d="
  M 134.12 54.09
  Q 134.66 52.66 135.41 50.86
  A 1.95 1.83 -46.0 0 0 135.43 49.41
  L 124.79 23.05
  Q 124.25 21.71 124.25 23.16
  L 124.25 77.16
  Q 124.25 78.43 124.75 77.26
  Q 129.64 65.75 134.12 54.09"
/>
<path stroke="#d76969" vector-effect="non-scaling-stroke" d="
  M 117.50 42.27
  A 0.52 0.52 0.0 0 0 116.98 41.75
  L 113.02 41.75
  A 0.52 0.52 0.0 0 0 112.50 42.27
  L 112.50 57.73
  A 0.52 0.52 0.0 0 0 113.02 58.25
  L 116.98 58.25
  A 0.52 0.52 0.0 0 0 117.50 57.73
  L 117.50 42.27"
/>
<path stroke="#d76969" vector-effect="non-scaling-stroke" d="
  M 117.50 64.77
  A 0.52 0.52 0.0 0 0 116.98 64.25
  L 113.02 64.25
  A 0.52 0.52 0.0 0 0 112.50 64.77
  L 112.50 80.23
  A 0.52 0.52 0.0 0 0 113.02 80.75
  L 116.98 80.75
  A 0.52 0.52 0.0 0 0 117.50 80.23
  L 117.50 64.77"
/>
<path stroke="#828683" vector-effect="non-scaling-stroke" d="
  M 8.82 32.15
  Q 6.72 39.15 6.39 46.35
  Q 6.05 53.87 7.11 60.64
  Q 8.89 72.02 15.81 81.19
  Q 17.45 83.36 20.22 82.37
  A 0.74 0.71 80.5 0 0 20.69 81.68
  L 20.75 18.25
  A 0.70 0.66 -82.2 0 0 20.28 17.59
  Q 17.58 16.75 15.94 18.69
  Q 11.18 24.29 8.82 32.15"
/>
<path stroke="#717674" vector-effect="non-scaling-stroke" d="
  M 25.74 17.80
  A 0.31 0.31 0.0 0 0 25.43 17.49
  L 22.81 17.49
  A 0.31 0.31 0.0 0 0 22.50 17.80
  L 22.50 82.18
  A 0.31 0.31 0.0 0 0 22.81 82.49
  L 25.43 82.49
  A 0.31 0.31 0.0 0 0 25.74 82.18
  L 25.74 17.80"
/>
<path stroke="#828683" vector-effect="non-scaling-stroke" d="
  M 35.7466 26.5928
  A 0.60 0.60 0.0 0 0 35.1456 25.9939
  L 28.0856 26.0062
  A 0.60 0.60 0.0 0 0 27.4867 26.6072
  L 27.5134 41.9072
  A 0.60 0.60 0.0 0 0 28.1144 42.5061
  L 35.1744 42.4938
  A 0.60 0.60 0.0 0 0 35.7733 41.8928
  L 35.7466 26.5928"
/>
<path stroke="#828683" vector-effect="non-scaling-stroke" d="
  M 35.7361 57.7828
  A 0.31 0.31 0.0 0 0 35.4256 57.4734
  L 27.8056 57.4867
  A 0.31 0.31 0.0 0 0 27.4961 57.7972
  L 27.5239 73.6972
  A 0.31 0.31 0.0 0 0 27.8344 74.0066
  L 35.4544 73.9933
  A 0.31 0.31 0.0 0 0 35.7639 73.6828
  L 35.7361 57.7828"
/>
</g>
<path fill="#99a29b" fill-opacity="0.992" d="
  M 36.25 76.21
  L 36.50 75.79
  Q 37.05 75.57 37.06 74.94
  Q 37.32 63.91 36.96 56.81
  A 0.57 0.53 89.4 0 0 36.44 56.26
  L 28.56 56.03
  A 1.55 1.42 0.9 0 1 27.06 54.62
  L 27.00 45.48
  A 1.27 1.18 89.1 0 1 28.15 44.20
  L 36.02 44.04
  A 0.97 0.88 -1.0 0 0 36.97 43.15
  L 36.84 24.68
  A 0.53 0.53 -72.2 0 0 36.32 24.16
  L 27.82 23.94
  A 0.60 0.53 -0.4 0 1 27.25 23.44
  L 26.92 16.82
  A 0.60 0.55 -88.5 0 0 26.43 16.25
  Q 21.57 15.68 16.69 16.14
  A 1.23 1.23 -71.7 0 0 15.86 16.56
  Q 7.30 26.27 5.80 39.26
  Q 5.76 39.60 5.47 40.17
  Q 5.02 41.07 5.00 42.75
  Q 4.93 48.71 4.97 54.67
  Q 4.99 57.74 5.65 60.76
  Q 6.64 65.36 7.00 66.75
  Q 8.72 73.40 12.81 79.69
  Q 14.43 82.16 16.40 83.64
  A 1.54 1.48 62.5 0 0 17.31 83.95
  L 26.01 83.99
  A 0.99 0.97 -89.1 0 0 26.99 83.02
  Q 27.05 79.72 27.13 77.18
  Q 27.17 75.80 28.25 76.25
  L 28.05 82.60
  Q 27.99 84.75 26.04 84.75
  Q 22.25 84.75 19.00 84.75
  Q 15.69 84.75 14.18 82.79
  Q 10.59 78.13 8.46 72.63
  Q 1.68 55.12 5.75 35.75
  Q 8.18 24.16 15.42 16.12
  A 1.45 1.44 15.5 0 1 16.24 15.66
  Q 21.59 14.73 26.90 15.49
  A 1.28 1.27 -86.2 0 1 28.00 16.76
  L 28.00 22.77
  A 0.98 0.98 0.0 0 0 28.98 23.75
  L 36.69 23.75
  A 1.31 1.31 3.2 0 1 38.00 25.06
  L 38.00 42.84
  Q 38.00 44.75 36.09 44.75
  L 28.67 44.75
  A 0.67 0.67 0.0 0 0 28.00 45.42
  L 28.00 54.59
  A 0.67 0.66 0.0 0 0 28.67 55.25
  L 36.30 55.31
  A 1.74 1.71 -89.8 0 1 38.00 57.05
  Q 38.00 65.61 38.00 73.51
  Q 38.00 73.58 38.07 74.49
  Q 38.21 76.31 36.25 76.21
  Z"
/>
<path fill="#d09286" fill-opacity="0.980" d="
  M 104.71 25.25
  Q 105.10 22.72 103.56 21.15
  A 1.11 0.95 -23.5 0 0 102.68 20.88
  Q 100.54 21.15 98.39 20.97
  Q 98.25 20.96 95.76 21.09
  Q 93.51 21.21 94.15 17.83
  A 1.54 1.53 -84.7 0 0 92.64 16.00
  L 51.56 16.06
  A 0.60 0.52 1.5 0 0 50.97 16.55
  L 50.74 20.00
  A 1.15 1.14 0.8 0 1 49.64 21.06
  L 43.79 21.25
  Q 45.42 19.76 47.73 20.32
  Q 51.02 21.11 50.26 17.54
  Q 49.77 15.25 52.11 15.25
  Q 72.36 15.25 92.00 15.25
  Q 93.67 15.25 94.28 15.94
  Q 95.13 16.89 94.70 18.70
  A 1.26 1.26 -83.5 0 0 95.93 20.25
  L 102.74 20.25
  Q 104.77 20.25 104.74 22.12
  L 104.71 25.25
  Z"
/>
<path fill="#d79b97" fill-opacity="0.980" d="
  M 110.71 82.50
  Q 110.62 81.98 111.00 81.71
  L 116.51 82.21
  A 0.99 0.93 76.9 0 1 117.23 82.69
  Q 118.49 84.86 121.02 84.16
  Q 121.48 84.03 121.99 84.11
  Q 123.69 84.41 124.24 82.96
  Q 130.06 67.76 136.81 51.15
  A 3.46 3.44 45.4 0 0 136.82 48.58
  L 124.12 16.78
  A 1.16 1.02 86.8 0 0 123.48 16.13
  Q 122.24 15.69 120.94 15.82
  Q 120.73 15.84 119.43 15.88
  Q 118.18 15.91 117.63 16.98
  A 1.35 0.90 -77.2 0 1 116.97 17.61
  Q 114.86 18.30 111.95 17.89
  A 0.83 0.83 4.2 0 0 111.00 18.71
  L 111.00 36.39
  A 0.80 0.71 0.8 0 0 111.78 37.10
  L 116.70 37.21
  A 1.13 0.79 68.6 0 1 117.48 37.73
  Q 118.59 39.48 116.50 39.71
  L 116.46 39.50
  Q 117.10 39.04 116.96 38.45
  A 0.78 0.53 -3.1 0 0 116.26 38.03
  L 111.36 37.80
  A 1.29 1.16 -88.8 0 1 110.25 36.52
  L 110.25 18.87
  Q 110.25 17.00 112.18 16.99
  L 116.19 16.96
  A 1.04 0.82 -69.0 0 0 116.95 16.51
  Q 117.85 15.18 119.42 15.11
  Q 120.70 15.06 122.07 15.13
  Q 124.26 15.25 125.25 17.75
  Q 131.40 33.22 137.70 49.02
  A 2.61 2.57 45.4 0 1 137.70 50.91
  Q 130.95 67.82 124.69 83.44
  Q 124.03 85.08 122.03 84.97
  Q 121.70 84.95 119.46 84.92
  Q 117.84 84.90 116.93 83.49
  A 1.07 0.78 -8.1 0 0 116.19 83.10
  L 110.71 82.50
  Z"
/>
<path fill="#bb1e1e" d="
  M 104.71 25.25
  Q 105.35 30.01 103.97 34.51
  L 94.87 34.30
  A 0.59 0.57 1.0 0 0 94.26 34.87
  L 94.36 42.53
  A 1.35 1.23 -0.2 0 0 95.71 43.75
  L 103.01 43.75
  A 1.07 1.01 -0.3 0 1 104.08 44.75
  L 104.23 54.84
  A 1.52 1.46 2.0 0 1 102.58 56.32
  Q 98.35 55.96 94.92 56.59
  A 0.67 0.60 -5.3 0 0 94.37 57.18
  L 94.26 65.19
  A 0.56 0.55 1.0 0 0 94.81 65.75
  L 102.83 65.94
  A 1.31 1.17 0.3 0 1 104.11 67.09
  L 104.20 77.61
  A 1.46 1.40 1.2 0 1 102.66 79.02
  Q 98.86 78.83 95.49 79.02
  Q 93.50 79.13 94.22 82.17
  A 1.50 1.49 -8.9 0 1 92.88 84.00
  Q 88.02 84.39 82.79 84.25
  Q 74.45 84.03 72.70 84.04
  Q 62.99 84.09 53.28 84.00
  Q 53.19 84.00 52.23 84.09
  Q 50.41 84.25 51.00 81.75
  Q 51.65 79.00 50.00 79.00
  L 44.04 79.00
  Q 43.09 66.09 43.78 52.89
  L 49.95 52.76
  A 0.65 0.60 -86.7 0 0 50.54 52.19
  L 50.93 49.19
  A 1.89 1.65 9.5 0 0 49.39 47.31
  Q 45.71 46.61 43.96 47.50
  Q 43.04 34.38 43.79 21.25
  L 49.64 21.06
  A 1.15 1.14 0.8 0 0 50.74 20.00
  L 50.97 16.55
  A 0.60 0.52 1.5 0 1 51.56 16.06
  L 92.64 16.00
  A 1.54 1.53 -84.7 0 1 94.15 17.83
  Q 93.51 21.21 95.76 21.09
  Q 98.25 20.96 98.39 20.97
  Q 100.54 21.15 102.68 20.88
  A 1.11 0.95 -23.5 0 1 103.56 21.15
  Q 105.10 22.72 104.71 25.25
  Z
  M 55.76 17.77
  A 0.26 0.26 0.0 0 0 55.50 17.51
  L 52.76 17.51
  A 0.26 0.26 0.0 0 0 52.50 17.77
  L 52.50 82.21
  A 0.26 0.26 0.0 0 0 52.76 82.47
  L 55.50 82.47
  A 0.26 0.26 0.0 0 0 55.76 82.21
  L 55.76 17.77
  Z
  M 87.50 17.82
  A 0.32 0.32 0.0 0 0 87.18 17.50
  L 57.82 17.50
  A 0.32 0.32 0.0 0 0 57.50 17.82
  L 57.50 82.18
  A 0.32 0.32 0.0 0 0 57.82 82.50
  L 87.18 82.50
  A 0.32 0.32 0.0 0 0 87.50 82.18
  L 87.50 17.82
  Z
  M 92.50 17.93
  A 0.43 0.43 0.0 0 0 92.07 17.50
  L 89.69 17.50
  A 0.43 0.43 0.0 0 0 89.26 17.93
  L 89.26 82.07
  A 0.43 0.43 0.0 0 0 89.69 82.50
  L 92.07 82.50
  A 0.43 0.43 0.0 0 0 92.50 82.07
  L 92.50 17.93
  Z
  M 50.76 23.09
  A 0.59 0.59 0.0 0 0 50.17 22.50
  L 46.59 22.50
  A 0.59 0.59 0.0 0 0 46.00 23.09
  L 46.00 45.17
  A 0.59 0.59 0.0 0 0 46.59 45.76
  L 50.17 45.76
  A 0.59 0.59 0.0 0 0 50.76 45.17
  L 50.76 23.09
  Z
  M 102.5024 23.1228
  A 0.63 0.63 0.0 0 0 101.8713 22.4939
  L 94.8713 22.5061
  A 0.63 0.63 0.0 0 0 94.2424 23.1372
  L 94.2576 31.8772
  A 0.63 0.63 0.0 0 0 94.8887 32.5061
  L 101.8887 32.4939
  A 0.63 0.63 0.0 0 0 102.5176 31.8628
  L 102.5024 23.1228
  Z
  M 102.4848 45.6756
  A 0.45 0.45 0.0 0 0 102.0332 45.2272
  L 94.6932 45.2528
  A 0.45 0.45 0.0 0 0 94.2448 45.7044
  L 94.2752 54.4244
  A 0.45 0.45 0.0 0 0 94.7268 54.8728
  L 102.0668 54.8472
  A 0.45 0.45 0.0 0 0 102.5152 54.3956
  L 102.4848 45.6756
  Z
  M 50.76 54.69
  A 0.43 0.43 0.0 0 0 50.33 54.26
  L 46.43 54.26
  A 0.43 0.43 0.0 0 0 46.00 54.69
  L 46.00 77.07
  A 0.43 0.43 0.0 0 0 46.43 77.50
  L 50.33 77.50
  A 0.43 0.43 0.0 0 0 50.76 77.07
  L 50.76 54.69
  Z
  M 102.4941 67.9356
  A 0.45 0.45 0.0 0 0 102.0425 67.4872
  L 94.6826 67.5129
  A 0.45 0.45 0.0 0 0 94.2341 67.9644
  L 94.2659 77.0644
  A 0.45 0.45 0.0 0 0 94.7175 77.5128
  L 102.0774 77.4871
  A 0.45 0.45 0.0 0 0 102.5259 77.0356
  L 102.4941 67.9356
  Z"
/>
<path fill="#bb1e1e" d="
  M 111.00 81.71
  L 111.00 63.04
  Q 113.48 63.10 115.95 62.89
  Q 116.97 62.81 117.50 62.27
  Q 118.55 61.20 117.00 60.21
  L 111.93 60.06
  A 1.02 0.90 1.3 0 1 110.94 59.15
  L 111.17 40.69
  A 0.63 0.54 89.1 0 1 111.68 40.08
  L 116.50 39.71
  Q 118.59 39.48 117.48 37.73
  A 1.13 0.79 68.6 0 0 116.70 37.21
  L 111.78 37.10
  A 0.80 0.71 0.8 0 1 111.00 36.39
  L 111.00 18.71
  A 0.83 0.83 4.2 0 1 111.95 17.89
  Q 114.86 18.30 116.97 17.61
  A 1.35 0.90 -77.2 0 0 117.63 16.98
  Q 118.18 15.91 119.43 15.88
  Q 120.73 15.84 120.94 15.82
  Q 122.24 15.69 123.48 16.13
  A 1.16 1.02 86.8 0 1 124.12 16.78
  L 136.82 48.58
  A 3.46 3.44 45.4 0 1 136.81 51.15
  Q 130.06 67.76 124.24 82.96
  Q 123.69 84.41 121.99 84.11
  Q 121.48 84.03 121.02 84.16
  Q 118.49 84.86 117.23 82.69
  A 0.99 0.93 76.9 0 0 116.51 82.21
  L 111.00 81.71
  Z
  M 122.51 18.19
  A 0.70 0.70 0.0 0 0 121.81 17.49
  L 119.95 17.49
  A 0.70 0.70 0.0 0 0 119.25 18.19
  L 119.25 81.79
  A 0.70 0.70 0.0 0 0 119.95 82.49
  L 121.81 82.49
  A 0.70 0.70 0.0 0 0 122.51 81.79
  L 122.51 18.19
  Z
  M 117.50 19.77
  A 0.52 0.52 0.0 0 0 116.98 19.25
  L 113.02 19.25
  A 0.52 0.52 0.0 0 0 112.50 19.77
  L 112.50 35.23
  A 0.52 0.52 0.0 0 0 113.02 35.75
  L 116.98 35.75
  A 0.52 0.52 0.0 0 0 117.50 35.23
  L 117.50 19.77
  Z
  M 134.12 54.09
  Q 134.66 52.66 135.41 50.86
  A 1.95 1.83 -46.0 0 0 135.43 49.41
  L 124.79 23.05
  Q 124.25 21.71 124.25 23.16
  L 124.25 77.16
  Q 124.25 78.43 124.75 77.26
  Q 129.64 65.75 134.12 54.09
  Z
  M 117.50 42.27
  A 0.52 0.52 0.0 0 0 116.98 41.75
  L 113.02 41.75
  A 0.52 0.52 0.0 0 0 112.50 42.27
  L 112.50 57.73
  A 0.52 0.52 0.0 0 0 113.02 58.25
  L 116.98 58.25
  A 0.52 0.52 0.0 0 0 117.50 57.73
  L 117.50 42.27
  Z
  M 117.50 64.77
  A 0.52 0.52 0.0 0 0 116.98 64.25
  L 113.02 64.25
  A 0.52 0.52 0.0 0 0 112.50 64.77
  L 112.50 80.23
  A 0.52 0.52 0.0 0 0 113.02 80.75
  L 116.98 80.75
  A 0.52 0.52 0.0 0 0 117.50 80.23
  L 117.50 64.77
  Z"
/>
<path fill="#303537" d="
  M 36.50 75.79
  Q 32.32 75.34 28.25 76.25
  Q 27.17 75.80 27.13 77.18
  Q 27.05 79.72 26.99 83.02
  A 0.99 0.97 -89.1 0 1 26.01 83.99
  L 17.31 83.95
  A 1.54 1.48 62.5 0 1 16.40 83.64
  Q 14.43 82.16 12.81 79.69
  Q 8.72 73.40 7.00 66.75
  Q 6.64 65.36 5.65 60.76
  Q 4.99 57.74 4.97 54.67
  Q 4.93 48.71 5.00 42.75
  Q 5.02 41.07 5.47 40.17
  Q 5.76 39.60 5.80 39.26
  Q 7.30 26.27 15.86 16.56
  A 1.23 1.23 -71.7 0 1 16.69 16.14
  Q 21.57 15.68 26.43 16.25
  A 0.60 0.55 -88.5 0 1 26.92 16.82
  L 27.25 23.44
  A 0.60 0.53 -0.4 0 0 27.82 23.94
  L 36.32 24.16
  A 0.53 0.53 -59.9 0 1 36.84 24.68
  L 36.97 43.15
  A 0.97 0.88 -1.0 0 1 36.02 44.04
  L 28.15 44.20
  A 1.27 1.18 89.1 0 0 27.00 45.48
  L 27.06 54.62
  A 1.55 1.42 0.9 0 0 28.56 56.03
  L 36.44 56.26
  A 0.57 0.53 89.4 0 1 36.96 56.81
  Q 37.32 63.91 37.06 74.94
  Q 37.05 75.57 36.50 75.79
  Z
  M 8.82 32.15
  Q 6.72 39.15 6.39 46.35
  Q 6.05 53.87 7.11 60.64
  Q 8.89 72.02 15.81 81.19
  Q 17.45 83.36 20.22 82.37
  A 0.74 0.71 80.5 0 0 20.69 81.68
  L 20.75 18.25
  A 0.70 0.66 -82.2 0 0 20.28 17.59
  Q 17.58 16.75 15.94 18.69
  Q 11.18 24.29 8.82 32.15
  Z
  M 25.74 17.80
  A 0.31 0.31 0.0 0 0 25.43 17.49
  L 22.81 17.49
  A 0.31 0.31 0.0 0 0 22.50 17.80
  L 22.50 82.18
  A 0.31 0.31 0.0 0 0 22.81 82.49
  L 25.43 82.49
  A 0.31 0.31 0.0 0 0 25.74 82.18
  L 25.74 17.80
  Z
  M 35.7466 26.5928
  A 0.60 0.60 0.0 0 0 35.1456 25.9939
  L 28.0856 26.0062
  A 0.60 0.60 0.0 0 0 27.4867 26.6072
  L 27.5134 41.9072
  A 0.60 0.60 0.0 0 0 28.1144 42.5061
  L 35.1744 42.4938
  A 0.60 0.60 0.0 0 0 35.7733 41.8928
  L 35.7466 26.5928
  Z
  M 35.7361 57.7828
  A 0.31 0.31 0.0 0 0 35.4256 57.4734
  L 27.8056 57.4867
  A 0.31 0.31 0.0 0 0 27.4961 57.7972
  L 27.5239 73.6972
  A 0.31 0.31 0.0 0 0 27.8344 74.0066
  L 35.4544 73.9933
  A 0.31 0.31 0.0 0 0 35.7639 73.6828
  L 35.7361 57.7828
  Z"
/>
<path fill="#d3d7cf" d="
  M 8.82 32.15
  Q 11.18 24.29 15.94 18.69
  Q 17.58 16.75 20.28 17.59
  A 0.70 0.66 -82.2 0 1 20.75 18.25
  L 20.69 81.68
  A 0.74 0.71 80.5 0 1 20.22 82.37
  Q 17.45 83.36 15.81 81.19
  Q 8.89 72.02 7.11 60.64
  Q 6.05 53.87 6.39 46.35
  Q 6.72 39.15 8.82 32.15
  Z"
/>
<rect fill="#b2b6b1" x="22.50" y="17.49" width="3.24" height="65.00" rx="0.31"/>
<rect fill="#e79696" x="52.50" y="17.51" width="3.26" height="64.96" rx="0.26"/>
<rect fill="#f2b4b4" x="57.50" y="17.50" width="30.00" height="65.00" rx="0.32"/>
<rect fill="#e79696" x="89.26" y="17.50" width="3.24" height="65.00" rx="0.43"/>
<rect fill="#e79696" x="119.25" y="17.49" width="3.26" height="65.00" rx="0.70"/>
<rect fill="#f2b4b4" x="112.50" y="19.25" width="5.00" height="16.50" rx="0.52"/>
<rect fill="#f2b4b4" x="46.00" y="22.50" width="4.76" height="23.26" rx="0.59"/>
<rect fill="#f2b4b4" x="-4.13" y="-5.00" transform="translate(98.38,27.50) rotate(-0.1)" width="8.26" height="10.00" rx="0.63"/>
<path fill="#f2b4b4" d="
  M 134.12 54.09
  Q 129.64 65.75 124.75 77.26
  Q 124.25 78.43 124.25 77.16
  L 124.25 23.16
  Q 124.25 21.71 124.79 23.05
  L 135.43 49.41
  A 1.95 1.83 -46.0 0 1 135.41 50.86
  Q 134.66 52.66 134.12 54.09
  Z"
/>
<rect fill="#d3d7cf" x="-4.13" y="-8.25" transform="translate(31.63,34.25) rotate(-0.1)" width="8.26" height="16.50" rx="0.60"/>
<path fill="#d09286" fill-opacity="0.980" d="
  M 103.97 34.51
  L 95.78 34.68
  A 1.05 0.98 -0.6 0 0 94.75 35.66
  L 94.75 41.76
  A 0.99 0.99 90.0 0 0 95.74 42.75
  L 102.56 42.75
  Q 104.75 42.75 104.75 44.94
  L 104.75 55.34
  Q 104.75 57.25 102.84 57.25
  L 95.67 57.25
  A 0.92 0.92 0.0 0 0 94.75 58.17
  L 94.75 64.33
  A 0.92 0.92 0.0 0 0 95.67 65.25
  L 102.77 65.25
  Q 104.75 65.25 104.75 67.23
  L 104.75 77.57
  Q 104.75 79.73 102.55 79.74
  L 95.82 79.79
  A 1.21 1.18 85.6 0 0 94.66 81.17
  Q 95.12 84.25 93.27 84.73
  Q 93.19 84.75 90.21 84.75
  Q 71.45 84.75 52.02 84.75
  Q 49.68 84.75 50.20 82.47
  Q 51.01 78.91 47.51 79.78
  Q 45.48 80.28 44.04 79.00
  L 50.00 79.00
  Q 51.65 79.00 51.00 81.75
  Q 50.41 84.25 52.23 84.09
  Q 53.19 84.00 53.28 84.00
  Q 62.99 84.09 72.70 84.04
  Q 74.45 84.03 82.79 84.25
  Q 88.02 84.39 92.88 84.00
  A 1.50 1.49 -8.9 0 0 94.22 82.17
  Q 93.50 79.13 95.49 79.02
  Q 98.86 78.83 102.66 79.02
  A 1.46 1.40 1.2 0 0 104.20 77.61
  L 104.11 67.09
  A 1.31 1.17 0.3 0 0 102.83 65.94
  L 94.81 65.75
  A 0.56 0.55 1.0 0 1 94.26 65.19
  L 94.37 57.18
  A 0.67 0.60 -5.3 0 1 94.92 56.59
  Q 98.35 55.96 102.58 56.32
  A 1.52 1.46 2.0 0 0 104.23 54.84
  L 104.08 44.75
  A 1.07 1.01 -0.3 0 0 103.01 43.75
  L 95.71 43.75
  A 1.35 1.23 -0.2 0 1 94.36 42.53
  L 94.26 34.87
  A 0.59 0.57 1.0 0 1 94.87 34.30
  L 103.97 34.51
  Z"
/>
<path fill="#cf605b" fill-opacity="0.988" d="
  M 116.46 39.50
  L 116.50 39.71
  L 111.68 40.08
  A 0.63 0.54 89.1 0 0 111.17 40.69
  L 110.94 59.15
  A 1.02 0.90 1.3 0 0 111.93 60.06
  L 117.00 60.21
  Q 116.58 60.18 116.46 60.50
  L 111.91 60.50
  A 1.66 1.66 0.0 0 1 110.25 58.84
  L 110.25 41.18
  A 1.68 1.68 -0.7 0 1 111.93 39.50
  L 116.46 39.50
  Z"
/>
<rect fill="#f2b4b4" x="112.50" y="41.75" width="5.00" height="16.50" rx="0.52"/>
<rect fill="#f2b4b4" x="-4.12" y="-4.81" transform="translate(98.38,50.05) rotate(-0.2)" width="8.24" height="9.62" rx="0.45"/>
<path fill="#d79b97" fill-opacity="0.980" d="
  M 43.78 52.89
  Q 46.04 51.36 49.19 52.04
  A 0.69 0.69 12.5 0 0 50.01 51.52
  Q 51.01 47.24 47.74 47.93
  Q 45.74 48.35 43.96 47.50
  Q 45.71 46.61 49.39 47.31
  A 1.89 1.65 9.5 0 1 50.93 49.19
  L 50.54 52.19
  A 0.65 0.60 -86.7 0 1 49.95 52.76
  L 43.78 52.89
  Z"
/>
<rect fill="#f2b4b4" x="46.00" y="54.26" width="4.76" height="23.24" rx="0.43"/>
<rect fill="#d3d7cf" x="-4.12" y="-8.26" transform="translate(31.63,65.74) rotate(-0.1)" width="8.24" height="16.52" rx="0.31"/>
<path fill="#f2b4b4" d="
  M 117.00 60.21
  Q 118.55 61.20 117.50 62.27
  Q 116.97 62.81 115.95 62.89
  Q 113.48 63.10 111.00 63.04
  Q 110.66 62.87 110.71 62.50
  Q 113.42 61.72 116.24 61.95
  A 0.79 0.57 9.8 0 0 117.00 61.58
  Q 117.22 60.97 116.46 60.50
  Q 116.58 60.18 117.00 60.21
  Z"
/>
<path fill="#cf605b" fill-opacity="0.988" d="
  M 110.71 62.50
  Q 110.66 62.87 111.00 63.04
  L 111.00 81.71
  Q 110.62 81.98 110.71 82.50
  Q 110.25 81.81 110.25 80.00
  Q 110.25 72.00 110.25 64.00
  Q 110.25 62.97 110.71 62.50
  Z"
/>
<rect fill="#f2b4b4" x="112.50" y="64.25" width="5.00" height="16.50" rx="0.52"/>
<rect fill="#f2b4b4" x="-4.13" y="-5.00" transform="translate(98.38,72.50) rotate(-0.2)" width="8.26" height="10.00" rx="0.45"/>
<path fill="#5a815e" fill-opacity="0.988" d="
  M 36.50 75.79
  L 36.25 76.21
  L 28.25 76.25
  Q 32.32 75.34 36.50 75.79
  Z"
/>
</svg>
